<svg width="229" height="225" viewBox="0 0 229 225" fill="none" xmlns="http://www.w3.org/2000/svg">
<path d="M203.992 196.257C201.521 198.651 200.402 196.062 196.962 196.062C193.522 196.062 193.522 195.877 190.081 195.877C186.641 195.877 186.641 195.828 183.201 195.828C179.761 195.828 179.761 196.362 176.321 196.362C172.88 196.362 172.88 196.19 169.44 196.19C165.999 196.19 166 196.105 162.559 196.105C159.119 196.105 159.119 195.943 155.679 195.943C152.238 195.943 152.239 196.156 148.798 196.156C145.359 196.156 145.359 196.372 141.92 196.372C138.48 196.372 138.48 196.155 135.04 196.155C131.6 196.155 131.601 195.955 128.162 195.955C124.723 195.955 124.722 195.88 121.281 195.88C117.841 195.88 117.841 196.123 114.4 196.123C110.96 196.123 110.96 196.205 107.52 196.205C104.079 196.205 104.08 195.934 100.639 195.934C97.1985 195.934 97.1985 196.054 93.758 196.054C90.3175 196.054 90.3169 196.291 86.8758 196.291C83.4347 196.291 83.4353 196.312 79.9947 196.312C76.5542 196.312 76.5536 196.212 73.1131 196.212C69.6725 196.212 69.672 196.131 66.2309 196.131C62.7898 196.131 62.7909 196.342 59.3509 196.342C55.911 196.342 55.9104 196.152 52.4693 196.152C49.0282 196.152 49.0271 196.05 45.5854 196.05C42.1437 196.05 42.1443 196.101 38.7038 196.101C35.2632 196.101 35.2604 196.156 31.817 196.156C28.3737 196.156 27.2942 198.612 24.8192 196.218C22.426 193.904 24.9298 192.773 24.9298 189.444C24.9298 186.115 25.1431 186.113 25.1431 182.783C25.1431 179.454 24.8389 179.453 24.8389 176.122C24.8389 172.791 24.7452 172.791 24.7452 169.461C24.7452 166.132 25.1256 166.131 25.1256 162.801C25.1256 159.471 24.9061 159.471 24.9061 156.14C24.9061 152.808 25.1611 152.808 25.1611 149.477C25.1611 146.145 24.8632 146.146 24.8632 142.815C24.8632 139.484 25.1391 139.484 25.1391 136.153C25.1391 132.822 24.8637 132.822 24.8637 129.491C24.8637 126.16 25.1961 126.161 25.1961 122.831C25.1961 119.501 24.6769 119.5 24.6769 116.17C24.6769 112.839 24.7401 112.837 24.7401 109.506C24.7401 106.174 24.6871 106.175 24.6871 102.844C24.6871 99.5126 24.9546 99.5103 24.9546 96.177C24.9546 92.8437 24.8491 92.8437 24.8491 89.5103C24.8491 87.1843 24.8863 84.8684 25.0635 82.5875C25.2435 80.2711 25.3727 77.9467 25.7282 75.6839C26.0883 73.3911 26.7524 71.1571 27.2863 68.9269C27.8257 66.6726 28.4922 64.4599 29.2009 62.2761C29.9159 60.0736 30.7071 57.9039 31.5874 55.781C32.4739 53.644 33.2368 51.4415 34.2825 49.3931C35.3338 47.334 36.5588 45.3567 37.7631 43.3952C38.9673 41.4337 40.2765 39.5089 41.6319 37.6467C42.9874 35.7845 44.6994 34.1926 46.1971 32.441C47.6947 30.6894 49.0304 28.7838 50.6613 27.1535C52.2921 25.5232 53.9573 23.911 55.7112 22.4117C57.465 20.9124 59.3955 19.6308 61.2622 18.2726C63.1289 16.9143 65.056 15.6621 67.0243 14.4534C68.9926 13.2446 71.0263 12.1883 73.0854 11.137C75.1338 10.0913 77.176 9.0265 79.313 8.14055C81.4354 7.26024 83.6266 6.55148 85.829 5.83651C88.0123 5.12775 90.2204 4.49235 92.4748 3.95288C94.7049 3.41962 96.983 3.12675 99.2757 2.76616C101.539 2.41065 103.775 1.71035 106.091 1.53034C108.372 1.35315 110.69 1.6528 113.016 1.6528C114.387 1.6528 114.387 1.56364 115.757 1.56364C118.083 1.56364 120.375 1.68778 122.656 1.86441C124.973 2.04442 127.319 1.87626 129.582 2.23233C131.875 2.59235 134.141 3.11885 136.371 3.65211C138.625 4.19158 140.837 4.89583 143.02 5.60459C145.223 6.31956 147.427 7.0475 149.549 7.92725C151.686 8.81376 153.726 9.92318 155.775 10.9694C157.834 12.0207 159.697 13.3993 161.659 14.6035C163.62 15.8077 165.683 16.8737 167.545 18.2291C169.407 19.5846 171.274 20.9592 173.026 22.4568C174.78 23.9562 176.491 25.5165 178.121 27.1473C179.751 28.7781 181.231 30.5579 182.731 32.3118C184.228 34.0634 185.466 36.0136 186.824 37.8803C188.182 39.747 189.508 41.6097 190.717 43.578C191.925 45.5463 192.987 47.5676 194.038 49.6262C195.084 51.6746 196.301 53.6446 197.187 55.7816C198.068 57.9039 198.611 60.1543 199.327 62.3568C200.035 64.5401 201.005 66.6596 201.544 68.914C202.078 71.1441 202.59 73.4069 202.95 75.6991C203.306 77.9619 203.521 80.2716 203.701 82.5881C203.878 84.869 204.003 87.1843 204.003 89.5103C204.003 92.8397 204.12 92.8397 204.12 96.1691C204.12 99.4984 203.644 99.4996 203.644 102.83C203.644 106.159 203.667 106.16 203.667 109.491C203.667 112.822 203.607 112.822 203.607 116.152C203.607 119.481 203.815 119.482 203.815 122.812C203.815 126.142 203.73 126.142 203.73 129.473C203.73 132.805 204.083 132.805 204.083 136.136C204.083 139.468 203.623 139.467 203.623 142.798C203.623 146.129 203.694 146.129 203.694 149.46C203.694 152.791 203.764 152.791 203.764 156.122C203.764 159.453 204.034 159.452 204.034 162.782C204.034 166.112 203.804 166.113 203.804 169.443C203.804 172.774 203.604 172.776 203.604 176.107C203.604 179.439 203.686 179.438 203.686 182.769C203.686 186.1 203.19 186.166 203.93 189.416C204.741 192.976 206.386 193.937 203.992 196.257Z" stroke="#363737" stroke-width="0.141075" stroke-linecap="round" stroke-linejoin="round"/>
<g opacity="0.3">
<path d="M203.994 196.257C201.524 198.65 200.404 196.061 196.964 196.061C193.524 196.061 193.524 195.876 190.084 195.876C186.643 195.876 186.644 195.828 183.204 195.828C179.764 195.828 179.764 196.362 176.323 196.362C172.883 196.362 172.883 196.189 169.442 196.189C166.002 196.189 166.002 196.105 162.562 196.105C159.121 196.105 159.122 195.942 155.681 195.942C152.241 195.942 152.241 196.156 148.801 196.156C145.362 196.156 145.362 196.371 141.922 196.371C138.483 196.371 138.482 196.154 135.042 196.154C131.602 196.154 131.603 195.955 128.164 195.955C124.725 195.955 124.724 195.88 121.284 195.88C117.843 195.88 117.843 196.122 114.403 196.122C110.962 196.122 110.963 196.204 107.522 196.204C104.081 196.204 104.082 195.933 100.642 195.933C97.201 195.933 97.201 196.053 93.7604 196.053C90.3199 196.053 90.3193 196.291 86.8782 196.291C83.4371 196.291 83.4377 196.311 79.9972 196.311C76.5566 196.311 76.556 196.211 73.1155 196.211C69.675 196.211 69.6744 196.131 66.2333 196.131C62.7922 196.131 62.7933 196.342 59.3534 196.342C55.9134 196.342 55.9128 196.152 52.4717 196.152C49.0306 196.152 49.0295 196.049 45.5878 196.049C42.1462 196.049 42.1467 196.1 38.7062 196.1C35.2657 196.1 35.2628 196.155 31.8195 196.155C28.3761 196.155 27.2966 198.611 24.8216 196.217C22.4284 193.903 24.9322 192.773 24.9322 189.443C24.9322 186.114 25.1455 186.113 25.1455 182.783C25.1455 179.453 24.8413 179.452 24.8413 176.121C24.8413 172.79 24.7477 172.791 24.7477 169.461C24.7477 166.131 25.128 166.13 25.128 162.8C25.128 159.47 24.9085 159.47 24.9085 156.139C24.9085 152.808 25.1636 152.808 25.1636 149.476C25.1636 146.145 24.8656 146.146 24.8656 142.815C24.8656 139.484 25.1416 139.484 25.1416 136.152C25.1416 132.821 24.8662 132.821 24.8662 129.49C24.8662 126.159 25.1985 126.16 25.1985 122.83C25.1985 119.501 24.6794 119.499 24.6794 116.169C24.6794 112.838 24.7426 112.837 24.7426 109.505C24.7426 106.173 24.6895 106.174 24.6895 102.843C24.6895 99.5119 24.957 99.5097 24.957 96.1763C24.957 92.843 24.8515 92.843 24.8515 89.5097C24.8515 87.1837 24.8887 84.8678 25.0659 82.5869C25.2459 80.2704 25.3752 77.9461 25.7307 75.6832C26.0907 73.3905 26.7549 71.1564 27.2887 68.9263C27.8282 66.6719 28.4946 64.4593 29.2034 62.2755C29.9184 60.073 30.7095 57.9033 31.5898 55.7804C32.4763 53.6434 33.2393 51.4409 34.2849 49.3925C35.3362 47.3334 36.5613 45.3561 37.7655 43.3946C38.9697 41.433 40.2789 39.5082 41.6343 37.646C42.9898 35.7838 44.7019 34.1919 46.1995 32.4404C47.6972 30.6888 49.0329 28.7831 50.6637 27.1529C52.2945 25.5226 53.9598 23.9104 55.7136 22.4111C57.4675 20.9117 59.3979 19.6302 61.2647 18.2719C63.1314 16.9136 65.0584 15.6615 67.0267 14.4527C68.995 13.244 71.0287 12.1876 73.0879 11.1363C75.1363 10.0907 77.1785 9.02586 79.3155 8.13991C81.4378 7.2596 83.629 6.55084 85.8315 5.83587C88.0147 5.12711 90.2228 4.49171 92.4772 3.95224C94.7073 3.41898 96.9854 3.12611 99.2782 2.76552C101.541 2.41001 103.777 1.70971 106.094 1.5297C108.375 1.35251 110.693 1.65215 113.019 1.65215C114.389 1.65215 114.389 1.563 115.76 1.563C118.086 1.563 120.378 1.68714 122.659 1.86377C124.975 2.04378 127.322 1.87562 129.584 2.23169C131.877 2.59171 134.143 3.11821 136.374 3.65147C138.628 4.19094 140.839 4.89519 143.023 5.60395C145.225 6.31892 147.429 7.04686 149.552 7.92661C151.689 8.81312 153.729 9.92253 155.777 10.9687C157.836 12.02 159.699 13.3986 161.661 14.6028C163.622 15.8071 165.685 16.873 167.547 18.2285C169.409 19.5839 171.277 20.9585 173.028 22.4562C174.782 23.9555 176.493 25.5158 178.123 27.1467C179.754 28.7775 181.234 30.5573 182.733 32.3111C184.231 34.0627 185.468 36.0129 186.826 37.8796C188.185 39.7464 189.51 41.6091 190.719 43.5774C191.928 45.5457 192.99 47.567 194.04 49.6256C195.086 51.674 196.304 53.6439 197.19 55.7809C198.07 57.9033 198.614 60.1537 199.329 62.3562C200.038 64.5394 201.007 66.6589 201.547 68.9133C202.08 71.1434 202.592 73.4063 202.952 75.6985C203.308 77.9613 203.523 80.271 203.703 82.5874C203.88 84.8683 204.005 87.1837 204.005 89.5097C204.005 92.8391 204.122 92.8391 204.122 96.1684C204.122 99.4978 203.646 99.4989 203.646 102.829C203.646 106.159 203.67 106.159 203.67 109.49C203.67 112.821 203.609 112.821 203.609 116.151C203.609 119.481 203.817 119.481 203.817 122.811C203.817 126.141 203.733 126.142 203.733 129.473C203.733 132.804 204.086 132.804 204.086 136.136C204.086 139.467 203.626 139.466 203.626 142.797C203.626 146.128 203.696 146.128 203.696 149.459C203.696 152.79 203.767 152.79 203.767 156.121C203.767 159.452 204.036 159.451 204.036 162.781C204.036 166.111 203.806 166.112 203.806 169.443C203.806 172.773 203.607 172.775 203.607 176.107C203.607 179.438 203.689 179.438 203.689 182.769C203.689 186.1 203.192 186.165 203.933 189.415C204.744 192.976 206.389 193.937 203.994 196.257Z" stroke="#928D8D" stroke-width="0.141075" stroke-linecap="round" stroke-linejoin="round"/>
</g>
<path d="M114.217 92.9143C114.217 96.3532 114.337 96.3532 114.337 99.792C114.337 103.231 114.574 103.231 114.574 106.671C114.574 110.11 114.595 110.11 114.595 113.549C114.595 116.987 114.495 116.987 114.495 120.426C114.495 123.866 114.415 123.866 114.415 127.304C114.415 130.744 114.626 130.744 114.626 134.184C114.626 137.623 114.435 137.623 114.435 141.062C114.435 144.501 114.333 144.502 114.333 147.941C114.333 151.38 114.384 151.38 114.384 154.82C114.384 158.26 114.439 158.259 114.439 161.697C114.439 165.136 114.546 165.137 114.546 168.576C114.546 172.016 114.386 172.017 114.386 175.457C114.386 178.898 114.173 178.897 114.173 182.336C114.173 185.776 114.477 185.778 114.477 189.22C114.477 192.662 114.571 192.662 114.571 196.104" stroke="#353737" stroke-width="1.6929" stroke-miterlimit="10"/>
<path d="M25.4448 92.9212C28.865 92.9212 28.865 93.1142 32.2853 93.1142C35.7055 93.1142 35.7055 92.7513 39.1263 92.7513C42.5471 92.7513 42.5465 92.9347 45.9667 92.9347C49.3869 92.9347 49.3869 92.7796 52.8077 92.7796C56.2285 92.7796 56.2285 92.744 59.6493 92.744C63.0701 92.744 63.0695 92.7147 66.4903 92.7147C69.9111 92.7147 69.9105 92.8366 73.3313 92.8366C76.7521 92.8366 76.7516 93.1565 80.1723 93.1565C83.5931 93.1565 83.5914 92.858 87.0111 92.858C90.4308 92.858 90.4313 93.1385 93.8515 93.1385C97.2718 93.1385 97.2712 92.9782 100.69 92.9782C104.109 92.9782 104.111 92.7655 107.531 92.7655C110.951 92.7655 110.952 92.8862 114.372 92.8862C117.793 92.8862 117.793 93.0036 121.213 93.0036C124.634 93.0036 124.634 93.1424 128.054 93.1424C131.475 93.1424 131.475 92.9404 134.896 92.9404C138.317 92.9404 138.317 93.0544 141.739 93.0544C145.16 93.0544 145.159 92.7767 148.58 92.7767C152.001 92.7767 152.002 93.1147 155.422 93.1147C158.843 93.1147 158.844 92.9466 162.265 92.9466C165.686 92.9466 165.685 93.1023 169.105 93.1023C172.526 93.1023 172.526 93.0414 175.948 93.0414C179.369 93.0414 179.37 93.1204 182.792 93.1204C186.214 93.1204 186.213 92.8507 189.634 92.8507C193.055 92.8507 193.058 92.9043 196.481 92.9043C199.904 92.9043 199.904 93.0284 203.327 93.0284" stroke="#353737" stroke-opacity="0.6" stroke-width="1.6929" stroke-miterlimit="10"/>
<path d="M203.739 195.999C201.269 198.393 200.4 196.162 196.96 196.162C193.519 196.162 193.52 196.165 190.079 196.165C186.639 196.165 186.639 195.873 183.199 195.873C179.759 195.873 179.759 196.332 176.319 196.332C172.878 196.332 172.878 196.348 169.438 196.348C165.997 196.348 165.998 196.356 162.557 196.356C159.117 196.356 159.117 196.107 155.677 196.107C152.236 196.107 152.237 195.953 148.796 195.953C145.356 195.953 145.357 196.065 141.918 196.065C138.478 196.065 138.478 196.3 135.038 196.3C131.598 196.3 131.598 195.989 128.16 195.989C124.721 195.99 124.72 195.825 121.279 195.825C117.839 195.825 117.839 196.145 114.398 196.145C110.958 196.145 110.958 196.017 107.518 196.017C104.077 196.017 104.078 196.213 100.637 196.213C97.1965 196.213 97.1965 195.918 93.756 195.918C90.3154 195.918 90.3149 196.088 86.8738 196.088C83.4327 196.088 83.4332 196.333 79.9927 196.333C76.5521 196.333 76.5516 195.828 73.1111 195.828C69.6705 195.828 69.67 196.071 66.2288 196.071C62.7877 196.071 62.7889 195.873 59.3489 195.873C55.9089 195.873 55.9084 196.163 52.4673 196.163C49.0262 196.163 49.025 196.331 45.5834 196.331C42.1417 196.331 42.1423 195.935 38.7017 195.935C35.2612 195.935 35.2584 195.83 31.815 195.83C28.3717 195.83 27.3288 198.573 24.8538 196.179C22.4606 193.865 24.816 192.773 24.816 189.443C24.816 186.114 24.6603 186.113 24.6603 182.783C24.6603 179.453 24.9537 179.452 24.9537 176.121C24.9537 172.79 25.1879 172.791 25.1879 169.461C25.1879 166.131 24.8002 166.13 24.8002 162.8C24.8002 159.47 25.0609 159.47 25.0609 156.139C25.0609 152.808 24.8561 152.808 24.8561 149.476C24.8561 146.145 24.8815 146.146 24.8815 142.815C24.8815 139.484 25.1743 139.484 25.1743 136.152C25.1743 132.821 25.1851 132.821 25.1851 129.49C25.1851 126.159 25.0987 126.16 25.0987 122.83C25.0987 119.501 25.1168 119.499 25.1168 116.169C25.1168 112.838 24.8956 112.837 24.8956 109.505C24.8956 106.173 24.8414 106.174 24.8414 102.843C24.8414 99.5119 24.7077 99.5097 24.7077 96.1763C24.7077 92.843 24.6828 92.843 24.6828 89.5097C24.6828 87.1837 24.9689 84.8745 25.1461 82.5936C25.3261 80.2772 25.6935 77.9974 26.049 75.7346C26.409 73.4418 26.5461 71.1084 27.0794 68.8783C27.6189 66.624 28.3756 64.4232 29.0849 62.2399C29.7999 60.0374 30.7682 57.9309 31.6485 55.8086C32.5351 53.6716 33.3572 51.5058 34.4035 49.4574C35.4547 47.3983 36.5642 45.3628 37.7684 43.4013C38.9726 41.4398 40.3241 39.546 41.679 37.6838C43.0339 35.8216 44.4661 33.9967 45.9637 32.2445C47.4614 30.4924 48.9364 28.6934 50.5673 27.0631C52.1981 25.4329 53.9604 23.9183 55.7142 22.419C57.4681 20.9196 59.2236 19.3988 61.0898 18.0405C62.952 16.6851 65.0252 15.6174 66.9935 14.4087C68.9618 13.2 70.9148 11.9766 72.9739 10.9253C75.0223 9.87964 77.1396 8.94685 79.2766 8.0609C81.3989 7.18059 83.5145 6.21621 85.717 5.50124C87.9002 4.79248 90.2105 4.46349 92.4648 3.92458C94.695 3.39132 96.9561 2.97487 99.2483 2.61428C101.511 2.25877 103.781 1.83442 106.098 1.65441C108.379 1.47722 110.687 1.37056 113.013 1.37056C114.383 1.37056 114.383 1.15726 115.754 1.15726C118.08 1.15726 120.386 1.50374 122.667 1.68036C124.984 1.86037 127.289 2.0449 129.552 2.40041C131.845 2.76043 134.157 3.03694 136.387 3.57077C138.642 4.11024 140.85 4.84552 143.033 5.55428C145.236 6.26925 147.305 7.33465 149.427 8.21496C151.564 9.10147 153.83 9.71374 155.879 10.76C157.938 11.8112 159.869 13.1148 161.83 14.3196C163.798 15.5283 165.547 17.0553 167.41 18.4107C169.272 19.7662 171.092 21.1696 172.843 22.6672C174.595 24.1649 176.426 25.5779 178.057 27.2082C179.687 28.8384 181.163 30.6132 182.662 32.367C184.16 34.1186 185.551 35.9486 186.909 37.8153C188.267 39.682 189.768 41.4471 190.976 43.4154C192.185 45.3837 193.043 47.5365 194.094 49.5951C195.14 51.6435 196.368 53.6146 197.255 55.7516C198.135 57.8739 198.747 60.108 199.463 62.3104C200.172 64.4937 200.937 66.6736 201.476 68.928C202.01 71.1581 202.582 73.4063 202.942 75.6985C203.298 77.9613 203.396 80.28 203.576 82.5965C203.753 84.8774 203.949 87.1831 203.949 89.5091C203.949 91.7287 203.95 93.9483 203.954 96.1679C203.954 99.4984 203.847 99.4984 203.847 102.828C203.847 106.158 203.877 106.159 203.877 109.49C203.877 112.821 203.649 112.82 203.649 116.15C203.649 119.48 203.623 119.481 203.623 122.811C203.623 126.141 203.938 126.141 203.938 129.472C203.938 132.803 203.863 132.803 203.863 136.135C203.863 139.467 203.62 139.465 203.62 142.797C203.62 146.128 203.605 146.128 203.605 149.459C203.605 152.79 204.088 152.79 204.088 156.121C204.088 159.452 203.684 159.451 203.684 162.781C203.684 166.111 204.081 166.112 204.081 169.442C204.081 172.773 204.069 172.774 204.069 176.106C204.069 179.438 204.116 179.437 204.116 182.768C204.116 186.099 202.998 186.205 203.683 189.468C204.406 192.904 206.132 193.678 203.738 195.997L203.739 195.999Z" stroke="#353737" stroke-opacity="0.6" stroke-width="1.6929" stroke-miterlimit="10"/>
<path d="M226.856 222.666C224.414 225.038 223.339 222.44 219.935 222.44C216.531 222.44 216.53 222.329 213.126 222.329C209.722 222.329 209.722 222.675 206.318 222.675C202.914 222.675 202.913 222.76 199.509 222.76C196.104 222.76 196.105 222.305 192.701 222.305C189.297 222.305 189.296 222.466 185.892 222.466C182.487 222.466 182.488 222.384 179.083 222.384C175.679 222.384 175.679 222.689 172.275 222.689C168.87 222.689 168.87 222.605 165.466 222.605C162.061 222.605 162.061 222.532 158.657 222.532C155.254 222.532 155.253 222.432 151.848 222.432C148.443 222.432 148.443 222.686 145.038 222.686C141.634 222.686 141.634 222.434 138.229 222.434C134.824 222.434 134.824 222.373 131.42 222.373C128.015 222.373 128.015 222.474 124.61 222.474C121.205 222.474 121.207 222.557 117.804 222.557C114.401 222.557 114.399 222.817 110.995 222.817C107.591 222.817 107.592 222.4 104.188 222.4C100.784 222.4 100.783 222.293 97.379 222.293C93.9746 222.293 93.974 222.409 90.569 222.409C87.1641 222.409 87.1646 222.657 83.7602 222.657C80.3558 222.657 80.3558 222.671 76.9508 222.671C73.5458 222.671 73.5458 222.378 70.1408 222.378C66.7358 222.378 66.7353 222.628 63.3297 222.628C59.9242 222.628 59.9247 222.546 56.5197 222.546C53.1148 222.546 53.1148 222.498 49.7092 222.498C46.3037 222.498 46.3037 222.297 42.8987 222.297C39.4937 222.297 39.4942 222.32 36.0904 222.32C32.6854 222.32 32.6854 222.305 29.2799 222.305C25.8743 222.305 25.8737 222.732 22.4671 222.732C19.0604 222.732 19.0621 222.599 15.6565 222.599C12.251 222.599 12.2487 222.444 8.84147 222.444C5.43423 222.444 4.41567 224.98 1.96943 222.607C-0.40289 220.306 2.15734 219.244 2.15734 215.938C2.15734 212.632 1.84302 212.633 1.84302 209.329C1.84302 206.025 1.91695 206.023 1.91695 202.716C1.91695 199.409 -0.185634 198.571 2.18612 196.267C4.62784 193.895 5.43028 195.985 8.83414 195.985C12.238 195.985 12.2386 196.281 15.643 196.281C19.0474 196.281 19.0468 196.055 22.4507 196.055C25.8546 196.055 25.8557 196.041 29.2601 196.041C32.6645 196.041 32.664 195.973 36.0678 195.973C39.4717 195.973 39.4728 196.045 42.8772 196.045C46.2817 196.045 46.2811 195.825 49.6855 195.825C53.0899 195.825 53.0899 195.889 56.4944 195.889C59.8988 195.889 59.8988 196.198 63.3032 196.198C66.7076 196.198 66.7076 196.103 70.1115 196.103C73.5153 196.103 73.5159 195.992 76.9209 195.992C80.3259 195.992 80.3259 196.292 83.7309 196.292C87.1358 196.292 87.1353 195.891 90.5403 195.891C93.9452 195.891 93.9447 196.217 97.3491 196.217C100.754 196.217 100.754 196.187 104.159 196.187C107.563 196.187 107.562 196.283 110.965 196.283C114.368 196.283 114.37 195.834 117.774 195.834C121.178 195.834 121.177 196.015 124.581 196.015C127.985 196.015 127.986 196.061 131.39 196.061C134.794 196.061 134.795 196.275 138.2 196.275C141.605 196.275 141.604 196.068 145.009 196.068C148.413 196.068 148.413 196.369 151.818 196.369C155.223 196.369 155.223 196.052 158.628 196.052C162.033 196.052 162.034 196.251 165.439 196.251C168.845 196.251 168.844 195.848 172.249 195.848C175.654 195.848 175.654 195.958 179.06 195.958C182.465 195.958 182.465 196.151 185.87 196.151C189.275 196.151 189.275 195.908 192.679 195.908C196.082 195.908 196.084 196.281 199.489 196.281C202.895 196.281 202.895 196.211 206.302 196.211C209.709 196.211 209.707 196.299 213.112 196.299C216.518 196.299 216.52 196.257 219.927 196.257C223.335 196.257 224.258 193.771 226.705 196.143C229.077 198.444 226.947 199.409 226.947 202.714C226.947 206.019 226.695 206.019 226.695 209.323C226.695 212.627 225.897 212.737 226.623 215.963C227.414 219.477 229.228 220.362 226.856 222.666Z" fill="#F2F1E5" stroke="#363737" stroke-opacity="0.6" stroke-width="1.6929" stroke-linecap="round" stroke-linejoin="round"/>
<path d="M87.0708 92.9138C87.0708 89.2442 87.7559 85.6225 89.0791 82.4314C90.451 79.1235 92.3639 75.8771 94.8564 73.3846C97.349 70.892 100.871 69.6421 104.178 68.2709C107.369 66.9476 110.716 66.201 114.385 66.201C118.054 66.201 121.373 67.0159 124.564 68.3392C127.872 69.711 130.99 71.3243 133.482 73.8168C135.975 76.3093 137.817 79.3328 139.188 82.6402C140.512 85.8308 141.93 89.2442 141.93 92.9138" stroke="#353737" stroke-width="1.6929" stroke-miterlimit="10"/>
<path d="M113.85 65.851C113.85 60.4828 114.001 60.4828 114.001 55.1141C114.001 49.7453 114.156 49.747 114.156 44.3805C114.156 39.014 113.993 39.0118 113.993 33.643C113.993 28.2743 114.297 28.2743 114.297 22.905C114.297 17.5356 114.877 17.5351 114.877 12.1652C114.877 6.79532 114.353 6.79532 114.353 1.42545" stroke="#353737" stroke-width="1.6929" stroke-miterlimit="10"/>
<path d="M50.1897 27.7868C53.9829 31.58 53.8413 31.7211 57.6345 35.5143C61.4289 39.3087 61.4046 39.3324 65.1989 43.1267C68.9944 46.9222 68.4883 47.429 72.2837 51.2244C76.0792 55.0199 76.5211 54.5758 80.3154 58.3702C84.1126 62.1673 84.1865 62.0929 87.9837 65.89C91.7809 69.6872 91.5111 69.9564 95.3083 73.753" stroke="#353737" stroke-opacity="0.6" stroke-width="1.6929" stroke-miterlimit="10"/>
<path d="M134.648 75.6637C138.441 71.8704 138.131 71.5601 141.924 67.7669C145.718 63.9725 146.078 64.3331 149.873 60.5387C153.668 56.7433 153.247 56.3217 157.042 52.5262C160.838 48.7308 161.227 49.1224 165.021 45.328C168.819 41.5309 168.429 41.1421 172.226 37.3449C176.024 33.5477 176.494 34.0183 180.291 30.2212" stroke="#353737" stroke-opacity="0.6" stroke-width="1.6929" stroke-miterlimit="10"/>
<path d="M145.342 201.617L143.626 201.69L141.849 201.466L140.073 201.853L138.298 201.559L136.522 201.43L134.746 201.667L132.97 201.484L131.194 201.372L129.417 201.74L127.641 201.904L125.864 201.513L124.091 201.996L122.315 201.79L120.54 201.499L118.766 201.71L116.99 201.67L115.214 201.797L113.438 201.962L111.661 201.505L109.884 201.576L108.106 201.879L106.329 201.667L104.551 201.779L102.773 201.79L100.994 201.843L99.2179 201.641L97.4392 201.652L95.6605 201.882L93.8812 201.513L92.0986 201.792L90.26 201.751L89.7242 199.948L89.7796 198.09L89.223 196.348L88.832 194.574L88.858 192.721L88.2362 190.992L88.205 189.15L87.4763 187.443L87.402 185.609L87.2638 183.789L86.8506 182.022L86.5097 180.24L85.9655 178.494L85.6344 176.71L85.4428 174.898L85.0263 173.129L84.6352 171.353L84.4475 169.54L84.1757 167.743L83.8883 165.947L83.4047 164.188L83.2463 162.37L82.4531 160.67L82.0764 158.89L81.7381 157.104L81.4598 155.303L81.2063 153.445L83.069 153.559L84.881 153.346L86.6922 153.667L88.5041 153.21L90.318 153.57L92.1306 153.405L93.9431 153.6L95.755 153.269L97.5676 153.24L99.3821 153.241L101.195 153.253L103.007 153.558L104.82 153.438L106.634 153.191L108.448 153.626L110.261 153.164L112.075 153.3L113.888 153.578L115.702 153.196L117.516 153.488L119.329 153.499L121.141 153.468L122.953 153.215L124.765 153.297L126.579 153.651L128.392 153.292L130.206 153.213L132.019 153.696L133.834 153.183L135.649 153.164L137.464 153.72L139.279 153.622L141.095 153.638L142.909 153.415L144.725 153.552L146.541 153.278L148.357 153.485L150.176 153.694L152.025 153.462L151.997 155.305L151.396 157.041L151.476 158.869L151.072 160.63L150.616 162.386L150.585 164.2L150.3 165.979L149.816 167.727L149.675 169.525L149.639 171.337L149.049 173.071L148.903 174.868L149.071 176.71L148.756 178.483L148.377 180.25L148.158 182.038L148.102 183.85L147.9 185.64L147.51 187.406L147.066 189.165L147.167 190.999L146.554 192.733L146.487 194.544L146.003 196.298L146.113 198.134L145.44 199.861L145.342 201.617Z" fill="#363737"/>
<path d="M145.342 201.617L143.626 201.69L141.849 201.466L140.073 201.853L138.298 201.559L136.522 201.43L134.746 201.667L132.97 201.484L131.194 201.372L129.417 201.74L127.641 201.904L125.864 201.513L124.091 201.996L122.315 201.79L120.54 201.499L118.766 201.71L116.99 201.67L115.214 201.797L113.438 201.962L111.661 201.505L109.884 201.576L108.106 201.879L106.329 201.667L104.551 201.779L102.773 201.79L100.994 201.843L99.2179 201.641L97.4392 201.652L95.6605 201.882L93.8812 201.513L92.0986 201.792L90.26 201.751L89.7242 199.948L89.7796 198.09L89.223 196.348L88.832 194.574L88.858 192.721L88.2362 190.992L88.205 189.15L87.4763 187.443L87.402 185.609L87.2638 183.789L86.8506 182.022L86.5097 180.24L85.9655 178.494L85.6344 176.71L85.4428 174.898L85.0263 173.129L84.6352 171.353L84.4475 169.54L84.1757 167.743L83.8883 165.947L83.4047 164.188L83.2463 162.37L82.4531 160.67L82.0764 158.89L81.7381 157.104L81.4598 155.303L81.2063 153.445L83.069 153.559L84.881 153.346L86.6922 153.667L88.5041 153.21L90.318 153.57L92.1306 153.405L93.9431 153.6L95.755 153.269L97.5676 153.24L99.3821 153.241L101.195 153.253L103.007 153.558L104.82 153.438L106.634 153.191L108.448 153.626L110.261 153.164L112.075 153.3L113.888 153.578L115.702 153.196L117.516 153.488L119.329 153.499L121.141 153.468L122.953 153.215L124.765 153.297L126.579 153.651L128.392 153.292L130.206 153.213L132.019 153.696L133.834 153.183L135.649 153.164L137.464 153.72L139.279 153.622L141.095 153.638L142.909 153.415L144.725 153.552L146.541 153.278L148.357 153.485L150.176 153.694L152.025 153.462L151.997 155.305L151.396 157.041L151.476 158.869L151.072 160.63L150.616 162.386L150.585 164.2L150.3 165.979L149.816 167.727L149.675 169.525L149.639 171.337L149.049 173.071L148.903 174.868L149.071 176.71L148.756 178.483L148.377 180.25L148.158 182.038L148.102 183.85L147.9 185.64L147.51 187.406L147.066 189.165L147.167 190.999L146.554 192.733L146.487 194.544L146.003 196.298L146.113 198.134L145.44 199.861L145.342 201.617Z" stroke="#363737" stroke-width="1.9553" stroke-linecap="round" stroke-linejoin="round"/>
<path d="M117.543 25.9586L116.466 27.3716L115.632 28.9952L114.572 30.4819L113.787 32.123L113.217 33.8678L112.007 35.2984L111.241 36.9507L110.53 38.6277L109.908 40.3412L109.106 41.9836L108.834 43.8242L108.297 45.5605L107.636 47.2551L107.078 48.9849L106.584 50.7342L106.166 52.5038L105.445 54.1957L105.265 56.0233L104.723 57.7642L104.486 59.5722L103.809 61.2935L103.837 63.1465L103.043 64.8593L102.942 66.6862L102.586 68.476L102.637 70.3152L102.674 72.1461L102.533 73.9554L101.824 75.7223L101.676 77.5381L102.196 79.3872L101.516 81.1782L101.878 83.009L101.834 84.8249L101.963 86.642L101.445 88.465L102.02 90.2723L101.929 92.0927L101.819 93.9183L102.143 95.7198L102.269 97.5324L102.382 99.3462L102.23 101.187L102.447 102.997L103.1 104.755L103.185 106.576L103.015 108.436L103.719 110.174L103.863 111.992L104.414 113.744L104.572 115.562L105.04 117.322L104.965 119.191L105.508 120.939L105.815 122.737L106.575 124.431L106.858 126.233L106.936 128.088L107.505 129.826L108.064 131.563L108.33 133.381L109.083 134.914L111.001 135.202L112.964 135.332L114.927 135.094L116.894 135.276L118.961 135.373L118.311 133.37L117.679 131.681L117.601 129.846L116.691 128.224L116.463 126.43L116.332 124.617L115.725 122.918L115.376 121.16L114.876 119.433L114.351 117.709L114.449 115.861L114.043 114.113L113.419 112.403L113.317 110.598L112.909 108.846L112.614 107.075L112.291 105.307L112.235 103.501L111.984 101.725L111.531 99.9719L111.688 98.1463L111.217 96.3918L111.06 94.6014L110.728 92.826L110.983 91.003L110.637 89.2263L110.477 87.4339L110.762 85.6226L110.41 83.8374L110.68 82.0347L110.264 80.2416L110.538 78.4454L110.772 76.6556L110.752 74.8607L110.835 73.0683L110.741 71.2629L110.894 69.4719L111.221 67.6997L111.355 65.9073L111.553 64.1208L111.993 62.3741L112.389 60.6248L112.813 58.8846L113.088 57.1085L113.732 55.4282L113.81 53.5753L114.352 51.854L114.988 50.1659L115.744 48.5267L116.572 46.9259L117.524 45.3969L118.241 43.7342L119.484 42.3981L120.161 40.6709L121.568 39.4899L122.643 38.0417L124.052 36.9135L125.115 35.7162L124.022 34.4101L122.916 33.0225L121.818 31.6264L120.949 30.0472L119.747 28.7332L118.446 27.4987L117.543 25.9586Z" fill="#FEFBF7"/>
<path d="M117.543 25.9586L116.466 27.3716L115.632 28.9952L114.572 30.4819L113.787 32.123L113.217 33.8678L112.007 35.2984L111.241 36.9507L110.53 38.6277L109.908 40.3412L109.106 41.9836L108.834 43.8242L108.297 45.5605L107.636 47.2551L107.078 48.9849L106.584 50.7342L106.166 52.5038L105.445 54.1958L105.265 56.0233L104.723 57.7642L104.486 59.5722L103.809 61.2935L103.837 63.1465L103.043 64.8593L102.942 66.6862L102.586 68.476L102.637 70.3152L102.674 72.1461L102.533 73.9554L101.824 75.7223L101.676 77.5381L102.196 79.3872L101.516 81.1782L101.878 83.0091L101.834 84.8249L101.963 86.642L101.445 88.465L102.02 90.2723L101.929 92.0927L101.819 93.9183L102.143 95.7198L102.269 97.5324L102.382 99.3462L102.23 101.187L102.447 102.997L103.1 104.755L103.185 106.576L103.015 108.436L103.719 110.174L103.863 111.992L104.414 113.744L104.572 115.562L105.04 117.322L104.965 119.191L105.508 120.939L105.815 122.737L106.575 124.431L106.858 126.233L106.936 128.088L107.505 129.826L108.064 131.563L108.33 133.381L109.083 134.914L111.001 135.202L112.964 135.332L114.927 135.094L116.894 135.276L118.961 135.373L118.311 133.37L117.679 131.681L117.601 129.846L116.691 128.224L116.463 126.43L116.332 124.617L115.725 122.918L115.376 121.16L114.876 119.433L114.351 117.709L114.449 115.861L114.043 114.113L113.419 112.403L113.317 110.598L112.909 108.846L112.614 107.075L112.291 105.307L112.235 103.501L111.984 101.725L111.531 99.9719L111.688 98.1463L111.217 96.3918L111.06 94.6014L110.728 92.826L110.983 91.003L110.637 89.2263L110.477 87.4339L110.762 85.6226L110.41 83.8374L110.68 82.0347L110.264 80.2416L110.538 78.4454L110.772 76.6556L110.752 74.8607L110.835 73.0683L110.741 71.2629L110.894 69.4719L111.221 67.6997L111.355 65.9073L111.553 64.1208L111.993 62.3741L112.389 60.6248L112.813 58.8846L113.088 57.1085L113.732 55.4282L113.81 53.5753L114.352 51.854L114.988 50.1659L115.744 48.5267L116.572 46.9259L117.524 45.3969L118.241 43.7342L119.484 42.3981L120.161 40.6709L121.568 39.4899L122.643 38.0417L124.052 36.9135L125.115 35.7162L124.022 34.4101L122.916 33.0225L121.818 31.6264L120.949 30.0472L119.747 28.7332L118.446 27.4987L117.543 25.9586Z" stroke="#363737" stroke-width="1.9553" stroke-linecap="round" stroke-linejoin="round"/>
<path d="M123.416 8.21008C124.628 8.11167 123.918 7.05189 125.079 6.1329C125.629 5.69687 126.524 5.52546 127.28 5.03077C127.916 4.61429 128.625 4.24669 129.383 3.85107C130.077 3.48869 130.791 3.14781 131.569 2.84865C132.311 2.56318 132.994 2.04828 133.797 1.85862C134.574 1.67547 135.391 1.59596 136.213 1.53665C137.007 1.47994 137.827 1.43562 138.65 1.52557C139.434 1.6116 140.258 1.71979 141.059 1.96616C141.804 2.19558 142.545 2.5697 143.295 2.95945C143.981 3.31597 144.566 3.89865 145.25 4.40637C145.869 4.86587 146.838 5.42639 147.451 6.0221C146.953 7.05254 146.294 6.18179 144.902 6.25935C144.24 6.2965 143.448 6.04557 142.605 6.1329C141.89 6.2072 141.156 6.50767 140.368 6.6315C139.632 6.74752 138.835 6.65301 138.079 6.82443C137.334 6.99324 136.649 7.38234 135.927 7.61437C135.184 7.85291 134.354 7.84379 133.682 8.16055C132.964 8.49882 132.292 8.92312 131.707 9.36306C131.071 9.8408 130.429 10.359 130.017 10.9736C129.597 11.6012 129.479 12.4166 129.368 13.2046C130.503 13.6165 130.125 12.6336 131.412 11.9193C132.023 11.5804 132.89 11.5054 133.708 11.1339C134.396 10.8211 134.951 10.0363 135.752 9.75347C136.487 9.49406 137.255 9.1382 138.06 8.94332C138.829 8.75692 139.738 9.23922 140.55 9.14667C141.343 9.05608 142.106 8.93615 142.918 8.96613C143.715 8.99546 144.465 9.13364 145.262 9.30896C146.034 9.47907 146.88 9.40803 147.635 9.74173C148.348 10.0578 149.324 10.4033 150.007 10.8888C150.312 11.8808 150.029 12.0021 150.081 13.039C150.133 14.076 149.771 14.0942 149.822 15.1312C149.874 16.1682 149.843 16.1714 149.895 17.2103C149.947 18.2492 150.303 18.2238 149.892 19.1787C149.435 20.2397 149.232 18.9949 148.012 18.3653C147.407 18.0537 146.874 17.3342 146.08 17.0435C145.389 16.7906 144.617 16.5827 143.834 16.4282C143.092 16.2816 142.298 16.3031 141.515 16.3122C140.757 16.3213 139.997 16.4465 139.238 16.6615C138.524 16.8642 137.637 16.8727 136.955 17.3087C136.346 17.6979 136.049 18.3613 135.489 18.974C136.215 19.8285 136.247 18.8215 137.574 18.6755C138.228 18.6038 138.99 18.7739 139.81 18.7856C140.522 18.7961 141.229 18.9551 141.994 19.0842C142.717 19.2067 143.393 19.3644 144.102 19.6382C144.789 19.9028 145.397 20.2 146.018 20.6458C146.604 21.0662 147.213 21.4266 147.697 22.0432C148.132 22.5972 148.884 23.2177 149.202 23.9548C148.912 25.2433 148.652 25.2095 148.137 26.4257C147.621 27.6418 147.68 27.6686 147.163 28.8867C146.646 30.1049 146.663 30.1596 145.756 31.1223C144.966 31.9605 145.27 30.4588 144.261 29.515C143.769 29.0542 142.981 28.7779 142.32 28.2512C141.747 27.795 141.364 27.0031 140.699 26.5703C140.061 26.1558 139.219 26.0776 138.523 25.7452C137.822 25.4102 137.135 25.1443 136.402 24.954C135.646 24.7571 134.925 24.2885 134.166 24.3126C133.407 24.3367 132.701 24.7506 131.971 25.0622C131.311 25.3437 130.392 25.7791 129.778 26.3468C130.276 27.404 131.01 26.073 132.375 26.4113C133.037 26.5756 133.843 26.7626 134.655 27.0546C135.349 27.3042 135.923 27.999 136.651 28.364C137.331 28.7055 137.899 29.2309 138.549 29.6897C139.178 30.1336 139.713 30.6295 140.261 31.1985C140.794 31.7512 141.617 32.0797 142.026 32.7641C142.413 33.4126 142.584 34.1732 142.818 34.9514C142.359 35.9617 142.198 35.8626 141.509 36.732C140.82 37.6015 140.601 37.4307 139.911 38.3021C139.221 39.1736 139.709 39.6858 138.694 40.1375C137.553 40.6452 138.102 39.3632 137.367 38.0923C136.994 37.4483 136.584 36.7092 136.078 35.9695C135.616 35.2949 135.391 34.3909 134.848 33.76C134.282 33.103 133.604 32.5347 132.981 32.055C132.258 31.499 131.486 30.889 130.731 30.7625C129.941 30.6302 129.092 31.1014 128.323 31.6711C128.3 32.7921 128.985 32.2766 129.954 33.2008C130.43 33.6537 131.053 34.1074 131.573 34.7468C132.02 35.2975 132.642 35.8085 133.037 36.4811C133.405 37.1094 133.576 37.887 133.834 38.6085C134.079 39.2974 134.323 40.0261 134.409 40.7893C134.489 41.5069 134.149 42.0563 134.042 42.8306C133.291 43.7131 133.335 43.7046 132.437 44.4366C131.539 45.1685 131.723 45.3947 130.825 46.1266C129.927 46.8585 129.757 46.6532 128.857 47.3865C127.958 48.1197 128.149 48.3778 127.042 48.7265C126.029 49.0459 126.795 48.0265 126.69 46.8044C126.634 46.1624 126.755 45.4233 126.624 44.6875C126.498 43.9797 126.645 43.1741 126.421 42.5321C126.16 41.7845 125.614 41.1999 125.177 40.7613C124.671 40.2535 124.203 40.3115 123.396 40.5592C122.359 41.237 122.344 40.9398 122.056 42.5132C121.934 43.1761 122.376 44.0175 122.452 45.0049C122.507 45.7251 122.364 46.5581 122.592 47.464C122.775 48.1894 123.203 49.0563 123.53 49.9075C123.067 50.8904 122.48 50.1043 121.231 50.2301C120.586 50.2953 119.834 50.4185 119.058 50.3175C118.372 50.2282 117.726 49.854 117.038 49.536C116.417 49.2486 115.637 49.0889 115.088 48.5414C114.617 48.0728 114.344 47.3793 113.974 46.6728C114.195 45.5856 114.779 46.1605 115.614 45.1789C116.048 44.6692 116.113 43.7424 116.581 43.1122C117.027 42.5145 117.961 42.216 118.324 41.5975C118.74 40.8857 118.965 40.0691 119.114 39.4499C119.32 38.5928 119.14 37.7097 118.446 37.3251C117.607 36.528 117.482 36.2087 116.079 36.7803C115.561 36.9914 114.996 37.6386 114.291 38.3921C113.853 38.8607 113.71 39.7002 113.2 40.4569C112.819 41.0226 111.983 41.4045 111.563 42.1606C111.22 42.7772 111.049 43.5919 110.68 44.3505C109.581 44.5624 109.922 43.6486 108.932 42.916C108.354 42.4884 107.833 41.9234 107.315 41.4137C106.659 40.7684 106.171 40.3689 106.146 39.8175C106.391 38.6873 106.293 38.9767 107.075 37.7703C107.433 37.2189 107.949 36.646 108.512 35.9734C108.966 35.4311 109.575 34.9723 110.178 34.3994C110.705 33.9001 111.021 33.09 111.671 32.5985C112.257 32.1553 112.97 31.8164 113.663 31.4019C114.297 31.0226 115.041 30.7931 115.771 30.4542C116.443 30.142 116.982 29.616 117.74 29.3514C118.603 28.4683 118.941 27.7266 117.503 27.2488C117.016 27.0865 116.14 26.9718 114.953 27.1582C114.289 27.2625 113.585 27.8921 112.636 28.1554C111.594 28.4298 111.722 28.0994 110.508 28.5556C109.919 28.7772 109.411 29.427 108.696 29.7712C108.081 30.0671 107.223 29.998 106.588 30.3917C105.988 30.7632 105.462 31.2943 104.902 31.7591C104.349 32.2172 103.675 32.5953 103.215 33.1486C102.756 33.702 102.516 34.4652 102.205 35.1183C100.931 35.0713 101.154 34.4691 100.327 33.3552C99.8526 32.7172 99.249 31.9266 99.0528 31.0695C98.8749 30.2926 98.9766 29.3032 99.3403 28.4305C99.8258 27.3036 99.732 27.4887 100.666 26.3083C101.101 25.7589 101.846 25.2974 102.532 24.6744C103.087 24.1699 103.57 23.4171 104.309 22.9322C104.949 22.5118 105.881 22.4838 106.671 22.1207C107.373 21.7988 108.034 21.2363 108.862 20.9893C109.605 20.7677 110.396 20.4457 111.247 20.3062C112.014 20.1798 112.863 20.23 113.722 20.1856C114.501 20.1459 115.398 20.492 116.255 20.5317C117.167 20.2306 117.757 19.369 117.022 18.712C116.758 18.4761 116.105 18.3046 115.11 18.1495C113.995 17.9038 114.275 17.6978 112.905 17.4756C112.252 17.37 111.434 17.5962 110.588 17.5356C109.874 17.4847 109.111 17.5571 108.311 17.5792C107.573 17.6001 106.761 17.2299 105.988 17.3426C105.248 17.4508 104.556 17.9566 103.815 18.1762C103.094 18.39 102.295 18.4721 101.603 18.815C100.933 19.1474 100.173 19.4576 99.558 19.9334C98.9733 20.3857 98.5406 21.4064 98.0289 22.0073C96.962 21.7499 97.7337 20.8895 97.5329 19.6486C97.4293 19.0079 97.2279 18.2688 97.3726 17.4736C97.4925 16.8147 97.557 15.9935 97.9768 15.3039C98.319 14.7408 98.8352 14.1294 99.4478 13.5872C100.248 12.8409 100.195 13.0684 101.341 12.4114C101.888 12.0979 102.558 11.7264 103.332 11.4539C103.967 11.2297 104.747 11.3151 105.522 11.1952C106.199 11.0902 106.909 10.8563 107.683 10.8797C108.37 10.9006 109.152 10.75 109.911 10.9058C110.585 11.0446 111.266 11.4213 111.991 11.6905C112.638 11.9304 113.248 12.1207 113.933 12.4811C114.839 12.4101 115.475 12.1806 115.473 11.4572C115.471 11.0935 114.799 10.7689 113.871 10.3348C112.943 9.7652 113.186 9.77628 112.052 9.15123C111.492 8.8423 110.953 8.21595 110.207 7.93373C109.561 7.68932 108.758 7.78969 108.015 7.64826C107.32 7.51595 106.619 7.56744 105.872 7.59025C105.168 7.61176 104.441 7.49184 103.718 7.70627C103.054 7.90245 102.685 8.09277 102.027 8.49425C101.675 7.40385 102.2 7.7734 103.197 6.82117C103.68 6.36102 104.475 6.10618 105.153 5.60041C105.73 5.1709 106.306 4.68272 107.008 4.29688C107.656 3.94166 108.393 3.79437 109.136 3.53301C109.837 3.28664 110.514 3.04418 111.29 2.92947C112.022 2.82128 112.752 2.52081 113.542 2.5697C114.272 2.61467 114.959 2.99986 115.732 3.21103C116.43 3.40135 117.091 3.67444 117.82 4.02314C118.47 4.33468 119.134 4.63905 119.804 5.09334C120.401 5.49743 121.278 5.61084 121.889 6.14073C122.436 6.61521 122.857 7.62284 123.413 8.20617L123.416 8.21008Z" fill="#9ECA9A"/>
<path d="M123.416 8.21008C124.628 8.11167 123.918 7.05189 125.079 6.1329C125.629 5.69687 126.524 5.52546 127.28 5.03077C127.916 4.61429 128.625 4.24669 129.383 3.85107C130.077 3.48869 130.791 3.14781 131.569 2.84865C132.311 2.56318 132.994 2.04828 133.797 1.85862C134.574 1.67547 135.391 1.59596 136.213 1.53665C137.007 1.47994 137.827 1.43562 138.65 1.52557C139.434 1.6116 140.258 1.71979 141.059 1.96616C141.804 2.19558 142.545 2.5697 143.295 2.95945C143.981 3.31597 144.566 3.89865 145.25 4.40637C145.869 4.86587 146.838 5.42639 147.451 6.0221C146.953 7.05254 146.294 6.18179 144.902 6.25935C144.24 6.2965 143.448 6.04557 142.605 6.1329C141.89 6.2072 141.156 6.50767 140.368 6.6315C139.632 6.74752 138.835 6.65301 138.079 6.82443C137.334 6.99324 136.649 7.38234 135.927 7.61437C135.184 7.85291 134.354 7.84379 133.682 8.16055C132.964 8.49882 132.292 8.92312 131.707 9.36306C131.071 9.8408 130.429 10.359 130.017 10.9736C129.597 11.6012 129.479 12.4166 129.368 13.2046C130.503 13.6165 130.125 12.6336 131.412 11.9193C132.023 11.5804 132.89 11.5054 133.708 11.1339C134.396 10.8211 134.951 10.0363 135.752 9.75347C136.487 9.49406 137.255 9.1382 138.06 8.94332C138.829 8.75692 139.738 9.23922 140.55 9.14667C141.343 9.05608 142.106 8.93615 142.918 8.96613C143.715 8.99546 144.465 9.13364 145.262 9.30896C146.034 9.47907 146.88 9.40803 147.635 9.74173C148.348 10.0578 149.324 10.4033 150.007 10.8888C150.312 11.8808 150.029 12.0021 150.081 13.039C150.133 14.076 149.771 14.0942 149.822 15.1312C149.874 16.1682 149.843 16.1714 149.895 17.2103C149.947 18.2492 150.303 18.2238 149.892 19.1787C149.435 20.2397 149.232 18.9949 148.012 18.3653C147.407 18.0537 146.874 17.3342 146.08 17.0435C145.389 16.7906 144.617 16.5827 143.834 16.4282C143.092 16.2816 142.298 16.3031 141.515 16.3122C140.757 16.3213 139.997 16.4465 139.238 16.6615C138.524 16.8642 137.637 16.8727 136.955 17.3087C136.346 17.6979 136.049 18.3613 135.489 18.974C136.215 19.8285 136.247 18.8215 137.574 18.6755C138.228 18.6038 138.99 18.7739 139.81 18.7856C140.522 18.7961 141.229 18.9551 141.994 19.0842C142.717 19.2067 143.393 19.3644 144.102 19.6382C144.789 19.9028 145.397 20.2 146.018 20.6458C146.604 21.0662 147.213 21.4266 147.697 22.0432C148.132 22.5972 148.884 23.2177 149.202 23.9548C148.912 25.2433 148.652 25.2095 148.137 26.4257C147.621 27.6418 147.68 27.6686 147.163 28.8867C146.646 30.1049 146.663 30.1596 145.756 31.1223C144.966 31.9605 145.27 30.4588 144.261 29.515C143.769 29.0542 142.981 28.7779 142.32 28.2512C141.747 27.795 141.364 27.0031 140.699 26.5703C140.061 26.1558 139.219 26.0776 138.523 25.7452C137.822 25.4102 137.135 25.1443 136.402 24.954C135.646 24.7571 134.925 24.2885 134.166 24.3126C133.407 24.3367 132.701 24.7506 131.971 25.0622C131.311 25.3437 130.392 25.7791 129.778 26.3468C130.276 27.404 131.01 26.073 132.375 26.4113C133.037 26.5756 133.843 26.7626 134.655 27.0546C135.349 27.3042 135.923 27.999 136.651 28.364C137.331 28.7055 137.899 29.2309 138.549 29.6897C139.178 30.1335 139.713 30.6295 140.261 31.1985C140.794 31.7512 141.617 32.0797 142.026 32.7641C142.413 33.4126 142.584 34.1732 142.818 34.9514C142.359 35.9616 142.198 35.8626 141.509 36.732C140.82 37.6015 140.601 37.4307 139.911 38.3021C139.221 39.1736 139.709 39.6858 138.694 40.1375C137.553 40.6452 138.102 39.3632 137.367 38.0923C136.994 37.4483 136.584 36.7092 136.078 35.9695C135.616 35.2949 135.391 34.3909 134.848 33.76C134.282 33.103 133.604 32.5347 132.981 32.055C132.258 31.499 131.486 30.8889 130.731 30.7625C129.941 30.6302 129.092 31.1014 128.323 31.6711C128.3 32.7921 128.985 32.2766 129.954 33.2008C130.43 33.6537 131.053 34.1074 131.573 34.7468C132.02 35.2975 132.642 35.8085 133.037 36.4811C133.405 37.1094 133.576 37.887 133.834 38.6085C134.079 39.2974 134.323 40.0261 134.409 40.7893C134.489 41.5069 134.149 42.0563 134.042 42.8306C133.291 43.7131 133.335 43.7046 132.437 44.4366C131.539 45.1685 131.723 45.3947 130.825 46.1266C129.927 46.8585 129.757 46.6532 128.857 47.3865C127.958 48.1197 128.149 48.3778 127.042 48.7265C126.029 49.0459 126.795 48.0265 126.69 46.8044C126.634 46.1624 126.755 45.4233 126.624 44.6875C126.498 43.9797 126.645 43.1741 126.421 42.5321C126.16 41.7845 125.614 41.1999 125.177 40.7613C124.671 40.2535 124.203 40.3115 123.396 40.5592C122.359 41.237 122.344 40.9398 122.056 42.5132C121.934 43.1761 122.376 44.0175 122.452 45.0049C122.507 45.7251 122.364 46.5581 122.592 47.464C122.775 48.1894 123.203 49.0563 123.53 49.9075C123.067 50.8904 122.48 50.1043 121.231 50.2301C120.586 50.2953 119.834 50.4185 119.058 50.3175C118.372 50.2282 117.726 49.8541 117.038 49.536C116.417 49.2486 115.637 49.0889 115.088 48.5414C114.617 48.0728 114.344 47.3793 113.974 46.6728C114.195 45.5856 114.779 46.1605 115.614 45.1789C116.048 44.6692 116.113 43.7424 116.581 43.1122C117.027 42.5145 117.961 42.216 118.324 41.5975C118.74 40.8857 118.965 40.0691 119.114 39.4499C119.32 38.5928 119.14 37.7097 118.446 37.3251C117.607 36.528 117.482 36.2087 116.079 36.7803C115.561 36.9914 114.996 37.6386 114.291 38.3921C113.853 38.8607 113.71 39.7002 113.2 40.4569C112.819 41.0226 111.983 41.4045 111.563 42.1606C111.22 42.7772 111.049 43.5919 110.68 44.3505C109.581 44.5624 109.922 43.6486 108.932 42.916C108.354 42.4884 107.833 41.9234 107.315 41.4137C106.659 40.7684 106.171 40.3689 106.146 39.8175C106.391 38.6873 106.293 38.9767 107.075 37.7703C107.433 37.2189 107.949 36.646 108.512 35.9734C108.966 35.4311 109.575 34.9723 110.178 34.3994C110.705 33.9001 111.021 33.09 111.671 32.5985C112.257 32.1553 112.97 31.8164 113.663 31.4019C114.297 31.0226 115.041 30.7931 115.771 30.4542C116.443 30.142 116.982 29.616 117.74 29.3514C118.603 28.4683 118.941 27.7266 117.503 27.2488C117.016 27.0865 116.14 26.9718 114.953 27.1582C114.289 27.2625 113.585 27.8921 112.636 28.1554C111.594 28.4298 111.722 28.0994 110.508 28.5556C109.919 28.7772 109.411 29.427 108.696 29.7712C108.081 30.0671 107.223 29.998 106.588 30.3917C105.988 30.7632 105.462 31.2943 104.902 31.7591C104.349 32.2172 103.675 32.5953 103.215 33.1486C102.756 33.702 102.516 34.4652 102.205 35.1183C100.931 35.0713 101.154 34.4691 100.327 33.3552C99.8526 32.7172 99.249 31.9266 99.0528 31.0695C98.8749 30.2926 98.9766 29.3032 99.3403 28.4305C99.8258 27.3036 99.732 27.4887 100.666 26.3083C101.101 25.7589 101.846 25.2974 102.532 24.6744C103.087 24.1699 103.57 23.4171 104.309 22.9322C104.949 22.5118 105.881 22.4838 106.671 22.1207C107.373 21.7988 108.034 21.2363 108.862 20.9893C109.605 20.7677 110.396 20.4457 111.247 20.3062C112.014 20.1798 112.863 20.23 113.722 20.1856C114.501 20.1459 115.398 20.492 116.255 20.5317C117.167 20.2306 117.757 19.369 117.022 18.712C116.758 18.4761 116.105 18.3046 115.11 18.1495C113.995 17.9038 114.275 17.6978 112.905 17.4756C112.252 17.37 111.434 17.5962 110.588 17.5356C109.874 17.4847 109.111 17.5571 108.311 17.5792C107.573 17.6001 106.761 17.2299 105.988 17.3426C105.248 17.4508 104.556 17.9566 103.815 18.1762C103.094 18.39 102.295 18.4721 101.603 18.815C100.933 19.1474 100.173 19.4576 99.558 19.9334C98.9733 20.3857 98.5406 21.4064 98.0289 22.0073C96.962 21.7499 97.7337 20.8895 97.5329 19.6486C97.4293 19.0079 97.2279 18.2688 97.3726 17.4736C97.4925 16.8147 97.557 15.9935 97.9768 15.3039C98.319 14.7408 98.8352 14.1294 99.4478 13.5872C100.248 12.8409 100.195 13.0684 101.341 12.4114C101.888 12.0979 102.558 11.7264 103.332 11.4539C103.967 11.2297 104.747 11.3151 105.522 11.1952C106.199 11.0902 106.909 10.8563 107.683 10.8797C108.37 10.9006 109.152 10.75 109.911 10.9058C110.585 11.0446 111.266 11.4213 111.991 11.6905C112.638 11.9304 113.248 12.1207 113.933 12.4811C114.839 12.4101 115.475 12.1806 115.473 11.4572C115.471 11.0935 114.799 10.7689 113.871 10.3348C112.943 9.7652 113.186 9.77628 112.052 9.15123C111.492 8.8423 110.953 8.21595 110.207 7.93373C109.561 7.68932 108.758 7.78969 108.015 7.64826C107.32 7.51595 106.619 7.56744 105.872 7.59025C105.168 7.61176 104.441 7.49184 103.718 7.70627C103.054 7.90245 102.685 8.09277 102.027 8.49425C101.675 7.40385 102.2 7.7734 103.197 6.82117C103.68 6.36102 104.475 6.10618 105.153 5.60041C105.73 5.1709 106.306 4.68272 107.008 4.29688C107.656 3.94166 108.393 3.79437 109.136 3.53301C109.837 3.28664 110.514 3.04418 111.29 2.92947C112.022 2.82128 112.752 2.52081 113.542 2.5697C114.272 2.61467 114.959 2.99986 115.732 3.21103C116.43 3.40135 117.091 3.67444 117.82 4.02314C118.47 4.33468 119.134 4.63905 119.804 5.09334C120.401 5.49743 121.278 5.61084 121.889 6.14073C122.436 6.61521 122.857 7.62284 123.413 8.20617L123.416 8.21008Z" stroke="#363737" stroke-width="1.9553" stroke-linecap="round" stroke-linejoin="round"/>
<path d="M90.4698 63.983C89.2985 64.2255 89.6577 63.996 88.3261 63.3488C87.7095 63.049 87.1353 62.3542 86.3017 62.016C85.6154 61.737 84.8685 61.4053 84.0622 61.1393C83.3368 60.9001 82.5508 60.6779 81.7472 60.4758C80.9944 60.2868 80.1477 60.397 79.3415 60.2621C78.5685 60.133 77.7844 59.9838 76.9756 59.9238C76.1902 59.8658 75.3944 59.899 74.5862 59.9238C73.7976 59.9479 73.0181 60.0704 72.2196 60.1897C71.4401 60.3057 70.6567 60.4022 69.8778 60.6238C69.1231 60.8389 68.3038 60.9334 67.5595 61.2612C66.8458 61.5754 66.3505 62.319 65.6544 62.7492C64.9948 63.1566 64.375 63.5913 63.7389 64.1133C63.1418 64.6028 62.361 64.9066 61.7901 65.5055C61.2589 66.0628 60.905 66.7947 60.4012 67.4537C59.9338 68.065 59.2912 68.6216 58.8519 69.3255C59.5995 70.2022 59.6992 68.9208 61.0953 68.6399C61.7438 68.5095 62.565 68.6666 63.4182 68.5265C64.1247 68.4104 64.8808 68.2671 65.6883 68.1641C66.4222 68.0709 67.1939 68.078 67.9838 68.0096C68.7353 67.9451 69.4887 67.6942 70.2676 67.6648C71.0321 67.6362 71.8051 67.6023 72.5742 67.6186C73.3485 67.6348 74.0902 68.007 74.8476 68.0807C75.6271 68.1563 76.462 67.7554 77.1998 67.9034C77.9754 68.0591 78.7888 68.1563 79.4921 68.4059C80.2409 68.6718 80.6665 69.5706 81.3007 69.9603C81.9701 70.3716 82.558 70.7412 83.0611 71.3095C83.561 71.8739 83.9827 72.134 84.2806 72.8737C83.2834 73.5724 83.5676 72.804 82.1213 72.381C81.4526 72.1855 80.6027 72.2291 79.7117 72.0258C78.9765 71.8576 78.2009 71.6575 77.3497 71.5174C76.5826 71.391 75.8272 70.9224 74.9897 70.8409C74.203 70.764 73.3837 70.6806 72.554 70.6623C71.7556 70.6447 70.922 70.53 70.1014 70.5821C69.2997 70.633 68.5561 71.2769 67.7492 71.4105C66.954 71.5415 66.0754 71.2945 65.2901 71.5194C64.5158 71.7416 63.7421 72.0375 62.9919 72.3647C62.2567 72.686 61.5796 73.1599 60.8822 73.5953C60.2063 74.0169 59.5695 74.5175 58.9412 75.0578C58.3422 75.5734 57.4272 76.1111 56.8823 76.7446C56.8353 77.8585 57.5705 77.8233 57.783 78.9176C57.9955 80.0119 57.8593 80.0386 58.0717 81.1336C58.2842 82.2285 58.0685 82.2709 58.281 83.3659C58.4934 84.4609 58.3898 84.483 58.6029 85.5799C58.8161 86.6769 58.4439 86.9767 59.0924 87.8865C59.7931 88.8694 60.1405 87.1898 61.2146 86.1998C61.7308 85.7246 62.2391 85.0846 62.9496 84.543C63.5531 84.0828 64.0009 83.2818 64.7217 82.8445C65.3911 82.4384 66.1452 82.0578 66.898 81.7247C67.624 81.4034 68.4068 81.0515 69.1948 80.8455C69.9645 80.6441 70.8477 80.9263 71.6624 80.8781C72.4491 80.8312 73.2377 80.8142 74.0531 80.9498C74.8169 81.0769 75.6981 80.9961 76.477 81.3161C77.1835 81.6061 77.6573 82.1529 78.3678 82.6268C77.8659 83.6846 77.6026 82.8725 76.1922 83.0237C75.5163 83.0961 74.7465 83.2036 73.8966 83.3757C73.1758 83.5217 72.3181 83.3496 71.5366 83.5947C70.8125 83.8215 70.1679 84.35 69.4412 84.6831C68.7418 85.0038 67.8658 85.0696 67.2063 85.5069C66.563 85.9332 66.2827 86.8307 65.7163 87.3853C65.1695 87.9204 64.7406 88.4985 64.3013 89.1692C63.8881 89.7995 63.1666 90.2824 62.8785 91.0443C62.6159 91.7391 62.26 92.6457 62.1244 93.4604C62.5637 94.4296 62.7632 94.3873 63.4012 95.2385C64.0393 96.0897 64.3978 95.8211 65.0365 96.673C65.6753 97.5249 65.5377 97.6278 66.1765 98.4797C66.8152 99.3316 66.8804 99.2846 67.5204 100.138C68.1604 100.991 67.7205 101.56 68.6532 102.077C69.6367 102.622 69.2202 101.122 69.9463 99.9527C70.2891 99.4007 70.4846 98.6114 70.965 97.925C71.3684 97.3489 71.8553 96.7532 72.3461 96.1346C72.7984 95.565 73.5603 95.2241 74.0798 94.6577C74.581 94.1109 75.0483 93.5308 75.6056 93.0212C76.1628 92.5115 76.8465 92.2006 77.4507 91.7626C78.0653 91.3174 78.5196 90.6637 79.1786 90.3248C79.8544 89.9774 80.5844 89.8164 81.3001 89.6189C82.0229 89.4188 82.73 89.1712 83.4861 89.1614C84.2148 89.1523 85.0145 89.0402 85.7679 89.2435C86.4529 89.428 87.1197 89.9246 87.8197 90.3111C87.4997 91.4882 86.9385 90.7113 85.6037 91.3767C84.9728 91.6916 84.0349 91.7228 83.2547 92.1915C82.6003 92.5845 82.0261 93.2382 81.3287 93.7414C80.6907 94.2015 80.2325 94.9328 79.6029 95.4874C79.0032 96.016 78.2354 96.3927 77.6821 97.008C77.1431 97.6076 76.5291 98.1877 76.0696 98.8708C75.6193 99.5401 75.6447 100.479 75.3031 101.229C74.9707 101.959 74.5178 102.624 74.319 103.432C74.1293 104.202 73.7285 105.123 73.6868 105.965C74.3744 106.845 74.7433 106.517 75.6271 107.201C76.5109 107.885 76.7168 107.619 77.6006 108.304C78.4844 108.988 78.139 109.437 79.0241 110.123C79.9092 110.809 79.9261 110.764 81.0094 111.047C82.0926 111.33 81.1228 110.441 81.4721 109.13C81.6396 108.502 81.6566 107.712 81.9049 106.925C82.1174 106.252 82.571 105.606 82.8434 104.879C83.1002 104.192 83.2853 103.452 83.5962 102.767C83.9071 102.082 84.4285 101.505 84.7942 100.868C85.1794 100.198 85.3469 99.3967 85.7927 98.8375C86.2861 98.219 86.9737 97.8234 87.542 97.4134C88.1755 96.9559 88.8671 96.8711 89.5944 96.774C90.2814 96.6821 91.2558 96.4742 92.0268 96.7955C92.2321 97.9068 90.8934 97.3293 90.1198 98.4673C89.7522 99.0076 89.4497 99.748 89.043 100.484C88.7015 101.102 88.3483 101.796 88.0354 102.525C87.7486 103.193 87.3491 103.886 87.1282 104.629C86.9176 105.336 86.9535 106.149 86.8381 106.908C86.7267 107.64 87.0767 108.405 87.0851 109.171C87.093 109.91 86.653 110.703 86.8003 111.46C86.9398 112.178 87.368 112.837 87.6574 113.56C88.6748 114.277 88.6846 114.286 89.8095 114.819C90.9345 115.351 90.8849 115.456 92.0105 115.988C93.1361 116.521 93.172 116.444 94.2976 116.977C95.4232 117.509 95.4988 117.354 96.6263 117.887C97.7539 118.42 97.6477 118.973 98.8925 119.044C100.079 119.111 98.9258 117.916 98.6911 116.539C98.5719 115.84 98.0492 115.091 97.9631 114.241C97.8849 113.465 97.9533 112.641 97.9527 111.849C97.952 111.019 98.1534 110.233 98.2916 109.502C98.4572 108.629 98.4865 107.738 98.9382 107.195C99.4276 106.607 100.18 106.576 101.121 106.628C102.178 106.96 101.64 107.036 102.372 108.254C102.687 108.778 103.424 109.24 103.702 110.067C103.91 110.688 103.831 111.477 103.967 112.292C104.078 112.957 104.564 113.662 104.601 114.468C104.631 115.153 104.166 115.898 104.127 116.692C104.093 117.385 104.165 118.135 104.068 118.916C104.94 119.763 105.101 119.216 106.519 119.061C107.233 118.984 108.021 118.607 108.87 118.356C109.61 118.137 110.315 117.748 111.051 117.333C111.731 116.949 112.253 116.387 112.847 115.786C113.387 115.241 113.89 114.696 114.296 113.934C114.65 113.269 114.908 112.714 115.118 111.86C114.59 110.736 114.476 111.215 113.278 110.37C112.675 109.945 111.809 109.671 111.103 109.118C110.466 108.619 110.089 107.746 109.472 107.188C108.834 106.611 108.026 106.217 107.515 105.624C106.904 104.914 106.275 104.216 106.02 103.556C105.681 102.682 105.883 101.717 106.551 101.098C107.168 100.176 107.126 100.368 108.445 100.201C108.998 100.131 109.604 100.163 110.501 100.538C111.066 100.774 111.723 101.029 112.446 101.532C112.98 101.903 113.419 102.5 114.047 103.051C114.553 103.494 115.308 103.754 115.879 104.33C116.362 104.817 116.941 105.292 117.472 105.884C117.938 106.403 118.35 107.354 118.854 107.959C119.978 107.887 119.482 106.941 120.328 105.964C120.779 105.443 121.443 104.965 121.91 104.335C122.372 103.709 122.938 103.1 123.263 102.48C123.69 101.667 123.424 100.887 123.309 100.311C122.782 99.2266 123.111 99.3752 122.039 98.3076C121.554 97.8247 120.839 97.401 120.126 96.8196C119.555 96.353 118.793 96.048 118.071 95.5617C117.442 95.1381 116.782 94.7177 116.039 94.3064C115.366 93.9349 114.726 93.4481 113.957 93.1065C113.25 92.7924 112.496 92.5382 111.706 92.2651C110.97 92.0109 110.282 91.5058 109.475 91.2992C108.719 91.1063 107.89 91.1147 107.07 90.974C106.3 90.8416 105.361 90.9309 104.534 90.8534C103.47 90.2147 103.314 89.3706 103.898 88.3486C104.156 87.897 104.828 87.3254 106.08 87.0516C106.723 86.9115 107.591 87.3228 108.603 87.2752C109.324 87.2413 110.136 86.8203 111.075 86.847C112.315 86.8646 112.06 86.8502 113.557 87.008C114.272 87.0829 115.056 87.5176 115.96 87.6825C116.727 87.822 117.612 87.6773 118.449 87.9035C119.228 88.1134 120.077 88.2567 120.866 88.5598C121.632 88.8538 122.312 89.4045 123.044 89.8014C123.775 90.1983 124.278 90.8938 124.927 91.4061C125.577 91.9184 126.35 92.1295 126.878 92.7735C128.141 92.5519 127.802 92.1243 128.458 90.8273C128.809 90.1319 129.075 89.2422 129.273 88.3617C129.457 87.5476 129.7 86.6065 129.558 85.7422C129.428 84.9497 129.012 84.0646 128.456 83.3137C127.733 82.3596 127.69 82.7565 126.559 81.7893C126.041 81.3467 125.558 80.6265 124.8 80.1266C124.189 79.7232 123.486 79.2774 122.717 78.8896C122.045 78.5513 121.262 78.2782 120.47 77.9869C119.756 77.7242 118.866 77.9119 118.054 77.7118C117.311 77.5287 116.616 76.9206 115.792 76.8078C115.032 76.7042 114.213 76.6755 113.383 76.6462C112.615 76.6188 111.809 76.7935 110.981 76.841C110.213 76.8847 109.418 76.9681 108.597 77.0855C107.834 77.1943 107.105 77.5951 106.297 77.775C105.543 77.9425 104.678 78.2085 103.884 78.4431C102.602 78.2938 101.868 77.6134 102.615 76.5204C102.883 76.128 103.528 75.7989 104.774 75.2762C105.878 74.7411 105.389 74.3656 106.766 73.7491C107.41 73.461 108.38 73.648 109.243 73.3332C109.959 73.0719 110.624 72.4729 111.458 72.237C112.214 72.0232 113.085 72.1646 113.914 72.003C114.699 71.8498 115.453 71.3942 116.283 71.3134C117.086 71.2352 117.909 71.5011 118.738 71.5142C119.547 71.5265 120.41 71.0749 121.228 71.1954C122.028 71.3134 122.809 71.6967 123.602 71.9378C124.372 72.1718 125.18 72.4045 125.928 72.7734C126.644 73.126 127.158 73.4362 127.842 73.9277C128.901 73.4049 128.496 73.2055 128.468 71.8303C128.453 71.1361 128.15 70.3279 127.911 69.4943C127.71 68.7911 127.175 68.1902 126.718 67.4804C126.325 66.8671 126.159 65.9657 125.514 65.4065C124.968 64.9333 124.171 64.6569 123.41 64.258C122.412 63.7021 122.576 63.9863 121.248 63.547C120.626 63.341 119.928 63.0093 119.083 62.8581C118.39 62.7342 117.634 62.6397 116.818 62.611C116.099 62.5856 115.316 62.3823 114.518 62.4696C113.796 62.5485 113.047 62.7981 112.273 62.9975C111.569 63.1794 110.771 63.2654 110.033 63.5678C109.359 63.8442 108.885 64.6126 108.191 65.0063C107.558 65.3654 106.928 65.746 106.283 66.2146C105.693 66.6435 104.994 67.1389 104.399 67.6687C103.185 67.8024 102.646 67.1995 102.416 66.2557C102.3 65.7812 102.653 65.2487 103.722 64.3845C104.611 63.5013 104.281 63.5372 105.366 62.4931C105.893 61.986 106.413 61.2782 107.151 60.7196C107.781 60.2432 108.484 59.7433 109.248 59.3163C109.956 58.9201 110.738 58.5505 111.547 58.2618C112.317 57.9867 113.19 58.0141 114.039 57.8935C114.843 57.7795 115.677 57.466 116.54 57.5383C117.339 57.6055 118.228 57.9561 119.068 58.2214C119.443 57.073 118.172 57.7319 116.911 56.9667C116.315 56.605 115.624 56.1892 114.813 55.7962C114.136 55.4677 113.494 54.9019 112.694 54.6086C111.966 54.3421 111.071 54.5382 110.262 54.3414C109.499 54.1563 108.754 53.9328 107.934 53.8435C107.15 53.7581 106.372 53.5684 105.55 53.6004C104.763 53.6303 103.938 53.5384 103.128 53.7014C102.361 53.8558 101.626 54.23 100.848 54.5259C100.122 54.8022 99.2895 54.9456 98.5634 55.3634C97.894 55.7486 97.2885 56.3156 96.6257 56.8351C96.0196 57.3102 95.5398 57.9718 94.9448 58.5701C94.4019 59.1163 93.7103 59.5725 93.1805 60.2295C92.6962 60.8297 92.3481 61.5728 91.8782 62.2715C91.4468 62.9128 90.8862 63.253 90.4685 63.983H90.4698Z" fill="#5EAF74"/>
<path d="M90.4698 63.983C89.2985 64.2255 89.6577 63.996 88.3261 63.3488C87.7095 63.049 87.1353 62.3542 86.3017 62.016C85.6154 61.737 84.8685 61.4053 84.0622 61.1393C83.3368 60.9001 82.5508 60.6779 81.7472 60.4758C80.9944 60.2868 80.1477 60.397 79.3415 60.2621C78.5685 60.133 77.7844 59.9838 76.9756 59.9238C76.1902 59.8658 75.3944 59.899 74.5862 59.9238C73.7976 59.9479 73.0181 60.0704 72.2196 60.1897C71.4401 60.3057 70.6567 60.4022 69.8778 60.6238C69.1231 60.8389 68.3038 60.9334 67.5595 61.2612C66.8458 61.5754 66.3505 62.319 65.6544 62.7492C64.9948 63.1566 64.375 63.5913 63.7389 64.1133C63.1418 64.6028 62.361 64.9066 61.7901 65.5055C61.2589 66.0628 60.905 66.7947 60.4012 67.4537C59.9338 68.065 59.2912 68.6216 58.8519 69.3255C59.5995 70.2021 59.6992 68.9208 61.0953 68.6399C61.7438 68.5095 62.565 68.6666 63.4182 68.5265C64.1247 68.4104 64.8808 68.2671 65.6883 68.1641C66.4222 68.0709 67.1939 68.078 67.9838 68.0096C68.7353 67.9451 69.4887 67.6942 70.2676 67.6648C71.0321 67.6362 71.8051 67.6023 72.5742 67.6186C73.3485 67.6348 74.0902 68.007 74.8476 68.0807C75.6271 68.1563 76.462 67.7554 77.1998 67.9034C77.9754 68.0591 78.7888 68.1563 79.4921 68.4059C80.2409 68.6718 80.6665 69.5706 81.3007 69.9603C81.9701 70.3716 82.558 70.7412 83.0611 71.3095C83.561 71.8739 83.9827 72.134 84.2806 72.8737C83.2834 73.5724 83.5676 72.804 82.1213 72.381C81.4526 72.1855 80.6027 72.2291 79.7117 72.0258C78.9765 71.8576 78.2009 71.6575 77.3497 71.5174C76.5826 71.391 75.8272 70.9224 74.9897 70.8409C74.203 70.764 73.3837 70.6806 72.554 70.6623C71.7556 70.6447 70.922 70.53 70.1014 70.5821C69.2997 70.633 68.5561 71.2769 67.7492 71.4105C66.954 71.5415 66.0754 71.2945 65.2901 71.5194C64.5158 71.7416 63.7421 72.0375 62.9919 72.3647C62.2567 72.686 61.5796 73.1599 60.8822 73.5953C60.2063 74.0169 59.5695 74.5175 58.9412 75.0578C58.3422 75.5734 57.4272 76.1111 56.8823 76.7446C56.8353 77.8585 57.5705 77.8233 57.783 78.9176C57.9955 80.0119 57.8593 80.0386 58.0717 81.1336C58.2842 82.2285 58.0685 82.2709 58.281 83.3659C58.4934 84.4609 58.3898 84.483 58.6029 85.5799C58.8161 86.6769 58.4439 86.9767 59.0924 87.8865C59.7931 88.8694 60.1405 87.1898 61.2146 86.1998C61.7308 85.7246 62.2391 85.0846 62.9496 84.543C63.5531 84.0828 64.0009 83.2818 64.7217 82.8445C65.3911 82.4384 66.1452 82.0578 66.898 81.7247C67.624 81.4034 68.4068 81.0515 69.1948 80.8455C69.9645 80.6441 70.8477 80.9263 71.6624 80.8781C72.4491 80.8312 73.2377 80.8142 74.0531 80.9498C74.8169 81.0769 75.6981 80.9961 76.477 81.3161C77.1835 81.6061 77.6573 82.1529 78.3678 82.6268C77.8659 83.6846 77.6026 82.8725 76.1922 83.0237C75.5163 83.0961 74.7465 83.2036 73.8966 83.3757C73.1758 83.5217 72.3181 83.3496 71.5366 83.5947C70.8125 83.8215 70.1679 84.35 69.4412 84.6831C68.7418 85.0038 67.8658 85.0696 67.2063 85.5069C66.563 85.9332 66.2827 86.8307 65.7163 87.3853C65.1695 87.9204 64.7406 88.4985 64.3013 89.1692C63.8881 89.7995 63.1666 90.2824 62.8785 91.0444C62.6159 91.7391 62.26 92.6457 62.1244 93.4604C62.5637 94.4296 62.7632 94.3873 63.4012 95.2385C64.0393 96.0897 64.3978 95.8211 65.0365 96.673C65.6753 97.5249 65.5377 97.6278 66.1765 98.4797C66.8152 99.3316 66.8804 99.2846 67.5204 100.138C68.1604 100.991 67.7205 101.56 68.6532 102.077C69.6367 102.622 69.2202 101.122 69.9463 99.9527C70.2891 99.4006 70.4846 98.6114 70.965 97.925C71.3684 97.3489 71.8553 96.7532 72.3461 96.1346C72.7984 95.565 73.5603 95.2241 74.0798 94.6577C74.581 94.1109 75.0483 93.5308 75.6056 93.0212C76.1628 92.5115 76.8465 92.2006 77.4507 91.7626C78.0653 91.3174 78.5196 90.6637 79.1786 90.3248C79.8544 89.9774 80.5844 89.8164 81.3001 89.6189C82.0229 89.4188 82.73 89.1712 83.4861 89.1614C84.2148 89.1523 85.0145 89.0402 85.7679 89.2435C86.4529 89.428 87.1197 89.9246 87.8197 90.3111C87.4997 91.4882 86.9385 90.7113 85.6037 91.3767C84.9728 91.6916 84.0349 91.7228 83.2547 92.1915C82.6003 92.5845 82.0261 93.2382 81.3287 93.7414C80.6907 94.2015 80.2325 94.9328 79.6029 95.4874C79.0032 96.016 78.2354 96.3927 77.6821 97.008C77.1431 97.6076 76.5291 98.1877 76.0696 98.8708C75.6193 99.5401 75.6447 100.479 75.3031 101.229C74.9707 101.959 74.5178 102.624 74.319 103.432C74.1293 104.202 73.7285 105.123 73.6868 105.965C74.3744 106.845 74.7433 106.517 75.6271 107.201C76.5109 107.885 76.7168 107.619 77.6006 108.304C78.4844 108.988 78.139 109.437 79.0241 110.123C79.9092 110.809 79.9261 110.764 81.0094 111.047C82.0926 111.33 81.1228 110.441 81.4721 109.13C81.6396 108.502 81.6566 107.712 81.9049 106.925C82.1174 106.252 82.571 105.606 82.8434 104.879C83.1002 104.192 83.2853 103.452 83.5962 102.767C83.9071 102.082 84.4285 101.505 84.7942 100.868C85.1794 100.198 85.3469 99.3967 85.7927 98.8375C86.2861 98.219 86.9737 97.8234 87.542 97.4134C88.1755 96.9559 88.8671 96.8711 89.5944 96.774C90.2814 96.6821 91.2558 96.4742 92.0268 96.7955C92.2321 97.9068 90.8934 97.3293 90.1198 98.4673C89.7522 99.0076 89.4497 99.748 89.043 100.484C88.7015 101.102 88.3483 101.796 88.0354 102.525C87.7486 103.193 87.3491 103.886 87.1282 104.629C86.9176 105.336 86.9535 106.149 86.8381 106.908C86.7267 107.64 87.0767 108.405 87.0851 109.171C87.093 109.91 86.653 110.703 86.8003 111.46C86.9398 112.178 87.368 112.837 87.6574 113.56C88.6748 114.277 88.6846 114.286 89.8095 114.819C90.9345 115.351 90.8849 115.456 92.0105 115.988C93.1361 116.521 93.172 116.444 94.2976 116.977C95.4232 117.509 95.4988 117.354 96.6263 117.887C97.7539 118.42 97.6477 118.973 98.8925 119.044C100.079 119.111 98.9258 117.916 98.6911 116.539C98.5719 115.84 98.0492 115.091 97.9631 114.241C97.8849 113.465 97.9533 112.641 97.9527 111.849C97.952 111.019 98.1534 110.233 98.2916 109.502C98.4572 108.629 98.4865 107.738 98.9382 107.195C99.4276 106.607 100.18 106.576 101.121 106.628C102.178 106.96 101.64 107.036 102.372 108.254C102.687 108.778 103.424 109.24 103.702 110.067C103.91 110.688 103.831 111.477 103.967 112.292C104.078 112.957 104.564 113.662 104.601 114.468C104.631 115.153 104.166 115.898 104.127 116.692C104.093 117.385 104.165 118.135 104.068 118.916C104.94 119.763 105.101 119.216 106.519 119.061C107.233 118.984 108.021 118.607 108.87 118.356C109.61 118.137 110.315 117.748 111.051 117.333C111.731 116.949 112.253 116.387 112.847 115.786C113.387 115.241 113.89 114.696 114.296 113.934C114.65 113.269 114.908 112.714 115.118 111.86C114.59 110.736 114.476 111.215 113.278 110.37C112.675 109.945 111.809 109.671 111.103 109.118C110.466 108.619 110.089 107.746 109.472 107.188C108.834 106.611 108.026 106.217 107.515 105.624C106.904 104.914 106.275 104.216 106.02 103.556C105.681 102.682 105.883 101.717 106.551 101.098C107.168 100.176 107.126 100.368 108.445 100.201C108.998 100.131 109.604 100.163 110.501 100.538C111.066 100.774 111.723 101.029 112.446 101.532C112.98 101.903 113.419 102.5 114.047 103.051C114.553 103.494 115.308 103.754 115.879 104.33C116.362 104.817 116.941 105.292 117.472 105.884C117.938 106.403 118.35 107.354 118.854 107.959C119.978 107.887 119.482 106.941 120.328 105.964C120.779 105.443 121.443 104.965 121.91 104.335C122.372 103.709 122.938 103.1 123.263 102.48C123.69 101.667 123.424 100.887 123.309 100.311C122.782 99.2266 123.111 99.3752 122.039 98.3076C121.554 97.8247 120.839 97.401 120.126 96.8196C119.555 96.353 118.793 96.048 118.071 95.5617C117.442 95.1381 116.782 94.7177 116.039 94.3064C115.366 93.9349 114.726 93.4481 113.957 93.1065C113.25 92.7924 112.496 92.5382 111.706 92.2651C110.97 92.0109 110.282 91.5058 109.475 91.2992C108.719 91.1063 107.89 91.1147 107.07 90.974C106.3 90.8417 105.361 90.9309 104.534 90.8534C103.47 90.2147 103.314 89.3706 103.898 88.3486C104.156 87.897 104.828 87.3254 106.08 87.0516C106.723 86.9115 107.591 87.3228 108.603 87.2752C109.324 87.2413 110.136 86.8202 111.075 86.847C112.315 86.8646 112.06 86.8502 113.557 87.008C114.272 87.0829 115.056 87.5176 115.96 87.6825C116.727 87.822 117.612 87.6773 118.449 87.9035C119.228 88.1134 120.077 88.2567 120.866 88.5598C121.632 88.8538 122.312 89.4045 123.044 89.8014C123.775 90.1983 124.278 90.8938 124.927 91.4061C125.577 91.9184 126.35 92.1295 126.878 92.7735C128.141 92.5519 127.802 92.1243 128.458 90.8273C128.809 90.1319 129.075 89.2422 129.273 88.3617C129.457 87.5476 129.7 86.6065 129.558 85.7422C129.428 84.9497 129.012 84.0646 128.456 83.3137C127.733 82.3596 127.69 82.7565 126.559 81.7893C126.041 81.3467 125.558 80.6265 124.8 80.1266C124.189 79.7232 123.486 79.2774 122.717 78.8896C122.045 78.5513 121.262 78.2782 120.47 77.9869C119.756 77.7242 118.866 77.9119 118.054 77.7118C117.311 77.5287 116.616 76.9206 115.792 76.8078C115.032 76.7042 114.213 76.6755 113.383 76.6462C112.615 76.6188 111.809 76.7935 110.981 76.841C110.213 76.8847 109.418 76.9681 108.597 77.0855C107.834 77.1943 107.105 77.5951 106.297 77.775C105.543 77.9425 104.678 78.2085 103.884 78.4431C102.602 78.2938 101.868 77.6134 102.615 76.5204C102.883 76.128 103.528 75.7989 104.774 75.2762C105.878 74.7411 105.389 74.3656 106.766 73.7491C107.41 73.461 108.38 73.648 109.243 73.3332C109.959 73.0719 110.624 72.4729 111.458 72.237C112.214 72.0232 113.085 72.1646 113.914 72.003C114.699 71.8498 115.453 71.3942 116.283 71.3134C117.086 71.2352 117.909 71.5011 118.738 71.5142C119.547 71.5265 120.41 71.0749 121.228 71.1954C122.028 71.3134 122.809 71.6967 123.602 71.9378C124.372 72.1718 125.18 72.4045 125.928 72.7734C126.644 73.126 127.158 73.4362 127.842 73.9277C128.901 73.4049 128.496 73.2055 128.468 71.8303C128.453 71.1361 128.15 70.3279 127.911 69.4943C127.71 68.7911 127.175 68.1902 126.718 67.4804C126.325 66.8671 126.159 65.9657 125.514 65.4065C124.968 64.9333 124.171 64.6569 123.41 64.258C122.412 63.7021 122.576 63.9863 121.248 63.547C120.626 63.341 119.928 63.0093 119.083 62.8581C118.39 62.7342 117.634 62.6397 116.818 62.611C116.099 62.5856 115.316 62.3823 114.518 62.4696C113.796 62.5485 113.047 62.7981 112.273 62.9975C111.569 63.1794 110.771 63.2654 110.033 63.5678C109.359 63.8442 108.885 64.6126 108.191 65.0063C107.558 65.3654 106.928 65.746 106.283 66.2146C105.693 66.6435 104.994 67.1389 104.399 67.6687C103.185 67.8024 102.646 67.1995 102.416 66.2557C102.3 65.7812 102.653 65.2487 103.722 64.3845C104.611 63.5013 104.281 63.5372 105.366 62.4931C105.893 61.986 106.413 61.2782 107.151 60.7196C107.781 60.2432 108.484 59.7433 109.248 59.3163C109.956 58.9201 110.738 58.5505 111.547 58.2618C112.317 57.9867 113.19 58.0141 114.039 57.8935C114.843 57.7795 115.677 57.466 116.54 57.5383C117.339 57.6055 118.228 57.9561 119.068 58.2214C119.443 57.073 118.172 57.7319 116.911 56.9667C116.315 56.605 115.624 56.1892 114.813 55.7962C114.136 55.4677 113.494 54.9019 112.694 54.6086C111.966 54.3421 111.071 54.5382 110.262 54.3414C109.499 54.1563 108.754 53.9328 107.934 53.8435C107.15 53.7581 106.372 53.5684 105.55 53.6004C104.763 53.6303 103.938 53.5384 103.128 53.7014C102.361 53.8558 101.626 54.23 100.848 54.5259C100.122 54.8022 99.2895 54.9456 98.5634 55.3634C97.894 55.7486 97.2885 56.3156 96.6257 56.8351C96.0195 57.3102 95.5398 57.9718 94.9448 58.5701C94.4019 59.1163 93.7103 59.5725 93.1805 60.2295C92.6962 60.8297 92.3481 61.5728 91.8782 62.2715C91.4468 62.9128 90.8862 63.253 90.4685 63.983H90.4698Z" stroke="#363737" stroke-width="1.9553" stroke-linecap="round" stroke-linejoin="round"/>
<path d="M150.266 101.509L148.65 101.916L147.158 102.989L145.331 103.438L143.855 104.517L142.288 105.458L141.243 107.052L139.819 108.16L138.286 109.181L137.155 110.61L135.877 111.904L134.769 113.345L133.594 114.738L132.818 116.405L131.972 118.01L130.798 119.424L130.163 121.142L129.177 122.672L128.539 124.373L127.592 125.942L127.101 127.703L126.164 129.297L126.114 131.195L125.582 132.922L124.794 134.582L124.558 136.397L124.11 138.152L123.803 139.943L123.202 141.631L125.003 141.631L126.797 141.354L128.615 141.398L130.416 141.175L132.203 140.758L134.046 141.092L135.915 140.956L136.179 139.027L136.298 137.25L136.669 135.504L136.536 133.687L136.741 131.913L137.131 130.171L137.469 128.421L137.798 126.667L138.11 124.907L138.787 123.233L138.985 121.441L139.612 119.761L140.011 118.013L140.911 116.436L141.224 114.642L142.399 113.212L143.039 111.551L144.03 110.081L144.833 108.475L145.86 106.975L147.255 105.79L149.091 105.464L150.754 105.11L152.194 104.977L151.683 102.98L150.266 101.509Z" fill="#FEFBF7"/>
<path d="M150.266 101.509L148.65 101.916L147.158 102.989L145.331 103.438L143.855 104.517L142.288 105.458L141.243 107.052L139.819 108.16L138.286 109.181L137.155 110.61L135.877 111.904L134.769 113.345L133.594 114.738L132.818 116.405L131.972 118.01L130.798 119.424L130.163 121.142L129.177 122.672L128.539 124.373L127.592 125.942L127.101 127.703L126.164 129.297L126.114 131.195L125.582 132.922L124.794 134.582L124.558 136.397L124.11 138.152L123.803 139.943L123.202 141.631L125.003 141.631L126.797 141.354L128.615 141.398L130.416 141.175L132.203 140.758L134.046 141.092L135.915 140.956L136.179 139.027L136.298 137.25L136.669 135.504L136.536 133.687L136.741 131.913L137.131 130.171L137.469 128.421L137.798 126.667L138.11 124.907L138.787 123.233L138.985 121.441L139.612 119.761L140.011 118.013L140.911 116.436L141.224 114.642L142.399 113.212L143.039 111.551L144.03 110.081L144.833 108.475L145.86 106.975L147.255 105.79L149.091 105.464L150.754 105.11L152.194 104.977L151.683 102.98L150.266 101.509Z" stroke="#363737" stroke-width="1.9553" stroke-linecap="round" stroke-linejoin="round"/>
<path d="M146.399 87.3449C147.508 87.1741 146.667 86.1515 147.552 85.1256C147.977 84.6322 148.783 84.3454 149.386 83.7771C149.899 83.2941 150.488 82.8555 151.117 82.3895C151.701 81.9574 152.301 81.5552 152.976 81.1909C153.622 80.8422 154.185 80.281 154.907 80.0412C155.603 79.8098 156.353 79.6879 157.113 79.5986C157.833 79.5146 158.591 79.4494 159.362 79.5282C160.073 79.6012 160.837 79.6997 161.585 79.9389C162.259 80.1539 162.938 80.5111 163.64 80.882C164.263 81.2111 164.795 81.7605 165.438 82.2272C166.01 82.6424 166.928 83.1723 167.514 83.7067C166.92 84.713 166.36 83.8996 164.967 84.0952C164.292 84.1903 163.464 84.0143 162.623 84.1897C161.898 84.3409 161.189 84.7248 160.416 84.9516C159.676 85.168 158.86 85.1947 158.139 85.4932C157.408 85.795 156.802 86.3157 156.151 86.7146C155.466 87.1344 154.655 87.3729 154.129 87.9145C153.577 88.4835 153.131 89.1809 152.837 89.9018C152.557 90.5881 152.479 91.5879 152.507 92.4273C153.718 92.6503 153.227 91.5201 154.398 90.6135C154.966 90.1735 155.636 89.6665 156.412 89.1913C157.074 88.7853 157.943 88.6895 158.727 88.3369C159.456 88.009 160.051 87.2393 160.862 87.0183C161.642 86.8059 162.484 86.5334 163.319 86.4728C164.12 86.4148 164.918 87.075 165.753 87.2041C166.535 87.3247 167.288 87.4407 168.084 87.7653C168.805 88.0592 169.358 88.3408 170.08 88.8316C170.518 89.8411 170.597 89.7897 170.811 90.8696C171.024 91.9496 171.282 91.8981 171.496 92.9781C171.71 94.0581 171.669 94.0678 171.883 95.1498C172.098 96.2317 172.25 96.2747 171.958 97.3378C171.628 98.5396 171.251 96.6488 169.941 96.0244C169.268 95.7038 168.496 95.2462 167.641 94.9888C166.865 94.7548 165.94 95.127 165.1 95.067C164.274 95.0077 163.424 94.6342 162.615 94.8539C161.844 95.0631 161.064 95.4652 160.379 96.0264C159.795 96.5048 159.324 97.2133 158.849 98.011C159.797 98.814 159.807 97.5972 161.245 97.3651C161.97 97.2485 162.809 97.5202 163.714 97.5509C164.501 97.5776 165.385 97.2133 166.218 97.4492C166.981 97.6649 167.713 98.1231 168.451 98.5872C169.109 99.0017 169.583 99.6789 170.173 100.345C170.681 100.919 170.998 101.45 171.424 102.244C171.384 103.569 171.179 103.494 170.915 104.793C170.652 106.093 170.666 106.098 170.402 107.4C170.138 108.701 170.703 108.845 170.039 109.995C169.489 110.947 169.362 109.623 168.378 108.748C167.895 108.319 167.348 107.83 166.71 107.337C166.155 106.908 165.534 106.539 164.899 106.129C164.285 105.733 163.864 104.993 163.208 104.673C162.532 104.342 161.81 104.11 161.123 103.921C160.386 103.719 159.65 103.93 158.943 103.966C158.209 104.003 157.412 103.8 156.757 104.179C156.177 104.514 155.886 105.03 155.403 105.696C155.994 106.685 156.188 105.658 157.546 105.961C158.199 106.106 158.853 106.668 159.659 106.95C160.34 107.188 161.157 107.232 161.879 107.597C162.54 107.93 163.009 108.623 163.655 109.083C164.264 109.517 165.199 109.607 165.754 110.17C166.276 110.701 166.835 111.308 167.275 111.969C167.685 112.585 167.685 113.406 167.994 114.146C167.745 115.176 167.378 114.995 166.904 115.944C166.43 116.892 166.394 116.876 165.92 117.827C165.445 118.777 166.203 119.374 165.328 119.976C164.297 120.686 164.778 118.952 163.959 117.724C163.545 117.104 162.987 116.444 162.443 115.726C161.947 115.073 161.617 114.226 161.056 113.606C160.469 112.96 159.717 112.476 159.104 111.988C158.363 111.4 157.537 111.221 156.828 111.063C156.002 110.878 155.435 110.843 154.768 111.56C154.876 112.725 155.251 112.231 156.296 113.176C156.801 113.632 157.41 114.123 157.981 114.773C158.465 115.325 158.78 116.042 159.235 116.721C159.656 117.35 160.307 117.855 160.644 118.583C160.963 119.276 161.11 120.041 161.304 120.816C161.488 121.552 161.738 122.298 161.767 123.103C161.255 124.036 161.242 124.054 160.559 124.871C159.876 125.688 159.733 125.568 159.05 126.386C158.367 127.203 158.414 127.244 157.73 128.063C157.047 128.881 157.113 128.888 156.151 129.349C155.158 129.824 156.234 128.705 155.952 127.461C155.804 126.813 155.337 126.154 155.11 125.411C154.894 124.703 154.895 123.904 154.607 123.256C154.274 122.508 153.97 121.748 153.539 121.286C152.97 120.676 152.388 120.76 151.644 121.094C150.694 121.975 151.063 121.664 151.08 123.395C151.086 124.095 150.85 125 151.08 126.015C151.248 126.754 151.705 127.531 152.049 128.445C152.327 129.18 152.978 130.1 153.399 130.953C152.88 132.131 152.049 131.108 150.604 131.252C149.841 131.329 148.91 131.791 148.004 131.521C147.258 131.298 146.575 130.653 145.843 130.03C145.263 129.536 144.507 128.902 143.993 128.074C143.979 126.983 144.705 127.317 145.311 126.203C145.624 125.626 145.871 124.909 146.191 124.206C146.493 123.542 146.968 122.92 147.184 122.246C147.428 121.485 147.291 120.707 147.304 120.068C147.322 119.221 147.279 118.52 146.63 118.176C145.811 117.434 145.658 117.007 144.471 117.743C144.035 118.014 143.924 118.875 143.408 119.748C143.1 120.27 142.24 120.662 141.916 121.477C141.677 122.08 141.559 122.836 141.315 123.626C141.117 124.269 141.046 124.851 140.848 125.632C139.747 125.909 140.196 125.041 139.174 124.317C138.583 123.898 137.829 123.594 137.287 123.088C136.622 122.467 135.724 121.885 135.616 121.325C135.667 120.075 136.286 120.447 136.854 119.029C137.121 118.36 137.26 117.499 137.726 116.684C138.11 116.013 138.744 115.44 139.292 114.735C139.779 114.11 140.397 113.588 141.032 112.981C141.609 112.43 142.169 111.855 142.883 111.352C143.537 110.892 144.162 110.306 144.942 109.911C145.615 108.977 145.55 108.257 144.452 107.747C144.015 107.544 143.191 107.358 142.075 107.629C141.475 107.775 140.87 108.405 140.009 108.758C138.907 109.188 139.06 108.98 137.844 109.68C137.24 110.026 136.472 110.344 135.789 110.872C135.193 111.333 134.798 112.079 134.246 112.683C133.726 113.253 132.944 113.672 132.547 114.373C132.167 115.042 132.015 115.601 131.82 116.392C130.499 116.507 130.717 116.095 129.79 114.958C129.272 114.324 128.997 113.402 128.689 112.533C128.407 111.735 127.892 110.816 128.076 109.887C128.302 108.795 128.711 109.146 129.298 107.933C129.579 107.353 129.829 106.639 130.312 105.96C130.713 105.398 131.329 104.965 131.897 104.407C132.397 103.914 132.806 103.263 133.455 102.82C134.037 102.423 134.645 101.958 135.36 101.634C136.002 101.344 136.68 100.939 137.439 100.732C138.118 100.547 138.893 100.466 139.673 100.365C140.373 100.275 141.039 100.213 141.825 100.204C142.656 99.8106 143.068 99.5133 142.354 98.8714C142.087 98.6315 141.504 98.7123 140.565 98.6048C139.409 98.3864 139.716 97.9335 138.318 97.7816C137.634 97.7073 136.819 97.9439 135.955 97.9524C135.21 97.9602 134.458 98.144 133.65 98.2678C132.892 98.3845 132.122 98.4171 131.366 98.6797C130.636 98.9326 129.755 98.9444 129.077 99.3706C128.431 99.7767 127.801 100.333 127.245 100.928C126.736 101.475 126.423 102.139 126.024 102.87C124.907 102.781 125.772 102.076 125.394 100.846C125.199 100.208 124.728 99.5466 124.709 98.7345C124.692 98.0332 124.687 97.2478 124.933 96.4905C125.147 95.8354 125.851 95.3896 126.347 94.7398C127.024 93.7941 126.614 93.7218 127.704 92.8908C128.241 92.4814 129 92.2533 129.801 91.9229C130.459 91.6517 131.18 91.584 132.015 91.4803C132.724 91.3923 133.491 90.8181 134.327 90.9192C135.035 91.0045 135.721 91.5455 136.52 91.8075C137.202 92.0304 137.945 92.1582 138.693 92.5349C139.571 92.4091 139.498 92.0174 139.312 91.2333C139.226 90.8703 139.002 90.6356 138.152 90.2583C137.115 89.6332 137.424 89.5113 136.172 88.8785C135.525 88.5513 134.767 88.2691 133.936 88.0214C133.183 87.7972 132.425 87.3618 131.602 87.3344C130.811 87.3084 130.016 87.5821 129.229 87.8526C128.512 88.0983 127.574 88.6256 126.913 89.205C126.159 88.301 127.456 88.0794 128.268 86.9486C128.673 86.3848 129.116 85.6744 129.718 85.0611C130.243 84.5266 131.166 84.4048 131.838 83.9433C132.468 83.5112 132.951 82.7786 133.708 82.497C134.417 82.2337 135.212 82.0512 136.032 81.9913C136.769 81.9372 137.514 82.3028 138.34 82.4671C139.054 82.6085 139.887 82.5251 140.666 82.8646C141.333 83.1553 142.104 83.431 142.818 83.8879C143.434 84.2822 143.948 84.932 144.599 85.4645C145.171 85.9325 145.8 86.7557 146.399 87.3397L146.399 87.3449Z" fill="#FEFBF7"/>
<path d="M146.399 87.3449C147.508 87.1741 146.667 86.1515 147.552 85.1256C147.977 84.6322 148.783 84.3454 149.386 83.7771C149.899 83.2941 150.488 82.8555 151.117 82.3895C151.701 81.9574 152.301 81.5552 152.976 81.1909C153.622 80.8422 154.185 80.281 154.907 80.0412C155.603 79.8098 156.353 79.6879 157.113 79.5986C157.833 79.5146 158.591 79.4494 159.362 79.5282C160.073 79.6012 160.837 79.6997 161.585 79.9389C162.259 80.1539 162.938 80.5111 163.64 80.882C164.263 81.2111 164.795 81.7605 165.438 82.2272C166.01 82.6424 166.928 83.1723 167.514 83.7067C166.92 84.713 166.36 83.8996 164.967 84.0952C164.292 84.1903 163.464 84.0143 162.623 84.1897C161.898 84.3409 161.189 84.7248 160.416 84.9516C159.676 85.168 158.86 85.1947 158.139 85.4932C157.408 85.795 156.802 86.3157 156.151 86.7146C155.466 87.1344 154.655 87.3729 154.129 87.9145C153.577 88.4835 153.131 89.1809 152.837 89.9018C152.557 90.5881 152.479 91.5879 152.507 92.4273C153.718 92.6503 153.227 91.5201 154.398 90.6135C154.966 90.1735 155.636 89.6665 156.412 89.1913C157.074 88.7853 157.943 88.6895 158.727 88.3369C159.456 88.009 160.051 87.2393 160.862 87.0183C161.642 86.8059 162.484 86.5334 163.319 86.4728C164.12 86.4148 164.918 87.075 165.753 87.2041C166.535 87.3247 167.288 87.4407 168.084 87.7653C168.805 88.0592 169.358 88.3408 170.08 88.8316C170.518 89.8411 170.597 89.7897 170.811 90.8696C171.024 91.9496 171.282 91.8981 171.496 92.9781C171.71 94.0581 171.669 94.0678 171.883 95.1498C172.098 96.2317 172.25 96.2747 171.958 97.3378C171.628 98.5396 171.251 96.6488 169.941 96.0244C169.268 95.7038 168.496 95.2462 167.641 94.9888C166.865 94.7548 165.94 95.127 165.1 95.067C164.274 95.0077 163.424 94.6342 162.615 94.8539C161.844 95.0631 161.064 95.4652 160.379 96.0264C159.795 96.5048 159.324 97.2133 158.849 98.011C159.797 98.814 159.807 97.5972 161.245 97.3651C161.97 97.2485 162.809 97.5202 163.714 97.5509C164.501 97.5776 165.385 97.2133 166.218 97.4492C166.981 97.6649 167.713 98.1231 168.451 98.5872C169.109 99.0017 169.583 99.6789 170.173 100.345C170.681 100.919 170.998 101.45 171.424 102.244C171.384 103.569 171.179 103.494 170.915 104.793C170.652 106.093 170.666 106.098 170.402 107.4C170.138 108.701 170.703 108.845 170.039 109.995C169.489 110.947 169.362 109.623 168.378 108.748C167.895 108.319 167.348 107.83 166.71 107.337C166.155 106.908 165.534 106.539 164.899 106.129C164.285 105.733 163.864 104.993 163.208 104.673C162.532 104.342 161.81 104.11 161.123 103.921C160.386 103.719 159.65 103.93 158.943 103.966C158.209 104.003 157.412 103.8 156.757 104.179C156.177 104.514 155.886 105.03 155.403 105.696C155.994 106.685 156.188 105.658 157.546 105.961C158.199 106.106 158.853 106.668 159.659 106.95C160.34 107.188 161.157 107.232 161.879 107.597C162.54 107.93 163.009 108.623 163.655 109.083C164.264 109.517 165.199 109.607 165.754 110.17C166.276 110.701 166.835 111.308 167.275 111.969C167.685 112.585 167.685 113.406 167.994 114.146C167.745 115.176 167.378 114.995 166.904 115.944C166.43 116.892 166.394 116.876 165.92 117.827C165.445 118.777 166.203 119.374 165.328 119.976C164.297 120.686 164.778 118.952 163.959 117.724C163.545 117.104 162.987 116.444 162.443 115.726C161.947 115.073 161.617 114.226 161.056 113.606C160.469 112.96 159.717 112.476 159.104 111.988C158.363 111.4 157.537 111.221 156.828 111.063C156.002 110.878 155.435 110.843 154.768 111.56C154.876 112.725 155.251 112.231 156.296 113.176C156.801 113.632 157.41 114.123 157.981 114.773C158.465 115.325 158.78 116.042 159.235 116.721C159.656 117.35 160.307 117.855 160.644 118.583C160.963 119.276 161.11 120.041 161.304 120.816C161.488 121.552 161.738 122.298 161.767 123.103C161.255 124.036 161.242 124.054 160.559 124.871C159.876 125.688 159.733 125.568 159.05 126.386C158.367 127.203 158.414 127.244 157.73 128.063C157.047 128.881 157.113 128.888 156.151 129.349C155.158 129.824 156.234 128.705 155.952 127.461C155.804 126.813 155.337 126.154 155.11 125.411C154.894 124.703 154.895 123.904 154.607 123.256C154.274 122.508 153.97 121.748 153.539 121.286C152.97 120.676 152.388 120.76 151.644 121.094C150.694 121.975 151.063 121.664 151.08 123.395C151.086 124.095 150.85 125 151.08 126.015C151.248 126.754 151.705 127.531 152.049 128.445C152.327 129.18 152.978 130.1 153.399 130.953C152.88 132.131 152.049 131.108 150.604 131.252C149.841 131.329 148.91 131.791 148.004 131.521C147.258 131.298 146.575 130.653 145.843 130.03C145.263 129.536 144.507 128.902 143.993 128.074C143.979 126.983 144.705 127.317 145.311 126.203C145.624 125.626 145.871 124.909 146.191 124.206C146.493 123.542 146.968 122.92 147.184 122.246C147.428 121.485 147.291 120.707 147.304 120.068C147.322 119.221 147.279 118.52 146.63 118.176C145.811 117.434 145.658 117.007 144.471 117.743C144.035 118.014 143.924 118.875 143.408 119.748C143.1 120.27 142.24 120.662 141.916 121.477C141.677 122.08 141.559 122.836 141.315 123.626C141.117 124.269 141.046 124.851 140.848 125.632C139.747 125.909 140.196 125.041 139.174 124.317C138.583 123.898 137.829 123.594 137.287 123.088C136.622 122.467 135.724 121.885 135.616 121.325C135.667 120.075 136.286 120.447 136.854 119.029C137.121 118.36 137.26 117.499 137.726 116.684C138.11 116.013 138.744 115.44 139.292 114.735C139.779 114.11 140.397 113.588 141.032 112.981C141.609 112.43 142.169 111.855 142.883 111.352C143.537 110.892 144.162 110.306 144.942 109.911C145.615 108.977 145.55 108.257 144.452 107.747C144.015 107.544 143.191 107.358 142.075 107.629C141.475 107.775 140.87 108.405 140.009 108.758C138.907 109.188 139.06 108.98 137.844 109.68C137.24 110.026 136.472 110.344 135.789 110.872C135.193 111.333 134.798 112.079 134.246 112.683C133.726 113.253 132.944 113.672 132.547 114.373C132.167 115.042 132.015 115.601 131.82 116.392C130.499 116.507 130.717 116.095 129.79 114.958C129.272 114.324 128.997 113.402 128.689 112.533C128.407 111.735 127.892 110.816 128.076 109.887C128.302 108.795 128.711 109.146 129.298 107.933C129.579 107.353 129.829 106.639 130.312 105.96C130.713 105.398 131.329 104.965 131.897 104.407C132.397 103.914 132.806 103.263 133.455 102.82C134.037 102.423 134.645 101.958 135.36 101.634C136.002 101.344 136.68 100.939 137.439 100.732C138.118 100.547 138.893 100.466 139.673 100.365C140.373 100.275 141.039 100.213 141.825 100.204C142.656 99.8106 143.068 99.5133 142.354 98.8714C142.087 98.6315 141.504 98.7123 140.565 98.6048C139.409 98.3864 139.716 97.9335 138.318 97.7816C137.634 97.7073 136.819 97.9439 135.955 97.9524C135.21 97.9602 134.458 98.144 133.65 98.2678C132.892 98.3845 132.122 98.4171 131.366 98.6797C130.636 98.9326 129.755 98.9444 129.077 99.3706C128.431 99.7767 127.801 100.333 127.245 100.928C126.736 101.475 126.423 102.139 126.024 102.87C124.907 102.781 125.772 102.076 125.394 100.846C125.199 100.208 124.728 99.5466 124.709 98.7345C124.692 98.0332 124.687 97.2478 124.933 96.4905C125.147 95.8354 125.851 95.3896 126.347 94.7398C127.024 93.7941 126.614 93.7218 127.704 92.8908C128.241 92.4814 129 92.2533 129.801 91.9229C130.459 91.6517 131.18 91.584 132.015 91.4803C132.724 91.3923 133.491 90.8181 134.327 90.9192C135.035 91.0045 135.721 91.5455 136.52 91.8075C137.202 92.0304 137.945 92.1582 138.693 92.5349C139.571 92.4091 139.498 92.0174 139.312 91.2333C139.226 90.8703 139.002 90.6356 138.152 90.2583C137.115 89.6332 137.424 89.5113 136.172 88.8785C135.525 88.5513 134.767 88.2691 133.936 88.0214C133.183 87.7972 132.425 87.3618 131.602 87.3344C130.811 87.3084 130.016 87.5821 129.229 87.8526C128.512 88.0983 127.574 88.6256 126.913 89.205C126.159 88.301 127.456 88.0794 128.268 86.9486C128.673 86.3848 129.116 85.6744 129.718 85.0611C130.243 84.5266 131.166 84.4048 131.838 83.9433C132.468 83.5112 132.951 82.7786 133.708 82.497C134.417 82.2337 135.212 82.0512 136.032 81.9913C136.769 81.9372 137.514 82.3028 138.34 82.4671C139.054 82.6085 139.887 82.5251 140.666 82.8646C141.333 83.1553 142.104 83.431 142.818 83.8879C143.434 84.2822 143.948 84.932 144.599 85.4645C145.171 85.9325 145.8 86.7557 146.399 87.3397L146.399 87.3449Z" stroke="#363737" stroke-width="1.9553" stroke-linecap="round" stroke-linejoin="round"/>
<path d="M158.133 153.449L156.368 153.696L154.564 153.237L152.761 153.462L150.957 153.656L149.153 153.519L147.347 153.514L145.541 153.288L143.736 153.403L141.932 153.236L140.128 153.722L138.323 153.702L136.517 153.68L134.711 153.465L132.906 153.337L131.101 153.406L129.295 153.593L127.489 153.617L125.683 153.619L123.878 153.372L122.072 153.654L120.265 153.4L118.459 153.642L116.653 153.617L114.846 153.354L113.04 153.808L111.234 153.723L109.427 153.566L107.621 153.382L105.816 153.541L104.012 153.315L102.207 153.448L100.4 153.625L98.5945 153.414L96.7871 153.576L94.9811 153.788L93.1731 153.398L91.3664 153.634L89.5584 153.621L87.7497 153.685L85.9417 153.532L84.135 153.247L82.3264 153.292L80.5177 153.434L78.7084 153.722L76.8965 153.564L75.153 153.419L74.9008 151.648L75.3244 149.808L75.1967 147.967L75.3877 146.127L75.198 144.288L74.9067 142.448L75.1745 140.606L74.8389 138.765L75.3355 136.921L75.1817 135.172L76.8887 135.362L78.6921 134.769L80.4955 134.881L82.299 135.215L84.1037 135.057L85.9091 135.174L87.7152 135.143L89.5199 135.266L91.324 134.97L93.1281 134.834L94.9335 135.139L96.7395 134.884L98.5456 135.085L100.35 134.953L102.155 135.208L103.96 135.018L105.768 135.352L107.573 134.795L109.379 134.791L111.185 135.094L112.991 134.865L114.797 134.892L116.603 134.811L118.41 135.031L120.216 135.161L122.023 135.011L123.829 135.182L125.635 135.086L127.44 134.795L129.244 135.259L131.049 135.264L132.857 135.246L134.662 135.166L136.469 135.315L138.275 134.93L140.083 134.863L141.89 134.957L143.697 134.974L145.506 134.953L147.315 134.883L149.121 135.156L150.929 134.898L152.738 135.042L154.547 134.901L156.36 135.234L158.313 134.937L157.866 136.915L158.039 138.755L157.927 140.596L158.2 142.436L158.434 144.275L158.463 146.116L157.899 147.957L157.873 149.798L158.493 151.646L158.133 153.449Z" fill="#363737"/>
<path d="M158.133 153.449L156.368 153.696L154.564 153.237L152.761 153.462L150.957 153.656L149.153 153.519L147.347 153.514L145.541 153.288L143.736 153.403L141.932 153.236L140.128 153.722L138.323 153.702L136.517 153.68L134.711 153.465L132.906 153.337L131.101 153.406L129.295 153.593L127.489 153.617L125.683 153.619L123.878 153.372L122.072 153.654L120.265 153.4L118.459 153.642L116.653 153.617L114.846 153.354L113.04 153.808L111.234 153.723L109.427 153.566L107.621 153.382L105.816 153.541L104.012 153.315L102.207 153.448L100.4 153.625L98.5945 153.414L96.7871 153.576L94.9811 153.788L93.1731 153.398L91.3664 153.634L89.5584 153.621L87.7497 153.685L85.9417 153.532L84.135 153.247L82.3264 153.292L80.5177 153.434L78.7084 153.722L76.8965 153.564L75.153 153.419L74.9008 151.648L75.3244 149.808L75.1967 147.967L75.3877 146.127L75.198 144.288L74.9067 142.448L75.1745 140.606L74.8389 138.765L75.3355 136.921L75.1817 135.172L76.8887 135.362L78.6921 134.769L80.4955 134.881L82.299 135.215L84.1037 135.057L85.9091 135.174L87.7152 135.143L89.5199 135.266L91.324 134.97L93.1281 134.834L94.9335 135.139L96.7395 134.884L98.5456 135.085L100.35 134.953L102.155 135.208L103.96 135.018L105.768 135.352L107.573 134.795L109.379 134.791L111.185 135.094L112.991 134.865L114.797 134.892L116.603 134.811L118.41 135.031L120.216 135.161L122.023 135.011L123.829 135.182L125.635 135.086L127.44 134.795L129.244 135.259L131.049 135.264L132.857 135.246L134.662 135.166L136.469 135.315L138.275 134.93L140.083 134.863L141.89 134.957L143.697 134.974L145.506 134.953L147.315 134.883L149.121 135.156L150.929 134.898L152.738 135.042L154.547 134.901L156.36 135.234L158.313 134.937L157.866 136.915L158.039 138.755L157.927 140.596L158.2 142.436L158.434 144.275L158.463 146.116L157.899 147.957L157.873 149.798L158.493 151.646L158.133 153.449Z" stroke="#363737" stroke-width="1.9553" stroke-linecap="round" stroke-linejoin="round"/>
<path d="M111.735 167.733L110.558 169.526L108.765 170.413L106.592 169.906L106.026 167.733L106.538 165.508L108.765 164.596L110.668 165.83L111.735 167.733Z" fill="#F8F9F9"/>
<path d="M127.008 167.733L126.621 169.861L124.493 170.28L122.417 169.809L121.704 167.733L122.32 165.56L124.493 165.157L126.566 165.661L127.008 167.733Z" fill="#F8F9F9"/>
<path d="M122.392 174.125L121.99 176.347L120.743 178.24L118.95 179.731L116.628 180.131L114.32 179.697L112.343 178.411L111.286 176.338L110.496 174.125" stroke="#F8F9F9" stroke-width="2.60707" stroke-linecap="round" stroke-linejoin="round"/>
<path d="M90.4475 64.444L90.8464 69.1654L91.577 73.8523L92.5306 78.5013L93.7272 83.0956L94.4174 87.8268L96.2958 92.2217L97.5935 96.7964L99.6316 101.092L101.041 105.684" fill="#5EAF74"/>
<path d="M90.4475 64.444L90.8464 69.1654L91.577 73.8523L92.5306 78.5013L93.7272 83.0956L94.4174 87.8268L96.2958 92.2217L97.5935 96.7964L99.6316 101.092L101.041 105.684" stroke="#363737" stroke-width="1.9553" stroke-linecap="round" stroke-linejoin="round"/>
<path d="M92.4724 75.6144L95.5937 72.0473L98.3905 68.1765L102.682 65.5857" fill="#5EAF74"/>
<path d="M92.4724 75.6144L95.5937 72.0473L98.3905 68.1765L102.682 65.5857" stroke="#363737" stroke-width="1.9553" stroke-linecap="round" stroke-linejoin="round"/>
<path d="M78.446 82.9597L80.6673 83.5946L83.071 83.7054L85.0543 85.0584L87.3609 85.5518L89.4668 86.5601L91.5778 87.586L93.1766 89.3516L95.2238 90.5776L96.3071 92.6958" stroke="#363737" stroke-width="1.9553" stroke-linecap="round" stroke-linejoin="round"/>
<path d="M104.792 90.8626L103.319 91.6278L101.571 92.1798L100.399 93.5068L100.216 95.41L99.3487 96.8067L98.2322 98.3729L99.1746 100.079" stroke="#363737" stroke-width="1.9553" stroke-linecap="round" stroke-linejoin="round"/>
<path d="M123.676 8.52063L122.737 13.0074L122.525 17.5919L121.312 22.1028L121.496 26.7134L121.408 31.3136L122.588 35.7808L123.508 40.16" stroke="#363737" stroke-width="1.9553" stroke-linecap="round" stroke-linejoin="round"/>
<path d="M116.972 18.7966L119.881 19.6465L121.2 22.1813" stroke="#363737" stroke-width="1.9553" stroke-linecap="round" stroke-linejoin="round"/>
<path d="M123.406 15.9718L127.442 14.3789L131.416 12.6621" stroke="#363737" stroke-width="1.9553" stroke-linecap="round" stroke-linejoin="round"/>
<path d="M122.636 32.8338L125.423 30.9795L127.987 28.8847L130.044 26.2594" stroke="#363737" stroke-width="1.9553" stroke-linecap="round" stroke-linejoin="round"/>
</svg>
