<svg width="22" height="21" viewBox="0 0 22 21" fill="none" xmlns="http://www.w3.org/2000/svg">
<g id="&#240;&#159;&#145;&#137;icon-waterworks-mono">
<path id="Fill 279" fill-rule="evenodd" clip-rule="evenodd" d="M11.6641 8.10827C13.1851 7.76927 14.2521 6.33727 14.1921 4.78027C14.1441 3.55627 13.3941 2.46227 11.1611 0.31527C11.0201 0.17927 10.7941 0.17827 10.6531 0.31427C8.34314 2.53527 7.61914 3.62927 7.61914 4.90527C7.61914 6.96827 9.51814 8.58727 11.6641 8.10827Z" fill="#B0B8C1" fill-opacity="0.3"/>
<path id="Fill 280" fill-rule="evenodd" clip-rule="evenodd" d="M5.72379 16.4218C7.69279 15.9828 9.07379 14.1288 8.99579 12.1128C8.93479 10.5288 7.96379 9.1118 5.07279 6.3328C4.88979 6.1578 4.59679 6.1568 4.41379 6.3328C1.42379 9.2068 0.487793 10.6238 0.487793 12.2758C0.487793 14.9448 2.94679 17.0418 5.72379 16.4218Z" fill="#B0B8C1" fill-opacity="0.6"/>
<path id="Fill 281" fill-rule="evenodd" clip-rule="evenodd" d="M17.3333 20.5224C19.8123 19.9694 21.5513 17.6354 21.4533 15.0964C21.3773 13.1014 20.1533 11.3174 16.5133 7.81737C16.2823 7.59637 15.9143 7.59537 15.6843 7.81637C11.9183 11.4364 10.7383 13.2204 10.7383 15.3004C10.7383 18.6644 13.8353 21.3034 17.3333 20.5224Z" fill="#B0B8C1"/>
</g>
</svg>
