<svg width="24" height="24" viewBox="0 0 24 24" fill="none" xmlns="http://www.w3.org/2000/svg">
<g id="Frame 3469155">
<g id="Group 3466600">
<g id="Vector">
<path d="M13.072 4.62547C13.072 3.72775 12.3649 3 11.4926 3C10.6203 3 9.9132 3.72775 9.9132 4.62547V5.62197C9.9132 6.51969 10.6203 7.24744 11.4926 7.24744C12.3649 7.24744 13.072 6.51969 13.072 5.62197V4.62547Z" fill="#8B95A1"/>
<path d="M19.9113 18.7541L18.3364 17.068H18.3135V11.0768H18.3053C18.1286 7.35479 15.1158 4.36655 11.4576 4.36655C7.7993 4.36655 4.78653 7.35521 4.60982 11.0768V11.0802C4.6045 11.1939 4.60164 11.3079 4.60164 11.4225V12.4707C4.60164 12.581 4.6045 12.6905 4.60982 12.7991V17.1392H4.60164L3.08564 18.7693C2.89911 18.9697 3.03737 19.3027 3.30695 19.3027H19.6851C19.9628 19.3027 20.1036 18.96 19.9113 18.7541Z" fill="#8B95A1"/>
</g>
<path id="Vector_2" d="M11.5 20.0113H14C14 21.1022 12.8714 22 11.5 22C10.1286 22 9 21.1022 9 20.0113C9 20.0075 9 20.0038 9 20L11.5 20.0113Z" fill="#8B95A1"/>
</g>
</g>
</svg>
