<svg width="19" height="18" viewBox="0 0 19 18" fill="none" xmlns="http://www.w3.org/2000/svg">
<path fill-rule="evenodd" clip-rule="evenodd" d="M9.11834 17.8379C8.75145 17.4385 8.31591 17.1217 7.83658 16.9056C7.35725 16.6896 6.84353 16.5784 6.32475 16.5785H1.3041C1.09685 16.5785 0.898094 16.4889 0.751548 16.3293C0.605003 16.1697 0.522675 15.9533 0.522675 15.7276V3.66831C0.522675 3.44263 0.605003 3.22619 0.751548 3.06661C0.898094 2.90703 1.09685 2.81738 1.3041 2.81738H6.32475C7.37264 2.81738 8.37755 3.27093 9.11834 4.0776" fill="#8B95A1"/>
<path fill-rule="evenodd" clip-rule="evenodd" d="M9.88285 17.8379C10.2497 17.4385 10.6853 17.1217 11.1646 16.9056C11.6439 16.6896 12.1577 16.5784 12.6764 16.5785H17.6971C17.9043 16.5785 18.1031 16.4889 18.2496 16.3293C18.3962 16.1697 18.4785 15.9533 18.4785 15.7276V3.66831C18.4785 3.44263 18.3962 3.22619 18.2496 3.06661C18.1031 2.90703 17.9043 2.81738 17.6971 2.81738H12.6764C11.6286 2.81738 10.6236 3.27093 9.88285 4.0776" fill="#8B95A1"/>
<circle cx="9.50078" cy="5.928" r="5.928" fill="#B0B8C1"/>
<rect x="8.47974" y="2.52441" width="2.04209" height="6.80727" fill="white"/>
<rect x="6.0972" y="6.9491" width="2.04209" height="6.80727" transform="rotate(-90 6.0972 6.9491)" fill="white"/>
</svg>
