<svg width="25" height="24" viewBox="0 0 25 24" fill="none" xmlns="http://www.w3.org/2000/svg">
  <g id="icon-bin-line-mono 1">
    <g id="Group">
      <path
          id="Vector"
          d="M21.0001 5.12103H4.0001C3.36497 5.12103 2.8501 5.63591 2.8501 6.27103C2.8501 6.90616 3.36497 7.42103 4.0001 7.42103H21.0001C21.6352 7.42103 22.1501 6.90616 22.1501 6.27103C22.1501 5.63591 21.6352 5.12103 21.0001 5.12103Z"
          fill="#B0B8C1"
      />
      <path
          id="Vector_2"
          d="M9.28418 11.98V16.486C9.28418 17.1212 9.79905 17.636 10.4342 17.636C11.0693 17.636 11.5842 17.1212 11.5842 16.486V11.98C11.5842 11.3449 11.0693 10.83 10.4342 10.83C9.79905 10.83 9.28418 11.3449 9.28418 11.98Z"
          fill="#B0B8C1"
      />
      <path
          id="Vector_3"
          d="M13.416 11.98V16.486C13.416 17.1212 13.9309 17.636 14.566 17.636C15.2011 17.636 15.716 17.1212 15.716 16.486V11.98C15.716 11.3449 15.2011 10.83 14.566 10.83C13.9309 10.83 13.416 11.3449 13.416 11.98Z"
          fill="#B0B8C1"
      />
      <path
          id="Vector_4"
          d="M17.572 6.27103H15.572V3.84003C15.572 3.28903 15.124 2.84003 14.572 2.84003H10.428C9.87698 2.84003 9.42798 3.28903 9.42798 3.84003V6.27103H7.42798V3.84003C7.42798 2.18603 8.77398 0.840027 10.428 0.840027H14.572C16.226 0.840027 17.572 2.18603 17.572 3.84003V6.27103Z"
          fill="#B0B8C1"
      />
      <path
          id="Vector_5"
          d="M18.4931 7.42103L18.0051 19.17C17.9891 19.545 17.6811 19.841 17.3061 19.841H7.70413C7.32913 19.841 7.02013 19.545 7.00513 19.171L6.50913 7.42103H18.4931ZM20.8921 5.12103H4.10913L4.73513 19.938C4.78713 21.169 5.80013 22.141 7.03313 22.141H17.9771C19.2101 22.141 20.2241 21.169 20.2751 19.937L20.8921 5.12103Z"
          fill="#B0B8C1"
      />
    </g>
  </g>
</svg>