<svg width="16" height="17" viewBox="0 0 16 17" fill="none" xmlns="http://www.w3.org/2000/svg">
  <g id="book-open">
    <g id="Group 3466515">
      <path
          id="Vector"
          d="M1 2.59961H5C5.70724 2.59961 6.38552 2.88056 6.88562 3.38066C7.38572 3.88075 7.66667 4.55903 7.66667 5.26628V14.5996C7.66667 14.0692 7.45595 13.5605 7.08088 13.1854C6.70581 12.8103 6.1971 12.5996 5.66667 12.5996H1V2.59961Z"
          fill="#34C184"
      />
      <path
          id="Vector_2"
          d="M15.3337 2.59961H11.3337C10.6264 2.59961 9.94814 2.88056 9.44804 3.38066C8.94794 3.88075 8.66699 4.55903 8.66699 5.26628V14.5996C8.66699 14.0692 8.87771 13.5605 9.25278 13.1854C9.62785 12.8103 10.1366 12.5996 10.667 12.5996H15.3337V2.59961Z"
          fill="#34C184"
      />
    </g>
  </g>
</svg>