<svg width="24" height="24" viewBox="0 0 24 24" fill="none" xmlns="http://www.w3.org/2000/svg">
    <path
        d="M23 19C23 19.5304 22.7893 20.0391 22.4142 20.4142C22.0391 20.7893 21.5304 21 21 21H3C2.46957 21 1.96086 20.7893 1.58579 20.4142C1.21071 20.0391 1 19.5304 1 19V8C1 7.46957 1.21071 6.96086 1.58579 6.58579C1.96086 6.21071 2.46957 6 3 6H7L9 3H15L17 6H21C21.5304 6 22.0391 6.21071 22.4142 6.58579C22.7893 6.96086 23 7.46957 23 8V19Z"
        fill="#D1D6DB"
    />
    <path
        d="M12 17.002C14.2091 17.002 16 15.2111 16 13.002C16 10.7928 14.2091 9.00195 12 9.00195C9.79086 9.00195 8 10.7928 8 13.002C8 15.2111 9.79086 17.002 12 17.002Z"
        fill="#F2F4F6"
    />
</svg>