<svg width="21" height="21" viewBox="0 0 21 21" fill="none" xmlns="http://www.w3.org/2000/svg">
<path d="M20.3223 10.5C20.3223 16.0228 15.8451 20.5 10.3223 20.5C4.79942 20.5 0.322266 16.0228 0.322266 10.5C0.322266 4.97715 4.79942 0.5 10.3223 0.5C15.8451 0.5 20.3223 4.97715 20.3223 10.5Z" fill="url(#paint0_linear_1107_9393)"/>
<path d="M5.17377 12.4613C5.06917 12.4613 4.98324 12.4296 4.916 12.3661C4.84875 12.2988 4.81513 12.2166 4.81513 12.1195V9.29521L4.89358 9.41849L4.48451 9.72109C4.43221 9.76219 4.36683 9.78274 4.28838 9.78274C4.19871 9.78274 4.12026 9.74911 4.05302 9.68187C3.98577 9.61462 3.95215 9.5343 3.95215 9.4409C3.95215 9.32136 4.01005 9.22423 4.12587 9.14951L4.93281 8.61155C4.97017 8.58539 5.01126 8.56672 5.05609 8.55551C5.10466 8.5443 5.14949 8.5387 5.19058 8.5387C5.29892 8.5387 5.38485 8.57232 5.44836 8.63956C5.51187 8.70307 5.54362 8.78339 5.54362 8.88053V12.1195C5.54362 12.2166 5.50813 12.2988 5.43715 12.3661C5.3699 12.4296 5.28211 12.4613 5.17377 12.4613Z" fill="white"/>
<path d="M10.8193 11.8536C10.9077 11.8536 10.9814 11.8831 11.0403 11.942C11.0992 12.0009 11.1287 12.0746 11.1287 12.163C11.1287 12.2477 11.0992 12.3195 11.0403 12.3785C10.9814 12.4337 10.9077 12.4613 10.8193 12.4613H8.94084C8.84508 12.4613 8.76957 12.4319 8.71432 12.3729C8.65907 12.314 8.63145 12.2385 8.63145 12.1464C8.63145 12.0543 8.6646 11.9733 8.73089 11.9033L9.93531 10.616C10.0716 10.4687 10.1784 10.3177 10.2558 10.163C10.3368 10.0083 10.3773 9.87387 10.3773 9.75969C10.3773 9.57553 10.3239 9.4282 10.2171 9.3177C10.1103 9.20352 9.96846 9.14643 9.79167 9.14643C9.72169 9.14643 9.64986 9.163 9.5762 9.19615C9.50253 9.2293 9.43071 9.27534 9.36073 9.33428C9.29443 9.39321 9.23181 9.46135 9.17288 9.53869C9.12868 9.59763 9.08449 9.63446 9.04029 9.64919C8.99609 9.66392 8.95557 9.67129 8.91874 9.67129C8.83771 9.67129 8.7622 9.64183 8.69222 9.58289C8.62592 9.52028 8.59277 9.44846 8.59277 9.36742C8.59277 9.30481 8.61303 9.24404 8.65355 9.1851C8.69775 9.12617 8.75115 9.0654 8.81377 9.00278C8.90585 8.9107 9.00898 8.82967 9.12316 8.75969C9.23734 8.68971 9.3552 8.6363 9.47675 8.59947C9.5983 8.55895 9.71616 8.5387 9.83034 8.5387C10.0771 8.5387 10.2907 8.58842 10.4712 8.68787C10.6554 8.78363 10.7972 8.92175 10.8966 9.10223C10.9961 9.27903 11.0458 9.48897 11.0458 9.73206C11.0458 9.93464 10.985 10.1612 10.8635 10.4116C10.7456 10.6584 10.5854 10.8904 10.3828 11.1078L9.63697 11.9033L9.5762 11.8536H10.8193Z" fill="white"/>
<path d="M14.5783 11.6212C14.6117 11.6212 14.647 11.6267 14.6841 11.6379C14.7249 11.649 14.7694 11.6712 14.8176 11.7046C14.8807 11.7529 14.9548 11.7955 15.0402 11.8326C15.1292 11.8697 15.2312 11.8882 15.3462 11.8882C15.4612 11.8882 15.5687 11.8604 15.6689 11.8048C15.7728 11.7454 15.8581 11.6638 15.9248 11.56C15.9916 11.4524 16.025 11.3244 16.025 11.176C16.025 11.0351 15.9953 10.9182 15.936 10.8255C15.8803 10.7328 15.8043 10.6623 15.7078 10.6141C15.6151 10.5659 15.515 10.5417 15.4074 10.5417C15.3258 10.5417 15.2572 10.5492 15.2015 10.564C15.1496 10.5788 15.0977 10.5955 15.0457 10.6141C14.9975 10.6289 14.94 10.6363 14.8732 10.6363C14.7879 10.6363 14.7212 10.6067 14.6729 10.5473C14.6284 10.488 14.6062 10.4175 14.6062 10.3359C14.6062 10.2839 14.6154 10.2376 14.634 10.1968C14.6562 10.156 14.6878 10.1115 14.7286 10.0632L15.7078 9.02277L15.8581 9.15074H14.4893C14.4003 9.15074 14.3261 9.12107 14.2668 9.06172C14.2074 9.00237 14.1777 8.92818 14.1777 8.83915C14.1777 8.75384 14.2074 8.68336 14.2668 8.62772C14.3261 8.56837 14.4003 8.5387 14.4893 8.5387H16.1919C16.3069 8.5387 16.3922 8.57023 16.4479 8.63329C16.5072 8.69634 16.5369 8.7761 16.5369 8.87254C16.5369 8.92076 16.5239 8.96898 16.4979 9.0172C16.472 9.06172 16.4404 9.10252 16.4033 9.13961L15.4185 10.1968L15.2683 10.0076C15.3091 9.98906 15.3647 9.97236 15.4352 9.95753C15.5094 9.94269 15.5706 9.93527 15.6188 9.93527C15.8377 9.93527 16.0268 9.99276 16.1864 10.1078C16.3496 10.219 16.4738 10.3656 16.5591 10.5473C16.6482 10.7254 16.6927 10.9182 16.6927 11.126C16.6927 11.4005 16.6315 11.6379 16.5091 11.8382C16.3867 12.0385 16.2142 12.1924 15.9916 12.3C15.769 12.4076 15.5094 12.4613 15.2126 12.4613C15.0754 12.4613 14.94 12.4447 14.8065 12.4113C14.6729 12.3779 14.5579 12.3334 14.4615 12.2777C14.3799 12.2332 14.3243 12.185 14.2946 12.1331C14.2686 12.0774 14.2556 12.0255 14.2556 11.9773C14.2556 11.892 14.2853 11.8122 14.3447 11.738C14.4077 11.6601 14.4856 11.6212 14.5783 11.6212Z" fill="white"/>
<defs>
<linearGradient id="paint0_linear_1107_9393" x1="10.3223" y1="0.5" x2="10.3223" y2="20.5" gradientUnits="userSpaceOnUse">
<stop stop-color="#9FE394"/>
<stop offset="1" stop-color="#34C184"/>
</linearGradient>
</defs>
</svg>
