<svg width="77" height="68" viewBox="0 0 77 68" fill="none" xmlns="http://www.w3.org/2000/svg">
<g id="Group">
<g id="Group_2">
<path id="Vector" d="M36.3174 2.5109C36.1404 2.81724 36.3887 2.96046 36.2118 3.2668C36.0348 3.57314 35.7213 3.39177 35.5444 3.69866C35.3674 4.00555 35.7987 4.25438 35.6218 4.56072C35.4448 4.86706 35.4404 4.86485 35.2635 5.17119C35.0865 5.47753 34.7879 5.30556 34.611 5.61245C34.434 5.91935 34.3229 5.8552 34.1459 6.1621C33.969 6.46899 34.0901 6.53921 33.9131 6.84611C33.7362 7.153 33.6781 7.11982 33.5006 7.42727C33.3231 7.73471 33.2457 7.68992 33.0682 7.99737C32.8907 8.30481 33.2424 8.50775 33.0649 8.8152C32.8874 9.12264 32.7132 9.022 32.5357 9.32945C32.3582 9.6369 32.1746 9.53073 31.9971 9.83762C31.8196 10.1445 32.2001 10.364 32.0231 10.6715C31.8462 10.9789 31.6006 10.8368 31.4231 11.1437C31.2456 11.4506 31.1704 11.4069 30.9935 11.7138C30.8166 12.0207 30.8862 12.0611 30.7093 12.368C30.5323 12.6749 30.8691 12.8695 30.6921 13.1758C30.5152 13.4822 30.4522 13.4462 30.2752 13.7526C30.0983 14.0589 29.7444 13.8549 29.5674 14.1618C29.3905 14.4687 29.5315 14.5499 29.3545 14.8568C29.1776 15.1637 29.2019 15.1776 29.025 15.4844C28.848 15.7913 28.8994 15.8206 28.7219 16.1275C28.5444 16.4344 28.7203 16.5356 28.5428 16.8425C28.3653 17.1494 28.1524 17.0267 27.9754 17.3335C27.7985 17.6404 27.6525 17.5569 27.4756 17.8638C27.2986 18.1707 27.5657 18.3256 27.3882 18.633C27.2107 18.9404 26.9829 18.8088 26.8054 19.1163C26.6279 19.4237 26.859 19.5576 26.681 19.865C26.5029 20.1724 26.2651 20.0353 26.0876 20.3428C25.9101 20.6502 26.0224 20.7149 25.8449 21.0223C25.6674 21.3298 25.4429 21.1998 25.2654 21.5073C25.0879 21.8147 25.3677 21.9762 25.1907 22.2831C25.0138 22.59 24.8269 22.4827 24.6499 22.7896C24.473 23.0965 24.4813 23.1015 24.3043 23.4089C24.1274 23.7164 24.2347 23.7777 24.0572 24.0846C23.8797 24.3915 23.6789 24.2754 23.5014 24.5823C23.3239 24.8892 23.6778 25.0938 23.5003 25.4007C23.3228 25.7076 23.0519 25.5516 22.8749 25.8585C22.698 26.1654 22.964 26.3197 22.787 26.6271C22.6101 26.9346 22.5603 26.9064 22.3828 27.2138C22.2053 27.5213 22.1456 27.4876 21.9681 27.795C21.7906 28.1024 21.717 28.0604 21.5395 28.3679C21.362 28.6753 21.607 28.8169 21.4295 29.1243C21.252 29.4318 20.9136 29.236 20.7361 29.5435C20.5586 29.8509 20.9213 30.0599 20.7438 30.3674C20.5663 30.6748 20.5481 30.6643 20.3711 30.9712C20.1942 31.2781 19.8215 31.0635 19.644 31.3704C19.4665 31.6773 19.6849 31.804 19.5074 32.1114C19.3299 32.4188 19.0794 32.2745 18.9019 32.582C18.7244 32.8894 18.9705 33.0315 18.7924 33.339C18.6144 33.6464 18.4623 33.5591 18.2843 33.8665C18.1062 34.1739 18.3412 34.3094 18.1637 34.6174C17.9862 34.9254 17.8115 34.8242 17.634 35.1317C17.4565 35.4391 17.4554 35.4386 17.2779 35.746C17.1004 36.0535 17.2989 36.1663 17.1219 36.4726C16.945 36.7789 17.0053 36.8143 16.8283 37.1207C16.6514 37.427 16.3528 37.2556 16.1753 37.5625C15.9978 37.8694 16.162 37.965 15.9845 38.273C15.807 38.581 15.5543 38.4351 15.3768 38.743C15.1993 39.051 15.4686 39.2059 15.2911 39.5133C15.1136 39.8208 14.972 39.7384 14.7945 40.0453C14.617 40.3522 14.8006 40.4578 14.6237 40.7647C14.4467 41.0716 14.5275 41.118 14.3505 41.4249C14.1736 41.7318 14.0729 41.6732 13.8954 41.9801C13.7179 42.287 13.4497 42.1316 13.2722 42.4385C13.0947 42.7454 13.0958 42.7459 12.9189 43.0528C12.7419 43.3597 12.6756 43.3221 12.4986 43.6296C12.3217 43.937 12.4577 44.0161 12.2797 44.3241C12.1016 44.6321 12.2034 44.6912 12.0253 44.9992C11.8473 45.3072 11.7759 45.2658 11.5984 45.5732C11.4209 45.8807 11.5315 45.9448 11.354 46.2522C11.1765 46.5597 11.1538 46.5464 10.9763 46.8539C10.7988 47.1613 10.7253 47.1187 10.5484 47.4262C10.3714 47.7336 10.5987 47.8652 10.4212 48.1727C10.2437 48.4801 9.9401 48.3054 9.76205 48.6139C9.58399 48.9225 9.66694 48.97 9.48889 49.2786C9.31083 49.5871 9.55579 49.7276 9.37774 50.0356C9.19969 50.3436 9.08688 50.2778 8.90938 50.5858C8.73188 50.8938 8.77335 50.9181 8.59585 51.2256C8.41835 51.533 8.34813 51.4938 8.17008 51.8023C7.99202 52.1109 8.0064 52.1186 7.82835 52.4272C7.65029 52.7357 7.44072 52.6141 7.26267 52.9221C7.08462 53.23 7.00444 53.1842 6.82638 53.4922C6.64833 53.8002 6.81256 53.8958 6.63451 54.2044C6.45645 54.5129 6.31877 54.4333 6.14127 54.7413C5.96377 55.0493 6.13131 55.145 5.95381 55.4518C5.77631 55.7587 6.0257 55.9031 5.8482 56.2105C5.6707 56.5179 5.22943 56.2647 5.05083 56.5738C4.87222 56.8829 4.91204 56.9045 4.73398 57.2125C4.55593 57.5205 4.48294 57.4784 4.30544 57.7864C4.12794 58.0944 4.48073 58.3001 4.30267 58.6092C4.12462 58.9183 4.06379 58.883 3.88574 59.1915C3.70769 59.5001 3.64631 59.4652 3.4677 59.7743C3.2891 60.0834 3.49425 60.2023 3.31564 60.5114C3.13703 60.8205 2.97115 60.7243 2.79309 61.0334C2.61504 61.3425 2.45358 61.2502 2.27497 61.5593C2.09636 61.8684 2.42316 62.0586 2.244 62.3688C2.06484 62.679 1.68164 62.4578 1.50248 62.7681C1.37641 62.987 1.26084 63.2701 1.20831 63.4974C1.15246 63.7385 1.49419 64.0188 1.51299 64.2561C1.53179 64.4994 1.39963 64.7642 1.48811 64.9882C1.57713 65.2132 1.55667 65.5539 1.70708 65.7435C1.85638 65.9321 2.24124 65.9188 2.44196 66.0571C2.63826 66.1914 2.79752 66.4486 3.03418 66.5204C3.25758 66.5885 3.5324 66.3396 3.7851 66.3396C4.139 66.3396 4.139 66.4806 4.49234 66.4806C4.84568 66.4806 4.84623 66.3584 5.20013 66.3584C5.55402 66.3584 5.55402 66.4806 5.90792 66.4806C6.26181 66.4806 6.26181 66.7554 6.61571 66.7554C6.9696 66.7554 6.9696 66.6161 7.32405 66.6161C7.67849 66.6161 7.67849 66.6139 8.03294 66.6139C8.38739 66.6139 8.38739 66.3523 8.74184 66.3523C9.09628 66.3523 9.09628 66.777 9.45128 66.777C9.80628 66.777 9.80628 66.5807 10.1613 66.5807C10.5163 66.5807 10.5163 66.2617 10.8713 66.2617C11.2263 66.2617 11.2263 66.6233 11.5813 66.6233C11.9363 66.6233 11.9363 66.4441 12.2907 66.4441C12.6452 66.4441 12.6452 66.3125 12.9996 66.3125C13.3541 66.3125 13.3541 66.5354 13.7085 66.5354C14.063 66.5354 14.063 66.526 14.4174 66.526C14.7719 66.526 14.7719 66.6509 15.1258 66.6509C15.4797 66.6509 15.4797 66.3015 15.8341 66.3015C16.1885 66.3015 16.188 66.2854 16.5424 66.2854C16.8969 66.2854 16.8963 66.3551 17.2508 66.3551C17.6052 66.3551 17.6047 66.552 17.9591 66.552C18.3136 66.552 18.313 66.4596 18.6675 66.4596C19.0219 66.4596 19.0219 66.3286 19.3758 66.3286C19.7297 66.3286 19.7303 66.7278 20.0847 66.7278C20.4392 66.7278 20.4392 66.5044 20.7936 66.5044C21.148 66.5044 21.148 66.2865 21.503 66.2865C21.858 66.2865 21.858 66.7505 22.2125 66.7505C22.5669 66.7505 22.5675 66.6769 22.9225 66.6769C23.2775 66.6769 23.2775 66.5166 23.633 66.5166C23.9886 66.5166 23.9881 66.3142 24.3436 66.3142C24.6992 66.3142 24.6986 66.3385 25.0536 66.3385C25.4086 66.3385 25.4086 66.5066 25.7631 66.5066C26.1175 66.5066 26.1175 66.4696 26.4725 66.4696C26.8275 66.4696 26.8269 66.6609 27.1814 66.6609C27.5358 66.6609 27.5358 66.4027 27.8903 66.4027C28.2447 66.4027 28.2447 66.6742 28.5992 66.6742C28.9536 66.6742 28.9536 66.3656 29.3081 66.3656C29.6625 66.3656 29.6625 66.5536 30.0175 66.5536C30.3725 66.5536 30.372 66.6028 30.727 66.6028C31.082 66.6028 31.082 66.4264 31.437 66.4264C31.792 66.4264 31.792 66.2445 32.147 66.2445C32.502 66.2445 32.5025 66.7355 32.8575 66.7355C33.2125 66.7355 33.2131 66.6515 33.5681 66.6515C33.9231 66.6515 33.9231 66.7261 34.2781 66.7261C34.6331 66.7261 34.6331 66.2351 34.9881 66.2351C35.3431 66.2351 35.3431 66.4475 35.6975 66.4475C36.052 66.4475 36.0525 66.4873 36.407 66.4873C36.7614 66.4873 36.762 66.2583 37.1164 66.2583C37.4709 66.2583 37.4714 66.3722 37.8259 66.3722C38.1803 66.3722 38.1809 66.2981 38.5359 66.2981C38.8909 66.2981 38.8909 66.6167 39.2464 66.6167C39.602 66.6167 39.602 66.6714 39.9575 66.6714C40.3131 66.6714 40.3131 66.6543 40.6681 66.6543C41.0231 66.6543 41.0231 66.5044 41.3781 66.5044C41.7331 66.5044 41.7331 66.7549 42.0881 66.7549C42.4431 66.7549 42.4431 66.4364 42.7981 66.4364C43.1531 66.4364 43.1531 66.4187 43.5081 66.4187C43.8631 66.4187 43.8631 66.2876 44.2186 66.2876C44.5742 66.2876 44.5742 66.678 44.9298 66.678C45.2853 66.678 45.2853 66.6736 45.6409 66.6736C45.9964 66.6736 45.9959 66.2711 46.3503 66.2711C46.7048 66.2711 46.7048 66.62 47.0592 66.62C47.4136 66.62 47.4131 66.302 47.7675 66.302C48.122 66.302 48.1214 66.6692 48.4753 66.6692C48.8292 66.6692 48.8292 66.6725 49.1831 66.6725C49.537 66.6725 49.537 66.6305 49.8915 66.6305C50.2459 66.6305 50.2459 66.7002 50.5998 66.7002C50.9537 66.7002 50.9542 66.349 51.3092 66.349C51.6642 66.349 51.6642 66.4193 52.0198 66.4193C52.3754 66.4193 52.3759 66.3662 52.7315 66.3662C53.087 66.3662 53.087 66.2965 53.442 66.2965C53.797 66.2965 53.797 66.6985 54.152 66.6985C54.507 66.6985 54.507 66.7317 54.8615 66.7317C55.2159 66.7317 55.2165 66.7731 55.5709 66.7731C55.9254 66.7731 55.9259 66.6797 56.2809 66.6797C56.6359 66.6797 56.6365 66.6017 56.992 66.6017C57.3476 66.6017 57.3481 66.4945 57.7042 66.4945C58.0603 66.4945 58.0598 66.3225 58.4153 66.3225C58.7709 66.3225 58.7703 66.7809 59.1259 66.7809C59.4814 66.7809 59.4814 66.438 59.837 66.438C60.1926 66.438 60.1931 66.5182 60.5492 66.5182C60.9053 66.5182 60.9053 66.704 61.2609 66.704C61.6164 66.704 61.6164 66.4945 61.972 66.4945C62.3275 66.4945 62.3281 66.4049 62.6836 66.4049C63.0392 66.4049 63.0397 66.7267 63.3964 66.7267C63.7531 66.7267 63.7525 66.5691 64.1081 66.5691C64.4636 66.5691 64.4642 66.244 64.8208 66.244C65.1775 66.244 65.1769 66.589 65.533 66.589C65.8891 66.589 65.8891 66.3816 66.2453 66.3816C66.6014 66.3816 66.6008 66.2368 66.9564 66.2368C67.3119 66.2368 67.3119 66.4065 67.6675 66.4065C68.023 66.4065 68.0241 66.7029 68.3808 66.7029C68.7374 66.7029 68.7369 66.7333 69.093 66.7333C69.4491 66.7333 69.4497 66.7715 69.8058 66.7715C70.1619 66.7715 70.1624 66.3833 70.5196 66.3833C70.8768 66.3833 70.8763 66.4309 71.2324 66.4309C71.5885 66.4309 71.5896 66.3147 71.9468 66.3147C72.304 66.3147 72.3046 66.4469 72.6624 66.4469C73.0201 66.4469 73.0201 66.6758 73.3779 66.6758C73.6306 66.6758 73.8684 66.4712 74.0918 66.4032C74.3284 66.3313 74.5386 66.2147 74.7348 66.0803C74.9361 65.942 75.3077 65.9354 75.457 65.7468C75.6074 65.5572 75.5903 65.2177 75.6793 64.9926C75.7678 64.7692 75.7761 64.5137 75.7949 64.2704C75.8131 64.0332 75.7639 63.7993 75.7081 63.5582C75.655 63.331 75.6848 63.049 75.5588 62.8305C75.3818 62.5242 75.0865 62.6951 74.9096 62.3887C74.7326 62.0824 75.0722 61.8861 74.8952 61.5797C74.7183 61.2734 74.5209 61.3873 74.3439 61.0804C74.167 60.7735 74.1548 60.7807 73.9778 60.4744C73.8009 60.168 74.1061 59.9911 73.9292 59.6847C73.7522 59.3784 73.3397 59.6162 73.1622 59.3093C72.9847 59.0024 72.9637 59.0146 72.7862 58.7077C72.6087 58.4008 72.8913 58.2371 72.7143 57.9302C72.5374 57.6233 72.6679 57.547 72.4904 57.2396C72.3129 56.9321 71.9562 57.1378 71.7787 56.8304C71.6012 56.5229 71.8091 56.4029 71.6316 56.0955C71.4541 55.788 71.6316 55.6857 71.4541 55.3788C71.2766 55.072 70.9238 55.2754 70.7469 54.9686C70.57 54.6617 70.8697 54.4886 70.6927 54.1811C70.5158 53.8737 70.2205 54.0446 70.043 53.7377C69.8655 53.4308 69.9269 53.3959 69.7499 53.089C69.573 52.7822 69.558 52.791 69.3811 52.4841C69.2041 52.1772 69.4176 52.0545 69.2401 51.7476C69.0626 51.4407 68.9205 51.5231 68.7435 51.2167C68.5666 50.9104 68.4748 50.9629 68.2978 50.6566C68.1209 50.3502 68.0927 50.3663 67.9157 50.0594C67.7388 49.7525 67.9329 49.6402 67.7559 49.3333C67.579 49.0264 67.5834 49.0237 67.4059 48.7168C67.2284 48.4099 67.0692 48.5017 66.8922 48.1948C66.7153 47.8879 66.6572 47.9211 66.4803 47.6136C66.3033 47.3062 66.5239 47.179 66.3464 46.8716C66.1689 46.5641 66.1916 46.5508 66.0141 46.2434C65.8366 45.936 65.9035 45.8972 65.726 45.5892C65.5485 45.2812 65.256 45.4505 65.0785 45.143C64.901 44.8356 65.1836 44.6724 65.0061 44.365C64.8286 44.0575 64.7993 44.0747 64.6218 43.7678C64.4443 43.4609 64.2209 43.5897 64.0434 43.2823C63.8659 42.9748 63.9344 42.9356 63.7569 42.6287C63.5794 42.3218 63.434 42.4059 63.2565 42.099C63.079 41.7921 63.0403 41.8147 62.8628 41.5073C62.6853 41.1999 63.0038 41.0163 62.8263 40.7094C62.6488 40.4025 62.6925 40.377 62.5155 40.0702C62.3386 39.7633 62.2241 39.8291 62.0466 39.5216C61.8691 39.2142 61.9515 39.1666 61.774 38.8597C61.5965 38.5528 61.3897 38.6717 61.2122 38.3643C61.0347 38.0568 61.1917 37.9656 61.0143 37.6581C60.8368 37.3507 60.5459 37.5182 60.3684 37.2108C60.1909 36.9034 60.3772 36.7955 60.1997 36.4881C60.0222 36.1806 60.2125 36.0706 60.0355 35.7631C59.8586 35.4557 59.5008 35.662 59.3233 35.3551C59.1458 35.0482 59.5594 34.8093 59.3819 34.5018C59.2044 34.1944 59.0546 34.2812 58.8771 33.9738C58.6996 33.6663 58.532 33.7631 58.3551 33.4556C58.1781 33.1482 58.485 32.9707 58.3075 32.6633C58.13 32.3558 58.0305 32.4133 57.8524 32.1053C57.6744 31.7973 57.4283 31.9394 57.2508 31.632C57.0733 31.3245 56.9942 31.3699 56.8167 31.0624C56.6392 30.755 56.7625 30.6837 56.585 30.3762C56.4075 30.0688 56.689 29.9062 56.5115 29.5988C56.334 29.2913 56.3406 29.2891 56.1637 28.9828C55.9867 28.6764 55.8479 28.756 55.671 28.4497C55.494 28.1434 55.316 28.2451 55.1385 27.9382C54.961 27.6313 54.8471 27.696 54.6696 27.3886C54.4921 27.0811 54.4971 27.0778 54.3196 26.7698C54.1421 26.4618 54.2471 26.4015 54.0696 26.0946C53.8921 25.7878 54.1852 25.6185 54.0082 25.3117C53.8313 25.0048 53.4807 25.2071 53.3038 24.9003C53.1268 24.5934 53.2761 24.5071 53.0992 24.2008C52.9222 23.8944 53.0395 23.8264 52.8625 23.5201C52.6856 23.2137 52.3853 23.3868 52.2078 23.0799C52.0303 22.773 52.486 22.5104 52.309 22.2035C52.1321 21.8966 52.074 21.9297 51.8965 21.6223C51.719 21.3149 51.3867 21.5062 51.2086 21.1987C51.0306 20.8913 51.2241 20.779 51.046 20.4705C50.868 20.1619 50.999 20.0873 50.8215 19.7793C50.644 19.4713 50.6225 19.484 50.445 19.1766C50.2675 18.8691 49.9479 19.0538 49.7704 18.7464C49.5929 18.4389 49.6907 18.3825 49.5132 18.0751C49.3357 17.7676 49.5348 17.6526 49.3573 17.3452C49.1798 17.0377 49.1499 17.0543 48.9719 16.7463C48.7938 16.4383 48.6152 16.5412 48.4372 16.2326C48.2591 15.9241 48.3819 15.8538 48.2038 15.5464C48.0258 15.2389 47.9727 15.2693 47.7952 14.9619C47.6177 14.6545 47.4264 14.7645 47.2489 14.4565C47.0714 14.1485 47.1438 14.1059 46.9658 13.7979C46.7877 13.4899 46.7407 13.517 46.5626 13.2085C46.3846 12.8999 46.754 12.687 46.5765 12.379C46.399 12.071 46.0633 12.264 45.8858 11.956C45.7083 11.648 45.8322 11.5756 45.6536 11.267C45.475 10.9585 45.3688 11.0204 45.1908 10.7124C45.0127 10.4044 45.3566 10.2076 45.1791 9.90066C45.0016 9.59376 44.8933 9.6557 44.7158 9.34825C44.5383 9.04081 44.5344 9.04136 44.3563 8.73225C44.1783 8.42315 43.8874 8.5918 43.7099 8.2838C43.5324 7.9758 43.9289 7.74633 43.7508 7.43833C43.5728 7.13033 43.1758 7.35815 42.9972 7.04904C42.8186 6.73994 42.8611 6.71616 42.6831 6.40761C42.505 6.09906 42.7522 5.95584 42.5736 5.64674C42.395 5.33763 42.1849 5.45873 42.0063 5.14907C41.8276 4.83941 41.7994 4.85656 41.6214 4.54745C41.4433 4.23835 41.8155 4.02269 41.6369 3.71304C41.4583 3.40338 41.4389 3.41333 41.2598 3.10312C41.0806 2.79291 40.9534 2.86645 40.7743 2.55569C40.6482 2.33672 40.5437 2.05084 40.3734 1.89159C40.1925 1.72238 39.8364 1.7644 39.6219 1.66211C39.4018 1.55704 39.2105 1.26176 38.9727 1.22637C38.7333 1.19098 38.4452 1.28831 38.2058 1.3237C37.968 1.35908 37.6832 1.39171 37.4631 1.49677C37.2486 1.59907 36.9809 1.73178 36.8001 1.90099C36.6298 2.06024 36.444 2.29525 36.3179 2.51366L36.3174 2.5109Z" fill="#FFDD78"/>
<path id="Vector_2" d="M36.3174 2.5109C36.1404 2.81724 36.3887 2.96046 36.2118 3.2668C36.0348 3.57314 35.7213 3.39177 35.5444 3.69866C35.3674 4.00555 35.7987 4.25438 35.6218 4.56072C35.4448 4.86706 35.4404 4.86485 35.2635 5.17119C35.0865 5.47753 34.7879 5.30556 34.611 5.61245C34.434 5.91935 34.3229 5.8552 34.1459 6.1621C33.969 6.46899 34.0901 6.53921 33.9131 6.84611C33.7362 7.153 33.6781 7.11982 33.5006 7.42727C33.3231 7.73471 33.2457 7.68992 33.0682 7.99737C32.8907 8.30481 33.2424 8.50775 33.0649 8.8152C32.8874 9.12264 32.7132 9.022 32.5357 9.32945C32.3582 9.6369 32.1746 9.53073 31.9971 9.83762C31.8196 10.1445 32.2001 10.364 32.0231 10.6715C31.8462 10.9789 31.6006 10.8368 31.4231 11.1437C31.2456 11.4506 31.1704 11.4069 30.9935 11.7138C30.8166 12.0207 30.8862 12.0611 30.7093 12.368C30.5323 12.6749 30.8691 12.8695 30.6921 13.1758C30.5152 13.4822 30.4522 13.4462 30.2752 13.7526C30.0983 14.0589 29.7444 13.8549 29.5674 14.1618C29.3905 14.4687 29.5315 14.5499 29.3545 14.8568C29.1776 15.1637 29.2019 15.1776 29.025 15.4844C28.848 15.7913 28.8994 15.8206 28.7219 16.1275C28.5444 16.4344 28.7203 16.5356 28.5428 16.8425C28.3653 17.1494 28.1524 17.0267 27.9754 17.3335C27.7985 17.6404 27.6525 17.5569 27.4756 17.8638C27.2986 18.1707 27.5657 18.3256 27.3882 18.633C27.2107 18.9404 26.9829 18.8088 26.8054 19.1163C26.6279 19.4237 26.859 19.5576 26.681 19.865C26.5029 20.1724 26.2651 20.0353 26.0876 20.3428C25.9101 20.6502 26.0224 20.7149 25.8449 21.0223C25.6674 21.3298 25.4429 21.1998 25.2654 21.5073C25.0879 21.8147 25.3677 21.9762 25.1907 22.2831C25.0138 22.59 24.8269 22.4827 24.6499 22.7896C24.473 23.0965 24.4813 23.1015 24.3043 23.4089C24.1274 23.7164 24.2347 23.7777 24.0572 24.0846C23.8797 24.3915 23.6789 24.2754 23.5014 24.5823C23.3239 24.8892 23.6778 25.0938 23.5003 25.4007C23.3228 25.7076 23.0519 25.5516 22.8749 25.8585C22.698 26.1654 22.964 26.3197 22.787 26.6271C22.6101 26.9346 22.5603 26.9064 22.3828 27.2138C22.2053 27.5213 22.1456 27.4876 21.9681 27.795C21.7906 28.1024 21.717 28.0604 21.5395 28.3679C21.362 28.6753 21.607 28.8169 21.4295 29.1243C21.252 29.4318 20.9136 29.236 20.7361 29.5435C20.5586 29.8509 20.9213 30.0599 20.7438 30.3674C20.5663 30.6748 20.5481 30.6643 20.3711 30.9712C20.1942 31.2781 19.8215 31.0635 19.644 31.3704C19.4665 31.6773 19.6849 31.804 19.5074 32.1114C19.3299 32.4188 19.0794 32.2745 18.9019 32.582C18.7244 32.8894 18.9705 33.0315 18.7924 33.339C18.6144 33.6464 18.4623 33.5591 18.2843 33.8665C18.1062 34.1739 18.3412 34.3094 18.1637 34.6174C17.9862 34.9254 17.8115 34.8242 17.634 35.1317C17.4565 35.4391 17.4554 35.4386 17.2779 35.746C17.1004 36.0535 17.2989 36.1663 17.1219 36.4726C16.945 36.7789 17.0053 36.8143 16.8283 37.1207C16.6514 37.427 16.3528 37.2556 16.1753 37.5625C15.9978 37.8694 16.162 37.965 15.9845 38.273C15.807 38.581 15.5543 38.4351 15.3768 38.743C15.1993 39.051 15.4686 39.2059 15.2911 39.5133C15.1136 39.8208 14.972 39.7384 14.7945 40.0453C14.617 40.3522 14.8006 40.4578 14.6237 40.7647C14.4467 41.0716 14.5275 41.118 14.3505 41.4249C14.1736 41.7318 14.0729 41.6732 13.8954 41.9801C13.7179 42.287 13.4497 42.1316 13.2722 42.4385C13.0947 42.7454 13.0958 42.7459 12.9189 43.0528C12.7419 43.3597 12.6756 43.3221 12.4986 43.6296C12.3217 43.937 12.4577 44.0161 12.2797 44.3241C12.1016 44.6321 12.2034 44.6912 12.0253 44.9992C11.8473 45.3072 11.7759 45.2658 11.5984 45.5732C11.4209 45.8807 11.5315 45.9448 11.354 46.2522C11.1765 46.5597 11.1538 46.5464 10.9763 46.8539C10.7988 47.1613 10.7253 47.1187 10.5484 47.4262C10.3714 47.7336 10.5987 47.8652 10.4212 48.1727C10.2437 48.4801 9.9401 48.3054 9.76205 48.6139C9.58399 48.9225 9.66694 48.97 9.48889 49.2786C9.31083 49.5871 9.55579 49.7276 9.37774 50.0356C9.19969 50.3436 9.08688 50.2778 8.90938 50.5858C8.73188 50.8938 8.77335 50.9181 8.59585 51.2256C8.41835 51.533 8.34813 51.4938 8.17008 51.8023C7.99202 52.1109 8.0064 52.1186 7.82835 52.4272C7.65029 52.7357 7.44072 52.6141 7.26267 52.9221C7.08462 53.23 7.00444 53.1842 6.82638 53.4922C6.64833 53.8002 6.81256 53.8958 6.63451 54.2044C6.45645 54.5129 6.31877 54.4333 6.14127 54.7413C5.96377 55.0493 6.13131 55.145 5.95381 55.4518C5.77631 55.7587 6.0257 55.9031 5.8482 56.2105C5.6707 56.5179 5.22943 56.2647 5.05083 56.5738C4.87222 56.8829 4.91204 56.9045 4.73398 57.2125C4.55593 57.5205 4.48294 57.4784 4.30544 57.7864C4.12794 58.0944 4.48073 58.3001 4.30267 58.6092C4.12462 58.9183 4.06379 58.883 3.88574 59.1915C3.70769 59.5001 3.64631 59.4652 3.4677 59.7743C3.2891 60.0834 3.49425 60.2023 3.31564 60.5114C3.13703 60.8205 2.97115 60.7243 2.79309 61.0334C2.61504 61.3425 2.45358 61.2502 2.27497 61.5593C2.09636 61.8684 2.42316 62.0586 2.244 62.3688C2.06484 62.679 1.68164 62.4578 1.50248 62.7681C1.37641 62.987 1.26084 63.2701 1.20831 63.4974C1.15246 63.7385 1.49419 64.0188 1.51299 64.2561C1.53179 64.4994 1.39963 64.7642 1.48811 64.9882C1.57713 65.2132 1.55667 65.5539 1.70708 65.7435C1.85638 65.9321 2.24124 65.9188 2.44196 66.0571C2.63826 66.1914 2.79752 66.4486 3.03418 66.5204C3.25758 66.5885 3.5324 66.3396 3.7851 66.3396C4.139 66.3396 4.139 66.4806 4.49234 66.4806C4.84568 66.4806 4.84623 66.3584 5.20013 66.3584C5.55402 66.3584 5.55402 66.4806 5.90792 66.4806C6.26181 66.4806 6.26181 66.7554 6.61571 66.7554C6.9696 66.7554 6.9696 66.6161 7.32405 66.6161C7.67849 66.6161 7.67849 66.6139 8.03294 66.6139C8.38739 66.6139 8.38739 66.3523 8.74184 66.3523C9.09628 66.3523 9.09628 66.777 9.45128 66.777C9.80628 66.777 9.80628 66.5807 10.1613 66.5807C10.5163 66.5807 10.5163 66.2617 10.8713 66.2617C11.2263 66.2617 11.2263 66.6233 11.5813 66.6233C11.9363 66.6233 11.9363 66.4441 12.2907 66.4441C12.6452 66.4441 12.6452 66.3125 12.9996 66.3125C13.3541 66.3125 13.3541 66.5354 13.7085 66.5354C14.063 66.5354 14.063 66.526 14.4174 66.526C14.7719 66.526 14.7719 66.6509 15.1258 66.6509C15.4797 66.6509 15.4797 66.3015 15.8341 66.3015C16.1885 66.3015 16.188 66.2854 16.5424 66.2854C16.8969 66.2854 16.8963 66.3551 17.2508 66.3551C17.6052 66.3551 17.6047 66.552 17.9591 66.552C18.3136 66.552 18.313 66.4596 18.6675 66.4596C19.0219 66.4596 19.0219 66.3286 19.3758 66.3286C19.7297 66.3286 19.7303 66.7278 20.0847 66.7278C20.4392 66.7278 20.4392 66.5044 20.7936 66.5044C21.148 66.5044 21.148 66.2865 21.503 66.2865C21.858 66.2865 21.858 66.7505 22.2125 66.7505C22.5669 66.7505 22.5675 66.6769 22.9225 66.6769C23.2775 66.6769 23.2775 66.5166 23.633 66.5166C23.9886 66.5166 23.9881 66.3142 24.3436 66.3142C24.6992 66.3142 24.6986 66.3385 25.0536 66.3385C25.4086 66.3385 25.4086 66.5066 25.7631 66.5066C26.1175 66.5066 26.1175 66.4696 26.4725 66.4696C26.8275 66.4696 26.8269 66.6609 27.1814 66.6609C27.5358 66.6609 27.5358 66.4027 27.8903 66.4027C28.2447 66.4027 28.2447 66.6742 28.5992 66.6742C28.9536 66.6742 28.9536 66.3656 29.3081 66.3656C29.6625 66.3656 29.6625 66.5536 30.0175 66.5536C30.3725 66.5536 30.372 66.6028 30.727 66.6028C31.082 66.6028 31.082 66.4264 31.437 66.4264C31.792 66.4264 31.792 66.2445 32.147 66.2445C32.502 66.2445 32.5025 66.7355 32.8575 66.7355C33.2125 66.7355 33.2131 66.6515 33.5681 66.6515C33.9231 66.6515 33.9231 66.7261 34.2781 66.7261C34.6331 66.7261 34.6331 66.2351 34.9881 66.2351C35.3431 66.2351 35.3431 66.4475 35.6975 66.4475C36.052 66.4475 36.0525 66.4873 36.407 66.4873C36.7614 66.4873 36.762 66.2583 37.1164 66.2583C37.4709 66.2583 37.4714 66.3722 37.8259 66.3722C38.1803 66.3722 38.1809 66.2981 38.5359 66.2981C38.8909 66.2981 38.8909 66.6167 39.2464 66.6167C39.602 66.6167 39.602 66.6714 39.9575 66.6714C40.3131 66.6714 40.3131 66.6543 40.6681 66.6543C41.0231 66.6543 41.0231 66.5044 41.3781 66.5044C41.7331 66.5044 41.7331 66.7549 42.0881 66.7549C42.4431 66.7549 42.4431 66.4364 42.7981 66.4364C43.1531 66.4364 43.1531 66.4187 43.5081 66.4187C43.8631 66.4187 43.8631 66.2876 44.2186 66.2876C44.5742 66.2876 44.5742 66.678 44.9298 66.678C45.2853 66.678 45.2853 66.6736 45.6409 66.6736C45.9964 66.6736 45.9959 66.2711 46.3503 66.2711C46.7048 66.2711 46.7048 66.62 47.0592 66.62C47.4136 66.62 47.4131 66.302 47.7675 66.302C48.122 66.302 48.1214 66.6692 48.4753 66.6692C48.8292 66.6692 48.8292 66.6725 49.1831 66.6725C49.537 66.6725 49.537 66.6305 49.8915 66.6305C50.2459 66.6305 50.2459 66.7002 50.5998 66.7002C50.9537 66.7002 50.9542 66.349 51.3092 66.349C51.6642 66.349 51.6642 66.4193 52.0198 66.4193C52.3754 66.4193 52.3759 66.3662 52.7315 66.3662C53.087 66.3662 53.087 66.2965 53.442 66.2965C53.797 66.2965 53.797 66.6985 54.152 66.6985C54.507 66.6985 54.507 66.7317 54.8615 66.7317C55.2159 66.7317 55.2165 66.7731 55.5709 66.7731C55.9254 66.7731 55.9259 66.6797 56.2809 66.6797C56.6359 66.6797 56.6365 66.6017 56.992 66.6017C57.3476 66.6017 57.3481 66.4945 57.7042 66.4945C58.0603 66.4945 58.0598 66.3225 58.4153 66.3225C58.7709 66.3225 58.7703 66.7809 59.1259 66.7809C59.4814 66.7809 59.4814 66.438 59.837 66.438C60.1926 66.438 60.1931 66.5182 60.5492 66.5182C60.9053 66.5182 60.9053 66.704 61.2609 66.704C61.6164 66.704 61.6164 66.4945 61.972 66.4945C62.3275 66.4945 62.3281 66.4049 62.6836 66.4049C63.0392 66.4049 63.0397 66.7267 63.3964 66.7267C63.7531 66.7267 63.7525 66.5691 64.1081 66.5691C64.4636 66.5691 64.4642 66.244 64.8208 66.244C65.1775 66.244 65.1769 66.589 65.533 66.589C65.8891 66.589 65.8891 66.3816 66.2453 66.3816C66.6014 66.3816 66.6008 66.2368 66.9564 66.2368C67.3119 66.2368 67.3119 66.4065 67.6675 66.4065C68.023 66.4065 68.0241 66.7029 68.3808 66.7029C68.7374 66.7029 68.7369 66.7333 69.093 66.7333C69.4491 66.7333 69.4497 66.7715 69.8058 66.7715C70.1619 66.7715 70.1624 66.3833 70.5196 66.3833C70.8768 66.3833 70.8763 66.4309 71.2324 66.4309C71.5885 66.4309 71.5896 66.3147 71.9468 66.3147C72.304 66.3147 72.3046 66.4469 72.6624 66.4469C73.0201 66.4469 73.0201 66.6758 73.3779 66.6758C73.6306 66.6758 73.8684 66.4712 74.0918 66.4032C74.3284 66.3313 74.5386 66.2147 74.7348 66.0803C74.9361 65.942 75.3077 65.9354 75.457 65.7468C75.6074 65.5572 75.5903 65.2177 75.6793 64.9926C75.7678 64.7692 75.7761 64.5137 75.7949 64.2704C75.8131 64.0332 75.7639 63.7993 75.7081 63.5582C75.655 63.331 75.6848 63.049 75.5588 62.8305C75.3818 62.5242 75.0865 62.6951 74.9096 62.3887C74.7326 62.0824 75.0722 61.8861 74.8952 61.5797C74.7183 61.2734 74.5209 61.3873 74.3439 61.0804C74.167 60.7735 74.1548 60.7807 73.9778 60.4744C73.8009 60.168 74.1061 59.9911 73.9292 59.6847C73.7522 59.3784 73.3397 59.6162 73.1622 59.3093C72.9847 59.0024 72.9637 59.0146 72.7862 58.7077C72.6087 58.4008 72.8913 58.2371 72.7143 57.9302C72.5374 57.6233 72.6679 57.547 72.4904 57.2396C72.3129 56.9321 71.9562 57.1378 71.7787 56.8304C71.6012 56.5229 71.8091 56.4029 71.6316 56.0955C71.4541 55.788 71.6316 55.6857 71.4541 55.3788C71.2766 55.072 70.9238 55.2754 70.7469 54.9686C70.57 54.6617 70.8697 54.4886 70.6927 54.1811C70.5158 53.8737 70.2205 54.0446 70.043 53.7377C69.8655 53.4308 69.9269 53.3959 69.7499 53.089C69.573 52.7822 69.558 52.791 69.3811 52.4841C69.2041 52.1772 69.4176 52.0545 69.2401 51.7476C69.0626 51.4407 68.9205 51.5231 68.7435 51.2167C68.5666 50.9104 68.4748 50.9629 68.2978 50.6566C68.1209 50.3502 68.0927 50.3663 67.9157 50.0594C67.7388 49.7525 67.9329 49.6402 67.7559 49.3333C67.579 49.0264 67.5834 49.0237 67.4059 48.7168C67.2284 48.4099 67.0692 48.5017 66.8922 48.1948C66.7153 47.8879 66.6572 47.9211 66.4803 47.6136C66.3033 47.3062 66.5239 47.179 66.3464 46.8716C66.1689 46.5641 66.1916 46.5508 66.0141 46.2434C65.8366 45.936 65.9035 45.8972 65.726 45.5892C65.5485 45.2812 65.256 45.4505 65.0785 45.143C64.901 44.8356 65.1836 44.6724 65.0061 44.365C64.8286 44.0575 64.7993 44.0747 64.6218 43.7678C64.4443 43.4609 64.2209 43.5897 64.0434 43.2823C63.8659 42.9748 63.9344 42.9356 63.7569 42.6287C63.5794 42.3218 63.434 42.4059 63.2565 42.099C63.079 41.7921 63.0403 41.8147 62.8628 41.5073C62.6853 41.1999 63.0038 41.0163 62.8263 40.7094C62.6488 40.4025 62.6925 40.377 62.5155 40.0702C62.3386 39.7633 62.2241 39.8291 62.0466 39.5216C61.8691 39.2142 61.9515 39.1666 61.774 38.8597C61.5965 38.5528 61.3897 38.6717 61.2122 38.3643C61.0347 38.0568 61.1917 37.9656 61.0143 37.6581C60.8368 37.3507 60.5459 37.5182 60.3684 37.2108C60.1909 36.9034 60.3772 36.7955 60.1997 36.4881C60.0222 36.1806 60.2125 36.0706 60.0355 35.7631C59.8586 35.4557 59.5008 35.662 59.3233 35.3551C59.1458 35.0482 59.5594 34.8093 59.3819 34.5018C59.2044 34.1944 59.0546 34.2812 58.8771 33.9738C58.6996 33.6663 58.532 33.7631 58.3551 33.4556C58.1781 33.1482 58.485 32.9707 58.3075 32.6633C58.13 32.3558 58.0305 32.4133 57.8524 32.1053C57.6744 31.7973 57.4283 31.9394 57.2508 31.632C57.0733 31.3245 56.9942 31.3699 56.8167 31.0624C56.6392 30.755 56.7625 30.6837 56.585 30.3762C56.4075 30.0688 56.689 29.9062 56.5115 29.5988C56.334 29.2913 56.3406 29.2891 56.1637 28.9828C55.9867 28.6764 55.8479 28.756 55.671 28.4497C55.494 28.1434 55.316 28.2451 55.1385 27.9382C54.961 27.6313 54.8471 27.696 54.6696 27.3886C54.4921 27.0811 54.4971 27.0778 54.3196 26.7698C54.1421 26.4618 54.2471 26.4015 54.0696 26.0946C53.8921 25.7878 54.1852 25.6185 54.0082 25.3117C53.8313 25.0048 53.4807 25.2071 53.3038 24.9003C53.1268 24.5934 53.2761 24.5071 53.0992 24.2008C52.9222 23.8944 53.0395 23.8264 52.8625 23.5201C52.6856 23.2137 52.3853 23.3868 52.2078 23.0799C52.0303 22.773 52.486 22.5104 52.309 22.2035C52.1321 21.8966 52.074 21.9297 51.8965 21.6223C51.719 21.3149 51.3867 21.5062 51.2086 21.1987C51.0306 20.8913 51.2241 20.779 51.046 20.4705C50.868 20.1619 50.999 20.0873 50.8215 19.7793C50.644 19.4713 50.6225 19.484 50.445 19.1766C50.2675 18.8691 49.9479 19.0538 49.7704 18.7464C49.5929 18.4389 49.6907 18.3825 49.5132 18.0751C49.3357 17.7676 49.5348 17.6526 49.3573 17.3452C49.1798 17.0377 49.1499 17.0543 48.9719 16.7463C48.7938 16.4383 48.6152 16.5412 48.4372 16.2326C48.2591 15.9241 48.3819 15.8538 48.2038 15.5464C48.0258 15.2389 47.9727 15.2693 47.7952 14.9619C47.6177 14.6545 47.4264 14.7645 47.2489 14.4565C47.0714 14.1485 47.1438 14.1059 46.9658 13.7979C46.7877 13.4899 46.7407 13.517 46.5626 13.2085C46.3846 12.8999 46.754 12.687 46.5765 12.379C46.399 12.071 46.0633 12.264 45.8858 11.956C45.7083 11.648 45.8322 11.5756 45.6536 11.267C45.475 10.9585 45.3688 11.0204 45.1908 10.7124C45.0127 10.4044 45.3566 10.2076 45.1791 9.90066C45.0016 9.59376 44.8933 9.6557 44.7158 9.34825C44.5383 9.04081 44.5344 9.04136 44.3563 8.73225C44.1783 8.42315 43.8874 8.5918 43.7099 8.2838C43.5324 7.9758 43.9289 7.74633 43.7508 7.43833C43.5728 7.13033 43.1758 7.35815 42.9972 7.04904C42.8186 6.73994 42.8611 6.71616 42.6831 6.40761C42.505 6.09906 42.7522 5.95584 42.5736 5.64674C42.395 5.33763 42.1849 5.45873 42.0063 5.14907C41.8276 4.83941 41.7994 4.85656 41.6214 4.54745C41.4433 4.23835 41.8155 4.02269 41.6369 3.71304C41.4583 3.40338 41.4389 3.41333 41.2598 3.10312C41.0806 2.79291 40.9534 2.86645 40.7743 2.55569C40.6482 2.33672 40.5437 2.05084 40.3734 1.89159C40.1925 1.72238 39.8364 1.7644 39.6219 1.66211C39.4018 1.55704 39.2105 1.26176 38.9727 1.22637C38.7333 1.19098 38.4452 1.28831 38.2058 1.3237C37.968 1.35908 37.6832 1.39171 37.4631 1.49677C37.2486 1.59907 36.9809 1.73178 36.8001 1.90099C36.6298 2.06024 36.444 2.29525 36.3179 2.51366L36.3174 2.5109Z" fill="#FFDD78" stroke="#363737" stroke-width="1.88836" stroke-linecap="round" stroke-linejoin="round"/>
</g>
<g id="Group_3">
<g id="Group_4">
<path id="Vector_3" d="M31.3467 34.6379C31.5994 34.8906 31.428 35.0615 31.6801 35.3142C31.9323 35.5669 31.9511 35.5476 32.2032 35.7997C32.4554 36.0519 32.4587 36.048 32.7108 36.3001C32.963 36.5523 32.9879 36.5274 33.24 36.7796C33.4922 37.0317 33.438 37.0859 33.6907 37.338C33.9434 37.5902 33.8864 37.6477 34.1391 37.8998C34.3918 38.152 34.5948 37.9502 34.8475 38.2029C35.1002 38.4556 34.8436 38.7116 35.0963 38.9643C35.349 39.217 35.7007 38.8642 35.9534 39.1169C36.2061 39.3696 36.2022 39.3729 36.4549 39.6256C36.7076 39.8783 36.4643 40.1222 36.717 40.3749C36.9697 40.6276 36.8796 40.7183 37.1323 40.971C37.385 41.2237 37.484 41.1242 37.7367 41.3769C37.9894 41.6296 37.9424 41.6771 38.1951 41.9298C38.4478 42.1825 38.3848 42.2461 38.638 42.4988C38.8913 42.7515 39.1771 42.464 39.4293 42.7161C39.6814 42.9683 39.5388 43.1098 39.7909 43.362C40.0431 43.6141 39.8932 43.764 40.1454 44.0161C40.3975 44.2683 40.7094 43.9592 40.9627 44.2124C41.2159 44.4657 41.0152 44.6653 41.2679 44.918C41.5206 45.1707 41.4592 45.2327 41.7119 45.4854C41.9646 45.7381 42.0227 45.6817 42.2765 45.9355C42.5303 46.1893 42.8051 45.9133 43.0584 46.1666C43.3116 46.4199 43.2602 46.4713 43.5129 46.724C43.7656 46.9767 43.477 47.2653 43.7291 47.518C43.9829 47.7718 44.0985 47.6568 44.3523 47.9106C44.6061 48.1644 44.6266 48.1451 44.8809 48.3995C45.1353 48.6538 45.1779 48.6123 45.4328 48.8678C45.6877 49.1233 45.8309 48.9795 46.0858 49.235" fill="#FFDD78"/>
<g id="Vector_4">
<path d="M31.3467 34.6379C31.5994 34.8906 31.428 35.0615 31.6801 35.3142C31.9323 35.5669 31.9511 35.5476 32.2032 35.7997C32.4554 36.0519 32.4587 36.048 32.7108 36.3001C32.963 36.5523 32.9879 36.5274 33.24 36.7796C33.4922 37.0317 33.438 37.0859 33.6907 37.338C33.9434 37.5902 33.8864 37.6477 34.1391 37.8998C34.3918 38.152 34.5948 37.9502 34.8475 38.2029C35.1002 38.4556 34.8436 38.7116 35.0963 38.9643C35.349 39.217 35.7007 38.8642 35.9534 39.1169C36.2061 39.3696 36.2022 39.3729 36.4549 39.6256C36.7076 39.8783 36.4643 40.1222 36.717 40.3749C36.9697 40.6276 36.8796 40.7183 37.1323 40.971C37.385 41.2237 37.484 41.1242 37.7367 41.3769C37.9894 41.6296 37.9424 41.6771 38.1951 41.9298C38.4478 42.1825 38.3848 42.2461 38.638 42.4988C38.8913 42.7515 39.1771 42.464 39.4293 42.7161C39.6814 42.9683 39.5388 43.1098 39.7909 43.362C40.0431 43.6141 39.8932 43.764 40.1454 44.0161C40.3975 44.2683 40.7094 43.9592 40.9627 44.2124C41.2159 44.4657 41.0152 44.6653 41.2679 44.918C41.5206 45.1707 41.4592 45.2327 41.7119 45.4854C41.9646 45.7381 42.0227 45.6817 42.2765 45.9355C42.5303 46.1893 42.8051 45.9133 43.0584 46.1666C43.3116 46.4199 43.2602 46.4713 43.5129 46.724C43.7656 46.9767 43.477 47.2653 43.7291 47.518C43.9829 47.7718 44.0985 47.6568 44.3523 47.9106C44.6061 48.1644 44.6266 48.1451 44.8809 48.3995C45.1353 48.6538 45.1779 48.6123 45.4328 48.8678C45.6877 49.1233 45.8309 48.9795 46.0858 49.235" fill="#FFDD78"/>
<path d="M31.3467 34.6379C31.5994 34.8906 31.428 35.0615 31.6801 35.3142C31.9323 35.5669 31.9511 35.5476 32.2032 35.7997C32.4554 36.0519 32.4587 36.048 32.7108 36.3001C32.963 36.5523 32.9879 36.5274 33.24 36.7796C33.4922 37.0317 33.438 37.0859 33.6907 37.338C33.9434 37.5902 33.8864 37.6477 34.1391 37.8998C34.3918 38.152 34.5948 37.9502 34.8475 38.2029C35.1002 38.4556 34.8436 38.7116 35.0963 38.9643C35.349 39.217 35.7007 38.8642 35.9534 39.1169C36.2061 39.3696 36.2022 39.3729 36.4549 39.6256C36.7076 39.8783 36.4643 40.1222 36.717 40.3749C36.9697 40.6276 36.8796 40.7183 37.1323 40.971C37.385 41.2237 37.484 41.1242 37.7367 41.3769C37.9894 41.6296 37.9424 41.6771 38.1951 41.9298C38.4478 42.1825 38.3848 42.2461 38.638 42.4988C38.8913 42.7515 39.1771 42.464 39.4293 42.7161C39.6814 42.9683 39.5388 43.1098 39.7909 43.362C40.0431 43.6141 39.8932 43.764 40.1454 44.0161C40.3975 44.2683 40.7094 43.9592 40.9627 44.2124C41.2159 44.4657 41.0152 44.6653 41.2679 44.918C41.5206 45.1707 41.4592 45.2327 41.7119 45.4854C41.9646 45.7381 42.0227 45.6817 42.2765 45.9355C42.5303 46.1893 42.8051 45.9133 43.0584 46.1666C43.3116 46.4199 43.2602 46.4713 43.5129 46.724C43.7656 46.9767 43.477 47.2653 43.7291 47.518C43.9829 47.7718 44.0985 47.6568 44.3523 47.9106C44.6061 48.1644 44.6266 48.1451 44.8809 48.3995C45.1353 48.6538 45.1779 48.6123 45.4328 48.8678C45.6877 49.1233 45.8309 48.9795 46.0858 49.235" stroke="#363737" stroke-width="3.1469" stroke-linecap="round" stroke-linejoin="round"/>
</g>
</g>
<g id="Group_5">
<path id="Vector_5" d="M45.8164 34.6375C45.5637 34.8902 45.6782 35.0041 45.426 35.2568C45.1739 35.5095 44.9687 35.3038 44.7166 35.5559C44.4644 35.8081 44.7951 36.1382 44.5429 36.3903C44.2908 36.6425 44.1509 36.5026 43.8988 36.7542C43.6466 37.0058 43.823 37.1827 43.5708 37.4354C43.3187 37.6881 43.2424 37.6124 42.9897 37.8651C42.737 38.1178 42.5656 37.9469 42.3123 38.1996C42.0591 38.4523 42.0784 38.4706 41.8257 38.7233C41.573 38.976 41.5769 38.9793 41.3247 39.2314C41.0726 39.4836 41.0969 39.509 40.8448 39.7612C40.5926 40.0133 40.5379 39.9602 40.2846 40.2129C40.0313 40.4657 39.9749 40.4092 39.7222 40.662C39.4695 40.9147 39.6725 41.117 39.4198 41.3697C39.1671 41.6224 38.9105 41.3664 38.6578 41.6191C38.4051 41.8718 38.7573 42.2246 38.5041 42.4773C38.2508 42.73 38.2486 42.7262 37.9965 42.9777C37.7443 43.2293 37.501 42.986 37.2494 43.2376C36.9978 43.4892 36.9066 43.3991 36.6544 43.6513C36.4023 43.9034 36.5001 44.004 36.2469 44.2573C35.9936 44.5106 35.9466 44.463 35.6939 44.7157C35.4412 44.9684 35.3782 44.9054 35.1249 45.1581C34.8717 45.4108 35.1581 45.6989 34.9049 45.9521C34.6516 46.2054 34.5095 46.0633 34.2562 46.3165C34.003 46.5698 33.8531 46.4194 33.6004 46.6726C33.3477 46.9259 33.6585 47.2355 33.4058 47.4882C33.152 47.7421 32.9518 47.5419 32.6974 47.7957C32.4431 48.0495 32.3811 47.9881 32.1273 48.2425C31.8735 48.4968 31.9294 48.5543 31.6745 48.8098C31.4195 49.0653 31.6949 49.3401 31.4395 49.595" fill="#FFDD78"/>
<g id="Vector_6">
<path d="M45.8164 34.6375C45.5637 34.8902 45.6782 35.0041 45.426 35.2568C45.1739 35.5095 44.9687 35.3038 44.7166 35.5559C44.4644 35.8081 44.7951 36.1382 44.5429 36.3903C44.2908 36.6425 44.1509 36.5026 43.8988 36.7542C43.6466 37.0058 43.823 37.1827 43.5708 37.4354C43.3187 37.6881 43.2424 37.6124 42.9897 37.8651C42.737 38.1178 42.5656 37.9469 42.3123 38.1996C42.0591 38.4523 42.0784 38.4706 41.8257 38.7233C41.573 38.976 41.5769 38.9793 41.3247 39.2314C41.0726 39.4836 41.0969 39.509 40.8448 39.7612C40.5926 40.0133 40.5379 39.9602 40.2846 40.2129C40.0313 40.4657 39.9749 40.4092 39.7222 40.662C39.4695 40.9147 39.6725 41.117 39.4198 41.3697C39.1671 41.6224 38.9105 41.3664 38.6578 41.6191C38.4051 41.8718 38.7573 42.2246 38.5041 42.4773C38.2508 42.73 38.2486 42.7262 37.9965 42.9777C37.7443 43.2293 37.501 42.986 37.2494 43.2376C36.9978 43.4892 36.9066 43.3991 36.6544 43.6513C36.4023 43.9034 36.5001 44.004 36.2469 44.2573C35.9936 44.5106 35.9466 44.463 35.6939 44.7157C35.4412 44.9684 35.3782 44.9054 35.1249 45.1581C34.8717 45.4108 35.1581 45.6989 34.9049 45.9521C34.6516 46.2054 34.5095 46.0633 34.2562 46.3165C34.003 46.5698 33.8531 46.4194 33.6004 46.6726C33.3477 46.9259 33.6585 47.2355 33.4058 47.4882C33.152 47.7421 32.9518 47.5419 32.6974 47.7957C32.4431 48.0495 32.3811 47.9881 32.1273 48.2425C31.8735 48.4968 31.9294 48.5543 31.6745 48.8098C31.4195 49.0653 31.6949 49.3401 31.4395 49.595" fill="#FFDD78"/>
<path d="M45.8164 34.6375C45.5637 34.8902 45.6782 35.0041 45.426 35.2568C45.1739 35.5095 44.9687 35.3038 44.7166 35.5559C44.4644 35.8081 44.7951 36.1382 44.5429 36.3903C44.2908 36.6425 44.1509 36.5026 43.8988 36.7542C43.6466 37.0058 43.823 37.1827 43.5708 37.4354C43.3187 37.6881 43.2424 37.6124 42.9897 37.8651C42.737 38.1178 42.5656 37.9469 42.3123 38.1996C42.0591 38.4523 42.0784 38.4706 41.8257 38.7233C41.573 38.976 41.5769 38.9793 41.3247 39.2314C41.0726 39.4836 41.0969 39.509 40.8448 39.7612C40.5926 40.0133 40.5379 39.9602 40.2846 40.2129C40.0313 40.4657 39.9749 40.4092 39.7222 40.662C39.4695 40.9147 39.6725 41.117 39.4198 41.3697C39.1671 41.6224 38.9105 41.3664 38.6578 41.6191C38.4051 41.8718 38.7573 42.2246 38.5041 42.4773C38.2508 42.73 38.2486 42.7262 37.9965 42.9777C37.7443 43.2293 37.501 42.986 37.2494 43.2376C36.9978 43.4892 36.9066 43.3991 36.6544 43.6513C36.4023 43.9034 36.5001 44.004 36.2469 44.2573C35.9936 44.5106 35.9466 44.463 35.6939 44.7157C35.4412 44.9684 35.3782 44.9054 35.1249 45.1581C34.8717 45.4108 35.1581 45.6989 34.9049 45.9521C34.6516 46.2054 34.5095 46.0633 34.2562 46.3165C34.003 46.5698 33.8531 46.4194 33.6004 46.6726C33.3477 46.9259 33.6585 47.2355 33.4058 47.4882C33.152 47.7421 32.9518 47.5419 32.6974 47.7957C32.4431 48.0495 32.3811 47.9881 32.1273 48.2425C31.8735 48.4968 31.9294 48.5543 31.6745 48.8098C31.4195 49.0653 31.6949 49.3401 31.4395 49.595" stroke="#363737" stroke-width="3.1469" stroke-linecap="round" stroke-linejoin="round"/>
</g>
</g>
</g>
</g>
</svg>
