<svg width="19" height="21" viewBox="0 0 19 21" fill="none" xmlns="http://www.w3.org/2000/svg">
<path fill-rule="evenodd" clip-rule="evenodd" d="M9.12273 6.56499C9.3521 6.71653 9.64828 6.71653 9.87697 6.56499C10.6054 6.08421 12.1913 4.93495 12.8746 3.64895C13.7752 1.95244 12.7176 0.260742 11.3197 0.260742C10.5224 0.260742 10.043 0.677122 9.77778 1.03495C9.66619 1.18821 9.45163 1.22231 9.29803 1.11072C9.26875 1.08971 9.24327 1.06388 9.22226 1.03495C8.95707 0.676778 8.47767 0.260742 7.68072 0.260742C6.28246 0.260742 5.2248 1.95244 6.12576 3.64895C6.80836 4.93495 8.39467 6.08421 9.12273 6.56499Z" fill="url(#paint0_linear_399_10504)"/>
<path d="M17.8874 6.85997C17.5698 6.61567 15.542 6.68896 15.542 6.68896C11.5598 6.73782 9.80081 9.4985 9.50764 10.036C9.21447 9.4985 7.45546 6.73782 3.47324 6.68896C3.47324 6.68896 1.46992 6.61567 1.12789 6.85997C0.810289 7.10428 0.614845 7.39745 0.663706 7.98379C0.712568 8.57013 1.17675 14.8 8.48155 14.5801V17.6828V18.0737V19.735C8.48155 20.2969 8.94573 20.7611 9.50764 20.7611C10.0696 20.7611 10.5337 20.2969 10.5337 19.735V18.0737V17.6828V14.5801C17.8141 14.8 18.3027 8.57013 18.3272 7.98379C18.4004 7.37302 18.2294 7.07985 17.8874 6.85997Z" fill="#34C184"/>
<defs>
<linearGradient id="paint0_linear_399_10504" x1="9.50009" y1="0.260742" x2="9.50009" y2="5.93536" gradientUnits="userSpaceOnUse">
<stop stop-color="#B9DAA1"/>
<stop offset="1" stop-color="#8DD35A"/>
</linearGradient>
</defs>
</svg>
