<svg width="24" height="25" viewBox="0 0 24 25" fill="none" xmlns="http://www.w3.org/2000/svg">
<g id="_&#235;&#160;&#136;&#236;&#157;&#180;&#236;&#150;&#180;_1" clip-path="url(#clip0_799_5476)">
<path id="Vector" d="M18.404 0.5C21.4928 0.5 23.9999 3.00711 23.9999 6.09591C23.9999 9.18384 21.4928 11.6918 18.404 11.6918H12.8081V6.09591C12.809 3.00711 15.3161 0.5 18.404 0.5Z" fill="url(#paint0_linear_799_5476)"/>
<path id="Vector_2" d="M11.1909 11.6909H5.595C2.50708 11.6909 -2.28882e-05 9.18381 -2.28882e-05 6.095C-2.28882e-05 3.00708 2.50708 0.499088 5.59589 0.499088C8.68381 0.499976 11.1909 3.00708 11.1909 6.095V11.6909Z" fill="#80AA63"/>
<path id="Vector_3" d="M12.8091 12.9086H18.405C21.4929 12.9086 24.0009 15.4157 24.0009 18.5045C24.0009 21.5924 21.4938 24.1004 18.405 24.1004C15.3171 24.1004 12.8091 21.5933 12.8091 18.5045V12.9086Z" fill="#80AA63"/>
<path id="Vector_4" d="M5.595 24.0995C2.50708 24.0995 -0.000911713 21.5924 -0.000911713 18.5036C-0.000911713 15.4157 2.50619 12.9077 5.595 12.9077H11.1909L11.1909 18.5036C11.1909 21.5924 8.68381 24.0995 5.595 24.0995Z" fill="#80AA63"/>
</g>
<defs>
<linearGradient id="paint0_linear_799_5476" x1="22.7667" y1="1.98045" x2="12.8081" y2="11.6918" gradientUnits="userSpaceOnUse">
<stop stop-color="#B9DAA1"/>
<stop offset="1" stop-color="#80AA63"/>
</linearGradient>
<clipPath id="clip0_799_5476">
<rect width="24" height="23.5995" fill="white" transform="translate(0 0.5)"/>
</clipPath>
</defs>
</svg>
