<svg width="25" height="25" viewBox="0 0 25 25" fill="none" xmlns="http://www.w3.org/2000/svg">
<g id="002.          &#236;&#149;&#132;&#236;&#157;&#180;&#236;&#189;&#152; Icons/2. &#235;&#170;&#168;&#235;&#133;&#184; &#236;&#149;&#132;&#236;&#157;&#180;&#236;&#189;&#152;/005 - &#234;&#186;&#189;&#236;&#135;&#160; &#236;&#153;&#188;&#236;&#170;&#189;">
<path id="Vector" fill-rule="evenodd" clip-rule="evenodd" d="M16.8768 21.2C16.5698 21.2 16.2628 21.084 16.0278 20.849L8.52779 13.349C8.30301 13.1238 8.17676 12.8186 8.17676 12.5005C8.17676 12.1823 8.30301 11.8772 8.52779 11.652L16.0278 4.15198C16.2528 3.92682 16.5581 3.80026 16.8764 3.80017C17.1948 3.80008 17.5001 3.92645 17.7253 4.15148C17.9505 4.37652 18.077 4.68179 18.0771 5.00013C18.0772 5.31847 17.9508 5.62382 17.7258 5.84898L11.0738 12.5L17.7258 19.15C17.8937 19.3179 18.008 19.5319 18.0543 19.7648C18.1006 19.9977 18.0768 20.2391 17.9859 20.4585C17.8951 20.6779 17.7412 20.8655 17.5438 20.9974C17.3464 21.1294 17.1143 21.1999 16.8768 21.2Z" fill="#B0B8C1"/>
</g>
</svg>
