<svg width="20" height="21" viewBox="0 0 20 21" fill="none" xmlns="http://www.w3.org/2000/svg">
<g id="&#240;&#159;&#145;&#137;icon-share-mono">
<path id="Fill 10" fill-rule="evenodd" clip-rule="evenodd" d="M5.53302 7.71081L8.88702 4.35581V13.5368C8.88702 14.1448 9.38102 14.6368 9.98802 14.6368C10.595 14.6368 11.088 14.1448 11.088 13.5368V4.35581L14.443 7.71081C14.658 7.92581 14.939 8.03281 15.221 8.03281C15.502 8.03281 15.783 7.92581 15.998 7.71081C16.428 7.28081 16.428 6.58481 15.998 6.15481L10.765 0.921813C10.664 0.820812 10.543 0.740813 10.408 0.684813C10.139 0.573812 9.83602 0.573812 9.56702 0.684813C9.43302 0.740813 9.31102 0.820812 9.21002 0.921813L3.97702 6.15481C3.54802 6.58481 3.54802 7.28081 3.97702 7.71081C4.40702 8.14081 5.10302 8.14081 5.53302 7.71081Z" fill="#B0B8C1"/>
<path id="Fill 11" fill-rule="evenodd" clip-rule="evenodd" d="M18.3806 11.5922C17.7736 11.5922 17.2796 12.0852 17.2796 12.6922V16.9002C17.2796 17.6172 16.6966 18.2002 15.9806 18.2002H3.99561C3.27861 18.2002 2.69561 17.6172 2.69561 16.9002V12.6922C2.69561 12.0852 2.20261 11.5922 1.59561 11.5922C0.987606 11.5922 0.495605 12.0852 0.495605 12.6922V16.9002C0.495605 18.8302 2.06561 20.4002 3.99561 20.4002H15.9806C17.9096 20.4002 19.4806 18.8302 19.4806 16.9002V12.6922C19.4806 12.0852 18.9876 11.5922 18.3806 11.5922Z" fill="#B0B8C1"/>
</g>
</svg>
