<svg width="19" height="19" viewBox="0 0 19 19" fill="none" xmlns="http://www.w3.org/2000/svg">
<path fill-rule="evenodd" clip-rule="evenodd" d="M9.11813 18.4299C8.75124 18.0305 8.31569 17.7137 7.83636 17.4976C7.35704 17.2816 6.84332 17.1704 6.32454 17.1705H1.30389C1.09664 17.1705 0.89788 17.0809 0.751335 16.9213C0.604789 16.7617 0.522461 16.5453 0.522461 16.3196V4.2603C0.522461 4.03462 0.604789 3.81819 0.751335 3.65861C0.89788 3.49903 1.09664 3.40938 1.30389 3.40938H6.32454C7.37243 3.40938 8.37734 3.86292 9.11813 4.6696" fill="#34C184"/>
<path fill-rule="evenodd" clip-rule="evenodd" d="M9.8826 18.4299C10.2495 18.0305 10.685 17.7137 11.1644 17.4976C11.6437 17.2816 12.1574 17.1704 12.6762 17.1705H17.6968C17.9041 17.1705 18.1029 17.0809 18.2494 16.9213C18.3959 16.7617 18.4783 16.5453 18.4783 16.3196V4.2603C18.4783 4.03462 18.3959 3.81819 18.2494 3.65861C18.1029 3.49903 17.9041 3.40938 17.6968 3.40938H12.6762C11.6283 3.40938 10.6234 3.86292 9.8826 4.6696" fill="#34C184"/>
<circle cx="9.50051" cy="6.51994" r="5.928" fill="url(#paint0_linear_399_10514)"/>
<rect x="8.47949" y="3.1163" width="2.04209" height="6.80727" fill="white"/>
<rect x="6.09692" y="7.54099" width="2.04209" height="6.80727" transform="rotate(-90 6.09692 7.54099)" fill="white"/>
<defs>
<linearGradient id="paint0_linear_399_10514" x1="9.50051" y1="0.591942" x2="9.50051" y2="11.6631" gradientUnits="userSpaceOnUse">
<stop stop-color="#B9DAA1"/>
<stop offset="1" stop-color="#8DD35A"/>
</linearGradient>
</defs>
</svg>
