<svg width="17" height="21" viewBox="0 0 17 21" fill="none" xmlns="http://www.w3.org/2000/svg">
<g id="Group 3466623">
<path id="Fill 281" fill-rule="evenodd" clip-rule="evenodd" d="M10.1389 20.2877C13.95 19.4376 16.6235 15.8494 16.4728 11.946C16.356 8.87899 14.4742 6.13634 8.87825 0.755587C8.52312 0.415831 7.95737 0.414294 7.60378 0.75405C1.81408 6.31929 0 9.06194 0 12.2596C0 17.4313 4.7612 21.4884 10.1389 20.2877Z" fill="#34C184"/>
<g id="Group 3466622">
<path id="Stroke 4" d="M10.5763 8.16211L5.90039 12.8376" stroke="white" stroke-width="1.15207" stroke-linecap="round" stroke-linejoin="round"/>
<path id="Stroke 6" fill-rule="evenodd" clip-rule="evenodd" d="M7.33853 8.58689C7.33853 9.14588 6.88553 9.59883 6.32649 9.59883C5.76745 9.59883 5.31445 9.14588 5.31445 8.58689C5.31445 8.0279 5.76745 7.57495 6.32649 7.57495C6.88553 7.57495 7.33853 8.0279 7.33853 8.58689Z" stroke="white" stroke-width="1.15207" stroke-linejoin="round"/>
<path id="Stroke 8" fill-rule="evenodd" clip-rule="evenodd" d="M10.1527 11.4011C9.59362 11.4011 9.14062 11.8541 9.14062 12.4131C9.14062 12.9721 9.59362 13.425 10.1527 13.425C10.7117 13.425 11.1647 12.9721 11.1647 12.4131C11.1647 11.8541 10.7117 11.4011 10.1527 11.4011Z" stroke="white" stroke-width="1.15207" stroke-linejoin="round"/>
</g>
</g>
</svg>
