<svg width="21" height="20" viewBox="0 0 21 20" fill="none" xmlns="http://www.w3.org/2000/svg">
<path id="Vector" d="M16.7556 5.90627C16.9603 6.35647 17.5997 6.35647 17.8044 5.90627L18.3906 4.61652C18.4482 4.48974 18.5499 4.38813 18.6766 4.3305L19.9664 3.74425C20.4166 3.53962 20.4166 2.90015 19.9664 2.69551L18.6766 2.10926C18.5499 2.05164 18.4482 1.95003 18.3906 1.82324L17.8044 0.533499C17.5997 0.0832994 16.9603 0.0832998 16.7556 0.533499L16.1694 1.82324C16.1118 1.95003 16.0101 2.05164 15.8834 2.10926L14.5936 2.69551C14.1434 2.90015 14.1434 3.53962 14.5936 3.74425L15.8834 4.3305C16.0101 4.38813 16.1118 4.48974 16.1694 4.61652L16.7556 5.90627ZM10.2766 7.62926C10.1499 7.57164 10.0482 7.47003 9.99062 7.34324L8.20437 3.4135C7.99973 2.9633 7.36027 2.9633 7.15563 3.4135L5.36938 7.34324C5.31175 7.47003 5.21014 7.57164 5.08336 7.62926L1.15362 9.41551C0.703416 9.62015 0.703417 10.2596 1.15362 10.4643L5.08336 12.2505C5.21014 12.3081 5.31175 12.4097 5.36938 12.5365L7.15563 16.4663C7.36027 16.9165 7.99974 16.9165 8.20437 16.4663L9.99062 12.5365C10.0482 12.4097 10.1499 12.3081 10.2766 12.2505L14.2064 10.4643C14.6566 10.2596 14.6566 9.62015 14.2064 9.41551L10.2766 7.62926ZM17.8044 13.9735C17.5997 13.5233 16.9603 13.5233 16.7556 13.9735L16.1694 15.2632C16.1118 15.39 16.0101 15.4916 15.8834 15.5493L14.5936 16.1355C14.1434 16.3401 14.1434 16.9796 14.5936 17.1843L15.8834 17.7705C16.0101 17.8281 16.1118 17.9297 16.1694 18.0565L16.7556 19.3463C16.9603 19.7965 17.5997 19.7965 17.8044 19.3463L18.3906 18.0565C18.4482 17.9297 18.5499 17.8281 18.6766 17.7705L19.9664 17.1843C20.4166 16.9796 20.4166 16.3401 19.9664 16.1355L18.6766 15.5493C18.5499 15.4916 18.4482 15.39 18.3906 15.2632L17.8044 13.9735Z" fill="#34C184"/>
</svg>
