<svg width="21" height="21" viewBox="0 0 21 21" fill="none" xmlns="http://www.w3.org/2000/svg">
<g id="map-pin">
<g id="Group 3466502">
<path id="Vector" d="M17.5229 8.83337C17.5229 14.6667 10.0229 19.6667 10.0229 19.6667C10.0229 19.6667 2.52295 14.6667 2.52295 8.83337C2.52295 6.84425 3.31313 4.9366 4.71965 3.53007C6.12617 2.12355 8.03383 1.33337 10.0229 1.33337C12.0121 1.33337 13.9197 2.12355 15.3262 3.53007C16.7328 4.9366 17.5229 6.84425 17.5229 8.83337Z" fill="#34C184"/>
<path id="Vector_2" d="M10.0225 11.3342C11.4032 11.3342 12.5225 10.2149 12.5225 8.83423C12.5225 7.45352 11.4032 6.33423 10.0225 6.33423C8.64175 6.33423 7.52246 7.45352 7.52246 8.83423C7.52246 10.2149 8.64175 11.3342 10.0225 11.3342Z" fill="#F9FAFB"/>
</g>
</g>
</svg>
