<svg width="86" height="20" viewBox="0 0 86 20" fill="none" xmlns="http://www.w3.org/2000/svg">
<g id="Group 3466589">
<path id="Vector" d="M6.56826 3.78874C5.88131 3.72005 5.22053 3.79202 4.60554 3.96866V7.18096H6.40143C7.63141 7.18096 8.59969 8.28335 8.38052 9.49369C8.38052 9.50678 8.37397 9.51986 8.37397 9.53295C8.19079 10.4489 7.45149 11.1882 6.53228 11.3681C5.01771 11.6625 3.69287 10.511 3.69287 9.04881C3.69287 9.0161 3.69614 8.98666 3.69614 8.95722C3.69614 8.95068 3.69287 8.94086 3.69287 8.93432V1.11292H0.765137V9.4021L0.781493 9.39229C0.958138 12.1532 3.24799 14.3383 6.05141 14.3383C8.99878 14.3383 11.3835 11.9275 11.3377 8.9703C11.2984 6.31083 9.2114 4.05371 6.56499 3.78874H6.56826Z" fill="#363737"/>
<path id="Vector_2" d="M15.335 3.67078H12.4292V14.1804H15.335V3.67078Z" fill="#363737"/>
<g id="Group 3466588">
<path id="Vector_3" d="M61.8848 3.67096H58.979V14.1806H61.8848V3.67096Z" fill="#363737"/>
<path id="Vector_4" d="M59.5729 2.93054H59.0332V2.39092C59.0332 1.07132 60.1046 -1.69277e-05 61.4242 -1.69277e-05H61.9639V0.539604C61.9639 1.85921 60.8925 2.93054 59.5729 2.93054Z" fill="#34C184"/>
</g>
<path id="Vector_5" d="M21.6869 3.65686C18.7798 3.65686 16.425 6.01159 16.425 8.91867C16.425 11.8257 18.7798 14.1805 21.6869 14.1805C24.594 14.1805 26.9487 11.8257 26.9487 8.91867C26.9487 6.01159 24.5908 3.65686 21.6869 3.65686ZM21.6869 11.3186C20.3626 11.3186 19.2869 10.243 19.2869 8.91867C19.2869 7.59433 20.3626 6.51871 21.6869 6.51871C23.0112 6.51871 24.0869 7.59433 24.0869 8.91867C24.0869 10.243 23.0112 11.3186 21.6869 11.3186Z" fill="#363737"/>
<path id="Vector_6" d="M33.3012 3.65686C30.3941 3.65686 28.0393 6.01159 28.0393 8.91867C28.0393 11.8257 30.3941 14.1805 33.3012 14.1805C36.2083 14.1805 38.563 11.8257 38.563 8.91867C38.563 6.01159 36.205 3.65686 33.3012 3.65686ZM33.3012 11.3186C31.9768 11.3186 30.9012 10.243 30.9012 8.91867C30.9012 7.59433 31.9768 6.51871 33.3012 6.51871C34.6255 6.51871 35.7011 7.59433 35.7011 8.91867C35.7011 10.243 34.6255 11.3186 33.3012 11.3186Z" fill="#363737"/>
<path id="Union" fill-rule="evenodd" clip-rule="evenodd" d="M85.2702 3.67078H82.5968V4.36993C81.8202 3.92506 80.9206 3.6708 79.9619 3.6708C77.0288 3.6708 74.6531 6.04915 74.6531 8.97948C74.6531 8.99917 74.6532 9.01883 74.6534 9.03847C74.6532 9.05803 74.6531 9.0776 74.6531 9.09721C74.6531 11.7816 76.6938 13.9873 79.3092 14.2484C79.5231 14.2746 79.7409 14.2882 79.9619 14.2882C80.9225 14.2882 81.8208 14.0311 82.5974 13.5874V14.4505C82.5974 15.4083 82.0535 16.3066 81.1714 16.68C80.4408 16.9885 79.4857 16.9966 78.379 16.0496L76.5499 18.5037C76.5499 18.5037 79.2665 20.9145 82.527 19.6158C84.2046 18.9448 85.2707 17.278 85.2707 15.4733V8.97948C85.2707 8.95316 85.2706 8.92689 85.2702 8.90066V3.67078ZM77.4688 9.09721C77.4688 10.4002 78.5271 11.4585 79.8301 11.4585C81.1331 11.4585 82.1914 10.4002 82.1914 9.09721C82.1914 7.79421 81.1331 6.73593 79.8301 6.73593C78.5271 6.73593 77.4688 7.79421 77.4688 9.09721Z" fill="#363737"/>
<path id="Subtract" fill-rule="evenodd" clip-rule="evenodd" d="M68.3095 3.67078C65.4073 3.67078 63.0547 6.02342 63.0547 8.92555V14.1803H73.5642V8.92555C73.5642 6.02342 71.2116 3.67078 68.3095 3.67078ZM68.3102 6.31358C67.0129 6.31358 65.9613 7.36524 65.9613 8.66253V14.1802H70.6592V8.66253C70.6592 7.36524 69.6075 6.31358 68.3102 6.31358Z" fill="#363737"/>
<g id="Group 3466585">
<path id="Subtract_2" fill-rule="evenodd" clip-rule="evenodd" d="M44.9076 3.67114C42.0055 3.67114 39.6528 6.02378 39.6528 8.92592V14.1806H42.5596V8.66294C42.5596 7.36565 43.6112 6.31399 44.9085 6.31399C46.2058 6.31399 47.2575 7.36565 47.2575 8.66294V14.1806H50.1624V8.92592C50.1624 6.02379 47.8097 3.67114 44.9076 3.67114Z" fill="#363737"/>
<path id="Subtract_3" fill-rule="evenodd" clip-rule="evenodd" d="M52.6347 3.67114C49.7325 3.67114 47.3799 6.02378 47.3799 8.92592V14.1806H50.2864V8.66294C50.2864 7.36565 51.3381 6.31399 52.6354 6.31399C53.9327 6.31399 54.9843 7.36565 54.9843 8.66294V14.1806H57.8894V8.92592C57.8894 6.02379 55.5368 3.67114 52.6347 3.67114Z" fill="#363737"/>
</g>
</g>
</svg>
