<svg width="18" height="21" viewBox="0 0 18 21" fill="none" xmlns="http://www.w3.org/2000/svg">
<g id="Frame 3469137">
<path id="Vector" fill-rule="evenodd" clip-rule="evenodd" d="M8.46575 6.30413C8.69512 6.45567 8.9913 6.45567 9.21998 6.30413C9.94839 5.82335 11.5344 4.67408 12.2176 3.38809C13.1183 1.69157 12.0606 -0.00012207 10.6627 -0.00012207C9.86539 -0.00012207 9.38598 0.416258 9.1208 0.77409C9.00921 0.927348 8.79465 0.961444 8.64105 0.849858C8.61177 0.82885 8.58629 0.80302 8.56528 0.77409C8.30009 0.415914 7.82068 -0.00012207 7.02374 -0.00012207C5.62548 -0.00012207 4.56782 1.69157 5.46877 3.38809C6.15137 4.67408 7.73768 5.82335 8.46575 6.30413Z" fill="#B9DAA1"/>
<path id="Vector_2" d="M17.2311 6.59893C16.9135 6.35462 14.8858 6.42791 14.8858 6.42791C10.9036 6.47677 9.14456 9.23745 8.85139 9.77492C8.55822 9.23745 6.79921 6.47677 2.81699 6.42791C2.81699 6.42791 0.81367 6.35462 0.471639 6.59893C0.154039 6.84323 -0.0414053 7.1364 0.00745625 7.72274C0.0563178 8.30908 0.520503 14.5389 7.8253 14.319V17.4218V17.8126V19.4739C7.8253 20.0358 8.28948 20.5 8.85139 20.5C9.4133 20.5 9.87748 20.0358 9.87748 19.4739V17.8126V17.4218V14.319C17.1579 14.5389 17.6465 8.30908 17.6709 7.72274C17.7442 7.11197 17.5732 6.8188 17.2311 6.59893Z" fill="#34C184"/>
</g>
</svg>
