<svg width="16" height="16" viewBox="0 0 16 16" fill="none" xmlns="http://www.w3.org/2000/svg">
<g id="icon-book-opened-mono 3">
<g id="Group 3466518">
<path id="Vector" fill-rule="evenodd" clip-rule="evenodd" d="M7.95567 5.69023C8.08993 5.77894 8.26331 5.77894 8.39717 5.69023C8.82354 5.4088 9.7519 4.73607 10.1519 3.98331C10.679 2.99024 10.0599 2 9.24166 2C8.77496 2 8.49434 2.24373 8.33911 2.45319C8.27379 2.5429 8.14819 2.56286 8.05828 2.49754C8.04115 2.48524 8.02623 2.47012 8.01393 2.45319C7.8587 2.24353 7.57808 2 7.11158 2C6.2931 2 5.67399 2.99024 6.20137 3.98331C6.60094 4.73607 7.52949 5.4088 7.95567 5.69023Z" fill="#B0B8C1"/>
<path id="Vector_2" d="M13.0864 5.86285C12.9004 5.71985 11.7135 5.76275 11.7135 5.76275C9.38248 5.79135 8.35283 7.40733 8.18122 7.72194C8.00961 7.40733 6.97996 5.79135 4.64895 5.76275C4.64895 5.76275 3.47629 5.71985 3.27608 5.86285C3.09017 6.00586 2.97576 6.17747 3.00436 6.52068C3.03297 6.8639 3.30468 10.5106 7.58059 10.3819V12.1981V12.4269V13.3993C7.58059 13.7282 7.8523 14 8.18122 14C8.51013 14 8.78185 13.7282 8.78185 13.3993V12.4269V12.1981V10.3819C13.0435 10.5106 13.3295 6.8639 13.3438 6.52068C13.3867 6.16317 13.2866 5.99156 13.0864 5.86285Z" fill="#8B95A1"/>
</g>
</g>
</svg>
