<svg width="16" height="16" viewBox="0 0 16 16" fill="none" xmlns="http://www.w3.org/2000/svg">
<g id="icon-book-opened-mono 2">
<g id="Group 3466519">
<g id="Group 3466518">
<path id="Subtract" fill-rule="evenodd" clip-rule="evenodd" d="M14.9977 7.02112C14.9979 7.02146 14.9978 7.02191 14.9975 7.02213C14.2721 7.54617 13.3193 7.28585 12.8695 6.44068C12.4197 5.59552 12.6432 4.48556 13.3686 3.96152C13.3689 3.9613 13.3693 3.96139 13.3695 3.96173L14.9977 7.02112Z" fill="#B0B8C1"/>
<rect id="Rectangle 4072" x="0.640217" y="0.148596" width="3.62021" height="1.12466" transform="matrix(0.81062 -0.585572 0.469814 0.882765 8.96745 8.39317)" fill="#8B95A1" stroke="#8B95A1"/>
</g>
<path id="Ellipse 426" d="M6.89891 5.5C6.89891 7.02468 5.7247 8.2 4.34945 8.2C2.97421 8.2 1.8 7.02468 1.8 5.5C1.8 3.97532 2.97421 2.8 4.34945 2.8C5.7247 2.8 6.89891 3.97532 6.89891 5.5Z" stroke="#8B95A1" stroke-width="1.6"/>
<path id="Union" fill-rule="evenodd" clip-rule="evenodd" d="M3.1352 11.5926C3.1051 12.1647 3.56089 12.6451 4.13382 12.6451H7.13453H7.13645H10.1372C10.7101 12.6451 11.1659 12.1647 11.1358 11.5926L10.7991 5.19258C10.7711 4.66145 10.3323 4.24512 9.80047 4.24512H7.13645H7.13453H4.47051C3.93865 4.24512 3.49984 4.66145 3.47189 5.19258L3.1352 11.5926Z" fill="#B0B8C1"/>
</g>
</g>
</svg>
