<svg width="71" height="121" viewBox="0 0 71 121" fill="none" xmlns="http://www.w3.org/2000/svg">
<g id="_&#235;&#160;&#136;&#236;&#157;&#180;&#236;&#150;&#180;_1" clip-path="url(#clip0_608_11568)">
<g id="Group">
<path id="Vector" d="M42.2186 69.2224L41.1231 68.2893L40.3706 69.0467L39.6174 69.4429L38.8663 68.3439L38.1166 68.2284L37.3662 69.5038L36.6116 69.4394L35.8591 69.0656L35.1066 69.5017L34.3513 69.3743L33.5981 68.878L32.8428 69.0446L32.091 69.4835L31.3357 68.5L30.579 69.4142L29.8202 68.6554L29.0726 68.8703L29.1461 68.1339L29.7082 67.3863L28.8465 66.638L28.4062 65.8897L28.3677 65.14L29.263 64.3889L29.2777 63.6371L29.1601 62.886L29.1517 62.1363L28.4125 61.3866L29.3827 60.6369L29.3771 59.8865L28.7205 59.1354L29.0656 58.3829L28.5658 57.6318L28.9781 56.8814L29.6802 56.1303L29.1475 55.3778L28.4167 54.626L29.2119 53.8749L28.4167 53.1224L28.8094 52.3699L28.8192 51.6202L29.298 50.8712L29.5801 50.1208L29.102 49.3676L29.7432 48.6158L29.5178 47.864L28.8759 47.1094L29.1825 46.3562L29.5808 45.6023L29.6718 44.8512L28.8591 44.0966L28.857 43.3406L28.3775 42.5825L29.2588 42.0204L29.8132 41.305L30.5657 41.2805L31.3196 42.3823L32.07 41.4366L32.8197 41.8825L33.5701 41.837L34.3247 42.0862L35.0772 41.9203L35.8297 41.5885L36.585 42.3095L37.3389 42.2675L38.0935 41.6207L38.8453 42.3753L39.6006 41.8748L40.358 42.5195L41.1168 41.1727L42.1465 41.5493L42.4594 42.572L42.5259 43.3203L41.2883 44.0686L42.2179 44.8169L41.968 45.5666L41.8973 46.317L41.7937 47.0695L42.1647 47.8199L42.5336 48.5703L41.7979 49.3193L41.793 50.069L41.4752 50.8194L41.989 51.5712L42.1731 52.323L41.9547 53.0741L42.3887 53.8252L41.513 54.5763L41.968 55.3281L41.6803 56.0806L41.5046 56.8317L42.4874 57.5835L42.5308 58.3367L42.3082 59.0864L42.304 59.8354L41.8322 60.5851L42.3999 61.339L42.1661 62.0908L42.1864 62.8426L41.4493 63.5965L41.7146 64.3497L42.2536 65.1036L42.0177 65.8547L41.8805 66.61L41.6026 67.366L41.4171 68.2088L42.2186 69.2224Z" fill="#FFFBF7"/>
<path id="Vector_2" d="M42.2186 69.2224L41.1231 68.2893L40.3706 69.0467L39.6174 69.4429L38.8663 68.3439L38.1166 68.2284L37.3662 69.5038L36.6116 69.4394L35.8591 69.0656L35.1066 69.5017L34.3513 69.3743L33.5981 68.878L32.8428 69.0446L32.091 69.4835L31.3357 68.5L30.579 69.4142L29.8202 68.6554L29.0726 68.8703L29.1461 68.1339L29.7082 67.3863L28.8465 66.638L28.4062 65.8897L28.3677 65.14L29.263 64.3889L29.2777 63.6371L29.1601 62.886L29.1517 62.1363L28.4125 61.3866L29.3827 60.6369L29.3771 59.8865L28.7205 59.1354L29.0656 58.3829L28.5658 57.6318L28.9781 56.8814L29.6802 56.1303L29.1475 55.3778L28.4167 54.626L29.2119 53.8749L28.4167 53.1224L28.8094 52.3699L28.8192 51.6202L29.298 50.8712L29.5801 50.1208L29.102 49.3676L29.7432 48.6158L29.5178 47.864L28.8759 47.1094L29.1825 46.3562L29.5808 45.6023L29.6718 44.8512L28.8591 44.0966L28.857 43.3406L28.3775 42.5825L29.2588 42.0204L29.8132 41.305L30.5657 41.2805L31.3196 42.3823L32.07 41.4366L32.8197 41.8825L33.5701 41.837L34.3247 42.0862L35.0772 41.9203L35.8297 41.5885L36.585 42.3095L37.3389 42.2675L38.0935 41.6207L38.8453 42.3753L39.6006 41.8748L40.358 42.5195L41.1168 41.1727L42.1465 41.5493L42.4594 42.572L42.5259 43.3203L41.2883 44.0686L42.2179 44.8169L41.968 45.5666L41.8973 46.317L41.7937 47.0695L42.1647 47.8199L42.5336 48.5703L41.7979 49.3193L41.793 50.069L41.4752 50.8194L41.989 51.5712L42.1731 52.323L41.9547 53.0741L42.3887 53.8252L41.513 54.5763L41.968 55.3281L41.6803 56.0806L41.5046 56.8317L42.4874 57.5835L42.5308 58.3367L42.3082 59.0864L42.304 59.8354L41.8322 60.5851L42.3999 61.339L42.1661 62.0908L42.1864 62.8426L41.4493 63.5965L41.7146 64.3497L42.2536 65.1036L42.0177 65.8547L41.8805 66.61L41.6026 67.366L41.4171 68.2088L42.2186 69.2224Z" stroke="#363737" stroke-width="2.1" stroke-linecap="round" stroke-linejoin="round"/>
</g>
<g id="Group_2">
<g id="Group_3">
<path id="Vector_3" d="M57.8004 119.497L56.6503 119.545L55.4617 119.398L54.2724 119.652L53.0838 119.459L51.8952 119.375L50.7066 119.53L49.5173 119.41L48.3294 119.336L47.1429 119.577L45.9571 119.685L44.7713 119.429L43.5848 119.746L42.3962 119.61L41.2062 119.42L40.0176 119.558L38.8304 119.532L37.6425 119.615L36.4525 119.724L35.2625 119.423L34.0739 119.47L32.8846 119.669L31.6939 119.53L30.5046 119.603L29.3132 119.61L28.1232 119.645L26.9318 119.513L25.7411 119.52L24.5532 119.671L23.3618 119.428L22.1725 119.612L20.9811 119.598L19.7883 119.713L18.5976 119.451L17.4034 119.599L16.2078 119.636L15.1053 119.428L14.7476 118.38L14.7273 117.172L14.2485 116.049L14.2002 114.848L14.1106 113.656L13.8397 112.499L13.6164 111.333L13.2594 110.19L13.0424 109.02L12.9164 107.831L12.6434 106.672L12.3879 105.51L12.2647 104.322L12.0869 103.143L11.8986 101.966L11.5815 100.815L11.4779 99.6219L10.9571 98.5068L10.7107 97.3406L10.4881 96.1688L10.3068 94.9907L10.1318 93.8091L10.0002 92.6233L9.64324 91.4802L9.62994 90.2678L9.11474 89.152L9.12664 87.9354L8.79904 86.7818L8.70524 85.5855L8.27054 84.4501L8.03044 83.2769L7.84424 81.9665L9.16304 81.9161L10.3565 82.1163L11.5507 82.0372L12.7442 81.8748L13.9384 82.1611L15.134 81.8573L16.3296 81.9469L17.5238 82.1289L18.718 81.879L19.9122 82.0708L21.1071 82.0778L22.3027 82.0575L23.4983 81.8909L24.6925 81.9448L25.8874 82.1765L27.0823 81.9413L28.2786 81.8895L29.4728 82.2066L30.6649 81.8699L31.857 81.858L33.0491 82.2227L34.2426 82.1583L35.4375 82.1688L36.6338 82.0225L37.828 82.1114L39.0215 81.9322L40.2157 82.068L41.412 82.2052L42.6083 82.0442L43.8032 81.907L44.9988 82.1436L46.1958 81.9287L47.3921 82.0351L48.5891 82.1758L49.7854 82.0337L50.9831 82.061L52.1801 82.2199L53.3743 82.152L54.572 82.0141L55.7683 82.243L56.966 82.1786L58.1644 81.9056L59.3621 81.9525L60.5619 82.0421L61.7638 82.0246L63.0924 81.9574L63.0021 83.2664L62.7459 84.4235L62.4547 85.5764L62.5219 86.7762L62.1194 87.9109L62.076 89.0939L61.7596 90.2391L61.8324 91.4389L61.3914 92.5708L61.1555 93.7314L61.2745 94.9389L61.2339 96.124L61.0113 97.2846L60.83 98.4529L60.7096 99.6296L60.4814 100.79L60.172 101.94L60.0488 103.118L60.0901 104.315L59.9753 105.494L59.5322 106.627L59.3243 107.793L59.206 108.968L59.2564 110.166L58.905 111.313L58.6845 112.476L58.8448 113.693L58.5431 114.848L58.4738 116.032L57.9565 117.158L57.8319 118.337L57.8004 119.497Z" fill="#363737"/>
<path id="Vector_4" d="M57.8004 119.497L56.6503 119.545L55.4617 119.398L54.2724 119.652L53.0838 119.459L51.8952 119.374L50.7066 119.53L49.5173 119.41L48.3294 119.336L47.1429 119.577L45.9571 119.685L44.7713 119.429L43.5848 119.746L42.3962 119.61L41.2062 119.42L40.0176 119.558L38.8304 119.532L37.6425 119.615L36.4525 119.724L35.2625 119.423L34.0739 119.47L32.8846 119.669L31.6939 119.53L30.5046 119.603L29.3132 119.61L28.1232 119.645L26.9318 119.513L25.7411 119.52L24.5532 119.671L23.3618 119.428L22.1725 119.612L20.9811 119.598L19.7883 119.713L18.5976 119.452L17.4034 119.599L16.2078 119.636L15.1053 119.428L14.7476 118.38L14.7273 117.172L14.2485 116.049L14.2002 114.848L14.1106 113.656L13.8397 112.499L13.6164 111.333L13.2594 110.19L13.0424 109.02L12.9164 107.831L12.6434 106.672L12.3879 105.51L12.2647 104.322L12.0869 103.143L11.8986 101.966L11.5815 100.815L11.4779 99.6219L10.9571 98.5068L10.7107 97.3406L10.4881 96.1688L10.3068 94.9907L10.1318 93.8091L10.0002 92.6233L9.64324 91.4802L9.62994 90.2678L9.11474 89.152L9.12664 87.9354L8.79904 86.7818L8.70524 85.5855L8.27054 84.4501L8.03044 83.2769L7.84424 81.9665L9.16304 81.9161L10.3565 82.1163L11.5507 82.0372L12.7442 81.8748L13.9384 82.1611L15.134 81.8573L16.3296 81.9469L17.5238 82.1289L18.718 81.879L19.9122 82.0708L21.1071 82.0778L22.3027 82.0575L23.4983 81.8909L24.6925 81.9448L25.8874 82.1765L27.0823 81.9413L28.2786 81.8895L29.4728 82.2066L30.6649 81.8699L31.857 81.858L33.0491 82.2227L34.2426 82.1583L35.4375 82.1688L36.6338 82.0225L37.828 82.1114L39.0215 81.9322L40.2157 82.068L41.412 82.2052L42.6083 82.0442L43.8032 81.907L44.9988 82.1436L46.1958 81.9287L47.3921 82.0351L48.5891 82.1758L49.7854 82.0337L50.9831 82.061L52.1801 82.2199L53.3743 82.152L54.572 82.0141L55.7683 82.243L56.966 82.1786L58.1644 81.9056L59.3621 81.9525L60.5619 82.0421L61.7638 82.0246L63.0924 81.9574L63.0021 83.2664L62.7459 84.4235L62.4547 85.5764L62.5219 86.7762L62.1194 87.9109L62.076 89.0939L61.7596 90.2391L61.8324 91.4389L61.3914 92.5708L61.1555 93.7314L61.2745 94.9389L61.2339 96.124L61.0113 97.2846L60.83 98.4529L60.7096 99.6296L60.4814 100.79L60.172 101.94L60.0488 103.118L60.0901 104.315L59.9753 105.494L59.5322 106.627L59.3243 107.793L59.206 108.968L59.2564 110.166L58.905 111.313L58.6845 112.476L58.8448 113.693L58.5431 114.848L58.4738 116.032L57.9565 117.158L57.8319 118.337L57.8004 119.497Z" stroke="#363737" stroke-width="1.2838" stroke-linecap="round" stroke-linejoin="round"/>
</g>
<g id="Group_4">
<path id="Vector_5" d="M67.7413 82.0448L66.594 82.2065L65.4215 81.9055L64.249 82.0539L63.0765 82.1806L61.904 82.091L60.7315 82.0875L59.5576 81.9384L58.383 82.0147L57.2091 81.9048L56.0352 82.2247L54.8627 82.2114L53.6895 82.1967L52.5163 82.0553L51.3431 81.9713L50.1685 82.0161L48.9939 82.14L47.82 82.1547L46.6468 82.1568L45.4729 81.9944L44.299 82.1792L43.1244 82.0126L41.9498 82.1715L40.7759 82.1547L39.602 81.9825L38.4274 82.2807L37.2528 82.2247L36.0796 82.1218L34.9071 82.0007L33.736 82.105L32.5649 81.9566L31.3924 82.0441L30.2185 82.1603L29.0425 82.0217L27.8693 82.1281L26.6961 82.2667L25.5229 82.0112L24.3476 82.1666L23.1723 82.1582L21.9977 82.2002L20.8231 82.0987L19.6464 81.9125L18.4718 81.9419L17.2951 82.035L16.1198 82.224L14.9431 82.1204L13.7692 82.0063L12.596 82.1904L11.4186 81.9118L10.2426 81.9958L9.0659 81.8705L7.8878 81.9951L6.7111 82.1862L5.5316 82.0105L4.35 82.231L3.286 81.9538L3.258 80.8786L3.356 79.6858L2.9668 78.4944L3.0403 77.3058L3.2594 76.113L3.1558 74.9223L3.2328 73.7302L3.2125 72.536L3.293 71.3439L3.0991 70.1497L3.0095 68.9527L3.1978 67.7844L4.3416 67.6297L5.5141 67.7613L6.6859 67.6745L7.8584 67.8425L9.0309 67.7179L10.2041 67.9377L11.3773 67.5709L12.5519 67.5688L13.7265 67.7683L14.8997 67.6171L16.0729 67.6346L17.2454 67.5814L18.4186 67.7263L19.5925 67.8117L20.7664 67.713L21.941 67.8257L23.1149 67.762L24.2888 67.5716L25.462 67.8754L26.6359 67.8789L27.8105 67.867L28.9851 67.8152L30.159 67.9125L31.3329 67.6598L32.5075 67.6157L33.6828 67.678L34.856 67.6892L36.0278 67.6752L37.1989 67.629L38.3707 67.8082L39.5425 67.6388L40.7171 67.7333L41.8924 67.6409L43.0663 67.86L44.2388 67.6262L45.4127 67.9566L46.588 67.8432L47.7633 67.916L48.9372 67.7375L50.1118 67.5842L51.2885 67.5646L52.4631 67.9349L53.6398 67.9517L54.8158 67.545L55.9925 67.9426L57.1657 67.6703L58.3396 67.6808L59.517 67.5919L60.6923 67.9419L61.869 67.5891L63.0478 67.6878L64.2245 67.8138L65.404 67.6668L66.5849 67.6647L67.8169 67.706L67.6293 68.9471L67.6517 70.1399L67.9485 71.3313L67.8575 72.5199L67.5838 73.7127L67.8785 74.9034L67.7875 76.0962L67.9569 77.2897L67.8512 78.4818L67.9422 79.676L67.6566 80.8716L67.7413 82.0448Z" fill="#363737"/>
<path id="Vector_6" d="M67.7413 82.0448L66.594 82.2065L65.4215 81.9055L64.249 82.0539L63.0765 82.1806L61.904 82.091L60.7315 82.0875L59.5576 81.9384L58.383 82.0147L57.2091 81.9048L56.0352 82.2247L54.8627 82.2114L53.6895 82.1967L52.5163 82.0553L51.3431 81.9713L50.1685 82.0161L48.9939 82.14L47.82 82.1547L46.6468 82.1568L45.4729 81.9944L44.299 82.1792L43.1244 82.0126L41.9498 82.1715L40.7759 82.1547L39.602 81.9825L38.4274 82.2807L37.2528 82.2247L36.0796 82.1218L34.9071 82.0007L33.736 82.105L32.5649 81.9566L31.3924 82.0441L30.2185 82.1603L29.0425 82.0217L27.8693 82.1281L26.6961 82.2667L25.5229 82.0112L24.3476 82.1666L23.1723 82.1582L21.9977 82.2002L20.8231 82.0987L19.6464 81.9125L18.4718 81.9419L17.2951 82.035L16.1198 82.224L14.9431 82.1204L13.7692 82.0063L12.596 82.1904L11.4186 81.9118L10.2426 81.9958L9.0659 81.8705L7.8878 81.9951L6.7111 82.1862L5.5316 82.0105L4.35 82.231L3.286 81.9538L3.258 80.8786L3.356 79.6858L2.9668 78.4944L3.0403 77.3058L3.2594 76.113L3.1558 74.9223L3.2328 73.7302L3.2125 72.536L3.293 71.3439L3.0991 70.1497L3.0095 68.9527L3.1978 67.7844L4.3416 67.6297L5.5141 67.7613L6.6859 67.6745L7.8584 67.8425L9.0309 67.7179L10.2041 67.9377L11.3773 67.5709L12.5519 67.5688L13.7265 67.7683L14.8997 67.6171L16.0729 67.6346L17.2454 67.5814L18.4186 67.7263L19.5925 67.8117L20.7664 67.713L21.941 67.8257L23.1149 67.762L24.2888 67.5716L25.462 67.8754L26.6359 67.8789L27.8105 67.867L28.9851 67.8152L30.159 67.9125L31.3329 67.6598L32.5075 67.6157L33.6828 67.678L34.856 67.6892L36.0278 67.6752L37.1989 67.629L38.3707 67.8082L39.5425 67.6388L40.7171 67.7333L41.8924 67.6409L43.0663 67.86L44.2388 67.6262L45.4127 67.9566L46.588 67.8432L47.7633 67.916L48.9372 67.7375L50.1118 67.5842L51.2885 67.5646L52.4631 67.9349L53.6398 67.9517L54.8158 67.545L55.9925 67.9426L57.1657 67.6703L58.3396 67.6808L59.517 67.5919L60.6923 67.9419L61.869 67.5891L63.0478 67.6878L64.2245 67.8138L65.404 67.6668L66.5849 67.6647L67.8169 67.706L67.6293 68.9471L67.6517 70.1399L67.9485 71.3313L67.8575 72.5199L67.5838 73.7127L67.8785 74.9034L67.7875 76.0962L67.9569 77.2897L67.8512 78.4818L67.9422 79.676L67.6566 80.8716L67.7413 82.0448Z" stroke="#363737" stroke-width="1.2838" stroke-linecap="round" stroke-linejoin="round"/>
</g>
<g id="Group_5">
<g id="Group_6">
<path id="Vector_7" d="M31.6443 93.1471L30.7707 94.566L29.3518 95.2485L27.6837 94.8152L27.2119 93.1471L27.6487 91.444L29.3518 90.7461L30.8435 91.6561L31.6443 93.1471Z" fill="#F8F9F9"/>
<path id="Vector_8" d="M43.5729 93.1471L43.2194 94.7865L41.58 95.1618L39.9756 94.7522L39.4072 93.1471L39.9119 91.479L41.58 91.1136L43.1823 91.5448L43.5729 93.1471Z" fill="#F8F9F9"/>
</g>
<path id="Vector_9" d="M40.1595 102.712L39.9075 101.269L39.2341 99.9747L38.1085 99.0759L36.8681 98.3983L35.4667 98.1932L34.0758 98.4326L32.7143 98.9247L31.8645 100.096L31.161 101.314L30.9531 102.712" stroke="#F8F9F9" stroke-width="1.7115" stroke-linecap="round" stroke-linejoin="round"/>
</g>
<g id="Group_7">
<path id="Vector_10" d="M52.945 88.9714C52.945 89.173 53.0094 89.3886 52.9597 89.5748C52.9086 89.7666 52.6832 89.887 52.5859 90.055C52.4872 90.2258 52.462 90.447 52.3234 90.5856C52.1848 90.7242 52.028 90.8614 51.8572 90.9601C51.6892 91.0574 51.4589 91 51.2664 91.0518C51.0809 91.1015 50.9101 91.1715 50.7092 91.1715C50.5083 91.1715 50.292 91.2716 50.1058 91.2219C49.914 91.1708 49.767 90.9916 49.599 90.8943C49.4282 90.7956 49.1832 90.7746 49.0446 90.636C48.906 90.4974 48.7723 90.3175 48.6736 90.1474C48.5763 89.9794 48.6309 89.7351 48.5798 89.5426C48.5301 89.3571 48.5007 89.173 48.5007 88.9721C48.5007 88.816 48.4377 88.6095 48.5007 88.3988C48.5497 88.2336 48.717 88.0901 48.7947 87.9032C48.864 87.7366 48.8724 87.5322 48.9578 87.3558C49.0383 87.1892 49.1181 87.0142 49.2077 86.8455C49.2966 86.6782 49.4023 86.5179 49.4954 86.3548C49.5913 86.1861 49.6165 85.9782 49.711 85.82C49.8132 85.6485 49.97 85.5183 50.0638 85.3671C50.1758 85.1872 50.243 85.001 50.3319 84.8638C50.5188 84.574 50.4299 84.4235 50.7099 84.4249C50.9927 84.4263 50.7953 84.6447 50.9836 84.9366C51.0718 85.0731 51.167 85.239 51.2783 85.4175C51.3714 85.5673 51.5261 85.6961 51.6276 85.8662C51.7214 86.0237 51.8082 86.1931 51.9041 86.3618C51.9965 86.5256 52.0693 86.7027 52.1582 86.87C52.2485 87.0394 52.4144 87.1703 52.4949 87.3376C52.5803 87.5147 52.6622 87.6911 52.7315 87.8591C52.8099 88.0474 52.8393 88.2462 52.8883 88.4128C52.9499 88.6221 52.9457 88.8181 52.9457 88.9735L52.945 88.9714Z" fill="#F8F9F9"/>
<path id="Vector_11" d="M56.9636 90.8615C56.9636 91.0652 57.0812 91.2829 57.0077 91.46C56.9314 91.6441 56.6997 91.7211 56.5611 91.8597C56.4225 91.9983 56.3357 92.2076 56.1523 92.2839C55.9752 92.3574 55.7666 92.3525 55.5629 92.3525C55.3592 92.3525 55.1338 92.3994 54.956 92.3259C54.7719 92.2496 54.6956 92.0053 54.557 91.8667C54.4184 91.7281 54.2175 91.6336 54.1412 91.4502C54.0677 91.2731 54.0117 91.0652 54.0117 90.8615C54.0117 90.7145 54.1958 90.557 54.2735 90.3442C54.333 90.1811 54.3638 89.9928 54.4513 89.8122C54.5318 89.6449 54.5073 89.4139 54.5997 89.2459C54.6935 89.0751 54.886 88.9617 54.9791 88.8049C55.0862 88.6257 55.075 88.3891 55.1646 88.247C55.3459 87.9607 55.2801 87.7283 55.5629 87.7283C55.8457 87.7283 55.6532 88.0412 55.8345 88.3268C55.9234 88.4668 56.0284 88.6278 56.1341 88.8056C56.2279 88.9624 56.412 89.0793 56.5058 89.2501C56.5982 89.4188 56.5926 89.64 56.6738 89.808C56.7627 89.9914 56.9104 90.1391 56.9706 90.3036C57.0476 90.5164 56.9643 90.7159 56.9643 90.8622L56.9636 90.8615Z" fill="#F8F9F9"/>
</g>
</g>
<g id="Group_8">
<path id="Vector_12" d="M68.5746 13.0355C68.527 12.5056 68.2043 12.9963 67.7668 12.6939C67.3293 12.3915 67.6527 11.9239 67.2152 11.6215C66.7777 11.3191 66.7847 11.3079 66.3472 11.0055C65.9097 10.7031 65.6437 11.0853 65.2055 10.7829C64.7673 10.4805 64.6721 10.6184 64.2339 10.316C63.7957 10.0136 64.1625 9.48157 63.7243 9.17847C63.2861 8.87537 63.3253 8.82287 62.8892 8.52117C62.4531 8.21947 62.5623 8.05707 62.1234 7.75397C61.6845 7.45087 61.1994 8.15507 60.7619 7.85267C60.3244 7.55027 60.7941 6.87057 60.3566 6.56817C59.9191 6.26577 59.8687 6.33577 59.4298 6.03267C58.9909 5.72957 58.6199 6.26717 58.1817 5.96407C57.7435 5.66097 57.8562 5.49647 57.418 5.19337C56.9798 4.89027 56.7362 5.24027 56.2966 4.93717C55.857 4.63407 55.7933 4.72787 55.3544 4.42477C54.9155 4.12167 55.444 3.35587 55.0051 3.05207C54.5662 2.74827 54.6369 2.64257 54.1966 2.33807C53.7563 2.03357 53.582 1.93907 53.0479 1.98317C52.5271 2.02587 52.4347 2.21977 52.0665 2.59007C51.6983 2.96037 52.1274 3.38737 51.7592 3.75837C51.391 4.12937 51.0648 3.80457 50.6973 4.17557C50.3298 4.54657 50.9325 5.14437 50.565 5.51467C50.1975 5.88497 49.8104 5.50067 49.4422 5.87097C49.074 6.24127 48.6785 5.84997 48.3103 6.22097C47.9421 6.59197 48.6834 7.32767 48.3152 7.69867C47.947 8.06967 47.0902 7.21847 46.722 7.58877C46.3538 7.95907 46.6653 8.26917 46.2971 8.63947C45.9289 9.00977 46.2761 9.35557 45.9072 9.72657C45.5383 10.0976 44.902 9.46267 44.5345 9.83227C44.167 10.2019 44.3749 10.407 44.0081 10.7766C43.6413 11.1462 44.1516 11.6537 43.7848 12.024C43.418 12.3943 43.5797 12.5581 43.2108 12.9298C42.8419 13.3015 42.5864 13.046 42.2182 13.417C41.85 13.788 41.2669 13.2084 40.8987 13.5794C40.5305 13.9504 40.5165 13.9385 40.1476 14.3109C39.7787 14.6833 40.0664 14.9682 39.6982 15.3392C39.33 15.7102 39.6982 16.077 39.3286 16.4494C38.959 16.8218 39.1963 17.0535 38.8288 17.4238C38.4592 17.7962 38.448 17.785 38.0784 18.1574C37.7088 18.5298 37.4897 18.3135 37.1201 18.6866C36.7505 19.0597 36.1408 18.457 35.7698 18.8308C35.3988 19.2046 35.9035 20.4541 35.3764 20.4597C34.8598 20.4646 34.934 19.626 34.5707 19.2592C34.2074 18.8924 34.4496 18.6509 34.0856 18.2841C33.7216 17.9173 33.0986 18.5361 32.7353 18.17C32.372 17.8039 33.317 16.8659 32.953 16.4998C32.589 16.1337 32.4693 16.2527 32.1053 15.8866C31.7413 15.5205 31.0518 16.2037 30.6871 15.8369C30.3224 15.4701 30.7242 15.0718 30.3595 14.705C29.9948 14.3382 30.2664 14.0694 29.9031 13.7026C29.5398 13.3358 29.495 13.3799 29.131 13.0131C28.767 12.6463 28.1034 13.3043 27.7387 12.9368C27.374 12.5693 27.5791 12.3691 27.2158 12.0037C26.8525 11.6383 27.2662 11.2288 26.9036 10.8634C26.541 10.498 26.4787 10.5589 26.1154 10.1928C25.7521 9.82667 25.3804 10.1928 25.0157 9.82527C24.651 9.45777 24.9058 9.20647 24.5418 8.83967C24.1778 8.47287 24.0665 8.58347 23.7025 8.21667C23.3385 7.84987 22.9409 8.24187 22.5755 7.87367C22.2101 7.50547 22.362 7.35637 21.9973 6.98887C21.6326 6.62137 21.5346 6.71797 21.1692 6.35047C20.8038 5.98297 21.5717 5.22347 21.2084 4.85737C20.843 4.48917 20.1479 5.17937 19.7825 4.81117C19.4171 4.44297 19.674 4.18607 19.3079 3.81787C18.9418 3.44967 18.7192 3.66807 18.3517 3.29847C17.9842 2.92887 18.4504 1.71087 17.9317 1.66747C17.4011 1.62337 17.2604 2.34087 16.8222 2.64397C16.384 2.94707 16.3896 2.95337 15.9521 3.25577C15.5146 3.55817 15.9976 4.25747 15.5601 4.56057C15.1226 4.86367 14.4618 3.90887 14.0236 4.21197C13.5854 4.51507 14.2448 5.46777 13.8066 5.77087C13.3684 6.07397 13.2984 5.97247 12.8602 6.27557C12.422 6.57867 12.0125 5.98227 11.5764 6.28397C11.1403 6.58567 11.4875 7.09247 11.0493 7.39557C10.6111 7.69867 10.6587 7.76587 10.2212 8.06827C9.78369 8.37067 9.16349 7.47327 8.72599 7.77567C8.28849 8.07807 8.31789 8.12427 7.87899 8.42737C7.44009 8.73047 7.65219 9.03637 7.21399 9.33877C6.77579 9.64117 6.63299 9.43677 6.19479 9.73987C5.75659 10.043 6.09609 10.5365 5.65649 10.8396C5.21689 11.1427 4.88649 10.6632 4.44759 10.9663C4.00869 11.2694 4.15009 11.4745 3.71049 11.7783C3.27089 12.0821 3.19599 11.9757 2.75499 12.2802C2.31399 12.5847 1.66439 12.6239 1.60699 13.1566C1.55169 13.6767 2.16909 13.8713 2.53729 14.2423C2.90549 14.6133 3.29049 14.2318 3.65939 14.6028C4.02829 14.9738 3.83649 15.1649 4.20539 15.5366C4.57429 15.9083 4.56169 15.9216 4.93129 16.294C5.30089 16.6664 5.53399 16.4347 5.90429 16.8078C6.27459 17.1809 5.89239 17.5582 6.26199 17.9299C6.63159 18.3016 6.80939 18.1245 7.17829 18.4962C7.54719 18.8679 7.94339 18.4752 8.31229 18.8476C8.68119 19.22 8.73509 19.1675 9.10469 19.5399C9.47429 19.9123 8.77359 20.6074 9.14389 20.9798C9.51419 21.3522 9.84389 21.0239 10.2135 21.3956C10.5831 21.7673 10.2681 22.0802 10.6377 22.4526C11.0073 22.825 11.3552 22.4806 11.7248 22.8537C12.0944 23.2268 12.0888 23.2296 12.4577 23.6006C12.8266 23.9716 12.9344 23.8638 13.3026 24.2348C13.6708 24.6058 13.4041 24.8711 13.773 25.2428C14.1419 25.6145 14.6123 25.1504 14.9826 25.5235C15.3529 25.8966 15.341 25.9071 15.7106 26.2788C16.0802 26.6505 15.6266 27.1013 15.9962 27.4737C16.3658 27.8461 16.1075 28.1044 16.4785 28.4782C16.8495 28.852 16.9363 28.7645 17.3066 29.1376C17.6769 29.5107 18.4616 28.7323 18.8326 29.1054C19.2036 29.4785 18.8739 29.8026 19.2435 30.1743C19.6145 30.5481 19.9442 30.2205 20.3152 30.5943C20.6862 30.9681 20.2697 31.3825 20.6414 31.757C21.0131 32.1315 20.5868 32.5564 20.9599 32.9316C21.333 33.3068 22.747 32.793 22.7498 33.3222C22.7526 33.8451 21.9231 33.9228 21.5549 34.2938C21.1867 34.6648 20.5945 34.0775 20.2263 34.4485C19.8581 34.8195 20.1717 35.1317 19.8028 35.5034C19.4339 35.8751 19.4374 35.88 19.0685 36.2517C18.6996 36.6234 18.5981 36.524 18.2278 36.8964C17.8575 37.2688 17.6398 37.0511 17.2702 37.4228C16.9006 37.7945 17.4977 38.3867 17.1288 38.7584C16.7599 39.1301 16.8649 39.2344 16.4953 39.6068C16.1257 39.9792 15.4957 39.3541 15.1254 39.7265C14.7551 40.0989 14.8496 40.192 14.48 40.5644C14.1104 40.9368 13.9571 40.7842 13.5882 41.1566C13.2193 41.529 13.5553 41.8636 13.1857 42.236C12.8161 42.6084 12.7216 42.5153 12.3513 42.8884C11.981 43.2615 12.3772 43.6507 12.0083 44.0224C11.6394 44.3941 11.6009 44.3542 11.2327 44.7252C10.8645 45.0962 10.1372 44.3752 9.76899 44.7469C9.40079 45.1186 10.0273 45.7444 9.65699 46.1175C9.28669 46.4906 9.62759 46.8273 9.25799 47.1997C8.88839 47.5721 8.10439 46.7937 7.73479 47.1661C7.36519 47.5385 7.77329 47.9459 7.40299 48.3197C7.03269 48.6935 6.62459 48.2875 6.25429 48.6599C5.88399 49.0323 5.86719 49.0176 5.49689 49.3907C5.12659 49.7638 5.33869 49.9717 4.96909 50.3434C4.59809 50.7172 5.17839 51.2933 4.80739 51.6671C4.43639 52.0409 4.05769 51.6657 3.68599 52.0402C3.31429 52.4147 3.08119 52.1858 2.70879 52.561C2.33639 52.9362 1.74139 52.9453 1.79179 53.4717C1.84289 54.0016 2.67169 53.5445 3.10989 53.8469C3.54809 54.1493 3.09449 54.8052 3.53199 55.1076C3.96949 55.41 4.06049 55.2798 4.49799 55.5822C4.93549 55.8846 5.29809 55.3624 5.73629 55.6655C6.17449 55.9686 6.37399 55.6788 6.81219 55.9819C7.25039 56.285 7.01589 56.6245 7.45479 56.9269C7.89369 57.2293 7.86569 57.265 8.30249 57.5667C8.73929 57.8684 8.53629 58.1659 8.97449 58.469C9.41269 58.7721 9.65139 58.4249 10.0889 58.7273C10.5264 59.0297 10.6398 58.8659 11.0773 59.1683C11.5148 59.4707 11.2586 59.8438 11.6975 60.1476C12.1364 60.4514 11.8837 60.8154 12.3219 61.1185C12.7601 61.4216 13.2333 60.7377 13.6722 61.0408C14.1111 61.3439 13.5588 62.144 13.9984 62.4478C14.438 62.7516 14.8965 62.0866 15.3354 62.3897C15.7743 62.6928 15.6707 62.8447 16.1096 63.1478C16.5485 63.4509 16.4981 63.5279 16.9384 63.8324C17.3787 64.1369 17.3388 64.2916 17.8729 64.251C18.3881 64.2111 18.491 64.2314 18.855 63.8653C19.219 63.4992 18.5694 62.8531 18.9334 62.4863C19.2974 62.1195 19.5585 62.3792 19.9225 62.0131C20.2865 61.647 20.1829 61.5448 20.5462 61.1787C20.9095 60.8126 21.1104 61.0114 21.4737 60.6446C21.837 60.2778 22.3669 60.8028 22.7309 60.436C23.0949 60.0692 22.81 59.7864 23.1747 59.4196C23.5394 59.0528 22.964 58.4823 23.328 58.1162C23.692 57.7501 24.1526 58.2065 24.5166 57.8397C24.8806 57.4729 24.644 57.237 25.0087 56.8702C25.3734 56.5034 25.5974 56.7281 25.96 56.3627C26.3226 55.9973 26.5347 56.208 26.8973 55.8426C27.2599 55.4772 26.8035 55.0229 27.1668 54.6568C27.5301 54.2907 27.7086 54.465 28.0733 54.0975C28.438 53.73 27.9711 53.268 28.3351 52.9012C28.6991 52.5344 28.9623 52.7955 29.3263 52.4287C29.6903 52.0619 29.8156 52.1837 30.1803 51.8155C30.545 51.4473 30.2636 51.1687 30.6283 50.8012C30.993 50.4337 31.5516 50.9874 31.9163 50.6192C32.281 50.251 32.0031 49.978 32.3671 49.6119C32.7325 49.2437 33.1707 49.6784 33.5361 49.3102C33.9015 48.942 33.9687 49.0078 34.3348 48.6389C34.7009 48.27 34.5679 48.1356 34.9347 47.766C35.3015 47.3964 34.8514 47.0149 35.3722 47.0156C35.893 47.0163 35.3673 47.4734 35.7355 47.8437C36.1037 48.214 36.075 48.2427 36.4439 48.6144C36.8128 48.9861 37.0928 48.7061 37.4603 49.0764C37.8278 49.4467 38.3017 48.9763 38.6692 49.3466C39.0367 49.7169 38.3514 50.3973 38.7196 50.7676C39.0878 51.1379 39.7143 50.517 40.0825 50.888C40.4507 51.259 39.8529 51.8519 40.2211 52.2229C40.5893 52.5939 41.3712 51.8169 41.7394 52.1872C42.1076 52.5575 41.9326 52.7318 42.3008 53.1028C42.669 53.4738 42.3512 53.7902 42.7201 54.1612C43.089 54.5322 43.4264 54.1941 43.7939 54.5637C44.1614 54.9333 43.6497 55.4408 44.0158 55.8097C44.3819 56.1786 44.0746 56.4859 44.4414 56.8562C44.8082 57.2265 44.9881 57.0515 45.357 57.4232C45.7259 57.7949 45.9828 57.538 46.351 57.909C46.7192 58.28 46.295 58.7007 46.6632 59.0717C47.0314 59.4427 47.9253 58.5579 48.2942 58.9296C48.6631 59.3013 48.0079 59.9509 48.3768 60.3226C48.7457 60.6943 49.0523 60.3905 49.4212 60.7622C49.7901 61.1339 50.1352 60.7888 50.5027 61.1591C50.8723 61.5315 50.3592 62.0411 50.7288 62.4128C51.0984 62.7845 51.4883 62.3988 51.8586 62.7719C52.2289 63.145 51.755 63.6168 52.126 63.9913C52.497 64.3658 52.553 64.3007 53.0773 64.3469C53.6079 64.3938 53.7969 64.6801 54.2344 64.377C54.6719 64.0739 54.4332 63.7295 54.8707 63.4271C55.3082 63.1247 55.1451 62.8881 55.5826 62.585C56.0201 62.2819 55.794 61.9529 56.2322 61.6505C56.6704 61.3481 56.7999 61.5357 57.2381 61.2333C57.6763 60.9309 57.4873 60.6565 57.9255 60.3534C58.3637 60.0503 58.9818 60.9484 59.4186 60.6474C59.8554 60.3464 59.8015 60.2638 60.2397 59.9607C60.6779 59.6576 60.1305 58.868 60.568 58.5656C61.0055 58.2632 61.2645 58.6384 61.702 58.336C62.1395 58.0336 62.493 58.5425 62.9319 58.2387C63.3708 57.9349 63.0313 57.4449 63.4695 57.1425C63.9077 56.8401 63.6718 56.4971 64.1107 56.194C64.5496 55.8909 64.5909 55.949 65.0298 55.6459C65.4687 55.3428 65.8355 55.8734 66.2744 55.5703C66.7133 55.2672 66.4368 54.8661 66.8764 54.5623C67.316 54.2585 67.2117 54.1059 67.6527 53.8014C68.0937 53.4969 69.3404 54.2277 69.3943 53.695C69.4475 53.1693 68.8021 52.9355 68.4304 52.561C68.0587 52.1865 68.0153 52.2285 67.6429 51.854C67.2705 51.4795 66.9107 51.8358 66.5383 51.4606C66.1659 51.0854 66.5299 50.7235 66.1568 50.3476C65.7837 49.9717 65.5541 50.1992 65.1803 49.8233C64.8065 49.4474 64.4866 49.7666 64.1135 49.3907C63.7404 49.0148 63.529 49.2255 63.1566 48.8503C62.7842 48.4751 63.1153 48.1454 62.7429 47.7702C62.3705 47.395 62.605 47.1598 62.2319 46.7839C61.8588 46.408 61.5711 46.6929 61.198 46.317C60.8249 45.9411 61.2946 45.4756 60.9215 45.0997C60.5484 44.7238 60.1676 45.1011 59.7945 44.7252C59.4214 44.3493 59.8722 43.9006 59.4984 43.5247C59.1246 43.1488 58.9209 43.3539 58.5485 42.9787C58.1761 42.6035 58.2657 42.516 57.894 42.1415C57.5223 41.767 56.907 42.3767 56.5346 42.0015C56.1622 41.6263 56.4401 41.347 56.0663 40.9704C55.6925 40.5938 56.2609 40.031 55.8878 39.6551C55.5147 39.2792 54.6852 40.1024 54.3121 39.7265C53.939 39.3506 54.0545 39.233 53.68 38.8564C53.3055 38.4798 53.6562 38.1326 53.2824 37.756C52.9086 37.3794 52.6587 37.6265 52.2842 37.2499C51.9097 36.8733 51.8257 36.9594 51.4533 36.5835C51.0788 36.2062 51.2006 36.0851 50.8254 35.7078C50.4502 35.3305 50.2724 35.5062 49.8972 35.1282C49.522 34.7502 49.9448 34.3281 49.5689 33.9494C49.193 33.5707 48.9942 33.8591 48.9914 33.325C48.9886 32.7972 48.7569 32.6593 49.1293 32.2848C49.5017 31.9103 49.9602 32.3653 50.3319 31.9901C50.7036 31.6149 50.4698 31.3825 50.8422 31.0073C51.2146 30.6321 50.9388 30.3577 51.3119 29.9818C51.685 29.6059 52.3647 30.28 52.7385 29.9041C53.1123 29.5282 52.8589 29.2783 53.232 28.9024C53.6051 28.5265 53.6877 28.6098 54.0601 28.2339C54.4325 27.858 53.8984 27.3281 54.2715 26.9529C54.6446 26.5777 54.6516 26.5833 55.0247 26.2074C55.3978 25.8315 55.9165 26.346 56.2896 25.9694C56.6627 25.5928 56.214 25.1483 56.5871 24.7724C56.9602 24.3965 56.9609 24.3972 57.3347 24.0213C57.7085 23.6454 58.4666 24.3972 58.8404 24.0213C59.2142 23.6454 59.1281 23.5621 59.4998 23.1876C59.8715 22.8131 59.4074 22.3525 59.7791 21.978C60.1508 21.6035 60.491 21.9402 60.8634 21.5657C61.2358 21.1912 60.8144 20.7691 61.1882 20.3925C61.562 20.0159 61.6502 20.1048 62.0233 19.7289C62.3964 19.353 62.213 19.171 62.5861 18.7951C62.9592 18.4192 63.424 18.8784 63.7985 18.5011C64.173 18.1238 63.9413 17.8956 64.3151 17.519C64.6889 17.1424 65.1656 17.6149 65.5401 17.2376C65.9146 16.8603 65.6297 16.581 66.0021 16.2051C66.3766 15.8278 66.4137 15.8649 66.7889 15.4869C67.1641 15.1089 67.1963 15.1411 67.5715 14.7631C67.9467 14.3851 67.9607 14.4922 68.3891 14.173C68.7685 13.8902 68.6243 13.571 68.576 13.039L68.5746 13.0355Z" fill="white"/>
<path id="Vector_13" d="M68.5746 13.0355C68.527 12.5056 68.2043 12.9963 67.7668 12.6939C67.3293 12.3915 67.6527 11.9239 67.2152 11.6215C66.7777 11.3191 66.7847 11.3079 66.3472 11.0055C65.9097 10.7031 65.6437 11.0853 65.2055 10.7829C64.7673 10.4805 64.6721 10.6184 64.2339 10.316C63.7957 10.0136 64.1625 9.48157 63.7243 9.17847C63.2861 8.87537 63.3253 8.82287 62.8892 8.52117C62.4531 8.21947 62.5623 8.05707 62.1234 7.75397C61.6845 7.45087 61.1994 8.15507 60.7619 7.85267C60.3244 7.55027 60.7941 6.87057 60.3566 6.56817C59.9191 6.26577 59.8687 6.33577 59.4298 6.03267C58.9909 5.72957 58.6199 6.26717 58.1817 5.96407C57.7435 5.66097 57.8562 5.49647 57.418 5.19337C56.9798 4.89027 56.7362 5.24027 56.2966 4.93717C55.857 4.63407 55.7933 4.72787 55.3544 4.42477C54.9155 4.12167 55.444 3.35587 55.0051 3.05207C54.5662 2.74827 54.6369 2.64257 54.1966 2.33807C53.7563 2.03357 53.582 1.93907 53.0479 1.98317C52.5271 2.02587 52.4347 2.21977 52.0665 2.59007C51.6983 2.96037 52.1274 3.38737 51.7592 3.75837C51.391 4.12937 51.0648 3.80457 50.6973 4.17557C50.3298 4.54657 50.9325 5.14437 50.565 5.51467C50.1975 5.88497 49.8104 5.50067 49.4422 5.87097C49.074 6.24127 48.6785 5.84997 48.3103 6.22097C47.9421 6.59197 48.6834 7.32767 48.3152 7.69867C47.947 8.06967 47.0902 7.21847 46.722 7.58877C46.3538 7.95907 46.6653 8.26917 46.2971 8.63947C45.9289 9.00977 46.2761 9.35557 45.9072 9.72657C45.5383 10.0976 44.902 9.46267 44.5345 9.83227C44.167 10.2019 44.3749 10.407 44.0081 10.7766C43.6413 11.1462 44.1516 11.6537 43.7848 12.024C43.418 12.3943 43.5797 12.5581 43.2108 12.9298C42.8419 13.3015 42.5864 13.046 42.2182 13.417C41.85 13.788 41.2669 13.2084 40.8987 13.5794C40.5305 13.9504 40.5165 13.9385 40.1476 14.3109C39.7787 14.6833 40.0664 14.9682 39.6982 15.3392C39.33 15.7102 39.6982 16.077 39.3286 16.4494C38.959 16.8218 39.1963 17.0535 38.8288 17.4238C38.4592 17.7962 38.448 17.785 38.0784 18.1574C37.7088 18.5298 37.4897 18.3135 37.1201 18.6866C36.7505 19.0597 36.1408 18.457 35.7698 18.8308C35.3988 19.2046 35.9035 20.4541 35.3764 20.4597C34.8598 20.4646 34.934 19.626 34.5707 19.2592C34.2074 18.8924 34.4496 18.6509 34.0856 18.2841C33.7216 17.9173 33.0986 18.5361 32.7353 18.17C32.372 17.8039 33.317 16.8659 32.953 16.4998C32.589 16.1337 32.4693 16.2527 32.1053 15.8866C31.7413 15.5205 31.0518 16.2037 30.6871 15.8369C30.3224 15.4701 30.7242 15.0718 30.3595 14.705C29.9948 14.3382 30.2664 14.0694 29.9031 13.7026C29.5398 13.3358 29.495 13.3799 29.131 13.0131C28.767 12.6463 28.1034 13.3043 27.7387 12.9368C27.374 12.5693 27.5791 12.3691 27.2158 12.0037C26.8525 11.6383 27.2662 11.2288 26.9036 10.8634C26.541 10.498 26.4787 10.5589 26.1154 10.1928C25.7521 9.82667 25.3804 10.1928 25.0157 9.82527C24.651 9.45777 24.9058 9.20647 24.5418 8.83967C24.1778 8.47287 24.0665 8.58347 23.7025 8.21667C23.3385 7.84987 22.9409 8.24187 22.5755 7.87367C22.2101 7.50547 22.362 7.35637 21.9973 6.98887C21.6326 6.62137 21.5346 6.71797 21.1692 6.35047C20.8038 5.98297 21.5717 5.22347 21.2084 4.85737C20.843 4.48917 20.1479 5.17937 19.7825 4.81117C19.4171 4.44297 19.674 4.18607 19.3079 3.81787C18.9418 3.44967 18.7192 3.66807 18.3517 3.29847C17.9842 2.92887 18.4504 1.71087 17.9317 1.66747C17.4011 1.62337 17.2604 2.34087 16.8222 2.64397C16.384 2.94707 16.3896 2.95337 15.9521 3.25577C15.5146 3.55817 15.9976 4.25747 15.5601 4.56057C15.1226 4.86367 14.4618 3.90887 14.0236 4.21197C13.5854 4.51507 14.2448 5.46777 13.8066 5.77087C13.3684 6.07397 13.2984 5.97247 12.8602 6.27557C12.422 6.57867 12.0125 5.98227 11.5764 6.28397C11.1403 6.58567 11.4875 7.09247 11.0493 7.39557C10.6111 7.69867 10.6587 7.76587 10.2212 8.06827C9.78369 8.37067 9.16349 7.47327 8.72599 7.77567C8.28849 8.07807 8.31789 8.12427 7.87899 8.42737C7.44009 8.73047 7.65219 9.03637 7.21399 9.33877C6.77579 9.64117 6.63299 9.43677 6.19479 9.73987C5.75659 10.043 6.09609 10.5365 5.65649 10.8396C5.21689 11.1427 4.88649 10.6632 4.44759 10.9663C4.00869 11.2694 4.15009 11.4745 3.71049 11.7783C3.27089 12.0821 3.19599 11.9757 2.75499 12.2802C2.31399 12.5847 1.66439 12.6239 1.60699 13.1566C1.55169 13.6767 2.16909 13.8713 2.53729 14.2423C2.90549 14.6133 3.29049 14.2318 3.65939 14.6028C4.02829 14.9738 3.83649 15.1649 4.20539 15.5366C4.57429 15.9083 4.56169 15.9216 4.93129 16.294C5.30089 16.6664 5.53399 16.4347 5.90429 16.8078C6.27459 17.1809 5.89239 17.5582 6.26199 17.9299C6.63159 18.3016 6.80939 18.1245 7.17829 18.4962C7.54719 18.8679 7.94339 18.4752 8.31229 18.8476C8.68119 19.22 8.73509 19.1675 9.10469 19.5399C9.47429 19.9123 8.77359 20.6074 9.14389 20.9798C9.51419 21.3522 9.84389 21.0239 10.2135 21.3956C10.5831 21.7673 10.2681 22.0802 10.6377 22.4526C11.0073 22.825 11.3552 22.4806 11.7248 22.8537C12.0944 23.2268 12.0888 23.2296 12.4577 23.6006C12.8266 23.9716 12.9344 23.8638 13.3026 24.2348C13.6708 24.6058 13.4041 24.8711 13.773 25.2428C14.1419 25.6145 14.6123 25.1504 14.9826 25.5235C15.3529 25.8966 15.341 25.9071 15.7106 26.2788C16.0802 26.6505 15.6266 27.1013 15.9962 27.4737C16.3658 27.8461 16.1075 28.1044 16.4785 28.4782C16.8495 28.852 16.9363 28.7645 17.3066 29.1376C17.6769 29.5107 18.4616 28.7323 18.8326 29.1054C19.2036 29.4785 18.8739 29.8026 19.2435 30.1743C19.6145 30.5481 19.9442 30.2205 20.3152 30.5943C20.6862 30.9681 20.2697 31.3825 20.6414 31.757C21.0131 32.1315 20.5868 32.5564 20.9599 32.9316C21.333 33.3068 22.747 32.793 22.7498 33.3222C22.7526 33.8451 21.9231 33.9228 21.5549 34.2938C21.1867 34.6648 20.5945 34.0775 20.2263 34.4485C19.8581 34.8195 20.1717 35.1317 19.8028 35.5034C19.4339 35.8751 19.4374 35.88 19.0685 36.2517C18.6996 36.6234 18.5981 36.524 18.2278 36.8964C17.8575 37.2688 17.6398 37.0511 17.2702 37.4228C16.9006 37.7945 17.4977 38.3867 17.1288 38.7584C16.7599 39.1301 16.8649 39.2344 16.4953 39.6068C16.1257 39.9792 15.4957 39.3541 15.1254 39.7265C14.7551 40.0989 14.8496 40.192 14.48 40.5644C14.1104 40.9368 13.9571 40.7842 13.5882 41.1566C13.2193 41.529 13.5553 41.8636 13.1857 42.236C12.8161 42.6084 12.7216 42.5153 12.3513 42.8884C11.981 43.2615 12.3772 43.6507 12.0083 44.0224C11.6394 44.3941 11.6009 44.3542 11.2327 44.7252C10.8645 45.0962 10.1372 44.3752 9.76899 44.7469C9.40079 45.1186 10.0273 45.7444 9.65699 46.1175C9.28669 46.4906 9.62759 46.8273 9.25799 47.1997C8.88839 47.5721 8.10439 46.7937 7.73479 47.1661C7.36519 47.5385 7.77329 47.9459 7.40299 48.3197C7.03269 48.6935 6.62459 48.2875 6.25429 48.6599C5.88399 49.0323 5.86719 49.0176 5.49689 49.3907C5.12659 49.7638 5.33869 49.9717 4.96909 50.3434C4.59809 50.7172 5.17839 51.2933 4.80739 51.6671C4.43639 52.0409 4.05769 51.6657 3.68599 52.0402C3.31429 52.4147 3.08119 52.1858 2.70879 52.561C2.33639 52.9362 1.74139 52.9453 1.79179 53.4717C1.84289 54.0016 2.67169 53.5445 3.10989 53.8469C3.54809 54.1493 3.09449 54.8052 3.53199 55.1076C3.96949 55.41 4.06049 55.2798 4.49799 55.5822C4.93549 55.8846 5.29809 55.3624 5.73629 55.6655C6.17449 55.9686 6.37399 55.6788 6.81219 55.9819C7.25039 56.285 7.01589 56.6245 7.45479 56.9269C7.89369 57.2293 7.86569 57.265 8.30249 57.5667C8.73929 57.8684 8.53629 58.1659 8.97449 58.469C9.41269 58.7721 9.65139 58.4249 10.0889 58.7273C10.5264 59.0297 10.6398 58.8659 11.0773 59.1683C11.5148 59.4707 11.2586 59.8438 11.6975 60.1476C12.1364 60.4514 11.8837 60.8154 12.3219 61.1185C12.7601 61.4216 13.2333 60.7377 13.6722 61.0408C14.1111 61.3439 13.5588 62.144 13.9984 62.4478C14.438 62.7516 14.8965 62.0866 15.3354 62.3897C15.7743 62.6928 15.6707 62.8447 16.1096 63.1478C16.5485 63.4509 16.4981 63.5279 16.9384 63.8324C17.3787 64.1369 17.3388 64.2916 17.8729 64.251C18.3881 64.2111 18.491 64.2314 18.855 63.8653C19.219 63.4992 18.5694 62.8531 18.9334 62.4863C19.2974 62.1195 19.5585 62.3792 19.9225 62.0131C20.2865 61.647 20.1829 61.5448 20.5462 61.1787C20.9095 60.8126 21.1104 61.0114 21.4737 60.6446C21.837 60.2778 22.3669 60.8028 22.7309 60.436C23.0949 60.0692 22.81 59.7864 23.1747 59.4196C23.5394 59.0528 22.964 58.4823 23.328 58.1162C23.692 57.7501 24.1526 58.2065 24.5166 57.8397C24.8806 57.4729 24.644 57.237 25.0087 56.8702C25.3734 56.5034 25.5974 56.7281 25.96 56.3627C26.3226 55.9973 26.5347 56.208 26.8973 55.8426C27.2599 55.4772 26.8035 55.0229 27.1668 54.6568C27.5301 54.2907 27.7086 54.465 28.0733 54.0975C28.438 53.73 27.9711 53.268 28.3351 52.9012C28.6991 52.5344 28.9623 52.7955 29.3263 52.4287C29.6903 52.0619 29.8156 52.1837 30.1803 51.8155C30.545 51.4473 30.2636 51.1687 30.6283 50.8012C30.993 50.4337 31.5516 50.9874 31.9163 50.6192C32.281 50.251 32.0031 49.978 32.3671 49.6119C32.7325 49.2437 33.1707 49.6784 33.5361 49.3102C33.9015 48.942 33.9687 49.0078 34.3348 48.6389C34.7009 48.27 34.5679 48.1356 34.9347 47.766C35.3015 47.3964 34.8514 47.0149 35.3722 47.0156C35.893 47.0163 35.3673 47.4734 35.7355 47.8437C36.1037 48.214 36.075 48.2427 36.4439 48.6144C36.8128 48.9861 37.0928 48.7061 37.4603 49.0764C37.8278 49.4467 38.3017 48.9763 38.6692 49.3466C39.0367 49.7169 38.3514 50.3973 38.7196 50.7676C39.0878 51.1379 39.7143 50.517 40.0825 50.888C40.4507 51.259 39.8529 51.8519 40.2211 52.2229C40.5893 52.5939 41.3712 51.8169 41.7394 52.1872C42.1076 52.5575 41.9326 52.7318 42.3008 53.1028C42.669 53.4738 42.3512 53.7902 42.7201 54.1612C43.089 54.5322 43.4264 54.1941 43.7939 54.5637C44.1614 54.9333 43.6497 55.4408 44.0158 55.8097C44.3819 56.1786 44.0746 56.4859 44.4414 56.8562C44.8082 57.2265 44.9881 57.0515 45.357 57.4232C45.7259 57.7949 45.9828 57.538 46.351 57.909C46.7192 58.28 46.295 58.7007 46.6632 59.0717C47.0314 59.4427 47.9253 58.5579 48.2942 58.9296C48.6631 59.3013 48.0079 59.9509 48.3768 60.3226C48.7457 60.6943 49.0523 60.3905 49.4212 60.7622C49.7901 61.1339 50.1352 60.7888 50.5027 61.1591C50.8723 61.5315 50.3592 62.0411 50.7288 62.4128C51.0984 62.7845 51.4883 62.3988 51.8586 62.7719C52.2289 63.145 51.755 63.6168 52.126 63.9913C52.497 64.3658 52.553 64.3007 53.0773 64.3469C53.6079 64.3938 53.7969 64.6801 54.2344 64.377C54.6719 64.0739 54.4332 63.7295 54.8707 63.4271C55.3082 63.1247 55.1451 62.8881 55.5826 62.585C56.0201 62.2819 55.794 61.9529 56.2322 61.6505C56.6704 61.3481 56.7999 61.5357 57.2381 61.2333C57.6763 60.9309 57.4873 60.6565 57.9255 60.3534C58.3637 60.0503 58.9818 60.9484 59.4186 60.6474C59.8554 60.3464 59.8015 60.2638 60.2397 59.9607C60.6779 59.6576 60.1305 58.868 60.568 58.5656C61.0055 58.2632 61.2645 58.6384 61.702 58.336C62.1395 58.0336 62.493 58.5425 62.9319 58.2387C63.3708 57.9349 63.0313 57.4449 63.4695 57.1425C63.9077 56.8401 63.6718 56.4971 64.1107 56.194C64.5496 55.8909 64.5909 55.949 65.0298 55.6459C65.4687 55.3428 65.8355 55.8734 66.2744 55.5703C66.7133 55.2672 66.4368 54.8661 66.8764 54.5623C67.316 54.2585 67.2117 54.1059 67.6527 53.8014C68.0937 53.4969 69.3404 54.2277 69.3943 53.695C69.4475 53.1693 68.8021 52.9355 68.4304 52.561C68.0587 52.1865 68.0153 52.2285 67.6429 51.854C67.2705 51.4795 66.9107 51.8358 66.5383 51.4606C66.1659 51.0854 66.5299 50.7235 66.1568 50.3476C65.7837 49.9717 65.5541 50.1992 65.1803 49.8233C64.8065 49.4474 64.4866 49.7666 64.1135 49.3907C63.7404 49.0148 63.529 49.2255 63.1566 48.8503C62.7842 48.4751 63.1153 48.1454 62.7429 47.7702C62.3705 47.395 62.605 47.1598 62.2319 46.7839C61.8588 46.408 61.5711 46.6929 61.198 46.317C60.8249 45.9411 61.2946 45.4756 60.9215 45.0997C60.5484 44.7238 60.1676 45.1011 59.7945 44.7252C59.4214 44.3493 59.8722 43.9006 59.4984 43.5247C59.1246 43.1488 58.9209 43.3539 58.5485 42.9787C58.1761 42.6035 58.2657 42.516 57.894 42.1415C57.5223 41.767 56.907 42.3767 56.5346 42.0015C56.1622 41.6263 56.4401 41.347 56.0663 40.9704C55.6925 40.5938 56.2609 40.031 55.8878 39.6551C55.5147 39.2792 54.6852 40.1024 54.3121 39.7265C53.939 39.3506 54.0545 39.233 53.68 38.8564C53.3055 38.4798 53.6562 38.1326 53.2824 37.756C52.9086 37.3794 52.6587 37.6265 52.2842 37.2499C51.9097 36.8733 51.8257 36.9594 51.4533 36.5835C51.0788 36.2062 51.2006 36.0851 50.8254 35.7078C50.4502 35.3305 50.2724 35.5062 49.8972 35.1282C49.522 34.7502 49.9448 34.3281 49.5689 33.9494C49.193 33.5707 48.9942 33.8591 48.9914 33.325C48.9886 32.7972 48.7569 32.6593 49.1293 32.2848C49.5017 31.9103 49.9602 32.3653 50.3319 31.9901C50.7036 31.6149 50.4698 31.3825 50.8422 31.0073C51.2146 30.6321 50.9388 30.3577 51.3119 29.9818C51.685 29.6059 52.3647 30.28 52.7385 29.9041C53.1123 29.5282 52.8589 29.2783 53.232 28.9024C53.6051 28.5265 53.6877 28.6098 54.0601 28.2339C54.4325 27.858 53.8984 27.3281 54.2715 26.9529C54.6446 26.5777 54.6516 26.5833 55.0247 26.2074C55.3978 25.8315 55.9165 26.346 56.2896 25.9694C56.6627 25.5928 56.214 25.1483 56.5871 24.7724C56.9602 24.3965 56.9609 24.3972 57.3347 24.0213C57.7085 23.6454 58.4666 24.3972 58.8404 24.0213C59.2142 23.6454 59.1281 23.5621 59.4998 23.1876C59.8715 22.8131 59.4074 22.3525 59.7791 21.978C60.1508 21.6035 60.491 21.9402 60.8634 21.5657C61.2358 21.1912 60.8144 20.7691 61.1882 20.3925C61.562 20.0159 61.6502 20.1048 62.0233 19.7289C62.3964 19.353 62.213 19.171 62.5861 18.7951C62.9592 18.4192 63.424 18.8784 63.7985 18.5011C64.173 18.1238 63.9413 17.8956 64.3151 17.519C64.6889 17.1424 65.1656 17.6149 65.5401 17.2376C65.9146 16.8603 65.6297 16.581 66.0021 16.2051C66.3766 15.8278 66.4137 15.8649 66.7889 15.4869C67.1641 15.1089 67.1963 15.1411 67.5715 14.7631C67.9467 14.3851 67.9607 14.4922 68.3891 14.173C68.7685 13.8902 68.6243 13.571 68.576 13.039L68.5746 13.0355Z" fill="white" stroke="#363737" stroke-width="2.1" stroke-linecap="round" stroke-linejoin="round"/>
</g>
</g>
<defs>
<clipPath id="clip0_608_11568">
<rect width="69.8943" height="119.775" fill="white" transform="translate(0.552734 0.612549)"/>
</clipPath>
</defs>
</svg>
