<svg width="25" height="25" viewBox="0 0 25 25" fill="none" xmlns="http://www.w3.org/2000/svg">
<g id="icon-pencil-mono (1)">
<rect x="0.75" y="1" width="23" height="23" rx="11.5" fill="#E3E6E9"/>
<rect x="0.75" y="1" width="23" height="23" rx="11.5" stroke="#F9FAFB"/>
<path id="Vector" fill-rule="evenodd" clip-rule="evenodd" d="M12.3515 9.50072L8.12351 13.7287L7.54684 15.8795L7.16753 17.2965C7.157 17.3361 7.15705 17.3777 7.16768 17.4173C7.17832 17.4568 7.19916 17.4929 7.22813 17.5219C7.2571 17.5508 7.29317 17.5717 7.33273 17.5823C7.37229 17.593 7.41395 17.593 7.45353 17.5825L8.86954 17.2027L11.0209 16.626H11.0213L15.2493 12.3981L12.3519 9.50072H12.3515ZM16.9975 9.99061L14.7599 7.75252C14.7166 7.70915 14.6652 7.67475 14.6086 7.65128C14.552 7.6278 14.4913 7.61572 14.43 7.61572C14.3687 7.61572 14.3081 7.6278 14.2515 7.65128C14.1949 7.67475 14.1434 7.70915 14.1001 7.75252L12.9454 8.90679L15.8432 11.8046L16.9975 10.6499C17.0408 10.6066 17.0753 10.5551 17.0987 10.4985C17.1222 10.4419 17.1343 10.3813 17.1343 10.32C17.1343 10.2587 17.1222 10.198 17.0987 10.1414C17.0753 10.0848 17.0408 10.0334 16.9975 9.99014" fill="#BFC5CC"/>
</g>
</svg>
