<svg width="20" height="17" viewBox="0 0 20 17" fill="none" xmlns="http://www.w3.org/2000/svg">
<g id="Group 3466524">
<path id="Vector" d="M18.5776 0.843867C18.2717 0.599156 17.9659 0.415623 17.5376 0.293267C17.0482 0.109734 16.6199 0.0485559 16.1917 0.109734C15.6411 0.109734 15.0905 0.293267 14.6011 0.660333C13.8669 1.21093 13.3163 2.06742 13.1328 2.98509L13.6834 3.10744C13.8669 2.37331 14.234 1.63918 14.907 1.14976C15.1517 0.966223 15.3964 0.843867 15.5799 0.78269C16.3141 1.39447 17.0482 1.82271 17.8435 1.94507H18.1494C18.3329 1.94507 18.5776 1.88389 18.7 1.76153C18.8223 1.63918 18.9447 1.51682 18.9447 1.33329C18.9447 1.27211 18.8223 1.0274 18.5776 0.843867Z" fill="#363737"/>
<path id="Vector_2" d="M19.749 3.07507C19.5406 2.90829 19.3321 2.7832 19.0402 2.69981C18.7066 2.57472 18.4148 2.53302 18.1229 2.57472C17.7476 2.57472 17.3724 2.69981 17.0388 2.94998C16.5384 3.32525 16.1632 3.90899 16.0381 4.53443L16.4134 4.61782C16.5384 4.11747 16.7886 3.61712 17.2473 3.28355C17.4141 3.15846 17.5808 3.07507 17.7059 3.03337C18.2063 3.45034 18.7066 3.74221 19.2487 3.8256H19.4572C19.5822 3.8256 19.749 3.7839 19.8324 3.70051C19.9158 3.61712 19.9992 3.53373 19.9992 3.40864C19.9992 3.36694 19.9158 3.20016 19.749 3.07507Z" fill="#363737"/>
<path id="Union" fill-rule="evenodd" clip-rule="evenodd" d="M13.5999 10.1073C15.7228 10.1073 17.4437 8.38639 17.4437 6.2635C17.4437 4.14062 15.7228 2.41968 13.5999 2.41968C11.477 2.41968 9.7561 4.14062 9.7561 6.2635C9.7561 6.50222 9.77786 6.73586 9.8195 6.96253C9.64614 6.9386 9.46908 6.92623 9.28913 6.92623C7.6839 6.92623 6.30849 7.91022 5.73316 9.30792C5.17521 8.9924 4.53055 8.81232 3.84382 8.81232C1.72094 8.81232 0 10.5333 0 12.6561C0 14.779 1.72094 16.5 3.84382 16.5C5.44906 16.5 6.82447 15.516 7.39979 14.1183C7.95774 14.4338 8.60241 14.6139 9.28913 14.6139C11.412 14.6139 13.133 12.8929 13.133 10.7701C13.133 10.5313 13.1112 10.2977 13.0695 10.071C13.2429 10.095 13.42 10.1073 13.5999 10.1073Z" fill="#34C184"/>
<circle id="Ellipse 432" cx="14.4719" cy="5.23224" r="0.647643" fill="#363737"/>
</g>
</svg>
