<svg width="30" height="30" viewBox="0 0 30 30" fill="none" xmlns="http://www.w3.org/2000/svg">
<g clip-path="url(#clip0_487_1211)">
<path d="M28.5973 8.64624C28.213 8.33881 27.7757 8.19432 27.2377 8.04061C26.9456 7.93147 26.6743 7.86922 26.4092 7.82926C26.1156 7.78468 25.8404 7.75701 25.5576 7.79774C25.2025 7.79774 24.8636 7.88997 24.5193 8.01217C24.1926 8.12746 23.8906 8.29116 23.5908 8.51558C22.6686 9.20729 23.2719 7.943 23.0413 9.09585C23.0513 9.25264 23.1958 9.20806 23.3495 9.24188C23.5417 9.28492 23.6708 9.43325 23.7876 9.27492C24.0182 8.35265 23.0982 9.70301 23.9436 9.08816C24.251 8.85759 24.5416 8.75307 24.7721 8.67621C25.0596 8.91601 25.3247 9.14119 25.6145 9.33103C25.9265 9.53547 26.2478 9.72377 26.5683 9.8598C26.9049 10.0028 27.2815 10.0043 27.6343 10.0589C27.8256 10.0727 27.8241 9.99507 28.0162 9.99507C28.2468 9.99507 28.6126 10.0673 28.7664 9.9136C28.9201 9.75989 29 9.54776 29 9.3172C29 9.24034 28.9055 8.87681 28.598 8.64624H28.5973Z" fill="#363737"/>
<path d="M22.2797 6.52116C22.5018 6.38974 22.4526 6.32287 22.7101 6.33133C23.0022 6.58726 23.2804 6.64951 23.544 6.78248C23.8353 6.93004 24.115 7.08298 24.4778 7.12372C24.5931 7.1314 24.5954 7.04148 24.7107 7.04148C24.8644 7.04148 25.1419 7.15062 25.2956 6.9969C25.4493 6.92005 25.4062 6.70331 25.4062 6.47274C25.4062 6.31903 25.4516 6.12766 25.1442 5.89709C24.9136 5.74338 24.6177 5.5889 24.3103 5.43518C24.0797 5.35833 23.6324 5.15081 23.0944 5.22767C22.7101 5.30453 22.3058 5.36832 21.9216 5.67574C21.6933 5.84636 21.5088 6.1169 21.3252 6.39896C21.163 6.64798 20.9509 6.90775 20.8586 7.22056C20.7733 7.50877 20.8056 7.81081 20.8056 8.13592C21.1184 8.28271 21.1545 8.27887 21.4643 8.12593C21.4281 7.80159 21.5142 7.508 21.651 7.22286C21.8063 6.90083 22.076 6.6841 22.2797 6.52116Z" fill="#363737"/>
<path d="M20.0232 7.68634C19.6412 7.68634 19.2853 7.90154 18.9257 7.97686C18.5544 8.05525 18.1725 8.07062 17.8335 8.22126C17.4892 8.37421 17.1541 8.55559 16.8528 8.77386C16.5493 8.99367 16.248 9.23423 15.9974 9.51091C15.7469 9.7876 15.4971 10.0866 15.308 10.4109C15.1205 10.7314 15.1205 11.1418 15.0021 11.5007C14.8869 11.8512 14.7347 12.2155 14.6932 12.5936C14.2636 12.4829 13.8009 12.4276 13.3367 12.4276C12.9816 12.4276 12.6473 12.486 12.3114 12.5521C11.9655 12.6198 11.6335 12.6912 11.3146 12.8219C10.9902 12.9548 10.712 13.1508 10.4238 13.3414C10.1325 13.5336 9.76668 13.6343 9.51844 13.8779C9.27019 14.1215 9.11187 14.4828 8.91435 14.7694C8.65534 14.6295 8.3556 14.512 8.07354 14.4151C7.79609 14.3198 7.52939 14.1661 7.2335 14.1169C6.94529 14.0693 6.64401 14.027 6.34196 14.027C5.98228 14.027 5.61413 14.0308 5.2752 14.0977C4.9255 14.1669 4.61961 14.3936 4.29758 14.5266C3.97017 14.6626 3.62355 14.7633 3.33303 14.9585C3.03944 15.1552 2.81963 15.4419 2.57062 15.6902C2.3216 15.9384 1.99958 16.1352 1.80282 16.4288C1.60838 16.72 1.57379 17.1028 1.43776 17.4302C1.30403 17.7522 1.18029 18.0712 1.11112 18.4209C1.04425 18.7606 1.00352 19.1026 1.00352 19.4615C1.00352 19.8204 0.981229 20.1747 1.04886 20.5144C1.11803 20.8641 1.20258 21.2131 1.33631 21.5351C1.47234 21.8625 1.68293 22.153 1.87814 22.4443C2.0749 22.7379 2.23937 23.0668 2.48838 23.3151C2.7374 23.5633 3.07787 23.7117 3.37069 23.9084C3.66198 24.1029 3.97171 24.2566 4.29912 24.3926C4.62115 24.5263 4.94548 24.6524 5.29518 24.7216C5.63488 24.7884 5.98228 24.7892 6.34196 24.7892C6.69704 24.7892 7.0329 24.7538 7.36876 24.6885C7.71462 24.6209 8.06508 24.5901 8.38404 24.4603C8.70837 24.3273 9.05422 24.2151 9.34244 24.0245C9.63372 23.8323 9.89119 23.5772 10.1387 23.3343C10.3861 23.0914 10.5806 22.7932 10.7773 22.5066C11.0364 22.6464 11.29 22.8148 11.5728 22.9116C11.8503 23.0069 12.1439 23.0991 12.439 23.1483C12.7272 23.196 13.0339 23.2313 13.3351 23.2313C13.7171 23.2313 14.0845 23.0853 14.4442 23.0092C14.8154 22.9308 15.1405 22.7579 15.4787 22.608C15.823 22.4551 16.2334 22.4174 16.5347 22.1984C16.8382 21.9786 17.0581 21.6504 17.3086 21.3737C17.5592 21.097 17.8074 20.8134 17.9965 20.4891C18.184 20.1686 18.3777 19.8358 18.496 19.4777C18.6113 19.1272 18.6129 18.6983 18.6544 18.3202C19.084 18.4309 19.5574 18.4862 20.0209 18.4862C20.3798 18.4862 20.7149 18.4209 21.0538 18.3532C21.4035 18.2841 21.7501 18.2449 22.0722 18.1111C22.3996 17.9751 22.6732 17.7591 22.9637 17.5639C23.2573 17.3672 23.6362 17.2719 23.8844 17.0236C24.1327 16.7754 24.3125 16.4518 24.5085 16.159C24.703 15.8677 24.8951 15.5634 25.0304 15.2359C25.1641 14.9139 25.2325 14.5611 25.3017 14.2114C25.3685 13.8717 25.4308 13.5197 25.4308 13.1608C25.4308 12.8019 25.4561 12.4322 25.3885 12.0925C25.3193 11.7428 25.078 11.4423 24.9443 11.1203C24.8083 10.7929 24.6353 10.497 24.4401 10.2065C24.2434 9.91287 24.0043 9.67231 23.7553 9.42406C23.5063 9.17582 23.3464 8.81536 23.0536 8.61861C22.7623 8.42416 22.4165 8.29965 22.0891 8.16362C21.767 8.02989 21.4204 7.94381 21.0707 7.87464C20.731 7.80777 20.3782 7.68711 20.0193 7.68711L20.0232 7.68634Z" stroke="#363737" stroke-width="1.5" stroke-miterlimit="10" stroke-linejoin="round"/>
<path d="M22.0214 10.7736C22.3611 10.7736 22.6247 10.8812 22.8476 11.1041C23.0705 11.327 23.1981 11.5906 23.1981 11.9303C23.1981 12.27 23.1381 12.6013 22.916 12.8241C22.6939 13.047 22.3619 13.0662 22.0222 13.0662C21.6825 13.0662 21.3166 13.0808 21.0938 12.8587C20.8709 12.6366 20.8132 12.27 20.8132 11.9303C20.8132 11.5906 20.9523 11.3062 21.1752 11.0834C21.3981 10.8605 21.6817 10.7736 22.0214 10.7736Z" fill="#363737"/>
</g>
<defs>
<clipPath id="clip0_487_1211">
<rect width="30" height="30" fill="white"/>
</clipPath>
</defs>
</svg>
