<svg width="18" height="21" viewBox="0 0 18 21" fill="none" xmlns="http://www.w3.org/2000/svg">
<g id="Group 3466621">
<g id="Group 6">
<path id="Fill 2" fill-rule="evenodd" clip-rule="evenodd" d="M3.60645 13.4107H14.207L11.0417 9.14583V4.64151C11.5054 4.64151 11.8817 4.26517 11.8817 3.80147C11.8817 3.33777 11.5054 2.96143 11.0417 2.96143H6.77257C6.30803 2.96143 5.93253 3.33777 5.93253 3.80147C5.93253 4.26517 6.30803 4.64151 6.77257 4.64151V9.14583L3.60645 13.4107Z" fill="white"/>
<path id="Fill 4" fill-rule="evenodd" clip-rule="evenodd" d="M17.4779 17.8187L14.2059 13.411H3.60541L0.334276 17.8187C-0.488967 18.9276 0.302355 20.5001 1.68339 20.5001H16.1288C17.5098 20.5001 18.3003 18.9276 17.4779 17.8187Z" fill="url(#paint0_linear_1107_9199)"/>
</g>
<g id="Group 3466610">
<path id="Vector" d="M10.2678 0.5H7.54588C7.01248 0.5 6.58008 0.929377 6.58008 1.45904V3.33582C6.58008 3.86548 7.01248 4.29486 7.54588 4.29486H10.2678C10.8012 4.29486 11.2336 3.86548 11.2336 3.33582V1.45904C11.2336 0.929377 10.8012 0.5 10.2678 0.5Z" fill="#1BAE6E"/>
<path id="Vector_2" d="M11.1967 2.99329H6.61521C6.08182 2.99329 5.64941 3.42244 5.64941 3.95182C5.64941 4.48121 6.08182 4.91036 6.61521 4.91036H11.1967C11.7301 4.91036 12.1625 4.48121 12.1625 3.95182C12.1625 3.42244 11.7301 2.99329 11.1967 2.99329Z" fill="#34C184"/>
</g>
<g id="Group 3466620">
<circle id="Ellipse 436" cx="8.94367" cy="11.7128" r="0.793284" fill="#34C184"/>
<ellipse id="Ellipse 437" cx="10.8956" cy="12.3719" rx="0.543075" ry="0.543075" fill="#34C184"/>
<ellipse id="Ellipse 438" cx="10.8956" cy="10.5887" rx="0.543075" ry="0.543075" fill="#B9DAA1"/>
</g>
</g>
<defs>
<linearGradient id="paint0_linear_1107_9199" x1="8.9059" y1="13.411" x2="8.9059" y2="20.5001" gradientUnits="userSpaceOnUse">
<stop stop-color="#9FE394"/>
<stop offset="1" stop-color="#34C184"/>
</linearGradient>
</defs>
</svg>
