<svg width="31" height="30" viewBox="0 0 31 30" fill="none" xmlns="http://www.w3.org/2000/svg">
<g clip-path="url(#clip0_428_4324)">
<path d="M12.5371 26.0391C12.6599 25.81 12.7752 25.5666 12.9131 25.3458C13.051 25.125 13.3849 25.0353 13.5371 24.825C13.6893 24.6148 13.6855 24.2809 13.8513 24.0812C14.0171 23.8815 14.2975 23.7783 14.4776 23.5899C14.565 23.4889 14.7089 23.4369 14.8099 23.5243C14.8506 23.5597 14.8574 23.626 14.8679 23.6796C14.9328 23.932 15.1257 24.1596 15.1732 24.4151C15.2206 24.6705 15.0089 24.9659 15.0383 25.2244C15.0676 25.4829 15.3231 25.7226 15.3359 25.9825C15.3487 26.2425 15.2689 26.5123 15.2636 26.7723C15.1973 27.0082 14.9501 27.1152 14.7858 27.275C14.6162 27.4393 14.4987 27.6608 14.2703 27.7188C14.0488 27.7754 13.7865 27.8349 13.5507 27.7686C13.3216 27.7038 13.1746 27.4799 13.0171 27.3217C12.8551 27.1589 12.8295 26.9539 12.7669 26.7331C12.7059 26.5184 12.4376 26.339 12.4934 26.1069C12.4866 26.0549 12.5371 26.0406 12.5371 26.0391Z" stroke="#363737" stroke-width="1.3" stroke-miterlimit="10"/>
<path d="M18.6721 26.082C18.795 25.8529 18.9163 25.6208 19.0542 25.4008C19.1921 25.1807 19.3835 24.9961 19.5358 24.7851C19.688 24.5741 19.7927 24.3261 19.9593 24.1264C20.1258 23.9267 20.2343 23.6705 20.4137 23.4821C20.5011 23.3811 20.6955 23.5145 20.7973 23.6012C20.838 23.6366 20.9616 23.614 20.9721 23.6667C21.0369 23.9192 21.1492 24.1649 21.1959 24.4203C21.2427 24.6758 21.306 24.9373 21.3353 25.1958C21.3647 25.4543 21.1613 25.7323 21.1741 25.9923C21.1869 26.2523 21.3971 26.5221 21.3926 26.7829C21.3263 27.0187 21.0708 27.1838 20.9065 27.3428C20.737 27.5071 20.5561 27.6714 20.327 27.7294C20.1055 27.7859 19.8621 27.758 19.6262 27.6917C19.3971 27.6269 19.1017 27.6065 18.9434 27.4483C18.7814 27.2855 18.8726 26.9562 18.81 26.7354C18.749 26.5206 18.5124 26.2998 18.5681 26.0677C18.5696 26.0609 18.6714 26.0813 18.6714 26.0813L18.6721 26.082Z" stroke="#363737" stroke-width="1.3" stroke-miterlimit="10"/>
<path d="M6.61001 26.1069C6.73285 25.8778 6.81876 25.6284 6.95742 25.4083C7.09608 25.1883 7.32593 25.033 7.47891 24.822C7.63189 24.611 7.78789 24.4113 7.95443 24.2116C8.12098 24.0119 8.25135 23.7843 8.43146 23.5967C8.51888 23.4957 8.72009 23.3638 8.82182 23.4512C8.86252 23.4866 8.72084 23.6486 8.73139 23.7014C8.7962 23.9539 8.9537 24.1829 9.00118 24.4384C9.04866 24.6939 9.09839 24.9509 9.12854 25.2094C9.15868 25.4678 9.12477 25.7308 9.13683 25.9908C9.14889 26.2508 9.22274 26.5138 9.21746 26.7746C9.15115 27.0105 9.07654 27.2998 8.91226 27.4588C8.7427 27.6231 8.42543 27.5749 8.19709 27.6329C7.97553 27.6894 7.74342 27.81 7.50755 27.7429C7.27845 27.6781 7.01846 27.5862 6.86096 27.4279C6.69894 27.2652 6.53164 27.0248 6.46909 26.804C6.40805 26.5892 6.61378 26.3616 6.66879 26.1302C6.67633 26.1114 6.61077 26.1099 6.61152 26.1084L6.61001 26.1069Z" stroke="#363737" stroke-width="1.3" stroke-miterlimit="10"/>
<path d="M28.3551 14.9951C28.3551 14.7562 28.4591 14.5083 28.4297 14.2777C28.3996 14.0418 28.1185 13.8579 28.0604 13.6326C28.0009 13.4035 28.1215 13.1209 28.0348 12.9039C27.9467 12.6846 27.7658 12.5075 27.652 12.3025C27.5374 12.0968 27.5096 11.8277 27.3709 11.6393C27.2322 11.4509 26.9481 11.3778 26.7861 11.2075C26.6241 11.0372 26.4809 10.8548 26.2985 10.7064C26.1162 10.5579 26.0205 10.2753 25.82 10.151C25.621 10.0274 25.3671 9.97463 25.1531 9.87666C24.9405 9.77945 24.7273 9.6438 24.502 9.57296C24.2796 9.50363 23.991 9.58879 23.7574 9.54734C23.7687 9.38984 23.6745 9.20521 23.6745 9.04544C23.6745 8.79676 23.7009 8.56163 23.6745 8.32048C23.6474 8.07406 23.8343 7.7907 23.78 7.55332C23.725 7.31217 23.5909 7.08232 23.5102 6.85172C23.4288 6.61886 23.3015 6.39805 23.1952 6.178C23.0882 5.95644 22.9232 5.76428 22.7928 5.55704C22.6624 5.3498 22.6014 5.08453 22.4484 4.89312C22.2954 4.7017 22.1243 4.51029 21.951 4.33696C21.7777 4.16363 21.5524 4.03477 21.361 3.88179C21.1695 3.72881 20.8787 3.72202 20.6707 3.5909C20.4627 3.45977 20.3541 3.15456 20.1326 3.04755C19.9125 2.9413 19.6412 2.94205 19.4084 2.86066C19.1785 2.78003 18.9411 2.72351 18.7008 2.66849C18.4634 2.61423 18.2298 2.51853 17.9833 2.4914C17.7422 2.46427 17.4927 2.52003 17.2448 2.52003C17.0097 2.52003 16.7904 2.62102 16.562 2.64513C16.3292 2.67 16.0699 2.50496 15.8446 2.55319C15.6163 2.60218 15.4226 2.78304 15.2033 2.85539C14.9817 2.92849 14.7933 3.06338 14.5831 3.15909C14.3706 3.25555 14.1859 3.37763 13.9862 3.49519C13.7858 3.61351 13.4685 3.55322 13.2824 3.69113C13.0962 3.82904 13.0495 4.13801 12.8792 4.29476C12.7089 4.45151 12.4481 4.51707 12.2952 4.69191C12.1422 4.86674 12.042 5.08378 11.9078 5.27368C11.7737 5.46359 11.629 5.64069 11.5152 5.8434C11.2462 5.7899 10.9696 5.89992 10.684 5.89992C10.433 5.89992 10.167 5.67008 9.92811 5.71152C9.68244 5.75448 9.50459 6.04461 9.27625 6.12826C9.04339 6.21342 8.79696 6.23754 8.5852 6.35962C8.37118 6.48321 8.07124 6.49903 7.88285 6.65729C7.69445 6.81555 7.61155 7.09588 7.45329 7.28428C7.29504 7.47268 7.20837 7.70328 7.08478 7.91731C6.9627 8.12907 6.75094 8.29938 6.66578 8.53224C6.58213 8.76134 6.43292 8.99194 6.38997 9.23761C6.34852 9.4765 6.59042 9.74403 6.59042 9.99498C6.59042 10.0899 6.47512 10.2052 6.48115 10.2979C6.23322 10.3311 5.97926 10.3612 5.74413 10.4283C5.50449 10.4969 5.2234 10.4728 4.99958 10.5737C4.77274 10.6755 4.58585 10.8729 4.37786 11.0048C4.16911 11.1374 4.08471 11.4261 3.89706 11.5866C3.70942 11.7471 3.53157 11.8918 3.36879 12.0779C3.20601 12.2641 2.96562 12.3801 2.83072 12.5874C2.69658 12.7938 2.48633 12.9679 2.38233 13.194C2.27984 13.4171 2.28964 13.6914 2.2188 13.9303C2.14947 14.1646 2.04547 14.3975 2.01005 14.6454C1.97539 14.8866 2.09219 15.139 2.09219 15.39C2.09219 15.6409 1.96408 15.8926 1.99875 16.133C2.03417 16.3795 2.04698 16.6395 2.11556 16.8738C2.18564 17.112 2.27155 17.3576 2.37329 17.5799C2.47578 17.8045 2.79681 17.9078 2.92944 18.1135C3.06283 18.3207 3.00028 18.6757 3.16155 18.8611C3.32282 19.0464 3.59186 19.1399 3.77799 19.3012C3.96413 19.4624 4.24523 19.4805 4.45171 19.6139C4.65744 19.7465 4.83529 19.898 5.05986 20.0005C5.28218 20.1022 5.44797 20.3592 5.68535 20.4293C5.91897 20.4979 6.19855 20.3615 6.44498 20.3961C6.68538 20.4301 6.91522 20.5077 7.16467 20.5077C7.52489 20.5077 7.52489 20.6471 7.88511 20.6471C8.24533 20.6471 8.24533 20.5476 8.60479 20.5476C8.96426 20.5476 8.96501 20.6064 9.32523 20.6064C9.68545 20.6064 9.68621 20.5582 10.0464 20.5582C10.4066 20.5582 10.4074 20.4843 10.7676 20.4843C11.1278 20.4843 11.1278 20.5574 11.4881 20.5574C11.8483 20.5574 11.8483 20.4647 12.2093 20.4647C12.5702 20.4647 12.5702 20.4301 12.9312 20.4301C13.2922 20.4301 13.2907 20.5318 13.6501 20.5318C14.0096 20.5318 14.0096 20.6818 14.3683 20.6818C14.727 20.6818 14.7278 20.6087 15.088 20.6087C15.4482 20.6087 15.449 20.4203 15.8107 20.4203C16.1724 20.4203 16.1709 20.623 16.5319 20.623C16.8929 20.623 16.8921 20.4715 17.2531 20.4715C17.6141 20.4715 17.6148 20.5084 17.9765 20.5084C18.3383 20.5084 18.3375 20.6094 18.6985 20.6094C19.0595 20.6094 19.0602 20.6833 19.4219 20.6833C19.7837 20.6833 19.7822 20.629 20.1424 20.629C20.5041 20.629 20.5041 20.6516 20.8666 20.6516C21.2291 20.6516 21.2291 20.5047 21.5916 20.5047C21.954 20.5047 21.9548 20.4775 22.3188 20.4775C22.6828 20.4775 22.6835 20.6426 23.0475 20.6365C23.0535 20.6365 23.0324 20.467 23.0385 20.4662C23.2774 20.4564 23.5064 20.4331 23.737 20.3939C23.9722 20.3539 24.1832 20.2695 24.407 20.201C24.6346 20.1316 24.8577 20.0864 25.0717 19.99C25.288 19.892 25.5276 19.8498 25.7281 19.7262C25.9293 19.6019 26.2028 19.5649 26.3859 19.4172C26.5691 19.2695 26.6535 18.999 26.817 18.8294C26.9805 18.6599 27.1554 18.4978 27.2963 18.3079C27.4372 18.118 27.6814 17.9831 27.7967 17.7766C27.912 17.5717 27.8133 17.2574 27.9014 17.0374C27.9889 16.8196 28.0356 16.5988 28.0959 16.3682C28.1546 16.1421 28.4131 15.9499 28.4433 15.7133C28.4727 15.4819 28.3581 15.2317 28.3581 14.9921L28.3551 14.9951Z" stroke="#363737" stroke-width="1.5" stroke-miterlimit="10"/>
</g>
<defs>
<clipPath id="clip0_428_4324">
<rect width="30" height="30" fill="white" transform="translate(0.110229)"/>
</clipPath>
</defs>
</svg>
