<svg xmlns="http://www.w3.org/2000/svg" width="11" height="11" viewBox="0 0 11 11" fill="none">
<path fill-rule="evenodd" clip-rule="evenodd" d="M4.01122 8.9126C4.13913 8.9126 4.26705 8.86426 4.36497 8.76635L7.48997 5.64135C7.58363 5.54753 7.63623 5.42037 7.63623 5.2878C7.63623 5.15524 7.58363 5.02808 7.48997 4.93426L4.36497 1.80926C4.2712 1.71544 4.14401 1.66271 4.01137 1.66267C3.87872 1.66263 3.7515 1.71529 3.65768 1.80905C3.56386 1.90282 3.51113 2.03001 3.51109 2.16266C3.51105 2.2953 3.5637 2.42253 3.65747 2.51635L6.42913 5.2876L3.65747 8.05843C3.58752 8.12841 3.53989 8.21756 3.5206 8.31461C3.50131 8.41165 3.51122 8.51224 3.54908 8.60365C3.58694 8.69507 3.65105 8.77321 3.7333 8.8282C3.81556 8.88319 3.91227 8.91256 4.01122 8.9126Z" fill="#363737"/>
</svg>