<svg width="19" height="19" viewBox="0 0 19 19" fill="none" xmlns="http://www.w3.org/2000/svg">
<g id="Vector">
<path fill-rule="evenodd" clip-rule="evenodd" d="M6.35495 11.2697L1.23751 16.3872L1.23751 12.4124C1.23751 12.0704 0.960416 11.7933 0.618791 11.7937C0.276801 11.7937 7.4477e-05 12.0704 7.4477e-05 12.4124L7.44009e-05 17.8813C7.44009e-05 17.8813 0.0008037 17.8849 0.0008037 17.8871C0.00153289 17.9659 0.0172105 18.0443 0.0474718 18.1175C0.110182 18.2692 0.230498 18.3895 0.382169 18.4522C0.455817 18.4829 0.53384 18.4982 0.612593 18.4989C0.61478 18.4989 0.616603 18.5 0.618791 18.5H6.08771C6.25834 18.5 6.41292 18.4307 6.52485 18.3188C6.63715 18.2065 6.70642 18.0519 6.70642 17.8813C6.70642 17.5393 6.42933 17.2622 6.08771 17.2626L2.11253 17.2622L7.22998 12.1448C7.47171 11.903 7.47171 11.5115 7.22998 11.2697C6.98862 11.0284 6.59668 11.028 6.35495 11.2697Z" fill="#34C184"/>
<path fill-rule="evenodd" clip-rule="evenodd" d="M6.35495 7.73027L1.23751 2.61282L1.23751 6.58763C1.23751 6.92962 0.960416 7.20671 0.618791 7.20635C0.276801 7.20635 7.4477e-05 6.92962 7.4477e-05 6.58763L7.44009e-05 1.11872C7.44009e-05 1.11872 0.0008037 1.11507 0.0008037 1.11288C0.00153289 1.03413 0.0172105 0.955743 0.0474718 0.882459C0.110182 0.730788 0.230498 0.610472 0.382169 0.547762C0.455817 0.517136 0.53384 0.501823 0.612593 0.501094C0.61478 0.501094 0.616603 0.5 0.618791 0.5H6.08771C6.25834 0.5 6.41292 0.569273 6.52485 0.681203C6.63715 0.793498 6.70642 0.948086 6.70642 1.11872C6.70642 1.46071 6.42933 1.7378 6.08771 1.73743L2.11253 1.7378L7.22998 6.85524C7.47171 7.09697 7.47171 7.48854 7.22998 7.73027C6.98862 7.97163 6.59668 7.97199 6.35495 7.73027Z" fill="#34C184"/>
<path fill-rule="evenodd" clip-rule="evenodd" d="M12.3743 11.2697L17.4918 16.3872L17.4918 12.4124C17.4918 12.0704 17.7689 11.7933 18.1105 11.7937C18.4525 11.7937 18.7292 12.0704 18.7292 12.4124V17.8813C18.7292 17.8813 18.7285 17.8849 18.7285 17.8871C18.7278 17.9659 18.7121 18.0443 18.6818 18.1175C18.6191 18.2692 18.4988 18.3895 18.3471 18.4522C18.2735 18.4829 18.1954 18.4982 18.1167 18.4989C18.1145 18.4989 18.1127 18.5 18.1105 18.5H12.6416C12.471 18.5 12.3164 18.4307 12.2044 18.3188C12.0921 18.2065 12.0229 18.0519 12.0229 17.8813C12.0229 17.5393 12.3 17.2622 12.6416 17.2626L16.6168 17.2622L11.4993 12.1448C11.2576 11.903 11.2576 11.5115 11.4993 11.2697C11.7407 11.0284 12.1326 11.028 12.3743 11.2697Z" fill="#34C184"/>
<path fill-rule="evenodd" clip-rule="evenodd" d="M12.3743 7.73027L17.4918 2.61282L17.4918 6.58763C17.4918 6.92962 17.7689 7.20671 18.1105 7.20635C18.4525 7.20635 18.7292 6.92962 18.7292 6.58763V1.11872C18.7292 1.11872 18.7285 1.11507 18.7285 1.11288C18.7278 1.03413 18.7121 0.955743 18.6818 0.882459C18.6191 0.730788 18.4988 0.610472 18.3471 0.547762C18.2735 0.517136 18.1954 0.501823 18.1167 0.501094C18.1145 0.501094 18.1127 0.5 18.1105 0.5H12.6416C12.471 0.5 12.3164 0.569273 12.2044 0.681203C12.0921 0.793498 12.0229 0.948086 12.0229 1.11872C12.0229 1.46071 12.3 1.7378 12.6416 1.73743L16.6168 1.7378L11.4993 6.85524C11.2576 7.09697 11.2576 7.48854 11.4993 7.73027C11.7407 7.97163 12.1326 7.97199 12.3743 7.73027Z" fill="#34C184"/>
</g>
</svg>
