<svg width="24" height="24" viewBox="0 0 24 24" fill="none" xmlns="http://www.w3.org/2000/svg">
<g id="Frame 3469159">
<g id="Group 3466608">
<path id="Vector" d="M7.53701 13.6268C7.53701 12.7279 6.79245 11.9993 5.87398 11.9993C4.95551 11.9993 4.21094 12.7279 4.21094 13.6268V19.3725C4.21094 20.2714 4.95551 21 5.87398 21C6.79245 21 7.53701 20.2714 7.53701 19.3725V13.6268Z" fill="#D1D6DB"/>
<path id="Vector_2" d="M4.31701 8.16626H8.4663V14.4265H4.08138C2.38058 14.4265 1 13.0769 1 11.4124C1 9.62081 2.48631 8.16626 4.31701 8.16626Z" fill="#8B95A1"/>
<path id="Vector_3" d="M20.546 9.41528H19.543C18.5069 9.41528 17.667 10.2373 17.667 11.2512V11.2527C17.667 12.2666 18.5069 13.0886 19.543 13.0886H20.546C21.5821 13.0886 22.422 12.2666 22.422 11.2527V11.2512C22.422 10.2373 21.5821 9.41528 20.546 9.41528Z" fill="#D1D6DB"/>
<path id="Vector_4" d="M17.3227 18.6569L8.4668 14.4263V8.16614L17.3227 4.01978V18.6569Z" fill="#D1D6DB"/>
<path id="Vector_5" d="M18.9395 19.4361L17.3232 18.6571V4.01991L18.8821 3.14333C19.6071 2.73535 20.5119 3.24681 20.5119 4.06573V18.4797C20.5119 19.2691 19.6645 19.7849 18.941 19.4361H18.9395Z" fill="#8B95A1"/>
</g>
</g>
</svg>
