<svg width="25" height="24" viewBox="0 0 25 24" fill="none" xmlns="http://www.w3.org/2000/svg">
    <g id="icon-book-opened-mono 5">
        <g id="Group 3466517">
            <path id="Vector" fill-rule="evenodd" clip-rule="evenodd" d="M12.5073 8.05407C12.7366 8.20561 13.0328 8.20561 13.2615 8.05407C13.9899 7.57329 15.5759 6.42402 16.2591 5.13803C17.1598 3.44151 16.1021 1.74982 14.7042 1.74982C13.9069 1.74982 13.4275 2.1662 13.1623 2.52403C13.0507 2.67729 12.8362 2.71138 12.6826 2.5998C12.6533 2.57879 12.6278 2.55296 12.6068 2.52403C12.3416 2.16585 11.8622 1.74982 11.0652 1.74982C9.66698 1.74982 8.60933 3.44151 9.51028 5.13803C10.1929 6.42402 11.7792 7.57329 12.5073 8.05407Z" fill="#9FE394"/>
            <path id="Vector_2" d="M21.2719 8.34905C20.9543 8.10474 18.9266 8.17803 18.9266 8.17803C14.9443 8.22689 13.1853 10.9876 12.8922 11.525C12.599 10.9876 10.84 8.22689 6.85777 8.17803C6.85777 8.17803 4.85444 8.10474 4.51241 8.34905C4.19481 8.59336 3.99937 8.88652 4.04823 9.47286C4.09709 10.0592 4.56127 16.289 11.8661 16.0692V19.1719V19.5628V21.2241C11.8661 21.786 12.3303 22.2502 12.8922 22.2502C13.4541 22.2502 13.9183 21.786 13.9183 21.2241V19.5628V19.1719V16.0692C21.1986 16.289 21.6872 10.0592 21.7117 9.47286C21.785 8.86209 21.6139 8.56892 21.2719 8.34905Z" fill="#34C184"/>
        </g>
    </g>
</svg>
