<svg width="24" height="24" viewBox="0 0 24 24" fill="none" xmlns="http://www.w3.org/2000/svg">
<g id="icon-book-opened-mono 1">
<path id="Vector" d="M21.958 3.85542C21.5809 3.56536 19.1734 3.65237 19.1734 3.65237C14.4455 3.71038 12.3571 6.98805 12.009 7.62618C11.6609 6.98805 9.57249 3.71038 4.84453 3.65237C4.84453 3.65237 2.46605 3.56536 2.05996 3.85542C1.68289 4.14547 1.45084 4.49355 1.50885 5.18969C1.56686 5.88583 2.11798 13.2823 10.7907 13.0213V16.705V17.1691V19.1415C10.7907 19.8087 11.3419 20.3598 12.009 20.3598C12.6761 20.3598 13.2272 19.8087 13.2272 19.1415V17.1691V16.705V13.0213C21.871 13.2823 22.4511 5.88583 22.4801 5.18969C22.5671 4.46454 22.3641 4.11647 21.958 3.85542Z" fill="#8B95A1"/>
</g>
</svg>
