<svg width="21" height="21" viewBox="0 0 21 21" fill="none" xmlns="http://www.w3.org/2000/svg">
<g id="icon-book-opened-mono 1" clip-path="url(#clip0_628_12048)">
<path id="Vector" d="M19.981 2.35542C19.6039 2.06536 17.1964 2.15237 17.1964 2.15237C12.4684 2.21038 10.38 5.48805 10.0319 6.12618C9.68387 5.48805 7.59544 2.21038 2.86748 2.15237C2.86748 2.15237 0.488995 2.06536 0.0829121 2.35542C-0.294165 2.64547 -0.52621 2.99355 -0.468198 3.68969C-0.410186 4.38583 0.140926 11.7823 8.81369 11.5213V15.205V15.6691V17.6415C8.81369 18.3087 9.3648 18.8598 10.0319 18.8598C10.6991 18.8598 11.2502 18.3087 11.2502 17.6415V15.6691V15.205V11.5213C19.8939 11.7823 20.4741 4.38583 20.5031 3.68969C20.5901 2.96454 20.387 2.61647 19.981 2.35542Z" fill="#34C184"/>
</g>
<defs>
<clipPath id="clip0_628_12048">
<rect width="20" height="20" fill="white" transform="translate(0.0229492 0.5)"/>
</clipPath>
</defs>
</svg>
