<svg width="19" height="22" viewBox="0 0 19 22" fill="none" xmlns="http://www.w3.org/2000/svg">
<path fill-rule="evenodd" clip-rule="evenodd" d="M8.87267 7.05401C9.10204 7.20554 9.39822 7.20554 9.6269 7.05401C10.3553 6.57322 11.9413 5.42396 12.6246 4.13797C13.5252 2.44145 12.4675 0.749756 11.0696 0.749756C10.2723 0.749756 9.79291 1.16614 9.52772 1.52397C9.41613 1.67723 9.20157 1.71132 9.04797 1.59974C9.01869 1.57873 8.99321 1.5529 8.9722 1.52397C8.70701 1.16579 8.22761 0.749756 7.43066 0.749756C6.0324 0.749756 4.97474 2.44145 5.87569 4.13797C6.5583 5.42396 8.1446 6.57322 8.87267 7.05401Z" fill="#B0B8C1"/>
<path d="M17.6373 7.34905C17.3197 7.10474 15.292 7.17803 15.292 7.17803C11.3098 7.22689 9.55075 9.98757 9.25758 10.525C8.96441 9.98757 7.2054 7.22689 3.22318 7.17803C3.22318 7.17803 1.21986 7.10474 0.877828 7.34905C0.560228 7.59336 0.364784 7.88652 0.413645 8.47286C0.462507 9.0592 0.926692 15.289 8.23149 15.0692V18.1719V18.5628V20.2241C8.23149 20.786 8.69567 21.2502 9.25758 21.2502C9.81949 21.2502 10.2837 20.786 10.2837 20.2241V18.5628V18.1719V15.0692C17.564 15.289 18.0527 9.0592 18.0771 8.47286C18.1504 7.86209 17.9794 7.56892 17.6373 7.34905Z" fill="#8B95A1"/>
</svg>
