<svg width="22" height="18" viewBox="0 0 22 18" fill="none" xmlns="http://www.w3.org/2000/svg">
<path fill-rule="evenodd" clip-rule="evenodd" d="M10.5508 17.826C10.1196 17.3566 9.60776 16.9844 9.04446 16.7304C8.48116 16.4765 7.87744 16.3459 7.26777 16.346H1.36754C1.12399 16.346 0.890409 16.2407 0.71819 16.0531C0.54597 15.8656 0.449219 15.6112 0.449219 15.346V1.17401C0.449219 0.908795 0.54597 0.654441 0.71819 0.466904C0.890409 0.279368 1.12399 0.174011 1.36754 0.174011H7.26777C8.49925 0.174011 9.68021 0.707011 10.5508 1.65501" fill="#D1D6DB"/>
<path fill-rule="evenodd" clip-rule="evenodd" d="M11.4492 17.826C11.8804 17.3566 12.3922 16.9844 12.9555 16.7304C13.5188 16.4765 14.1226 16.3459 14.7322 16.346H20.6325C20.876 16.346 21.1096 16.2407 21.2818 16.0531C21.454 15.8656 21.5508 15.6112 21.5508 15.346V1.17401C21.5508 0.908795 21.454 0.654441 21.2818 0.466904C21.1096 0.279368 20.876 0.174011 20.6325 0.174011H14.7322C13.5008 0.174011 12.3198 0.707011 11.4492 1.65501" fill="#D1D6DB"/>
</svg>
