<svg width="21" height="21" viewBox="0 0 21 21" fill="none" xmlns="http://www.w3.org/2000/svg">
<path fill-rule="evenodd" clip-rule="evenodd" d="M19.5659 7.20407L11.1189 0.48707C10.9422 0.346227 10.7229 0.269531 10.4969 0.269531C10.2709 0.269531 10.0516 0.346227 9.87488 0.48707L1.42688 7.20407C1.19143 7.39135 1.00126 7.62933 0.870539 7.90029C0.739818 8.17126 0.671911 8.46822 0.671875 8.76907V18.1871C0.671875 18.8236 0.924731 19.434 1.37482 19.8841C1.82491 20.3342 2.43536 20.5871 3.07187 20.5871H8.49687V15.8351C8.49687 15.5699 8.60223 15.3155 8.78977 15.128C8.9773 14.9404 9.23166 14.8351 9.49687 14.8351H11.4969C11.7621 14.8351 12.0164 14.9404 12.204 15.128C12.3915 15.3155 12.4969 15.5699 12.4969 15.8351V20.5871H17.9209C18.5574 20.5871 19.1678 20.3342 19.6179 19.8841C20.068 19.434 20.3209 18.8236 20.3209 18.1871V8.77007C20.3208 8.46922 20.2529 8.17226 20.1222 7.90129C19.9915 7.63033 19.8013 7.39135 19.5659 7.20407Z" fill="#363737"/>
</svg>
