<svg width="21" height="18" viewBox="0 0 21 18" fill="none" xmlns="http://www.w3.org/2000/svg">
<path d="M20.458 0.855416C20.0809 0.565357 17.6734 0.652373 17.6734 0.652373C12.9455 0.710385 10.8571 3.98805 10.509 4.62618C10.1609 3.98805 8.07249 0.710385 3.34453 0.652373C3.34453 0.652373 0.966045 0.565357 0.559963 0.855416C0.182886 1.14547 -0.0491592 1.49355 0.00885258 2.18969C0.0668644 2.88583 0.617977 10.2823 9.29074 10.0213V13.705V14.1691V16.1415C9.29074 16.8087 9.84185 17.3598 10.509 17.3598C11.1761 17.3598 11.7272 16.8087 11.7272 16.1415V14.1691V13.705V10.0213C20.371 10.2823 20.9511 2.88583 20.9801 2.18969C21.0671 1.46454 20.8641 1.11647 20.458 0.855416Z" fill="#D1D6DB"/>
</svg>
