<svg width="15" height="25" viewBox="0 0 15 25" fill="none" xmlns="http://www.w3.org/2000/svg">
<g id="Group 3466627">
<g id="Group 3466626">
<path id="Vector 19" d="M13.9466 5.98792C14.2227 5.98792 14.4466 5.76406 14.4466 5.48792C14.4466 5.21177 14.2227 4.98792 13.9466 4.98792V5.98792ZM10.2734 5.98792H13.9466V4.98792H10.2734V5.98792Z" fill="#34C184"/>
<path id="Vector 20" d="M13.9466 8.63281C14.2227 8.63281 14.4466 8.40895 14.4466 8.13281C14.4466 7.85667 14.2227 7.63281 13.9466 7.63281V8.63281ZM10.2734 8.63281H13.9466V7.63281H10.2734V8.63281Z" fill="#34C184"/>
<path id="Vector 21" d="M13.9466 11.274C14.2227 11.274 14.4466 11.0502 14.4466 10.774C14.4466 10.4979 14.2227 10.274 13.9466 10.274V11.274ZM10.2734 11.274H13.9466V10.274H10.2734V11.274Z" fill="#34C184"/>
</g>
<path id="Union" fill-rule="evenodd" clip-rule="evenodd" d="M6.32928 0.5C3.9728 0.5 2.0625 2.4103 2.0625 4.76678V13.4952C0.795094 14.6527 0 16.3186 0 18.1703C0 21.6661 2.83392 24.5 6.32975 24.5C9.82557 24.5 12.6595 21.6661 12.6595 18.1703C12.6595 16.3182 11.864 14.6518 10.5961 13.4943V4.76678C10.5961 2.4103 8.68575 0.5 6.32928 0.5Z" fill="white"/>
<path id="Union_2" fill-rule="evenodd" clip-rule="evenodd" d="M6.33031 4.45215C5.66924 4.45215 5.13335 4.98804 5.13335 5.64911V15.0765C3.90194 15.556 3.0293 16.7533 3.0293 18.1543C3.0293 19.9779 4.50756 21.4561 6.3311 21.4561C8.15463 21.4561 9.6329 19.9779 9.6329 18.1543C9.6329 16.7527 8.75951 15.555 7.52727 15.0759V5.64911C7.52727 4.98805 6.99137 4.45215 6.33031 4.45215Z" fill="url(#paint0_linear_1180_3449)"/>
</g>
<defs>
<linearGradient id="paint0_linear_1180_3449" x1="6.3311" y1="4.45215" x2="6.3311" y2="21.4562" gradientUnits="userSpaceOnUse">
<stop stop-color="#A3E494"/>
<stop offset="1" stop-color="#34C184"/>
</linearGradient>
</defs>
</svg>
