<svg width="24" height="24" viewBox="0 0 24 24" fill="none" xmlns="http://www.w3.org/2000/svg">
<g id="icon-bin-line-mono 1">
<g id="Group">
<path id="Vector" d="M20.4996 5.12103H3.49961C2.86448 5.12103 2.34961 5.63591 2.34961 6.27103C2.34961 6.90616 2.86448 7.42103 3.49961 7.42103H20.4996C21.1347 7.42103 21.6496 6.90616 21.6496 6.27103C21.6496 5.63591 21.1347 5.12103 20.4996 5.12103Z" fill="#B0B8C1"/>
<path id="Vector_2" d="M8.7832 11.98V16.486C8.7832 17.1212 9.29808 17.636 9.9332 17.636C10.5683 17.636 11.0832 17.1212 11.0832 16.486V11.98C11.0832 11.3449 10.5683 10.83 9.9332 10.83C9.29808 10.83 8.7832 11.3449 8.7832 11.98Z" fill="#B0B8C1"/>
<path id="Vector_3" d="M12.916 11.98V16.486C12.916 17.1212 13.4309 17.636 14.066 17.636C14.7011 17.636 15.216 17.1212 15.216 16.486V11.98C15.216 11.3449 14.7011 10.83 14.066 10.83C13.4309 10.83 12.916 11.3449 12.916 11.98Z" fill="#B0B8C1"/>
<path id="Vector_4" d="M17.0717 6.27103H15.0717V3.84003C15.0717 3.28903 14.6237 2.84003 14.0717 2.84003H9.92773C9.37673 2.84003 8.92773 3.28903 8.92773 3.84003V6.27103H6.92773V3.84003C6.92773 2.18603 8.27373 0.840027 9.92773 0.840027H14.0717C15.7257 0.840027 17.0717 2.18603 17.0717 3.84003V6.27103Z" fill="#B0B8C1"/>
<path id="Vector_5" d="M17.9924 7.42103L17.5044 19.17C17.4884 19.545 17.1804 19.841 16.8054 19.841H7.2034C6.8284 19.841 6.5194 19.545 6.5044 19.171L6.0084 7.42103H17.9924ZM20.3914 5.12103H3.6084L4.2344 19.938C4.2864 21.169 5.2994 22.141 6.5324 22.141H17.4764C18.7094 22.141 19.7234 21.169 19.7744 19.937L20.3914 5.12103Z" fill="#B0B8C1"/>
</g>
</g>
</svg>
