<svg width="13" height="13" viewBox="0 0 13 13" fill="none" xmlns="http://www.w3.org/2000/svg">
    <g id="002.          &#236;&#149;&#132;&#236;&#157;&#180;&#236;&#189;&#152; Icons/2. &#235;&#170;&#168;&#235;&#133;&#184; &#236;&#149;&#132;&#236;&#157;&#180;&#236;&#189;&#152;/ icon-arrow-solid-down-mono">
        <path
            id="Vector"
            fill-rule="evenodd"
            clip-rule="evenodd"
            d="M6.74765 8.867L10.4851 4.922C10.5188 4.88652 10.5413 4.84197 10.5498 4.79384C10.5584 4.74571 10.5527 4.69613 10.5334 4.65122C10.5141 4.60632 10.482 4.56806 10.4412 4.54118C10.4003 4.5143 10.3525 4.49999 10.3036 4.5H2.46565C2.41676 4.49999 2.36895 4.5143 2.32812 4.54118C2.28729 4.56806 2.25523 4.60632 2.23592 4.65122C2.2166 4.69613 2.21088 4.74571 2.21945 4.79384C2.22802 4.84197 2.25052 4.88652 2.28415 4.922L6.02165 8.867C6.06837 8.91632 6.12466 8.95561 6.18707 8.98246C6.24948 9.00931 6.31671 9.02315 6.38465 9.02315C6.45259 9.02315 6.51982 9.00931 6.58223 8.98246C6.64464 8.95561 6.70093 8.91632 6.74765 8.867Z"
            fill="#333D48"
        />
    </g>
</svg>