<svg width="23" height="16" viewBox="0 0 23 16" fill="none" xmlns="http://www.w3.org/2000/svg">
<g id="Group 3466519">
<g id="Group 3466518">
<path id="Subtract" fill-rule="evenodd" clip-rule="evenodd" d="M22.6445 6.79571C22.7901 7.03042 22.7185 7.34447 22.4591 7.43923C21.3997 7.8262 20.1789 7.43186 19.5611 6.43551C18.9433 5.43917 19.1329 4.17026 19.9505 3.39339C20.1507 3.20317 20.4638 3.27874 20.6094 3.51345L22.6445 6.79571Z" fill="#9FE394"/>
<rect id="Rectangle 4072" x="13.3395" y="8.54031" width="6.93167" height="2.97956" transform="rotate(-31.8007 13.3395 8.54031)" fill="#34C184"/>
</g>
<circle id="Ellipse 426" cx="6.15225" cy="5.70862" r="4.26859" stroke="#34C184" stroke-width="2"/>
<path id="Union" fill-rule="evenodd" clip-rule="evenodd" d="M4.21433 14.5026C4.18133 15.0765 4.63783 15.56 5.21268 15.56H10.5335H10.5335H15.8545C16.4293 15.56 16.8858 15.0765 16.8528 14.5026L16.2727 4.41199C16.2423 3.88288 15.8043 3.46939 15.2743 3.46939H10.5335H10.5335H5.79281C5.26282 3.46939 4.82488 3.88288 4.79446 4.41199L4.21433 14.5026Z" fill="#9FE394"/>
</g>
</svg>
