<svg width="22" height="16" viewBox="0 0 22 16" fill="none" xmlns="http://www.w3.org/2000/svg">
<path fill-rule="evenodd" clip-rule="evenodd" d="M21.7599 6.79565C21.9054 7.03036 21.8339 7.34441 21.5745 7.43917C20.5151 7.82614 19.2942 7.4318 18.6764 6.43545C18.0587 5.43911 18.2483 4.1702 19.0659 3.39333C19.2661 3.20311 19.5792 3.27868 19.7247 3.51339L21.7599 6.79565Z" fill="#B0B8C1"/>
<rect x="13.1433" y="8.70174" width="5.93167" height="1.97956" transform="rotate(-31.8007 13.1433 8.70174)" fill="#8B95A1" stroke="#8B95A1"/>
<circle cx="5.26761" cy="5.70865" r="4.26859" stroke="#8B95A1" stroke-width="2"/>
<path fill-rule="evenodd" clip-rule="evenodd" d="M3.32969 14.5027C3.29669 15.0766 3.75319 15.5601 4.32804 15.5601H9.64886H9.64888H14.9698C15.5447 15.5601 16.0012 15.0766 15.9682 14.5027L15.388 4.41208C15.3576 3.88297 14.9197 3.46948 14.3897 3.46948H9.64888H9.64886H4.90817C4.37818 3.46948 3.94024 3.88297 3.90982 4.41208L3.32969 14.5027Z" fill="#B0B8C1"/>
</svg>
