<svg width="23" height="16" viewBox="0 0 23 16" fill="none" xmlns="http://www.w3.org/2000/svg">
<g id="Group 3466519">
<g id="Group 3466518">
<path id="Subtract" fill-rule="evenodd" clip-rule="evenodd" d="M22.084 6.73559C22.2295 6.9703 22.158 7.28435 21.8986 7.37911C20.8392 7.76608 19.6183 7.37174 19.0005 6.37539C18.3828 5.37905 18.5723 4.11015 19.39 3.33327C19.5902 3.14305 19.9033 3.21862 20.0488 3.45333L22.084 6.73559Z" fill="#9FE394"/>
<rect id="Rectangle 4072" x="12.7783" y="8.48022" width="6.93167" height="2.97956" transform="rotate(-31.8007 12.7783 8.48022)" fill="#34C184"/>
</g>
<circle id="Ellipse 426" cx="5.59085" cy="5.64859" r="4.26859" stroke="#34C184" stroke-width="2"/>
<path id="Union" fill-rule="evenodd" clip-rule="evenodd" d="M3.65305 14.4426C3.62005 15.0165 4.07655 15.5 4.6514 15.5H9.97223H9.97225H15.2932C15.868 15.5 16.3245 15.0165 16.2915 14.4426L15.7114 4.35202C15.681 3.82291 15.243 3.40942 14.7131 3.40942H9.97225H9.97223H5.23153C4.70154 3.40942 4.2636 3.82291 4.23318 4.35202L3.65305 14.4426Z" fill="#9FE394"/>
</g>
</svg>
