<svg width="25" height="25" viewBox="0 0 25 25" fill="none" xmlns="http://www.w3.org/2000/svg">
<g id="icon-x-mono (2) 1">
<path id="Vector" fill-rule="evenodd" clip-rule="evenodd" d="M14.3795 12.3146L20.0305 6.66357C20.142 6.55214 20.2305 6.41985 20.2908 6.27424C20.3512 6.12863 20.3823 5.97255 20.3823 5.81492C20.3824 5.6573 20.3514 5.5012 20.2911 5.35556C20.2308 5.20991 20.1424 5.07756 20.031 4.96607C19.9196 4.85458 19.7873 4.76613 19.6417 4.70576C19.4961 4.6454 19.34 4.6143 19.1824 4.61426C19.0247 4.61421 18.8686 4.64521 18.723 4.70549C18.5773 4.76577 18.445 4.85414 18.3335 4.96557L12.6825 10.6176L7.03051 4.96557C6.80286 4.75295 6.50152 4.63709 6.19007 4.64244C5.87862 4.6478 5.58143 4.77396 5.36123 4.99428C5.14104 5.21461 5.01506 5.51187 5.00988 5.82332C5.00471 6.13477 5.12075 6.43605 5.33351 6.66357L10.9855 12.3146L5.33351 17.9656C5.16647 18.1338 5.05289 18.3476 5.00706 18.5802C4.96122 18.8128 4.98519 19.0537 5.07593 19.2727C5.16667 19.4917 5.32013 19.679 5.51703 19.811C5.71393 19.943 5.94546 20.0138 6.18251 20.0146C6.48951 20.0146 6.79651 19.8976 7.03051 19.6636L12.6825 14.0116L18.3335 19.6636C18.4448 19.7752 18.577 19.8638 18.7226 19.9243C18.8682 19.9847 19.0244 20.0158 19.182 20.0158C19.3397 20.0158 19.4958 19.9847 19.6414 19.9243C19.787 19.8638 19.9192 19.7752 20.0305 19.6636C20.1421 19.5521 20.2306 19.4198 20.291 19.2741C20.3514 19.1284 20.3825 18.9723 20.3825 18.8146C20.3825 18.6569 20.3514 18.5007 20.291 18.355C20.2306 18.2094 20.1421 18.077 20.0305 17.9656L14.3795 12.3146Z" fill="#B0B8C1"/>
</g>
</svg>
