<svg width="156" height="210" viewBox="0 0 156 210" fill="none" xmlns="http://www.w3.org/2000/svg">
<path d="M123.425 208.721L121.645 208.797L119.8 208.564L117.955 208.965L116.11 208.661L114.264 208.526L112.419 208.77L110.574 208.58L108.729 208.466L106.883 208.846L105.038 209.014L103.193 208.607L101.353 209.106L99.5077 208.889L97.6625 208.591L95.8172 208.808L93.9719 208.764L92.1267 208.895L90.2815 209.068L88.4362 208.596L86.5909 208.672L84.7457 208.987L82.9004 208.764L81.0552 208.878L79.2099 208.889L77.3647 208.944L75.5194 208.732L73.6742 208.743L71.829 208.982L69.9837 208.596L68.133 208.884L66.2226 208.84L65.669 206.973L65.7287 205.047L65.1535 203.24L64.7464 201.4L64.7736 199.478L64.1277 197.688L64.0952 195.777L63.3408 194.008L63.2648 192.108L63.1237 190.22L62.6949 188.385L62.3421 186.54L61.7777 184.733L61.4358 182.882L61.235 181.004L60.8008 179.17L60.3938 177.33L60.1984 175.452L59.9162 173.591L59.6177 171.729L59.113 169.906L58.9501 168.022L58.1252 166.259L57.7344 164.413L57.3817 162.563L57.0941 160.696L56.8281 158.769L58.7602 158.888L60.6434 158.666L62.5267 158.997L64.4099 158.525L66.2932 158.899L68.1764 158.726L70.0597 158.926L71.9429 158.584L73.8261 158.552H75.7094L77.5926 158.568L79.4759 158.883L81.3591 158.758L83.2423 158.503L85.1256 158.953L87.0089 158.476L88.8921 158.617L90.7753 158.905L92.6586 158.508L94.5418 158.812L96.4251 158.823L98.3083 158.791L100.192 158.525L102.075 158.612L103.958 158.975L105.841 158.601L107.724 158.519L109.608 159.019L111.491 158.487L113.374 158.47L115.257 159.046L117.141 158.943L119.024 158.959L120.907 158.726L122.79 158.867L124.674 158.584L126.557 158.802L128.446 159.019L130.367 158.78L130.34 160.69L129.716 162.487L129.797 164.381L129.379 166.204L128.907 168.022L128.874 169.9L128.576 171.745L128.071 173.558L127.925 175.42L127.887 177.297L127.273 179.094L127.121 180.955L127.295 182.866L126.969 184.706L126.573 186.54L126.345 188.391L126.286 190.269L126.074 192.125L125.667 193.954L125.206 195.777L125.309 197.677L124.674 199.473L124.603 201.351L124.104 203.169L124.218 205.074L123.518 206.865L123.415 208.683L123.425 208.721Z" fill="#363737"/>
<path d="M136.708 159.334L134.874 159.589L133.001 159.111L131.129 159.344L129.256 159.545L127.384 159.404H125.512L123.634 159.165L121.761 159.285L119.889 159.111L118.017 159.616L116.144 159.594L114.272 159.572L112.394 159.35L110.522 159.22L108.649 159.29L106.771 159.486L104.894 159.507H103.021L101.149 159.252L99.271 159.545L97.3932 159.279L95.5153 159.529L93.6376 159.502L91.7598 159.23L89.8819 159.703L88.0041 159.616L86.1263 159.453L84.2539 159.263L82.3761 159.426L80.5037 159.192L78.6313 159.328L76.7535 159.513L74.8811 159.296L73.0033 159.464L71.1255 159.681L69.2477 159.279L67.3698 159.524L65.492 159.507L63.6142 159.572L61.7364 159.415L59.8586 159.122L57.9808 159.165L56.1029 159.312L54.2251 159.61L52.3419 159.448L50.5292 159.296L50.2687 157.461L50.7083 155.556L50.5781 153.651L50.7789 151.741L50.5835 149.836L50.2795 147.926L50.5563 146.015L50.209 144.105L50.7246 142.194L50.5672 140.382L52.3419 140.577L54.2143 139.964L56.0867 140.078L57.9591 140.425L59.8314 140.262L61.7038 140.382L63.5816 140.349L65.4541 140.474L67.3264 140.17L69.1988 140.029L71.0712 140.344L72.949 140.078L74.8268 140.284L76.6992 140.148L78.5716 140.414L80.444 140.219L82.3218 140.566L84.1942 139.991H86.0666L87.9444 140.3L89.8222 140.062L91.6946 140.089L93.5724 140.007L95.4502 140.235L97.3281 140.371L99.2059 140.213L101.078 140.393L102.956 140.295L104.828 139.996L106.701 140.474H108.573L110.451 140.458L112.329 140.376L114.207 140.528L116.084 140.132L117.962 140.062L119.84 140.159L121.718 140.176L123.596 140.154L125.474 140.083L127.351 140.365L129.229 140.1L131.107 140.246L132.985 140.1L134.868 140.447L136.898 140.138L136.437 142.189L136.616 144.094L136.502 146.004L136.784 147.915L137.028 149.82L137.061 151.725L136.475 153.635L136.447 155.545L137.093 157.461L136.719 159.328H136.708V159.334Z" fill="#363737"/>
<path d="M1.87109 49.0851L5.82212 48.5966L9.77851 49.2099L13.5124 50.583L17.1487 52.184L20.1499 54.8054L22.5108 58.04L24.3289 61.4266L26.9394 64.2433L29.9894 66.5553L33.0124 68.9053L36.5944 70.4412L40.4097 69.6651L44.3119 69.4751L46.9441 66.5499L50.1896 64.4658L51.9642 61.0413L54.3957 58.1214L56.941 55.3752L60.002 53.0632L61.1308 49.3619L59.3236 46.149L57.1147 43.1152L53.8367 41.1831L50.0485 40.5535L46.4394 39.582L43.0093 37.7965L39.2863 37.1452L35.4438 37.3352L31.8727 35.9187L28.0248 36.304L24.2312 35.7559L20.405 36.1032L16.9153 37.7531L13.4148 39.1859L10.001 40.8683L7.3146 43.5982L4.62266 46.2032L1.94708 48.83L1.87109 49.0851Z" fill="#FFF6F0"/>
<path d="M1.87109 49.0851L5.82212 48.5966L9.77851 49.2099L13.5124 50.583L17.1487 52.184L20.1499 54.8054L22.5108 58.04L24.3289 61.4266L26.9394 64.2433L29.9894 66.5553L33.0124 68.9053L36.5944 70.4412L40.4097 69.6651L44.3119 69.4751L46.9441 66.5499L50.1896 64.4658L51.9642 61.0413L54.3957 58.1214L56.941 55.3752L60.002 53.0632L61.1308 49.3619L59.3236 46.149L57.1147 43.1152L53.8367 41.1831L50.0485 40.5535L46.4394 39.582L43.0093 37.7965L39.2863 37.1452L35.4438 37.3352L31.8727 35.9187L28.0248 36.304L24.2312 35.7559L20.405 36.1032L16.9153 37.7531L13.4148 39.1859L10.001 40.8683L7.3146 43.5982L4.62266 46.2032L1.94708 48.83L1.87109 49.0851Z" stroke="#383839" stroke-width="1.62816" stroke-linecap="round" stroke-linejoin="round"/>
<path d="M51.3389 62.995L54.1393 65.904L55.5287 69.7194L57.4933 73.1711L60.1689 76.2646L61.6451 79.9985L63.3764 83.5967L64.5758 87.4229L66.1931 91.0646L67.2026 94.9342L68.8036 98.5921L70.5729 102.228L71.6258 106.087L72.4236 110.011L73.5036 113.87L73.6501 117.908L74.2525 121.848L74.8604 125.799L74.6108 129.815L74.9255 133.782L75.0069 137.76L75.2132 141.684L78.2796 141.445L81.3459 141.679L81.118 137.847L80.9606 133.923L80.1791 130.075L79.4681 126.233L79.1967 122.314L78.0028 118.548L77.3189 114.7L76.2823 110.923L76.0869 106.972L74.8495 103.238L74.2851 99.3574L73.7532 95.4552L72.7818 91.6561L71.349 87.9873L70.2364 84.2317L68.8471 80.5738L67.881 76.7476L66.0357 73.2687L64.2665 69.779L61.9979 66.5933L60.5325 62.8539L57.4987 60.2977L54.3672 58.0942L51.6754 62.6857L51.3389 62.995Z" fill="#FFF6F0"/>
<path d="M51.3389 62.995L54.1393 65.904L55.5287 69.7194L57.4933 73.1711L60.1689 76.2646L61.6451 79.9985L63.3764 83.5967L64.5758 87.4229L66.1931 91.0646L67.2026 94.9342L68.8036 98.5921L70.5729 102.228L71.6258 106.087L72.4236 110.011L73.5036 113.87L73.6501 117.908L74.2525 121.848L74.8604 125.799L74.6108 129.815L74.9255 133.782L75.0069 137.76L75.2132 141.684L78.2796 141.445L81.3459 141.679L81.118 137.847L80.9606 133.923L80.1791 130.075L79.4681 126.233L79.1967 122.314L78.0028 118.548L77.3189 114.7L76.2823 110.923L76.0869 106.972L74.8495 103.238L74.2851 99.3574L73.7532 95.4552L72.7818 91.6561L71.349 87.9873L70.2364 84.2317L68.8471 80.5738L67.881 76.7476L66.0357 73.2687L64.2665 69.779L61.9979 66.5933L60.5325 62.8539L57.4987 60.2977L54.3672 58.0942L51.6754 62.6857L51.3389 62.995Z" stroke="#383839" stroke-width="1.62816" stroke-linecap="round" stroke-linejoin="round"/>
<path d="M70.7549 47.3755L72.8118 50.6698L74.2337 54.2789L75.5797 57.8988L76.8822 61.5351L78.7872 64.9325L80.1168 68.5579L80.9744 72.3461L82.8304 75.8032L83.3298 79.6945L84.73 83.3091L85.7069 87.043L86.0813 90.9235L87.0745 94.6519L87.9863 98.4021L89.1315 102.125L89.1586 106.027L89.3214 109.892L90.2874 113.669L90.4014 117.533L90.6782 121.381L90.765 125.24L90.6891 129.093L91.2861 132.973L91.0364 136.838L90.5859 140.284L95.769 142.091L95.7961 138.113L96.0946 134.249L95.9914 130.374L96.4907 126.472L95.9101 122.602L95.7038 118.716L95.6875 114.798L95.1936 110.928L94.0322 107.162L93.5981 103.292L93.4189 99.3628L92.7134 95.5203L91.1124 91.884L90.7325 87.971L89.4028 84.2859L88.9198 80.3783L87.8615 76.6282L86.5373 72.9485L85.2564 69.2634L84.095 65.5458L82.9933 61.8064L82.0815 58.002L80.0789 54.572L78.8198 50.8815L77.273 47.2995L76.3286 43.5059L73.246 45.0309L70.8417 47.5383L70.7549 47.3755Z" fill="#FFF6F0"/>
<path d="M70.7549 47.3755L72.8118 50.6698L74.2337 54.2789L75.5797 57.8988L76.8822 61.5351L78.7872 64.9325L80.1168 68.5579L80.9744 72.3461L82.8304 75.8032L83.3298 79.6945L84.73 83.3091L85.7069 87.043L86.0813 90.9235L87.0745 94.6519L87.9863 98.4021L89.1315 102.125L89.1586 106.027L89.3214 109.892L90.2874 113.669L90.4014 117.533L90.6782 121.381L90.765 125.24L90.6891 129.093L91.2861 132.973L91.0364 136.838L90.5859 140.284L95.769 142.091L95.7961 138.113L96.0946 134.249L95.9914 130.374L96.4907 126.472L95.9101 122.602L95.7038 118.716L95.6875 114.798L95.1936 110.928L94.0322 107.162L93.5981 103.292L93.4189 99.3628L92.7134 95.5203L91.1124 91.884L90.7325 87.971L89.4028 84.2859L88.9198 80.3783L87.8615 76.6282L86.5373 72.9485L85.2564 69.2634L84.095 65.5458L82.9933 61.8064L82.0815 58.002L80.0789 54.572L78.8198 50.8815L77.273 47.2995L76.3286 43.5059L73.246 45.0309L70.8417 47.5383L70.7549 47.3755Z" stroke="#383839" stroke-width="1.62816" stroke-linecap="round" stroke-linejoin="round"/>
<path d="M108.384 73.0409L107.565 76.2809L106.506 79.966L105.421 83.6457V87.5424L104.048 91.1786L104.319 95.1025L103.25 98.7984L103.125 102.646L102.138 106.364L101.427 110.13L101.834 114.022L101.161 117.794L100.292 121.566L100.162 125.397L100.868 129.234L100.303 133.055L100.569 136.87L100.922 141.028L105.253 140.713L104.536 136.892L104.346 133.055L104.558 129.223L104.281 125.37L105.47 121.609L104.829 117.712L106.219 114.011L105.72 110.087L106.241 106.283L107.272 102.565L107.836 98.7713L108.113 94.9288L108.965 91.1841L110.186 87.5153L111.12 83.7976L111.586 79.9768L112.004 76.1344L113.41 72.3679L108.384 73.0409Z" fill="#FFF6F0"/>
<path d="M108.384 73.0409L107.565 76.2809L106.506 79.966L105.421 83.6457V87.5424L104.048 91.1786L104.319 95.1025L103.25 98.7984L103.125 102.646L102.138 106.364L101.427 110.13L101.834 114.022L101.161 117.794L100.292 121.566L100.162 125.397L100.868 129.234L100.303 133.055L100.569 136.87L100.922 141.028L105.253 140.713L104.536 136.892L104.346 133.055L104.558 129.223L104.281 125.37L105.47 121.609L104.829 117.712L106.219 114.011L105.72 110.087L106.241 106.283L107.272 102.565L107.836 98.7713L108.113 94.9288L108.965 91.1841L110.186 87.5153L111.12 83.7976L111.586 79.9768L112.004 76.1344L113.41 72.3679L108.384 73.0409Z" stroke="#383839" stroke-width="1.62816" stroke-linecap="round" stroke-linejoin="round"/>
<path d="M118.035 112.654L116.14 116.29L114.919 119.791L113.237 123.112L112.634 126.808L111.12 130.222L110.377 133.853L109.552 137.484L109.503 141.63L114.518 141.109L115.31 137.522L115.728 133.766L116.689 130.119L117.421 126.407L118.995 122.955L120.086 119.34L121.774 116.415L118.035 112.654Z" fill="#FFF6F0"/>
<path d="M118.035 112.654L116.14 116.29L114.919 119.791L113.237 123.112L112.634 126.808L111.12 130.222L110.377 133.853L109.552 137.484L109.503 141.63L114.518 141.109L115.31 137.522L115.728 133.766L116.689 130.119L117.421 126.407L118.995 122.955L120.086 119.34L121.774 116.415L118.035 112.654Z" stroke="#383839" stroke-width="1.62816" stroke-linecap="round" stroke-linejoin="round"/>
<path d="M145.426 2.88306L141.67 3.80026L137.8 3.89794L134.056 4.76088L130.474 6.17738L126.756 7.17057L123.364 8.98867L119.82 10.4757L116.52 12.4458L113.687 15.0672L110.426 17.1404L107.989 20.1253L105.91 23.3328L103.815 26.4914L101.53 29.6284L100.847 33.4546L99.848 37.1125L99.3433 40.8681L98.7191 44.6292L98.3066 48.4499L98.7082 52.6832L102.887 52.3521L106.925 52.2273L110.968 52.7592L115.012 52.021L119.055 52.7971L123.098 52.5204L127.147 52.4661L131.19 52.1676H135.239L139.239 51.9342L141.448 49.3888L144.069 46.7512L144.525 43.0661L145.068 39.5384L145.051 35.9619L144.72 32.3908L144.503 28.7383L143.76 27.2838L142.821 23.2894L143.255 19.2027L142.745 15.1431L143.635 11.1704L144.411 7.20313L145.854 3.38235L145.426 2.88306Z" fill="#41B879"/>
<path d="M145.426 2.88306L141.67 3.80026L137.8 3.89794L134.056 4.76088L130.474 6.17738L126.756 7.17057L123.364 8.98867L119.82 10.4757L116.52 12.4458L113.687 15.0672L110.426 17.1404L107.989 20.1253L105.91 23.3328L103.815 26.4914L101.53 29.6284L100.847 33.4546L99.848 37.1125L99.3433 40.8681L98.7191 44.6292L98.3066 48.4499L98.7082 52.6832L102.887 52.3521L106.925 52.2273L110.968 52.7592L115.012 52.021L119.055 52.7971L123.098 52.5204L127.147 52.4661L131.19 52.1676H135.239L139.239 51.9342L141.448 49.3888L144.069 46.7512L144.525 43.0661L145.068 39.5384L145.051 35.9619L144.72 32.3908L144.503 28.7383L143.76 27.2838L142.821 23.2894L143.255 19.2027L142.745 15.1431L143.635 11.1704L144.411 7.20313L145.854 3.38235L145.426 2.88306Z" stroke="#383839" stroke-width="1.62816" stroke-linecap="round" stroke-linejoin="round"/>
<path d="M109.211 45.0092L105.173 44.1842L101.141 45.0852L97.3362 46.3931L93.9116 48.488L91.4368 51.7335L90.8235 55.7768L90.373 59.8363L91.7841 63.6734L93.6185 67.2173L95.9956 70.452L98.9752 73.2416L102.563 75.3527L106.307 75.9226L110.052 75.8846L113.715 77.0949L117.482 77.0406L121.118 75.8303L125.107 75.9443L129.107 75.9389L133.025 76.7909L136.673 78.4734L139.951 80.7257L142.501 83.7215L144.602 86.967L146.442 90.4187L147.505 94.3208L149.454 90.6358L150.745 86.7879L151.532 82.7989L151.939 78.7664L152.596 74.7992L153.557 70.7993L153.454 66.7235L152.357 62.767L152.059 58.6803L150.029 55.1092L148.596 51.3156L145.747 48.4066L143.044 45.4922L140.531 42.2304L137.367 40.1084L134.106 38.16L130.806 36.2605L127.137 35.2076L123.457 34.1331L119.664 34.6649L115.952 35.5767L113.205 38.236L110.714 41.1016L108.999 44.5316L109.211 45.0092Z" fill="#41B879"/>
<path d="M109.211 45.0092L105.173 44.1842L101.141 45.0852L97.3362 46.3931L93.9116 48.488L91.4368 51.7335L90.8235 55.7768L90.373 59.8363L91.7841 63.6734L93.6185 67.2173L95.9956 70.452L98.9752 73.2416L102.563 75.3527L106.307 75.9226L110.052 75.8846L113.715 77.0949L117.482 77.0406L121.118 75.8303L125.107 75.9443L129.107 75.9389L133.025 76.7909L136.673 78.4734L139.951 80.7257L142.501 83.7215L144.602 86.967L146.442 90.4187L147.505 94.3208L149.454 90.6358L150.745 86.7879L151.532 82.7989L151.939 78.7664L152.596 74.7992L153.557 70.7993L153.454 66.7235L152.357 62.767L152.059 58.6803L150.029 55.1092L148.596 51.3156L145.747 48.4066L143.044 45.4922L140.531 42.2304L137.367 40.1084L134.106 38.16L130.806 36.2605L127.137 35.2076L123.457 34.1331L119.664 34.6649L115.952 35.5767L113.205 38.236L110.714 41.1016L108.999 44.5316L109.211 45.0092Z" stroke="#383839" stroke-width="1.62816" stroke-linecap="round" stroke-linejoin="round"/>
<path d="M129.363 93.127L129.673 89.4365L130.861 85.8002L134.308 84.0852L138.128 83.5154L141.737 84.514L145.091 86.0282L148.57 87.6726L150.833 90.7661L152.961 93.979L153.938 97.9464L154.6 101.946L154.329 105.995L155.11 110.033L154.654 114.076L153.091 117.87L152.055 121.739L151.192 125.717L149.162 129.234L147.631 133.446L144.701 130.428L141.271 128.816L138.117 126.825L134.715 125.272L131.827 122.684L128.348 121.256L124.745 120.149L121.662 118.027L118.238 116.383L115.812 113.484L113.456 110.499L112.072 106.923L112.512 103.102L112.87 99.4551L113.798 95.6452L117.413 93.9682L121.065 92.6168L124.978 92.9859L128.864 93.5612L129.363 93.127Z" fill="#89CB9A"/>
<path d="M129.363 93.127L129.673 89.4365L130.861 85.8002L134.308 84.0852L138.128 83.5154L141.737 84.514L145.091 86.0282L148.57 87.6726L150.833 90.7661L152.961 93.979L153.938 97.9464L154.6 101.946L154.329 105.995L155.11 110.033L154.654 114.076L153.091 117.87L152.055 121.739L151.192 125.717L149.162 129.234L147.631 133.446L144.701 130.428L141.271 128.816L138.117 126.825L134.715 125.272L131.827 122.684L128.348 121.256L124.745 120.149L121.662 118.027L118.238 116.383L115.812 113.484L113.456 110.499L112.072 106.923L112.512 103.102L112.87 99.4551L113.798 95.6452L117.413 93.9682L121.065 92.6168L124.978 92.9859L128.864 93.5612L129.363 93.127Z" stroke="#383839" stroke-width="1.62816" stroke-linecap="round" stroke-linejoin="round"/>
<path d="M71.3024 77.9579L73.8478 75.1574L77.4026 73.8875L80.9792 72.9214L84.6371 73.144L87.9098 74.6365L91.2963 76.2646L93.7983 79.103L95.0519 82.6959L97.326 85.8382L96.729 89.8978L96.8755 93.8759L96.5227 97.8812L95.014 101.604L92.7454 104.909L90.9001 108.367L88.6695 111.623L86.0536 114.63L82.9872 117.208L79.5898 119.33L75.9916 121.104L71.9646 121.669L68.312 123.248L64.4208 124.002L60.5783 125.137L56.6219 125.495L53.0779 126.906L49.8758 128.963L47.1459 131.59L44.9425 134.797L44.2153 138.737L42.2669 135.443L39.5804 132.675L38.1748 129.158L36.8559 125.631L36.2644 121.897L34.9618 118.331L34.392 114.597L34.468 110.814L34.1641 107.059L34.8804 103.33L34.8425 99.5636L35.5751 95.8785L36.3512 92.3997L37.3824 88.986L39.1679 85.9034L40.4217 82.5113L42.3917 79.4721L44.8339 76.7802L48.1825 74.186L52.0196 72.3896L56.1443 71.7492L60.3504 71.239L64.0734 73.2905L68.133 74.6039L71.004 77.7191L71.3024 77.9579Z" fill="#41B879"/>
<path d="M71.3024 77.9579L73.8478 75.1574L77.4026 73.8875L80.9792 72.9214L84.6371 73.144L87.9098 74.6365L91.2963 76.2646L93.7983 79.103L95.0519 82.6959L97.326 85.8382L96.729 89.8978L96.8755 93.8759L96.5227 97.8812L95.014 101.604L92.7454 104.909L90.9001 108.367L88.6695 111.623L86.0536 114.63L82.9872 117.208L79.5898 119.33L75.9916 121.104L71.9646 121.669L68.312 123.248L64.4208 124.002L60.5783 125.137L56.6219 125.495L53.0779 126.906L49.8758 128.963L47.1459 131.59L44.9425 134.797L44.2153 138.737L42.2669 135.443L39.5804 132.675L38.1748 129.158L36.8559 125.631L36.2644 121.897L34.9618 118.331L34.392 114.597L34.468 110.814L34.1641 107.059L34.8804 103.33L34.8425 99.5636L35.5751 95.8785L36.3512 92.3997L37.3824 88.986L39.1679 85.9034L40.4217 82.5113L42.3917 79.4721L44.8339 76.7802L48.1825 74.186L52.0196 72.3896L56.1443 71.7492L60.3504 71.239L64.0734 73.2905L68.133 74.6039L71.004 77.7191L71.3024 77.9579Z" stroke="#383839" stroke-width="1.62816" stroke-linecap="round" stroke-linejoin="round"/>
<path d="M17.2793 17.0645L21.3985 17.325L24.568 19.9355L28.1988 21.8133L30.0224 25.4659L32.5623 28.6137L33.4632 32.5701L35.0263 36.2443L35.824 40.1573L37.0397 43.4679L38.8525 46.4529L40.8659 49.2316L43.3787 51.9615L46.3203 54.2844L49.62 56.249L53.3594 57.1988L57.2127 57.3996L60.9466 56.3901L64.7185 55.9668L68.5447 54.5612L71.6545 51.9127L74.4713 48.9494L75.7467 45.0635L76.7507 40.8466L80.8265 40.2333L83.9906 38.1438L86.8344 35.4302L86.791 31.4629L86.6119 27.577L85.3203 23.8649L84.1697 20.1363L81.4723 17.2599L79.4046 14.009L76.6367 11.3334L73.9014 8.63066L70.8567 6.23724L67.5353 4.18034L63.8773 2.78011L60.0511 1.95517L56.1599 1.77066L52.2631 1.61328L48.4315 2.29168L44.7355 3.45851L41.0885 4.67964L37.5011 6.05274L33.8051 7.225L30.0984 8.50038L26.9723 10.8504L23.5477 12.6956L20.1502 14.606L17.3444 17.3685L17.2793 17.0645Z" fill="#89CB9A"/>
<path d="M17.2793 17.0645L21.3985 17.325L24.568 19.9355L28.1988 21.8133L30.0224 25.4659L32.5623 28.6137L33.4632 32.5701L35.0263 36.2443L35.824 40.1573L37.0397 43.4679L38.8525 46.4529L40.8659 49.2316L43.3787 51.9615L46.3203 54.2844L49.62 56.249L53.3594 57.1988L57.2127 57.3996L60.9466 56.3901L64.7185 55.9668L68.5447 54.5612L71.6545 51.9127L74.4713 48.9494L75.7466 45.0635L76.7507 40.8466L80.8265 40.2333L83.9906 38.1438L86.8344 35.4302L86.791 31.4629L86.6119 27.577L85.3203 23.8649L84.1697 20.1363L81.4723 17.2599L79.4046 14.009L76.6367 11.3334L73.9014 8.63066L70.8567 6.23724L67.5353 4.18034L63.8773 2.78011L60.0511 1.95517L56.1599 1.77066L52.2631 1.61328L48.4315 2.29168L44.7355 3.45851L41.0885 4.67964L37.5011 6.05274L33.8051 7.225L30.0984 8.50038L26.9723 10.8504L23.5477 12.6956L20.1502 14.606L17.3444 17.3685L17.2793 17.0645Z" stroke="#383839" stroke-width="1.62816" stroke-linecap="round" stroke-linejoin="round"/>
<path d="M71.3524 78.0935L68.1937 80.4489L64.9319 82.7935L62.1858 85.697L59.7869 88.8991L57.7572 92.3345L55.8142 95.7862L53.2254 98.9448L51.9989 102.776L51.2011 106.695L50.908 110.651L50.2188 114.575" stroke="#383839" stroke-width="1.62816" stroke-linecap="round" stroke-linejoin="round"/>
<path d="M128.854 93.241L131.073 96.3942L133.863 99.1295L135.833 102.456L138.02 105.68L139.599 109.257L140.148 113.137L140.234 117.039" stroke="#383839" stroke-width="1.62816" stroke-linecap="round" stroke-linejoin="round"/>
<path d="M109.264 44.6458L112.276 47.126L115.348 49.4977L118.436 51.8477L121.768 53.91L124.449 56.7647L127.499 59.1798L130.734 61.4267L133.578 64.1077L135.645 67.5106L138.56 70.132" stroke="#383839" stroke-width="1.62816" stroke-linecap="round" stroke-linejoin="round"/>
<path d="M128.322 19.3982L125.256 22.5731L122.83 26.2582L120.621 30.0952L119.378 34.3827" stroke="#383839" stroke-width="1.62816" stroke-linecap="round" stroke-linejoin="round"/>
<path d="M18.4023 17.7537L22.4076 17.2489L26.3315 16.196L30.3639 16.6139L34.3584 16.196L38.3365 16.793L42.3038 17.1186L46.244 17.6668L50.1515 18.4103L54.108 19.1213L57.6357 21.0425L61.4618 22.3668L64.3546 25.1998L67.4644 27.7017L69.4778 31.1588L72.0721 34.2849" stroke="#383839" stroke-width="1.62816" stroke-linecap="round" stroke-linejoin="round"/>
<path d="M1.57031 48.3306L5.56473 47.3157L9.23897 45.6442L13.2497 45.1666L17.2332 44.9169L21.2548 44.2385L25.3089 44.651L29.222 45.8178L32.5868 48.1624L36.082 50.0728L39.1483 52.6236L42.1116 55.3155" stroke="#383839" stroke-width="1.62816" stroke-linecap="round" stroke-linejoin="round"/>
<path fill-rule="evenodd" clip-rule="evenodd" d="M83.5285 181.471L84.3752 181.048L86.9531 179.36L89.0535 177.108L89.6341 173.802L86.7957 171.892L84.3101 173.14L83.2626 173.526L81.3848 171.908L78.4541 173.764L78.8883 177.232L81.3306 179.246L83.5285 181.471Z" fill="#FFA6A6"/>
<path fill-rule="evenodd" clip-rule="evenodd" d="M104.043 181.883L105.525 181.58L108.201 179.843L110.117 177.243L110.263 173.873L107.593 172.261L105.531 173.374L104.488 173.243L102.187 171.642L99.1318 173.716L100.033 177.048L101.862 179.539L104.043 181.883Z" fill="#FFA6A6"/>
<path d="M100.66 188.044L100.242 190.345L98.9454 192.309L97.0838 193.856L94.6742 194.269L92.2807 193.818L90.2292 192.483L89.133 190.334L88.3135 188.038" stroke="#F6F7F7" stroke-width="1.62" stroke-linecap="round" stroke-linejoin="round"/>
</svg>
