<svg width="210" height="234" viewBox="0 0 210 234" fill="none" xmlns="http://www.w3.org/2000/svg">
<rect width="210" height="234" fill="transparent"/>
<path d="M135.095 232.527L133.548 232.451L132.039 232.218L130.53 232.576L129.022 232.647L127.513 232.734L126.004 232.375L124.495 232.593L122.986 232.359L121.478 232.506L119.974 232.533L118.466 232.658L116.957 232.734L115.448 232.262L113.939 232.582L112.431 232.441L110.922 232.413L109.413 232.24L107.904 232.338L106.395 232.316L104.887 232.723L103.378 232.712L101.869 232.544L100.366 232.245L98.8517 232.565L97.3429 232.582L95.8341 232.631L94.3254 232.734L92.8166 232.343L91.3078 232.3L89.7936 232.641L88.2849 232.739L86.7761 232.658L85.2673 232.435H83.7532L82.239 232.218L80.7302 232.473L80.6379 230.959L80.3937 229.472L79.9432 228.017L79.5091 226.563L79.5688 225.011L79.0315 223.578L78.8144 222.08L78.2988 220.642L78.2228 219.117L78.1794 217.586L77.6313 216.154L77.5933 214.623L76.8769 213.223L76.6109 211.736L76.7955 210.167L76.3342 208.718L75.7969 207.28L75.8891 205.722L75.2921 204.301L75.265 202.77L74.7765 201.321L74.4509 199.845L74.4943 198.298L74.0384 196.844L73.5771 195.394L73.4414 193.88L73.0561 192.415L73.1701 190.852L72.7793 189.387L72.3614 187.927L72.0846 186.434L71.7373 184.904L73.3058 184.73L74.82 184.931L76.3342 185.164L77.8483 185.056L79.368 184.741L80.8822 184.839L82.3963 185.218L83.916 185.137L85.4302 184.887L86.9444 184.942L88.4585 184.844H89.9727L91.4924 184.974L93.0065 185.077L94.5207 185.148L96.0404 184.681L97.5546 184.779L99.0742 184.801L100.588 184.985L102.103 185.066L103.622 184.909L105.136 184.871L106.656 184.725L108.17 184.708L109.684 185.208L111.204 184.817L112.718 185.197L114.238 185.099H115.752L117.266 185.159L118.786 185.012L120.3 184.925L121.814 184.697L123.334 184.73L124.848 184.719L126.368 184.687L127.887 185.115L129.401 184.969L130.921 185.213L132.441 184.898L133.955 185.142L135.474 185.018L136.994 185.094L138.514 185.115L140.033 184.746L141.504 184.996L141.276 186.423L141.048 187.899L141.032 189.414L140.5 190.852L140.272 192.334L140.082 193.821L140.381 195.373L139.849 196.811V198.325L139.312 199.763L139.084 201.245V202.759L138.91 204.246L138.655 205.722L138.514 207.215L138.264 208.691L137.884 210.151L138.134 211.698L137.602 213.136L137.271 214.607L137.303 216.121L137.108 217.613V219.128L136.592 220.566L136.728 222.102L136.207 223.545L135.811 225.005L135.903 226.53L135.431 227.979V229.494L135.089 230.97V232.527H135.095Z" fill="#383839"/>
<path d="M135.095 232.527L133.548 232.451L132.039 232.218L130.53 232.576L129.022 232.647L127.513 232.734L126.004 232.376L124.495 232.593L122.986 232.359L121.478 232.506L119.974 232.533L118.466 232.658L116.957 232.734L115.448 232.262L113.939 232.582L112.431 232.441L110.922 232.413L109.413 232.24L107.904 232.338L106.395 232.316L104.887 232.723L103.378 232.712L101.869 232.544L100.366 232.245L98.8517 232.565L97.3429 232.582L95.8341 232.631L94.3254 232.734L92.8166 232.343L91.3078 232.3L89.7936 232.641L88.2849 232.739L86.7761 232.658L85.2673 232.435H83.7532L82.239 232.218L80.7302 232.473L80.6379 230.959L80.3937 229.472L79.9432 228.017L79.5091 226.563L79.5688 225.011L79.0315 223.578L78.8144 222.08L78.2988 220.642L78.2228 219.117L78.1794 217.586L77.6313 216.154L77.5933 214.623L76.8769 213.223L76.6109 211.736L76.7955 210.167L76.3342 208.718L75.7969 207.28L75.8891 205.722L75.2921 204.301L75.265 202.77L74.7765 201.321L74.4509 199.845L74.4943 198.298L74.0384 196.844L73.5771 195.394L73.4414 193.88L73.0561 192.415L73.1701 190.852L72.7793 189.387L72.3614 187.927L72.0846 186.434L71.7373 184.904L73.3058 184.73L74.82 184.931L76.3342 185.164L77.8483 185.056L79.368 184.741L80.8822 184.839L82.3963 185.218L83.916 185.137L85.4302 184.887L86.9444 184.942L88.4585 184.844H89.9727L91.4924 184.974L93.0065 185.077L94.5207 185.148L96.0404 184.681L97.5546 184.779L99.0742 184.801L100.588 184.985L102.103 185.066L103.622 184.909L105.136 184.871L106.656 184.725L108.17 184.708L109.684 185.208L111.204 184.817L112.718 185.197L114.238 185.099H115.752L117.266 185.159L118.786 185.012L120.3 184.925L121.814 184.697L123.334 184.73L124.848 184.719L126.368 184.687L127.887 185.115L129.401 184.969L130.921 185.213L132.441 184.898L133.955 185.142L135.474 185.018L136.994 185.094L138.514 185.115L140.033 184.746L141.504 184.996L141.276 186.423L141.048 187.899L141.032 189.414L140.5 190.852L140.272 192.334L140.082 193.821L140.381 195.373L139.849 196.811V198.325L139.312 199.763L139.084 201.245V202.759L138.91 204.246L138.655 205.722L138.514 207.215L138.264 208.691L137.884 210.151L138.134 211.698L137.602 213.136L137.271 214.607L137.303 216.121L137.108 217.613V219.128L136.592 220.566L136.728 222.102L136.207 223.545L135.811 225.005L135.903 226.53L135.431 227.979V229.494L135.089 230.97V232.527H135.095Z" stroke="#383839" stroke-width="1.62816" stroke-linecap="round" stroke-linejoin="round"/>
<path d="M107.484 59.3181L106.551 60.2462L105.943 61.641L105.096 62.8838L104.326 64.1809L103.875 65.6462L102.812 66.7914L102.258 68.1916L101.867 69.6678L101.297 71.0518L100.445 72.3217L99.8321 73.7002L99.4196 75.1493L99.1482 76.6472L98.2419 77.9226L98.1659 79.4802L97.417 80.8153L97.1727 82.3078L96.5975 83.708L96.1416 85.1408L95.8919 86.6278L95.6803 88.1203L94.9639 89.4934L94.9476 91.0293L94.2583 92.4241L94.1661 93.9383L93.9381 95.4254L93.6939 96.907L93.4171 98.3832L93.2 99.8703L93.1512 101.379L92.8038 102.855L92.4999 104.331L92.7279 105.867L92.2068 107.333L92.1906 108.841L92.4294 110.361L92.2448 111.854L92.2557 113.357L91.9572 114.855L92.2448 116.364L91.7998 117.861L92.0766 119.365L91.9192 120.868L92.0929 122.366L91.8866 123.875L92.3262 125.362L92.0223 126.881L92.4402 128.363L92.6519 129.85L92.7496 131.348L92.5216 132.873L92.7279 134.366L92.7116 135.88L93.2543 137.329L93.3574 138.832L93.5854 140.319L93.9436 141.785V143.31L94.2638 144.78L94.4808 146.268L94.7251 147.749L95.1972 149.193L95.0236 150.756L95.6965 152.156L95.7671 153.676L96.3207 155.098L96.4129 156.617L96.6734 158.104L97.2542 159.51L97.4278 161.019L97.9 162.457L98.4102 163.873L98.5838 165.393L99.2297 166.636L100.798 166.668L102.415 166.989L104.027 167.059L105.639 166.712L107.257 167.043L108.901 166.858L108.282 165.393L108.022 163.895L107.631 162.435L107.522 160.905L107.137 159.45L106.312 158.099L106.176 156.574L105.786 155.114L105.498 153.632L105.004 152.194L105.069 150.642L104.543 149.209L104.217 147.733L104.006 146.24L103.528 144.791L103.246 143.304L103.365 141.752L103.251 140.243L102.784 138.789L102.676 137.28L102.193 135.826L101.916 134.333L101.694 132.841L101.748 131.316L101.818 129.785L101.265 128.331L101.243 126.811L101.341 125.286L101.221 123.783L101.156 122.274L101.021 120.77L100.945 119.267L100.63 117.769L100.7 116.255L100.353 114.746L100.337 113.232L100.76 111.723L100.635 110.209L100.7 108.7L100.766 107.192L100.592 105.667L100.624 104.152L100.912 102.66L101.211 101.167L101.145 99.6369L101.542 98.1661L101.422 96.6194L101.9 95.1594L102.215 93.6832L102.546 92.207L103.04 90.7742L103.154 89.2438L103.789 87.8544L104.261 86.4216L104.489 84.902L105.205 83.5615L105.775 82.1613L106.204 80.7013L107.039 79.4259L107.501 77.9552L108.38 76.7178L109.042 75.3447L110.019 74.1724L111.018 73.0273L112.07 71.9472L113.188 70.9324L114.22 69.8361L115.327 68.6963L114.192 67.6055L113.205 66.4386L112.505 65.0384L111.473 63.8987L110.366 62.8241L109.606 61.4673L108.635 60.2679L107.484 59.3181Z" fill="#FFF6F0"/>
<path d="M107.484 59.3181L106.551 60.2462L105.943 61.641L105.096 62.8838L104.326 64.1809L103.875 65.6462L102.812 66.7914L102.258 68.1916L101.867 69.6678L101.297 71.0518L100.445 72.3217L99.8321 73.7002L99.4196 75.1493L99.1482 76.6472L98.2419 77.9226L98.1659 79.4802L97.417 80.8153L97.1727 82.3078L96.5975 83.708L96.1416 85.1408L95.8919 86.6278L95.6803 88.1203L94.9639 89.4934L94.9476 91.0293L94.2583 92.4241L94.1661 93.9383L93.9381 95.4254L93.6939 96.907L93.4171 98.3832L93.2 99.8703L93.1512 101.379L92.8038 102.855L92.4999 104.331L92.7279 105.867L92.2068 107.333L92.1906 108.841L92.4294 110.361L92.2448 111.854L92.2557 113.357L91.9572 114.855L92.2448 116.364L91.7998 117.861L92.0766 119.365L91.9192 120.868L92.0929 122.366L91.8866 123.875L92.3262 125.362L92.0223 126.881L92.4402 128.363L92.6519 129.85L92.7496 131.348L92.5216 132.873L92.7279 134.366L92.7116 135.88L93.2543 137.329L93.3574 138.832L93.5854 140.319L93.9436 141.785V143.31L94.2638 144.78L94.4808 146.268L94.7251 147.749L95.1972 149.193L95.0236 150.756L95.6965 152.156L95.7671 153.676L96.3207 155.098L96.4129 156.617L96.6734 158.104L97.2542 159.51L97.4278 161.019L97.9 162.457L98.4101 163.873L98.5838 165.393L99.2297 166.636L100.798 166.668L102.415 166.989L104.027 167.059L105.639 166.712L107.257 167.043L108.901 166.858L108.282 165.393L108.022 163.895L107.631 162.435L107.522 160.905L107.137 159.45L106.312 158.099L106.176 156.574L105.786 155.114L105.498 153.632L105.004 152.194L105.069 150.642L104.543 149.209L104.217 147.733L104.006 146.24L103.528 144.791L103.246 143.304L103.365 141.752L103.251 140.243L102.784 138.789L102.676 137.28L102.193 135.826L101.916 134.333L101.694 132.841L101.748 131.316L101.818 129.785L101.265 128.331L101.243 126.811L101.341 125.286L101.221 123.783L101.156 122.274L101.021 120.77L100.945 119.267L100.63 117.769L100.7 116.255L100.353 114.746L100.337 113.232L100.76 111.723L100.635 110.209L100.7 108.7L100.766 107.192L100.592 105.667L100.624 104.152L100.912 102.66L101.211 101.167L101.145 99.6369L101.542 98.1661L101.422 96.6194L101.9 95.1594L102.215 93.6832L102.546 92.207L103.04 90.7742L103.154 89.2438L103.789 87.8544L104.261 86.4216L104.489 84.902L105.205 83.5615L105.775 82.1613L106.204 80.7013L107.039 79.4259L107.501 77.9552L108.38 76.7178L109.042 75.3447L110.019 74.1724L111.018 73.0273L112.07 71.9472L113.188 70.9324L114.22 69.8361L115.327 68.6963L114.192 67.6055L113.205 66.4386L112.505 65.0384L111.473 63.8987L110.366 62.8241L109.606 61.4673L108.635 60.2679L107.484 59.3181Z" stroke="#383839" stroke-width="1.62816" stroke-linecap="round" stroke-linejoin="round"/>
<path d="M113.343 41.3212C114.281 41.2887 113.804 40.8002 114.699 40.0621C115.117 39.7202 115.655 39.3728 116.23 38.9658C116.707 38.6293 117.342 38.4611 117.912 38.1137C118.428 37.799 118.84 37.2562 119.421 36.9632C119.969 36.6864 120.62 36.605 121.217 36.3716C121.814 36.1382 122.379 35.9646 122.992 35.7909C123.605 35.6172 124.192 35.5195 124.821 35.4218C125.451 35.3241 126.026 34.8303 126.666 34.814C127.307 34.7977 127.947 34.8737 128.582 34.9497C129.217 35.0257 129.782 35.3567 130.406 35.5304C130.992 35.6932 131.638 35.7909 132.229 36.0514C132.783 36.2956 133.391 36.5453 133.944 36.8872C134.46 37.202 134.78 37.8424 135.296 38.2494C135.768 38.6239 136.441 39.0038 136.908 39.4597C136.321 40.29 136.001 39.1937 134.758 39.2589C134.172 39.2914 133.521 39.7636 132.767 39.8342C132.132 39.8939 131.448 39.8613 130.742 39.959C130.091 40.0512 129.369 39.8722 128.691 40.0078C128.012 40.1435 127.372 40.3497 126.715 40.5234C126.059 40.6971 125.451 41.0499 124.821 41.2832C124.192 41.5166 123.513 41.7283 122.932 42.0376C122.314 42.3687 121.706 42.7052 121.207 43.1285C120.669 43.5789 120.083 44.0294 119.736 44.5938C119.388 45.1583 119.356 45.8584 119.258 46.5585C120.127 47.0035 119.882 46.2274 120.924 45.6304C121.407 45.3536 121.842 44.7512 122.498 44.4256C123.041 44.1596 123.763 44.1434 124.398 43.8829C124.973 43.6441 125.641 43.5952 126.281 43.389C126.883 43.1936 127.432 42.7486 128.077 42.602C128.723 42.4555 129.38 42.5803 130.031 42.4935C130.682 42.4067 131.296 42.1244 131.952 42.119C132.609 42.119 133.266 42.0702 133.917 42.157C134.568 42.2438 135.193 42.4555 135.822 42.6455C136.452 42.8354 137.021 43.1176 137.618 43.4107C138.215 43.7038 138.91 43.9751 139.458 44.3605C139.724 45.3482 139.138 45.435 139.187 46.4608C139.236 47.4865 139.572 47.4648 139.627 48.4906C139.681 49.5163 139.518 49.5217 139.567 50.5475C139.616 51.5732 140.023 51.6221 139.686 52.5881C139.35 53.5542 139.062 52.1105 138.004 51.5461C137.488 51.2693 136.935 50.8351 136.251 50.5583C135.665 50.3195 134.932 50.4009 134.259 50.2218C133.629 50.0536 133.016 49.728 132.343 49.6574C131.67 49.5869 131.019 49.6737 130.351 49.7442C129.684 49.8148 129.043 49.9125 128.403 50.1459C127.801 50.363 127.177 50.6235 126.601 51.0196C126.086 51.3778 125.532 51.9368 125.054 52.4633C125.673 53.2068 125.874 52.0291 127.025 51.8826C127.584 51.812 128.267 52.1865 128.978 52.1756C129.592 52.1648 130.237 51.9097 130.905 51.9803C131.529 52.0454 132.186 52.1159 132.821 52.2842C133.456 52.4524 134.091 52.5935 134.682 52.8812C135.274 53.1688 135.73 53.6356 136.24 54.0589C136.718 54.4551 137.13 54.9435 137.526 55.4862C137.884 55.9801 138.129 56.4848 138.405 57.1144C138.21 58.0696 138.123 58.0316 137.743 58.9271C137.363 59.8226 137.38 59.8334 137 60.7344C136.62 61.6353 136.479 61.5756 136.099 62.4765C135.719 63.3774 136.218 63.703 135.502 64.3706C134.785 65.0381 135.013 63.6651 134.129 62.8238C133.705 62.4168 132.994 62.1889 132.419 61.7167C131.931 61.3096 131.659 60.5335 131.09 60.1319C130.547 59.752 129.923 59.4318 129.326 59.1008C128.729 58.7697 128.121 58.4169 127.497 58.1727C126.873 57.9285 126.14 57.8634 125.489 57.7548C124.837 57.6463 124.105 57.4455 123.437 57.5214C122.77 57.5974 122.243 58.1836 121.614 58.4821C121.044 58.7534 120.523 58.9054 119.991 59.3993C120.403 60.3219 120.718 59.2907 121.912 59.5729C122.482 59.7086 123.095 60.1048 123.806 60.3436C124.409 60.5444 124.984 60.9189 125.63 61.2065C126.227 61.4725 127.003 61.4562 127.6 61.8089C128.197 62.1617 128.452 62.9215 128.984 63.3503C129.516 63.779 129.955 64.2078 130.4 64.7234C130.845 65.2389 131.518 65.5483 131.855 66.1507C132.191 66.7531 132.305 67.3881 132.506 68.0557C132.028 69.038 132.007 69.0488 131.328 69.9063C130.65 70.7638 130.688 70.7964 130.01 71.6539C129.331 72.5114 129.396 72.6579 128.468 73.2387C127.687 73.7325 128.137 72.5494 127.594 71.5779C127.334 71.1058 126.878 70.6499 126.514 70.0746C126.2 69.5753 126.14 68.8643 125.771 68.3487C125.402 67.8332 125.044 67.3284 124.642 66.8617C124.24 66.3949 123.6 66.1127 123.155 65.722C122.667 65.2878 122.2 64.8753 121.684 64.6148C121.098 64.3163 120.49 63.9039 119.899 63.9256C119.307 63.9473 118.504 64.4086 117.945 64.8265C118.015 65.7708 118.813 65.2444 119.654 66.0205C120.061 66.3949 120.496 66.8617 120.962 67.3881C121.353 67.8332 121.559 68.4627 121.934 69.0109C122.281 69.5156 122.786 69.9335 123.074 70.5142C123.361 71.0949 123.665 71.6268 123.844 72.2509C124.023 72.875 124.11 73.4775 124.159 74.1233C124.208 74.7366 124.219 75.4041 124.132 76.0554C123.546 76.7555 123.242 76.4244 122.531 77.0051C121.82 77.5859 121.95 77.7378 121.239 78.3185C120.528 78.8992 120.512 78.8721 119.801 79.4474C119.09 80.0227 119.236 80.2072 118.526 80.7825C117.815 81.3578 117.88 81.5586 116.979 81.7268C115.948 81.9222 116.832 80.929 116.729 79.7242C116.675 79.0892 116.745 78.3565 116.615 77.6347C116.485 76.9129 116.279 76.2508 116.056 75.6212C115.801 74.8831 115.676 74.069 115.242 73.6348C114.743 73.1355 113.934 73.027 113.136 73.2712C112.301 73.7814 112.458 73.8085 112.149 75.0242C112.018 75.5452 112.181 76.2345 112.17 77.0106C112.165 77.5858 112.007 78.2534 112.116 78.9806C112.208 79.5668 112.518 80.1692 112.708 80.8585C112.87 81.4392 112.892 81.971 113.142 82.6332C112.566 83.5395 112.447 83.2139 111.221 83.3387C110.586 83.4038 109.864 82.9696 109.098 82.872C108.42 82.7851 107.698 82.8503 107.02 82.5355C106.407 82.2533 105.945 81.7377 105.403 81.2004C104.936 80.7391 104.404 80.3157 104.04 79.6156C104.154 78.7093 104.702 79.2303 105.408 78.4162C105.761 78.0092 106.103 77.4665 106.51 76.9454C106.879 76.4787 107.031 75.8166 107.373 75.3119C107.715 74.8071 108.317 74.4109 108.577 73.8954C108.887 73.2821 109.131 72.6362 109.196 72.1207C109.283 71.4368 108.887 70.8832 108.301 70.563C107.611 69.9118 107.763 69.8466 106.618 70.1234C106.162 70.2374 105.663 70.4979 105.033 71.0569C104.643 71.4043 104.344 71.9416 103.883 72.5385C103.541 72.9836 102.814 73.2387 102.434 73.8465C102.13 74.3349 101.962 74.9808 101.631 75.5886C101.348 76.1096 101.088 76.6849 100.789 77.2982C99.6877 77.3959 100.046 76.6361 99.069 75.9143C98.4991 75.491 97.685 75.2359 97.1749 74.7366C96.529 74.1016 96.3391 73.396 96.312 72.8533C96.5073 71.8764 96.3337 72.0772 96.9958 71.0243C97.2943 70.5468 97.7339 70.0257 98.2006 69.4342C98.5805 68.9566 99.1992 68.6255 99.6985 68.1099C100.133 67.6595 100.518 67.1276 101.055 66.6717C101.538 66.2593 102.016 65.8088 102.586 65.4126C103.112 65.049 103.753 64.8536 104.361 64.5117C104.92 64.1969 105.321 63.5239 105.951 63.2417C106.537 62.9758 107.112 62.7641 107.763 62.5362C108.42 61.9066 108.398 61.7547 107.801 61.1251C107.535 60.8483 107.199 60.4847 106.255 60.5118C105.772 60.5227 105.164 60.5335 104.436 60.6747C103.915 60.7778 103.335 60.9569 102.667 61.1414C101.788 61.3748 101.891 61.1034 100.849 61.4779C100.35 61.657 99.8016 61.988 99.1884 62.2648C98.6674 62.4982 98.2875 63.1115 97.7339 63.4208C97.2183 63.7085 96.6484 63.9201 96.1383 64.2729C95.6281 64.6257 95.1614 64.973 94.7109 65.3801C94.2605 65.7871 93.8263 66.1996 93.4518 66.6772C93.0773 67.1548 92.6866 67.3718 92.4206 67.9254C91.4817 67.9905 91.7097 67.7572 91.015 66.9485C90.6405 66.5143 90.4126 65.8848 90.1195 65.2932C89.8427 64.7451 89.3 64.2023 89.2457 63.5619C89.1969 62.9758 89.4628 62.3028 89.7233 61.6678C90.1086 60.7778 90.0869 61.0111 90.7979 60.0451C91.1235 59.6001 91.4437 59.0085 91.9539 58.4821C92.3664 58.0587 93.0339 57.8308 93.5821 57.3966C94.0542 57.0167 94.4667 56.4903 95.0528 56.1321C95.5738 55.8119 96.0894 55.3831 96.7081 55.1009C97.2671 54.8458 98.0161 54.9869 98.6565 54.7753C99.2426 54.5853 99.7691 54.0697 100.426 53.9286C101.034 53.7984 101.685 53.7441 102.352 53.6681C102.971 53.5976 103.617 53.5487 104.29 53.527C104.909 53.5053 105.582 53.6518 106.255 53.6844C107.145 53.3642 107.682 52.7943 106.96 52.1485C106.7 51.9151 106.13 51.7415 105.153 51.5895C104.176 51.3778 104.431 51.2367 103.221 51.0305C102.651 50.9328 101.978 50.7808 101.234 50.7157C100.616 50.656 99.9265 50.884 99.2209 50.8785C98.5751 50.8785 97.9293 51.0576 97.2454 51.1173C96.5616 51.177 95.8886 50.9165 95.2211 51.0576C94.5535 51.1987 93.9837 51.5569 93.3433 51.7849C92.7029 52.0128 91.9539 51.9694 91.3623 52.295C90.7708 52.6207 90.4234 53.2936 89.897 53.7224C89.3705 54.1511 88.9255 54.2488 88.4805 54.7753C87.4547 54.4334 88.0952 54.1783 87.8998 52.9572C87.7967 52.3276 87.7044 51.6329 87.8455 50.8514C87.9649 50.2001 88.2797 49.614 88.6921 48.9356C89.0286 48.382 89.4574 47.8827 90.0652 47.3509C90.7545 46.7104 90.4668 46.6996 91.4492 46.108C91.9159 45.8258 92.3664 45.2722 93.0231 45.0063C93.5604 44.7892 94.217 44.6535 94.8737 44.5016C95.4545 44.3713 96.1274 44.659 96.7895 44.621C97.3865 44.583 98.0161 44.2411 98.6728 44.3062C99.2698 44.3659 99.8613 44.659 100.507 44.8163C101.088 44.9629 101.707 45.0823 102.32 45.3211C102.879 45.5382 103.47 46.0103 104.057 46.3197C104.947 46.222 104.968 45.6087 104.963 44.8977C104.963 44.5396 104.963 44.062 104.051 43.6386C103.259 43.1665 103.563 43.0254 102.608 42.4718C102.141 42.2059 101.538 41.9562 100.914 41.6848C100.382 41.4569 99.7474 41.3375 99.1232 41.1638C98.548 41.0064 97.9076 41.0607 97.2834 40.9956C96.6593 40.9305 96.0949 40.9956 95.4707 41.0553C94.8792 41.115 94.3202 41.2561 93.7177 41.4623C93.1587 41.6523 92.6974 41.6686 92.1439 42.005C91.8074 41.1096 92.4858 41.5112 93.3161 40.6917C93.7069 40.3009 94.0271 39.6768 94.5807 39.2317C95.0474 38.8573 95.8126 38.8356 96.3825 38.4719C96.8981 38.1409 97.4137 37.8152 98.0107 37.533C98.5697 37.2671 99.1287 37.0229 99.7528 36.8329C100.377 36.643 100.903 36.2468 101.549 36.1654C102.195 36.084 102.814 36.0514 103.47 36.084C104.084 36.1111 104.719 36.2359 105.365 36.377C105.962 36.5127 106.559 36.7407 107.177 36.9849C107.742 37.2128 108.415 37.3105 108.995 37.6416C109.522 37.9401 109.951 38.4719 110.488 38.8681C110.976 39.2263 111.541 39.5519 112.04 39.997C112.496 40.404 112.892 40.8545 113.353 41.3375L113.343 41.3212Z" fill="#89CB9A"/>
<path d="M113.343 41.3212C114.281 41.2887 113.804 40.8002 114.699 40.0621C115.117 39.7202 115.655 39.3728 116.23 38.9658C116.707 38.6293 117.342 38.4611 117.912 38.1137C118.428 37.799 118.84 37.2562 119.421 36.9632C119.969 36.6864 120.62 36.605 121.217 36.3716C121.814 36.1382 122.379 35.9646 122.992 35.7909C123.605 35.6172 124.192 35.5195 124.821 35.4218C125.451 35.3241 126.026 34.8303 126.666 34.814C127.307 34.7977 127.947 34.8737 128.582 34.9497C129.217 35.0257 129.782 35.3567 130.406 35.5304C130.992 35.6932 131.638 35.7909 132.229 36.0514C132.783 36.2956 133.391 36.5453 133.944 36.8872C134.46 37.202 134.78 37.8424 135.296 38.2494C135.768 38.6239 136.441 39.0038 136.908 39.4597C136.321 40.29 136.001 39.1937 134.758 39.2589C134.172 39.2914 133.521 39.7636 132.767 39.8342C132.132 39.8939 131.448 39.8613 130.742 39.959C130.091 40.0512 129.369 39.8722 128.691 40.0078C128.012 40.1435 127.372 40.3497 126.715 40.5234C126.059 40.6971 125.451 41.0499 124.821 41.2832C124.192 41.5166 123.513 41.7283 122.932 42.0376C122.314 42.3687 121.706 42.7052 121.207 43.1285C120.669 43.5789 120.083 44.0294 119.736 44.5938C119.388 45.1583 119.356 45.8584 119.258 46.5585C120.127 47.0035 119.882 46.2274 120.924 45.6304C121.407 45.3536 121.842 44.7512 122.498 44.4256C123.041 44.1596 123.763 44.1434 124.398 43.8829C124.973 43.6441 125.641 43.5952 126.281 43.389C126.883 43.1936 127.432 42.7486 128.077 42.602C128.723 42.4555 129.38 42.5803 130.031 42.4935C130.682 42.4067 131.296 42.1244 131.952 42.119C132.609 42.119 133.266 42.0702 133.917 42.157C134.568 42.2438 135.193 42.4555 135.822 42.6455C136.452 42.8354 137.021 43.1176 137.618 43.4107C138.215 43.7038 138.91 43.9751 139.458 44.3605C139.724 45.3482 139.138 45.435 139.187 46.4608C139.236 47.4865 139.572 47.4648 139.627 48.4906C139.681 49.5163 139.518 49.5217 139.567 50.5475C139.616 51.5732 140.023 51.6221 139.686 52.5881C139.35 53.5542 139.062 52.1105 138.004 51.5461C137.488 51.2693 136.935 50.8351 136.251 50.5583C135.665 50.3195 134.932 50.4009 134.259 50.2218C133.629 50.0536 133.016 49.728 132.343 49.6574C131.67 49.5869 131.019 49.6737 130.351 49.7442C129.684 49.8148 129.043 49.9125 128.403 50.1459C127.801 50.363 127.177 50.6235 126.601 51.0196C126.086 51.3778 125.532 51.9368 125.054 52.4633C125.673 53.2068 125.874 52.0291 127.025 51.8826C127.584 51.812 128.267 52.1865 128.978 52.1756C129.592 52.1648 130.237 51.9097 130.905 51.9803C131.529 52.0454 132.186 52.1159 132.821 52.2842C133.456 52.4524 134.091 52.5935 134.682 52.8812C135.274 53.1688 135.73 53.6356 136.24 54.0589C136.718 54.4551 137.13 54.9435 137.526 55.4862C137.884 55.9801 138.129 56.4848 138.405 57.1144C138.21 58.0696 138.123 58.0316 137.743 58.9271C137.363 59.8226 137.38 59.8334 137 60.7344C136.62 61.6353 136.479 61.5756 136.099 62.4765C135.719 63.3774 136.218 63.703 135.502 64.3706C134.785 65.0381 135.013 63.6651 134.129 62.8238C133.705 62.4168 132.994 62.1889 132.419 61.7167C131.931 61.3096 131.659 60.5335 131.09 60.1319C130.547 59.752 129.923 59.4318 129.326 59.1008C128.729 58.7697 128.121 58.4169 127.497 58.1727C126.873 57.9285 126.14 57.8634 125.489 57.7548C124.837 57.6463 124.105 57.4455 123.437 57.5214C122.77 57.5974 122.243 58.1836 121.614 58.4821C121.044 58.7534 120.523 58.9054 119.991 59.3993C120.403 60.3219 120.718 59.2907 121.912 59.5729C122.482 59.7086 123.095 60.1048 123.806 60.3436C124.409 60.5444 124.984 60.9189 125.63 61.2065C126.227 61.4725 127.003 61.4562 127.6 61.8089C128.197 62.1617 128.452 62.9215 128.984 63.3503C129.516 63.779 129.955 64.2078 130.4 64.7234C130.845 65.2389 131.518 65.5483 131.855 66.1507C132.191 66.7531 132.305 67.3881 132.506 68.0557C132.028 69.038 132.007 69.0488 131.328 69.9063C130.65 70.7638 130.688 70.7964 130.01 71.6539C129.331 72.5114 129.396 72.6579 128.468 73.2387C127.687 73.7325 128.137 72.5494 127.594 71.5779C127.334 71.1058 126.878 70.6499 126.514 70.0746C126.2 69.5753 126.14 68.8643 125.771 68.3487C125.402 67.8332 125.044 67.3284 124.642 66.8617C124.24 66.3949 123.6 66.1127 123.155 65.722C122.667 65.2878 122.2 64.8753 121.684 64.6148C121.098 64.3163 120.49 63.9039 119.899 63.9256C119.307 63.9473 118.504 64.4086 117.945 64.8265C118.015 65.7708 118.813 65.2444 119.654 66.0205C120.061 66.3949 120.496 66.8617 120.962 67.3881C121.353 67.8332 121.559 68.4627 121.934 69.0109C122.281 69.5156 122.786 69.9335 123.074 70.5142C123.361 71.0949 123.665 71.6268 123.844 72.2509C124.023 72.875 124.11 73.4775 124.159 74.1233C124.208 74.7366 124.219 75.4041 124.132 76.0554C123.546 76.7555 123.242 76.4244 122.531 77.0051C121.82 77.5859 121.95 77.7378 121.239 78.3185C120.528 78.8992 120.512 78.8721 119.801 79.4474C119.09 80.0227 119.236 80.2072 118.526 80.7825C117.815 81.3578 117.88 81.5586 116.979 81.7268C115.948 81.9222 116.832 80.929 116.729 79.7242C116.675 79.0892 116.745 78.3565 116.615 77.6347C116.485 76.9129 116.279 76.2508 116.056 75.6212C115.801 74.8831 115.676 74.069 115.242 73.6348C114.743 73.1355 113.934 73.027 113.136 73.2712C112.301 73.7814 112.458 73.8085 112.149 75.0242C112.018 75.5452 112.181 76.2345 112.17 77.0106C112.165 77.5859 112.007 78.2534 112.116 78.9806C112.208 79.5668 112.518 80.1692 112.708 80.8585C112.87 81.4392 112.892 81.971 113.142 82.6332C112.566 83.5395 112.447 83.2139 111.221 83.3387C110.586 83.4038 109.864 82.9696 109.098 82.872C108.42 82.7851 107.698 82.8503 107.02 82.5355C106.407 82.2533 105.945 81.7377 105.403 81.2004C104.936 80.7391 104.404 80.3157 104.04 79.6156C104.154 78.7093 104.702 79.2303 105.408 78.4162C105.761 78.0092 106.103 77.4665 106.51 76.9454C106.879 76.4787 107.031 75.8166 107.373 75.3119C107.715 74.8071 108.317 74.4109 108.577 73.8954C108.887 73.2821 109.131 72.6362 109.196 72.1207C109.283 71.4368 108.887 70.8832 108.301 70.563C107.611 69.9118 107.763 69.8466 106.618 70.1234C106.162 70.2374 105.663 70.4979 105.033 71.0569C104.643 71.4043 104.344 71.9416 103.883 72.5385C103.541 72.9836 102.814 73.2387 102.434 73.8465C102.13 74.3349 101.962 74.9808 101.631 75.5886C101.348 76.1097 101.088 76.6849 100.789 77.2982C99.6877 77.3959 100.046 76.6361 99.069 75.9143C98.4991 75.491 97.685 75.2359 97.1749 74.7366C96.529 74.1016 96.3391 73.396 96.312 72.8533C96.5073 71.8764 96.3337 72.0772 96.9958 71.0244C97.2943 70.5468 97.7339 70.0257 98.2006 69.4342C98.5805 68.9566 99.1992 68.6255 99.6985 68.1099C100.133 67.6595 100.518 67.1276 101.055 66.6717C101.538 66.2593 102.016 65.8088 102.586 65.4126C103.112 65.049 103.753 64.8536 104.361 64.5117C104.92 64.1969 105.321 63.5239 105.951 63.2417C106.537 62.9758 107.112 62.7641 107.763 62.5362C108.42 61.9066 108.398 61.7547 107.801 61.1251C107.535 60.8483 107.199 60.4847 106.255 60.5118C105.772 60.5227 105.164 60.5335 104.436 60.6747C103.915 60.7778 103.335 60.9569 102.667 61.1414C101.788 61.3748 101.891 61.1034 100.849 61.4779C100.35 61.657 99.8016 61.988 99.1884 62.2648C98.6674 62.4982 98.2875 63.1115 97.7339 63.4208C97.2183 63.7085 96.6484 63.9201 96.1383 64.2729C95.6281 64.6257 95.1614 64.973 94.7109 65.3801C94.2605 65.7871 93.8263 66.1996 93.4518 66.6772C93.0773 67.1548 92.6866 67.3718 92.4206 67.9254C91.4817 67.9905 91.7097 67.7572 91.015 66.9485C90.6405 66.5143 90.4126 65.8848 90.1195 65.2932C89.8427 64.7451 89.3 64.2023 89.2457 63.5619C89.1969 62.9758 89.4628 62.3028 89.7233 61.6678C90.1086 60.7778 90.0869 61.0111 90.7979 60.0451C91.1235 59.6001 91.4437 59.0085 91.9539 58.4821C92.3664 58.0587 93.0339 57.8308 93.5821 57.3966C94.0542 57.0167 94.4667 56.4903 95.0528 56.1321C95.5738 55.8119 96.0894 55.3831 96.7081 55.1009C97.2671 54.8458 98.0161 54.9869 98.6565 54.7753C99.2426 54.5853 99.7691 54.0697 100.426 53.9286C101.034 53.7984 101.685 53.7441 102.352 53.6681C102.971 53.5976 103.617 53.5487 104.29 53.527C104.909 53.5053 105.582 53.6518 106.255 53.6844C107.145 53.3642 107.682 52.7943 106.96 52.1485C106.7 51.9151 106.13 51.7415 105.153 51.5895C104.176 51.3778 104.431 51.2367 103.221 51.0305C102.651 50.9328 101.978 50.7808 101.234 50.7157C100.616 50.656 99.9265 50.884 99.2209 50.8785C98.5751 50.8785 97.9293 51.0576 97.2454 51.1173C96.5616 51.177 95.8886 50.9165 95.2211 51.0576C94.5535 51.1987 93.9837 51.5569 93.3433 51.7849C92.7029 52.0128 91.9539 51.9694 91.3623 52.295C90.7708 52.6207 90.4234 53.2936 89.897 53.7224C89.3705 54.1511 88.9255 54.2488 88.4805 54.7753C87.4547 54.4334 88.0952 54.1783 87.8998 52.9572C87.7967 52.3276 87.7044 51.6329 87.8455 50.8514C87.9649 50.2001 88.2797 49.614 88.6921 48.9356C89.0286 48.382 89.4574 47.8827 90.0652 47.3509C90.7545 46.7104 90.4668 46.6996 91.4492 46.108C91.9159 45.8258 92.3664 45.2722 93.0231 45.0063C93.5604 44.7892 94.217 44.6535 94.8737 44.5016C95.4545 44.3713 96.1274 44.659 96.7895 44.621C97.3865 44.583 98.0161 44.2411 98.6728 44.3062C99.2698 44.3659 99.8613 44.659 100.507 44.8163C101.088 44.9629 101.707 45.0823 102.32 45.3211C102.879 45.5382 103.47 46.0103 104.057 46.3197C104.947 46.222 104.968 45.6087 104.963 44.8977C104.963 44.5396 104.963 44.062 104.051 43.6386C103.259 43.1665 103.563 43.0254 102.608 42.4718C102.141 42.2059 101.538 41.9562 100.914 41.6848C100.382 41.4569 99.7474 41.3375 99.1232 41.1638C98.548 41.0064 97.9076 41.0607 97.2834 40.9956C96.6593 40.9305 96.0949 40.9956 95.4707 41.0553C94.8792 41.115 94.3202 41.2561 93.7177 41.4623C93.1587 41.6523 92.6974 41.6686 92.1439 42.005C91.8074 41.1096 92.4858 41.5112 93.3161 40.6917C93.7069 40.3009 94.0271 39.6768 94.5807 39.2317C95.0474 38.8573 95.8126 38.8356 96.3825 38.4719C96.8981 38.1409 97.4137 37.8152 98.0107 37.533C98.5697 37.2671 99.1287 37.0229 99.7528 36.8329C100.377 36.643 100.903 36.2468 101.549 36.1654C102.195 36.084 102.814 36.0514 103.47 36.084C104.084 36.1111 104.719 36.2359 105.365 36.377C105.962 36.5127 106.559 36.7407 107.177 36.9849C107.742 37.2128 108.415 37.3105 108.995 37.6416C109.522 37.9401 109.951 38.4719 110.488 38.8681C110.976 39.2263 111.541 39.5519 112.04 39.997C112.496 40.404 112.892 40.8545 113.353 41.3375L113.343 41.3212Z" stroke="#383839" stroke-width="1.62816" stroke-linecap="round" stroke-linejoin="round"/>
<path d="M80.9638 97.1021C80.0032 97.2975 80.2148 96.7656 79.1185 96.2175C78.6192 95.9678 78.0765 95.5716 77.3981 95.2731C76.8391 95.0343 76.1987 94.8878 75.542 94.6436C74.9559 94.4265 74.3209 94.2908 73.6642 94.0954C73.0563 93.9109 72.4702 93.5961 71.8135 93.4387C71.1568 93.2813 70.5598 93.1185 69.8977 93.0045C69.2356 92.8906 68.644 92.4835 67.9819 92.4238C67.3198 92.3641 66.6576 92.337 65.9955 92.3316C65.3334 92.3261 64.6876 92.6138 64.0309 92.6735C63.3742 92.7332 62.7609 92.9611 62.1096 93.086C61.4584 93.2108 60.7691 93.0914 60.1341 93.2868C59.4992 93.4821 58.989 93.9435 58.3757 94.2094C57.7624 94.4753 57.122 94.6001 56.5413 94.9366C55.9606 95.2731 55.4505 95.6476 54.9132 96.0492C54.3759 96.4508 54.0936 97.0695 53.5998 97.5308C53.133 97.965 52.6337 98.3666 52.1887 98.8714C51.7654 99.349 51.3909 99.8645 50.9893 100.413C50.6094 100.923 50.1155 101.308 49.7573 101.883C50.4086 102.605 50.452 101.851 51.6405 101.601C52.1833 101.487 52.8291 101.373 53.5509 101.248C54.1425 101.145 54.7775 100.988 55.4667 100.89C56.08 100.803 56.715 100.581 57.3825 100.505C58.0121 100.434 58.6796 100.554 59.3363 100.505C59.993 100.456 60.6172 100.315 61.2739 100.293C61.9305 100.272 62.571 100.261 63.2222 100.272C63.8735 100.282 64.541 100.12 65.1869 100.174C65.8327 100.228 66.4731 100.532 67.1027 100.635C67.7322 100.738 68.3564 101.01 68.9696 101.183C69.6155 101.362 70.3753 101.194 70.9506 101.449C71.5584 101.721 72.0306 102.269 72.5407 102.638C73.0509 103.007 73.637 103.398 74.0441 103.902C74.4511 104.407 74.7985 105.178 75.0481 105.802C74.3209 106.426 74.2395 105.444 73.0943 105.091C72.5733 104.928 71.9492 104.754 71.2491 104.575C70.6738 104.429 70.0442 104.315 69.3767 104.179C68.7797 104.06 68.1284 104.103 67.4663 104.006C66.853 103.913 66.2289 103.821 65.5776 103.761C64.9264 103.702 64.3294 103.68 63.6727 103.653C63.016 103.626 62.419 103.593 61.7677 103.615C61.1165 103.636 60.5086 103.647 59.8682 103.712C59.2278 103.778 58.6091 103.821 57.9795 103.94C57.35 104.06 56.753 104.233 56.1343 104.413C55.5156 104.592 54.9349 104.782 54.3379 105.026C53.7409 105.27 53.2199 105.585 52.6554 105.894C52.091 106.204 51.3963 106.252 50.8699 106.632C50.3434 107.012 49.8062 107.354 49.3286 107.794C48.851 108.233 48.2431 108.754 47.8198 109.254C47.7872 110.171 48.3191 110.149 48.4928 111.045C48.6664 111.94 48.6827 111.94 48.8618 112.841C49.0409 113.742 49.1657 113.715 49.3394 114.616C49.5131 115.517 49.372 115.544 49.5456 116.445C49.7193 117.346 49.5456 117.378 49.7193 118.285C49.893 119.191 49.7356 119.256 50.2566 120.01C50.8048 120.814 50.7559 119.587 51.6188 118.768C52.0259 118.382 52.2701 117.66 52.8345 117.199C53.3067 116.814 54.0882 116.765 54.6527 116.374C55.1682 116.016 55.5861 115.468 56.1668 115.137C56.7476 114.806 57.4042 114.751 58.0121 114.491C58.6199 114.23 59.1898 114.024 59.8248 113.85C60.4598 113.677 60.9971 113.112 61.6538 113.036C62.3104 112.96 62.9726 113.112 63.6293 113.15C64.286 113.188 64.8938 113.384 65.5396 113.547C66.1475 113.699 66.6902 114.057 67.3035 114.339C67.8679 114.599 68.5083 114.73 69.0728 115.11C68.682 115.967 68.3455 115.055 67.1949 115.164C66.6522 115.213 66.0172 115.31 65.3226 115.424C64.7418 115.522 64.1557 115.799 63.5099 115.962C62.9183 116.108 62.2996 116.211 61.6863 116.423C61.073 116.635 60.4869 116.787 59.9062 117.063C59.3255 117.34 58.7773 117.617 58.24 117.964C57.7027 118.312 57.1492 118.616 56.6716 119.039C56.194 119.462 55.7001 119.875 55.2985 120.374C54.8969 120.873 54.9132 121.606 54.6038 122.176C54.3107 122.713 53.9525 123.207 53.7463 123.826C53.5564 124.401 53.3121 124.96 53.2036 125.611C53.6703 126.55 53.8277 126.447 54.4573 127.288C55.0868 128.129 55.0923 128.124 55.7218 128.965C56.3514 129.806 56.2483 129.882 56.8832 130.724C57.5182 131.565 57.4585 131.608 58.0881 132.45C58.7176 133.291 58.5385 133.562 59.434 134.11C60.3295 134.658 59.8085 133.312 60.4598 132.249C60.7637 131.749 61.3607 131.321 61.7894 130.697C62.1476 130.176 62.5547 129.644 62.9943 129.074C63.3959 128.553 63.689 127.929 64.1448 127.402C64.6007 126.876 65.0132 126.371 65.5016 125.888C65.9901 125.405 66.56 125.047 67.081 124.613C67.602 124.178 68.0144 123.587 68.5789 123.223C69.1433 122.86 69.8597 122.729 70.473 122.463C71.0863 122.198 71.6453 121.649 72.3074 121.508C72.9695 121.367 73.6859 121.389 74.3697 121.411C75.0535 121.432 75.7374 121.492 76.4103 121.687C77.029 121.866 77.3547 122.241 77.9842 122.588C77.854 123.565 77.5718 122.974 76.4755 123.505C75.9653 123.75 75.4443 124.168 74.7985 124.531C74.2666 124.83 73.6533 125.074 73.0672 125.459C72.5407 125.801 72.0469 126.23 71.5041 126.642C70.994 127.028 70.4513 127.386 69.952 127.836C69.4527 128.287 68.8991 128.623 68.4486 129.112C67.9982 129.6 67.6345 130.138 67.2438 130.669C66.853 131.201 66.3266 131.646 66.0064 132.227C65.6862 132.808 65.5559 133.47 65.3226 134.094C65.0892 134.718 65.1217 135.375 64.9861 136.026C64.8504 136.677 64.7147 137.122 64.6821 137.795C65.2249 138.49 65.29 138.36 65.9847 138.902C66.6794 139.445 66.5437 139.619 67.2384 140.162C67.933 140.704 67.8299 140.84 68.5246 141.383C69.2193 141.925 69.3224 141.795 70.0225 142.332C70.7226 142.87 70.6087 143.195 71.4716 143.375C72.4431 143.575 71.5367 142.55 71.8406 141.377C71.9872 140.824 72.4865 140.265 72.6981 139.559C72.8827 138.962 72.8935 138.268 73.1269 137.616C73.344 137.008 73.4688 136.341 73.7293 135.717C73.9898 135.093 74.4945 134.61 74.7876 134.023C75.0807 133.437 75.2761 132.77 75.6288 132.227C76.0033 131.646 76.4918 131.196 76.9205 130.729C77.3927 130.208 77.8268 129.731 78.3587 129.405C78.9394 129.052 79.5473 128.916 80.204 128.868C80.8172 128.824 81.6313 128.759 82.3097 129.041C82.4997 130.013 81.7724 129.758 81.0832 130.756C80.7575 131.223 80.3288 131.733 79.9597 132.374C79.6504 132.905 79.2216 133.426 78.9231 134.061C78.6518 134.637 78.6138 135.331 78.3859 135.972C78.1688 136.58 77.6478 137.112 77.4958 137.768C77.3438 138.425 77.5121 139.098 77.4415 139.765C77.371 140.433 77.4795 141.046 77.5121 141.719C77.5446 142.392 77.3275 143.043 77.4741 143.7C77.6206 144.357 77.8703 144.905 78.1253 145.535C78.9557 146.132 78.9666 146.126 79.8892 146.56C80.8118 146.994 80.8335 146.956 81.7562 147.396C82.6788 147.836 82.6299 147.939 83.558 148.373C84.486 148.807 84.5077 148.758 85.4304 149.198C86.353 149.638 86.429 149.486 87.357 149.925C88.2851 150.365 88.1657 150.935 89.186 150.989C90.2063 151.043 89.186 150.012 88.9689 148.834C88.8658 148.254 88.4316 147.624 88.3448 146.897C88.2634 146.256 88.3285 145.562 88.2959 144.878C88.2634 144.194 88.1603 143.51 88.1983 142.859C88.2417 142.148 88.3448 141.448 88.5185 140.851C88.7247 140.134 89.034 139.445 89.4845 139.027C89.935 138.609 90.6025 138.664 91.3895 138.707C92.2849 138.989 92.0244 138.919 92.6811 139.923C92.9633 140.357 93.4138 140.845 93.6852 141.529C93.8914 142.045 94.1519 142.647 94.3093 143.326C94.4395 143.885 94.2822 144.552 94.3581 145.231C94.4233 145.806 94.5264 146.425 94.5372 147.098C94.5481 147.684 94.6838 148.319 94.6404 148.981C94.6024 149.572 94.4721 150.088 94.3907 150.745C95.1234 151.461 95.1505 151.173 96.3662 151.065C96.9686 151.016 97.609 150.538 98.3417 150.365C98.9713 150.213 99.7257 150.278 100.382 149.996C100.99 149.73 101.674 149.453 102.244 149.035C102.781 148.644 103.183 148.02 103.639 147.472C104.057 146.973 104.247 146.3 104.561 145.649C104.838 145.068 105.321 144.46 105.495 143.749C105.153 142.897 104.626 143.624 103.715 142.995C103.275 142.691 102.77 142.305 102.228 141.904C101.761 141.556 101.527 140.84 101.034 140.438C100.54 140.037 100.122 139.63 99.6714 139.223C99.2209 138.816 98.434 138.702 98.0324 138.268C97.5873 137.79 97.5873 136.998 97.2726 136.525C96.8818 135.945 96.4096 135.532 96.3174 135.006C96.2088 134.376 96.4368 133.871 96.9415 133.405C97.4625 132.601 97.2129 132.455 98.3037 132.2C98.7813 132.086 99.4814 131.863 100.268 132.118C100.773 132.281 101.289 132.748 101.94 133.139C102.418 133.432 102.955 133.785 103.519 134.23C103.975 134.588 104.588 134.87 105.104 135.348C105.538 135.749 105.777 136.422 106.255 136.916C106.672 137.35 107.042 137.871 107.492 138.376C107.894 138.827 108.42 139.467 108.854 139.988C109.744 139.988 109.462 139.293 110.151 138.512C110.504 138.116 110.678 137.464 111.074 136.965C111.438 136.509 111.888 136.097 112.219 135.608C112.572 135.087 112.914 134.588 113.136 134.094C113.429 133.443 113.419 132.943 113.326 132.471C112.903 131.592 113.142 131.749 112.284 130.859C111.904 130.463 111.21 130.257 110.651 129.768C110.206 129.378 109.717 128.971 109.153 128.553C108.664 128.189 108.257 127.646 107.682 127.277C107.161 126.946 106.667 126.501 106.07 126.181C105.522 125.883 104.925 125.611 104.312 125.334C103.736 125.074 103.161 124.748 102.537 124.515C101.945 124.298 101.359 123.961 100.719 123.771C100.111 123.592 99.4272 123.603 98.7759 123.457C98.1246 123.31 97.4734 123.457 96.8167 123.348C96.16 123.24 95.4761 123.164 94.814 123.098C93.9674 122.61 94.1953 122.105 94.2713 121.237C94.3147 120.765 94.3744 120.037 95.3079 119.679C95.7801 119.495 96.4639 119.408 97.278 119.299C97.837 119.229 98.4991 119.164 99.2426 119.142C99.8342 119.126 100.485 119.527 101.207 119.549C102.157 119.56 101.935 119.408 103.101 119.511C103.644 119.56 104.306 119.462 105.012 119.565C105.598 119.652 106.265 119.592 106.922 119.734C107.519 119.858 108.132 120.097 108.762 120.276C109.392 120.455 109.88 120.917 110.488 121.139C111.096 121.362 111.714 121.47 112.295 121.747C112.876 122.024 113.429 122.322 113.967 122.664C114.504 123.006 115.106 123.288 115.584 123.701C116.062 124.113 116.431 124.792 116.832 125.286C117.831 125.117 117.359 124.526 117.929 123.495C118.222 122.968 118.504 122.333 118.743 121.649C118.954 121.031 118.998 120.358 119.063 119.674C119.128 118.99 119.454 118.29 119.28 117.617C119.117 117.004 118.564 116.483 118.129 115.902C117.527 115.104 117.831 115.137 116.897 114.306C116.474 113.932 115.747 113.764 115.128 113.324C114.629 112.971 114.195 112.418 113.57 112.065C113.028 111.756 112.431 111.435 111.79 111.148C111.21 110.887 110.613 110.556 109.951 110.334C109.343 110.127 108.653 110.106 107.98 109.948C107.356 109.802 106.667 109.905 105.989 109.802C105.354 109.71 104.719 109.438 104.035 109.395C103.389 109.357 102.727 109.34 102.038 109.357C101.392 109.373 100.73 109.389 100.04 109.46C99.4 109.525 98.727 109.563 98.0541 109.677C97.4137 109.785 96.8004 110.095 96.1328 110.252C95.5033 110.399 94.8195 110.529 94.1573 110.724C93.3107 110.676 93.0719 110.334 92.73 109.769C92.5129 109.416 92.5563 108.906 93.3704 108.347C93.7232 108.108 94.2713 107.94 94.9334 107.663C95.8343 107.213 95.5901 107.273 96.7298 106.752C97.2508 106.507 97.837 106.149 98.5425 105.872C99.1232 105.645 99.7528 105.379 100.431 105.156C101.044 104.955 101.658 104.619 102.336 104.445C102.971 104.282 103.682 104.347 104.36 104.228C105.039 104.109 105.701 104.217 106.379 104.152C107.058 104.087 107.693 103.669 108.377 103.664C109.06 103.658 109.739 103.664 110.417 103.729C111.096 103.794 111.666 104.38 112.328 104.527C112.99 104.673 113.712 104.516 114.352 104.749C114.992 104.982 115.492 105.46 116.094 105.78C116.697 106.1 117.315 106.328 117.88 106.73C118.753 106.312 117.82 105.943 117.842 104.798C117.853 104.233 117.929 103.609 117.793 102.904C117.679 102.312 117.424 101.759 117.142 101.135C116.892 100.581 116.642 100.038 116.214 99.5009C115.839 99.0288 115.617 98.3504 115.074 97.9162C114.602 97.5417 114.059 97.1564 113.44 96.8362C112.556 96.3423 112.735 96.4508 111.557 96.0384C111.009 95.8484 110.276 95.957 109.527 95.7996C108.914 95.6747 108.263 95.6422 107.541 95.5825C106.9 95.5336 106.26 95.5011 105.549 95.5391C104.903 95.5716 104.268 95.6639 103.574 95.7887C102.939 95.9081 102.244 95.8484 101.571 96.0601C100.952 96.2554 100.333 96.516 99.6931 96.809C99.1015 97.0804 98.5154 97.4006 97.913 97.7642C97.354 98.0953 96.8112 98.486 96.2468 98.9094C95.7258 99.2947 95.1342 99.5606 94.6078 100.027C93.4084 100.136 93.023 99.8157 92.7951 98.8822C92.6811 98.4155 92.8114 97.8131 93.8643 96.961C94.5589 96.2934 94.3636 96.4074 95.1885 95.577C95.5793 95.1809 96.0514 94.7413 96.5996 94.2799C97.0609 93.8946 97.571 93.5093 98.1301 93.1239C98.6402 92.7712 99.2372 92.5432 99.8179 92.2285C100.371 91.93 100.893 91.5718 101.506 91.3384C102.119 91.105 102.651 90.7088 103.286 90.5732C103.921 90.4375 104.561 90.3941 105.218 90.3669C105.875 90.3398 106.477 90.5297 107.134 90.6166C107.747 90.698 108.279 90.7414 108.919 90.9422C109.104 89.9762 108.431 90.4972 107.405 89.8513C106.928 89.5528 106.265 89.3954 105.609 89.0535C105.071 88.7713 104.632 88.1635 103.997 87.8867C103.422 87.637 102.797 87.3982 102.152 87.1811C101.549 86.9803 100.86 86.9803 100.209 86.8338C99.5574 86.6873 98.9496 86.5407 98.2874 86.4593C97.6253 86.3779 96.9958 86.443 96.3282 86.443C95.6607 86.443 95.0148 86.2477 94.3527 86.3345C93.6906 86.4213 93.1316 86.8284 92.4857 87.002C91.8399 87.1757 91.1669 87.1269 90.5482 87.3928C89.9621 87.6425 89.5605 88.272 88.9798 88.6139C88.437 88.9341 87.916 89.2815 87.3787 89.6885C86.874 90.0684 86.0654 90.1173 85.5661 90.5786C85.1047 91.0073 84.638 91.4958 84.1875 92.0005C83.7696 92.4727 83.7045 93.2651 83.2921 93.8023C82.9122 94.3071 82.1849 94.5947 81.8104 95.1646C81.4631 95.6964 81.3165 96.4942 80.9801 97.0858L80.9638 97.1021Z" fill="#41B879"/>
<path d="M80.9638 97.1021C80.0032 97.2975 80.2148 96.7656 79.1185 96.2175C78.6192 95.9678 78.0765 95.5716 77.3981 95.2731C76.8391 95.0343 76.1987 94.8878 75.542 94.6436C74.9559 94.4265 74.3209 94.2908 73.6642 94.0954C73.0563 93.9109 72.4702 93.5961 71.8135 93.4387C71.1568 93.2813 70.5598 93.1185 69.8977 93.0045C69.2356 92.8906 68.644 92.4835 67.9819 92.4238C67.3198 92.3641 66.6576 92.337 65.9955 92.3316C65.3334 92.3261 64.6876 92.6138 64.0309 92.6735C63.3742 92.7332 62.7609 92.9611 62.1096 93.086C61.4584 93.2108 60.7691 93.0914 60.1341 93.2868C59.4992 93.4821 58.989 93.9435 58.3757 94.2094C57.7624 94.4753 57.122 94.6001 56.5413 94.9366C55.9606 95.2731 55.4505 95.6476 54.9132 96.0492C54.3759 96.4508 54.0936 97.0695 53.5998 97.5308C53.133 97.965 52.6337 98.3666 52.1887 98.8714C51.7654 99.349 51.3909 99.8645 50.9893 100.413C50.6094 100.923 50.1155 101.308 49.7573 101.883C50.4086 102.605 50.452 101.851 51.6405 101.601C52.1833 101.487 52.8291 101.373 53.5509 101.248C54.1425 101.145 54.7775 100.988 55.4667 100.89C56.08 100.803 56.715 100.581 57.3825 100.505C58.0121 100.434 58.6796 100.554 59.3363 100.505C59.993 100.456 60.6172 100.315 61.2739 100.293C61.9305 100.272 62.571 100.261 63.2222 100.272C63.8735 100.282 64.541 100.12 65.1869 100.174C65.8327 100.228 66.4731 100.532 67.1027 100.635C67.7322 100.738 68.3564 101.01 68.9696 101.183C69.6155 101.362 70.3753 101.194 70.9506 101.449C71.5584 101.721 72.0306 102.269 72.5407 102.638C73.0509 103.007 73.637 103.398 74.0441 103.902C74.4511 104.407 74.7985 105.178 75.0481 105.802C74.3209 106.426 74.2395 105.444 73.0943 105.091C72.5733 104.928 71.9492 104.754 71.2491 104.575C70.6738 104.429 70.0442 104.315 69.3767 104.179C68.7797 104.06 68.1284 104.103 67.4663 104.006C66.853 103.913 66.2289 103.821 65.5776 103.761C64.9264 103.702 64.3294 103.68 63.6727 103.653C63.016 103.626 62.419 103.593 61.7677 103.615C61.1165 103.636 60.5086 103.647 59.8682 103.712C59.2278 103.778 58.6091 103.821 57.9795 103.94C57.35 104.06 56.753 104.233 56.1343 104.413C55.5156 104.592 54.9349 104.782 54.3379 105.026C53.7409 105.27 53.2199 105.585 52.6554 105.894C52.091 106.204 51.3963 106.252 50.8699 106.632C50.3434 107.012 49.8062 107.354 49.3286 107.794C48.851 108.233 48.2431 108.754 47.8198 109.254C47.7872 110.171 48.3191 110.149 48.4928 111.045C48.6664 111.94 48.6827 111.94 48.8618 112.841C49.0409 113.742 49.1657 113.715 49.3394 114.616C49.5131 115.517 49.372 115.544 49.5456 116.445C49.7193 117.346 49.5456 117.378 49.7193 118.285C49.893 119.191 49.7356 119.256 50.2566 120.01C50.8048 120.814 50.7559 119.587 51.6188 118.768C52.0259 118.382 52.2701 117.66 52.8345 117.199C53.3067 116.814 54.0882 116.765 54.6527 116.374C55.1682 116.016 55.5861 115.468 56.1668 115.137C56.7476 114.806 57.4042 114.751 58.0121 114.491C58.6199 114.23 59.1898 114.024 59.8248 113.85C60.4598 113.677 60.9971 113.112 61.6538 113.036C62.3104 112.96 62.9726 113.112 63.6293 113.15C64.286 113.188 64.8938 113.384 65.5396 113.547C66.1475 113.699 66.6902 114.057 67.3035 114.339C67.8679 114.599 68.5083 114.73 69.0728 115.11C68.682 115.967 68.3455 115.055 67.1949 115.164C66.6522 115.213 66.0172 115.31 65.3226 115.424C64.7418 115.522 64.1557 115.799 63.5099 115.962C62.9183 116.108 62.2996 116.211 61.6863 116.423C61.073 116.635 60.4869 116.787 59.9062 117.063C59.3255 117.34 58.7773 117.617 58.24 117.964C57.7027 118.312 57.1492 118.616 56.6716 119.039C56.194 119.462 55.7001 119.875 55.2985 120.374C54.8969 120.873 54.9132 121.606 54.6038 122.176C54.3107 122.713 53.9525 123.207 53.7463 123.826C53.5564 124.401 53.3121 124.96 53.2036 125.611C53.6703 126.55 53.8277 126.447 54.4573 127.288C55.0868 128.129 55.0923 128.124 55.7218 128.965C56.3514 129.806 56.2483 129.882 56.8832 130.724C57.5182 131.565 57.4585 131.608 58.0881 132.45C58.7176 133.291 58.5385 133.562 59.434 134.11C60.3295 134.658 59.8085 133.312 60.4598 132.249C60.7637 131.749 61.3607 131.321 61.7894 130.697C62.1476 130.176 62.5547 129.644 62.9943 129.074C63.3959 128.553 63.689 127.929 64.1448 127.402C64.6007 126.876 65.0132 126.371 65.5016 125.888C65.9901 125.405 66.56 125.047 67.081 124.613C67.602 124.178 68.0144 123.587 68.5789 123.223C69.1433 122.86 69.8597 122.729 70.473 122.463C71.0863 122.198 71.6453 121.649 72.3074 121.508C72.9695 121.367 73.6859 121.389 74.3697 121.411C75.0535 121.432 75.7374 121.492 76.4103 121.687C77.029 121.866 77.3547 122.241 77.9842 122.588C77.854 123.565 77.5718 122.974 76.4755 123.505C75.9653 123.75 75.4443 124.168 74.7985 124.531C74.2666 124.83 73.6533 125.074 73.0672 125.459C72.5407 125.801 72.0469 126.23 71.5041 126.642C70.994 127.028 70.4513 127.386 69.952 127.836C69.4527 128.287 68.8991 128.623 68.4486 129.112C67.9982 129.6 67.6345 130.138 67.2438 130.669C66.853 131.201 66.3266 131.646 66.0064 132.227C65.6862 132.808 65.5559 133.47 65.3226 134.094C65.0892 134.718 65.1217 135.375 64.9861 136.026C64.8504 136.677 64.7147 137.122 64.6821 137.795C65.2249 138.49 65.29 138.36 65.9847 138.902C66.6794 139.445 66.5437 139.619 67.2384 140.162C67.933 140.704 67.8299 140.84 68.5246 141.383C69.2193 141.925 69.3224 141.795 70.0225 142.332C70.7226 142.87 70.6087 143.195 71.4716 143.375C72.4431 143.575 71.5367 142.55 71.8406 141.377C71.9872 140.824 72.4865 140.265 72.6981 139.559C72.8827 138.962 72.8935 138.268 73.1269 137.616C73.344 137.008 73.4688 136.341 73.7293 135.717C73.9898 135.093 74.4945 134.61 74.7876 134.023C75.0807 133.437 75.2761 132.77 75.6288 132.227C76.0033 131.646 76.4918 131.196 76.9205 130.729C77.3927 130.208 77.8268 129.731 78.3587 129.405C78.9394 129.052 79.5473 128.916 80.204 128.868C80.8172 128.824 81.6313 128.759 82.3097 129.041C82.4997 130.013 81.7724 129.758 81.0832 130.756C80.7575 131.223 80.3288 131.733 79.9597 132.374C79.6504 132.905 79.2216 133.426 78.9231 134.061C78.6518 134.637 78.6138 135.331 78.3859 135.972C78.1688 136.58 77.6478 137.112 77.4958 137.768C77.3438 138.425 77.5121 139.098 77.4415 139.765C77.371 140.433 77.4795 141.046 77.5121 141.719C77.5446 142.392 77.3275 143.043 77.4741 143.7C77.6206 144.357 77.8703 144.905 78.1253 145.535C78.9557 146.132 78.9666 146.126 79.8892 146.56C80.8118 146.994 80.8335 146.956 81.7562 147.396C82.6788 147.836 82.6299 147.939 83.558 148.373C84.486 148.807 84.5077 148.758 85.4304 149.198C86.353 149.638 86.429 149.486 87.357 149.925C88.2851 150.365 88.1657 150.935 89.186 150.989C90.2063 151.043 89.186 150.012 88.9689 148.834C88.8658 148.254 88.4316 147.624 88.3448 146.897C88.2634 146.256 88.3285 145.562 88.2959 144.878C88.2634 144.194 88.1603 143.51 88.1983 142.859C88.2417 142.148 88.3448 141.448 88.5185 140.851C88.7247 140.134 89.034 139.445 89.4845 139.027C89.935 138.609 90.6025 138.664 91.3895 138.707C92.2849 138.989 92.0244 138.919 92.6811 139.923C92.9633 140.357 93.4138 140.845 93.6852 141.529C93.8914 142.045 94.1519 142.647 94.3093 143.326C94.4395 143.885 94.2822 144.552 94.3581 145.231C94.4233 145.806 94.5264 146.425 94.5372 147.098C94.5481 147.684 94.6838 148.319 94.6404 148.981C94.6024 149.572 94.4721 150.088 94.3907 150.745C95.1234 151.461 95.1505 151.173 96.3662 151.065C96.9686 151.016 97.609 150.538 98.3417 150.365C98.9713 150.213 99.7257 150.278 100.382 149.996C100.99 149.73 101.674 149.453 102.244 149.035C102.781 148.644 103.183 148.02 103.639 147.472C104.057 146.973 104.247 146.3 104.561 145.649C104.838 145.068 105.321 144.46 105.495 143.749C105.153 142.897 104.626 143.624 103.715 142.995C103.275 142.691 102.77 142.305 102.228 141.904C101.761 141.556 101.527 140.84 101.034 140.438C100.54 140.037 100.122 139.63 99.6714 139.223C99.2209 138.816 98.434 138.702 98.0324 138.268C97.5873 137.79 97.5873 136.998 97.2726 136.525C96.8818 135.945 96.4096 135.532 96.3174 135.006C96.2088 134.376 96.4368 133.871 96.9415 133.405C97.4625 132.601 97.2129 132.455 98.3037 132.2C98.7813 132.086 99.4814 131.863 100.268 132.118C100.773 132.281 101.289 132.748 101.94 133.139C102.418 133.432 102.955 133.785 103.519 134.23C103.975 134.588 104.588 134.87 105.104 135.348C105.538 135.749 105.777 136.422 106.255 136.916C106.672 137.35 107.042 137.871 107.492 138.376C107.894 138.827 108.42 139.467 108.854 139.988C109.744 139.988 109.462 139.293 110.151 138.512C110.504 138.116 110.678 137.464 111.074 136.965C111.438 136.509 111.888 136.097 112.219 135.608C112.572 135.087 112.914 134.588 113.136 134.094C113.429 133.443 113.419 132.943 113.326 132.471C112.903 131.592 113.142 131.749 112.284 130.859C111.904 130.463 111.21 130.257 110.651 129.768C110.206 129.378 109.717 128.971 109.153 128.553C108.664 128.189 108.257 127.646 107.682 127.277C107.161 126.946 106.667 126.501 106.07 126.181C105.522 125.883 104.925 125.611 104.312 125.334C103.736 125.074 103.161 124.748 102.537 124.515C101.945 124.298 101.359 123.961 100.719 123.771C100.111 123.592 99.4272 123.603 98.7759 123.457C98.1246 123.31 97.4734 123.457 96.8167 123.348C96.16 123.24 95.4761 123.164 94.814 123.098C93.9674 122.61 94.1953 122.105 94.2713 121.237C94.3147 120.765 94.3744 120.037 95.3079 119.679C95.7801 119.495 96.4639 119.408 97.278 119.299C97.837 119.229 98.4991 119.164 99.2426 119.142C99.8342 119.126 100.485 119.527 101.207 119.549C102.157 119.56 101.935 119.408 103.101 119.511C103.644 119.56 104.306 119.462 105.012 119.565C105.598 119.652 106.265 119.592 106.922 119.734C107.519 119.858 108.132 120.097 108.762 120.276C109.392 120.455 109.88 120.917 110.488 121.139C111.096 121.362 111.714 121.47 112.295 121.747C112.876 122.024 113.429 122.322 113.967 122.664C114.504 123.006 115.106 123.288 115.584 123.701C116.062 124.113 116.431 124.792 116.832 125.286C117.831 125.117 117.359 124.526 117.929 123.495C118.222 122.968 118.504 122.333 118.743 121.649C118.954 121.031 118.998 120.358 119.063 119.674C119.128 118.99 119.454 118.29 119.28 117.617C119.117 117.004 118.564 116.483 118.129 115.902C117.527 115.104 117.831 115.137 116.897 114.306C116.474 113.932 115.747 113.764 115.128 113.324C114.629 112.971 114.195 112.418 113.57 112.065C113.028 111.756 112.431 111.435 111.79 111.148C111.21 110.887 110.613 110.556 109.951 110.334C109.343 110.127 108.653 110.106 107.98 109.948C107.356 109.802 106.667 109.905 105.989 109.802C105.354 109.71 104.719 109.438 104.035 109.395C103.389 109.357 102.727 109.34 102.038 109.357C101.392 109.373 100.73 109.389 100.04 109.46C99.4 109.525 98.727 109.563 98.0541 109.677C97.4137 109.785 96.8004 110.095 96.1328 110.252C95.5033 110.399 94.8195 110.529 94.1573 110.724C93.3107 110.676 93.0719 110.334 92.73 109.769C92.5129 109.416 92.5563 108.906 93.3704 108.347C93.7232 108.108 94.2713 107.94 94.9334 107.663C95.8343 107.213 95.5901 107.273 96.7298 106.752C97.2508 106.507 97.837 106.149 98.5425 105.872C99.1232 105.645 99.7528 105.379 100.431 105.156C101.044 104.955 101.658 104.619 102.336 104.445C102.971 104.282 103.682 104.347 104.36 104.228C105.039 104.109 105.701 104.217 106.379 104.152C107.058 104.087 107.693 103.669 108.377 103.664C109.06 103.658 109.739 103.664 110.417 103.729C111.096 103.794 111.666 104.38 112.328 104.527C112.99 104.673 113.712 104.516 114.352 104.749C114.992 104.982 115.492 105.46 116.094 105.78C116.697 106.1 117.315 106.328 117.88 106.73C118.753 106.312 117.82 105.943 117.842 104.798C117.853 104.233 117.929 103.609 117.793 102.904C117.679 102.312 117.424 101.759 117.142 101.135C116.892 100.581 116.642 100.038 116.214 99.5009C115.839 99.0288 115.617 98.3504 115.074 97.9162C114.602 97.5417 114.059 97.1564 113.44 96.8362C112.556 96.3423 112.735 96.4508 111.557 96.0384C111.009 95.8484 110.276 95.957 109.527 95.7996C108.914 95.6747 108.263 95.6422 107.541 95.5825C106.9 95.5336 106.26 95.5011 105.549 95.5391C104.903 95.5716 104.268 95.6639 103.574 95.7887C102.939 95.9081 102.244 95.8484 101.571 96.0601C100.952 96.2554 100.333 96.516 99.6931 96.809C99.1015 97.0804 98.5154 97.4006 97.913 97.7642C97.354 98.0953 96.8112 98.486 96.2468 98.9094C95.7258 99.2947 95.1342 99.5606 94.6078 100.027C93.4084 100.136 93.023 99.8157 92.7951 98.8822C92.6811 98.4155 92.8114 97.8131 93.8643 96.961C94.5589 96.2934 94.3636 96.4074 95.1885 95.577C95.5793 95.1809 96.0514 94.7413 96.5996 94.2799C97.0609 93.8946 97.571 93.5093 98.1301 93.1239C98.6402 92.7712 99.2372 92.5432 99.8179 92.2285C100.371 91.93 100.893 91.5718 101.506 91.3384C102.119 91.105 102.651 90.7088 103.286 90.5732C103.921 90.4375 104.561 90.3941 105.218 90.3669C105.875 90.3398 106.477 90.5297 107.134 90.6166C107.747 90.698 108.279 90.7414 108.919 90.9422C109.104 89.9762 108.431 90.4972 107.405 89.8513C106.928 89.5528 106.265 89.3954 105.609 89.0535C105.071 88.7713 104.632 88.1635 103.997 87.8867C103.422 87.637 102.797 87.3982 102.152 87.1811C101.549 86.9803 100.86 86.9803 100.209 86.8338C99.5574 86.6873 98.9496 86.5407 98.2874 86.4593C97.6253 86.3779 96.9958 86.443 96.3282 86.443C95.6607 86.443 95.0148 86.2477 94.3527 86.3345C93.6906 86.4213 93.1316 86.8284 92.4858 87.002C91.8399 87.1757 91.1669 87.1269 90.5482 87.3928C89.9621 87.6425 89.5605 88.272 88.9798 88.6139C88.4371 88.9341 87.916 89.2815 87.3787 89.6885C86.874 90.0684 86.0654 90.1173 85.5661 90.5786C85.1047 91.0073 84.638 91.4958 84.1875 92.0005C83.7696 92.4727 83.7045 93.2651 83.2921 93.8023C82.9121 94.3071 82.1849 94.5947 81.8104 95.1646C81.4631 95.6964 81.3165 96.4942 80.9801 97.0858L80.9638 97.1021Z" stroke="#383839" stroke-width="1.62816" stroke-linecap="round" stroke-linejoin="round"/>
<path d="M140.057 133.454L138.489 133.937L137.045 134.447L135.721 135.223L134.462 136.086L133.273 137.046L131.938 137.795L130.836 138.848L129.664 139.814L128.508 140.813L127.705 142.143L126.522 143.114L125.604 144.324L124.709 145.545L123.645 146.647L122.625 147.792L121.919 149.149L121.013 150.381L120.486 151.83L119.813 153.187L119.151 154.555L118.212 155.792L117.702 157.23L117.024 158.598L116.508 160.031L116.156 161.523L115.738 162.983L115.493 164.497L114.983 165.925L114.641 167.406L113.86 168.779L113.751 170.315L113.361 171.786L113.203 173.089L114.706 173.224L116.28 173.268L117.827 173.045L119.385 172.871L120.926 172.551L122.516 172.871L124.047 172.264L125.664 172.519L125.686 170.912L125.925 169.42L125.865 167.895L126.332 166.435L126.673 164.964L126.549 163.417L126.869 161.946L127.488 160.53L127.813 159.065L127.933 157.55L128.345 156.101L128.524 154.593L129.192 153.209L129.539 151.743L129.979 150.305L130.538 148.91L131.053 147.499L131.227 145.942L131.922 144.59L132.633 143.255L133.36 141.92L134.358 140.775L135.33 139.619L136.594 138.789L137.582 137.567L139.053 137.106L140.567 137.15L141.832 137.063L141.311 135.901L140.611 134.745L140.057 133.454Z" fill="#FFF6F0"/>
<path d="M140.057 133.454L138.489 133.937L137.045 134.447L135.721 135.223L134.462 136.086L133.273 137.046L131.938 137.795L130.836 138.848L129.664 139.814L128.508 140.813L127.705 142.143L126.522 143.114L125.604 144.324L124.709 145.545L123.645 146.647L122.625 147.792L121.919 149.149L121.013 150.381L120.486 151.83L119.813 153.187L119.151 154.555L118.212 155.792L117.702 157.23L117.024 158.598L116.508 160.031L116.156 161.523L115.738 162.983L115.493 164.497L114.983 165.925L114.641 167.406L113.86 168.779L113.751 170.315L113.361 171.786L113.203 173.089L114.706 173.224L116.28 173.268L117.827 173.045L119.385 172.871L120.926 172.551L122.516 172.871L124.047 172.264L125.664 172.519L125.686 170.912L125.925 169.42L125.865 167.895L126.332 166.435L126.673 164.964L126.549 163.417L126.869 161.946L127.488 160.53L127.813 159.065L127.933 157.55L128.345 156.101L128.524 154.593L129.192 153.209L129.539 151.743L129.979 150.305L130.538 148.91L131.053 147.499L131.227 145.942L131.922 144.59L132.633 143.255L133.36 141.92L134.358 140.775L135.33 139.619L136.594 138.789L137.582 137.567L139.053 137.106L140.567 137.15L141.832 137.063L141.311 135.901L140.611 134.745L140.057 133.454Z" stroke="#383839" stroke-width="1.62816" stroke-linecap="round" stroke-linejoin="round"/>
<path d="M136.04 119.641C137.033 119.43 136.414 118.74 137.212 117.801C137.592 117.351 138.048 116.841 138.59 116.314C139.046 115.869 139.426 115.251 139.98 114.806C140.495 114.399 141.239 114.268 141.836 113.905C142.433 113.541 142.862 112.939 143.497 112.673C144.132 112.407 144.864 112.499 145.537 112.347C146.21 112.195 146.845 112.309 147.54 112.293C148.191 112.277 148.864 112.027 149.559 112.152C150.194 112.266 150.758 112.694 151.426 112.939C152.028 113.161 152.707 113.253 153.331 113.601C153.89 113.916 154.373 114.388 154.943 114.817C155.458 115.196 156.028 115.468 156.555 115.945C156.072 116.852 155.811 116.065 154.579 116.233C153.987 116.309 153.271 116.233 152.528 116.374C151.893 116.494 151.252 116.803 150.563 116.987C149.917 117.156 149.201 117.188 148.549 117.416C147.898 117.644 147.404 118.23 146.796 118.523C146.189 118.816 145.564 119.104 145.022 119.489C144.452 119.896 143.714 120.119 143.285 120.635C142.856 121.15 142.883 121.953 142.65 122.605C142.433 123.218 142.015 123.989 142.042 124.721C142.965 125.031 142.509 123.837 143.432 123.088C143.866 122.735 144.506 122.474 145.109 122.073C145.613 121.731 146.183 121.416 146.786 121.085C147.334 120.786 147.958 120.591 148.571 120.336C149.184 120.081 149.743 119.826 150.378 119.652C151.013 119.479 151.648 119.56 152.3 119.484C152.951 119.408 153.559 119.023 154.215 119.066C154.872 119.109 155.42 119.554 156.066 119.717C156.674 119.869 157.45 119.614 158.058 119.896C158.622 120.157 158.975 120.732 159.539 121.112C159.936 122.122 159.947 122.116 160.158 123.18C160.37 124.244 160.066 124.303 160.278 125.367C160.489 126.431 160.799 126.371 161.01 127.44C161.222 128.509 161.629 128.526 161.51 129.611C161.406 130.528 160.614 129.399 159.637 128.895C159.154 128.645 158.731 128.086 158.101 127.842C157.553 127.625 156.994 127.283 156.375 127.131C155.757 126.979 155.127 127.066 154.508 127.017C153.89 126.968 153.293 127.109 152.685 127.212C152.077 127.315 151.523 127.473 150.959 127.76C150.438 128.026 149.819 128.227 149.353 128.688C148.951 129.09 148.555 129.774 148.213 130.349C148.908 130.952 148.984 129.872 150.064 129.649C150.59 129.541 151.214 129.394 151.893 129.351C152.468 129.313 153.081 129.644 153.722 129.703C154.313 129.758 154.997 129.454 155.605 129.622C156.175 129.785 156.609 130.365 157.168 130.664C157.689 130.941 158.454 130.919 158.942 131.337C159.382 131.717 159.686 132.319 160.082 132.829C160.435 133.285 160.598 133.833 160.907 134.409C160.875 135.391 160.983 135.407 160.788 136.368C160.592 137.329 160.527 137.318 160.332 138.278C160.136 139.239 160.061 139.228 159.865 140.189C159.67 141.149 159.919 141.231 159.371 142.05C158.823 142.87 159.051 141.442 158.183 140.661C157.765 140.286 157.298 139.803 156.744 139.358C156.267 138.978 155.48 138.946 154.932 138.566C154.411 138.208 154.025 137.611 153.461 137.296C152.897 136.981 152.327 136.634 151.741 136.401C151.154 136.167 150.454 136.107 149.841 135.999C149.184 135.88 148.511 135.576 147.893 135.668C147.274 135.76 146.661 136.156 146.096 136.52C145.602 136.84 145.32 137.253 144.902 137.833C145.396 138.696 145.516 138.056 146.699 138.306C147.263 138.425 148.012 138.246 148.718 138.474C149.309 138.658 149.825 139.217 150.465 139.499C151.046 139.755 151.605 140.102 152.191 140.455C152.745 140.786 153.483 140.894 154.009 141.323C154.536 141.752 155.002 142.219 155.458 142.723C155.914 143.228 155.947 143.977 156.31 144.558C156.652 145.1 156.924 145.475 157.19 146.11C156.918 147.119 157.206 147.228 156.734 148.161C156.261 149.095 155.996 148.965 155.523 149.898C155.051 150.832 155.404 151.081 154.639 151.803C153.966 152.438 154.188 151.211 153.58 150.278C153.287 149.822 152.902 149.328 152.506 148.775C152.164 148.292 151.838 147.765 151.442 147.266C151.046 146.767 150.775 146.208 150.362 145.752C149.95 145.296 149.472 144.851 149.027 144.455C148.533 144.015 147.92 143.825 147.421 143.543C146.818 143.201 146.319 142.946 145.76 142.951C145.201 142.957 144.474 143.119 143.98 143.651C144.142 144.628 144.664 144.189 145.564 144.981C145.993 145.355 146.748 145.545 147.252 146.077C147.676 146.528 148.077 147.081 148.495 147.635C148.88 148.14 149.13 148.78 149.472 149.372C149.798 149.931 150.226 150.468 150.476 151.092C150.726 151.716 150.623 152.411 150.769 153.068C150.916 153.724 151.252 154.37 151.279 155.048C150.753 155.96 150.351 155.667 149.678 156.47C149.005 157.274 149.293 157.518 148.62 158.321C147.947 159.124 147.703 158.923 147.024 159.732C146.346 160.541 146.617 160.78 145.716 161.322C144.94 161.789 145.689 160.704 145.467 159.662C145.353 159.135 145.228 158.527 145.06 157.898C144.902 157.328 144.701 156.747 144.495 156.177C144.289 155.607 143.806 155.141 143.54 154.636C143.22 154.034 142.981 153.534 142.585 153.198C142.086 152.78 141.472 152.34 140.854 152.622C140.099 153.312 140.854 153.431 140.788 154.788C140.761 155.342 140.745 155.982 140.864 156.785C140.957 157.377 140.875 158.082 141.092 158.82C141.266 159.417 141.483 160.069 141.76 160.758C141.999 161.344 142.308 161.946 142.634 162.603C142.232 163.537 141.858 162.961 140.702 163.157C140.105 163.254 139.426 163.314 138.688 163.222C138.064 163.146 137.5 162.804 136.848 162.478C136.295 162.202 135.595 162.06 135.063 161.534C134.623 161.105 134.509 160.53 134.113 159.895C134.113 158.999 134.46 159.396 134.97 158.473C135.231 158.006 135.437 157.409 135.719 156.829C135.975 156.302 136.132 155.7 136.354 155.141C136.577 154.582 136.534 153.92 136.669 153.371C136.832 152.726 137.038 152.183 137 151.656C136.946 150.989 136.707 150.533 136.164 150.245C135.492 149.638 135.557 149.323 134.563 149.708C134.162 149.865 133.825 150.338 133.337 151.016C133.044 151.418 132.675 151.874 132.365 152.53C132.137 153.008 132.056 153.616 131.823 154.262C131.638 154.777 131.182 155.26 130.992 155.895C130.83 156.432 130.748 156.926 130.585 157.556C129.473 157.697 129.744 157.154 128.74 156.443C128.159 156.031 127.329 155.759 126.797 155.26C126.14 154.647 125.831 153.816 125.723 153.263C125.733 152.335 125.663 152.509 126.054 151.429C126.233 150.929 126.542 150.365 126.846 149.735C127.096 149.22 127.693 148.851 128.04 148.292C128.349 147.792 128.566 147.212 128.963 146.701C129.326 146.235 129.82 145.866 130.271 145.404C130.688 144.976 131.057 144.493 131.551 144.085C132.013 143.706 132.382 143.168 132.919 142.821C133.418 142.495 134.124 142.333 134.694 142.045C135.312 141.095 135.253 140.254 134.173 139.749C133.744 139.548 132.979 139.879 131.877 140.145C131.285 140.292 130.536 140.362 129.684 140.715C128.778 141.068 128.892 140.873 127.866 141.437C127.367 141.708 126.976 142.327 126.39 142.74C125.885 143.092 125.126 143.19 124.621 143.646C124.154 144.069 123.921 144.758 123.508 145.279C123.096 145.8 122.575 146.208 122.276 146.794C121.978 147.38 121.864 148.118 121.701 148.764C120.74 148.948 121.147 148.031 120.382 147.206C119.981 146.772 119.454 146.359 119.101 145.757C118.776 145.209 118.569 144.607 118.423 143.955C118.287 143.342 118.331 142.75 118.461 142.072C118.662 141.117 118.667 141.383 119.166 140.303C119.4 139.793 119.682 139.228 120.084 138.62C120.415 138.116 120.474 137.334 120.941 136.818C121.354 136.363 121.826 135.863 122.363 135.429C122.846 135.038 123.6 134.973 124.192 134.637C124.729 134.327 125.169 133.72 125.804 133.475C126.385 133.253 127.041 133.085 127.709 132.927C128.311 132.786 129.017 133.041 129.695 132.96C130.314 132.889 130.96 132.683 131.644 132.672C132.458 132.27 132.669 131.825 131.964 131.196C131.698 130.957 131.226 130.843 130.298 130.74C129.299 130.555 129.543 130.382 128.328 130.235C127.741 130.165 127.058 130.04 126.303 130.024C125.663 130.013 124.995 130.246 124.29 130.311C123.633 130.376 122.9 130.127 122.227 130.295C121.554 130.463 121.001 130.897 120.371 131.174C119.742 131.451 119.166 131.749 118.607 132.151C118.048 132.553 117.441 132.867 116.979 133.394C116.556 133.882 116.268 134.496 115.926 135.12C115.042 135.131 115.449 134.561 115.101 133.584C114.922 133.095 114.868 132.482 114.776 131.847C114.7 131.299 114.673 130.713 114.738 130.094C114.798 129.541 114.727 128.895 114.96 128.314C115.167 127.804 115.78 127.473 116.165 126.973C116.735 126.176 116.458 126.192 117.359 125.448C117.799 125.085 118.352 124.727 119.009 124.396C119.546 124.124 120.1 123.657 120.789 123.495C121.381 123.354 122.081 123.375 122.781 123.364C123.389 123.354 124.008 123.695 124.702 123.82C125.305 123.929 125.956 123.934 126.618 124.168C127.199 124.374 127.807 124.591 128.431 124.906C129.288 124.743 129.619 124.254 129.435 123.478C129.348 123.12 128.827 122.827 127.986 122.453C127.128 121.948 127.448 121.747 126.417 121.188C125.902 120.911 125.12 120.987 124.447 120.738C123.85 120.515 123.307 119.978 122.634 119.858C121.961 119.739 121.299 119.804 120.626 119.858C119.953 119.913 119.416 120.276 118.787 120.542C118.211 120.786 117.576 120.911 117.039 121.383C116.404 120.656 117.305 120.656 117.956 119.701C118.276 119.234 118.591 118.626 119.063 118.095C119.465 117.639 119.883 117.085 120.398 116.651C120.876 116.244 121.484 115.907 122.054 115.576C122.624 115.245 123.269 115.12 123.899 114.92C124.496 114.73 125.136 114.692 125.809 114.643C126.423 114.599 127.068 114.491 127.747 114.599C128.344 114.692 129.022 114.735 129.674 114.968C130.243 115.175 130.851 115.462 131.454 115.788C131.986 116.076 132.409 116.629 132.973 117.025C133.473 117.378 133.961 117.785 134.482 118.225C134.949 118.621 135.54 119.202 136.023 119.674L136.04 119.641Z" fill="#FFF6F0"/>
<path d="M136.04 119.641C137.033 119.43 136.414 118.74 137.212 117.801C137.592 117.351 138.048 116.841 138.59 116.314C139.046 115.869 139.426 115.251 139.98 114.806C140.495 114.399 141.239 114.268 141.836 113.905C142.433 113.541 142.862 112.939 143.497 112.673C144.132 112.407 144.864 112.499 145.537 112.347C146.21 112.195 146.845 112.309 147.54 112.293C148.191 112.277 148.864 112.027 149.559 112.152C150.194 112.266 150.758 112.694 151.426 112.939C152.028 113.161 152.707 113.253 153.331 113.601C153.89 113.916 154.373 114.388 154.943 114.817C155.458 115.196 156.028 115.468 156.555 115.945C156.072 116.852 155.811 116.065 154.579 116.233C153.987 116.309 153.271 116.233 152.528 116.374C151.893 116.494 151.252 116.803 150.563 116.987C149.917 117.156 149.201 117.188 148.549 117.416C147.898 117.644 147.404 118.23 146.796 118.523C146.189 118.816 145.564 119.104 145.022 119.489C144.452 119.896 143.714 120.119 143.285 120.635C142.856 121.15 142.883 121.953 142.65 122.605C142.433 123.218 142.015 123.989 142.042 124.721C142.965 125.031 142.509 123.837 143.432 123.088C143.866 122.735 144.506 122.474 145.109 122.073C145.613 121.731 146.183 121.416 146.786 121.085C147.334 120.786 147.958 120.591 148.571 120.336C149.184 120.081 149.743 119.826 150.378 119.652C151.013 119.479 151.648 119.56 152.3 119.484C152.951 119.408 153.559 119.023 154.215 119.066C154.872 119.109 155.42 119.554 156.066 119.717C156.674 119.869 157.45 119.614 158.058 119.896C158.622 120.157 158.975 120.732 159.539 121.112C159.936 122.122 159.947 122.116 160.158 123.18C160.37 124.244 160.066 124.303 160.278 125.367C160.489 126.431 160.799 126.371 161.01 127.44C161.222 128.509 161.629 128.526 161.51 129.611C161.406 130.528 160.614 129.399 159.637 128.895C159.154 128.645 158.731 128.086 158.101 127.842C157.553 127.625 156.994 127.283 156.375 127.131C155.757 126.979 155.127 127.066 154.508 127.017C153.89 126.968 153.293 127.109 152.685 127.212C152.077 127.315 151.524 127.473 150.959 127.76C150.438 128.026 149.819 128.227 149.353 128.688C148.951 129.09 148.555 129.774 148.213 130.349C148.908 130.952 148.984 129.872 150.064 129.649C150.59 129.541 151.214 129.394 151.893 129.351C152.468 129.313 153.081 129.644 153.722 129.703C154.313 129.758 154.997 129.454 155.605 129.622C156.175 129.785 156.609 130.365 157.168 130.664C157.689 130.941 158.454 130.919 158.942 131.337C159.382 131.717 159.686 132.319 160.082 132.829C160.435 133.285 160.598 133.833 160.907 134.409C160.875 135.391 160.983 135.407 160.788 136.368C160.592 137.329 160.527 137.318 160.332 138.278C160.136 139.239 160.061 139.228 159.865 140.189C159.67 141.149 159.919 141.231 159.371 142.05C158.823 142.87 159.051 141.442 158.183 140.661C157.765 140.286 157.298 139.803 156.744 139.358C156.267 138.978 155.48 138.946 154.932 138.566C154.411 138.208 154.025 137.611 153.461 137.296C152.897 136.981 152.327 136.634 151.741 136.401C151.154 136.167 150.454 136.107 149.841 135.999C149.184 135.88 148.511 135.576 147.893 135.668C147.274 135.76 146.661 136.156 146.096 136.52C145.602 136.84 145.32 137.253 144.902 137.833C145.396 138.696 145.516 138.056 146.699 138.306C147.263 138.425 148.012 138.246 148.718 138.474C149.309 138.658 149.825 139.217 150.465 139.499C151.046 139.755 151.605 140.102 152.191 140.455C152.745 140.786 153.483 140.894 154.009 141.323C154.536 141.752 155.002 142.219 155.458 142.723C155.914 143.228 155.947 143.977 156.31 144.558C156.652 145.1 156.924 145.475 157.19 146.11C156.918 147.119 157.206 147.228 156.734 148.161C156.261 149.095 155.996 148.965 155.523 149.898C155.051 150.832 155.404 151.081 154.639 151.803C153.966 152.438 154.188 151.211 153.58 150.278C153.287 149.822 152.902 149.328 152.506 148.775C152.164 148.292 151.838 147.765 151.442 147.266C151.046 146.767 150.775 146.208 150.362 145.752C149.95 145.296 149.472 144.851 149.027 144.455C148.533 144.015 147.92 143.825 147.421 143.543C146.818 143.201 146.319 142.946 145.76 142.951C145.201 142.957 144.474 143.119 143.98 143.651C144.142 144.628 144.664 144.189 145.564 144.981C145.993 145.355 146.748 145.545 147.252 146.077C147.676 146.528 148.077 147.081 148.495 147.635C148.88 148.14 149.13 148.78 149.472 149.372C149.798 149.931 150.226 150.468 150.476 151.092C150.726 151.716 150.623 152.411 150.769 153.068C150.916 153.724 151.252 154.37 151.279 155.048C150.753 155.96 150.351 155.667 149.678 156.47C149.005 157.274 149.293 157.518 148.62 158.321C147.947 159.124 147.703 158.923 147.024 159.732C146.346 160.541 146.617 160.78 145.716 161.322C144.94 161.789 145.689 160.704 145.467 159.662C145.353 159.135 145.228 158.527 145.06 157.898C144.902 157.328 144.701 156.747 144.495 156.177C144.289 155.607 143.806 155.141 143.54 154.636C143.22 154.034 142.981 153.534 142.585 153.198C142.086 152.78 141.472 152.34 140.854 152.622C140.099 153.312 140.854 153.431 140.788 154.788C140.761 155.342 140.745 155.982 140.864 156.785C140.957 157.377 140.875 158.082 141.092 158.82C141.266 159.417 141.483 160.069 141.76 160.758C141.999 161.344 142.308 161.946 142.634 162.603C142.232 163.537 141.858 162.961 140.702 163.157C140.105 163.254 139.426 163.314 138.688 163.222C138.064 163.146 137.5 162.804 136.848 162.478C136.295 162.202 135.595 162.06 135.063 161.534C134.623 161.105 134.509 160.53 134.113 159.895C134.113 158.999 134.46 159.396 134.97 158.473C135.231 158.006 135.437 157.409 135.719 156.829C135.975 156.302 136.132 155.7 136.354 155.141C136.577 154.582 136.534 153.92 136.669 153.371C136.832 152.726 137.038 152.183 137 151.656C136.946 150.989 136.707 150.533 136.164 150.245C135.492 149.638 135.557 149.323 134.563 149.708C134.162 149.865 133.825 150.338 133.337 151.016C133.044 151.418 132.675 151.874 132.365 152.53C132.137 153.008 132.056 153.616 131.823 154.262C131.638 154.777 131.182 155.26 130.992 155.895C130.83 156.432 130.748 156.926 130.585 157.556C129.473 157.697 129.744 157.154 128.74 156.443C128.159 156.031 127.329 155.759 126.797 155.26C126.14 154.647 125.831 153.816 125.723 153.263C125.733 152.335 125.663 152.509 126.054 151.429C126.233 150.929 126.542 150.365 126.846 149.735C127.096 149.22 127.693 148.851 128.04 148.292C128.349 147.792 128.566 147.212 128.963 146.701C129.326 146.235 129.82 145.866 130.271 145.404C130.688 144.976 131.057 144.493 131.551 144.085C132.013 143.706 132.382 143.168 132.919 142.821C133.418 142.495 134.124 142.333 134.694 142.045C135.312 141.095 135.253 140.254 134.173 139.749C133.744 139.548 132.979 139.879 131.877 140.145C131.285 140.292 130.536 140.362 129.684 140.715C128.778 141.068 128.892 140.873 127.866 141.437C127.367 141.708 126.976 142.327 126.39 142.74C125.885 143.092 125.126 143.19 124.621 143.646C124.154 144.069 123.921 144.758 123.508 145.279C123.096 145.8 122.575 146.208 122.276 146.794C121.978 147.38 121.864 148.118 121.701 148.764C120.74 148.948 121.147 148.031 120.382 147.206C119.981 146.772 119.454 146.359 119.101 145.757C118.776 145.209 118.569 144.607 118.423 143.955C118.287 143.342 118.331 142.75 118.461 142.072C118.662 141.117 118.667 141.383 119.166 140.303C119.4 139.793 119.682 139.228 120.084 138.62C120.415 138.116 120.474 137.334 120.941 136.818C121.354 136.363 121.826 135.863 122.363 135.429C122.846 135.038 123.6 134.973 124.192 134.637C124.729 134.327 125.169 133.72 125.804 133.475C126.385 133.253 127.041 133.085 127.709 132.927C128.311 132.786 129.017 133.041 129.695 132.96C130.314 132.889 130.96 132.683 131.644 132.672C132.458 132.27 132.669 131.825 131.964 131.196C131.698 130.957 131.226 130.843 130.298 130.74C129.299 130.555 129.543 130.382 128.328 130.235C127.741 130.165 127.058 130.04 126.303 130.024C125.663 130.013 124.995 130.246 124.29 130.311C123.633 130.376 122.9 130.127 122.227 130.295C121.554 130.463 121.001 130.897 120.371 131.174C119.742 131.451 119.166 131.749 118.607 132.151C118.048 132.553 117.441 132.867 116.979 133.394C116.556 133.882 116.268 134.496 115.926 135.12C115.042 135.131 115.449 134.561 115.101 133.584C114.922 133.095 114.868 132.482 114.776 131.847C114.7 131.299 114.673 130.713 114.738 130.094C114.798 129.541 114.727 128.895 114.96 128.314C115.167 127.804 115.78 127.473 116.165 126.973C116.735 126.176 116.458 126.192 117.359 125.448C117.799 125.085 118.352 124.727 119.009 124.396C119.546 124.124 120.1 123.657 120.789 123.495C121.381 123.354 122.081 123.375 122.781 123.364C123.389 123.354 124.008 123.695 124.702 123.82C125.305 123.929 125.956 123.934 126.618 124.168C127.199 124.374 127.807 124.591 128.431 124.906C129.288 124.743 129.619 124.254 129.435 123.478C129.348 123.12 128.827 122.827 127.986 122.453C127.128 121.948 127.448 121.747 126.417 121.188C125.902 120.911 125.12 120.987 124.447 120.738C123.85 120.515 123.307 119.978 122.634 119.858C121.961 119.739 121.299 119.804 120.626 119.858C119.953 119.913 119.416 120.276 118.787 120.542C118.211 120.786 117.576 120.911 117.039 121.383C116.404 120.656 117.305 120.656 117.956 119.701C118.276 119.234 118.591 118.626 119.063 118.095C119.465 117.639 119.883 117.085 120.398 116.651C120.876 116.244 121.484 115.907 122.054 115.576C122.624 115.245 123.269 115.12 123.899 114.92C124.496 114.73 125.136 114.692 125.809 114.643C126.423 114.599 127.068 114.491 127.747 114.599C128.344 114.692 129.022 114.735 129.674 114.968C130.243 115.175 130.851 115.462 131.454 115.788C131.986 116.076 132.409 116.629 132.973 117.025C133.473 117.378 133.961 117.785 134.482 118.225C134.949 118.621 135.54 119.202 136.023 119.674L136.04 119.641Z" stroke="#383839" stroke-width="1.62816" stroke-linecap="round" stroke-linejoin="round"/>
<path d="M147.691 184.99L146.155 184.92L144.668 184.687L143.181 185.045L141.694 185.115L140.207 185.202L138.72 184.844L137.233 185.061L135.74 184.828L134.253 184.974L132.766 185.001L131.279 185.126L129.787 185.202L128.299 184.73L126.812 185.05L125.32 184.909L123.833 184.882L122.346 184.708L120.853 184.806L119.366 184.784L117.879 185.191L116.387 185.18L114.894 185.012L113.407 184.714L111.92 185.034L110.428 185.05L108.941 185.099L107.448 185.202L105.961 184.811L104.469 184.768L102.976 185.11L101.489 185.208L99.9966 185.126L98.5095 184.904H97.017L95.53 184.687L94.0375 184.942L92.5504 184.752L91.0579 184.719L89.5709 184.893L88.0838 185.056L86.5913 184.708L85.1043 184.969L83.6118 184.909L82.1193 185.148L80.6268 184.942L79.1398 184.703L77.6473 184.974L76.1548 184.73L74.6623 185.175L73.1698 185.159L71.6774 184.692L70.1849 184.877L68.6924 185.137L67.1999 184.757L65.6043 185.045L65.8268 183.438L65.6152 181.924L65.5609 180.41L65.8919 178.901L65.7128 177.387L65.5283 175.873L65.6694 174.364L65.5663 172.85L65.9679 171.336L65.8485 169.821L65.7128 168.307V166.798L67.189 166.722L68.6761 166.576L70.1632 166.771L71.6502 167.01L73.1373 166.896L74.6298 166.581L76.1168 166.679L77.6039 167.064L79.0964 166.983L80.5834 166.728L82.0705 166.788L83.5575 166.69L85.05 166.679L86.5371 166.82L88.0241 166.923L89.5166 166.994L91.0037 166.527L92.4961 166.625L93.9832 166.646L95.4703 166.826L96.9627 166.907L98.4498 166.75L99.9423 166.717L101.429 166.565L102.922 166.554L104.409 167.048L105.901 166.663L107.388 167.037L108.881 166.94H110.368L111.86 166.999L113.347 166.858L114.84 166.771L116.332 166.543L117.82 166.576L119.307 166.56L120.799 166.527L122.286 166.956L123.779 166.809L125.266 167.054L126.758 166.744L128.245 166.983L129.738 166.864L131.23 166.94L132.723 166.961L134.21 166.592L135.702 166.864H137.195L138.687 166.896L140.18 166.701L141.672 167.032L143.165 167.059L144.657 167.048L146.15 166.543L147.588 166.847L147.772 168.302L147.43 169.816L147.409 171.325L147.615 172.839L147.642 174.353L147.588 175.862L147.647 177.376L147.604 178.89L147.425 180.404L147.881 181.913L147.55 183.433L147.691 184.99Z" fill="#383839"/>
<path d="M147.691 184.99L146.155 184.92L144.668 184.687L143.181 185.045L141.694 185.115L140.207 185.202L138.72 184.844L137.233 185.061L135.74 184.828L134.253 184.974L132.766 185.001L131.279 185.126L129.787 185.202L128.299 184.73L126.812 185.05L125.32 184.909L123.833 184.882L122.346 184.708L120.853 184.806L119.366 184.784L117.879 185.191L116.387 185.18L114.894 185.012L113.407 184.714L111.92 185.034L110.428 185.05L108.941 185.099L107.448 185.202L105.961 184.811L104.469 184.768L102.976 185.11L101.489 185.208L99.9966 185.126L98.5095 184.904H97.017L95.53 184.687L94.0375 184.942L92.5504 184.752L91.0579 184.719L89.5709 184.893L88.0838 185.056L86.5913 184.708L85.1043 184.969L83.6118 184.909L82.1193 185.148L80.6268 184.942L79.1398 184.703L77.6473 184.974L76.1548 184.73L74.6623 185.175L73.1698 185.159L71.6774 184.692L70.1849 184.877L68.6924 185.137L67.1999 184.757L65.6043 185.045L65.8268 183.438L65.6152 181.924L65.5609 180.41L65.8919 178.901L65.7128 177.387L65.5283 175.873L65.6694 174.364L65.5663 172.85L65.9679 171.336L65.8485 169.821L65.7128 168.307V166.798L67.189 166.722L68.6761 166.576L70.1632 166.771L71.6502 167.01L73.1373 166.896L74.6298 166.581L76.1168 166.679L77.6039 167.064L79.0964 166.983L80.5834 166.728L82.0705 166.788L83.5575 166.69L85.05 166.679L86.5371 166.82L88.0241 166.923L89.5166 166.994L91.0037 166.527L92.4961 166.625L93.9832 166.646L95.4703 166.826L96.9627 166.907L98.4498 166.75L99.9423 166.717L101.429 166.565L102.922 166.554L104.409 167.048L105.901 166.663L107.388 167.037L108.881 166.94H110.368L111.86 166.999L113.347 166.858L114.84 166.771L116.332 166.543L117.82 166.576L119.307 166.56L120.799 166.527L122.286 166.956L123.779 166.809L125.266 167.054L126.758 166.744L128.245 166.983L129.738 166.864L131.23 166.94L132.723 166.961L134.21 166.592L135.702 166.864H137.195L138.687 166.896L140.18 166.701L141.672 167.032L143.165 167.059L144.657 167.048L146.15 166.543L147.588 166.847L147.772 168.302L147.43 169.816L147.409 171.325L147.615 172.839L147.642 174.353L147.588 175.862L147.647 177.376L147.604 178.89L147.425 180.404L147.881 181.913L147.55 183.433L147.691 184.99Z" stroke="#383839" stroke-width="1.62816" stroke-linecap="round" stroke-linejoin="round"/>
<path d="M101.441 198.998L101.028 201.109L98.917 202.005L96.7895 201.126L96.3174 198.998L97.1315 197.213L98.917 196.48L100.931 196.985L101.441 198.998Z" fill="#F3F2F2"/>
<path d="M117.201 198.998L116.365 200.936L114.428 201.755L112.333 201.099L111.584 198.998L112.474 197.039L114.428 196.339L116.224 197.207L117.201 198.998Z" fill="#F3F2F2"/>
<path d="M112.751 205.305L112.279 207.123L111.367 208.713L109.967 209.831L108.556 211.096L106.672 211.242L104.827 210.987L103.384 209.831L102.146 208.588L100.963 207.155L100.854 205.305" stroke="#F3F2F2" stroke-width="2.17088" stroke-linecap="round" stroke-linejoin="round"/>
<path d="M80.3672 97.1782L80.6657 101.01L81.5612 104.755L82.3101 108.51L83.3847 112.201L84.2856 115.913L84.3073 119.875L86.1417 123.337L86.641 127.223L88.1715 130.762L89.6586 134.317L91.2053 137.85" fill="#41B879"/>
<path d="M80.3672 97.1782L80.6657 101.01L81.5612 104.755L82.3101 108.51L83.3847 112.201L84.2856 115.913L84.3073 119.875L86.1417 123.337L86.641 127.223L88.1715 130.762L89.6586 134.317L91.2053 137.85" stroke="#383839" stroke-width="1.62816" stroke-linecap="round" stroke-linejoin="round"/>
<path d="M82.8506 108.147L85.1192 105.476L86.7093 102.193L89.3578 99.7995L92.7878 98.4373" fill="#41B879"/>
<path d="M82.8506 108.147L85.1192 105.476L86.7093 102.193L89.3578 99.7995L92.7878 98.4373" stroke="#383839" stroke-width="1.62816" stroke-linecap="round" stroke-linejoin="round"/>
<path d="M69.082 115.115L70.8296 115.826L72.6531 116.271L74.531 116.569L76.2622 117.324L77.8416 118.398L79.5674 119.12L81.3313 119.793L82.8889 120.852L84.4248 121.942L85.7219 123.326L86.5088 125.036" stroke="#383839" stroke-width="1.62816" stroke-linecap="round" stroke-linejoin="round"/>
<path d="M95.0295 123.261L93.6401 123.701L92.5926 124.732L90.959 125.177L90.1938 126.528L89.7108 127.972L89.2386 129.378L89.2061 130.848L89.5588 132.265" stroke="#383839" stroke-width="1.62816" stroke-linecap="round" stroke-linejoin="round"/>
<path d="M112.925 41.864L112.898 45.8584L111.699 49.7118L112.008 53.717L111.275 57.6463L111.628 61.6191L111.878 65.5592L111.699 69.5862L113.164 73.3147" stroke="#383839" stroke-width="1.62816" stroke-linecap="round" stroke-linejoin="round"/>
<path d="M107.106 51.7849L109.88 52.9629L111.009 55.4599" stroke="#383839" stroke-width="1.62816" stroke-linecap="round" stroke-linejoin="round"/>
<path d="M113.352 49.3155L116.109 48.4797L118.415 46.7267L121.178 45.9072" stroke="#383839" stroke-width="1.62816" stroke-linecap="round" stroke-linejoin="round"/>
<path d="M113.165 66.5471L115.157 63.9203L117.588 61.7549L119.607 59.1606" stroke="#383839" stroke-width="1.62816" stroke-linecap="round" stroke-linejoin="round"/>
</svg>
