<svg width="210" height="234" viewBox="0 0 210 234" fill="none" xmlns="http://www.w3.org/2000/svg">
<rect width="210" height="234" fill="transparent"/>
<path d="M64.1412 43.1335C57.9589 44.1063 53.4789 45.7113 53.2519 55.7574L53.0898 61.3453L53.9977 60.1131C53.9977 60.1131 59.4396 47.5703 68.432 43.2362C68.432 43.2362 66.7081 42.7336 64.1357 43.1389L64.1412 43.1335Z" fill="#41B879" stroke="#383839" stroke-width="1.62816" stroke-linecap="round" stroke-linejoin="round"/>
<path d="M53.5571 53.9253L55.7457 50.3046L59.0638 47.6296L62.4198 45.0194L66.4944 44.4628L69.2397 43.4522L71.7796 41.6148L67.813 40.7502L64.095 40.7178L60.3392 41.0528L57.2048 43.1658L55.1945 45.7814L53.784 48.8185L53.3301 52.115L53.5571 53.9253Z" fill="#FFF6F0"/>
<path d="M53.5571 53.9253L55.7457 50.3046L59.0638 47.6296L62.4198 45.0194L66.4944 44.4628L69.2397 43.4522L71.7796 41.6148L67.813 40.7502L64.095 40.7178L60.3392 41.0528L57.2048 43.1658L55.1945 45.7814L53.784 48.8185L53.3301 52.115L53.5571 53.9253Z" stroke="#383839" stroke-width="1.62816" stroke-linecap="round" stroke-linejoin="round"/>
<path d="M82.5663 132.474C84.3173 129.945 87.2409 124.816 87.2409 124.816L85.9385 123.157C84.4199 128.372 81.4423 129.107 81.4423 129.107L81.8314 121.45L80.3453 121.385L78.7403 127.481L73.9306 123.163L71.4772 122.698L76.0382 129.102C71.0719 126.492 70.3153 126.394 70.3153 126.394L68.8562 127.178C68.6562 127.653 73.8766 131.269 73.8766 131.269C72.9093 130.864 71.4394 131.874 71.4394 131.874L71.1691 133.43C71.7852 132.852 74.417 133.43 74.417 133.43L71.8663 135.392L72.8606 136.64L77.3676 134.9L79.4482 134.29L79.4212 134.355C79.4212 134.355 91.3047 138.154 109.003 150.723V144.239C109.003 144.239 92.4396 134.63 82.5663 132.474Z" fill="#FFF6F0" stroke="#383839" stroke-width="1.62816" stroke-linecap="round" stroke-linejoin="round"/>
<path d="M131.977 83.0263L134.857 80.1621L137.753 77.2007L140.418 74.0177L143.503 71.2346L146.476 68.3488L148.713 64.7389L151.939 62.0044L153.701 64.3336L150.842 66.8248L148.167 69.8781L145.222 72.6504L142.752 75.9199L139.386 78.2545L136.786 81.405L133.603 83.8639L131.977 83.0263Z" fill="#FFF6F0"/>
<path d="M131.977 83.0263L134.857 80.1621L137.753 77.2007L140.418 74.0177L143.503 71.2346L146.476 68.3488L148.713 64.7389L151.939 62.0044L153.701 64.3336L150.842 66.8248L148.167 69.8781L145.222 72.6504L142.752 75.9199L139.386 78.2545L136.786 81.405L133.603 83.8639L131.977 83.0263Z" stroke="#383839" stroke-width="1.62816" stroke-linecap="round" stroke-linejoin="round"/>
<path d="M147.996 124.292L151.487 124.054L154.508 122.465L153.973 121.255L150.449 122.887L147.158 123.903L146.866 123.627L146.58 123.384L149.039 117.958L147.283 117.402L145.688 122.352L145.418 122.071L144.878 122.422L142.505 118.493L140.787 117.677L142.976 122.492L142.592 122.682L140.365 120.126L139.047 121.217L139.112 123.254L141.052 124.719L140.792 126.011L141.938 126.783L141.981 127.562L139.809 130.728L136.777 133.29L134.005 136.073L131.746 139.326L128.763 141.92L126.412 145.098L124.218 148.421L121.386 151.156L118.922 154.214L116.636 157.057L116.258 160.532L119.095 157.954L121.467 154.96L123.694 151.837L126.126 148.891L128.352 145.768L131.454 143.395L133.572 140.18L136.442 137.608L138.825 134.614L141.257 131.663L143.824 128.848L144.413 128.421L146.623 128.215L146.721 127.091L148.104 127.583L148.915 126.675L147.099 127.253L147.029 126.373L152.773 125.74L153.081 125.232L148.131 124.8L148.007 124.724L147.996 124.292Z" fill="#FFF6F0"/>
<path d="M147.996 124.292L151.487 124.054L154.508 122.465L153.973 121.255L150.449 122.887L147.158 123.903L146.866 123.627L146.58 123.384L149.039 117.958L147.283 117.402L145.688 122.352L145.418 122.071L144.878 122.422L142.505 118.493L140.787 117.677L142.976 122.492L142.592 122.682L140.365 120.126L139.047 121.217L139.112 123.254L141.052 124.719L140.792 126.011L141.938 126.783L141.981 127.562L139.809 130.728L136.777 133.29L134.005 136.073L131.746 139.326L128.763 141.92L126.412 145.098L124.218 148.421L121.386 151.156L118.922 154.214L116.636 157.057L116.258 160.532L119.095 157.954L121.467 154.96L123.694 151.837L126.126 148.891L128.352 145.768L131.454 143.395L133.572 140.18L136.442 137.608L138.825 134.614L141.257 131.663L143.824 128.848L144.413 128.421L146.623 128.215L146.721 127.091L148.104 127.583L148.915 126.675L147.099 127.253L147.029 126.373L152.773 125.74L153.081 125.232L148.131 124.8L148.007 124.724L147.996 124.292Z" stroke="#383839" stroke-width="1.62816" stroke-linecap="round" stroke-linejoin="round"/>
<path d="M140.843 233.611L139.07 233.687L137.233 233.454L135.395 233.854L133.558 233.552L131.721 233.417L129.883 233.66L128.046 233.471L126.208 233.357L124.371 233.735L122.534 233.903L120.696 233.498L118.864 233.995L117.027 233.779L115.19 233.481L113.352 233.698L111.515 233.654L109.677 233.784L107.84 233.957L106.003 233.487L104.165 233.562L102.328 233.876L100.491 233.654L98.6531 233.768L96.8157 233.779L94.9784 233.833L93.141 233.622L91.3036 233.633L89.4662 233.87L87.6288 233.487L85.786 233.773L83.8838 233.73L83.3326 231.871L83.392 229.953L82.8192 228.153L82.4139 226.321L82.4409 224.408L81.7978 222.625L81.7654 220.722L81.0142 218.961L80.9385 217.069L80.7981 215.189L80.3711 213.362L80.0199 211.525L79.4578 209.725L79.1174 207.882L78.9174 206.012L78.4851 204.186L78.0798 202.354L77.8853 200.484L77.6043 198.63L77.307 196.777L76.8045 194.961L76.6423 193.086L75.8209 191.33L75.4318 189.492L75.0805 187.649L74.7941 185.79L74.5293 183.872L76.4532 183.991L78.3284 183.769L80.2036 184.099L82.0788 183.629L83.954 184.002L85.8292 183.829L87.7044 184.029L89.5797 183.688L91.4549 183.656H93.3301L95.2053 183.672L97.0805 183.985L98.9558 183.861L100.831 183.607L102.706 184.056L104.581 183.58L106.457 183.721L108.332 184.007L110.207 183.613L112.082 183.915L113.957 183.926L115.833 183.894L117.708 183.629L119.583 183.715L121.458 184.077L123.334 183.704L125.209 183.623L127.084 184.121L128.959 183.591L130.834 183.575L132.71 184.148L134.585 184.045L136.46 184.061L138.335 183.829L140.21 183.969L142.086 183.688L143.961 183.904L145.842 184.121L147.755 183.883L147.728 185.785L147.106 187.574L147.187 189.46L146.771 191.276L146.301 193.086L146.268 194.956L145.971 196.793L145.469 198.598L145.323 200.452L145.285 202.321L144.674 204.11L144.523 205.964L144.696 207.866L144.372 209.698L143.977 211.525L143.75 213.367L143.691 215.237L143.48 217.085L143.075 218.907L142.615 220.722L142.718 222.614L142.086 224.403L142.015 226.272L141.518 228.083L141.632 229.98L140.935 231.763L140.832 233.573L140.843 233.611Z" fill="#363737"/>
<path d="M154.067 184.434L152.24 184.688L150.376 184.212L148.511 184.445L146.647 184.645L144.782 184.504H142.918L141.048 184.266L139.184 184.385L137.319 184.212L135.455 184.715L133.591 184.693L131.726 184.672L129.856 184.45L127.992 184.32L126.128 184.391L124.258 184.585L122.388 184.607H120.524L118.659 184.353L116.789 184.645L114.92 184.38L113.05 184.628L111.18 184.601L109.31 184.331L107.44 184.801L105.571 184.715L103.701 184.553L101.836 184.364L99.9665 184.526L98.1021 184.293L96.2377 184.428L94.3679 184.612L92.5034 184.396L90.6337 184.564L88.7639 184.78L86.894 184.38L85.0242 184.623L83.1544 184.607L81.2846 184.672L79.4148 184.515L77.545 184.223L75.6751 184.266L73.8053 184.412L71.9356 184.709L70.0603 184.547L68.2553 184.396L67.996 182.569L68.4337 180.673L68.304 178.776L68.504 176.874L68.3094 174.977L68.0068 173.075L68.2824 171.172L67.9365 169.27L68.4499 167.368L68.2932 165.563L70.0603 165.757L71.9247 165.147L73.7891 165.26L75.6536 165.606L77.5179 165.444L79.3823 165.563L81.2522 165.53L83.1166 165.655L84.981 165.352L86.8454 165.212L88.7098 165.525L90.5796 165.26L92.4494 165.466L94.3138 165.33L96.1782 165.595L98.0426 165.401L99.9125 165.747L101.777 165.174H103.641L105.511 165.482L107.381 165.244L109.245 165.271L111.115 165.19L112.985 165.417L114.855 165.552L116.725 165.395L118.589 165.574L120.459 165.476L122.323 165.179L124.188 165.655H126.052L127.922 165.639L129.792 165.557L131.661 165.709L133.531 165.314L135.401 165.244L137.271 165.341L139.141 165.357L141.01 165.336L142.88 165.266L144.75 165.547L146.62 165.282L148.49 165.428L150.36 165.282L152.235 165.628L154.256 165.32L153.797 167.362L153.975 169.259L153.861 171.161L154.142 173.064L154.386 174.961L154.418 176.857L153.834 178.76L153.807 180.662L154.45 182.569L154.078 184.428H154.067V184.434Z" fill="#363737"/>
<path d="M108.791 128.75L106.207 125.778L103.959 122.708L101.582 119.742L99.3011 116.699L96.5882 114.008L94.713 110.636L92.4325 107.588L89.925 104.729L87.6228 101.708L84.9262 99.0061L82.0512 96.4554L80.1112 93.1265L77.836 90.0786L74.8476 87.6197L72.3725 84.734L69.9785 81.7779L67.5683 78.8327L65.4283 75.7632L62.2129 77.5141L64.8447 80.4918L67.0873 83.6856L69.7516 86.5335L72.4374 89.3652L74.8692 92.4077L76.8201 95.8447L79.2844 98.8602L82.2512 101.46L84.6236 104.545L86.7528 107.842L89.444 110.663L92.2541 113.392L94.0213 116.98L97.0205 119.558L99.1443 122.854L101.798 125.713L104.462 128.566L106.661 131.803L109.061 134.873L111.817 138.007L112.255 133.463L112.049 129.339L108.791 128.75Z" fill="#FFF6F0"/>
<path d="M108.791 128.75L106.207 125.778L103.959 122.708L101.582 119.742L99.3011 116.699L96.5882 114.008L94.713 110.636L92.4325 107.588L89.925 104.729L87.6228 101.708L84.9262 99.0061L82.0512 96.4554L80.1112 93.1265L77.836 90.0786L74.8476 87.6197L72.3725 84.734L69.9785 81.7779L67.5683 78.8327L65.4283 75.7632L62.2129 77.5141L64.8447 80.4918L67.0873 83.6856L69.7516 86.5335L72.4374 89.3652L74.8692 92.4077L76.8201 95.8447L79.2844 98.8602L82.2512 101.46L84.6236 104.545L86.7528 107.842L89.444 110.663L92.2541 113.392L94.0213 116.98L97.0205 119.558L99.1443 122.854L101.798 125.713L104.462 128.566L106.661 131.803L109.061 134.873L111.817 138.007L112.255 133.463L112.049 129.339L108.791 128.75Z" stroke="#383839" stroke-width="1.62816" stroke-linecap="round" stroke-linejoin="round"/>
<path d="M109.583 165.487L113.593 165.725L117.64 166.082L117.365 162.191L117.819 158.397L117.905 154.609L117.619 150.826L117.403 147.043L116.803 143.271L117.64 139.456L117.543 135.657L116.716 131.901L116.922 128.096L116.154 124.346L116.268 120.536L115.576 116.807L114.187 113.457L114.949 111.911L115.16 108.199L116.268 104.648L117.689 101.211L119.278 97.7416L122.353 95.4503L124.833 92.316L128.232 90.1273L130.864 87.1442L133.501 84.2314L131.842 82.9507L128.654 85.0907L126.222 88.5709L122.963 91.1757L119.991 94.0885L116.743 96.7203L114.479 99.86L112.712 95.4557L110.604 98.255L108.502 101.643L109.021 105.491L109.269 109.263L108.545 113.051L108.772 116.829L108.81 120.612L109.34 124.384L108.783 128.172L108.61 131.955L109.232 135.722L108.842 139.51L109.707 143.276L109.864 147.054L109.442 150.842L108.967 154.625L109.35 158.402L109.432 162.185L109.761 165.968L109.583 165.487Z" fill="#FFF6F0"/>
<path d="M109.583 165.487L113.593 165.725L117.64 166.082L117.365 162.191L117.819 158.397L117.905 154.609L117.619 150.826L117.403 147.043L116.803 143.271L117.64 139.456L117.543 135.657L116.716 131.901L116.922 128.096L116.154 124.346L116.268 120.536L115.576 116.807L114.187 113.457L114.949 111.911L115.16 108.199L116.268 104.648L117.689 101.211L119.278 97.7416L122.353 95.4503L124.833 92.316L128.232 90.1273L130.864 87.1442L133.501 84.2314L131.842 82.9507L128.654 85.0907L126.222 88.5709L122.963 91.1757L119.991 94.0885L116.743 96.7203L114.479 99.86L112.712 95.4557L110.604 98.255L108.502 101.643L109.021 105.491L109.269 109.263L108.545 113.051L108.772 116.829L108.81 120.612L109.34 124.384L108.783 128.172L108.61 131.955L109.232 135.722L108.842 139.51L109.707 143.276L109.864 147.054L109.442 150.842L108.967 154.625L109.35 158.402L109.432 162.185L109.761 165.968L109.583 165.487Z" stroke="#383839" stroke-width="1.62816" stroke-linecap="round" stroke-linejoin="round"/>
<path d="M140.884 126.162H142.322L142.279 127.21H139.474L140.884 126.162Z" fill="#41B879" stroke="#383839" stroke-width="1.62816" stroke-linecap="round" stroke-linejoin="round"/>
<path d="M106.986 68.3166L112.466 68.6733L109.548 65.9874L107.505 64.1122L108.089 63.3556L112.704 65.2849L110.812 60.9184L112.72 59.4647L114.887 63.6421L115.103 59.0918L114.514 54.4875L118.492 55.2225L118.81 59.7241L117.935 63.8258L120.486 61.2102L122.226 56.8059L125.366 59.7565L122.247 62.572L119.232 65.955L122.799 64.8958L125.533 65.4092L124.604 68.2463L120.394 68.7651L123.604 72.3156L122.183 76.347L120.075 73.2289L117.405 70.8025L116.584 74.7312L115.579 78.152L114.266 75.5094L114.752 71.1645L114.806 70.1648L113.947 73.3316L111.645 73.2397L113.017 70.5323L109.85 70.235L107.019 69.8676L107.116 68.5327L106.986 68.3166Z" fill="#FFF6F0"/>
<path d="M106.986 68.3166L112.466 68.6733L109.548 65.9874L107.505 64.1122L108.089 63.3556L112.704 65.2849L110.812 60.9184L112.72 59.4647L114.887 63.6421L115.103 59.0918L114.514 54.4875L118.492 55.2225L118.81 59.7241L117.935 63.8258L120.486 61.2102L122.226 56.8059L125.366 59.7565L122.247 62.572L119.232 65.955L122.799 64.8958L125.533 65.4092L124.604 68.2463L120.394 68.7651L123.604 72.3156L122.183 76.347L120.075 73.2289L117.405 70.8025L116.584 74.7312L115.579 78.152L114.266 75.5094L114.752 71.1645L114.806 70.1648L113.947 73.3316L111.645 73.2397L113.017 70.5323L109.85 70.235L107.019 69.8676L107.116 68.5327L106.986 68.3166Z" stroke="#383839" stroke-width="1.62816" stroke-linecap="round" stroke-linejoin="round"/>
<path d="M156.359 46.7704L154.052 44.8844L151.631 43.582L152.804 41.8365L157.267 45.2357L155.3 40.8475L157.051 40.091L159.018 43.7441L159.813 39.9667L161.374 36.0649L163.05 37.0755L162.326 40.626L162.104 44.3116L163.979 41.6311L166.416 39.3506L168.454 36.146L169.308 39.2371L166.692 42.5606L164.163 45.8679L167.649 45.1114L171.28 45.4464L174.717 44.6844L175.582 46.0301L171.215 47.073L166.908 48.0025L162.471 48.597L166.811 49.4454L171.075 50.4614L176.073 49.9372L173.896 51.9097L170.551 52.0448L167.141 50.8829L163.628 50.456L160.202 50.3317L156.122 47.0028L156.359 46.7704Z" fill="#FFF6F0"/>
<path d="M156.359 46.7704L154.052 44.8844L151.631 43.582L152.804 41.8365L157.267 45.2357L155.3 40.8475L157.051 40.091L159.018 43.7441L159.813 39.9667L161.374 36.0649L163.05 37.0755L162.326 40.626L162.104 44.3116L163.979 41.6311L166.416 39.3506L168.454 36.146L169.308 39.2371L166.692 42.5606L164.163 45.8679L167.649 45.1114L171.28 45.4464L174.717 44.6844L175.582 46.0301L171.215 47.073L166.908 48.0025L162.471 48.597L166.811 49.4454L171.075 50.4614L176.073 49.9372L173.896 51.9097L170.551 52.0448L167.141 50.8829L163.628 50.456L160.202 50.3317L156.122 47.0028L156.359 46.7704Z" stroke="#383839" stroke-width="1.62816" stroke-linecap="round" stroke-linejoin="round"/>
<path d="M51.1354 62.2531L52.4431 61.3398L46.2446 52.823L45.1963 53.5201L51.1354 62.2531Z" fill="#41B879" stroke="#383839" stroke-width="1.62816" stroke-linecap="round" stroke-linejoin="round"/>
<path d="M55.6721 59.4592L57.7689 58.4108C57.7689 58.4108 59.9954 53.6714 64.9942 52.5474C64.9942 52.5474 55.3263 52.4717 55.6721 59.4592Z" fill="#41B879" stroke="#383839" stroke-width="1.62816" stroke-linecap="round" stroke-linejoin="round"/>
<path d="M35.835 97.8445L37.2833 98.5471L41.3741 96.5097L45.3353 94.4345L44.2869 97.3582L44.3572 100.887L44.1248 104.005L46.0433 104.61L46.5675 100.547L47.6591 96.8448L49.3019 93.2727L50.426 97.5527L52.2148 101.59L54.1169 101.211L52.2742 96.8772L51.6202 91.9811L56.1543 96.0774L57.381 94.2616L54.6952 91.4785L52.1769 88.3387L55.5058 86.2258L58.3646 83.648L61.7691 81.9187L65.4601 80.9352L69.1943 80.2759L72.8097 79.0816L76.5438 78.3358L80.37 78.6871L84.1528 78.4061L87.9195 78.9627L91.9023 79.4598L96.0688 79.5517L99.5868 81.7836L101.846 84.9828L102.824 82.4375L100.225 80.0381L97.0793 77.6279L93.4911 75.8553L89.5677 75.0177L85.5957 74.688L81.6183 74.6556L77.5923 74.5583L73.6743 75.477L69.859 75.9148L66.3194 77.4603L62.4879 78.044L58.8888 79.4166L55.4518 81.1891L52.2309 83.3832L49.8207 86.55L49.5559 82.5942L48.3238 82.8644L46.3945 86.1879L43.8979 83.9074L42.1685 81.4485L41.1634 82.4969L43.0494 84.8855L44.6652 87.4795L40.423 87.928L36.2781 89.1872L37.1157 90.6463L40.5635 90.6247L44.1032 90.214L41.1526 92.4134L38.4289 94.9263L35.8998 97.6608L35.835 97.8445Z" fill="#FFF6F0"/>
<path d="M35.835 97.8445L37.2833 98.5471L41.3741 96.5097L45.3353 94.4345L44.2869 97.3582L44.3572 100.887L44.1248 104.005L46.0433 104.61L46.5675 100.547L47.6591 96.8448L49.3019 93.2727L50.426 97.5527L52.2148 101.59L54.1169 101.211L52.2742 96.8772L51.6202 91.9811L56.1543 96.0774L57.381 94.2616L54.6952 91.4785L52.1769 88.3387L55.5058 86.2258L58.3646 83.648L61.7691 81.9187L65.4601 80.9352L69.1943 80.2759L72.8097 79.0816L76.5439 78.3358L80.37 78.6871L84.1528 78.4061L87.9195 78.9627L91.9023 79.4598L96.0688 79.5517L99.5868 81.7836L101.846 84.9828L102.824 82.4375L100.225 80.0381L97.0793 77.6279L93.4911 75.8553L89.5677 75.0177L85.5957 74.688L81.6183 74.6556L77.5923 74.5583L73.6743 75.477L69.859 75.9148L66.3194 77.4603L62.4879 78.044L58.8888 79.4166L55.4518 81.1891L52.2309 83.3832L49.8207 86.55L49.5559 82.5942L48.3238 82.8644L46.3945 86.1879L43.8979 83.9074L42.1685 81.4485L41.1634 82.4969L43.0494 84.8855L44.6652 87.4795L40.423 87.928L36.2781 89.1872L37.1157 90.6463L40.5635 90.6247L44.1032 90.214L41.1526 92.4134L38.4289 94.9263L35.8998 97.6608L35.835 97.8445Z" stroke="#383839" stroke-width="1.62816" stroke-linecap="round" stroke-linejoin="round"/>
<path d="M110.505 71.5372L114.309 69.4026L116.617 71.7155L117.12 76.0928L116.525 79.9405L115.65 83.7342L114.607 87.4792L114.455 91.462L113.137 95.1476L111.316 98.617L109.608 102.092L106.717 104.761L102.826 104.87L100.07 102.432L98.4268 98.871L98.5132 98.082L99.1077 94.4883L99.5995 90.8135L100.913 87.3441L101.983 83.7504L104.231 80.7349L106.036 77.4925L107.792 74.1528L110.143 71.2778L110.505 71.5372Z" fill="#41B879"/>
<path d="M110.505 71.5372L114.309 69.4026L116.617 71.7155L117.12 76.0928L116.525 79.9405L115.65 83.7342L114.607 87.4792L114.455 91.462L113.137 95.1476L111.316 98.617L109.608 102.092L106.717 104.761L102.826 104.87L100.07 102.432L98.4268 98.871L98.5132 98.082L99.1077 94.4883L99.5995 90.8135L100.913 87.3441L101.983 83.7504L104.231 80.7349L106.036 77.4925L107.792 74.1528L110.143 71.2778L110.505 71.5372Z" stroke="#383839" stroke-width="1.62816" stroke-linecap="round" stroke-linejoin="round"/>
<path d="M123.53 72.8883L121.498 76.1632L124.27 79.2273L126.324 82.6859L128.788 85.8257L131.436 88.8303L133.56 92.2133L135.727 95.5476L138.559 98.1308L141.115 100.838L144.249 102.816L147.502 104.978L151.426 104.691L150.372 100.763L150.15 96.7041L148.951 92.851L148.016 88.9168L145.503 85.9338L143.071 82.9507L140.439 80.2163L137.381 77.9411L133.976 76.228L130.642 74.2393L126.772 73.8124L123.108 72.1858L123.53 72.8883Z" fill="#41B879"/>
<path d="M123.53 72.8883L121.498 76.1632L124.27 79.2273L126.324 82.6859L128.788 85.8257L131.436 88.8303L133.56 92.2133L135.727 95.5476L138.559 98.1308L141.115 100.838L144.249 102.816L147.502 104.978L151.426 104.691L150.372 100.763L150.15 96.7041L148.951 92.851L148.016 88.9168L145.503 85.9338L143.071 82.9507L140.439 80.2163L137.381 77.9411L133.976 76.228L130.642 74.2393L126.772 73.8124L123.108 72.1858L123.53 72.8883Z" stroke="#383839" stroke-width="1.62816" stroke-linecap="round" stroke-linejoin="round"/>
<path d="M124.914 65.4739L125.779 69.4891L128.081 72.8018L131.08 75.1742L133.966 77.6655L137.133 79.9298L139.77 83.129L143.202 85.4744L146.876 87.3388L150.583 89.1383L154.291 91.019L154.918 93.4292L157.182 90.0516L157.263 86.0688L156.436 82.2697L155.145 78.4707L152.313 75.8767L149.686 73.2017L146.806 70.7699L143.337 69.2729L140.051 67.4464L136.582 65.7603L132.707 65.9332L128.962 65.6198L124.914 65.4739Z" fill="#41B879"/>
<path d="M124.914 65.4739L125.779 69.4891L128.081 72.8018L131.08 75.1742L133.966 77.6655L137.133 79.9298L139.77 83.129L143.202 85.4744L146.876 87.3388L150.583 89.1383L154.291 91.019L154.918 93.4292L157.182 90.0516L157.263 86.0688L156.436 82.2697L155.145 78.4707L152.313 75.8767L149.686 73.2017L146.806 70.7699L143.337 69.2729L140.051 67.4464L136.582 65.7603L132.707 65.9332L128.962 65.6198L124.914 65.4739Z" stroke="#383839" stroke-width="1.62816" stroke-linecap="round" stroke-linejoin="round"/>
<path d="M114.156 55.0656C114.156 55.0656 116.259 60.1887 118.896 55.6493L121.754 50.6289C122.457 49.4832 123.262 47.273 123.635 45.9814C124.538 42.8308 126.218 36.9188 126.218 36.4054C126.218 36.4054 126.91 29.9853 121.268 30.3744C118.247 30.5852 115.664 32.6063 114.513 35.4056C112.778 39.6262 110.822 47.1379 114.156 55.0656Z" fill="#41B879" stroke="#383839" stroke-width="1.62816" stroke-linecap="round" stroke-linejoin="round"/>
<path d="M103.976 67.0789L107.202 68.4732L105.424 71.332L102.322 73.2288L98.9395 74.6501L95.7187 76.3686L92.9301 78.8706L89.3526 79.9623L86.3912 82.1077L84.1161 85.3015L82.5002 88.4845L79.8955 85.9608L80.1117 82.1185L80.3657 78.2978L82.8029 75.5796L84.824 72.7478L87.3478 70.2403L90.7901 69.2892L94.9783 67.6626L99.4528 66.9438L103.992 67.0087L103.976 67.0789Z" fill="#41B879"/>
<path d="M103.976 67.0789L107.202 68.4732L105.424 71.332L102.322 73.2288L98.9395 74.6501L95.7187 76.3686L92.9301 78.8706L89.3526 79.9623L86.3912 82.1077L84.1161 85.3015L82.5002 88.4845L79.8955 85.9608L80.1117 82.1185L80.3657 78.2978L82.8029 75.5796L84.824 72.7478L87.3478 70.2403L90.7901 69.2892L94.9783 67.6626L99.4528 66.9438L103.992 67.0087L103.976 67.0789Z" stroke="#383839" stroke-width="1.62816" stroke-linecap="round" stroke-linejoin="round"/>
<path d="M86.4046 59.0917L83.6973 60.2211L83.8702 63.3555L87.1558 65.8143L91.2576 66.2088L95.1647 64.793L98.9476 65.4577L102.714 65.7657L106.281 64.8416L107.378 62.226L104.687 59.9995L101.423 58.789L97.9586 58.427L94.581 59.1295L90.447 59.243L86.3723 58.3945L86.4046 59.0917Z" fill="#41B879"/>
<path d="M86.4046 59.0917L83.6973 60.2211L83.8702 63.3555L87.1558 65.8143L91.2576 66.2088L95.1647 64.793L98.9476 65.4577L102.714 65.7657L106.281 64.8416L107.378 62.226L104.687 59.9995L101.423 58.789L97.9586 58.427L94.581 59.1295L90.447 59.243L86.3723 58.3945L86.4046 59.0917Z" stroke="#383839" stroke-width="1.62816" stroke-linecap="round" stroke-linejoin="round"/>
<path d="M92.2891 44.8194L94.6074 47.6998L96.1422 51.18L99.0604 53.547L101.973 55.8113L104.648 58.362L107.658 60.0859L110.803 61.1559L113.316 59.1402L112.738 55.4492L112.122 51.7853L109.755 48.8292L108.28 45.4517L105.221 43.4197L102.508 40.9285L98.9523 40.0098L95.672 40.5015L92.8025 41.6526L92.5215 44.7491L92.2891 44.8194Z" fill="#41B879"/>
<path d="M92.2891 44.8194L94.6074 47.6998L96.1422 51.18L99.0604 53.547L101.973 55.8113L104.648 58.362L107.658 60.0859L110.803 61.1559L113.316 59.1402L112.738 55.4492L112.122 51.7853L109.755 48.8292L108.28 45.4517L105.221 43.4197L102.508 40.9285L98.9523 40.0098L95.672 40.5015L92.8025 41.6526L92.5215 44.7491L92.2891 44.8194Z" stroke="#383839" stroke-width="1.62816" stroke-linecap="round" stroke-linejoin="round"/>
<path d="M155.514 47.4944L159.875 47.9699L160.983 52.6066L159.27 56.476L158.6 60.6641L156.525 64.3335L153.968 67.6192L150.094 69.6727L150.002 65.3224L149.607 61.318L149.813 57.3082L149.899 53.1254L152.369 49.7695L155.514 47.4944Z" fill="#89CB9A"/>
<path d="M155.514 47.4944L159.875 47.9699L160.983 52.6066L159.27 56.476L158.6 60.6641L156.525 64.3335L153.968 67.6192L150.094 69.6727L150.002 65.3224L149.607 61.318L149.813 57.3082L149.899 53.1254L152.369 49.7695L155.514 47.4944Z" stroke="#383839" stroke-width="1.62816" stroke-linecap="round" stroke-linejoin="round"/>
<path d="M164.115 53.6985L166.336 51.0559L170.135 51.2613L173.901 55.5953L174.772 59.1836L175.971 62.5612L176.933 66.0144L178.068 69.5324L177.225 73.1478L177.003 76.7415L175.674 80.4433L174.269 84.1559L171.383 83.6371L169.162 80.4163L167.379 76.8982L166.147 73.1532L166.039 69.1271L164.752 65.4091L164.18 61.529L163.796 57.6165L164.115 53.6985Z" fill="#89CB9A"/>
<path d="M164.115 53.6985L166.336 51.0559L170.135 51.2613L173.901 55.5953L174.772 59.1836L175.971 62.5612L176.933 66.0144L178.068 69.5324L177.225 73.1478L177.003 76.7415L175.674 80.4433L174.269 84.1559L171.383 83.6371L169.162 80.4163L167.379 76.8982L166.147 73.1532L166.039 69.1271L164.752 65.4091L164.18 61.529L163.796 57.6165L164.115 53.6985Z" stroke="#383839" stroke-width="1.62816" stroke-linecap="round" stroke-linejoin="round"/>
<path d="M173.034 50.602L172.412 52.0503L176.109 53.0609L179.243 55.2333L182.448 57.222L185.679 59.135L189.116 60.7833L192.024 63.2097L194.742 65.8307L197.147 68.7219L199.557 71.5752L201.41 74.8177L202.756 78.5681L204.161 74.7636L205.485 71.0402L204.139 67.3222L202.961 63.5448L200.47 60.459L197.336 58.065L193.888 56.2006L190.564 54.2011L187.344 52.3097L183.988 50.6182L180.356 49.5698L176.557 50.094L172.699 50.0724L173.034 50.602Z" fill="#89CB9A"/>
<path d="M173.034 50.602L172.412 52.0503L176.109 53.0609L179.243 55.2333L182.448 57.222L185.679 59.135L189.116 60.7833L192.024 63.2097L194.742 65.8307L197.147 68.7219L199.557 71.5752L201.41 74.8177L202.756 78.5681L204.161 74.7636L205.485 71.0402L204.139 67.3222L202.961 63.5448L200.47 60.459L197.336 58.065L193.888 56.2006L190.564 54.2011L187.344 52.3097L183.988 50.6182L180.356 49.5698L176.557 50.094L172.699 50.0724L173.034 50.602Z" stroke="#383839" stroke-width="1.62816" stroke-linecap="round" stroke-linejoin="round"/>
<path d="M127.317 48.3321L131.284 46.3921L135.245 44.987L139.379 44.2845L144.729 43.7387L148.091 43.8035L151.349 43.436L152.019 41.3285L149.226 38.8588L145.648 37.6213L142.416 35.5137L138.579 35.4488L134.78 35.3137L131.311 37.0592L129.376 40.3719L128.025 44.1224L127.317 48.3321Z" fill="#89CB9A"/>
<path d="M127.317 48.3321L131.284 46.3921L135.245 44.987L139.379 44.2845L144.729 43.7387L148.091 43.8035L151.349 43.436L152.019 41.3285L149.226 38.8588L145.648 37.6213L142.416 35.5137L138.579 35.4488L134.78 35.3137L131.311 37.0592L129.376 40.3719L128.025 44.1224L127.317 48.3321Z" stroke="#383839" stroke-width="1.62816" stroke-linecap="round" stroke-linejoin="round"/>
<path d="M154.356 40.3614L156.674 40.2317L156.479 38.9456L155.842 35.2222L153.902 31.9905L150.821 29.8073L147.822 27.6402L144.109 27.0242L140.402 27.6456L136.928 29.0507L136.89 30.5098L137.889 30.9475L140.775 31.7095L143.807 33.5685L146.017 36.4381L148.973 38.4538L152.156 40.2534L154.356 40.3614Z" fill="#89CB9A"/>
<path d="M154.356 40.3614L156.674 40.2317L156.479 38.9456L155.842 35.2222L153.902 31.9905L150.821 29.8073L147.822 27.6402L144.109 27.0242L140.402 27.6456L136.928 29.0507L136.89 30.5098L137.889 30.9475L140.775 31.7095L143.807 33.5685L146.017 36.4381L148.973 38.4538L152.156 40.2534L154.356 40.3614Z" stroke="#383839" stroke-width="1.62816" stroke-linecap="round" stroke-linejoin="round"/>
<path d="M160.237 34.8436L162.004 37.3403L164.76 36.1297L167.143 33.606L169.154 30.7905L171.18 27.9534L169.7 24.9109L168.684 25.581L168.559 25.3864L165.474 25.1541L163.274 23.0519L161.442 19.5824L158.945 16.6102L155.638 14.9944L152.434 16.7075L150.175 19.75L148.256 23.1113L147.127 26.8401L145.689 30.5203L145.327 34.4437L145.722 38.367L148.813 38.9074L152.044 36.708L154.152 33.3791L156.443 30.1852L158.097 26.6077L159.745 27.1103L159.924 30.958L160.351 34.8111L160.237 34.8436Z" fill="#89CB9A"/>
<path d="M160.237 34.8436L162.004 37.3403L164.76 36.1297L167.143 33.606L169.154 30.7905L171.18 27.9534L169.7 24.9109L168.684 25.581L168.559 25.3864L165.474 25.1541L163.274 23.0519L161.442 19.5824L158.945 16.6102L155.638 14.9944L152.434 16.7075L150.175 19.75L148.256 23.1113L147.127 26.8401L145.689 30.5203L145.327 34.4437L145.722 38.367L148.813 38.9074L152.044 36.708L154.152 33.3791L156.443 30.1852L158.097 26.6078L159.745 27.1103L159.924 30.958L160.351 34.8111L160.237 34.8436Z" stroke="#383839" stroke-width="1.62816" stroke-linecap="round" stroke-linejoin="round"/>
<path d="M165.566 37.6916L170.76 39.4533L174.418 37.9402L178.196 36.7135L181.984 35.53L185.572 33.7953L188.669 31.3958L186.599 29.9638L185.643 27.051L181.914 25.1595L178.066 25.1001L174.44 26.5106L171.895 29.0397L169.636 31.7741L167.231 34.3627L165.566 37.6916Z" fill="#89CB9A"/>
<path d="M165.566 37.6916L170.76 39.4533L174.418 37.9402L178.196 36.7135L181.984 35.53L185.572 33.7953L188.669 31.3958L186.599 29.9638L185.643 27.051L181.914 25.1595L178.066 25.1001L174.44 26.5106L171.895 29.0397L169.636 31.7741L167.231 34.3627L165.566 37.6916Z" stroke="#383839" stroke-width="1.62816" stroke-linecap="round" stroke-linejoin="round"/>
<path d="M153.422 119.996L155.919 122.79L159.972 122.12L164.171 122.692L168.321 121.887L172.412 122.855L176.043 123.735L174.314 120.839L171.445 118.558L168.526 116.532L165.1 115.413L161.479 116.008L157.534 117.942L153.422 119.996Z" fill="#41B879"/>
<path d="M153.422 119.996L155.919 122.79L159.972 122.12L164.171 122.692L168.321 121.887L172.412 122.855L176.043 123.735L174.314 120.839L171.445 118.558L168.526 116.532L165.1 115.413L161.479 116.008L157.534 117.942L153.422 119.996Z" stroke="#383839" stroke-width="1.62816" stroke-linecap="round" stroke-linejoin="round"/>
<path d="M146.333 146.962L149.446 149.453L151.84 152.28L153.823 151.734L154.023 146.227L154.104 142.633L152.996 139.18L151.305 136.527L148.938 134.603L147.765 138.602L147.641 142.795L146.333 146.962Z" fill="#41B879"/>
<path d="M146.333 146.962L149.446 149.453L151.84 152.28L153.823 151.734L154.023 146.227L154.104 142.633L152.996 139.18L151.305 136.527L148.938 134.603L147.765 138.602L147.641 142.795L146.333 146.962Z" stroke="#383839" stroke-width="1.62816" stroke-linecap="round" stroke-linejoin="round"/>
<path d="M139.124 123.503L141.005 125.908L138.411 128.172L135.39 130.598L132.737 133.436L130.159 136.354L127.203 138.867L124.29 141.439L122.853 141.58L121.475 137.564L122.204 133.479L124.804 130.328L127.387 126.999L131.17 125.205L135.136 124.157L139.043 123.892L139.124 123.503Z" fill="#41B879"/>
<path d="M139.124 123.503L141.005 125.908L138.411 128.172L135.39 130.598L132.737 133.436L130.159 136.354L127.203 138.867L124.29 141.439L122.853 141.58L121.475 137.564L122.204 133.479L124.804 130.328L127.387 126.999L131.17 125.205L135.136 124.157L139.043 123.892L139.124 123.503Z" stroke="#383839" stroke-width="1.62816" stroke-linecap="round" stroke-linejoin="round"/>
<path d="M137.933 122.195L140.154 120.595L136.923 118.023L133.729 115.413L130.205 113.154L125.99 112.284L122.737 114.84L119.349 118.715L120.608 119.19L123.661 120.687L127.314 120.26L130.789 121.492L134.431 121.201L138.101 121.698L137.933 122.195Z" fill="#41B879"/>
<path d="M137.933 122.195L140.154 120.595L136.923 118.023L133.729 115.413L130.205 113.154L125.99 112.284L122.737 114.84L119.349 118.715L120.608 119.19L123.661 120.687L127.314 120.26L130.789 121.492L134.431 121.201L138.101 121.698L137.933 122.195Z" stroke="#383839" stroke-width="1.62816" stroke-linecap="round" stroke-linejoin="round"/>
<path d="M139.59 117.429L142.741 118.537L143.508 114.278L142.368 109.939L138.358 108.091L134.37 107.772L135.802 110.96L136.948 114.635L139.59 117.429Z" fill="#41B879"/>
<path d="M139.59 117.429L142.741 118.537L143.508 114.278L142.368 109.939L138.358 108.091L134.37 107.772L135.802 110.96L136.948 114.635L139.59 117.429Z" stroke="#383839" stroke-width="1.62816" stroke-linecap="round" stroke-linejoin="round"/>
<path d="M146.877 118.666L149.184 119.396L152.065 116.418L155.123 113.565L157.193 109.933L157.842 106.685L153.837 105.453L149.876 106.556L147.477 108.971L146.261 113.203L146.326 117.64L146.877 118.666Z" fill="#41B879"/>
<path d="M146.877 118.666L149.184 119.396L152.065 116.418L155.123 113.565L157.193 109.933L157.842 106.685L153.837 105.453L149.876 106.556L147.477 108.971L146.261 113.203L146.326 117.64L146.877 118.666Z" stroke="#383839" stroke-width="1.62816" stroke-linecap="round" stroke-linejoin="round"/>
<path d="M47.29 80.9674C47.29 80.9674 47.6413 85.6528 51.1323 82.4103C51.1323 82.4103 70.922 63.9446 60.33 63.2637C60.33 63.2637 47.9925 65.4631 47.2954 80.9674H47.29Z" fill="#89CB9A" stroke="#383839" stroke-width="1.62816" stroke-linecap="round" stroke-linejoin="round"/>
<path d="M55.7119 97.7308L56.5442 94.1965L60.3919 94.7153L63.3587 96.877L66.3687 98.9197L69.1789 101.238L72.0862 103.475L74.2911 106.426L75.5233 109.895L74.1452 113.122L70.2273 112.014L66.7254 109.804L63.4559 107.28L60.8782 104.048L57.8627 101.222L55.9119 97.5849L55.7119 97.7308Z" fill="#89CB9A"/>
<path d="M55.7119 97.7308L56.5442 94.1965L60.3919 94.7153L63.3587 96.877L66.3687 98.9197L69.1789 101.238L72.0862 103.475L74.2911 106.426L75.5233 109.895L74.1452 113.122L70.2273 112.014L66.7254 109.804L63.4559 107.28L60.8782 104.048L57.8627 101.222L55.9119 97.5849L55.7119 97.7308Z" stroke="#383839" stroke-width="1.62816" stroke-linecap="round" stroke-linejoin="round"/>
<path d="M51.4307 104.491L52.7979 100.449L56.7159 102.416L58.8829 105.518L61.6336 107.971L64.6329 110.225L67.243 112.9L68.767 116.391L71.3231 119.19L72.5822 122.73L73.6793 126.378L72.9606 130.274L68.4265 129.831L64.9409 127.102L61.2445 124.8L58.148 121.682L56.5591 118.288L54.9163 114.981L52.933 111.787L52.2197 108.101L51.8738 104.426L51.4307 104.491Z" fill="#89CB9A"/>
<path d="M51.4307 104.491L52.7979 100.449L56.7159 102.416L58.8829 105.518L61.6336 107.971L64.6329 110.225L67.243 112.9L68.767 116.391L71.3231 119.19L72.5822 122.73L73.6793 126.378L72.9606 130.274L68.4265 129.831L64.9409 127.102L61.2445 124.8L58.148 121.682L56.5591 118.288L54.9163 114.981L52.933 111.787L52.2197 108.101L51.8738 104.426L51.4307 104.491Z" stroke="#383839" stroke-width="1.62816" stroke-linecap="round" stroke-linejoin="round"/>
<path d="M42.6525 106.226L44.9925 102.892L47.0352 106.334L48.7267 110.014L49.3158 113.981L49.8562 117.98L51.0397 121.801L51.9151 125.308L52.2664 128.923L53.0392 132.539L52.7906 136.262L50.8397 139.591L47.1434 139.775L43.863 137.618L41.3123 134.376L40.8962 130.258L39.6641 126.319L40.3612 122.249L40.1721 118.169L40.5503 114.1L41.7933 110.198L43.02 106.302L42.6525 106.226Z" fill="#89CB9A"/>
<path d="M42.6525 106.226L44.9925 102.892L47.0352 106.334L48.7267 110.014L49.3158 113.981L49.8562 117.98L51.0397 121.801L51.9151 125.308L52.2664 128.923L53.0392 132.539L52.7906 136.262L50.8397 139.591L47.1434 139.775L43.863 137.618L41.3123 134.376L40.8962 130.258L39.6641 126.319L40.3612 122.249L40.1721 118.169L40.5503 114.1L41.7933 110.198L43.02 106.302L42.6525 106.226Z" stroke="#383839" stroke-width="1.62816" stroke-linecap="round" stroke-linejoin="round"/>
<path d="M34.5838 98.5253L37.4264 97.4661L36.6644 100.573L35.0161 103.816L34.1893 107.41L32.8491 110.793L31.39 114.127L30.4605 117.661L28.8554 120.968L28.4826 125.562L29.1689 130.242L26.3966 127.859L24.2025 125.103L22.8461 121.822L22.2139 118.315L23.0731 114.511L23.7594 110.674L25.6779 106.983L28.2826 103.74L31.082 100.709L34.5838 98.5253Z" fill="#89CB9A"/>
<path d="M34.5838 98.5253L37.4264 97.4661L36.6644 100.573L35.0161 103.816L34.1893 107.41L32.8491 110.793L31.39 114.127L30.4605 117.661L28.8554 120.968L28.4826 125.562L29.1689 130.242L26.3966 127.859L24.2025 125.103L22.8461 121.822L22.2139 118.315L23.0731 114.511L23.7594 110.674L25.6779 106.983L28.2826 103.74L31.082 100.709L34.5838 98.5253Z" stroke="#383839" stroke-width="1.62816" stroke-linecap="round" stroke-linejoin="round"/>
<path d="M34.4265 88.3765L36.4422 91.9161L33.8806 94.7857L30.4383 96.6231L27.6605 99.3089L24.4721 101.498L21.5269 104L18.7924 106.745L16.3768 110.366L15.9932 105.983L16.3066 102.092L17.3225 98.1416L20.1111 95.1424L22.959 92.208L26.6932 90.5111L30.3842 88.8628L34.4102 88.517L34.4265 88.3765Z" fill="#89CB9A"/>
<path d="M34.4265 88.3765L36.4422 91.9161L33.8806 94.7857L30.4383 96.6231L27.6605 99.3089L24.4721 101.498L21.5269 104L18.7924 106.745L16.3768 110.366L15.9932 105.983L16.3066 102.092L17.3225 98.1416L20.1111 95.1424L22.959 92.208L26.6932 90.5111L30.3842 88.8628L34.4102 88.517L34.4265 88.3765Z" stroke="#383839" stroke-width="1.62816" stroke-linecap="round" stroke-linejoin="round"/>
<path d="M38.5565 81.4592C38.5565 81.4592 45.8898 86.3499 41.3504 79.7137C41.3504 79.7137 33.6658 62.9503 27.3808 66.0954C27.3808 66.0954 18.3398 66.4467 24.0844 74.3042C24.0844 74.3042 30.8719 80.065 38.5565 81.4646V81.4592Z" fill="#89CB9A" stroke="#383839" stroke-width="1.62816" stroke-linecap="round" stroke-linejoin="round"/>
<path d="M149.603 126.605L148.755 128.064L151.333 130.944L154.726 132.873L157.201 135.921L160.049 138.407L164.032 141.914L165.329 139.829L163.524 136.802L161.708 133.652L159.628 130.593L156.321 128.923L153.105 127.523L149.603 126.605Z" fill="#41B879"/>
<path d="M149.603 126.605L148.755 128.064L151.333 130.944L154.726 132.873L157.201 135.921L160.049 138.407L164.032 141.914L165.329 139.829L163.524 136.802L161.708 133.652L159.628 130.593L156.321 128.923L153.105 127.523L149.603 126.605Z" stroke="#383839" stroke-width="1.62816" stroke-linecap="round" stroke-linejoin="round"/>
<path d="M153.171 128.14L153.83 124.551L157.489 125.016L161.12 126.664L164.752 128.296L167.189 130.085L168.848 132.555L170.972 135.624L171.388 139.304L170.75 142.876L168.405 146.189L166.108 142.633L163.666 139.612L160.904 136.867L158.164 134.1L155.581 131.193L153.284 128.069L153.171 128.14Z" fill="#41B879"/>
<path d="M153.171 128.14L153.83 124.551L157.489 125.016L161.12 126.664L164.752 128.296L167.189 130.085L168.848 132.555L170.972 135.624L171.388 139.304L170.75 142.876L168.405 146.189L166.108 142.633L163.666 139.612L160.904 136.867L158.164 134.1L155.581 131.193L153.284 128.069L153.171 128.14Z" stroke="#383839" stroke-width="1.62816" stroke-linecap="round" stroke-linejoin="round"/>
<path d="M85.9516 132.041L84.0439 129.647L86.0759 127.572L90.1722 127.01L93.7821 126.529L97.3272 127.27L100.71 128.529L104.277 129.183L107.525 130.761L110.929 132.063L113.464 134.765L116.712 136.575L115.706 139.342L111.826 139.202L108.011 138.613L104.266 137.656L100.57 136.575L96.776 135.932L92.8797 135.484L89.4643 133.565L85.8759 132.171L85.9516 132.041Z" fill="#41B879"/>
<path d="M85.9516 132.041L84.0439 129.647L86.0759 127.572L90.1722 127.01L93.7821 126.529L97.3272 127.27L100.71 128.529L104.277 129.183L107.525 130.761L110.929 132.063L113.464 134.765L116.712 136.575L115.706 139.342L111.826 139.202L108.011 138.613L104.266 137.656L100.57 136.575L96.776 135.932L92.8797 135.484L89.4643 133.565L85.8759 132.171L85.9516 132.041Z" stroke="#383839" stroke-width="1.62816" stroke-linecap="round" stroke-linejoin="round"/>
<path d="M72.576 154.695L70.944 150.718L70.2361 146.535L71.787 142.661L73.338 138.132L71.3169 135.479L67.8745 137.451L64.8158 140.013L62.6758 143.552L63.7728 147.6L66.4208 150.734L68.9607 153.42L72.576 154.695Z" fill="#41B879"/>
<path d="M72.576 154.695L70.944 150.718L70.2361 146.535L71.787 142.661L73.338 138.132L71.3169 135.479L67.8745 137.451L64.8158 140.013L62.6758 143.552L63.7728 147.6L66.4208 150.734L68.9607 153.42L72.576 154.695Z" stroke="#383839" stroke-width="1.62816" stroke-linecap="round" stroke-linejoin="round"/>
<path d="M70.7903 134.046L70.5255 131.809L67.0129 131.22L63.3597 131.215L59.9011 132.236L57.0532 134.192L55.6156 137.348L55.4697 141.028L56.7235 141.942L57.1612 141.034L59.9983 138.851L63.5705 137.083L67.429 136.116L70.8876 134.122L70.7903 134.046Z" fill="#41B879"/>
<path d="M70.7903 134.046L70.5255 131.809L67.0129 131.22L63.3597 131.215L59.9011 132.236L57.0532 134.192L55.6156 137.348L55.4697 141.028L56.7235 141.942L57.1612 141.034L59.9983 138.851L63.5705 137.083L67.429 136.116L70.8876 134.122L70.7903 134.046Z" stroke="#383839" stroke-width="1.62816" stroke-linecap="round" stroke-linejoin="round"/>
<path d="M70.1244 129.361L72.6049 126.886L70.4162 124.151L68.3086 121.417L65.9795 118.628L63.861 120.574L62.2128 122.287L60.9267 123.6L59.2676 125.032L61.0509 126.194L65.4445 128.194L70.092 129.604L70.1244 129.361Z" fill="#41B879"/>
<path d="M70.1244 129.361L72.6049 126.886L70.4162 124.151L68.3086 121.417L65.9795 118.628L63.861 120.574L62.2128 122.287L60.9267 123.6L59.2676 125.032L61.0509 126.194L65.4445 128.194L70.092 129.604L70.1244 129.361Z" stroke="#383839" stroke-width="1.62816" stroke-linecap="round" stroke-linejoin="round"/>
<path d="M74.4694 125.94L76.5554 123.627L76.35 119.12L76.2636 114.613L76.6527 113.738L75.3827 108.858L74.1343 109.836L71.8755 109.782L68.9788 110.236L67.2441 114.894L68.0764 117.353L69.7354 120.617L71.7458 123.67L74.4478 125.946L74.4694 125.94Z" fill="#41B879"/>
<path d="M74.4694 125.94L76.5554 123.627L76.35 119.12L76.2636 114.613L76.6527 113.738L75.3827 108.858L74.1343 109.836L71.8755 109.782L68.9788 110.236L67.2441 114.894L68.0764 117.353L69.7354 120.617L71.7458 123.67L74.4478 125.946L74.4694 125.94Z" stroke="#383839" stroke-width="1.62816" stroke-linecap="round" stroke-linejoin="round"/>
<path d="M79.4971 123.897L80.4157 123.4L82.626 122.736L84.5877 119.504L87.8518 117.44L89.9053 114.186L93.4072 112.608L96.4713 110.593L100.4 109.231L96.4983 108.68L93.0073 108.107L89.4784 108.69L86.2251 110.23L84.1014 113.138L82.2531 114.743L80.1942 119.028L79.5619 123.687L79.4971 123.897Z" fill="#41B879"/>
<path d="M79.4971 123.897L80.4157 123.4L82.626 122.736L84.5877 119.504L87.8518 117.44L89.9053 114.186L93.4072 112.608L96.4713 110.593L100.4 109.231L96.4983 108.68L93.0073 108.107L89.4784 108.69L86.2251 110.23L84.1014 113.138L82.2531 114.743L80.1942 119.028L79.5619 123.687L79.4971 123.897Z" stroke="#383839" stroke-width="1.62816" stroke-linecap="round" stroke-linejoin="round"/>
<path d="M77.0803 136.289L79.1825 133.711L82.76 133.176L84.3704 135.089L88.0722 136.624L90.8607 139.375L93.833 141.942L96.081 145.206L96.2648 149.043L92.336 147.994L88.2776 147.292L84.9378 144.827L81.436 142.839L78.3773 140.121L76.6426 136.316L77.0803 136.289Z" fill="#41B879"/>
<path d="M77.0803 136.289L79.1825 133.711L82.76 133.176L84.3704 135.089L88.0722 136.624L90.8607 139.375L93.833 141.942L96.081 145.206L96.2648 149.043L92.336 147.994L88.2776 147.292L84.9378 144.827L81.436 142.839L78.3773 140.121L76.6426 136.316L77.0803 136.289Z" stroke="#383839" stroke-width="1.62816" stroke-linecap="round" stroke-linejoin="round"/>
<path d="M54.0977 57.8486L56.1512 54.7142L58.1128 51.7204L61.177 49.8506L64.306 48.3915L67.7213 48.1699L71.2177 47.9591L74.725 47.4944L77.9188 48.8994L78.6051 52.4121L74.6764 53.0444L70.9746 53.7469L67.1701 54.0387L63.4899 54.9682L59.8314 56.0436L56.3836 58.1026" fill="#FFF6F0"/>
<path d="M54.9989 58.4053C54.8909 56.9246 64.5804 43.2198 71.2166 44.6141C71.2166 44.6141 78.5553 45.7543 78.9228 50.1154C79.0309 51.4124 78.0312 52.5473 76.7288 52.6391C72.6217 52.931 62.3701 54.0604 58.2684 58.1405" stroke="#383839" stroke-width="1.62816" stroke-linecap="round" stroke-linejoin="round"/>
<path d="M16.6085 65.1282L13.6363 67.2466L10.4317 69.0462L7.61074 71.3861L5.55176 74.2773L6.21651 70.6566L7.13518 67.0412L9.01038 63.7015L12.0259 61.3345L14.9386 58.9135L18.3378 57.2166L21.9532 55.1415L26.0765 54.4443L30.2052 54.6605L34.2475 55.1847L37.9816 56.8437L41.2295 58.9351L37.7277 58.4001L33.988 59.3026L30.2106 59.2864L26.4061 59.5836L23.034 61.4588L19.6186 62.9179L16.7328 65.1984L16.6085 65.1282Z" fill="#FFF6F0"/>
<path d="M16.6085 65.1282L13.6363 67.2466L10.4317 69.0462L7.61074 71.3861L5.55176 74.2773L6.21651 70.6566L7.13518 67.0412L9.01038 63.7015L12.0259 61.3345L14.9386 58.9135L18.3378 57.2166L21.9532 55.1415L26.0765 54.4443L30.2052 54.6605L34.2475 55.1847L37.9816 56.8437L41.2295 58.9351L37.7277 58.4001L33.988 59.3026L30.2106 59.2864L26.4061 59.5836L23.034 61.4588L19.6186 62.9179L16.7328 65.1984L16.6085 65.1282Z" stroke="#383839" stroke-width="1.62816" stroke-linecap="round" stroke-linejoin="round"/>
<path d="M49.7337 62.5991C49.7337 62.5991 41.0116 55.0009 28.0796 58.4109C27.0312 58.7622 19.0008 61.5561 16.5527 65.0471L20.7409 64.35C20.7409 64.35 24.4751 61.1832 32.5055 60.1348C32.5055 60.1348 37.8556 58.7622 47.2803 62.9503L49.723 62.5991H49.7337Z" fill="#41B879" stroke="#383839" stroke-width="1.62816" stroke-linecap="round" stroke-linejoin="round"/>
<path d="M42.5238 62.7937L38.487 62.1776L34.4934 61.3616L30.4349 62.2262L26.3764 61.7561L22.4585 62.8045L18.6108 63.9555L14.6171 64.9066L11.4233 67.4844L7.98092 69.6298L5.64639 72.9857L3.41991 75.7202L2.62012 79.2653L4.03598 82.7671L6.56505 85.5502L10.3587 86.096L14.0552 85.0584L17.1679 82.8103L19.5403 79.8111L21.2696 76.4227L24.1229 72.9263L27.3275 70.1972L30.516 67.4358L34.542 66.0901L38.3843 64.5338L42.3941 63.2908L42.5238 62.7937Z" fill="#FFF6F0"/>
<path d="M42.5238 62.7937L38.487 62.1776L34.4934 61.3616L30.4349 62.2262L26.3764 61.7561L22.4585 62.8045L18.6108 63.9555L14.6171 64.9066L11.4233 67.4844L7.98092 69.6298L5.64639 72.9857L3.41991 75.7202L2.62012 79.2653L4.03598 82.7671L6.56505 85.5502L10.3587 86.096L14.0552 85.0584L17.1679 82.8103L19.5403 79.8111L21.2696 76.4227L24.1229 72.9263L27.3275 70.1972L30.516 67.4358L34.542 66.0901L38.3843 64.5338L42.3941 63.2908L42.5238 62.7937Z" stroke="#383839" stroke-width="1.62816" stroke-linecap="round" stroke-linejoin="round"/>
<path d="M44.7528 53.509L47.4063 52.5687L47.3252 49.2506L48.2006 46.046L48.2709 45.057L48.7302 40.7878L49.4652 36.5186L49.2004 36.1889L46.6713 35.5134L45.4986 38.4803L45.6553 38.8099L43.2181 40.1123L42.1913 39.8421L38.2896 37.7291L35.1444 40.7392L34.6094 42.1496L35.6037 46.1324L38.2734 49.056L40.8295 52.2012L44.7528 53.509Z" fill="#FFF6F0"/>
<path d="M44.7528 53.509L47.4063 52.5687L47.3252 49.2506L48.2006 46.046L48.2709 45.057L48.7302 40.7878L49.4652 36.5186L49.2004 36.1889L46.6713 35.5134L45.4986 38.4803L45.6553 38.8099L43.2181 40.1123L42.1913 39.8421L38.2896 37.7291L35.1444 40.7392L34.6094 42.1496L35.6037 46.1324L38.2734 49.056L40.8295 52.2012L44.7528 53.509Z" stroke="#383839" stroke-width="1.62816" stroke-linecap="round" stroke-linejoin="round"/>
<path d="M39.0889 42.2962C39.6402 42.2097 42.0347 41.5179 43.3319 40.5396L39.0889 42.2962Z" fill="#41B879"/>
<path d="M38.6494 42.0099C38.6494 42.0099 40.7305 41.3342 42.8925 40.2532" stroke="#383839" stroke-width="1.62816" stroke-linecap="round" stroke-linejoin="round"/>
<path d="M139.714 131.863L141.789 129.139L144.88 127.972L147.939 128.54L149.392 132.404L149.976 136.413L150.025 140.477L148.857 144.406L147.052 147.919L145.42 151.475L142.005 151.696L141.34 148.313L140.141 145.168L139.573 141.861L139.373 138.564L138.784 135.208L139.773 132.079L139.714 131.863Z" fill="#41B879"/>
<path d="M139.714 131.863L141.789 129.139L144.88 127.972L147.939 128.54L149.392 132.404L149.976 136.413L150.025 140.477L148.857 144.406L147.052 147.919L145.42 151.475L142.005 151.696L141.34 148.313L140.141 145.168L139.573 141.861L139.373 138.564L138.784 135.208L139.773 132.079L139.714 131.863Z" stroke="#383839" stroke-width="1.62816" stroke-linecap="round" stroke-linejoin="round"/>
<path d="M94.1387 200.29L97.781 201.16L101.429 200.987L105.077 200.668L108.73 200.517" stroke="#F3F2F2" stroke-width="2.17088" stroke-linecap="round" stroke-linejoin="round"/>
<path d="M100.893 200.987C100.893 200.987 104.005 208.369 108.529 200.987H100.893Z" fill="#F3F2F2" stroke="#F3F2F2" stroke-width="2.17088" stroke-linecap="round" stroke-linejoin="round"/>
<path d="M114.572 200.236L118.215 200.835L121.862 200.792L125.51 201.008L129.163 200.441" stroke="#F3F2F2" stroke-width="2.17088" stroke-linecap="round" stroke-linejoin="round"/>
<path d="M121.327 200.981C121.327 200.981 124.44 208.363 128.963 200.981H121.327Z" fill="#F3F2F2" stroke="#F3F2F2" stroke-width="2.17088" stroke-linecap="round" stroke-linejoin="round"/>
<path d="M116.741 210.028L116.535 211.898L116.119 213.784L114.503 214.81L112.828 215.524L110.969 215.951L109.223 215.41L107.581 214.697L106.392 213.357L105.392 211.844L104.933 210.028" stroke="#F3F2F2" stroke-width="2.17088" stroke-linecap="round" stroke-linejoin="round"/>
<path d="M84.9326 125.902L86.3539 126.54L89.9962 124.951L93.0118 122.346L96.7459 120.968L100.075 118.774L103.901 117.748L107.749 116.996L111.586 116.337L115.493 115.732L119.881 116.526L116.595 113.414L112.964 111.446L108.873 111.068L104.793 110.544L100.75 111.392L97.0918 113.262L93.6602 115.435L90.7096 117.386L87.6131 119.293L86.235 122.687L85.2245 125.886L84.9326 125.902Z" fill="#41B879"/>
<path d="M84.9326 125.902L86.3539 126.54L89.9962 124.951L93.0118 122.346L96.7459 120.968L100.075 118.774L103.901 117.748L107.749 116.996L111.586 116.337L115.493 115.732L119.881 116.526L116.595 113.414L112.964 111.446L108.873 111.068L104.793 110.544L100.75 111.392L97.0918 113.262L93.6602 115.435L90.7096 117.386L87.6131 119.293L86.235 122.687L85.2245 125.886L84.9326 125.902Z" stroke="#383839" stroke-width="1.62816" stroke-linecap="round" stroke-linejoin="round"/>
<path d="M123.104 56.9136L122.153 59.3887L124.428 61.0586L128.454 59.8481L132.583 59.1563L136.723 58.1674L140.56 58.4862L144.364 57.6972L148.201 57.9999L152.011 58.6375L155.886 58.4322L158.512 60.4263L157.782 56.7839L154.67 54.0873L152.994 50.9313L150.849 48.0564L147.412 47.0188L144.045 46.1433L140.046 46.9863L136.118 47.905L131.983 48.5643L128.465 50.7638L125.693 53.8333L123.191 56.8056L123.104 56.9136Z" fill="#41B879"/>
<path d="M123.104 56.9136L122.153 59.3887L124.428 61.0586L128.454 59.8481L132.583 59.1563L136.723 58.1674L140.56 58.4862L144.364 57.6972L148.201 57.9999L152.011 58.6375L155.886 58.4322L158.512 60.4263L157.782 56.7839L154.67 54.0873L152.994 50.9313L150.849 48.0564L147.412 47.0188L144.045 46.1433L140.046 46.9863L136.118 47.905L131.983 48.5643L128.465 50.7638L125.693 53.8333L123.191 56.8056L123.104 56.9136Z" stroke="#383839" stroke-width="1.62816" stroke-linecap="round" stroke-linejoin="round"/>
<path d="M50.5266 62.6259L46.4519 61.9558L42.7068 63.3879L38.7673 63.8635L35.2438 65.6792L32.8714 68.7325L30.1424 71.2184L29.1805 74.7743L26.9702 77.6817L25.9704 81.1511L25.2949 84.7178L26.3703 88.1764L28.1699 90.7866L31.3313 91.0838L34.5359 90.1435L36.2436 87.2793L37.5406 83.7937L39.3996 80.5512L41.4963 77.4385L43.2689 74.1744L44.6199 70.6618L46.3384 67.3113L49.6673 65.2793L50.5266 62.6259Z" fill="#FFF6F0"/>
<path d="M50.5266 62.6259L46.4519 61.9558L42.7068 63.3879L38.7673 63.8635L35.2438 65.6792L32.8714 68.7325L30.1424 71.2184L29.1805 74.7743L26.9702 77.6817L25.9704 81.1511L25.2949 84.7178L26.3703 88.1764L28.1699 90.7866L31.3313 91.0838L34.5359 90.1435L36.2436 87.2793L37.5406 83.7937L39.3996 80.5512L41.4963 77.4385L43.2689 74.1744L44.6199 70.6618L46.3384 67.3113L49.6673 65.2793L50.5266 62.6259Z" stroke="#383839" stroke-width="1.62816" stroke-linecap="round" stroke-linejoin="round"/>
<path d="M49.1187 66.3278L49.6753 62.934L53.3393 61.7343L56.2953 59.0863L60.0512 58.2595L63.9907 61.9721L65.1689 65.8036L66.3631 69.6513L67.1251 73.6125L68.0817 77.4116L64.2231 78.9031L60.9267 76.6982L57.6842 74.4555L54.9551 71.5536L52.0369 68.9488L48.7891 66.5494L49.1187 66.3278Z" fill="#FFF6F0"/>
<path d="M49.1187 66.3278L49.6753 62.934L53.3393 61.7343L56.2953 59.0863L60.0512 58.2595L63.9907 61.9721L65.1689 65.8036L66.3631 69.6513L67.1251 73.6125L68.0817 77.4116L64.2231 78.9031L60.9267 76.6982L57.6842 74.4555L54.9551 71.5536L52.0369 68.9488L48.7891 66.5494L49.1187 66.3278Z" stroke="#383839" stroke-width="1.62816" stroke-linecap="round" stroke-linejoin="round"/>
<path d="M59.2949 51.6342L62.2347 49.0078L64.6125 45.9166L67.9738 43.9442L71.2919 42.0743L74.7398 40.4964L78.4902 39.9343L82.1866 40.7017L85.5263 42.4959L87.8717 45.0628L85.7803 47.3811L82.5757 49.1861L78.9063 48.8348L78.1498 49.0618L74.3723 49.359L70.6218 49.9265L66.8714 50.4074L63.0345 50.3642L59.2949 51.6342Z" fill="#FFF6F0"/>
<path d="M59.2949 51.6342L62.2347 49.0078L64.6125 45.9166L67.9738 43.9442L71.2919 42.0743L74.7398 40.4964L78.4902 39.9343L82.1866 40.7017L85.5263 42.4959L87.8717 45.0628L85.7803 47.3811L82.5757 49.1861L78.9063 48.8348L78.1498 49.0618L74.3723 49.359L70.6218 49.9265L66.8714 50.4074L63.0345 50.3642L59.2949 51.6342Z" stroke="#383839" stroke-width="1.62816" stroke-linecap="round" stroke-linejoin="round"/>
</svg>
