<svg width="175" height="209" viewBox="0 0 175 209" fill="none" xmlns="http://www.w3.org/2000/svg">
<path d="M101.523 46.7012L98.1254 47.8843L94.7876 49.773L91.4445 51.6833L88.1556 53.8108L85.9793 57.0997L83.5805 60.101L81.3174 63.2108L79.2659 66.4942L77.5671 69.9731L75.711 73.4248L74.9458 77.2727L74.2131 81.0826L73.361 84.8545L72.5253 88.6427L71.3475 92.4146L70.9785 96.3059L71.1577 100.219L70.9839 104.11L71.2118 108.002L71.087 111.904L71.0165 115.811L71.9772 119.643L72.5469 123.491L73.1059 127.339L73.1277 131.523L76.4979 129.184L79.2279 126.449L81.9089 123.681L84.8614 121.222L87.8897 118.813L90.6956 116.153L92.5082 112.626L95.1459 109.831L97.4959 106.797L100.161 103.958L101.534 100.279L104.188 97.3588L105.278 93.5977L106.782 90.0755L108.367 86.5586L108.752 82.6945L109.794 79.0039L110.478 75.2157L110.293 71.3679L109.675 67.5851L109.295 63.7806L108.584 60.0033L106.939 56.519L105.539 52.9479L103.824 49.507L101.523 46.7012Z" fill="#FFF6F0"/>
<path d="M101.523 46.7012L98.1254 47.8843L94.7876 49.773L91.4445 51.6833L88.1556 53.8108L85.9793 57.0997L83.5805 60.101L81.3174 63.2108L79.2659 66.4942L77.5671 69.9731L75.711 73.4248L74.9458 77.2727L74.2131 81.0826L73.361 84.8545L72.5253 88.6427L71.3475 92.4146L70.9785 96.3059L71.1577 100.219L70.9839 104.11L71.2118 108.002L71.087 111.904L71.0165 115.811L71.9772 119.643L72.5469 123.491L73.1059 127.339L73.1277 131.523L76.4979 129.184L79.2279 126.449L81.9089 123.681L84.8614 121.222L87.8897 118.813L90.6956 116.153L92.5082 112.626L95.1459 109.831L97.4959 106.797L100.161 103.958L101.534 100.279L104.188 97.3588L105.278 93.5977L106.782 90.0755L108.367 86.5586L108.752 82.6945L109.794 79.0039L110.478 75.2157L110.293 71.3679L109.675 67.5851L109.295 63.7806L108.584 60.0033L106.939 56.519L105.539 52.9479L103.824 49.507L101.523 46.7012Z" stroke="#383839" stroke-width="1.62816" stroke-linecap="round" stroke-linejoin="round"/>
<path d="M101.399 47.6562L100.493 51.4607L98.7724 55.0427L98.3871 58.9991L97.4482 62.7982L95.7929 66.391L95.4456 70.3637L94.0073 74.0217L92.6723 77.7067L92.0482 81.6035L90.1215 85.1095L89.0469 88.8705L87.8854 92.6099L87.5707 96.6151L85.8339 100.17L84.5206 103.855L83.5871 107.67L82.5288 111.448L81.2534 115.149L79.9346 118.845L77.6498 122.156L76.5861 125.938L75.3486 129.71" stroke="#383839" stroke-width="1.62816" stroke-linecap="round" stroke-linejoin="round"/>
<path d="M108.597 63.6015L105.025 65.2785L101.747 67.5091L97.9211 68.7139L94.6432 71.1616L92.1521 67.5851L90.0843 63.8837L88.8414 59.7156L86.3232 56.2639" stroke="#383839" stroke-width="1.62816" stroke-linecap="round" stroke-linejoin="round"/>
<path d="M76.3584 74.4233L77.688 78.2929L79.3162 82.0323L81.8508 85.37L82.7029 89.4567L84.7164 93.0278L86.2413 97.1145L89.3891 94.4552L92.6944 92.6642L96.3306 91.4648L99.6032 89.625L102.821 87.682L105.763 85.2343L109.443 84.1055" stroke="#383839" stroke-width="1.62816" stroke-linecap="round" stroke-linejoin="round"/>
<path d="M72.751 103.215L81.288 113.809L95.6375 109.738" stroke="#383839" stroke-width="1.62816" stroke-linecap="round" stroke-linejoin="round"/>
<path d="M32.1071 52.3889L30.7937 56.0957L29.0082 59.5908L28.308 63.4387L27.3909 67.2378L27.0762 71.1454L27.9607 74.9878L28.6066 78.776L29.6324 82.5045L30.8426 86.2873L33.084 89.5653L35.8356 92.4146L38.8911 94.9003L42.0606 97.234L45.3713 99.3777L49.2137 100.436L52.8011 102.178L53.6315 98.2326L53.6695 94.2544L54.7441 90.374L54.9774 86.3958L54.4836 82.434L53.6857 78.5427L52.7198 74.711L51.5637 70.9337L50.0061 67.292L47.6235 64.128L45.5666 60.6926L42.218 58.4782L39.461 55.5258L36.0093 53.4798L32.1071 52.3889Z" fill="#89CB9A"/>
<path d="M32.1071 52.3889L30.7937 56.0957L29.0082 59.5908L28.308 63.4387L27.3909 67.2378L27.0762 71.1454L27.9607 74.9878L28.6066 78.776L29.6324 82.5045L30.8426 86.2873L33.084 89.5653L35.8356 92.4146L38.8911 94.9003L42.0606 97.234L45.3713 99.3777L49.2137 100.436L52.8011 102.178L53.6315 98.2326L53.6695 94.2544L54.7441 90.374L54.9774 86.3958L54.4836 82.434L53.6857 78.5427L52.7198 74.711L51.5637 70.9337L50.0061 67.292L47.6235 64.128L45.5666 60.6926L42.218 58.4782L39.461 55.5258L36.0093 53.4798L32.1071 52.3889Z" stroke="#383839" stroke-width="1.62816" stroke-linecap="round" stroke-linejoin="round"/>
<path d="M32.6729 53.6047L33.5141 57.496L34.6647 61.2897L36.0812 65.0019L37.5573 68.687L38.3769 72.6L40.2438 76.1439L41.0579 80.0733L43.1691 83.5141L44.8299 87.1123L45.6222 91.0905L48.0373 94.3251L49.4809 98.0482L52.493 100.252" stroke="#383839" stroke-width="1.62816" stroke-linecap="round" stroke-linejoin="round"/>
<path d="M27.8311 65.6963L30.8486 68.4479L34.4794 70.5319L37.5566 73.2293L40.064 76.5453" stroke="#383839" stroke-width="1.62816" stroke-linecap="round" stroke-linejoin="round"/>
<path d="M101.278 208.068L99.498 208.144L97.6526 207.911L95.8074 208.313L93.9622 208.009L92.1169 207.873L90.2717 208.117L88.4264 207.927L86.5812 207.813L84.736 208.193L82.8906 208.362L81.0454 207.954L79.2055 208.454L77.3603 208.237L75.5151 207.938L73.6698 208.155L71.8246 208.112L69.9793 208.242L68.1341 208.416L66.2889 207.944L64.4436 208.02L62.5984 208.334L60.753 208.112L58.9078 208.226L57.0626 208.237L55.2173 208.291L53.3721 208.079L51.5268 208.09L49.6816 208.329L47.8364 207.944L45.9856 208.231L44.0752 208.188L43.5216 206.321L43.5814 204.394L43.0061 202.587L42.599 200.747L42.6262 198.826L41.9804 197.035L41.9478 195.125L41.1933 193.355L41.1174 191.456L40.9763 189.567L40.5475 187.733L40.1948 185.887L39.6303 184.08L39.2885 182.229L39.0876 180.352L38.6534 178.517L38.2464 176.677L38.0511 174.8L37.7688 172.938L37.4703 171.077L36.9656 169.253L36.8028 167.37L35.9778 165.606L35.5871 163.761L35.2343 161.91L34.9467 160.043L34.6807 158.116L36.6128 158.236L38.496 158.013L40.3792 158.344L42.2626 157.872L44.1458 158.247L46.0291 158.073L47.9123 158.274L49.7955 157.932L51.6787 157.899H53.562L55.4452 157.916L57.3285 158.23L59.2118 158.106L61.095 157.85L62.9782 158.301L64.8615 157.823L66.7447 157.964L68.6279 158.252L70.5111 157.856L72.3945 158.16L74.2777 158.171L76.1609 158.138L78.0442 157.872L79.9274 157.959L81.8106 158.323L83.6939 157.948L85.5771 157.867L87.4603 158.366L89.3437 157.834L91.2269 157.818L93.1101 158.393L94.9934 158.29L96.8766 158.306L98.7598 158.073L100.643 158.214L102.526 157.932L104.41 158.149L106.298 158.366L108.219 158.127L108.192 160.038L107.568 161.834L107.65 163.728L107.232 165.552L106.76 167.37L106.727 169.248L106.429 171.093L105.924 172.906L105.777 174.767L105.739 176.645L105.126 178.441L104.974 180.303L105.148 182.213L104.822 184.053L104.426 185.887L104.198 187.738L104.138 189.616L103.927 191.472L103.519 193.301L103.058 195.125L103.161 197.024L102.526 198.82L102.456 200.698L101.957 202.516L102.07 204.421L101.37 206.212L101.267 208.03L101.278 208.068Z" fill="#363737"/>
<path d="M114.559 158.686L112.724 158.941L110.852 158.464L108.979 158.697L107.107 158.898L105.235 158.757H103.362L101.484 158.518L99.612 158.638L97.7396 158.464L95.8673 158.969L93.9948 158.947L92.1224 158.925L90.2446 158.703L88.3723 158.572L86.4999 158.643L84.622 158.838L82.7442 158.86H80.8718L78.9994 158.605L77.1217 158.898L75.2439 158.632L73.3659 158.882L71.4881 158.855L69.6103 158.583L67.7325 159.055L65.8548 158.969L63.977 158.806L62.1045 158.616L60.2267 158.779L58.3543 158.545L56.4819 158.681L54.6042 158.865L52.7317 158.648L50.8539 158.817L48.9761 159.034L47.0983 158.632L45.2205 158.876L43.3427 158.86L41.4648 158.925L39.587 158.768L37.7092 158.475L35.8314 158.518L33.9536 158.665L32.0758 158.963L30.1926 158.8L28.3798 158.648L28.1193 156.814L28.559 154.909L28.4287 153.004L28.6295 151.094L28.4341 149.189L28.1302 147.278L28.407 145.368L28.0596 143.458L28.5751 141.547L28.4179 139.735L30.1926 139.93L32.0649 139.317L33.9373 139.431L35.8096 139.778L37.682 139.615L39.5545 139.735L41.4323 139.702L43.3047 139.827L45.177 139.523L47.0494 139.382L48.9219 139.697L50.7997 139.431L52.6775 139.637L54.5498 139.501L56.4222 139.767L58.2946 139.572L60.1725 139.919L62.0448 139.344H63.9172L65.795 139.653L67.6728 139.414L69.5453 139.441L71.4231 139.36L73.3009 139.588L75.1787 139.724L77.0565 139.566L78.9288 139.745L80.8068 139.648L82.6791 139.349L84.5515 139.827H86.4238L88.3016 139.811L90.1794 139.729L92.0574 139.881L93.9352 139.485L95.8129 139.414L97.6907 139.512L99.5685 139.528L101.446 139.507L103.324 139.436L105.202 139.718L107.08 139.452L108.958 139.599L110.835 139.452L112.719 139.8L114.748 139.49L114.287 141.542L114.466 143.447L114.352 145.357L114.634 147.268L114.879 149.172L114.911 151.077L114.325 152.988L114.298 154.898L114.944 156.814L114.569 158.681H114.559V158.686Z" fill="#363737"/>
<path d="M69.9366 134.904L67.8308 131.784L66.0832 128.164L63.3153 125.238L61.3942 121.629L58.1975 119.138L55.4351 116.202L52.0214 114.107L49.096 111.291L46.0839 108.447L42.2089 107.079L38.4804 105.635L34.6271 104.398L30.6707 103.264L26.5514 103.481L22.5788 103.996L18.5517 103.589L14.6007 104.409L10.8722 105.977L6.55762 106.439L6.75836 110.721L9.17887 113.928L10.6226 117.494L12.7446 120.69L15.4582 123.426L18.0416 126.275L21.5258 128.061L23.8812 131.377L27.5772 132.896L30.8227 135.187L34.1766 137.129L38.0896 137.949L41.6336 139.528L45.1722 141.129L48.9821 141.748L52.8246 142.785L56.7159 141.965L60.3955 140.82L63.9992 139.382L67.5431 137.737L69.9366 134.904Z" fill="#89CB9A"/>
<path d="M69.9366 134.904L67.8308 131.784L66.0832 128.164L63.3153 125.238L61.3942 121.629L58.1975 119.138L55.4351 116.202L52.0214 114.107L49.096 111.291L46.0839 108.447L42.2089 107.079L38.4804 105.635L34.6271 104.398L30.6707 103.264L26.5514 103.481L22.5788 103.996L18.5517 103.589L14.6007 104.409L10.8722 105.977L6.55762 106.439L6.75836 110.721L9.17887 113.928L10.6226 117.494L12.7446 120.69L15.4582 123.426L18.0416 126.275L21.5258 128.061L23.8812 131.377L27.5772 132.896L30.8227 135.187L34.1766 137.129L38.0896 137.949L41.6336 139.528L45.1722 141.129L48.9821 141.748L52.8246 142.785L56.7159 141.965L60.3955 140.82L63.9992 139.382L67.5431 137.737L69.9366 134.904Z" stroke="#383839" stroke-width="1.62816" stroke-linecap="round" stroke-linejoin="round"/>
<path d="M68.9247 109.874L68.8866 113.553L69.006 117.374L68.6913 121.19L68.5557 125.01L68.9518 128.826L68.7347 132.646L69.0604 136.473L68.9464 140.179L71.85 140.527L74.7155 140.158L74.8566 136.321L75.0249 132.348L74.7807 128.381L74.4713 124.408L74.8024 120.43L74.7698 116.457L74.2651 112.49L74.4767 108.457L68.9247 109.874Z" fill="#FFF6F0"/>
<path d="M68.9247 109.874L68.8866 113.553L69.006 117.374L68.6913 121.19L68.5557 125.01L68.9518 128.826L68.7347 132.646L69.0604 136.473L68.9464 140.179L71.85 140.527L74.7155 140.158L74.8566 136.321L75.0249 132.348L74.7807 128.381L74.4713 124.408L74.8024 120.43L74.7698 116.457L74.2651 112.49L74.4767 108.457L68.9247 109.874Z" stroke="#383839" stroke-width="1.62816" stroke-linecap="round" stroke-linejoin="round"/>
<path d="M68.5614 124.636L65.267 123.561L61.5547 122.595L58.2605 120.544L54.57 119.486L51.0043 118.112L47.5472 116.501L44.2583 114.531L40.4375 113.657L37.496 111.014L34.0442 109.396L30.6685 107.616L27.0486 106.243L24.0202 103.861L20.6879 101.977L17.3936 100.013L14.5063 97.4782L11.2336 95.4376L8.75893 92.4363L6.06149 89.7499L3.06035 87.3348L1.24218 84.4529L1.14453 81.1043L1.33984 77.0936L4.02085 74.0055L7.72224 72.4262L11.6028 71.2051L15.6515 71.433L19.5862 72.3339L23.6457 72.068L27.5587 72.9472L31.4012 73.5062L34.8692 75.3189L38.576 76.3718L41.8649 78.4124L45.2677 80.16L48.7031 81.9021L51.6664 84.3606L54.5591 86.868L57.7883 89.0932L60.16 92.1704L62.4557 95.2965L63.5412 99.101L65.5384 102.384L67.1448 105.907L67.5192 109.782L68.4474 113.505L68.6047 117.342L69.37 121.173L68.5614 124.636Z" fill="#FFF6F0"/>
<path d="M68.5614 124.636L65.267 123.561L61.5547 122.595L58.2605 120.544L54.57 119.486L51.0043 118.112L47.5472 116.501L44.2583 114.531L40.4375 113.657L37.496 111.014L34.0442 109.396L30.6685 107.616L27.0486 106.243L24.0202 103.861L20.6879 101.977L17.3936 100.013L14.5063 97.4782L11.2336 95.4376L8.75893 92.4363L6.06149 89.7499L3.06035 87.3348L1.24218 84.4529L1.14453 81.1043L1.33984 77.0936L4.02085 74.0055L7.72224 72.4262L11.6028 71.2051L15.6515 71.433L19.5862 72.3339L23.6457 72.068L27.5587 72.9472L31.4012 73.5062L34.8692 75.3189L38.576 76.3718L41.8649 78.4124L45.2677 80.16L48.7031 81.9021L51.6664 84.3606L54.5591 86.868L57.7883 89.0932L60.16 92.1704L62.4557 95.2965L63.5412 99.101L65.5384 102.384L67.1448 105.907L67.5192 109.782L68.4474 113.505L68.6047 117.342L69.37 121.173L68.5614 124.636Z" stroke="#383839" stroke-width="1.62816" stroke-linecap="round" stroke-linejoin="round"/>
<path d="M51.1193 27.364L52.2427 23.3804L53.8763 19.5868L54.5927 15.5001L55.9387 11.5871L57.8165 7.8966L60.123 4.4666L62.6901 1.08545L64.8773 4.67826L67.9871 7.35388L70.4836 10.5559L73.5554 13.2316L76.307 16.2111L77.9677 19.6357L80.3177 22.4578L82.9717 25.09L85.1045 28.113L86.5535 31.5484L88.7027 34.5876L89.4028 38.3161L91.1667 41.5725L92.1001 45.4909L92.1816 49.5125L92.6972 53.4906L92.7731 57.5013L92.0947 61.4958L92.1056 65.4848L91.4543 69.4303L91.9753 73.5225L90.6891 77.3703L90.5589 81.4353L88.8873 85.1475L88.0406 89.066L87.0745 92.9899L85.2456 96.5827L83.4764 100.186L81.6419 103.757L79.3897 107.09L76.7683 110.134L73.9842 113L71.5365 115.817L68.2802 114.102L65.4851 111.41L62.7715 108.658L59.754 106.194L57.5397 102.976L55.0486 100.029L52.6498 96.9952L50.4354 93.8311L48.0747 90.7376L46.3704 87.2479L45.1982 83.5357L43.4561 80.0894L41.741 76.5671L41.3937 72.6595L40.5362 68.893L40.5471 65.0234L40.5525 61.1864L40.0098 57.2571L41.4263 53.5666L42.1265 49.773L42.9893 45.9739L45.0734 42.6579L46.1262 38.8534L48.7096 35.8739L50.0664 31.5972L51.1193 27.364Z" fill="#41B879"/>
<path d="M51.1193 27.364L52.2427 23.3804L53.8763 19.5868L54.5927 15.5001L55.9387 11.5871L57.8165 7.8966L60.123 4.4666L62.6901 1.08545L64.8773 4.67826L67.9871 7.35388L70.4836 10.5559L73.5554 13.2316L76.307 16.2111L77.9677 19.6357L80.3177 22.4578L82.9717 25.09L85.1045 28.113L86.5535 31.5484L88.7027 34.5876L89.4028 38.3161L91.1667 41.5725L92.1001 45.4909L92.1816 49.5125L92.6972 53.4906L92.7731 57.5013L92.0947 61.4958L92.1056 65.4848L91.4543 69.4303L91.9753 73.5225L90.6891 77.3703L90.5589 81.4353L88.8873 85.1475L88.0406 89.066L87.0745 92.9899L85.2456 96.5827L83.4764 100.186L81.6419 103.757L79.3897 107.09L76.7683 110.134L73.9842 113L71.5365 115.817L68.2802 114.102L65.4851 111.41L62.7715 108.658L59.754 106.194L57.5397 102.976L55.0486 100.029L52.6498 96.9952L50.4354 93.8311L48.0747 90.7376L46.3704 87.2479L45.1982 83.5357L43.4561 80.0894L41.741 76.5671L41.3937 72.6595L40.5362 68.893L40.5471 65.0234L40.5525 61.1864L40.0098 57.2571L41.4263 53.5666L42.1265 49.773L42.9893 45.9739L45.0734 42.6579L46.1262 38.8534L48.7096 35.8739L50.0664 31.5972L51.1193 27.364Z" stroke="#383839" stroke-width="1.62816" stroke-linecap="round" stroke-linejoin="round"/>
<path d="M86.0723 119.111L86.4033 115.024L86.5933 111.139L87.8198 107.41L88.8618 103.692L89.0355 99.7468L90.5822 96.1703L91.2877 92.3007L92.9594 88.7784L95.4288 85.6849L96.5847 81.8804L99.1572 78.928L101.903 76.1873L104.226 73.0992L106.739 70.098L110.278 68.3341L113.518 66.2772L116.503 63.6559L120.307 62.6572L123.856 61.0562L127.737 60.622L131.547 60.0902L135.302 59.0916L139.183 59.2924L143.036 58.8365L146.933 58.3589L150.786 58.9559L154.661 59.2598L158.498 59.8894L162.238 60.9911L165.896 62.3208L169.678 63.1348L173.515 63.8892L170.216 65.843L167.149 68.1279L163.513 69.5227L160.648 72.0897L157.266 73.9296L154.33 76.3827L151.427 78.8629L148.469 81.2834L146.005 84.2413L142.803 86.4393L140.903 89.8801L137.783 92.2138L134.63 94.363L131.71 97.0278L128.372 99.0413L124.687 100.49L121.762 103.171L118.234 104.865L114.874 106.835L111.64 109.038L108.177 110.851L104.357 111.958L100.975 113.885L97.3988 115.415L94.0176 117.45L90.1697 118.21L86.0723 119.111Z" fill="#41B879"/>
<path d="M86.0723 119.111L86.4033 115.024L86.5933 111.139L87.8198 107.41L88.8618 103.692L89.0355 99.7468L90.5822 96.1703L91.2877 92.3007L92.9594 88.7784L95.4288 85.6849L96.5847 81.8804L99.1572 78.928L101.903 76.1873L104.226 73.0992L106.739 70.098L110.278 68.3341L113.518 66.2772L116.503 63.6559L120.307 62.6572L123.856 61.0562L127.737 60.622L131.547 60.0902L135.302 59.0916L139.183 59.2924L143.036 58.8365L146.933 58.3589L150.786 58.9559L154.661 59.2598L158.498 59.8894L162.238 60.9911L165.896 62.3208L169.678 63.1348L173.515 63.8892L170.216 65.843L167.149 68.1279L163.513 69.5227L160.648 72.0897L157.266 73.9296L154.33 76.3827L151.427 78.8629L148.469 81.2834L146.005 84.2413L142.803 86.4393L140.903 89.8801L137.783 92.2138L134.63 94.363L131.71 97.0278L128.372 99.0413L124.687 100.49L121.762 103.171L118.234 104.865L114.874 106.835L111.64 109.038L108.177 110.851L104.357 111.958L100.975 113.885L97.3988 115.415L94.0176 117.45L90.1697 118.21L86.0723 119.111Z" stroke="#383839" stroke-width="1.62816" stroke-linecap="round" stroke-linejoin="round"/>
<path d="M75.4612 135.816L79.0106 133.933L82.1638 131.626L85.0619 128.842L88.8067 127.485L92.5352 126.259L96.1442 124.734L99.9487 123.719L103.889 123.464L107.791 123.979L111.677 124.712L115.199 126.53L118.141 129.151L121.554 131.29L123.508 134.796L125.999 138.025L122.879 140.516L120.464 143.555L117.451 146.025L113.973 147.799L110.239 148.928L106.391 149.417L102.548 149.411L98.7602 148.906L94.9394 148.44L91.4986 146.687L87.7375 145.666L84.465 143.62L81.7025 140.88L78.2616 139.067L75.2549 136.652" fill="#41B879"/>
<path d="M75.39 136.337L78.3804 133.786L81.7073 131.691L84.8062 129.254L88.3013 127.436L91.9268 125.917L95.8235 125.255L99.4923 123.746L103.427 123.762L107.313 124.099L111.172 124.837L114.819 126.373L118.042 128.695L120.626 131.68L123.242 134.611L125.25 138.009L123.052 141.303L120.143 143.984L117.245 146.692L113.397 147.897L110.016 149.867L106.244 151.028L102.304 150.735L98.3254 151.132L94.4884 150.073L91.0204 148.152L87.2865 146.779L84.5457 143.832L81.17 141.808L78.5812 138.839L75.124 136.744" stroke="#383839" stroke-width="1.62816" stroke-linecap="round" stroke-linejoin="round"/>
<path d="M80.4646 23.6355L76.6275 25.9204L72.8447 28.2975" stroke="#383839" stroke-width="1.62816" stroke-linecap="round" stroke-linejoin="round"/>
<path d="M65.7119 48.5627C65.7119 48.5627 73.0603 45.187 78.9271 38.8914C81.6353 35.9878 84.0233 32.4602 85.2281 28.3572" fill="#41B879"/>
<path d="M65.7236 48.5899L69.4358 46.7772L72.6216 44.1396L76.3121 42.1424L78.8194 38.7938L80.9035 35.5863L82.727 32.2974L84.9359 29.0085" stroke="#383839" stroke-width="1.62816" stroke-linecap="round" stroke-linejoin="round"/>
<path d="M88.5518 35.9771L86.4624 38.6364L83.5914 40.5685L80.3568 42.2238L76.7422 41.6702" stroke="#383839" stroke-width="1.62816" stroke-linecap="round" stroke-linejoin="round"/>
<path d="M66.8574 62.5757L70.3038 62.0005L73.6414 60.991L76.5994 58.9341L80.1541 58.4891L83.5515 56.5298L87.1824 55.0319L89.9339 52.1555L92.8321 49.7024" fill="#41B879"/>
<path d="M66.8252 62.4508C66.8252 62.4508 73.202 60.9258 79.9969 58.1091C84.9248 56.063 89.1744 53.6045 92.2625 50.2776" stroke="#383839" stroke-width="1.62816" stroke-linecap="round" stroke-linejoin="round"/>
<path d="M90.9112 41.2468L88.3821 43.8953L85.2452 45.7731L82.7541 48.427L80.8871 51.5477L79.704 54.956L78.7217 58.3534" stroke="#383839" stroke-width="1.62816" stroke-linecap="round" stroke-linejoin="round"/>
<path d="M52.167 24.8186L55.152 27.4997L58.2942 29.9962L61.7677 32.0856L64.7581 34.745L67.4282 32.6826L70.2884 30.6366L72.8989 28.1781L73.9735 24.3464L75.1403 20.5691L75.6343 16.6018" stroke="#383839" stroke-width="1.62816" stroke-linecap="round" stroke-linejoin="round"/>
<path d="M56.4424 11.0227L57.6418 14.6427L58.1357 18.4146L58.6241 22.1973L58.4287 26.0127L58.9172 29.8389" stroke="#383839" stroke-width="1.62816" stroke-linecap="round" stroke-linejoin="round"/>
<path d="M49.9326 34.0667L58.4913 42.875L64.6296 44.6606" fill="#41B879"/>
<path d="M50.1445 33.8604L52.5975 37.1818L55.8484 39.7326L58.1984 43.3254L61.5959 43.6402L64.5374 44.9699" stroke="#383839" stroke-width="1.62816" stroke-linecap="round" stroke-linejoin="round"/>
<path d="M43.3799 46.8476L47.6457 47.8734L51.7596 47.3958L55.5802 45.7893L58.5056 42.4841L54.7933 44.0255L51.1137 45.2412L47.3907 46.3483L43.3799 46.8476Z" fill="#41B879"/>
<path d="M43.5977 47.1354C43.5977 47.1354 52.5959 49.9087 57.9472 43.0325" stroke="#383839" stroke-width="1.62816" stroke-linecap="round" stroke-linejoin="round"/>
<path d="M42.458 48.5625C42.458 48.5625 56.889 61.3816 65.7137 60.1496L42.458 48.5625Z" fill="#41B879"/>
<path d="M42.2939 48.7473L45.2139 51.195L48.595 53.0077L51.618 55.298L54.6626 57.6425L58.402 58.6248L61.8373 60.4538L65.7503 60.4321" stroke="#383839" stroke-width="1.62816" stroke-linecap="round" stroke-linejoin="round"/>
<path d="M41.1924 60.85L45.0946 59.9817L49.1162 58.614L52.2477 55.9709L48.3673 57.1161L44.5682 58.6574L41.1924 60.85Z" fill="#41B879"/>
<path d="M40.9102 60.4538C40.9102 60.4538 49.7293 59.3792 52.1987 55.7104" stroke="#383839" stroke-width="1.62816" stroke-linecap="round" stroke-linejoin="round"/>
<path d="M40.9102 71.1509C40.9102 71.1509 62.7654 78.0272 67.1181 77.2619L40.9102 71.1509Z" fill="#41B879"/>
<path d="M41.6357 71.0369L45.1689 72.3231L48.892 73.0015L52.4956 74.0598L56.1535 74.9173L59.7084 76.1819L63.4315 76.7029L67.1056 77.1913" stroke="#383839" stroke-width="1.62816" stroke-linecap="round" stroke-linejoin="round"/>
<path d="M67.8613 75.1669L71.503 74.5916L75.0633 73.7233L78.5801 72.665L82.1295 71.7586L85.5594 70.4778L88.9298 69.1319L92.3001 67.9487L88.9026 69.1753L85.2556 69.7234L81.8038 70.8849L78.3087 71.916L74.971 73.4411L71.3184 73.9675L67.8613 75.1669Z" fill="#41B879"/>
<path d="M67.8975 75.27C67.8975 75.27 81.1398 74.3691 92.2602 67.7153" stroke="#383839" stroke-width="1.62816" stroke-linecap="round" stroke-linejoin="round"/>
<path d="M27.2168 105.728L30.9508 103.92L34.6955 102.14L38.7877 100.778L38.2721 96.6695L39.1079 92.7022L38.4404 88.7349L38.8962 84.7677L38.994 80.7949L38.4891 76.8276" stroke="#383839" stroke-width="1.62816" stroke-linecap="round" stroke-linejoin="round"/>
<path d="M68.6035 125.266L65.662 122.66L62.3189 120.576L59.7573 117.499L56.7071 115.035L53.1903 113.168L50.379 110.4L47.3235 107.947L44.2354 105.532L41.1691 103.09L37.7336 101.125L34.7867 98.5311L32.0079 95.7252L28.4965 93.8583L25.8588 90.8624L22.6351 88.621L19.5905 86.1516L16.4318 83.8233L13.322 81.4354L10.2231 79.0365L7.24357 76.4749L3.85156 74.4397" stroke="#383839" stroke-width="1.62816" stroke-linecap="round" stroke-linejoin="round"/>
<path d="M1.53613 81.5059L5.04752 82.9821L8.34731 84.849L11.723 86.5803L14.8491 88.762" stroke="#383839" stroke-width="1.62816" stroke-linecap="round" stroke-linejoin="round"/>
<path d="M8.72266 92.4742L12.1852 90.2816L16.0059 88.7077L19.5336 86.5476L19.1537 82.83L18.242 79.2155L18.3777 75.4707L17.5906 71.8345" stroke="#383839" stroke-width="1.62816" stroke-linecap="round" stroke-linejoin="round"/>
<path d="M17.5186 99.4211L20.8238 97.4347L24.1289 95.4375L27.293 93.1961L27.2767 89.1528L27.1356 85.1258L27.2386 81.1042L27.0759 77.0772L27.0596 73.0557" stroke="#383839" stroke-width="1.62816" stroke-linecap="round" stroke-linejoin="round"/>
<path d="M40.6484 114.145L44.4801 111.763L48.2737 109.331L48.3822 105.793L48.3009 102.254L48.0675 98.7156L48.5126 95.1717L48.6211 91.6277" stroke="#383839" stroke-width="1.62816" stroke-linecap="round" stroke-linejoin="round"/>
<path d="M52.5303 118.737L55.6672 114.704L56.5085 110.883L57.0132 107.041L57.4365 103.182" stroke="#383839" stroke-width="1.62816" stroke-linecap="round" stroke-linejoin="round"/>
<path d="M7.97168 107.48L11.456 109.32L14.9185 111.204L18.8533 112.17L21.9685 114.72L25.7025 116.072L28.9479 118.384L32.8718 119.339L35.9979 121.906L39.5093 123.697L43.1129 125.314L46.7925 126.769L50.342 128.478L53.9022 130.177L57.685 131.36L61.1475 133.309L64.838 134.768L68.7782 135.724" stroke="#383839" stroke-width="1.62816" stroke-linecap="round" stroke-linejoin="round"/>
<path d="M12.835 120.028L16.0099 118.047L19.2826 116.229L22.5443 114.612L22.6311 111.106L21.4643 107.633L21.5294 104.002" stroke="#383839" stroke-width="1.62816" stroke-linecap="round" stroke-linejoin="round"/>
<path d="M19.4902 125.759L22.6978 123.317L25.8347 120.761L29.0259 118.514L29.1453 114.872L29.0422 111.084L29.84 107.323" stroke="#383839" stroke-width="1.62816" stroke-linecap="round" stroke-linejoin="round"/>
<path d="M28.4736 133.048L30.4817 129.949L33.4666 127.843L35.6538 124.918L38.4435 122.628L37.9495 119.312L38.0961 115.969L38.4435 112.625" stroke="#383839" stroke-width="1.62816" stroke-linecap="round" stroke-linejoin="round"/>
<path d="M39.916 139.425L41.9838 136.375L44.019 133.298L46.6348 130.66L48.3878 127.409L49.1205 124.044L48.5398 120.576L48.5019 117.135" stroke="#383839" stroke-width="1.62816" stroke-linecap="round" stroke-linejoin="round"/>
<path d="M50.0625 142.35L52.6078 138.844L54.426 134.801L56.8302 131.393L57.3242 127.849L56.9768 124.153L57.0907 120.435" stroke="#383839" stroke-width="1.62816" stroke-linecap="round" stroke-linejoin="round"/>
<path d="M75.752 137.075L79.8441 136.483L83.8221 137.487L87.8438 137.867H91.887L95.8923 138.508L99.9735 137.965L104.001 138.144L108 139.078L112.055 138.578L116.082 139.289L120.157 139.278L124.038 137.911" stroke="#383839" stroke-width="1.62816" stroke-linecap="round" stroke-linejoin="round"/>
<path d="M119.094 130.405L116.755 133.124L114.731 136.06L112.555 138.546L113.597 142.285L115.637 145.612" stroke="#383839" stroke-width="1.62816" stroke-linecap="round" stroke-linejoin="round"/>
<path d="M109.715 125.189L107.072 128.18L104.673 131.338L103.072 135.04L100.282 138.128L101.872 141.482L103.832 144.445L105.433 147.598L107.272 150.627" stroke="#383839" stroke-width="1.62816" stroke-linecap="round" stroke-linejoin="round"/>
<path d="M101.013 125.195L98.8313 128.321L96.2588 131.198L94.1421 134.367L92.7744 137.808L94.256 141.374L95.6237 145.156L96.2804 149.2" stroke="#383839" stroke-width="1.62816" stroke-linecap="round" stroke-linejoin="round"/>
<path d="M93.3662 126.78L90.8533 130.182L88.4382 133.661L86.6689 137.373L86.7178 141.547L87.8792 145.683" stroke="#383839" stroke-width="1.62816" stroke-linecap="round" stroke-linejoin="round"/>
<path d="M22.6797 128.972L26.0934 127.583L29.6862 127.561L33.279 127.545" stroke="#383839" stroke-width="1.62816" stroke-linecap="round" stroke-linejoin="round"/>
<path d="M86.7598 115.469C86.7598 115.469 128.788 65.0397 171.858 63.6287" stroke="#383839" stroke-width="1.62816" stroke-linecap="round" stroke-linejoin="round"/>
<path d="M146.644 58.8799L138.34 74.0055L148.494 80.9035" stroke="#383839" stroke-width="1.62816" stroke-linecap="round" stroke-linejoin="round"/>
<path d="M129.845 60.7358L126.165 81.2181L137.671 91.557" stroke="#383839" stroke-width="1.62816" stroke-linecap="round" stroke-linejoin="round"/>
<path d="M116.435 64.2312L115.49 88.8382L127.826 96.7619" stroke="#383839" stroke-width="1.62816" stroke-linecap="round" stroke-linejoin="round"/>
<path d="M134.566 60.2366L141.166 66.9935" stroke="#383839" stroke-width="1.62816" stroke-linecap="round" stroke-linejoin="round"/>
<path d="M105.098 72.676L115.491 77.11L122.465 61.7456" stroke="#383839" stroke-width="1.62816" stroke-linecap="round" stroke-linejoin="round"/>
<path d="M143.647 77.8318L142.92 86.2005" stroke="#383839" stroke-width="1.62816" stroke-linecap="round" stroke-linejoin="round"/>
<path d="M120.65 116.484L123.055 122.715" stroke="#383839" stroke-width="1.62816" stroke-linecap="round" stroke-linejoin="round"/>
<path d="M75.2236 132.093L77.4922 129.021L79.3754 125.58L81.6711 122.422L84.3305 119.556L87.0333 116.75L89.584 113.787L92.5798 111.28L95.7168 108.973L98.794 106.58L102.229 104.729L105.681 102.851L109.556 102.167L113.252 101.18L116.791 99.6112L120.606 99.0847L124.438 98.6125L128.068 97.386L131.726 96.2463L135.466 95.4322L139.183 94.5204L142.906 93.7009L141.463 97.1581L139.465 100.349L138.277 103.975L135.65 106.808L133.897 110.124L131.992 113.364L129.414 116.126L127.238 119.16L125.241 122.471L121.832 124.24L118.37 125.309L114.527 126.481L110.685 127.616L106.728 128.251L102.837 129.173L98.9731 130.259L95.0926 131.355L91.1091 131.854L87.1037 132.164L83.0822 132.071L79.104 132.359L75.2236 132.093Z" fill="#89CB9A"/>
<path d="M75.2236 132.093L77.4922 129.021L79.3754 125.58L81.6711 122.422L84.3305 119.556L87.0333 116.75L89.584 113.787L92.5798 111.28L95.7168 108.973L98.794 106.58L102.229 104.729L105.681 102.851L109.556 102.167L113.252 101.18L116.791 99.6112L120.606 99.0847L124.438 98.6125L128.068 97.386L131.726 96.2463L135.466 95.4322L139.183 94.5204L142.906 93.7009L141.463 97.1581L139.465 100.349L138.277 103.975L135.65 106.808L133.897 110.124L131.992 113.364L129.414 116.126L127.238 119.16L125.241 122.471L121.832 124.24L118.37 125.309L114.527 126.481L110.685 127.616L106.728 128.251L102.837 129.173L98.9731 130.259L95.0926 131.355L91.1091 131.854L87.1037 132.164L83.0822 132.071L79.104 132.359L75.2236 132.093Z" stroke="#383839" stroke-width="1.62816" stroke-linecap="round" stroke-linejoin="round"/>
<path d="M122.11 99.1931L120.65 107.09L133.507 110.59" stroke="#383839" stroke-width="1.62816" stroke-linecap="round" stroke-linejoin="round"/>
<path d="M111.318 102.097L110.103 114.096L127.828 118.102" stroke="#383839" stroke-width="1.62816" stroke-linecap="round" stroke-linejoin="round"/>
<path d="M89.9067 113.809C89.0546 113.939 89.0547 124.636 89.0547 124.636L89.9067 113.809Z" fill="#41B879"/>
<path d="M89.9067 113.809C89.0546 113.939 89.0547 124.636 89.0547 124.636" stroke="#383839" stroke-width="1.62816" stroke-linecap="round" stroke-linejoin="round"/>
<path d="M142.92 93.6899C142.92 93.6899 80.7998 131.708 74.9004 131.838" stroke="#383839" stroke-width="1.62816" stroke-linecap="round" stroke-linejoin="round"/>
<path d="M97.9023 81.2183L101.983 99.7576L117.484 99.4808" stroke="#383839" stroke-width="1.62816" stroke-linecap="round" stroke-linejoin="round"/>
<path d="M89.8802 85.126L87.0905 87.7745L83.6877 89.5871L80.2577 91.275L76.692 92.6589L72.9635 93.5002L69.1862 94.0646L65.1538 94.2274L61.1865 93.4133L57.2083 92.8163L53.1379 92.8652L49.2031 91.9968" stroke="#383839" stroke-width="1.62816" stroke-linecap="round" stroke-linejoin="round"/>
<path d="M90.0005 78.6077L86.3751 80.5018L83.1459 82.9603L80.606 86.1189L77.735 89.0116L76.2588 93.0603L79.1352 90.2219L81.6425 87.123L84.481 84.3497L87.3195 81.5818L90.0005 78.6077Z" fill="#41B879"/>
<path d="M91.117 77.1099C91.117 77.1099 83.508 82.9713 75.9805 92.6805" stroke="#383839" stroke-width="1.62816" stroke-linecap="round" stroke-linejoin="round"/>
<path d="M45.499 82.7216C45.499 81.8478 55.3602 75.8562 55.3602 75.8562L45.499 82.7216Z" fill="#41B879"/>
<path d="M45.0293 82.7216L49.268 80.301L53.0996 77.9022L56.8932 75.4382" stroke="#383839" stroke-width="1.62816" stroke-linecap="round" stroke-linejoin="round"/>
<path d="M60.723 93.8745L59.1164 98.2109L57.0107 102.27" stroke="#383839" stroke-width="1.62816" stroke-linecap="round" stroke-linejoin="round"/>
<path d="M92.1539 62.2067L88.0563 60.4103L83.6495 59.9056L79.4922 58.3425" stroke="#383839" stroke-width="1.62816" stroke-linecap="round" stroke-linejoin="round"/>
<path d="M75.8389 93.1147L77.4888 96.3385L79.6705 99.2366L82.0856 101.95" stroke="#383839" stroke-width="1.62816" stroke-linecap="round" stroke-linejoin="round"/>
<path d="M71.6214 116.191L71.5888 112.338L71.2795 108.506L70.7205 104.696L70.1235 100.892L70.2592 97.0224L69.3366 93.245L69.5699 89.3646L68.4845 85.6035L67.9472 81.7882L68.4574 77.886L67.3502 74.125L67.627 70.2445L66.7695 66.4617L66.7858 62.603L65.988 58.8148L65.8252 54.9669L65.8632 51.1081L65.6406 47.2657L65.2336 43.4395L64.7071 39.6242L64.4358 35.7871L64.197 31.9447L63.7086 28.1239L64.1318 24.2434L63.3069 20.439L62.9542 16.6128L62.8076 12.7649L62.813 8.917L63.1984 5.05282L62.3301 1.24292" stroke="#383839" stroke-width="1.62816" stroke-linecap="round" stroke-linejoin="round"/>
<path d="M62.6836 178.875L66.4663 178.398L70.2491 178.827L74.0318 178.669L77.8202 178.24L81.6083 178.43" stroke="#F3F2F2" stroke-width="1.30253" stroke-linecap="round" stroke-linejoin="round"/>
<path d="M76.8925 179.348L77.343 182.333L75.9427 185.432L72.3771 186.62L69.3107 185.209L68.0569 182.289L67.9756 179.158L72.4911 178.507L76.8925 179.348Z" fill="#EEEEEE" stroke="#F3F2F2" stroke-width="1.30253" stroke-linecap="round" stroke-linejoin="round"/>
<path d="M72.1826 178.013L72.3671 182.686" stroke="#363737" stroke-width="2.17088" stroke-linecap="round" stroke-linejoin="round"/>
<path d="M67.7513 171.142L66.6495 173.063L64.7228 174.105L62.7094 173.155L61.8301 171.142L62.6333 169.047L64.7228 168.157L66.7363 169.128L67.7513 171.142Z" fill="#F3F2F2"/>
<path d="M83.2752 171.142L82.0432 172.944L80.2361 174.051L78.407 172.971L77.6201 171.142L78.2009 169.101L80.2361 168.602L82.2495 169.128L83.2752 171.142Z" fill="#F3F2F2"/>
<path d="M99.0283 106.493V119.703L112.249 126.916" stroke="#383839" stroke-width="1.62816" stroke-linecap="round" stroke-linejoin="round"/>
</svg>
