<svg width="210" height="234" viewBox="0 0 210 234" fill="none" xmlns="http://www.w3.org/2000/svg">
<rect width="210" height="234" fill="transparent"/>
<path d="M135.22 233.135L133.44 233.211L131.595 232.978L129.75 233.379L127.905 233.075L126.059 232.94L124.214 233.184L122.369 232.994L120.523 232.88L118.678 233.26L116.833 233.428L114.988 233.021L113.148 233.52L111.303 233.303L109.457 233.005L107.612 233.222L105.767 233.179L103.922 233.309L102.076 233.482L100.231 233.01L98.3859 233.086L96.5406 233.401L94.6954 233.179L92.8501 233.292L91.0049 233.303L89.1596 233.358L87.3144 233.146L85.4691 233.157L83.6239 233.396L81.7786 233.01L79.9279 233.298L78.0176 233.254L77.464 231.388L77.5237 229.461L76.9484 227.654L76.5413 225.814L76.5685 223.893L75.9227 222.102L75.8901 220.191L75.1357 218.422L75.0597 216.522L74.9186 214.634L74.4899 212.799L74.1371 210.954L73.5727 209.147L73.2307 207.296L73.0299 205.418L72.5958 203.584L72.1887 201.744L71.9933 199.866L71.7111 198.005L71.4126 196.143L70.9079 194.32L70.7451 192.436L69.9202 190.673L69.5294 188.827L69.1766 186.977L68.889 185.11L68.623 183.183L70.5551 183.302L72.4384 183.08L74.3216 183.411L76.2049 182.939L78.0881 183.313L79.9714 183.14L81.8546 183.34L83.7378 182.999L85.6211 182.966H87.5043L89.3876 182.982L91.2708 183.297L93.1541 183.172L95.0373 182.917L96.9205 183.368L98.8038 182.89L100.687 183.031L102.57 183.319L104.454 182.923L106.337 183.226L108.22 183.237L110.103 183.205L111.986 182.939L113.87 183.026L115.753 183.389L117.636 183.015L119.519 182.933L121.403 183.433L123.286 182.901L125.169 182.885L127.052 183.46L128.936 183.357L130.819 183.373L132.702 183.14L134.585 183.281L136.469 182.999L138.352 183.216L140.241 183.433L142.162 183.194L142.135 185.104L141.511 186.901L141.592 188.795L141.174 190.618L140.702 192.436L140.669 194.314L140.371 196.159L139.866 197.972L139.72 199.834L139.682 201.712L139.068 203.508L138.916 205.369L139.09 207.28L138.764 209.12L138.368 210.954L138.14 212.805L138.081 214.683L137.869 216.539L137.462 218.368L137.001 220.191L137.104 222.091L136.469 223.887L136.398 225.765L135.899 227.583L136.013 229.488L135.313 231.279L135.21 233.097L135.22 233.135Z" fill="#363737"/>
<path d="M148.499 183.753L146.665 184.008L144.792 183.531L142.92 183.764L141.047 183.965L139.175 183.824H137.303L135.425 183.585L133.552 183.704L131.68 183.531L129.808 184.035L127.935 184.014L126.063 183.992L124.185 183.769L122.313 183.639L120.44 183.71L118.562 183.905L116.685 183.927H114.812L112.94 183.672L111.062 183.965L109.184 183.699L107.306 183.948L105.429 183.921L103.551 183.65L101.673 184.122L99.7951 184.035L97.9173 183.872L96.0449 183.682L94.1671 183.845L92.2947 183.612L90.4223 183.748L88.5445 183.932L86.6721 183.715L84.7943 183.883L82.9165 184.1L81.0387 183.699L79.1609 183.943L77.283 183.927L75.4052 183.992L73.5274 183.834L71.6496 183.541L69.7718 183.585L67.894 183.731L66.0162 184.03L64.1329 183.867L62.3202 183.715L62.0597 181.881L62.4993 179.976L62.3691 178.071L62.5699 176.16L62.3745 174.255L62.0706 172.345L62.3473 170.435L62 168.524L62.5156 166.614L62.3582 164.801L64.1329 164.997L66.0053 164.383L67.8777 164.497L69.7501 164.845L71.6225 164.682L73.4948 164.801L75.3727 164.769L77.2451 164.893L79.1174 164.59L80.9898 164.448L82.8622 164.763L84.74 164.497L86.6178 164.704L88.4902 164.568L90.3626 164.834L92.235 164.638L94.1128 164.986L95.9852 164.41H97.8576L99.7354 164.72L101.613 164.481L103.486 164.508L105.363 164.427L107.241 164.655L109.119 164.79L110.997 164.633L112.869 164.812L114.747 164.714L116.619 164.416L118.492 164.893H120.364L122.242 164.877L124.12 164.796L125.998 164.948L127.876 164.552L129.753 164.481L131.631 164.579L133.509 164.595L135.387 164.573L137.265 164.503L139.142 164.785L141.02 164.519L142.898 164.666L144.776 164.519L146.659 164.866L148.689 164.557L148.228 166.608L148.407 168.513L148.293 170.424L148.575 172.334L148.819 174.239L148.852 176.144L148.266 178.054L148.238 179.965L148.884 181.881L148.51 183.748H148.499V183.753Z" fill="#363737"/>
<path d="M85.9881 165.002L84.919 164.286L82.7915 160.839L80.854 157.285L79.101 153.637L77.0549 150.126L75.2857 146.474L74.5096 142.414L73.283 138.593L71.7634 134.995L70.7594 131.239L69.7933 127.478L68.4202 123.804L68.2954 119.848L66.8246 116.173L66.7595 112.233L65.9346 108.429L65.3321 104.586L65.2507 100.684L64.6809 96.8308L64.0459 92.9667L64.5343 89.0591L64.4584 85.1732L64.1219 81.2493L64.5995 77.3689L65.7392 73.6078L69.0606 73.5481L68.9684 77.4177L70.4663 80.9617L71.1827 84.6739L71.9805 88.3698L73.207 91.9518L74.7321 95.4198L76.0129 98.9637L77.4403 102.459L79.1661 105.818L81.2013 108.993L81.7929 109.297L82.0371 113.46L83.6219 117.183L84.7724 121.052L86.7479 124.651L87.7411 128.569L89.1793 132.347L89.5701 136.455L90.8021 140.297L92.3325 144.042L93.342 147.955L95.095 151.624L95.8765 155.613L97.1573 159.445L98.7258 163.184L97.0976 165.349L93.3908 165.865L89.7058 164.942L85.9881 165.002Z" fill="#41B879"/>
<path d="M85.9881 165.002L84.919 164.286L82.7915 160.839L80.854 157.285L79.101 153.637L77.0549 150.126L75.2857 146.474L74.5096 142.414L73.283 138.593L71.7634 134.995L70.7594 131.239L69.7933 127.478L68.4202 123.804L68.2954 119.848L66.8246 116.173L66.7595 112.233L65.9346 108.429L65.3321 104.586L65.2507 100.684L64.6809 96.8308L64.0459 92.9667L64.5343 89.0591L64.4584 85.1732L64.1219 81.2493L64.5995 77.3689L65.7392 73.6078L69.0606 73.5481L68.9684 77.4177L70.4663 80.9617L71.1827 84.6739L71.9805 88.3698L73.207 91.9518L74.7321 95.4198L76.0129 98.9637L77.4403 102.459L79.1661 105.818L81.2013 108.993L81.7929 109.297L82.0371 113.46L83.6219 117.183L84.7724 121.052L86.7479 124.651L87.7411 128.569L89.1793 132.347L89.5701 136.455L90.8021 140.297L92.3325 144.042L93.342 147.955L95.095 151.624L95.8765 155.613L97.1573 159.445L98.7258 163.184L97.0976 165.349L93.3908 165.865L89.7058 164.942L85.9881 165.002Z" stroke="#383839" stroke-width="1.62816" stroke-linecap="round" stroke-linejoin="round"/>
<path d="M90.187 44.9522L90.2087 48.876L89.6008 52.7402L88.5805 56.5773L87.761 60.4306L87.7719 64.3545L87.2834 68.2403L87.3323 72.1642L87.4625 76.0881L87.6742 80.0174L86.6539 83.8761L87.1532 87.8109L86.7353 91.7076L86.0352 95.5989L87.1857 99.5391L86.9741 103.441L86.6376 107.343L85.7041 111.262L87.0066 115.159L86.4856 119.082L87.1966 122.968L86.8492 126.898L87.0066 130.805L87.989 134.648L87.5548 138.62L88.5534 142.436L88.9821 146.322L89.2046 150.267L89.959 154.142L92.4067 157.464L92.575 161.643L94.6481 165.105L96.5857 165.968L100.211 165.203L103.842 165.23L107.478 165.919L111.114 165.317L112.553 163.542L112.916 159.58L112.042 155.77L111.863 151.868L110.957 148.058L110.762 144.162L109.909 140.352L109.92 136.422L108.471 132.694L108.873 128.71L108.281 124.862L106.61 121.167L107.277 117.145L106.811 113.281L106.165 109.444L104.596 105.742L104.813 101.775L104.026 97.9543L103.522 94.0956L102.539 90.3074L101.899 86.4704L100.683 82.7256L101.123 78.6986L99.7226 74.9918L99.1961 71.133L98.2627 67.3503L97.0633 63.6272L96.7593 59.7142L96.6996 55.736L94.7567 52.2029L94.1706 48.3333L93.1828 44.5723L90.187 44.9522Z" fill="#FFF6F0"/>
<path d="M90.187 44.9522L90.2087 48.876L89.6008 52.7402L88.5805 56.5773L87.761 60.4306L87.7719 64.3545L87.2834 68.2403L87.3323 72.1642L87.4625 76.0881L87.6742 80.0174L86.6539 83.8761L87.1532 87.8109L86.7353 91.7076L86.0352 95.5989L87.1857 99.5391L86.9741 103.441L86.6376 107.343L85.7041 111.262L87.0066 115.159L86.4856 119.082L87.1966 122.968L86.8492 126.898L87.0066 130.805L87.989 134.648L87.5548 138.62L88.5534 142.436L88.9821 146.322L89.2046 150.267L89.959 154.142L92.4067 157.464L92.575 161.643L94.6481 165.105L96.5857 165.968L100.211 165.203L103.842 165.23L107.478 165.919L111.114 165.317L112.553 163.542L112.916 159.58L112.042 155.77L111.863 151.868L110.957 148.058L110.762 144.162L109.909 140.352L109.92 136.422L108.471 132.694L108.873 128.71L108.281 124.862L106.61 121.167L107.277 117.145L106.811 113.281L106.165 109.444L104.596 105.742L104.813 101.775L104.026 97.9543L103.522 94.0956L102.539 90.3074L101.899 86.4704L100.683 82.7256L101.123 78.6986L99.7226 74.9918L99.1961 71.133L98.2627 67.3503L97.0633 63.6272L96.7593 59.7142L96.6996 55.736L94.7567 52.2029L94.1706 48.3333L93.1828 44.5723L90.187 44.9522Z" stroke="#383839" stroke-width="1.62816" stroke-linecap="round" stroke-linejoin="round"/>
<path d="M118.309 35.9051L117.386 39.7475L116.274 43.5194L114.694 47.1502L114.298 51.1284L112.388 54.6778L112.22 58.7102L109.962 62.1891L109.853 66.2215L108.828 70.0205L108.339 73.9444L106.299 77.5318L105.474 81.3905L106.043 85.5152L104.345 89.2057L104.909 93.2924L102.999 96.9721L103.227 100.994L102.635 104.88L101.392 108.689L101.17 112.63L101.186 116.597L100.133 120.445L100.236 124.407L100.426 128.368L99.5959 132.26L99.6122 136.205L99.0641 140.124L99.6936 144.08L99.5037 148.01L99.178 151.944L99.3788 155.879L98.9609 159.83L98.9989 163.776L100.888 164.649L104.947 165.089L109.007 165.426L113.066 165.615L117.131 164.546L119.362 163.786L118.542 159.895L118.743 156.042L119.888 152.216L119.416 148.341L118.564 144.449L118.721 140.596L119.4 136.759L119.818 132.911L119.384 129.036L120.181 125.199L120.827 121.357L120.051 117.471L120.881 113.634L121.023 109.775L119.693 105.884L120.181 102.03L120.306 98.1715L120.154 94.3073L120.306 90.4485L121.305 86.6061L121.782 82.7528L121.261 78.8777L121.424 75.019L121.636 71.1602L121.544 67.2961L121.831 63.4373L122.059 59.5731L121.478 55.7035L120.892 51.8394L121.641 47.9806L122.32 44.1219L122.124 40.2577L121.679 36.3989L118.488 35.3352L118.309 35.9051Z" fill="#41B879"/>
<path d="M118.309 35.9051L117.386 39.7475L116.274 43.5194L114.694 47.1502L114.298 51.1284L112.388 54.6778L112.22 58.7102L109.962 62.1891L109.853 66.2215L108.828 70.0205L108.339 73.9444L106.299 77.5318L105.474 81.3905L106.043 85.5152L104.345 89.2057L104.909 93.2924L102.999 96.9721L103.227 100.994L102.635 104.88L101.392 108.689L101.17 112.63L101.186 116.597L100.133 120.445L100.236 124.407L100.426 128.368L99.5959 132.26L99.6122 136.205L99.0641 140.124L99.6936 144.08L99.5037 148.01L99.178 151.944L99.3788 155.879L98.9609 159.83L98.9989 163.776L100.888 164.649L104.947 165.089L109.007 165.426L113.066 165.615L117.131 164.546L119.362 163.786L118.542 159.895L118.743 156.042L119.888 152.216L119.416 148.341L118.564 144.449L118.721 140.596L119.4 136.759L119.818 132.911L119.384 129.036L120.181 125.199L120.827 121.357L120.051 117.471L120.881 113.634L121.023 109.775L119.693 105.884L120.181 102.03L120.306 98.1715L120.154 94.3073L120.306 90.4485L121.305 86.6061L121.782 82.7528L121.261 78.8777L121.424 75.019L121.636 71.1602L121.544 67.2961L121.831 63.4373L122.059 59.5731L121.478 55.7035L120.892 51.8394L121.641 47.9806L122.32 44.1219L122.124 40.2577L121.679 36.3989L118.488 35.3352L118.309 35.9051Z" stroke="#383839" stroke-width="1.62816" stroke-linecap="round" stroke-linejoin="round"/>
<path d="M140.718 61.4562L139.382 64.7288L138.042 68.4248L136.984 72.1913L136.924 76.1965L135.708 79.925L134.427 83.6372L133.19 87.3603L133.25 91.3927L132.772 95.3003L130.992 98.8931L131.019 102.92L129.299 106.524L128.799 110.431L126.764 113.954L127.008 118.046L125.017 121.579L123.882 125.324L123.54 129.275L122.39 133.019L121.402 136.802L120.729 140.666L119.752 144.455L119.133 148.34L117.098 151.83L117.001 155.879L115.969 159.667L113.782 163.054L115.503 165.518L119.009 165.208L122.52 165.767L126.037 165.691L129.554 165.36L131.508 164.839L133.309 161.344L135.176 157.882L136.712 154.267L137.695 150.414L139.209 146.853L140.56 143.201L141.282 139.375L141.939 135.543L142.568 131.728L143.133 127.788L144.788 124.021L144.196 119.902L146.074 116.135L146.639 112.179L146.508 108.147L147.512 104.228L146.497 100.152L147.442 96.2121L147.36 92.2122L146.736 88.2287L147.751 84.218L147.306 80.2344L147.431 76.202L145.694 72.4029L145.303 68.4356L144.663 64.4955L143.789 60.5662L141.57 60.1646L140.718 61.4562Z" fill="#FFF6F0"/>
<path d="M140.718 61.4562L139.382 64.7288L138.042 68.4248L136.984 72.1913L136.924 76.1965L135.708 79.925L134.427 83.6372L133.19 87.3603L133.25 91.3927L132.772 95.3003L130.992 98.8931L131.019 102.92L129.299 106.524L128.799 110.431L126.764 113.954L127.008 118.046L125.017 121.579L123.882 125.324L123.54 129.275L122.39 133.019L121.402 136.802L120.729 140.666L119.752 144.455L119.133 148.34L117.098 151.83L117.001 155.879L115.969 159.667L113.782 163.054L115.503 165.518L119.009 165.208L122.52 165.767L126.037 165.691L129.554 165.36L131.508 164.839L133.309 161.344L135.176 157.882L136.712 154.267L137.695 150.414L139.209 146.853L140.56 143.201L141.282 139.375L141.939 135.543L142.568 131.728L143.133 127.788L144.788 124.021L144.196 119.902L146.074 116.135L146.639 112.179L146.508 108.147L147.512 104.228L146.497 100.152L147.442 96.2121L147.36 92.2122L146.736 88.2287L147.751 84.218L147.306 80.2344L147.431 76.202L145.694 72.4029L145.303 68.4356L144.663 64.4955L143.789 60.5662L141.57 60.1646L140.718 61.4562Z" stroke="#383839" stroke-width="1.62816" stroke-linecap="round" stroke-linejoin="round"/>
<path d="M106.454 163.428L107.854 159.7L107.8 155.781L108.495 151.966L109.645 148.216L110.563 144.444L110.145 140.455L110.432 136.569L112.261 132.954L113.151 129.182L113.287 125.264L113.173 121.286L114.405 117.574L115.355 113.813L115.702 109.9L117.694 106.404L118.014 102.47L119.197 98.7629L121.102 95.3167L122.719 91.8053L123.327 87.7783L126.236 85.0212L129.27 85.7811L129.194 89.7646L128.988 93.7482L129.797 97.6666L129.46 101.65L129.498 105.612L129.742 109.563L129.862 113.52L131.262 117.465L129.742 121.438L130.741 125.405L130.551 129.372L129.579 133.302L129.715 137.274L129.911 141.263L129.721 145.242L128.684 149.106L127.615 152.932L127.588 156.975L126.898 160.948L124.69 164.373L123.262 165.246L119.621 165.263L115.979 165.415L112.332 165.713L108.69 165.946L106.894 163.591L106.454 163.428Z" fill="#89CB9A"/>
<path d="M106.454 163.428L107.854 159.7L107.8 155.781L108.495 151.966L109.645 148.216L110.563 144.444L110.145 140.455L110.432 136.569L112.261 132.954L113.151 129.182L113.287 125.264L113.173 121.286L114.405 117.574L115.355 113.813L115.702 109.9L117.694 106.404L118.014 102.47L119.197 98.7629L121.102 95.3167L122.719 91.8053L123.327 87.7783L126.236 85.0212L129.27 85.7811L129.194 89.7646L128.988 93.7482L129.797 97.6666L129.46 101.65L129.498 105.612L129.742 109.563L129.862 113.52L131.262 117.465L129.742 121.438L130.741 125.405L130.551 129.372L129.579 133.302L129.715 137.274L129.911 141.263L129.721 145.242L128.684 149.106L127.615 152.932L127.588 156.975L126.898 160.948L124.69 164.373L123.262 165.246L119.621 165.263L115.979 165.415L112.332 165.713L108.69 165.946L106.894 163.591L106.454 163.428Z" stroke="#383839" stroke-width="1.62816" stroke-linecap="round" stroke-linejoin="round"/>
<path d="M104.701 164.248L104.012 160.438L103.681 156.579L103.908 152.639L103.322 148.813L101.922 145.111L101.743 141.215L101.575 137.318L100.169 133.633L99.4147 129.839L98.5898 126.056L97.754 122.274L96.8585 118.507L96.115 114.703L94.2263 111.208L94.2155 107.181L92.278 103.74L91.5073 99.9081L90.5413 96.0928L87.6485 93.2055L86.2483 89.553L82.7369 90.2965L82.2865 94.101L81.9337 97.9163L81.9228 101.759L80.9839 105.531L82.1779 109.422L81.9283 113.221L80.6963 117.026L81.0762 120.852L81.5701 124.662L80.9948 128.531L81.8686 132.303L81.9011 136.151L82.0857 140.01L83.8061 143.597L84.2023 147.418L85.749 150.962L86.1506 154.837L87.7734 158.321L88.8534 162.033L90.6715 165.425L92.3919 165.594L95.9576 166.126L99.5287 165.762L103.105 165.463L104.994 164.204L104.701 164.248Z" fill="#89CB9A"/>
<path d="M104.701 164.248L104.012 160.438L103.681 156.579L103.908 152.639L103.322 148.813L101.922 145.111L101.743 141.215L101.575 137.318L100.169 133.633L99.4147 129.839L98.5898 126.056L97.754 122.274L96.8585 118.507L96.115 114.703L94.2263 111.208L94.2155 107.181L92.278 103.74L91.5073 99.9081L90.5413 96.0928L87.6485 93.2055L86.2483 89.553L82.7369 90.2965L82.2865 94.101L81.9337 97.9163L81.9228 101.759L80.9839 105.531L82.1779 109.422L81.9283 113.221L80.6963 117.026L81.0762 120.852L81.5701 124.662L80.9948 128.531L81.8686 132.303L81.9011 136.151L82.0857 140.01L83.8061 143.597L84.2023 147.418L85.749 150.962L86.1506 154.837L87.7734 158.321L88.8534 162.033L90.6715 165.425L92.3919 165.594L95.9576 166.126L99.5287 165.762L103.105 165.463L104.994 164.204L104.701 164.248Z" stroke="#383839" stroke-width="1.62816" stroke-linecap="round" stroke-linejoin="round"/>
<path d="M99.4927 164.969C99.4927 164.969 91.1131 106.241 84.9912 91.2677C84.7524 90.687 83.8677 90.8661 83.9003 91.4902C84.4864 103.794 87.4226 155.363 95.8022 165.322" fill="#89CB9A"/>
<path d="M99.6064 164.948L98.8303 161.208L98.1845 157.453L97.8642 153.654L97.4626 149.86L96.4803 146.153L96.1547 142.349L95.2592 138.631L94.9444 134.821L94.1683 131.087L93.669 127.304L92.8549 123.576L92.0083 119.853L91.5253 116.065L90.4778 112.385L89.8591 108.619L89.197 104.863L88.3558 101.14L87.2378 97.4928L86.0004 93.8891L85.0723 90.1877L83.6992 90.4591L84.2257 94.2527L84.4536 98.0626L84.8064 101.867L84.7413 105.693L85.0506 109.503L85.3599 113.308L85.7616 117.107L86.0329 120.911L86.2392 124.732L87.1455 128.471L87.2378 132.308L87.8673 136.08L88.2635 139.879L89.1536 143.608L89.7831 147.369L90.4561 151.13L91.2865 154.858L92.437 158.506L93.8698 162.044L95.7259 165.382" stroke="#383839" stroke-width="1.62816" stroke-linecap="round" stroke-linejoin="round"/>
<path d="M84.1325 146.37L82.5858 142.685L80.7188 139.19L78.9007 135.663L77.3214 132.015L75.6715 128.395L74.6403 124.542L73.5332 120.732L72.2035 116.987L71.3623 113.107L70.3908 109.259L69.4465 105.4L68.8984 101.471L68.2688 97.5526L67.5578 93.6396L67.4656 89.656L67.0802 85.705L67.1779 81.7269L66.9717 77.7542L67.1616 73.7869" stroke="#363737" stroke-width="1.62816" stroke-miterlimit="10"/>
<path d="M120.076 35.4817L119.094 39.3133L118.741 43.2372L118.117 47.1176L117.878 51.0524L117.363 54.9545L116.684 58.8296L115.811 62.672L115.366 66.5796L115.105 70.5143L114.378 74.384L113.689 78.259L113.249 82.1666L112.576 86.0416L112.158 89.9546L111.409 93.8188L111.16 97.759L110.525 101.645L109.754 105.509L109.445 109.438L109.043 113.357L108.5 117.254L107.621 121.107L107.241 125.025L107.035 128.965L106.47 132.862L105.721 136.732L105.407 140.656L104.891 144.558L104.316 148.449L104.283 152.4L103.523 156.275" stroke="#363737" stroke-width="1.62816" stroke-miterlimit="10"/>
<path d="M127.533 84.728L126.708 88.5379L126.339 92.4021L126.182 96.2934L125.314 100.092L125.037 103.973L124.206 107.777L123.962 111.658L123.485 115.511L122.969 119.359L122.128 123.158L121.601 127.006L121.297 130.886L120.733 134.734L119.979 138.544L119.295 142.37L118.551 146.18L117.819 149.996L117.336 153.86L116.337 157.615L115.181 161.328L114.253 165.083" stroke="#363737" stroke-width="1.62816" stroke-miterlimit="10"/>
<path d="M129.699 134.024L131.468 130.485L132.581 126.67L133.292 122.762L134.198 118.903L134.567 114.942L135.561 111.088L136.228 107.181L136.765 103.251L137.471 99.3492L138.133 95.4361L138.285 91.4526L139.191 87.5721L139.495 83.6102L140.141 79.6972L140.581 75.7571L141.113 71.8278L141.52 67.8822L142.187 63.9746L142.621 60.0344" stroke="#363737" stroke-width="1.62816" stroke-miterlimit="10"/>
<path d="M144.95 66.8074L145.08 70.715L144.738 74.6063L144.836 78.5247L144.548 82.4215L143.935 86.2856L143.408 90.1607L143.495 94.09L142.958 97.9596L142.535 101.84L141.867 105.693L141.666 109.612L140.934 113.454L140.13 117.275L139.257 121.085L138.443 124.9L138.041 128.813L136.956 132.574L135.664 136.265L134.568 140.026L132.695 143.467L131.121 147.043L128.695 150.104" stroke="#363737" stroke-width="1.62816" stroke-miterlimit="10"/>
<path d="M91.8291 45.4133L92.1927 49.2395L92.7192 53.0548L92.958 56.8865L93.1859 60.7181L93.3053 64.5605L93.5224 68.3976L93.7937 72.2292L94.1302 76.0554L94.4776 79.8816L94.521 83.7294L94.8412 87.5611L95.3134 91.3764L95.6878 95.2026L95.9646 99.0396L96.1329 102.882L96.7353 106.681L97.0501 110.513L97.2943 114.355L97.9456 118.143L98.3743 121.959L99.1124 125.725" stroke="#363737" stroke-width="1.62816" stroke-miterlimit="10"/>
<path d="M95.8384 202.732L100.404 205.229L95.6484 207.346" stroke="#F3F2F2" stroke-width="2.17088" stroke-linecap="round" stroke-linejoin="round"/>
<path d="M115.014 202.694L111.024 205.251L115.427 206.988" stroke="#F3F2F2" stroke-width="2.17088" stroke-linecap="round" stroke-linejoin="round"/>
<path d="M100.148 210.781L104.17 210.721L107.817 210.449L111.052 211.236L108.995 213.532L105.983 215.198L102.444 214.075L100.148 210.781Z" stroke="#F3F2F2" stroke-width="2.17088" stroke-linecap="round" stroke-linejoin="round"/>
</svg>
