<svg width="97" height="212" viewBox="0 0 97 212" fill="none" xmlns="http://www.w3.org/2000/svg">
<path d="M83.318 211.368L81.5379 211.444L79.6926 211.211L77.8474 211.612L76.0021 211.309L74.1569 211.173L72.3116 211.417L70.4664 211.227L68.6211 211.113L66.7759 211.493L64.9306 211.661L63.0854 211.254L61.2455 211.754L59.4003 211.536L57.555 211.238L55.7098 211.455L53.8646 211.412L52.0193 211.542L50.1741 211.716L48.3288 211.243L46.4836 211.319L44.6383 211.634L42.793 211.412L40.9478 211.526L39.1025 211.536L37.2573 211.591L35.412 211.379L33.5668 211.39L31.7215 211.629L29.8763 211.243L28.0256 211.531L26.1152 211.488L25.5616 209.621L25.6213 207.694L25.0461 205.887L24.639 204.047L24.6662 202.126L24.0203 200.335L23.9877 198.424L23.2334 196.655L23.1574 194.756L23.0163 192.867L22.5875 191.032L22.2347 189.187L21.6703 187.38L21.3284 185.529L21.1276 183.651L20.6934 181.817L20.2864 179.977L20.091 178.099L19.8088 176.238L19.5103 174.376L19.0056 172.553L18.8427 170.67L18.0178 168.906L17.627 167.06L17.2743 165.21L16.9866 163.343L16.7207 161.416L18.6528 161.536L20.536 161.313L22.4193 161.644L24.3025 161.172L26.1858 161.546L28.069 161.373L29.9523 161.574L31.8355 161.232L33.7187 161.199H35.602L37.4852 161.215L39.3685 161.53L41.2517 161.405L43.1349 161.15L45.0182 161.601L46.9014 161.123L48.7847 161.264L50.6679 161.552L52.5512 161.156L54.4344 161.46L56.3177 161.47L58.2009 161.438L60.0842 161.172L61.9674 161.259L63.8506 161.622L65.7339 161.248L67.6171 161.167L69.5004 161.666L71.3836 161.134L73.2668 161.118L75.1501 161.693L77.0333 161.59L78.9166 161.606L80.7998 161.373L82.683 161.514L84.5663 161.232L86.4495 161.449L88.3382 161.666L90.2594 161.427L90.2323 163.337L89.6082 165.134L89.6896 167.028L89.2717 168.851L88.7995 170.67L88.767 172.547L88.4685 174.393L87.9637 176.205L87.8172 178.067L87.7792 179.945L87.1659 181.741L87.014 183.603L87.1877 185.513L86.862 187.353L86.4658 189.187L86.2379 191.038L86.1782 192.916L85.9665 194.772L85.5595 196.601L85.0982 198.424L85.2013 200.324L84.5663 202.12L84.4957 203.998L83.9965 205.816L84.1104 207.721L83.4103 209.512L83.3072 211.33L83.318 211.368Z" fill="#363737"/>
<path d="M96.6044 161.986L94.77 162.241L92.8976 161.763L91.0252 161.997L89.1528 162.198L87.2804 162.056H85.408L83.5302 161.818L81.6579 161.937L79.7855 161.763L77.9131 162.268L76.0407 162.246L74.1683 162.225L72.2905 162.002L70.4181 161.872L68.5457 161.943L66.6679 162.138L64.7901 162.16H62.9177L61.0453 161.905L59.1675 162.198L57.2897 161.932L55.4118 162.181L53.534 162.154L51.6562 161.883L49.7784 162.355L47.9006 162.268L46.0228 162.105L44.1504 161.915L42.2726 162.078L40.4002 161.845L38.5278 161.981L36.65 162.165L34.7776 161.948L32.8998 162.116L31.0219 162.333L29.1441 161.932L27.2663 162.176L25.3885 162.16L23.5107 162.225L21.6329 162.067L19.7551 161.774L17.8772 161.818L15.9994 161.964L14.1216 162.263L12.2384 162.1L10.4257 161.948L10.1652 160.114L10.6048 158.209L10.4745 156.304L10.6753 154.393L10.4799 152.488L10.176 150.578L10.4528 148.668L10.1055 146.757L10.6211 144.847L10.4637 143.034L12.2384 143.229L14.1108 142.616L15.9831 142.73L17.8555 143.078L19.7279 142.915L21.6003 143.034L23.4781 143.002L25.3505 143.126L27.2229 142.822L29.0953 142.681L30.9677 142.996L32.8455 142.73L34.7233 142.936L36.5957 142.801L38.4681 143.067L40.3405 142.871L42.2183 143.219L44.0907 142.643H45.9631L47.8409 142.953L49.7187 142.714L51.5911 142.741L53.4689 142.66L55.3467 142.888L57.2245 143.023L59.1024 142.866L60.9747 143.045L62.8526 142.947L64.7249 142.649L66.5973 143.126H68.4697L70.3475 143.11L72.2254 143.029L74.1032 143.181L75.981 142.784L77.8588 142.714L79.7366 142.812L81.6144 142.828L83.4922 142.806L85.37 142.736L87.2479 143.018L89.1257 142.752L91.0035 142.898L92.8813 142.752L94.7646 143.099L96.7943 142.79L96.333 144.841L96.5121 146.746L96.3981 148.657L96.6804 150.567L96.9246 152.472L96.9572 154.377L96.371 156.287L96.3439 158.198L96.9897 160.114L96.6152 161.981H96.6044V161.986Z" fill="#363737"/>
<path d="M63.8768 94.9003L61.1252 97.9232L58.3464 100.941L55.1932 103.899L54.6505 107.936L55.5351 111.893L55.1389 115.849L54.9219 119.844L55.4049 123.811L54.9056 127.822L54.9544 131.816L54.4497 135.789L54.987 139.783L54.8079 144.114L50.8406 143.496L47.2369 144.516L43.5898 144.158L40.0025 144.163L36.6593 143.658L37.8044 139.946L36.9198 135.849L37.1966 131.865L36.8004 127.947L36.4693 123.974L36.3554 119.865L34.9443 115.996L32.6377 112.62L30.7816 109.06L28.589 105.646L25.9297 102.574L22.5865 100.235L19.7101 97.4402L17.8268 95.5244L14.9287 93.0062L11.7267 90.7322L9.13787 87.6658L7.79193 83.9156L6.3863 80.2848L4.5953 76.7625L4.38366 72.7898L2.93457 69.007L2.978 65.0235L3.8735 61.1647L4.91552 57.5013L6.08778 53.9139L7.47175 50.3808L9.6589 47.2168L12.3996 44.6768L15.2001 41.9741L19.01 41.3337L22.5648 42.5331L25.2838 44.2372L27.3353 47.3145L27.6935 51.0538L28.5022 54.7009L27.4222 58.3805L28.3882 62.1199L27.3679 65.767L27.433 69.5552L29.072 72.8658L31.6228 75.4546L36.1546 74.4505L38.0486 70.2607L38.5697 65.8864L38.7325 63.1511L37.316 59.4551L35.8723 55.7266L36.2577 51.6454L35.5304 47.7432L34.5589 43.9116L33.772 40.0909L32.7951 36.1887L33.1316 32.254L32.7951 28.3246L33.403 24.4225L32.7571 20.4226L33.2727 16.3902L35.8452 13.1719L37.7936 9.83414L40.0622 6.74605L44.1923 4.86279L48.4798 6.1816L51.8663 8.71613L53.8635 11.9507L55.4103 15.4187L56.029 19.2232L57.223 23.1416L57.6137 27.2283L59.1497 31.0762L59.2039 35.2118L59.052 39.3093L59.6707 43.3851L59.7195 47.4664L60.0885 50.8096L62.2432 54.1365L63.7194 51.6942L64.3381 47.4338L65.798 43.3363L68.5062 39.9063L72.6851 39.6512L75.4204 42.6688L77.5642 46.5167L78.0363 50.9561L77.2711 54.8637L76.8261 58.7279L76.609 62.63L75.9903 66.4508L75.2196 70.2933L72.951 73.7124L73.0867 77.8045L71.8113 81.4896L70.0801 84.9902L67.8169 88.1759L65.646 91.3834L63.7248 94.6452L63.8768 94.9003Z" fill="#41B879"/>
<path d="M63.8768 94.9003L61.1252 97.9232L58.3464 100.941L55.1932 103.899L54.6505 107.936L55.5351 111.893L55.1389 115.849L54.9219 119.844L55.4049 123.811L54.9056 127.822L54.9544 131.816L54.4497 135.789L54.987 139.783L54.8079 144.114L50.8406 143.496L47.2369 144.516L43.5898 144.158L40.0025 144.163L36.6593 143.658L37.8044 139.946L36.9198 135.849L37.1966 131.865L36.8004 127.947L36.4693 123.974L36.3554 119.865L34.9443 115.996L32.6377 112.62L30.7816 109.06L28.589 105.646L25.9297 102.574L22.5865 100.235L19.7101 97.4402L17.8268 95.5244L14.9287 93.0062L11.7267 90.7322L9.13787 87.6658L7.79193 83.9156L6.3863 80.2848L4.5953 76.7625L4.38366 72.7898L2.93457 69.007L2.978 65.0235L3.8735 61.1647L4.91552 57.5013L6.08778 53.9139L7.47175 50.3808L9.65889 47.2168L12.3996 44.6768L15.2001 41.9741L19.01 41.3337L22.5648 42.5331L25.2838 44.2372L27.3353 47.3145L27.6935 51.0538L28.5022 54.7009L27.4222 58.3805L28.3882 62.1199L27.3679 65.767L27.433 69.5552L29.072 72.8658L31.6228 75.4546L36.1546 74.4505L38.0486 70.2607L38.5697 65.8864L38.7325 63.1511L37.316 59.4551L35.8723 55.7266L36.2577 51.6454L35.5304 47.7432L34.5589 43.9116L33.772 40.0908L32.7951 36.1887L33.1316 32.254L32.7951 28.3246L33.403 24.4225L32.7571 20.4226L33.2727 16.3902L35.8452 13.1719L37.7936 9.83414L40.0622 6.74605L44.1923 4.86279L48.4798 6.1816L51.8663 8.71613L53.8635 11.9507L55.4103 15.4187L56.029 19.2232L57.223 23.1416L57.6137 27.2283L59.1496 31.0762L59.2039 35.2118L59.052 39.3093L59.6707 43.3851L59.7195 47.4664L60.0885 50.8096L62.2432 54.1365L63.7194 51.6942L64.3381 47.4339L65.798 43.3363L68.5062 39.9063L72.6851 39.6512L75.4204 42.6688L77.5642 46.5167L78.0363 50.9561L77.2711 54.8637L76.8261 58.7279L76.609 62.63L75.9903 66.4508L75.2196 70.2933L72.951 73.7124L73.0867 77.8045L71.8113 81.4896L70.0801 84.9902L67.8169 88.1759L65.646 91.3834L63.7248 94.6452L63.8768 94.9003Z" stroke="#383839" stroke-width="1.62816" stroke-linecap="round" stroke-linejoin="round"/>
<path d="M64.4091 143.561L68.0616 144.217L71.7142 143.333L75.3721 143.908L79.144 144.087L80.1318 139.935L80.6745 135.968L82.3135 132.24L82.6989 128.251L83.3881 124.31L83.1113 120.283L83.2198 116.321L82.9377 112.381L83.2578 108.295L81.7437 104.528L79.3882 101.011L75.6272 98.9001L71.356 99.4211L68.9951 102.037L66.6397 104.62L65.8691 108.056L65.6411 111.573L64.1486 115.437L64.192 119.534L63.9315 123.572L63.9424 127.616L63.2314 131.653L63.3943 135.713L64.0347 139.734L64.5231 143.751L64.4091 143.561Z" fill="#89CB9A"/>
<path d="M64.4091 143.561L68.0616 144.217L71.7142 143.333L75.3721 143.908L79.144 144.087L80.1318 139.935L80.6745 135.968L82.3135 132.24L82.6989 128.251L83.3881 124.31L83.1113 120.283L83.2198 116.321L82.9377 112.381L83.2578 108.295L81.7437 104.528L79.3882 101.011L75.6272 98.9001L71.356 99.4211L68.9951 102.037L66.6397 104.62L65.8691 108.056L65.6411 111.573L64.1486 115.437L64.192 119.534L63.9315 123.572L63.9424 127.616L63.2314 131.653L63.3943 135.713L64.0347 139.734L64.5231 143.751L64.4091 143.561Z" stroke="#383839" stroke-width="1.62816" stroke-linecap="round" stroke-linejoin="round"/>
<path d="M0.811523 84.2086L4.27409 84.7405L7.74209 85.0662L11.21 84.0513L14.6835 84.9413" stroke="#383839" stroke-width="1.62816" stroke-linecap="round" stroke-linejoin="round"/>
<path d="M12.3789 58.8147L13.4155 62.6734L15.5972 65.9406L17.5619 69.3218" stroke="#383839" stroke-width="1.62816" stroke-linecap="round" stroke-linejoin="round"/>
<path d="M20.9985 33.8875L19.6796 37.1058L19.2129 40.5467L17.7964 43.7379L17.6064 47.2547" stroke="#383839" stroke-width="1.62816" stroke-linecap="round" stroke-linejoin="round"/>
<path d="M19.8682 79.8994L22.7229 81.8478L25.1597 84.2466" stroke="#383839" stroke-width="1.62816" stroke-linecap="round" stroke-linejoin="round"/>
<path d="M18.8643 91.0088L22.0175 92.2353L24.6497 94.3574L27.7432 95.6871" stroke="#383839" stroke-width="1.62816" stroke-linecap="round" stroke-linejoin="round"/>
<path d="M20.9863 107.763L24.3023 104.349L28.0037 101.353" stroke="#383839" stroke-width="1.62816" stroke-linecap="round" stroke-linejoin="round"/>
<path d="M34.9082 107.551L38.1157 109.64L41.4805 111.453" stroke="#383839" stroke-width="1.62816" stroke-linecap="round" stroke-linejoin="round"/>
<path d="M32.8604 131.29L35.0964 134.334L37.4518 137.292" stroke="#383839" stroke-width="1.62816" stroke-linecap="round" stroke-linejoin="round"/>
<path d="M42.0918 126.514L44.0239 130.823L46.8026 134.6" stroke="#383839" stroke-width="1.62816" stroke-linecap="round" stroke-linejoin="round"/>
<path d="M48.0309 97.2178L48.1395 100.729L47.6348 104.246L48.0635 107.768L48.1992 111.285" stroke="#383839" stroke-width="1.62816" stroke-linecap="round" stroke-linejoin="round"/>
<path d="M43.974 89.994L43.1599 86.602L41.0379 83.8884L39.6865 80.7732" stroke="#383839" stroke-width="1.62816" stroke-linecap="round" stroke-linejoin="round"/>
<path d="M29.436 62.8472L28.1063 66.3206L26.4184 69.6203L25.002 73.0558" stroke="#383839" stroke-width="1.62816" stroke-linecap="round" stroke-linejoin="round"/>
<path d="M32.8584 49.979C33.3794 50.6303 41.5799 55.9381 41.5799 55.9381L32.8584 49.979Z" fill="#41B879"/>
<path d="M32.4492 50.3049L35.6079 52.1882L38.468 54.2505L41.6484 55.8299" stroke="#383839" stroke-width="1.62816" stroke-linecap="round" stroke-linejoin="round"/>
<path d="M52.2748 60.3669L51.1677 64.877L51.1025 69.5226" stroke="#383839" stroke-width="1.62816" stroke-linecap="round" stroke-linejoin="round"/>
<path d="M68.0353 54.397L67.0367 58.0386L65.4954 61.4578L64.1494 64.9583" stroke="#383839" stroke-width="1.62816" stroke-linecap="round" stroke-linejoin="round"/>
<path d="M63.026 81.9673L61.0885 84.7243L58.9664 87.3294L56.5459 89.6739" stroke="#383839" stroke-width="1.62816" stroke-linecap="round" stroke-linejoin="round"/>
<path d="M34.7666 25.9746C35.4233 27.1089 43.2385 32.4113 43.2385 32.4113L34.7666 25.9746Z" fill="#41B879"/>
<path d="M34.6182 26.0562L37.1744 28.6504L40.0888 30.7073L43.4211 32.1401" stroke="#383839" stroke-width="1.62816" stroke-linecap="round" stroke-linejoin="round"/>
<path d="M53.9829 34.707L53.0223 38.5441L51.4973 42.1098L48.9248 45.1436" stroke="#383839" stroke-width="1.62816" stroke-linecap="round" stroke-linejoin="round"/>
<path d="M54.5444 6.23047L53.5567 9.55735L51.744 12.5369L50.9136 15.9398L49.3506 19.0224" stroke="#383839" stroke-width="1.62816" stroke-linecap="round" stroke-linejoin="round"/>
<path d="M37.0127 4.08667L38.0493 7.95628L38.4672 11.9507L39.2324 15.8746" stroke="#383839" stroke-width="1.62816" stroke-linecap="round" stroke-linejoin="round"/>
<path d="M29.3066 12.6616L32.2862 15.2558L35.1355 17.9857L37.4203 21.2855" stroke="#383839" stroke-width="1.62816" stroke-linecap="round" stroke-linejoin="round"/>
<path d="M66.3857 30.8428L67.7425 34.7938L69.0885 38.7557L70.1088 42.8369" stroke="#383839" stroke-width="1.62816" stroke-linecap="round" stroke-linejoin="round"/>
<path d="M82.069 55.656L79.2523 58.82L76.2402 61.7996L73.3203 64.866" stroke="#383839" stroke-width="1.62816" stroke-linecap="round" stroke-linejoin="round"/>
<path d="M76.119 84.1272L72.803 84.6319L69.4869 84.1923L66.1709 84.735" stroke="#383839" stroke-width="1.62816" stroke-linecap="round" stroke-linejoin="round"/>
<path d="M57.1857 128.12C56.0189 128.581 50.6514 137.563 50.6514 137.563L57.1857 128.12Z" fill="#41B879"/>
<path d="M57.3659 128.571L55.0322 131.257L52.4108 134.133L50.8369 137.672" stroke="#383839" stroke-width="1.62816" stroke-linecap="round" stroke-linejoin="round"/>
<path d="M59.542 140.706L63.2813 140.011L66.8307 138.557" stroke="#383839" stroke-width="1.62816" stroke-linecap="round" stroke-linejoin="round"/>
<path d="M72.8717 131.534L72.1607 135.328L70.5488 138.861" stroke="#383839" stroke-width="1.62816" stroke-linecap="round" stroke-linejoin="round"/>
<path d="M60.708 117.119L63.845 120.229L65.815 124.234" stroke="#383839" stroke-width="1.62816" stroke-linecap="round" stroke-linejoin="round"/>
<path d="M75.0866 117.743L74.1477 121.103L73.3662 124.511" stroke="#383839" stroke-width="1.62816" stroke-linecap="round" stroke-linejoin="round"/>
<path d="M87.616 116.68L84.9241 119.192L82.471 121.955L79.6543 124.343" stroke="#383839" stroke-width="1.62816" stroke-linecap="round" stroke-linejoin="round"/>
<path d="M83.6811 97.5977L82.2971 100.805L80.5875 103.806L78.7803 106.753" stroke="#383839" stroke-width="1.62816" stroke-linecap="round" stroke-linejoin="round"/>
<path d="M70.8951 95.3345L70.8408 98.9653L72.3007 102.298L72.6318 105.858" stroke="#383839" stroke-width="1.62816" stroke-linecap="round" stroke-linejoin="round"/>
<path d="M60.9287 187.412L64.0439 184.666L60.9287 181.963L58.1445 184.666L60.9287 187.412Z" fill="#F3F2F2"/>
<path d="M59.0761 190.967L58.6202 192.742L57.9744 194.457L56.5199 195.575L55.0491 196.736L53.1713 196.59L51.3641 196.546L49.8661 195.521L48.6233 194.278L47.4022 192.845L47.2773 190.967" stroke="#F3F2F2" stroke-width="2.17088" stroke-linecap="round" stroke-linejoin="round"/>
<path d="M43.1953 182.962L47.7551 184.775L43.483 187.169" stroke="#F3F2F2" stroke-width="2.17088" stroke-linecap="round" stroke-linejoin="round"/>
</svg>
