<svg width="134" height="230" viewBox="0 0 134 230" fill="none" xmlns="http://www.w3.org/2000/svg">
<path d="M49.1923 141.501L46.2226 143.61L42.9217 144.93L39.7703 146.671L36.2397 147.296L32.7626 148.183L27.7578 149.262L30.4925 146.66L33.4676 143.979L37.0943 142.275L41.1217 141.987L44.9941 141.624L48.9466 141.18L49.1923 141.501Z" fill="#89CB9A"/>
<path d="M49.1923 141.501L46.2226 143.61L42.9217 144.93L39.7703 146.671L36.2397 147.296L32.7626 148.183L27.7578 149.262L30.4925 146.66L33.4676 143.979L37.0943 142.275L41.1217 141.987L44.9941 141.624L48.9466 141.18L49.1923 141.501Z" stroke="#383839" stroke-width="1.62816" stroke-linecap="round" stroke-linejoin="round"/>
<path d="M44.5894 132.682L42.3087 135.348L39.2054 137.105L35.6749 137.708L32.3312 138.948L28.7953 139.621L24.4102 140.443L27.0167 137.65L30.1146 135.353L33.5918 133.665L37.4962 133.526L41.1871 132.282L44.942 132.661L44.5894 132.682Z" fill="#89CB9A"/>
<path d="M44.5894 132.682L42.3087 135.348L39.2054 137.105L35.6749 137.708L32.3312 138.948L28.7953 139.621L24.4102 140.443L27.0167 137.65L30.1146 135.353L33.5918 133.665L37.4962 133.526L41.1871 132.282L44.942 132.661L44.5894 132.682Z" stroke="#383839" stroke-width="1.62816" stroke-linecap="round" stroke-linejoin="round"/>
<path d="M38.1546 126.492L34.9446 128.249L32.0336 130.46L28.6365 131.881L25.0152 132.549L21.351 132.709L16.9766 133.911L19.6953 131.053L22.9801 129.034L26.3932 127.154L30.2763 126.759L34.0953 125.803L38.0104 126.161L38.1546 126.492Z" fill="#89CB9A"/>
<path d="M38.1546 126.492L34.9446 128.249L32.0336 130.46L28.6365 131.881L25.0152 132.549L21.351 132.709L16.9766 133.911L19.6953 131.053L22.9801 129.034L26.3932 127.154L30.2763 126.759L34.0953 125.803L38.0104 126.161L38.1546 126.492Z" stroke="#383839" stroke-width="1.62816" stroke-linecap="round" stroke-linejoin="round"/>
<path d="M33.2915 118.17L30.9254 121.204L27.2292 122.411L23.517 123.239L19.869 124.339L16.1087 125.055L12.0547 125.792L15.158 123.33L18.3414 121.022L22.0001 119.585L25.8725 119.003L29.6755 117.748L33.612 118.523L33.2915 118.17Z" fill="#89CB9A"/>
<path d="M33.2915 118.17L30.9254 121.204L27.2292 122.411L23.517 123.239L19.869 124.339L16.1087 125.055L12.0547 125.792L15.158 123.33L18.3414 121.022L22.0001 119.585L25.8725 119.003L29.6755 117.748L33.612 118.523L33.2915 118.17Z" stroke="#383839" stroke-width="1.62816" stroke-linecap="round" stroke-linejoin="round"/>
<path d="M29.9805 112.572L26.5621 113.918L23.2879 115.606L20.1045 115.884L16.7662 116.664L13.4279 116.712L10.2285 116.012L12.9312 114.105L16.4244 113.042L19.8054 112.006L23.2452 110.97L26.9146 111.029L29.9324 113.235L29.9805 112.572Z" fill="#89CB9A"/>
<path d="M29.9805 112.572L26.5621 113.918L23.2879 115.606L20.1045 115.884L16.7662 116.664L13.4279 116.712L10.2285 116.012L12.9312 114.105L16.4244 113.042L19.8054 112.006L23.2452 110.97L26.9146 111.029L29.9324 113.235L29.9805 112.572Z" stroke="#383839" stroke-width="1.62816" stroke-linecap="round" stroke-linejoin="round"/>
<path d="M30.4316 94.802L32.0607 98.3433L32.7657 102.055L33.0648 105.901L32.6002 109.736L31.8097 113.165L29.4648 108.155L29.812 104.507L30.0684 99.6359L30.4316 94.802Z" fill="#89CB9A"/>
<path d="M30.4316 94.802L32.0607 98.3433L32.7657 102.055L33.0648 105.901L32.6002 109.736L31.8097 113.165L29.4648 108.155L29.812 104.507L30.0684 99.6359L30.4316 94.802Z" stroke="#383839" stroke-width="1.62816" stroke-linecap="round" stroke-linejoin="round"/>
<path d="M42.826 101.965L42.9595 105.917L41.026 109.17L39.5838 112.594L36.8811 115.152L34.8942 117.844L34.6592 114.693L35.7488 111.59L36.9666 109.256L39.7013 105.725L42.4147 102.227L42.826 101.965Z" fill="#89CB9A"/>
<path d="M42.826 101.965L42.9595 105.917L41.026 109.17L39.5838 112.594L36.8811 115.152L34.8942 117.844L34.6592 114.693L35.7488 111.59L36.9666 109.256L39.7013 105.725L42.4147 102.227L42.826 101.965Z" stroke="#383839" stroke-width="1.62816" stroke-linecap="round" stroke-linejoin="round"/>
<path d="M49.1675 108.999L48.4037 112.717L46.6945 116.333L45.0173 120.103L41.8233 122.742L39.2915 125.909L38.8535 122.267L40.1728 118.8L42.8381 116.327L45.2577 114.063L47.0203 111.178L49.1675 108.999Z" fill="#89CB9A"/>
<path d="M49.1675 108.999L48.4037 112.717L46.6945 116.333L45.0173 120.103L41.8233 122.742L39.2915 125.909L38.8535 122.267L40.1728 118.8L42.8381 116.327L45.2577 114.063L47.0203 111.178L49.1675 108.999Z" stroke="#383839" stroke-width="1.62816" stroke-linecap="round" stroke-linejoin="round"/>
<path d="M59.5272 118.063L57.7272 121.994L55.5106 125.974L51.5153 128.163L48.8287 129.819L46.3076 131.849L46.8738 128.404L48.6097 125.488L51.3551 123.436L54.6987 122.528L57.2839 120.29L59.3563 118.052L59.5272 118.063Z" fill="#89CB9A"/>
<path d="M59.5272 118.063L57.7272 121.994L55.5106 125.974L51.5153 128.163L48.8287 129.819L46.3076 131.849L46.8738 128.404L48.6097 125.488L51.3551 123.436L54.6987 122.528L57.2839 120.29L59.3563 118.052L59.5272 118.063Z" stroke="#383839" stroke-width="1.62816" stroke-linecap="round" stroke-linejoin="round"/>
<path d="M62.4259 127.512L61.0692 131.208L59.3813 134.701L56.5665 137.42L53.0306 139.108L49.2383 141.196L50.7125 137.634L53.3457 134.402L56.1072 131.796L59.6537 130.252L62.4259 127.512Z" fill="#89CB9A"/>
<path d="M62.4259 127.512L61.0692 131.208L59.3813 134.701L56.5665 137.42L53.0306 139.108L49.2383 141.196L50.7125 137.634L53.3457 134.402L56.1071 131.796L59.6537 130.252L62.4259 127.512Z" stroke="#383839" stroke-width="1.62816" stroke-linecap="round" stroke-linejoin="round"/>
<path d="M56.1158 162.374L51.6398 162.577L50.7799 158.534L49.8986 154.736L48.9051 150.955L48.0184 147.13L46.4908 143.525L45.1235 139.85L43.5852 136.245L41.7104 132.8L39.8036 129.376L37.9502 125.915L35.6374 122.742L33.2071 119.666L31.0119 116.413L28.384 113.507L25.8629 110.505L23.1709 107.76L24.6825 106.376L27.8285 108.876L30.5472 111.6L32.9507 114.607L35.4184 117.534L37.8113 120.525L40.076 123.618L42.127 126.855L43.9965 130.204L46.1383 133.409L47.7087 136.918L49.2897 140.422L50.9668 143.888L51.9282 147.627L53.0392 151.302L54.2303 154.95L55.3093 158.635L56.1158 162.374Z" fill="#FFF6F0"/>
<path d="M56.1158 162.374L51.6398 162.577L50.7799 158.534L49.8986 154.736L48.9051 150.955L48.0184 147.13L46.4908 143.525L45.1235 139.85L43.5852 136.245L41.7104 132.8L39.8036 129.376L37.9502 125.915L35.6374 122.742L33.2071 119.666L31.0119 116.413L28.384 113.507L25.8629 110.505L23.1709 107.76L24.6825 106.376L27.8285 108.876L30.5472 111.6L32.9507 114.607L35.4184 117.534L37.8113 120.525L40.076 123.618L42.127 126.855L43.9965 130.204L46.1383 133.409L47.7087 136.918L49.2897 140.422L50.9668 143.888L51.9282 147.627L53.0392 151.302L54.2303 154.95L55.3093 158.635L56.1158 162.374Z" stroke="#383839" stroke-width="1.62816" stroke-linecap="round" stroke-linejoin="round"/>
<path d="M26.1234 110.126L25.6053 106.328L24.1418 103.086L21.5086 100.709L19.1691 97.948L15.7614 96.7409L13.0801 95.021L15.4516 98.7973L17.0807 103.166L20.7822 106.232L23.5062 107.963L26.1234 110.126Z" fill="#89CB9A"/>
<path d="M26.1234 110.126L25.6053 106.328L24.1418 103.086L21.5086 100.709L19.1691 97.948L15.7614 96.7409L13.0801 95.021L15.4516 98.7973L17.0807 103.166L20.7822 106.232L23.5062 107.963L26.1234 110.126Z" stroke="#383839" stroke-width="1.62816" stroke-linecap="round" stroke-linejoin="round"/>
<path d="M93.5153 229.615L91.7633 229.69L89.9473 229.46L88.1313 229.856L86.3152 229.557L84.4992 229.423L82.6832 229.663L80.8671 229.477L79.0511 229.364L77.2351 229.738L75.4191 229.904L73.6031 229.503L71.7924 229.995L69.9763 229.781L68.1603 229.487L66.3443 229.701L64.5282 229.658L62.7122 229.786L60.8962 229.957L59.0802 229.493L57.2641 229.567L55.4481 229.877L53.6321 229.658L51.816 229.77L50 229.781L48.184 229.834L46.368 229.626L44.5519 229.637L42.7359 229.872L40.9199 229.493L39.0985 229.776L37.2184 229.733L36.6736 227.896L36.7323 225.999L36.1662 224.221L35.7656 222.41L35.7923 220.519L35.1567 218.757L35.1246 216.876L34.3822 215.135L34.3074 213.266L34.1685 211.407L33.7465 209.602L33.3994 207.786L32.8439 206.007L32.5074 204.186L32.3098 202.338L31.8825 200.532L31.4819 198.722L31.2896 196.873L31.0118 195.041L30.7181 193.209L30.2213 191.415L30.0611 189.561L29.2492 187.825L28.8646 186.009L28.5175 184.188L28.2344 182.351L27.9727 180.454L29.8741 180.572L31.7276 180.353L33.581 180.679L35.4344 180.214L37.2878 180.583L39.1412 180.412L40.9946 180.609L42.8481 180.273L44.7015 180.241H46.5549L48.4083 180.257L50.2617 180.567L52.1152 180.444L53.9686 180.193L55.822 180.636L57.6754 180.166L59.5288 180.305L61.3822 180.588L63.2357 180.198L65.0891 180.497L66.9425 180.508L68.7959 180.476L70.6493 180.214L72.5028 180.3L74.3562 180.657L76.2096 180.289L78.063 180.209L79.9164 180.7L81.7698 180.177L83.6232 180.161L85.4767 180.727L87.3301 180.625L89.1835 180.641L91.0369 180.412L92.8903 180.551L94.7438 180.273L96.5972 180.486L98.4559 180.7L100.347 180.465L100.32 182.345L99.7058 184.113L99.7859 185.977L99.3746 187.772L98.9099 189.561L98.8779 191.409L98.5841 193.225L98.0874 195.009L97.9432 196.841L97.9058 198.689L97.3022 200.457L97.1527 202.289L97.3236 204.17L97.0031 205.98L96.6132 207.786L96.3889 209.607L96.3301 211.455L96.1218 213.282L95.7212 215.082L95.2672 216.876L95.3687 218.746L94.7438 220.514L94.6743 222.362L94.1829 224.151L94.2951 226.026L93.6061 227.789L93.5046 229.578L93.5153 229.615Z" fill="#363737"/>
<path d="M106.587 181.01L104.782 181.261L102.939 180.791L101.096 181.021L99.2535 181.218L97.4107 181.079H95.568L93.7199 180.844L91.8772 180.962L90.0344 180.791L88.1917 181.288L86.349 181.266L84.5063 181.245L82.6582 181.026L80.8154 180.898L78.9727 180.967L77.1246 181.16L75.2765 181.181H73.4338L71.5911 180.93L69.743 181.218L67.8949 180.957L66.0468 181.202L64.1988 181.176L62.3507 180.908L60.5026 181.373L58.6545 181.288L56.8065 181.127L54.9637 180.941L53.1157 181.101L51.2729 180.871L49.4302 181.005L47.5821 181.186L45.7394 180.973L43.8913 181.138L42.0432 181.352L40.1951 180.957L38.3471 181.197L36.499 181.181L34.6509 181.245L32.8028 181.09L30.9548 180.802L29.1067 180.844L27.2586 180.989L25.4105 181.282L23.5571 181.122L21.7731 180.973L21.5168 179.167L21.9494 177.292L21.8212 175.418L22.0188 173.538L21.8265 171.663L21.5274 169.783L21.7998 167.903L21.458 166.022L21.9654 164.142L21.8105 162.358L23.5571 162.551L25.3999 161.947L27.2426 162.059L29.0853 162.401L30.9281 162.241L32.7708 162.358L34.6189 162.326L36.4616 162.449L38.3043 162.15L40.1471 162.011L41.9898 162.321L43.8379 162.059L45.686 162.262L47.5287 162.129L49.3714 162.39L51.2142 162.198L53.0622 162.54L54.905 161.974H56.7477L58.5958 162.278L60.4439 162.043L62.2866 162.07L64.1347 161.99L65.9827 162.214L67.8308 162.348L69.6789 162.193L71.5216 162.369L73.3697 162.273L75.2124 161.979L77.0552 162.449H78.8979L80.746 162.433L82.5941 162.353L84.4421 162.503L86.2902 162.113L88.1383 162.043L89.9864 162.139L91.8344 162.155L93.6825 162.134L95.5306 162.065L97.3787 162.342L99.2268 162.081L101.075 162.225L102.923 162.081L104.776 162.422L106.774 162.118L106.32 164.137L106.496 166.012L106.384 167.892L106.662 169.772L106.902 171.647L106.934 173.522L106.357 175.402L106.331 177.282L106.966 179.167L106.598 181.005H106.587V181.01Z" fill="#363737"/>
<path d="M73.8242 40.7753L75.7845 37.3996L78.8931 35.012L82.4023 33.3403L86.2053 32.6726L89.9388 31.7485L93.7632 32.2934L97.6462 32.0156L101.684 33.4844L97.251 34.7503L93.4801 37.0898L89.6023 39.2049L84.3465 40.583L80.8159 40.2305L77.296 40.0756L73.8402 41.2453L73.8242 40.7753Z" fill="#41B879"/>
<path d="M73.8242 40.7753L75.7845 37.3996L78.8931 35.012L82.4023 33.3403L86.2053 32.6726L89.9388 31.7485L93.7632 32.2934L97.6462 32.0156L101.684 33.4844L97.251 34.7503L93.4801 37.0898L89.6023 39.2049L84.3465 40.583L80.8159 40.2305L77.296 40.0756L73.8402 41.2453L73.8242 40.7753Z" stroke="#383839" stroke-width="1.62816" stroke-linecap="round" stroke-linejoin="round"/>
<path d="M72.5029 48.7122L76.2205 46.7306L79.7457 44.9573L83.4792 43.4351L87.4798 43.0024L91.4965 42.9116L95.4116 43.8356L99.2253 44.9092L102.969 45.7264L99.471 46.4903L96.0152 47.6333L92.4151 48.2422L88.954 49.3906L83.7463 50.2398L80.1089 49.2357L76.3486 49.1235L72.5029 48.7122Z" fill="#41B879"/>
<path d="M72.5029 48.7122L76.2205 46.7306L79.7457 44.9573L83.4792 43.4351L87.4798 43.0024L91.4965 42.9116L95.4116 43.8356L99.2253 44.9092L102.969 45.7264L99.471 46.4903L96.0152 47.6333L92.4151 48.2422L88.954 49.3906L83.7463 50.2398L80.1089 49.2357L76.3486 49.1235L72.5029 48.7122Z" stroke="#383839" stroke-width="1.62816" stroke-linecap="round" stroke-linejoin="round"/>
<path d="M70.1953 58.9514L73.6725 56.6066L77.0054 54.4861L80.9633 54.1122L84.7663 53.2256H88.6814L92.6179 53.3805L96.5277 54.0054L99.9408 55.0416L96.469 56.6119L92.6393 57.4238L88.9859 58.8927L85.247 60.0464L80.803 59.8861L77.2778 59.8701L73.806 59.571L70.1953 58.9514Z" fill="#41B879"/>
<path d="M70.1953 58.9514L73.6725 56.6066L77.0054 54.4861L80.9633 54.1122L84.7663 53.2256H88.6814L92.6179 53.3805L96.5277 54.0054L99.9408 55.0416L96.469 56.6119L92.6393 57.4238L88.9859 58.8927L85.247 60.0464L80.803 59.8861L77.2778 59.8701L73.806 59.571L70.1953 58.9514Z" stroke="#383839" stroke-width="1.62816" stroke-linecap="round" stroke-linejoin="round"/>
<path d="M69.8792 68.0102L72.6834 65.2701L76.1071 63.2298L79.9315 62.06L83.9054 61.7502L87.8526 61.8624L91.7303 62.5621L95.5707 63.3633L99.4591 64.7147L95.5707 65.0351L92.2484 67.0755L88.5523 67.8393L84.9309 68.8702L81.0638 69.0144L77.3356 68.3948L73.5807 68.0156L69.7617 68.4215L69.8792 68.0102Z" fill="#41B879"/>
<path d="M69.8792 68.0102L72.6834 65.2701L76.1071 63.2298L79.9315 62.06L83.9054 61.7502L87.8526 61.8624L91.7303 62.5621L95.5707 63.3633L99.4591 64.7147L95.5707 65.0351L92.2484 67.0755L88.5523 67.8393L84.9309 68.8702L81.0638 69.0144L77.3356 68.3948L73.5807 68.0156L69.7617 68.4215L69.8792 68.0102Z" stroke="#383839" stroke-width="1.62816" stroke-linecap="round" stroke-linejoin="round"/>
<path d="M68.1953 76.2839L71.4642 74.4252L75.0802 73.1165L78.7229 71.7705L82.6114 71.7812L86.4571 71.3379L90.3669 71.3913L94.0256 72.8121L97.8233 74.0459L94.047 75.3225L90.2227 76.2839L86.5212 77.6727L82.6915 78.6287L79.7965 78.7836L75.7532 78.6875L71.7686 77.9611L68.1953 76.2839Z" fill="#41B879"/>
<path d="M68.1953 76.2839L71.4642 74.4252L75.0802 73.1165L78.7229 71.7705L82.6114 71.7812L86.4571 71.3379L90.3669 71.3913L94.0256 72.8121L97.8233 74.0459L94.047 75.3225L90.2227 76.2839L86.5212 77.6727L82.6915 78.6287L79.7965 78.7836L75.7532 78.6875L71.7686 77.9611L68.1953 76.2839Z" stroke="#383839" stroke-width="1.62816" stroke-linecap="round" stroke-linejoin="round"/>
<path d="M67.8125 88.2162L71.2683 86.1705L74.8469 84.6482L78.5377 83.2809L82.4476 82.5544L86.4108 82.8909L90.3259 83.4037L94.2838 83.6334L98.0547 84.4559L94.6844 85.7752L91.3087 87.2174L87.7087 87.9758L84.1033 88.7183L80.5033 89.9468L76.3532 89.5248L72.1923 89.2043L68.0849 88.3283L67.8125 88.2162Z" fill="#41B879"/>
<path d="M67.8125 88.2162L71.2683 86.1705L74.8469 84.6482L78.5377 83.2809L82.4476 82.5544L86.4108 82.8909L90.3259 83.4037L94.2838 83.6334L98.0547 84.4559L94.6844 85.7752L91.3087 87.2174L87.7087 87.9758L84.1033 88.7183L80.5033 89.9468L76.3532 89.5248L72.1923 89.2043L68.0849 88.3283L67.8125 88.2162Z" stroke="#383839" stroke-width="1.62816" stroke-linecap="round" stroke-linejoin="round"/>
<path d="M66.9326 96.7301L70.4579 95.2185L74.1647 94.2037L77.9784 93.52L81.808 94.1449L85.5843 94.6898L89.179 95.977L92.8965 97.7076L88.7089 98.1242L84.5588 98.1295L80.4834 98.6904L78.6513 99.342L74.8377 98.028L70.8745 97.4458L67.0181 96.2975L66.9326 96.7301Z" fill="#41B879"/>
<path d="M66.9326 96.7301L70.4579 95.2185L74.1647 94.2037L77.9784 93.52L81.808 94.1449L85.5843 94.6898L89.179 95.977L92.8965 97.7075L88.7089 98.1242L84.5588 98.1295L80.4834 98.6904L78.6513 99.342L74.8377 98.028L70.8745 97.4458L67.0181 96.2975L66.9326 96.7301Z" stroke="#383839" stroke-width="1.62816" stroke-linecap="round" stroke-linejoin="round"/>
<path d="M64.7746 16.825L63.8506 20.5532L64.4542 24.3455L65.5918 27.9615L67.0553 31.4226L69.3414 34.4084L71.2108 37.6559L73.2672 40.5455L74.0631 37.971L74.6827 35.1081L73.5076 31.5882L71.3497 28.7413L69.3841 25.9104L67.7444 22.8713L65.5171 20.1739L65.1325 16.9158L64.7746 16.825Z" fill="#41B879"/>
<path d="M64.7746 16.825L63.8506 20.5532L64.4542 24.3455L65.5918 27.9615L67.0553 31.4226L69.3414 34.4084L71.2108 37.6559L73.2672 40.5455L74.0631 37.971L74.6827 35.1081L73.5076 31.5882L71.3497 28.7413L69.3841 25.9104L67.7444 22.8713L65.5171 20.1739L65.1325 16.9158L64.7746 16.825Z" stroke="#383839" stroke-width="1.62816" stroke-linecap="round" stroke-linejoin="round"/>
<path d="M53.2314 31.5454L57.1145 33.9169L60.4101 36.8172L64.2825 38.8736L67.7063 40.3585L70.1152 44.3217L72.0808 48.5253L68.7158 46.6238L65.2119 45.0641L61.6546 43.606L59.5769 41.2505L56.8902 38.5104L54.5347 35.498L53.2314 31.5454Z" fill="#41B879"/>
<path d="M53.2314 31.5454L57.1145 33.9169L60.4101 36.8172L64.2825 38.8736L67.7063 40.3585L70.1152 44.3217L72.0808 48.5253L68.7158 46.6238L65.2119 45.0641L61.6546 43.606L59.5769 41.2505L56.8902 38.5104L54.5347 35.498L53.2314 31.5454Z" stroke="#383839" stroke-width="1.62816" stroke-linecap="round" stroke-linejoin="round"/>
<path d="M48.3221 41.9128L49.7483 45.0535L51.5376 48.098L54.2509 50.3467L57.2581 52.0879L60.0676 54.1336L63.2563 55.7574L66.5893 57.0713L69.794 58.5882L68.2931 55.4476L65.7774 52.9051L63.6248 50.0903L60.4628 48.52L57.1245 47.2968L54.0533 45.4541L50.496 44.6209L47.6865 42.041L48.3221 41.9128Z" fill="#41B879"/>
<path d="M48.3221 41.9128L49.7483 45.0535L51.5376 48.098L54.2509 50.3467L57.2581 52.0879L60.0676 54.1336L63.2563 55.7574L66.5892 57.0713L69.794 58.5882L68.2931 55.4476L65.7774 52.9051L63.6248 50.0903L60.4628 48.52L57.1245 47.2968L54.0533 45.4541L50.496 44.6209L47.6865 42.041L48.3221 41.9128Z" stroke="#383839" stroke-width="1.62816" stroke-linecap="round" stroke-linejoin="round"/>
<path d="M46.7031 52.0399L48.7969 54.8441L51.0456 57.4987L52.8456 60.5913L56.0717 62.0495L59.3512 63.2245L62.6521 64.3622L65.5471 66.4133L68.8427 67.9836L67.048 64.5438L64.9328 61.4406L62.3263 58.6952L58.972 56.8524L54.6563 55.9123L50.8052 53.7278L46.9702 51.7622L46.7031 52.0399Z" fill="#41B879"/>
<path d="M46.7031 52.0399L48.7969 54.8441L51.0456 57.4987L52.8456 60.5913L56.0717 62.0495L59.3512 63.2245L62.6521 64.3622L65.5471 66.4133L68.8427 67.9836L67.048 64.5438L64.9328 61.4406L62.3263 58.6952L58.972 56.8524L54.6563 55.9123L50.8052 53.7278L46.9702 51.7622L46.7031 52.0399Z" stroke="#383839" stroke-width="1.62816" stroke-linecap="round" stroke-linejoin="round"/>
<path d="M43.9478 66.0393L46.4582 68.8381L48.7763 71.9467L52.3176 73.485L55.9764 74.6067L59.7152 74.6174L63.3526 75.2423L66.7443 75.8085L64.5651 72.529L60.8796 70.0559L56.6066 68.8274L52.2802 68.2826L47.9698 67.615L43.6113 66.3545L43.9478 66.0393Z" fill="#41B879"/>
<path d="M43.9478 66.0393L46.4582 68.8381L48.7763 71.9467L52.3176 73.485L55.9764 74.6067L59.7152 74.6174L63.3526 75.2423L66.7443 75.8085L64.5651 72.529L60.8796 70.0559L56.6066 68.8274L52.2802 68.2826L47.9698 67.615L43.6113 66.3545L43.9478 66.0393Z" stroke="#383839" stroke-width="1.62816" stroke-linecap="round" stroke-linejoin="round"/>
<path d="M44.6553 78.383L47.2137 81.5397L50.2529 84.1249L53.8956 85.7326L57.7147 86.7955L62.0678 87.0733L66.4263 88.0507L64.5461 84.643L61.5604 82.4851L58.0458 80.7706L53.5431 80.8721L49.3289 79.4192L45.1947 77.8542L44.6553 78.383Z" fill="#41B879"/>
<path d="M44.6553 78.383L47.2137 81.5397L50.2529 84.1249L53.8956 85.7326L57.7147 86.7955L62.0678 87.0733L66.4263 88.0507L64.5461 84.643L61.5604 82.4851L58.0458 80.7706L53.5431 80.8721L49.3289 79.4192L45.1947 77.8542L44.6553 78.383Z" stroke="#383839" stroke-width="1.62816" stroke-linecap="round" stroke-linejoin="round"/>
<path d="M74.7662 27.1388L77.4795 27.8546L76.0748 31.4279L74.9211 35.1401L73.7887 38.8683L73.3934 42.7567L72.1703 46.4795L71.6148 50.3359L71.07 54.187L70.8563 58.0807L70.162 61.9158L69.8469 65.7882L69.5745 69.6713L69.0563 73.5277L68.9388 77.4161L68.3139 81.2725L67.9881 85.1449L67.9827 89.044L67.7638 92.9218L67.2937 96.7942L67.4273 100.688L67.2296 104.571L67.0053 108.454L67.1228 112.348L66.8397 116.231L66.4338 120.114L66.7543 124.008L66.6207 127.891L66.7543 131.785L66.3911 135.673L66.5513 139.562L66.3109 143.45L66.3537 147.339L66.5459 151.232L66.4605 155.126L66.4872 159.015L66.7382 163.143L63.9715 162.876L63.7311 158.94L64.1103 155.131L63.8219 151.339L63.6029 147.542L63.87 143.744L63.7151 139.946L63.8166 136.149L63.4961 132.351L63.5175 128.553L63.683 124.756L63.7845 120.958L63.8005 117.16L64.1744 113.368L63.9501 109.565L64.527 105.784L64.3721 101.975L64.7192 98.1883L65.029 94.4013L64.9703 90.593L65.2427 86.8007L65.6166 83.0191L66.0332 79.2375L65.9477 75.4185L66.3857 71.6369L66.9839 67.8766L67.3418 64.0897L67.7477 60.3081L68.3566 56.5532L69.1098 52.825L69.3127 49.006L70.3115 45.3258L71.1341 41.619L71.7644 37.8748L72.7365 34.2L73.5377 30.4771L74.9691 26.9519L74.7662 27.1388Z" fill="#FFF6F0"/>
<path d="M74.7662 27.1388L77.4795 27.8546L76.0748 31.4279L74.9211 35.1401L73.7887 38.8683L73.3934 42.7567L72.1703 46.4795L71.6148 50.3359L71.07 54.187L70.8563 58.0807L70.162 61.9158L69.8469 65.7882L69.5745 69.6713L69.0563 73.5277L68.9388 77.4161L68.3139 81.2725L67.9881 85.1449L67.9827 89.044L67.7638 92.9218L67.2937 96.7942L67.4273 100.688L67.2296 104.571L67.0053 108.454L67.1228 112.348L66.8397 116.231L66.4338 120.114L66.7543 124.008L66.6207 127.891L66.7543 131.785L66.3911 135.673L66.5513 139.562L66.3109 143.45L66.3537 147.339L66.5459 151.232L66.4605 155.126L66.4872 159.015L66.7382 163.143L63.9715 162.876L63.7311 158.94L64.1103 155.131L63.8219 151.339L63.6029 147.542L63.87 143.744L63.7151 139.946L63.8166 136.149L63.4961 132.351L63.5175 128.553L63.683 124.756L63.7845 120.958L63.8005 117.16L64.1744 113.368L63.9501 109.565L64.527 105.784L64.3721 101.975L64.7192 98.1883L65.029 94.4013L64.9703 90.593L65.2427 86.8007L65.6166 83.0191L66.0332 79.2375L65.9477 75.4185L66.3857 71.6369L66.9839 67.8766L67.3418 64.0897L67.7477 60.3081L68.3566 56.5532L69.1098 52.825L69.3127 49.006L70.3115 45.3258L71.1341 41.619L71.7644 37.8748L72.7365 34.2L73.5377 30.4771L74.9691 26.9519L74.7662 27.1388Z" stroke="#383839" stroke-width="1.62816" stroke-linecap="round" stroke-linejoin="round"/>
<path d="M74.0781 31.9353L74.3879 27.9934L74.1476 24.0088L75.1143 20.1471L76.5725 16.4456L79.1043 13.3584L81.5238 10.3192L84.0983 7.36549L87.3138 5.13281L86.8544 8.50849L85.9037 11.7506L84.4562 14.8646L84.1891 18.299L82.2556 21.5358L81.1072 25.0931L78.7624 27.4166L77.1921 30.3009L74.3826 31.9459L74.0781 31.9353Z" fill="#41B879"/>
<path d="M74.0781 31.9353L74.3879 27.9934L74.1476 24.0088L75.1143 20.1471L76.5725 16.4456L79.1043 13.3584L81.5238 10.3192L84.0983 7.36549L87.3138 5.13281L86.8544 8.50849L85.9037 11.7506L84.4562 14.8646L84.1891 18.299L82.2556 21.5358L81.1072 25.0931L78.7624 27.4166L77.1921 30.3009L74.3826 31.9459L74.0781 31.9353Z" stroke="#383839" stroke-width="1.62816" stroke-linecap="round" stroke-linejoin="round"/>
<path d="M68.9307 162.593L73.3212 162.15L74.085 158.422L74.7313 154.565L75.7835 150.795L76.339 146.885L77.8132 143.237L78.7853 139.423L80.5265 135.892L81.9206 132.228L83.4001 128.586L85.3176 125.156L87.2245 121.727L89.1847 118.33L91.3693 115.067L93.7515 111.948L96.2405 108.919L98.6922 105.869L100.994 102.675L103.756 99.8816L106.603 97.1789L109.353 94.3694L112.515 91.9819L110.144 89.573L107.089 92.014L104.21 94.6258L101.582 97.4941L98.8684 100.282L96.1337 103.06L93.8316 106.206L91.7272 109.485L89.2648 112.514L87.2458 115.847L85.0933 119.094L83.1811 122.486L81.755 126.129L79.704 129.462L78.2138 133.062L76.8945 136.726L75.2066 140.246L74.2666 144.043L72.7283 147.633L71.9431 151.457L70.4903 155.1L69.6838 158.919L69.0375 162.764L68.9307 162.593Z" fill="#FFF6F0"/>
<path d="M68.9307 162.593L73.3212 162.15L74.085 158.422L74.7313 154.565L75.7835 150.795L76.339 146.885L77.8132 143.237L78.7853 139.423L80.5265 135.892L81.9206 132.228L83.4001 128.586L85.3176 125.156L87.2245 121.727L89.1847 118.33L91.3693 115.067L93.7515 111.948L96.2405 108.919L98.6922 105.869L100.994 102.675L103.756 99.8816L106.603 97.1789L109.353 94.3694L112.515 91.9819L110.144 89.573L107.089 92.014L104.21 94.6258L101.582 97.4941L98.8684 100.282L96.1337 103.06L93.8316 106.206L91.7272 109.485L89.2648 112.514L87.2458 115.847L85.0933 119.094L83.1811 122.486L81.755 126.129L79.704 129.462L78.2138 133.062L76.8945 136.726L75.2066 140.246L74.2666 144.043L72.7283 147.633L71.9431 151.457L70.4903 155.1L69.6838 158.919L69.0375 162.764L68.9307 162.593Z" stroke="#383839" stroke-width="1.62816" stroke-linecap="round" stroke-linejoin="round"/>
<path d="M107.097 93.8459L108.256 90.9456L109.607 87.618L111.583 84.5468L114.179 81.9349L117.186 79.8091L120.428 78.0625L124.125 77.5017L127.447 75.9688L124.824 79.2483L122.682 82.891L120.087 86.1866L117.939 88.7343L115.21 90.6786L111.236 92.6388L107.097 93.8459Z" fill="#41B879"/>
<path d="M107.097 93.8459L108.256 90.9456L109.607 87.618L111.583 84.5468L114.179 81.9349L117.186 79.8091L120.428 78.0625L124.125 77.5017L127.447 75.9688L124.824 79.2483L122.682 82.891L120.087 86.1866L117.939 88.7343L115.21 90.6786L111.236 92.6388L107.097 93.8459Z" stroke="#383839" stroke-width="1.62816" stroke-linecap="round" stroke-linejoin="round"/>
<path d="M30.9022 43.0879L29.3266 46.9229L28.536 50.8648L28.755 54.9829L27.8203 59.0529L28.6536 62.2843L28.7444 65.6921L30.1384 66.2048L31.3509 62.6956L33.247 58.9301L34.0643 54.8173L34.1604 50.6191L32.7236 46.7359L30.9022 43.0879Z" fill="#89CB9A"/>
<path d="M30.9022 43.0879L29.3266 46.9229L28.536 50.8648L28.755 54.9829L27.8203 59.0529L28.6536 62.2843L28.7444 65.6921L30.1384 66.2048L31.3509 62.6956L33.247 58.9301L34.0643 54.8173L34.1604 50.6191L32.7236 46.7359L30.9022 43.0879Z" stroke="#383839" stroke-width="1.62816" stroke-linecap="round" stroke-linejoin="round"/>
<path d="M34.0409 70.152L35.2534 66.7497L36.0439 63.2297L37.5822 60.5591L40.7762 57.5573L43.4949 54.0695L46.6356 51.5645L45.6101 55.7306L43.4469 59.8808L40.5092 64.4689L37.5768 67.7912L34.7193 71.2683L33.8486 70.2268L34.0409 70.152Z" fill="#89CB9A"/>
<path d="M34.0409 70.152L35.2534 66.7497L36.0439 63.2297L37.5822 60.5591L40.7762 57.5573L43.4949 54.0695L46.6356 51.5645L45.6101 55.7306L43.4469 59.8808L40.5092 64.4689L37.5768 67.7912L34.7193 71.2683L33.8486 70.2268L34.0409 70.152Z" stroke="#383839" stroke-width="1.62816" stroke-linecap="round" stroke-linejoin="round"/>
<path d="M27.6866 63.529L23.8141 62.9895L20.2034 62.1616L16.4859 62.2631L12.966 63.4595L9.48888 64.5972L6.24673 66.2797L2.95117 68.021L7.38976 67.8127L11.7215 68.71L16.08 69.2655L20.5346 68.7741L24.7222 66.9794L29.0379 65.9379L27.6866 63.529Z" fill="#89CB9A"/>
<path d="M27.6866 63.529L23.8141 62.9895L20.2034 62.1616L16.4859 62.2631L12.966 63.4595L9.48888 64.5972L6.24673 66.2797L2.95117 68.021L7.38976 67.8127L11.7215 68.71L16.08 69.2655L20.5346 68.7741L24.7222 66.9794L29.0379 65.9379L27.6866 63.529Z" stroke="#383839" stroke-width="1.62816" stroke-linecap="round" stroke-linejoin="round"/>
<path d="M4.30566 79.6755L7.53178 77.0476L11.1425 75.4452L14.3633 73.0897L18.2891 72.358L22.0013 71.1616L25.8737 70.7556L29.7621 70.7877L33.4743 71.2363L30.4672 72.8173L27.3051 74.2755L24.4476 76.3159L21.6167 77.6405L18.5401 78.2814L15.0095 78.6446L11.4256 78.4524L7.95375 79.3497L4.30566 79.6755Z" fill="#89CB9A"/>
<path d="M4.30566 79.6755L7.53178 77.0476L11.1425 75.4452L14.3633 73.0897L18.2891 72.358L22.0013 71.1616L25.8737 70.7556L29.7621 70.7877L33.4743 71.2363L30.4672 72.8173L27.3051 74.2755L24.4476 76.3159L21.6167 77.6405L18.5401 78.2814L15.0095 78.6446L11.4256 78.4524L7.95375 79.3497L4.30566 79.6755Z" stroke="#383839" stroke-width="1.62816" stroke-linecap="round" stroke-linejoin="round"/>
<path d="M10.0879 86.4163L13.298 84.2424L16.4333 82.0364L19.9158 80.4661L23.4838 79.056L27.2814 78.4845L31.0417 77.7634L34.8607 78.0251L38.9681 79.0293L35.4696 80.1136L32.4785 81.7694L29.8666 84.0608L24.8084 85.1504L21.1336 85.3373L17.4535 85.5777L13.7734 85.7807L10.0879 86.4163Z" fill="#89CB9A"/>
<path d="M10.0879 86.4163L13.298 84.2424L16.4333 82.0364L19.9158 80.4661L23.4838 79.056L27.2814 78.4845L31.0417 77.7634L34.8607 78.0251L38.9681 79.0293L35.4696 80.1136L32.4785 81.7694L29.8666 84.0608L24.8084 85.1504L21.1336 85.3373L17.4535 85.5777L13.7734 85.7807L10.0879 86.4163Z" stroke="#383839" stroke-width="1.62816" stroke-linecap="round" stroke-linejoin="round"/>
<path d="M14.9688 94.3908L18.2429 92.4465L21.6453 90.8121L25.0584 89.2257L28.5996 87.9332L32.2477 86.897L36.024 86.5178L39.843 86.3735L43.8596 87.7089L40.2222 89.3807L36.8786 91.3249L33.2092 92.6442L28.2631 94.0596L23.8993 94.1825L19.5516 94.8127L15.1771 94.4121L14.9688 94.3908Z" fill="#89CB9A"/>
<path d="M14.9688 94.3908L18.2429 92.4465L21.6453 90.8121L25.0584 89.2257L28.5996 87.9332L32.2477 86.897L36.024 86.5178L39.843 86.3735L43.8596 87.7089L40.2222 89.3807L36.8786 91.3249L33.2092 92.6442L28.2631 94.0596L23.8993 94.1825L19.5516 94.8127L15.1771 94.4121L14.9688 94.3908Z" stroke="#383839" stroke-width="1.62816" stroke-linecap="round" stroke-linejoin="round"/>
<path d="M18.3652 102.825L21.6715 100.923L24.9777 99.1658L28.4121 97.697L31.8573 96.148L35.5481 95.3789L39.2923 94.9623L43.0525 94.5403L47.1172 94.5563L44.3612 96.9652L41.541 98.8453L38.4591 100.255L35.1208 100.784L30.9332 101.11L26.7777 101.73L22.5528 101.869L18.4347 102.659L18.3652 102.825Z" fill="#89CB9A"/>
<path d="M18.3652 102.825L21.6715 100.923L24.9777 99.1658L28.4121 97.697L31.8573 96.148L35.5481 95.3789L39.2923 94.9623L43.0525 94.5403L47.1172 94.5563L44.3612 96.9652L41.541 98.8453L38.4591 100.255L35.1208 100.784L30.9332 101.11L26.7777 101.73L22.5528 101.869L18.4347 102.659L18.3652 102.825Z" stroke="#383839" stroke-width="1.62816" stroke-linecap="round" stroke-linejoin="round"/>
<path d="M22.5205 111.269L25.9389 109.656L29.3466 108.16L32.7383 106.702L36.2582 105.623L39.7194 103.941L43.5063 104.464L47.2452 104.235L50.4232 105.169L47.3574 107.861L43.0523 108.833L38.9716 110.014L34.7734 110.607L30.7674 111.055L26.7454 111.2L22.7395 111.301L22.5205 111.269Z" fill="#89CB9A"/>
<path d="M22.5205 111.269L25.9389 109.656L29.3466 108.16L32.7383 106.702L36.2582 105.623L39.7194 103.941L43.5063 104.464L47.2452 104.235L50.4232 105.169L47.3574 107.861L43.0523 108.833L38.9716 110.014L34.7734 110.607L30.7674 111.055L26.7454 111.2L22.7395 111.301L22.5205 111.269Z" stroke="#383839" stroke-width="1.62816" stroke-linecap="round" stroke-linejoin="round"/>
<path d="M29.6885 120.456L32.733 118.325L35.7829 116.279L38.9182 114.367L42.2191 112.685L45.8084 111.707L49.5206 111.403L53.6333 112.156L49.7449 114.335L46.5028 116.861L42.7318 118.549L38.6725 119.228L34.3193 119.975L29.9021 120.381L29.6885 120.456Z" fill="#89CB9A"/>
<path d="M29.6885 120.456L32.733 118.325L35.7829 116.279L38.9182 114.367L42.2191 112.685L45.8084 111.707L49.5206 111.403L53.6333 112.156L49.7449 114.335L46.5028 116.861L42.7318 118.549L38.6725 119.228L34.3193 119.975L29.9021 120.381L29.6885 120.456Z" stroke="#383839" stroke-width="1.62816" stroke-linecap="round" stroke-linejoin="round"/>
<path d="M54.0007 111.312L56.3455 108.091L59.9188 106.393L63.6791 105.105L67.1829 104.977L70.3396 103.375L74.0037 102.712L70.4197 104.929L67.9574 108.294L64.9984 109.555L62.0767 110.853L57.9265 110.885L53.8672 111.723L54.0007 111.312Z" fill="#89CB9A"/>
<path d="M54.0007 111.312L56.3455 108.091L59.9188 106.393L63.6791 105.105L67.1829 104.977L70.3396 103.375L74.0037 102.712L70.4197 104.929L67.9574 108.294L64.9984 109.555L62.0767 110.853L57.9265 110.885L53.8672 111.723L54.0007 111.312Z" stroke="#383839" stroke-width="1.62816" stroke-linecap="round" stroke-linejoin="round"/>
<path d="M49.5039 100.918L53.2107 98.5356L56.1164 95.0958L59.225 93.5575L63.1455 91.8697L66.9057 89.8881L70.431 87.8584L69.3894 91.3623L67.504 95.0371L64.3686 97.7451L61.2333 100.25L57.3823 101.26L53.4511 101.334L49.5039 100.918Z" fill="#89CB9A"/>
<path d="M49.5039 100.918L53.2107 98.5356L56.1164 95.0958L59.225 93.5575L63.1455 91.8697L66.9057 89.8881L70.431 87.8584L69.3894 91.3623L67.504 95.0371L64.3686 97.7451L61.2333 100.25L57.3823 101.26L53.4511 101.334L49.5039 100.918Z" stroke="#383839" stroke-width="1.62816" stroke-linecap="round" stroke-linejoin="round"/>
<path d="M46.6934 94.5509L49.396 91.4903L50.9824 87.682L53.7225 85.7698L55.907 83.3182L59.5444 81.2565L63.3421 79.4778L67.1771 76.866L65.4572 80.6369L63.5878 83.7615L61.8625 86.5817L59.3201 88.8411L56.1421 90.171L52.9533 91.485L50.053 93.3704L46.8856 94.7378L46.6934 94.5509Z" fill="#89CB9A"/>
<path d="M46.6934 94.5509L49.396 91.4903L50.9824 87.682L53.7225 85.7698L55.907 83.3182L59.5444 81.2565L63.3421 79.4778L67.1771 76.866L65.4572 80.6369L63.5878 83.7615L61.8625 86.5817L59.3201 88.8411L56.1421 90.171L52.9533 91.485L50.053 93.3704L46.8856 94.7378L46.6934 94.5509Z" stroke="#383839" stroke-width="1.62816" stroke-linecap="round" stroke-linejoin="round"/>
<path d="M44.1659 86.0531L45.8858 82.5546L46.7404 78.7035L50.2069 74.2917L53.6573 71.7866L57.3641 69.5219L59.7624 66.3225L59.4579 70.0347L58.3576 73.9659L56.0929 77.3735L53.1819 80.1884L50.068 82.6935L47.3066 85.7967L43.6211 87.5593" fill="#89CB9A"/>
<path d="M43.9716 85.9728C44.3295 85.1022 45.8144 81.4007 46.8719 78.7568C47.5663 77.0209 48.8001 75.5574 50.3811 74.5639C53.1266 72.8333 57.5545 69.6713 59.91 66.0232C59.91 66.0232 60.8714 78.6873 43.5283 87.3722" stroke="#383839" stroke-width="1.62816" stroke-linecap="round" stroke-linejoin="round"/>
<path d="M39.6719 78.2067L40.863 73.8642L42.9461 70.0078L45.0986 66.5093L48.1591 63.8547L51.4013 61.4458L54.9586 59.1223L53.6179 62.5674L52.7686 65.9004L50.2956 70.1948L46.6476 72.7105L43.165 75.4559L39.6719 78.2067Z" fill="#89CB9A"/>
<path d="M39.6719 78.2067L40.863 73.8642L42.9461 70.0078L45.0986 66.5093L48.1591 63.8547L51.4013 61.4458L54.9586 59.1223L53.6179 62.5674L52.7686 65.9004L50.2956 70.1948L46.6476 72.7105L43.165 75.4559L39.6719 78.2067Z" stroke="#383839" stroke-width="1.62816" stroke-linecap="round" stroke-linejoin="round"/>
<path d="M20.057 56.5586L18.5508 58.6524L21.3656 61.4565L24.2232 64.031L26.6107 67.0435L29.2173 69.869L31.8131 72.7266L33.9656 75.926L36.1983 79.0613L38.2654 82.3141L40.0921 85.7112L41.7639 89.1777L43.6227 92.5427L45.4761 95.913L47.1158 99.3902L48.793 102.862L49.8452 106.58L51.4049 110.099L52.4144 113.817L53.6375 117.465L54.7378 121.145L55.6565 124.879L56.7835 128.564L57.2429 132.399L58.4179 136.095L58.8079 139.93L59.2832 143.749L60.0737 147.526L60.4209 151.366L60.3782 155.228L60.9818 159.052L60.9177 162.855L63.9675 162.684L63.8233 158.929L63.7592 155.121L63.9355 151.286L63.5028 147.494L63.1396 143.691L62.3277 139.952L61.9485 136.149L60.9177 132.458L60.2981 128.692L59.6945 124.911L58.4073 121.305L57.2001 117.684L56.0518 114.047L54.9194 110.409L53.6535 106.809L52.4998 103.156L50.6891 99.7801L49.1776 96.2709L47.2601 92.97L45.4707 89.605L43.9592 86.0691L41.9081 82.8429L39.5686 79.8091L37.3627 76.7005L35.3223 73.4637L32.8066 70.5901L30.7235 67.3533L27.9995 64.6559L25.2914 61.9693L22.733 59.1277L20.057 56.5586Z" fill="#FFF6F0"/>
<path d="M20.057 56.5586L18.5508 58.6524L21.3656 61.4565L24.2232 64.031L26.6107 67.0435L29.2173 69.869L31.8131 72.7266L33.9656 75.926L36.1983 79.0613L38.2654 82.3141L40.0921 85.7112L41.7639 89.1777L43.6227 92.5427L45.4761 95.913L47.1158 99.3902L48.793 102.862L49.8452 106.58L51.4049 110.099L52.4144 113.817L53.6375 117.465L54.7378 121.145L55.6565 124.879L56.7835 128.564L57.2429 132.399L58.4179 136.095L58.8079 139.93L59.2832 143.749L60.0737 147.526L60.4209 151.366L60.3782 155.228L60.9818 159.052L60.9177 162.855L63.9675 162.684L63.8233 158.929L63.7592 155.121L63.9355 151.286L63.5028 147.494L63.1396 143.691L62.3277 139.952L61.9485 136.149L60.9177 132.458L60.2981 128.692L59.6945 124.911L58.4073 121.305L57.2001 117.684L56.0518 114.047L54.9194 110.409L53.6535 106.809L52.4998 103.156L50.6891 99.7801L49.1776 96.2709L47.2601 92.97L45.4707 89.605L43.9592 86.0691L41.9081 82.8429L39.5686 79.8091L37.3627 76.7005L35.3223 73.4637L32.8066 70.5901L30.7235 67.3533L27.9995 64.6559L25.2914 61.9693L22.733 59.1277L20.057 56.5586Z" stroke="#383839" stroke-width="1.62816" stroke-linecap="round" stroke-linejoin="round"/>
<path d="M1.90978 45.4648L4.86883 48.6109L7.81721 51.7729L11.0967 54.6038L13.3401 56.9646L17.2339 58.2358L20.476 60.7783L24.2042 62.7919L22.7033 58.8607L20.9567 55.6026L18.4997 52.8465L15.8611 50.2453L12.8487 47.9325L9.08843 47.2755L5.47773 46.4797L1.75488 45.9723L1.90978 45.4648Z" fill="#89CB9A"/>
<path d="M1.90978 45.4648L4.86883 48.6109L7.81721 51.7729L11.0967 54.6038L13.3401 56.9646L17.2339 58.2358L20.476 60.7783L24.2042 62.7919L22.7033 58.8607L20.9567 55.6026L18.4997 52.8465L15.8611 50.2453L12.8487 47.9325L9.08843 47.2755L5.47773 46.4797L1.75488 45.9723L1.90978 45.4648Z" stroke="#383839" stroke-width="1.62816" stroke-linecap="round" stroke-linejoin="round"/>
<path d="M81.5654 135.15L85.0052 137.863L88.1886 140.16L92.061 140.983L95.629 142.569L99.4266 143.429L103.251 144.219L106.717 145.021L109.965 145.832L107.15 143.279L104.463 140.395L100.709 139.156L97.4503 136.923L93.5939 136.245L89.7429 135.962L85.9292 135.39L81.5654 135.15Z" fill="#41B879"/>
<path d="M81.5654 135.15L85.0052 137.863L88.1886 140.16L92.061 140.983L95.629 142.569L99.4266 143.429L103.251 144.219L106.717 145.021L109.965 145.832L107.15 143.279L104.463 140.395L100.709 139.156L97.4503 136.923L93.5939 136.245L89.7429 135.962L85.9292 135.39L81.5654 135.15Z" stroke="#383839" stroke-width="1.62816" stroke-linecap="round" stroke-linejoin="round"/>
<path d="M85.9062 126.342L88.5929 128.57L91.835 130.658L95.3282 132.373L99.0618 133.478L102.891 134.151L106.775 134.354L109.734 134.92L112.548 135.973L109.632 133.622L106.625 131.47L103.452 129.6L100.248 127.699L96.8024 126.091L93.0048 125.974L89.2552 125.632L85.9062 126.342Z" fill="#41B879"/>
<path d="M85.9062 126.342L88.5929 128.57L91.835 130.658L95.3282 132.373L99.0618 133.478L102.891 134.151L106.775 134.354L109.734 134.92L112.548 135.973L109.632 133.622L106.625 131.47L103.452 129.6L100.248 127.699L96.8024 126.091L93.0048 125.974L89.2552 125.632L85.9062 126.342Z" stroke="#383839" stroke-width="1.62816" stroke-linecap="round" stroke-linejoin="round"/>
<path d="M90.0879 119.03L92.8707 121.06L95.99 123.137L99.4939 124.462L102.971 125.888L106.742 126.022L110.417 125.963L114.049 126.588L116.8 128.308L114.668 125.429L111.191 123.762L108.104 121.588L104.605 120.178L101.128 118.533L97.2719 118.747L93.5223 118.501L90.0879 119.03Z" fill="#41B879"/>
<path d="M90.0879 119.03L92.8707 121.06L95.99 123.137L99.4939 124.462L102.971 125.888L106.742 126.022L110.417 125.963L114.049 126.588L116.8 128.308L114.668 125.429L111.191 123.762L108.104 121.588L104.605 120.178L101.128 118.533L97.2719 118.747L93.5223 118.501L90.0879 119.03Z" stroke="#383839" stroke-width="1.62816" stroke-linecap="round" stroke-linejoin="round"/>
<path d="M95.874 111.141L98.1174 113.966L102.027 115.083L105.435 117.23L109.435 117.572L113.238 118.891L117.228 118.864L120.198 119.537L122.949 120.734L120.134 118.202L117.116 115.969L113.901 114.025L110.477 112.407L106.893 110.991L103.079 110.388L99.2177 110.324L95.874 111.141Z" fill="#41B879"/>
<path d="M95.874 111.141L98.1174 113.966L102.027 115.083L105.435 117.23L109.435 117.572L113.238 118.891L117.228 118.864L120.198 119.537L122.949 120.734L120.134 118.202L117.116 115.969L113.901 114.025L110.477 112.407L106.893 110.991L103.079 110.388L99.2177 110.324L95.874 111.141Z" stroke="#383839" stroke-width="1.62816" stroke-linecap="round" stroke-linejoin="round"/>
<path d="M100.909 103.685L103.564 106.232L106.806 107.845L110.016 109.496L113.456 110.575L116.944 111.488L120.506 112.012L124.08 112.337L128.935 113.171L126.729 110.313L123.337 108.406L119.785 106.905L116.426 104.934L112.676 103.973L108.889 103.065L104.995 103.348L101.203 103.775L100.909 103.685Z" fill="#41B879"/>
<path d="M100.909 103.685L103.564 106.232L106.806 107.845L110.016 109.496L113.456 110.575L116.944 111.488L120.506 112.012L124.08 112.337L128.935 113.171L126.729 110.313L123.337 108.406L119.785 106.905L116.426 104.934L112.676 103.973L108.889 103.065L104.995 103.348L101.203 103.775L100.909 103.685Z" stroke="#383839" stroke-width="1.62816" stroke-linecap="round" stroke-linejoin="round"/>
<path d="M106.429 97.4246L109.19 99.1285L112.363 99.8816L114.959 101.991L119.381 102.531L123.761 102.659L128.141 102.242L132.403 102.013L129.386 99.7534L125.46 98.4929L121.87 96.6341L118.035 95.1172L113.917 95.3896L109.986 96.2228L106.359 97.9854L106.429 97.4246Z" fill="#41B879"/>
<path d="M106.429 97.4246L109.19 99.1285L112.363 99.8816L114.959 101.991L119.381 102.531L123.761 102.659L128.141 102.242L132.403 102.013L129.386 99.7534L125.46 98.4929L121.87 96.6341L118.035 95.1172L113.917 95.3896L109.986 96.2228L106.359 97.9854L106.429 97.4246Z" stroke="#383839" stroke-width="1.62816" stroke-linecap="round" stroke-linejoin="round"/>
<path d="M101.784 74.6549L99.1984 77.1493L98.4613 80.7333L97.8311 84.3226L97.9592 87.9546L99.0756 91.4532L99.0542 95.1119L100.315 98.5517L101.618 95.1012L103.268 91.8003V86.4377L101.661 82.6027L101.34 78.4258L101.276 74.1956L101.784 74.6549Z" fill="#41B879"/>
<path d="M101.784 74.6549L99.1984 77.1493L98.4613 80.7333L97.8311 84.3226L97.9592 87.9546L99.0756 91.4532L99.0542 95.1119L100.315 98.5517L101.618 95.1012L103.268 91.8003V86.4377L101.661 82.6027L101.34 78.4258L101.276 74.1956L101.784 74.6549Z" stroke="#383839" stroke-width="1.62816" stroke-linecap="round" stroke-linejoin="round"/>
<path d="M85.5186 82.0205L85.5826 86.2668L86.8966 90.0591L88.3922 93.8087L90.6729 97.1416L93.3969 100.122L95.9447 102.905L95.8005 98.7333L94.604 94.6259L93.2474 91.341L91.1482 87.992L87.9435 85.6312L85.5186 82.0205Z" fill="#41B879"/>
<path d="M85.5186 82.0205L85.5826 86.2668L86.8966 90.0591L88.3922 93.8087L90.6729 97.1416L93.3969 100.122L95.9447 102.905L95.8005 98.7333L94.604 94.6259L93.2474 91.341L91.1482 87.992L87.9435 85.6312L85.5186 82.0205Z" stroke="#383839" stroke-width="1.62816" stroke-linecap="round" stroke-linejoin="round"/>
<path d="M76.8193 88.0986L76.83 91.8642L78.6781 95.2452L80.0027 98.8666L82.3529 101.89L84.6923 104.902L87.2935 107.685L89.7612 109.912L89.6437 106.921L89.0615 103.53L87.9452 100.181L85.6164 97.4886L82.3422 94.647L79.2816 91.5598L76.8193 88.0986Z" fill="#41B879"/>
<path d="M76.8193 88.0986L76.83 91.8642L78.6781 95.2452L80.0027 98.8666L82.3529 101.89L84.6923 104.902L87.2935 107.685L89.7612 109.912L89.6437 106.921L89.0615 103.53L87.9452 100.181L85.6164 97.4886L82.3422 94.647L79.2816 91.5598L76.8193 88.0986Z" stroke="#383839" stroke-width="1.62816" stroke-linecap="round" stroke-linejoin="round"/>
<path d="M71.9229 96.1L72.3181 99.8282L73.0499 103.615L74.8819 107.05L77.654 109.774L80.4582 112.46L82.8778 115.489L85.1799 118.827L85.4629 114.826L83.8873 111.574L82.0285 108.513L79.7585 105.682L76.7567 102.718L73.6588 99.7962L72.003 96.0413L71.9229 96.1Z" fill="#41B879"/>
<path d="M71.9229 96.1L72.3181 99.8282L73.0499 103.615L74.8819 107.05L77.654 109.774L80.4582 112.46L82.8778 115.489L85.1799 118.827L85.463 114.826L83.8873 111.574L82.0285 108.513L79.7585 105.682L76.7567 102.718L73.6588 99.7962L72.003 96.0413L71.9229 96.1Z" stroke="#383839" stroke-width="1.62816" stroke-linecap="round" stroke-linejoin="round"/>
<path d="M62.8721 106.985L64.5492 110.078L65.6602 113.512L68.0531 116.172L70.8199 118.405L73.7255 120.408L77.3789 122.379L80.7653 124.804L79.6436 120.451L77.0852 116.872L73.9979 113.715L70.211 111.627L66.4347 109.522L63.3207 106.638L62.8721 106.985Z" fill="#41B879"/>
<path d="M62.8721 106.985L64.5492 110.078L65.6602 113.512L68.0531 116.172L70.8199 118.405L73.7255 120.408L77.3789 122.379L80.7653 124.804L79.6436 120.451L77.0852 116.872L73.9979 113.715L70.211 111.627L66.4347 109.522L63.3207 106.638L62.8721 106.985Z" stroke="#383839" stroke-width="1.62816" stroke-linecap="round" stroke-linejoin="round"/>
<path d="M59.7705 116.723L61.0845 120.349L62.7456 123.437L64.3426 126.818L67.3658 128.922L70.3142 131.043L73.5937 132.597L77.1296 134.584L75.2762 130.006L73.4762 126.219L70.7041 123.079L67.51 120.381L63.8619 118.352L59.7705 116.723Z" fill="#41B879"/>
<path d="M59.7705 116.723L61.0845 120.349L62.7456 123.437L64.3426 126.818L67.3658 128.922L70.3142 131.043L73.5937 132.597L77.1296 134.584L75.2762 130.006L73.4762 126.219L70.7041 123.079L67.51 120.381L63.8619 118.352L59.7705 116.723Z" stroke="#383839" stroke-width="1.62816" stroke-linecap="round" stroke-linejoin="round"/>
<path d="M53.5605 131.86L56.2098 134.723L59.3558 137.126L61.4015 139.402L64.4674 139.583L69.1784 140.475L74.071 141.72L72.2283 138.98L70.3962 136.71L65.8722 133.954L61.6793 133.948L57.7748 132.645L53.8169 131.577L53.5605 131.86Z" fill="#41B879"/>
<path d="M53.5605 131.86L56.2098 134.723L59.3558 137.126L61.4015 139.402L64.4674 139.583L69.1784 140.475L74.071 141.72L72.2283 138.98L70.3962 136.71L65.8722 133.954L61.6793 133.948L57.7748 132.645L53.8169 131.577L53.5605 131.86Z" stroke="#383839" stroke-width="1.62816" stroke-linecap="round" stroke-linejoin="round"/>
<path d="M59.9121 197.792L59.41 199.923L57.2842 200.805L55.5002 199.582L54.7578 197.792L55.1851 195.693L57.2842 195.25L59.2658 195.816L59.9121 197.792Z" fill="#F3F2F2"/>
<path d="M75.5086 197.792L74.3977 199.64L72.5496 200.399L70.5787 199.768L69.7988 197.792L70.5413 195.784L72.5496 195.186L74.5953 195.752L75.5086 197.792Z" fill="#F3F2F2"/>
<path d="M70.66 203.999L70.3181 205.751L69.5062 207.332L68.2457 208.576L66.6326 209.265L64.9181 209.639L63.1074 209.575L61.4997 208.71L60.3406 207.326L59.3632 205.804L59.1709 203.999" stroke="#F3F2F2" stroke-width="2.17088" stroke-linecap="round" stroke-linejoin="round"/>
<path d="M77.9841 204.303C79.4583 204.303 80.6547 203.945 80.6547 203.502C80.6547 203.059 79.4583 202.701 77.9841 202.701C76.5099 202.701 75.3135 203.059 75.3135 203.502C75.3135 203.945 76.5099 204.303 77.9841 204.303Z" fill="#F3F2F2" stroke="#FFA6A6" stroke-width="2.17088" stroke-linecap="round" stroke-linejoin="round"/>
<path d="M51.2761 203.769C52.7503 203.769 53.9467 203.411 53.9467 202.968C53.9467 202.525 52.7503 202.167 51.2761 202.167C49.8019 202.167 48.6055 202.525 48.6055 202.968C48.6055 203.411 49.8019 203.769 51.2761 203.769Z" fill="#F3F2F2" stroke="#FFA6A6" stroke-width="2.17088" stroke-linecap="round" stroke-linejoin="round"/>
<path d="M77.8701 142.996L80.231 146.057L83.0672 148.15L86.4535 149.139L89.5782 150.655L93.0179 151.051L96.6714 153.289L94.4707 150.121L92.3182 146.97L89.3752 144.497L85.5509 143.835L81.9829 142.948L77.8701 142.996Z" fill="#41B879"/>
<path d="M77.8701 142.996L80.231 146.057L83.0672 148.15L86.4535 149.139L89.5782 150.655L93.0179 151.051L96.6714 153.289L94.4707 150.121L92.3182 146.97L89.3752 144.497L85.5509 143.835L81.9829 142.948L77.8701 142.996Z" stroke="#383839" stroke-width="1.62816" stroke-linecap="round" stroke-linejoin="round"/>
</svg>
