<svg width="210" height="234" viewBox="0 0 210 234" fill="none" xmlns="http://www.w3.org/2000/svg">
<rect width="210" height="234" fill="transparent"/>
<path d="M140.318 233.368L138.538 233.444L136.693 233.211L134.847 233.612L133.002 233.309L131.157 233.173L129.312 233.417L127.466 233.227L125.621 233.113L123.776 233.493L121.931 233.661L120.085 233.254L118.246 233.754L116.4 233.536L114.555 233.238L112.71 233.455L110.865 233.412L109.019 233.542L107.174 233.716L105.329 233.243L103.484 233.319L101.638 233.634L99.793 233.412L97.9478 233.526L96.1025 233.536L94.2573 233.591L92.412 233.379L90.5668 233.39L88.7215 233.629L86.8763 233.243L85.0256 233.531L83.1152 233.488L82.5616 231.621L82.6213 229.694L82.0461 227.887L81.639 226.047L81.6662 224.126L81.0203 222.335L80.9877 220.424L80.2334 218.655L80.1574 216.756L80.0163 214.867L79.5875 213.032L79.2347 211.187L78.6703 209.38L78.3284 207.529L78.1276 205.651L77.6934 203.817L77.2864 201.977L77.091 200.099L76.8088 198.238L76.5103 196.376L76.0056 194.553L75.8427 192.67L75.0178 190.906L74.627 189.06L74.2743 187.21L73.9866 185.343L73.7207 183.416L75.6528 183.536L77.536 183.313L79.4193 183.644L81.3025 183.172L83.1858 183.546L85.069 183.373L86.9523 183.574L88.8355 183.232L90.7187 183.199H92.602L94.4852 183.215L96.3685 183.53L98.2517 183.405L100.135 183.15L102.018 183.601L103.901 183.123L105.785 183.264L107.668 183.552L109.551 183.156L111.434 183.46L113.318 183.47L115.201 183.438L117.084 183.172L118.967 183.259L120.851 183.622L122.734 183.248L124.617 183.167L126.5 183.666L128.384 183.134L130.267 183.118L132.15 183.693L134.033 183.59L135.917 183.606L137.8 183.373L139.683 183.514L141.566 183.232L143.45 183.449L145.338 183.666L147.259 183.427L147.232 185.337L146.608 187.134L146.69 189.028L146.272 190.851L145.8 192.67L145.767 194.547L145.468 196.393L144.964 198.205L144.817 200.067L144.779 201.945L144.166 203.741L144.014 205.603L144.188 207.513L143.862 209.353L143.466 211.187L143.238 213.038L143.178 214.916L142.967 216.772L142.559 218.601L142.098 220.424L142.201 222.324L141.566 224.12L141.496 225.998L140.996 227.816L141.11 229.721L140.41 231.512L140.307 233.33L140.318 233.368Z" fill="#363737"/>
<path d="M153.604 183.986L151.77 184.241L149.898 183.763L148.025 183.997L146.153 184.198L144.28 184.056H142.408L140.53 183.818L138.658 183.937L136.785 183.763L134.913 184.268L133.041 184.246L131.168 184.225L129.29 184.002L127.418 183.872L125.546 183.943L123.668 184.138L121.79 184.16H119.918L118.045 183.905L116.167 184.198L114.29 183.932L112.412 184.181L110.534 184.154L108.656 183.883L106.778 184.355L104.901 184.268L103.023 184.105L101.15 183.915L99.2726 184.078L97.4002 183.845L95.5278 183.981L93.65 184.165L91.7776 183.948L89.8998 184.116L88.0219 184.333L86.1441 183.932L84.2663 184.176L82.3885 184.16L80.5107 184.225L78.6329 184.067L76.7551 183.774L74.8772 183.818L72.9994 183.964L71.1216 184.263L69.2384 184.1L67.4257 183.948L67.1652 182.114L67.6048 180.209L67.4745 178.304L67.6753 176.393L67.4799 174.488L67.176 172.578L67.4528 170.668L67.1055 168.757L67.6211 166.847L67.4637 165.034L69.2384 165.229L71.1108 164.616L72.9831 164.73L74.8555 165.078L76.7279 164.915L78.6003 165.034L80.4781 165.002L82.3505 165.126L84.2229 164.822L86.0953 164.681L87.9677 164.996L89.8455 164.73L91.7233 164.936L93.5957 164.801L95.4681 165.067L97.3405 164.871L99.2183 165.219L101.091 164.643H102.963L104.841 164.953L106.719 164.714L108.591 164.741L110.469 164.66L112.347 164.888L114.225 165.023L116.102 164.866L117.975 165.045L119.853 164.947L121.725 164.649L123.597 165.126H125.47L127.348 165.11L129.225 165.029L131.103 165.181L132.981 164.784L134.859 164.714L136.737 164.812L138.614 164.828L140.492 164.806L142.37 164.736L144.248 165.018L146.126 164.752L148.004 164.898L149.881 164.752L151.765 165.099L153.794 164.79L153.333 166.841L153.512 168.746L153.398 170.657L153.68 172.567L153.925 174.472L153.957 176.377L153.371 178.287L153.344 180.198L153.99 182.114L153.615 183.981H153.604V183.986Z" fill="#363737"/>
<path d="M120.877 116.9L118.125 119.923L115.346 122.941L112.193 125.899L111.651 129.936L112.535 133.893L112.139 137.849L111.922 141.844L112.405 145.811L111.906 149.822L111.954 153.816L111.45 157.789L111.987 161.783L111.808 166.114L107.841 165.496L104.237 166.516L100.59 166.158L97.0025 166.163L93.6593 165.658L94.8044 161.946L93.9198 157.849L94.1966 153.865L93.8004 149.947L93.4693 145.974L93.3554 141.865L91.9443 137.996L89.6377 134.62L87.7816 131.06L85.589 127.646L82.9297 124.574L79.5865 122.235L76.7101 119.44L74.8268 117.524L71.9287 115.006L68.7267 112.732L66.1379 109.666L64.7919 105.916L63.3863 102.285L61.5953 98.7625L61.3837 94.7898L59.9346 91.007L59.978 87.0235L60.8735 83.1647L61.9155 79.5013L63.0878 75.9139L64.4717 72.3808L66.6589 69.2168L69.3996 66.6768L72.2001 63.9741L76.01 63.3337L79.5648 64.5331L82.2838 66.2372L84.3353 69.3145L84.6935 73.0538L85.5022 76.7009L84.4222 80.3805L85.3882 84.1199L84.3679 87.767L84.433 91.5552L86.072 94.8658L88.6228 97.4546L93.1546 96.4505L95.0486 92.2607L95.5697 87.8864L95.7325 85.1511L94.316 81.4551L92.8723 77.7266L93.2577 73.6454L92.5304 69.7432L91.5589 65.9116L90.772 62.0909L89.7951 58.1887L90.1316 54.254L89.7951 50.3246L90.403 46.4225L89.7571 42.4226L90.2727 38.3902L92.8452 35.1719L94.7936 31.8341L97.0622 28.7461L101.192 26.8628L105.48 28.1816L108.866 30.7161L110.864 33.9507L112.41 37.4187L113.029 41.2232L114.223 45.1416L114.614 49.2283L116.15 53.0762L116.204 57.2118L116.052 61.3093L116.671 65.3851L116.72 69.4664L117.089 72.8096L119.243 76.1365L120.719 73.6942L121.338 69.4338L122.798 65.3363L125.506 61.9063L129.685 61.6512L132.42 64.6688L134.564 68.5167L135.036 72.9561L134.271 76.8637L133.826 80.7279L133.609 84.63L132.99 88.4508L132.22 92.2933L129.951 95.7124L130.087 99.8045L128.811 103.49L127.08 106.99L124.817 110.176L122.646 113.383L120.725 116.645L120.877 116.9Z" fill="#41B879"/>
<path d="M120.877 116.9L118.125 119.923L115.346 122.941L112.193 125.899L111.651 129.936L112.535 133.893L112.139 137.849L111.922 141.844L112.405 145.811L111.906 149.822L111.954 153.816L111.45 157.789L111.987 161.783L111.808 166.114L107.841 165.496L104.237 166.516L100.59 166.158L97.0025 166.163L93.6593 165.658L94.8044 161.946L93.9198 157.849L94.1966 153.865L93.8004 149.947L93.4693 145.974L93.3554 141.865L91.9443 137.996L89.6377 134.62L87.7816 131.06L85.589 127.646L82.9297 124.574L79.5865 122.235L76.7101 119.44L74.8268 117.524L71.9287 115.006L68.7267 112.732L66.1379 109.666L64.7919 105.916L63.3863 102.285L61.5953 98.7625L61.3837 94.7898L59.9346 91.007L59.978 87.0235L60.8735 83.1647L61.9155 79.5013L63.0878 75.9139L64.4717 72.3808L66.6589 69.2168L69.3996 66.6768L72.2001 63.9741L76.01 63.3337L79.5648 64.5331L82.2838 66.2372L84.3353 69.3145L84.6935 73.0538L85.5022 76.7009L84.4222 80.3805L85.3882 84.1199L84.3679 87.767L84.433 91.5552L86.072 94.8658L88.6228 97.4546L93.1546 96.4505L95.0486 92.2607L95.5697 87.8864L95.7325 85.1511L94.316 81.4551L92.8723 77.7266L93.2577 73.6454L92.5304 69.7432L91.5589 65.9116L90.772 62.0908L89.7951 58.1887L90.1316 54.254L89.7951 50.3246L90.403 46.4225L89.7571 42.4226L90.2727 38.3902L92.8452 35.1719L94.7936 31.8341L97.0622 28.7461L101.192 26.8628L105.48 28.1816L108.866 30.7161L110.864 33.9507L112.41 37.4187L113.029 41.2232L114.223 45.1416L114.614 49.2283L116.15 53.0762L116.204 57.2118L116.052 61.3093L116.671 65.3851L116.719 69.4664L117.089 72.8096L119.243 76.1365L120.719 73.6942L121.338 69.4339L122.798 65.3363L125.506 61.9063L129.685 61.6512L132.42 64.6688L134.564 68.5167L135.036 72.9561L134.271 76.8637L133.826 80.7279L133.609 84.63L132.99 88.4508L132.22 92.2933L129.951 95.7124L130.087 99.8045L128.811 103.49L127.08 106.99L124.817 110.176L122.646 113.383L120.725 116.645L120.877 116.9Z" stroke="#383839" stroke-width="1.62816" stroke-linecap="round" stroke-linejoin="round"/>
<path d="M121.409 165.561L125.062 166.217L128.714 165.333L132.372 165.908L136.144 166.087L137.132 161.935L137.675 157.968L139.314 154.24L139.699 150.251L140.388 146.31L140.111 142.283L140.22 138.321L139.938 134.381L140.258 130.295L138.744 126.528L136.388 123.011L132.627 120.9L128.356 121.421L125.995 124.037L123.64 126.62L122.869 130.056L122.641 133.573L121.149 137.437L121.192 141.534L120.932 145.572L120.942 149.616L120.231 153.653L120.394 157.713L121.035 161.734L121.523 165.751L121.409 165.561Z" fill="#89CB9A"/>
<path d="M121.409 165.561L125.062 166.217L128.714 165.333L132.372 165.908L136.144 166.087L137.132 161.935L137.675 157.968L139.314 154.24L139.699 150.251L140.388 146.31L140.111 142.283L140.22 138.321L139.938 134.381L140.258 130.295L138.744 126.528L136.388 123.011L132.627 120.9L128.356 121.421L125.995 124.037L123.64 126.62L122.869 130.056L122.641 133.573L121.149 137.437L121.192 141.534L120.932 145.572L120.942 149.616L120.231 153.653L120.394 157.713L121.035 161.734L121.523 165.751L121.409 165.561Z" stroke="#383839" stroke-width="1.62816" stroke-linecap="round" stroke-linejoin="round"/>
<path d="M57.8115 106.209L61.2741 106.741L64.7421 107.066L68.21 106.051L71.6835 106.941" stroke="#383839" stroke-width="1.62816" stroke-linecap="round" stroke-linejoin="round"/>
<path d="M69.3789 80.8147L70.4155 84.6734L72.5972 87.9406L74.5619 91.3218" stroke="#383839" stroke-width="1.62816" stroke-linecap="round" stroke-linejoin="round"/>
<path d="M77.9985 55.8875L76.6796 59.1058L76.2129 62.5467L74.7964 65.7379L74.6064 69.2547" stroke="#383839" stroke-width="1.62816" stroke-linecap="round" stroke-linejoin="round"/>
<path d="M76.8682 101.899L79.7229 103.848L82.1597 106.247" stroke="#383839" stroke-width="1.62816" stroke-linecap="round" stroke-linejoin="round"/>
<path d="M75.8643 113.009L79.0175 114.235L81.6497 116.357L84.7432 117.687" stroke="#383839" stroke-width="1.62816" stroke-linecap="round" stroke-linejoin="round"/>
<path d="M77.9863 129.763L81.3023 126.349L85.0037 123.353" stroke="#383839" stroke-width="1.62816" stroke-linecap="round" stroke-linejoin="round"/>
<path d="M91.9082 129.551L95.1157 131.64L98.4805 133.453" stroke="#383839" stroke-width="1.62816" stroke-linecap="round" stroke-linejoin="round"/>
<path d="M89.8604 153.29L92.0964 156.334L94.4518 159.292" stroke="#383839" stroke-width="1.62816" stroke-linecap="round" stroke-linejoin="round"/>
<path d="M99.0918 148.514L101.024 152.823L103.803 156.6" stroke="#383839" stroke-width="1.62816" stroke-linecap="round" stroke-linejoin="round"/>
<path d="M105.031 119.218L105.139 122.729L104.635 126.246L105.064 129.768L105.199 133.285" stroke="#383839" stroke-width="1.62816" stroke-linecap="round" stroke-linejoin="round"/>
<path d="M100.974 111.994L100.16 108.602L98.0379 105.888L96.6865 102.773" stroke="#383839" stroke-width="1.62816" stroke-linecap="round" stroke-linejoin="round"/>
<path d="M86.436 84.8472L85.1063 88.3206L83.4184 91.6203L82.002 95.0558" stroke="#383839" stroke-width="1.62816" stroke-linecap="round" stroke-linejoin="round"/>
<path d="M89.8584 71.979C90.3794 72.6303 98.5799 77.9381 98.5799 77.9381L89.8584 71.979Z" fill="#41B879"/>
<path d="M89.4492 72.3049L92.6079 74.1882L95.468 76.2505L98.6484 77.8299" stroke="#383839" stroke-width="1.62816" stroke-linecap="round" stroke-linejoin="round"/>
<path d="M109.275 82.3669L108.168 86.877L108.103 91.5226" stroke="#383839" stroke-width="1.62816" stroke-linecap="round" stroke-linejoin="round"/>
<path d="M125.035 76.397L124.037 80.0386L122.495 83.4578L121.149 86.9583" stroke="#383839" stroke-width="1.62816" stroke-linecap="round" stroke-linejoin="round"/>
<path d="M120.026 103.967L118.088 106.724L115.966 109.329L113.546 111.674" stroke="#383839" stroke-width="1.62816" stroke-linecap="round" stroke-linejoin="round"/>
<path d="M91.7666 47.9746C92.4233 49.1089 100.238 54.4113 100.238 54.4113L91.7666 47.9746Z" fill="#41B879"/>
<path d="M91.6182 48.0562L94.1744 50.6504L97.0888 52.7073L100.421 54.1401" stroke="#383839" stroke-width="1.62816" stroke-linecap="round" stroke-linejoin="round"/>
<path d="M110.983 56.707L110.022 60.5441L108.497 64.1098L105.925 67.1436" stroke="#383839" stroke-width="1.62816" stroke-linecap="round" stroke-linejoin="round"/>
<path d="M111.544 28.2305L110.557 31.5574L108.744 34.5369L107.914 37.9398L106.351 41.0224" stroke="#383839" stroke-width="1.62816" stroke-linecap="round" stroke-linejoin="round"/>
<path d="M94.0127 26.0867L95.0493 29.9563L95.4672 33.9507L96.2324 37.8746" stroke="#383839" stroke-width="1.62816" stroke-linecap="round" stroke-linejoin="round"/>
<path d="M86.3066 34.6616L89.2862 37.2558L92.1355 39.9857L94.4203 43.2855" stroke="#383839" stroke-width="1.62816" stroke-linecap="round" stroke-linejoin="round"/>
<path d="M123.386 52.8428L124.743 56.7938L126.088 60.7557L127.109 64.8369" stroke="#383839" stroke-width="1.62816" stroke-linecap="round" stroke-linejoin="round"/>
<path d="M139.069 77.656L136.252 80.82L133.24 83.7996L130.32 86.866" stroke="#383839" stroke-width="1.62816" stroke-linecap="round" stroke-linejoin="round"/>
<path d="M133.119 106.127L129.803 106.632L126.487 106.192L123.171 106.735" stroke="#383839" stroke-width="1.62816" stroke-linecap="round" stroke-linejoin="round"/>
<path d="M114.186 150.12C113.019 150.581 107.651 159.563 107.651 159.563L114.186 150.12Z" fill="#41B879"/>
<path d="M114.366 150.571L112.032 153.257L109.411 156.133L107.837 159.672" stroke="#383839" stroke-width="1.62816" stroke-linecap="round" stroke-linejoin="round"/>
<path d="M116.542 162.706L120.281 162.011L123.831 160.557" stroke="#383839" stroke-width="1.62816" stroke-linecap="round" stroke-linejoin="round"/>
<path d="M129.872 153.534L129.161 157.328L127.549 160.861" stroke="#383839" stroke-width="1.62816" stroke-linecap="round" stroke-linejoin="round"/>
<path d="M117.708 139.119L120.845 142.229L122.815 146.234" stroke="#383839" stroke-width="1.62816" stroke-linecap="round" stroke-linejoin="round"/>
<path d="M132.087 139.743L131.148 143.103L130.366 146.511" stroke="#383839" stroke-width="1.62816" stroke-linecap="round" stroke-linejoin="round"/>
<path d="M144.616 138.68L141.924 141.192L139.471 143.955L136.654 146.343" stroke="#383839" stroke-width="1.62816" stroke-linecap="round" stroke-linejoin="round"/>
<path d="M140.681 119.598L139.297 122.805L137.588 125.806L135.78 128.753" stroke="#383839" stroke-width="1.62816" stroke-linecap="round" stroke-linejoin="round"/>
<path d="M127.895 117.334L127.841 120.965L129.301 124.298L129.632 127.858" stroke="#383839" stroke-width="1.62816" stroke-linecap="round" stroke-linejoin="round"/>
<path d="M117.929 209.412L121.044 206.666L117.929 203.963L115.145 206.666L117.929 209.412Z" fill="#F3F2F2"/>
<path d="M116.076 212.967L115.62 214.742L114.974 216.457L113.52 217.575L112.049 218.736L110.171 218.59L108.364 218.546L106.866 217.521L105.623 216.278L104.402 214.845L104.277 212.967" stroke="#F3F2F2" stroke-width="2.17088" stroke-linecap="round" stroke-linejoin="round"/>
<path d="M100.195 204.962L104.755 206.775L100.483 209.169" stroke="#F3F2F2" stroke-width="2.17088" stroke-linecap="round" stroke-linejoin="round"/>
</svg>
