<svg width="116" height="200" viewBox="0 0 116 200" fill="none" xmlns="http://www.w3.org/2000/svg">
<path d="M88.0946 198.527L86.5478 198.451L85.0391 198.218L83.5303 198.576L82.0215 198.647L80.5128 198.734L79.004 198.375L77.4952 198.593L75.9865 198.359L74.4777 198.506L72.9744 198.533L71.4656 198.658L69.9568 198.734L68.4481 198.262L66.9393 198.582L65.4305 198.441L63.9218 198.413L62.413 198.24L60.9042 198.338L59.3955 198.316L57.8867 198.723L56.3779 198.712L54.8692 198.544L53.3658 198.245L51.8517 198.565L50.3429 198.582L48.8341 198.631L47.3254 198.734L45.8166 198.343L44.3078 198.3L42.7936 198.641L41.2849 198.739L39.7761 198.658L38.2673 198.435H36.7532L35.239 198.218L33.7302 198.473L33.6379 196.959L33.3937 195.472L32.9432 194.017L32.5091 192.563L32.5688 191.011L32.0315 189.578L31.8144 188.08L31.2988 186.642L31.2228 185.117L31.1794 183.586L30.6313 182.154L30.5933 180.623L29.8769 179.223L29.6109 177.736L29.7955 176.167L29.3342 174.718L28.7969 173.28L28.8891 171.722L28.2921 170.301L28.265 168.77L27.7765 167.321L27.4509 165.845L27.4943 164.298L27.0384 162.844L26.5771 161.394L26.4414 159.88L26.0561 158.415L26.1701 156.852L25.7793 155.387L25.3614 153.927L25.0846 152.434L24.7373 150.904L26.3058 150.73L27.82 150.931L29.3342 151.164L30.8483 151.056L32.368 150.741L33.8822 150.839L35.3963 151.218L36.916 151.137L38.4302 150.887L39.9444 150.942L41.4585 150.844H42.9727L44.4924 150.974L46.0065 151.077L47.5207 151.148L49.0404 150.681L50.5546 150.779L52.0742 150.801L53.5884 150.985L55.1026 151.066L56.6222 150.909L58.1364 150.871L59.656 150.725L61.1702 150.708L62.6844 151.208L64.204 150.817L65.7182 151.197L67.2378 151.099H68.752L70.2662 151.159L71.7858 151.012L73.3 150.925L74.8142 150.697L76.3338 150.73L77.848 150.719L79.3676 150.687L80.8872 151.115L82.4014 150.969L83.9211 151.213L85.4407 150.898L86.9549 151.142L88.4745 151.018L89.9941 151.094L91.5137 151.115L93.0333 150.746L94.5041 150.996L94.2762 152.423L94.0482 153.899L94.0319 155.414L93.5001 156.852L93.2721 158.334L93.0822 159.821L93.3807 161.373L92.8488 162.811V164.325L92.3115 165.763L92.0836 167.245V168.759L91.9099 170.246L91.6548 171.722L91.5137 173.215L91.2641 174.691L90.8842 176.151L91.1338 177.698L90.602 179.136L90.2709 180.607L90.3035 182.121L90.1081 183.613V185.128L89.5925 186.566L89.7282 188.102L89.2072 189.545L88.811 191.005L88.9032 192.53L88.4311 193.979V195.494L88.0891 196.97V198.527H88.0946Z" fill="#383839"/>
<path d="M88.0946 198.527L86.5478 198.451L85.0391 198.218L83.5303 198.576L82.0215 198.647L80.5128 198.734L79.004 198.376L77.4952 198.593L75.9865 198.359L74.4777 198.506L72.9744 198.533L71.4656 198.658L69.9568 198.734L68.4481 198.262L66.9393 198.582L65.4305 198.441L63.9218 198.413L62.413 198.24L60.9042 198.338L59.3955 198.316L57.8867 198.723L56.3779 198.712L54.8692 198.544L53.3658 198.245L51.8517 198.565L50.3429 198.582L48.8341 198.631L47.3254 198.734L45.8166 198.343L44.3078 198.3L42.7936 198.641L41.2849 198.739L39.7761 198.658L38.2673 198.435H36.7532L35.239 198.218L33.7302 198.473L33.6379 196.959L33.3937 195.472L32.9432 194.017L32.5091 192.563L32.5688 191.011L32.0315 189.578L31.8144 188.08L31.2988 186.642L31.2228 185.117L31.1794 183.586L30.6313 182.154L30.5933 180.623L29.8769 179.223L29.6109 177.736L29.7955 176.167L29.3342 174.718L28.7969 173.28L28.8891 171.722L28.2921 170.301L28.265 168.77L27.7765 167.321L27.4509 165.845L27.4943 164.298L27.0384 162.844L26.5771 161.394L26.4414 159.88L26.0561 158.415L26.1701 156.852L25.7793 155.387L25.3614 153.927L25.0846 152.434L24.7373 150.904L26.3058 150.73L27.82 150.931L29.3342 151.164L30.8483 151.056L32.368 150.741L33.8822 150.839L35.3963 151.218L36.916 151.137L38.4302 150.887L39.9444 150.942L41.4585 150.844H42.9727L44.4924 150.974L46.0065 151.077L47.5207 151.148L49.0404 150.681L50.5546 150.779L52.0742 150.801L53.5884 150.985L55.1026 151.066L56.6222 150.909L58.1364 150.871L59.656 150.725L61.1702 150.708L62.6844 151.208L64.204 150.817L65.7182 151.197L67.2378 151.099H68.752L70.2662 151.159L71.7858 151.012L73.3 150.925L74.8142 150.697L76.3338 150.73L77.848 150.719L79.3676 150.687L80.8872 151.115L82.4014 150.969L83.9211 151.213L85.4407 150.898L86.9549 151.142L88.4745 151.018L89.9941 151.094L91.5137 151.115L93.0333 150.746L94.5041 150.996L94.2762 152.423L94.0482 153.899L94.0319 155.414L93.5001 156.852L93.2721 158.334L93.0822 159.821L93.3807 161.373L92.8488 162.811V164.325L92.3115 165.763L92.0836 167.245V168.759L91.9099 170.246L91.6548 171.722L91.5137 173.215L91.2641 174.691L90.8842 176.151L91.1338 177.698L90.602 179.136L90.2709 180.607L90.3035 182.121L90.1081 183.613V185.128L89.5925 186.566L89.7282 188.102L89.2072 189.545L88.811 191.005L88.9032 192.53L88.4311 193.979V195.494L88.0891 196.97V198.527H88.0946Z" stroke="#383839" stroke-width="1.62816" stroke-linecap="round" stroke-linejoin="round"/>
<path d="M60.4844 25.3181L59.551 26.2462L58.9431 27.641L58.0965 28.8838L57.3258 30.1809L56.8754 31.6462L55.8116 32.7914L55.258 34.1916L54.8673 35.6678L54.2974 37.0518L53.4454 38.3217L52.8321 39.7002L52.4196 41.1493L52.1482 42.6472L51.2419 43.9226L51.1659 45.4802L50.417 46.8153L50.1727 48.3078L49.5975 49.708L49.1416 51.1408L48.8919 52.6278L48.6803 54.1203L47.9639 55.4934L47.9476 57.0293L47.2583 58.4241L47.1661 59.9383L46.9381 61.4254L46.6939 62.907L46.4171 64.3832L46.2 65.8703L46.1512 67.379L45.8038 68.8552L45.4999 70.3314L45.7279 71.8673L45.2068 73.3327L45.1906 74.8414L45.4294 76.3611L45.2448 77.8535L45.2557 79.3569L44.9572 80.8548L45.2448 82.3636L44.7998 83.8615L45.0766 85.3648L44.9192 86.8681L45.0929 88.366L44.8866 89.8748L45.3262 91.3619L45.0223 92.8815L45.4402 94.3631L45.6519 95.8502L45.7496 97.3481L45.5216 98.8731L45.7279 100.366L45.7116 101.88L46.2543 103.329L46.3574 104.832L46.5854 106.319L46.9436 107.785V109.31L47.2638 110.78L47.4808 112.268L47.7251 113.749L48.1972 115.193L48.0236 116.756L48.6965 118.156L48.7671 119.676L49.3207 121.098L49.4129 122.617L49.6734 124.104L50.2542 125.51L50.4278 127.019L50.9 128.457L51.4102 129.873L51.5838 131.393L52.2297 132.636L53.7981 132.668L55.4154 132.989L57.0273 133.059L58.6392 132.712L60.2565 133.043L61.9009 132.858L61.2822 131.393L61.0217 129.895L60.631 128.435L60.5224 126.905L60.1371 125.45L59.3122 124.099L59.1765 122.574L58.7857 121.114L58.4981 119.632L58.0042 118.194L58.0693 116.642L57.5429 115.209L57.2173 113.733L57.0056 112.24L56.528 110.791L56.2458 109.304L56.3652 107.752L56.2512 106.243L55.7845 104.789L55.6759 103.28L55.1929 101.826L54.9161 100.333L54.6936 98.8406L54.7479 97.3155L54.8184 95.785L54.2649 94.3306L54.2432 92.8109L54.3408 91.2859L54.2214 89.7826L54.1563 88.2738L54.0206 86.7704L53.9447 85.2671L53.6299 83.7692L53.7004 82.255L53.3531 80.7462L53.3368 79.232L53.7601 77.7233L53.6353 76.2091L53.7004 74.7003L53.7656 73.1916L53.5919 71.6665L53.6244 70.1523L53.9121 68.6598L54.2106 67.1674L54.1455 65.6369L54.5416 64.1661L54.4223 62.6194L54.8998 61.1594L55.2146 59.6832L55.5457 58.207L56.0396 56.7742L56.1535 55.2438L56.7885 53.8544L57.2607 52.4216L57.4886 50.902L58.205 49.5615L58.7749 48.1613L59.2036 46.7013L60.0394 45.4259L60.5007 43.9552L61.3799 42.7178L62.0421 41.3447L63.019 40.1724L64.0176 39.0273L65.0704 37.9472L66.1884 36.9324L67.2196 35.8361L68.3268 34.6963L67.1925 33.6055L66.2047 32.4386L65.5046 31.0384L64.4735 29.8987L63.3663 28.8241L62.6065 27.4673L61.635 26.2679L60.4844 25.3181Z" fill="#FFF6F0"/>
<path d="M60.4844 25.3181L59.551 26.2462L58.9431 27.641L58.0965 28.8838L57.3258 30.1809L56.8754 31.6462L55.8116 32.7914L55.258 34.1916L54.8673 35.6678L54.2974 37.0518L53.4454 38.3217L52.8321 39.7002L52.4196 41.1493L52.1482 42.6472L51.2419 43.9226L51.1659 45.4802L50.417 46.8153L50.1727 48.3078L49.5975 49.708L49.1416 51.1408L48.8919 52.6278L48.6803 54.1203L47.9639 55.4934L47.9476 57.0293L47.2583 58.4241L47.1661 59.9383L46.9381 61.4254L46.6939 62.907L46.4171 64.3832L46.2 65.8703L46.1512 67.379L45.8038 68.8552L45.4999 70.3314L45.7279 71.8673L45.2068 73.3327L45.1906 74.8414L45.4294 76.3611L45.2448 77.8535L45.2557 79.3569L44.9572 80.8548L45.2448 82.3636L44.7998 83.8615L45.0766 85.3648L44.9192 86.8681L45.0929 88.366L44.8866 89.8748L45.3262 91.3619L45.0223 92.8815L45.4402 94.3631L45.6519 95.8502L45.7496 97.3481L45.5216 98.8731L45.7279 100.366L45.7116 101.88L46.2543 103.329L46.3574 104.832L46.5854 106.319L46.9436 107.785V109.31L47.2638 110.78L47.4808 112.268L47.7251 113.749L48.1972 115.193L48.0236 116.756L48.6965 118.156L48.7671 119.676L49.3207 121.098L49.4129 122.617L49.6734 124.104L50.2542 125.51L50.4278 127.019L50.9 128.457L51.4101 129.873L51.5838 131.393L52.2297 132.636L53.7981 132.668L55.4154 132.989L57.0273 133.059L58.6392 132.712L60.2565 133.043L61.9009 132.858L61.2822 131.393L61.0217 129.895L60.631 128.435L60.5224 126.905L60.1371 125.45L59.3122 124.099L59.1765 122.574L58.7857 121.114L58.4981 119.632L58.0042 118.194L58.0693 116.642L57.5429 115.209L57.2173 113.733L57.0056 112.24L56.528 110.791L56.2458 109.304L56.3652 107.752L56.2512 106.243L55.7845 104.789L55.6759 103.28L55.1929 101.826L54.9161 100.333L54.6936 98.8406L54.7479 97.3155L54.8184 95.785L54.2649 94.3305L54.2432 92.8109L54.3408 91.2859L54.2214 89.7826L54.1563 88.2738L54.0206 86.7704L53.9447 85.2671L53.6299 83.7692L53.7004 82.255L53.3531 80.7462L53.3368 79.232L53.7601 77.7233L53.6353 76.2091L53.7004 74.7003L53.7656 73.1916L53.5919 71.6665L53.6244 70.1523L53.9121 68.6598L54.2106 67.1674L54.1455 65.6369L54.5416 64.1661L54.4223 62.6194L54.8998 61.1594L55.2146 59.6832L55.5457 58.207L56.0396 56.7742L56.1535 55.2438L56.7885 53.8544L57.2607 52.4216L57.4886 50.902L58.205 49.5615L58.7749 48.1613L59.2036 46.7013L60.0394 45.4259L60.5007 43.9552L61.3799 42.7178L62.0421 41.3447L63.019 40.1724L64.0176 39.0273L65.0704 37.9472L66.1884 36.9324L67.2196 35.8361L68.3268 34.6963L67.1925 33.6055L66.2047 32.4386L65.5046 31.0384L64.4735 29.8987L63.3663 28.8241L62.6065 27.4673L61.635 26.2679L60.4844 25.3181Z" stroke="#383839" stroke-width="1.62816" stroke-linecap="round" stroke-linejoin="round"/>
<path d="M66.3425 7.32122C67.2815 7.28865 66.8039 6.80021 67.6993 6.0621C68.1172 5.72019 68.6545 5.37285 69.2298 4.96581C69.7074 4.62932 70.3424 4.46107 70.9123 4.11373C71.4278 3.79895 71.8403 3.25624 72.421 2.96317C72.9692 2.68638 73.6204 2.60497 74.2174 2.3716C74.8144 2.13823 75.3789 1.96456 75.9921 1.79089C76.6054 1.61722 77.1915 1.51953 77.8211 1.42184C78.4507 1.32415 79.0259 0.830272 79.6663 0.81399C80.3068 0.797709 80.9472 0.87369 81.5822 0.949671C82.2171 1.02565 82.7816 1.35671 83.4057 1.53038C83.9918 1.6932 84.6377 1.79089 85.2292 2.05139C85.7828 2.29562 86.3907 2.54527 86.9442 2.88719C87.4598 3.20196 87.78 3.84237 88.2956 4.24941C88.7678 4.62389 89.4408 5.0038 89.9075 5.45968C89.3214 6.29005 89.0012 5.19375 87.7583 5.25887C87.1722 5.29144 86.5209 5.76361 85.7665 5.83416C85.1316 5.89386 84.4477 5.8613 83.7422 5.95899C83.0909 6.05125 82.3691 5.87215 81.6907 6.00783C81.0123 6.14351 80.3719 6.34975 79.7152 6.52342C79.0585 6.69709 78.4507 7.04986 77.8211 7.28323C77.1915 7.5166 76.5131 7.72826 75.9324 8.03761C75.3137 8.36867 74.7059 8.70516 74.2066 9.12848C73.6693 9.57894 73.0831 10.0294 72.7358 10.5938C72.3885 11.1583 72.3559 11.8584 72.2582 12.5585C73.1266 13.0035 72.8823 12.2274 73.9244 11.6304C74.4074 11.3536 74.8416 10.7512 75.4983 10.4256C76.041 10.1596 76.7628 10.1434 77.3978 9.88286C77.9731 9.64406 78.6406 9.59522 79.281 9.38898C79.8834 9.1936 80.4316 8.74857 81.0774 8.60204C81.7233 8.45551 82.38 8.58033 83.0312 8.49349C83.6825 8.40666 84.2958 8.12445 84.9525 8.11902C85.6091 8.11902 86.2658 8.07017 86.9171 8.15701C87.5684 8.24384 88.1925 8.45551 88.8221 8.64546C89.4516 8.83541 90.0215 9.11762 90.6185 9.41069C91.2155 9.70376 91.9101 9.97512 92.4583 10.3605C92.7242 11.3482 92.1381 11.435 92.1869 12.4608C92.2358 13.4865 92.5723 13.4648 92.6265 14.4906C92.6808 15.5163 92.518 15.5217 92.5668 16.5475C92.6157 17.5732 93.0227 17.6221 92.6862 18.5881C92.3497 19.5542 92.0621 18.1105 91.0038 17.5461C90.4882 17.2693 89.9346 16.8351 89.2508 16.5583C88.6647 16.3195 87.932 16.4009 87.259 16.2218C86.6295 16.0536 86.0162 15.728 85.3432 15.6574C84.6702 15.5869 84.019 15.6737 83.3514 15.7442C82.6839 15.8148 82.0435 15.9125 81.4031 16.1459C80.8006 16.363 80.1765 16.6235 79.6012 17.0196C79.0856 17.3778 78.5321 17.9368 78.0545 18.4633C78.6732 19.2068 78.874 18.0291 80.0245 17.8826C80.5835 17.812 81.2674 18.1865 81.9783 18.1756C82.5916 18.1648 83.2375 17.9097 83.905 17.9803C84.5291 18.0454 85.1858 18.1159 85.8208 18.2842C86.4558 18.4524 87.0908 18.5935 87.6823 18.8812C88.2739 19.1688 88.7298 19.6356 89.24 20.0589C89.7175 20.4551 90.13 20.9435 90.5262 21.4862C90.8844 21.9801 91.1286 22.4848 91.4054 23.1144C91.21 24.0696 91.1232 24.0316 90.7433 24.9271C90.3634 25.8226 90.3797 25.8334 89.9998 26.7344C89.6199 27.6353 89.4788 27.5756 89.0988 28.4765C88.7189 29.3774 89.2183 29.703 88.5019 30.3706C87.7855 31.0381 88.0134 29.6651 87.1288 28.8238C86.7054 28.4168 85.9945 28.1889 85.4192 27.7167C84.9307 27.3096 84.6594 26.5335 84.0895 26.1319C83.5468 25.752 82.9227 25.4318 82.3257 25.1008C81.7287 24.7697 81.1208 24.4169 80.4967 24.1727C79.8726 23.9285 79.1399 23.8634 78.4886 23.7548C77.8374 23.6463 77.1047 23.4455 76.4372 23.5214C75.7696 23.5974 75.2432 24.1836 74.6136 24.4821C74.0438 24.7534 73.5227 24.9054 72.9909 25.3993C73.4034 26.3219 73.7181 25.2907 74.9121 25.5729C75.482 25.7086 76.0952 26.1048 76.8062 26.3436C77.4086 26.5444 77.9839 26.9189 78.6298 27.2065C79.2267 27.4725 80.0028 27.4562 80.5998 27.8089C81.1968 28.1617 81.4519 28.9215 81.9838 29.3503C82.5156 29.779 82.9552 30.2078 83.4003 30.7234C83.8453 31.2389 84.5183 31.5483 84.8548 32.1507C85.1913 32.7531 85.3052 33.3881 85.506 34.0557C85.0284 35.038 85.0067 35.0488 84.3283 35.9063C83.6499 36.7638 83.6879 36.7964 83.0095 37.6539C82.3311 38.5114 82.3962 38.6579 81.4682 39.2387C80.6867 39.7325 81.1371 38.5494 80.5944 37.5779C80.3339 37.1058 79.878 36.6499 79.5144 36.0746C79.1996 35.5753 79.1399 34.8643 78.7709 34.3487C78.4018 33.8332 78.0436 33.3284 77.642 32.8617C77.2404 32.3949 76.6 32.1127 76.1549 31.722C75.6665 31.2878 75.1998 30.8753 74.6842 30.6148C74.098 30.3163 73.4902 29.9039 72.8986 29.9256C72.3071 29.9473 71.5038 30.4086 70.9448 30.8265C71.0154 31.7708 71.8132 31.2444 72.6544 32.0205C73.0614 32.3949 73.4956 32.8617 73.9623 33.3881C74.3531 33.8332 74.5593 34.4627 74.9338 35.0109C75.2812 35.5156 75.7859 35.9335 76.0735 36.5142C76.3612 37.0949 76.6651 37.6268 76.8442 38.2509C77.0233 38.875 77.1101 39.4775 77.159 40.1233C77.2078 40.7366 77.2187 41.4041 77.1318 42.0554C76.5457 42.7555 76.2418 42.4244 75.5308 43.0051C74.8199 43.5859 74.9501 43.7378 74.2391 44.3185C73.5282 44.8992 73.5119 44.8721 72.8009 45.4474C72.09 46.0227 72.2365 46.2072 71.5255 46.7825C70.8146 47.3578 70.8797 47.5586 69.9788 47.7268C68.9476 47.9222 69.8322 46.929 69.7291 45.7242C69.6748 45.0892 69.7454 44.3565 69.6152 43.6347C69.4849 42.9129 69.2787 42.2508 69.0561 41.6212C68.8011 40.8831 68.6762 40.069 68.2421 39.6348C67.7428 39.1355 66.9341 39.027 66.1363 39.2712C65.3005 39.7814 65.4579 39.8085 65.1486 41.0242C65.0183 41.5452 65.1811 42.2345 65.1703 43.0106C65.1648 43.5858 65.0075 44.2534 65.116 44.9806C65.2083 45.5668 65.5176 46.1692 65.7076 46.8585C65.8704 47.4392 65.8921 47.971 66.1417 48.6332C65.5665 49.5395 65.4471 49.2139 64.2205 49.3387C63.5855 49.4038 62.8637 48.9696 62.0985 48.872C61.4201 48.7851 60.6982 48.8503 60.0198 48.5355C59.4066 48.2533 58.9453 47.7377 58.4025 47.2004C57.9358 46.7391 57.4039 46.3157 57.0403 45.6156C57.1543 44.7093 57.7024 45.2303 58.408 44.4162C58.7607 44.0092 59.1026 43.4665 59.5097 42.9454C59.8787 42.4787 60.0307 41.8166 60.3726 41.3119C60.7145 40.8071 61.3169 40.4109 61.5774 39.8954C61.8868 39.2821 62.131 38.6362 62.1962 38.1207C62.283 37.4368 61.8868 36.8832 61.3007 36.563C60.6114 35.9118 60.7634 35.8466 59.6182 36.1234C59.1623 36.2374 58.663 36.4979 58.0335 37.0569C57.6427 37.4043 57.3442 37.9416 56.8829 38.5385C56.541 38.9836 55.8138 39.2387 55.4338 39.8465C55.1299 40.3349 54.9617 40.9808 54.6306 41.5886C54.3484 42.1096 54.0879 42.6849 53.7894 43.2982C52.6877 43.3959 53.0459 42.6361 52.069 41.9143C51.4991 41.491 50.685 41.2359 50.1749 40.7366C49.529 40.1016 49.3391 39.396 49.312 38.8533C49.5073 37.8764 49.3337 38.0772 49.9958 37.0243C50.2943 36.5468 50.7339 36.0257 51.2006 35.4342C51.5805 34.9566 52.1992 34.6255 52.6985 34.1099C53.1327 33.6595 53.518 33.1276 54.0553 32.6717C54.5384 32.2593 55.0159 31.8088 55.5858 31.4126C56.1122 31.049 56.7527 30.8536 57.3605 30.5117C57.9195 30.1969 58.3211 29.5239 58.9507 29.2417C59.5368 28.9758 60.1121 28.7641 60.7634 28.5362C61.4201 27.9066 61.3984 27.7547 60.8014 27.1251C60.5354 26.8483 60.1989 26.4847 59.2546 26.5118C58.7716 26.5227 58.1637 26.5335 57.4365 26.6747C56.9155 26.7778 56.3348 26.9569 55.6672 27.1414C54.788 27.3748 54.8911 27.1034 53.8491 27.4779C53.3498 27.657 52.8016 27.988 52.1884 28.2648C51.6674 28.4982 51.2875 29.1115 50.7339 29.4208C50.2183 29.7085 49.6484 29.9201 49.1383 30.2729C48.6281 30.6257 48.1614 30.973 47.7109 31.3801C47.2605 31.7871 46.8263 32.1996 46.4518 32.6772C46.0773 33.1548 45.6866 33.3718 45.4206 33.9254C44.4817 33.9905 44.7097 33.7572 44.015 32.9485C43.6405 32.5143 43.4126 31.8848 43.1195 31.2932C42.8427 30.7451 42.3 30.2023 42.2457 29.5619C42.1969 28.9758 42.4628 28.3028 42.7233 27.6678C43.1086 26.7778 43.0869 27.0111 43.7979 26.0451C44.1235 25.6001 44.4437 25.0085 44.9539 24.4821C45.3664 24.0587 46.0339 23.8308 46.5821 23.3966C47.0542 23.0167 47.4667 22.4903 48.0528 22.1321C48.5738 21.8119 49.0894 21.3831 49.7081 21.1009C50.2671 20.8458 51.0161 20.9869 51.6565 20.7753C52.2426 20.5853 52.7691 20.0697 53.4258 19.9286C54.0336 19.7984 54.6849 19.7441 55.3524 19.6681C55.9711 19.5976 56.617 19.5487 57.29 19.527C57.9087 19.5053 58.5816 19.6518 59.2546 19.6844C60.1447 19.3642 60.682 18.7943 59.9601 18.1485C59.6996 17.9151 59.1298 17.7415 58.1529 17.5895C57.176 17.3778 57.4311 17.2367 56.2208 17.0305C55.6509 16.9328 54.978 16.7808 54.2344 16.7157C53.6157 16.656 52.9265 16.884 52.2209 16.8785C51.5751 16.8785 50.9293 17.0576 50.2454 17.1173C49.5616 17.177 48.8886 16.9165 48.2211 17.0576C47.5535 17.1987 46.9837 17.5569 46.3433 17.7849C45.7029 18.0128 44.9539 17.9694 44.3623 18.295C43.7708 18.6207 43.4234 19.2936 42.897 19.7224C42.3705 20.1511 41.9255 20.2488 41.4805 20.7753C40.4547 20.4334 41.0952 20.1783 40.8998 18.9572C40.7967 18.3276 40.7044 17.6329 40.8455 16.8514C40.9649 16.2001 41.2797 15.614 41.6921 14.9356C42.0286 14.382 42.4574 13.8827 43.0652 13.3509C43.7545 12.7104 43.4668 12.6996 44.4492 12.108C44.9159 11.8258 45.3664 11.2722 46.0231 11.0063C46.5604 10.7892 47.217 10.6535 47.8737 10.5016C48.4545 10.3713 49.1274 10.659 49.7895 10.621C50.3865 10.583 51.0161 10.2411 51.6728 10.3062C52.2698 10.3659 52.8613 10.659 53.5072 10.8163C54.0879 10.9629 54.7066 11.0823 55.3199 11.3211C55.8789 11.5382 56.4704 12.0103 57.0566 12.3197C57.9466 12.222 57.9684 11.6087 57.9629 10.8977C57.9629 10.5396 57.9629 10.062 57.0512 9.63863C56.2588 9.16647 56.5627 9.02536 55.6075 8.47179C55.1408 8.20585 54.5384 7.9562 53.9142 7.68484C53.3824 7.4569 52.7474 7.3375 52.1232 7.16383C51.548 7.00644 50.9076 7.06071 50.2834 6.99559C49.6593 6.93046 49.0949 6.99559 48.4707 7.05528C47.8792 7.11498 47.3202 7.25609 46.7177 7.46233C46.1587 7.65228 45.6974 7.66856 45.1439 8.00505C44.8074 7.10956 45.4858 7.51117 46.3161 6.69166C46.7069 6.3009 47.0271 5.67677 47.5807 5.23174C48.0474 4.85726 48.8126 4.83555 49.3825 4.47193C49.8981 4.14087 50.4137 3.81524 51.0107 3.53302C51.5697 3.26709 52.1287 3.02286 52.7528 2.83291C53.3769 2.64296 53.9034 2.24677 54.5492 2.16537C55.195 2.08396 55.8138 2.05139 56.4704 2.08396C57.0837 2.11109 57.7187 2.23592 58.3645 2.37703C58.9615 2.51271 59.5585 2.74065 60.1772 2.98488C60.7417 3.21282 61.4146 3.31051 61.9953 3.64157C62.5218 3.94006 62.9505 4.47193 63.4878 4.86811C63.9763 5.22631 64.5407 5.55194 65.04 5.99698C65.4959 6.40402 65.8921 6.85448 66.3534 7.3375L66.3425 7.32122Z" fill="#89CB9A"/>
<path d="M66.3425 7.32122C67.2814 7.28865 66.8039 6.80021 67.6993 6.0621C68.1172 5.72019 68.6545 5.37285 69.2298 4.9658C69.7074 4.62932 70.3424 4.46107 70.9123 4.11373C71.4278 3.79895 71.8403 3.25624 72.421 2.96317C72.9692 2.68638 73.6204 2.60497 74.2174 2.3716C74.8144 2.13823 75.3789 1.96456 75.9921 1.79089C76.6054 1.61722 77.1915 1.51953 77.8211 1.42184C78.4507 1.32415 79.0259 0.830272 79.6663 0.81399C80.3068 0.797709 80.9472 0.87369 81.5822 0.949671C82.2171 1.02565 82.7816 1.35671 83.4057 1.53038C83.9918 1.6932 84.6377 1.79089 85.2292 2.05139C85.7828 2.29562 86.3907 2.54527 86.9442 2.88719C87.4598 3.20196 87.78 3.84237 88.2956 4.24941C88.7678 4.62389 89.4408 5.0038 89.9075 5.45968C89.3214 6.29005 89.0012 5.19375 87.7583 5.25887C87.1722 5.29144 86.5209 5.76361 85.7665 5.83416C85.1316 5.89386 84.4477 5.8613 83.7422 5.95899C83.0909 6.05125 82.3691 5.87215 81.6907 6.00783C81.0123 6.14351 80.3719 6.34975 79.7152 6.52342C79.0585 6.69709 78.4507 7.04986 77.8211 7.28323C77.1915 7.5166 76.5131 7.72826 75.9324 8.03761C75.3137 8.36867 74.7059 8.70516 74.2066 9.12848C73.6693 9.57894 73.0831 10.0294 72.7358 10.5938C72.3885 11.1583 72.3559 11.8584 72.2582 12.5585C73.1266 13.0035 72.8823 12.2274 73.9244 11.6304C74.4074 11.3536 74.8416 10.7512 75.4983 10.4256C76.041 10.1596 76.7628 10.1434 77.3978 9.88286C77.9731 9.64406 78.6406 9.59522 79.281 9.38898C79.8834 9.1936 80.4316 8.74857 81.0774 8.60204C81.7233 8.45551 82.38 8.58033 83.0312 8.49349C83.6825 8.40666 84.2958 8.12445 84.9525 8.11902C85.6091 8.11902 86.2658 8.07017 86.9171 8.15701C87.5684 8.24384 88.1925 8.45551 88.8221 8.64546C89.4516 8.83541 90.0215 9.11762 90.6185 9.41069C91.2155 9.70376 91.9101 9.97512 92.4583 10.3605C92.7242 11.3482 92.1381 11.435 92.1869 12.4608C92.2358 13.4865 92.5723 13.4648 92.6265 14.4906C92.6808 15.5163 92.518 15.5217 92.5668 16.5475C92.6157 17.5732 93.0227 17.6221 92.6862 18.5881C92.3497 19.5542 92.0621 18.1105 91.0038 17.5461C90.4882 17.2693 89.9346 16.8351 89.2508 16.5583C88.6647 16.3195 87.932 16.4009 87.259 16.2218C86.6295 16.0536 86.0162 15.728 85.3432 15.6574C84.6702 15.5869 84.019 15.6737 83.3514 15.7442C82.6839 15.8148 82.0435 15.9125 81.4031 16.1459C80.8006 16.363 80.1765 16.6235 79.6012 17.0196C79.0856 17.3778 78.5321 17.9368 78.0545 18.4633C78.6732 19.2068 78.874 18.0291 80.0245 17.8826C80.5835 17.812 81.2674 18.1865 81.9783 18.1756C82.5916 18.1648 83.2375 17.9097 83.905 17.9803C84.5291 18.0454 85.1858 18.1159 85.8208 18.2842C86.4558 18.4524 87.0908 18.5935 87.6823 18.8812C88.2739 19.1688 88.7298 19.6356 89.24 20.0589C89.7175 20.4551 90.13 20.9435 90.5262 21.4862C90.8844 21.9801 91.1286 22.4848 91.4054 23.1144C91.21 24.0696 91.1232 24.0316 90.7433 24.9271C90.3634 25.8226 90.3797 25.8334 89.9998 26.7344C89.6199 27.6353 89.4788 27.5756 89.0988 28.4765C88.7189 29.3774 89.2183 29.703 88.5019 30.3706C87.7855 31.0381 88.0134 29.6651 87.1288 28.8238C86.7054 28.4168 85.9945 28.1889 85.4192 27.7167C84.9307 27.3096 84.6594 26.5335 84.0895 26.1319C83.5468 25.752 82.9227 25.4318 82.3257 25.1008C81.7287 24.7697 81.1208 24.4169 80.4967 24.1727C79.8726 23.9285 79.1399 23.8634 78.4886 23.7548C77.8374 23.6463 77.1047 23.4455 76.4372 23.5214C75.7696 23.5974 75.2432 24.1836 74.6136 24.4821C74.0438 24.7534 73.5227 24.9054 72.9909 25.3993C73.4033 26.3219 73.7181 25.2907 74.9121 25.5729C75.482 25.7086 76.0952 26.1048 76.8062 26.3436C77.4086 26.5444 77.9839 26.9189 78.6298 27.2065C79.2268 27.4725 80.0028 27.4562 80.5998 27.8089C81.1968 28.1617 81.4519 28.9215 81.9838 29.3503C82.5156 29.779 82.9552 30.2078 83.4003 30.7234C83.8453 31.2389 84.5183 31.5483 84.8548 32.1507C85.1913 32.7531 85.3052 33.3881 85.506 34.0557C85.0284 35.038 85.0067 35.0488 84.3283 35.9063C83.6499 36.7638 83.6879 36.7964 83.0095 37.6539C82.3311 38.5114 82.3962 38.6579 81.4682 39.2387C80.6867 39.7325 81.1371 38.5494 80.5944 37.5779C80.3339 37.1058 79.878 36.6499 79.5144 36.0746C79.1996 35.5753 79.1399 34.8643 78.7709 34.3487C78.4018 33.8332 78.0436 33.3284 77.642 32.8617C77.2404 32.3949 76.6 32.1127 76.1549 31.722C75.6665 31.2878 75.1998 30.8753 74.6842 30.6148C74.098 30.3163 73.4902 29.9039 72.8986 29.9256C72.3071 29.9473 71.5038 30.4086 70.9448 30.8265C71.0154 31.7708 71.8132 31.2444 72.6544 32.0205C73.0614 32.3949 73.4956 32.8617 73.9623 33.3881C74.3531 33.8332 74.5593 34.4627 74.9338 35.0109C75.2812 35.5156 75.7859 35.9335 76.0735 36.5142C76.3612 37.0949 76.6651 37.6268 76.8442 38.2509C77.0233 38.875 77.1101 39.4775 77.159 40.1233C77.2078 40.7366 77.2187 41.4041 77.1318 42.0554C76.5457 42.7555 76.2418 42.4244 75.5308 43.0051C74.8199 43.5859 74.9501 43.7378 74.2391 44.3185C73.5282 44.8992 73.5119 44.8721 72.8009 45.4474C72.09 46.0227 72.2365 46.2072 71.5255 46.7825C70.8146 47.3578 70.8797 47.5586 69.9788 47.7268C68.9476 47.9222 69.8322 46.929 69.7291 45.7242C69.6748 45.0892 69.7454 44.3565 69.6152 43.6347C69.4849 42.9129 69.2787 42.2508 69.0561 41.6212C68.8011 40.8831 68.6762 40.069 68.2421 39.6348C67.7428 39.1355 66.9341 39.027 66.1363 39.2712C65.3005 39.7814 65.4579 39.8085 65.1486 41.0242C65.0183 41.5452 65.1811 42.2345 65.1703 43.0106C65.1648 43.5859 65.0075 44.2534 65.116 44.9806C65.2083 45.5668 65.5176 46.1692 65.7076 46.8585C65.8704 47.4392 65.8921 47.971 66.1417 48.6332C65.5665 49.5395 65.4471 49.2139 64.2205 49.3387C63.5855 49.4038 62.8637 48.9696 62.0985 48.872C61.4201 48.7851 60.6982 48.8503 60.0198 48.5355C59.4066 48.2533 58.9453 47.7377 58.4025 47.2004C57.9358 46.7391 57.4039 46.3157 57.0403 45.6156C57.1543 44.7093 57.7024 45.2303 58.408 44.4162C58.7607 44.0092 59.1026 43.4665 59.5097 42.9454C59.8787 42.4787 60.0307 41.8166 60.3726 41.3119C60.7145 40.8071 61.3169 40.4109 61.5774 39.8954C61.8868 39.2821 62.131 38.6362 62.1962 38.1207C62.283 37.4368 61.8868 36.8832 61.3007 36.563C60.6114 35.9118 60.7634 35.8466 59.6182 36.1234C59.1623 36.2374 58.663 36.4979 58.0335 37.0569C57.6427 37.4043 57.3442 37.9416 56.8829 38.5385C56.541 38.9836 55.8138 39.2387 55.4338 39.8465C55.1299 40.3349 54.9617 40.9808 54.6306 41.5886C54.3484 42.1097 54.0879 42.6849 53.7894 43.2982C52.6877 43.3959 53.0459 42.6361 52.069 41.9143C51.4991 41.491 50.685 41.2359 50.1749 40.7366C49.529 40.1016 49.3391 39.396 49.312 38.8533C49.5073 37.8764 49.3337 38.0772 49.9958 37.0244C50.2943 36.5468 50.7339 36.0257 51.2006 35.4342C51.5805 34.9566 52.1992 34.6255 52.6985 34.1099C53.1327 33.6595 53.518 33.1276 54.0553 32.6717C54.5384 32.2593 55.0159 31.8088 55.5858 31.4126C56.1122 31.049 56.7527 30.8536 57.3605 30.5117C57.9195 30.1969 58.3211 29.5239 58.9507 29.2417C59.5368 28.9758 60.1121 28.7641 60.7634 28.5362C61.4201 27.9066 61.3984 27.7547 60.8014 27.1251C60.5354 26.8483 60.1989 26.4847 59.2546 26.5118C58.7716 26.5227 58.1637 26.5335 57.4365 26.6747C56.9155 26.7778 56.3348 26.9569 55.6672 27.1414C54.788 27.3748 54.8911 27.1034 53.8491 27.4779C53.3498 27.657 52.8016 27.988 52.1884 28.2648C51.6674 28.4982 51.2875 29.1115 50.7339 29.4208C50.2183 29.7085 49.6484 29.9201 49.1383 30.2729C48.6281 30.6257 48.1614 30.973 47.7109 31.3801C47.2605 31.7871 46.8263 32.1996 46.4518 32.6772C46.0773 33.1548 45.6866 33.3718 45.4206 33.9254C44.4817 33.9905 44.7097 33.7572 44.015 32.9485C43.6405 32.5143 43.4126 31.8848 43.1195 31.2932C42.8427 30.7451 42.3 30.2023 42.2457 29.5619C42.1969 28.9758 42.4628 28.3028 42.7233 27.6678C43.1086 26.7778 43.0869 27.0111 43.7979 26.0451C44.1235 25.6001 44.4437 25.0085 44.9539 24.4821C45.3664 24.0587 46.0339 23.8308 46.5821 23.3966C47.0542 23.0167 47.4667 22.4903 48.0528 22.1321C48.5738 21.8119 49.0894 21.3831 49.7081 21.1009C50.2671 20.8458 51.0161 20.9869 51.6565 20.7753C52.2426 20.5853 52.7691 20.0697 53.4258 19.9286C54.0336 19.7984 54.6849 19.7441 55.3524 19.6681C55.9711 19.5976 56.617 19.5487 57.29 19.527C57.9087 19.5053 58.5816 19.6518 59.2546 19.6844C60.1447 19.3642 60.682 18.7943 59.9601 18.1485C59.6996 17.9151 59.1298 17.7415 58.1529 17.5895C57.176 17.3778 57.4311 17.2367 56.2208 17.0305C55.6509 16.9328 54.978 16.7808 54.2344 16.7157C53.6157 16.656 52.9265 16.884 52.2209 16.8785C51.5751 16.8785 50.9293 17.0576 50.2454 17.1173C49.5616 17.177 48.8886 16.9165 48.2211 17.0576C47.5535 17.1987 46.9837 17.5569 46.3433 17.7849C45.7029 18.0128 44.9539 17.9694 44.3623 18.295C43.7708 18.6207 43.4234 19.2936 42.897 19.7224C42.3705 20.1511 41.9255 20.2488 41.4805 20.7753C40.4547 20.4334 41.0952 20.1783 40.8998 18.9572C40.7967 18.3276 40.7044 17.6329 40.8455 16.8514C40.9649 16.2001 41.2797 15.614 41.6921 14.9356C42.0286 14.382 42.4574 13.8827 43.0652 13.3509C43.7545 12.7104 43.4668 12.6996 44.4492 12.108C44.9159 11.8258 45.3664 11.2722 46.0231 11.0063C46.5604 10.7892 47.217 10.6535 47.8737 10.5016C48.4545 10.3713 49.1274 10.659 49.7895 10.621C50.3865 10.583 51.0161 10.2411 51.6728 10.3062C52.2698 10.3659 52.8613 10.659 53.5072 10.8163C54.0879 10.9629 54.7066 11.0823 55.3199 11.3211C55.8789 11.5382 56.4704 12.0103 57.0566 12.3197C57.9466 12.222 57.9684 11.6087 57.9629 10.8977C57.9629 10.5396 57.9629 10.062 57.0512 9.63863C56.2588 9.16647 56.5627 9.02536 55.6075 8.47179C55.1408 8.20585 54.5384 7.9562 53.9142 7.68484C53.3824 7.4569 52.7474 7.3375 52.1232 7.16383C51.548 7.00644 50.9076 7.06071 50.2834 6.99559C49.6593 6.93046 49.0949 6.99559 48.4707 7.05529C47.8792 7.11498 47.3202 7.25609 46.7177 7.46233C46.1587 7.65228 45.6974 7.66856 45.1439 8.00505C44.8074 7.10956 45.4858 7.51117 46.3161 6.69166C46.7069 6.3009 47.0271 5.67677 47.5807 5.23174C48.0474 4.85726 48.8126 4.83555 49.3825 4.47193C49.8981 4.14087 50.4137 3.81524 51.0107 3.53302C51.5697 3.26709 52.1287 3.02286 52.7528 2.83291C53.3769 2.64296 53.9034 2.24677 54.5492 2.16537C55.195 2.08396 55.8138 2.05139 56.4704 2.08396C57.0837 2.11109 57.7187 2.23592 58.3645 2.37703C58.9615 2.51271 59.5585 2.74065 60.1772 2.98488C60.7417 3.21282 61.4146 3.31051 61.9953 3.64157C62.5218 3.94006 62.9505 4.47193 63.4878 4.86812C63.9763 5.22631 64.5407 5.55194 65.04 5.99698C65.4959 6.40402 65.8921 6.85448 66.3534 7.3375L66.3425 7.32122Z" stroke="#383839" stroke-width="1.62816" stroke-linecap="round" stroke-linejoin="round"/>
<path d="M33.9638 63.1021C33.0032 63.2975 33.2148 62.7656 32.1185 62.2175C31.6192 61.9678 31.0765 61.5716 30.3981 61.2731C29.8391 61.0343 29.1987 60.8878 28.542 60.6436C27.9559 60.4265 27.3209 60.2908 26.6642 60.0954C26.0563 59.9109 25.4702 59.5961 24.8135 59.4387C24.1568 59.2813 23.5598 59.1185 22.8977 59.0045C22.2356 58.8906 21.644 58.4835 20.9819 58.4238C20.3198 58.3641 19.6576 58.337 18.9955 58.3316C18.3334 58.3261 17.6876 58.6138 17.0309 58.6735C16.3742 58.7332 15.7609 58.9611 15.1096 59.086C14.4584 59.2108 13.7691 59.0914 13.1341 59.2868C12.4992 59.4821 11.989 59.9435 11.3757 60.2094C10.7624 60.4753 10.122 60.6001 9.54132 60.9366C8.96061 61.2731 8.45045 61.6476 7.91316 62.0492C7.37586 62.4508 7.09365 63.0695 6.59977 63.5308C6.13303 63.965 5.63373 64.3666 5.1887 64.8714C4.76538 65.349 4.3909 65.8645 3.98928 66.4127C3.60938 66.9229 3.1155 67.3082 2.75731 67.8835C3.40857 68.6053 3.45199 67.8509 4.64055 67.6012C5.18327 67.4873 5.82911 67.3733 6.55093 67.2485C7.14249 67.1454 7.77748 66.988 8.46673 66.8903C9.08001 66.8034 9.71499 66.5809 10.3825 66.505C11.0121 66.4344 11.6796 66.5538 12.3363 66.505C12.993 66.4561 13.6172 66.315 14.2739 66.2933C14.9305 66.2716 15.571 66.2607 16.2222 66.2716C16.8735 66.2824 17.541 66.1196 18.1869 66.1739C18.8327 66.2282 19.4731 66.5321 20.1027 66.6352C20.7322 66.7383 21.3564 67.0097 21.9696 67.1834C22.6155 67.3625 23.3753 67.1942 23.9506 67.4493C24.5584 67.7206 25.0306 68.2688 25.5407 68.6378C26.0509 69.0069 26.637 69.3977 27.0441 69.9024C27.4511 70.4071 27.7985 71.1778 28.0481 71.8019C27.3209 72.426 27.2395 71.4437 26.0943 71.091C25.5733 70.9281 24.9492 70.7545 24.2491 70.5754C23.6738 70.4288 23.0442 70.3149 22.3767 70.1792C21.7797 70.0598 21.1284 70.1032 20.4663 70.0055C19.853 69.9132 19.2289 69.821 18.5776 69.7613C17.9264 69.7016 17.3294 69.6799 16.6727 69.6527C16.016 69.6256 15.419 69.593 14.7677 69.6147C14.1165 69.6365 13.5086 69.6473 12.8682 69.7124C12.2278 69.7776 11.6091 69.821 10.9795 69.9404C10.35 70.0598 9.75298 70.2335 9.13428 70.4125C8.51558 70.5916 7.93487 70.7816 7.33787 71.0258C6.74088 71.2701 6.21987 71.5848 5.65544 71.8942C5.09101 72.2035 4.39632 72.2524 3.86988 72.6323C3.34345 73.0122 2.80615 73.3541 2.32856 73.7937C1.85096 74.2333 1.24311 74.7543 0.819791 75.2536C0.787228 76.1708 1.31909 76.1491 1.49277 77.0446C1.66644 77.9401 1.68272 77.9401 1.86182 78.841C2.04091 79.7419 2.16574 79.7148 2.33941 80.6157C2.51308 81.5166 2.37197 81.5438 2.54565 82.4447C2.71932 83.3456 2.54565 83.3782 2.71932 84.2845C2.89299 85.1908 2.7356 85.256 3.25661 86.0104C3.80476 86.8136 3.75591 85.587 4.61884 84.7675C5.02588 84.3822 5.27011 83.6604 5.83454 83.1991C6.3067 82.8137 7.08822 82.7649 7.65265 82.3741C8.16824 82.0159 8.58613 81.4678 9.16684 81.1367C9.74756 80.8057 10.4042 80.7514 11.0121 80.4909C11.6199 80.2304 12.1898 80.0241 12.8248 79.8505C13.4598 79.6768 13.9971 79.1124 14.6538 79.0364C15.3104 78.9604 15.9726 79.1124 16.6293 79.1504C17.286 79.1884 17.8938 79.3837 18.5396 79.5466C19.1475 79.6985 19.6902 80.0567 20.3035 80.3389C20.8679 80.5994 21.5083 80.7297 22.0728 81.1096C21.682 81.9671 21.3455 81.0553 20.1949 81.1639C19.6522 81.2127 19.0172 81.3104 18.3226 81.4244C17.7418 81.5221 17.1557 81.7988 16.5099 81.9617C15.9183 82.1082 15.2996 82.2113 14.6863 82.423C14.073 82.6346 13.4869 82.7866 12.9062 83.0634C12.3255 83.3402 11.7773 83.617 11.24 83.9643C10.7027 84.3116 10.1492 84.6156 9.67157 85.0389C9.19398 85.4622 8.7001 85.8747 8.29849 86.374C7.89688 86.8733 7.91316 87.606 7.60381 88.1758C7.31074 88.7131 6.95254 89.207 6.74631 89.8257C6.55636 90.401 6.31213 90.96 6.20359 91.6112C6.67033 92.5502 6.82772 92.447 7.45727 93.2882C8.08683 94.1295 8.09226 94.124 8.72181 94.9653C9.35137 95.8065 9.24825 95.8825 9.88324 96.7237C10.5182 97.5649 10.4585 97.6083 11.0881 98.4495C11.7176 99.2908 11.5385 99.5621 12.434 100.11C13.3295 100.658 12.8085 99.3125 13.4598 98.2487C13.7637 97.7494 14.3607 97.3207 14.7894 96.6965C15.1476 96.1755 15.5547 95.6437 15.9943 95.0738C16.3959 94.5528 16.689 93.9287 17.1448 93.4022C17.6007 92.8758 18.0132 92.3711 18.5016 91.888C18.9901 91.405 19.56 91.0468 20.081 90.6126C20.602 90.1785 21.0144 89.5869 21.5789 89.2233C22.1433 88.8596 22.8597 88.7294 23.473 88.4635C24.0863 88.1975 24.6453 87.6494 25.3074 87.5083C25.9695 87.3672 26.6859 87.3889 27.3697 87.4106C28.0535 87.4323 28.7374 87.492 29.4103 87.6874C30.029 87.8665 30.3547 88.2409 30.9842 88.5883C30.854 89.5652 30.5718 88.9736 29.4755 89.5055C28.9653 89.7497 28.4443 90.1676 27.7985 90.5312C27.2666 90.8297 26.6533 91.074 26.0672 91.4593C25.5407 91.8012 25.0469 92.2299 24.5041 92.6424C23.994 93.0278 23.4513 93.3859 22.952 93.8364C22.4527 94.2869 21.8991 94.6233 21.4486 95.1118C20.9982 95.6002 20.6345 96.1375 20.2438 96.6694C19.853 97.2013 19.3266 97.6463 19.0064 98.227C18.6862 98.8077 18.5559 99.4699 18.3226 100.094C18.0892 100.718 18.1217 101.375 17.9861 102.026C17.8504 102.677 17.7147 103.122 17.6821 103.795C18.2249 104.49 18.29 104.36 18.9847 104.902C19.6794 105.445 19.5437 105.619 20.2384 106.162C20.933 106.704 20.8299 106.84 21.5246 107.383C22.2193 107.925 22.3224 107.795 23.0225 108.332C23.7226 108.87 23.6087 109.195 24.4716 109.375C25.4431 109.575 24.5367 108.55 24.8406 107.377C24.9872 106.824 25.4865 106.265 25.6981 105.559C25.8827 104.962 25.8935 104.268 26.1269 103.616C26.344 103.008 26.4688 102.341 26.7293 101.717C26.9898 101.093 27.4945 100.61 27.7876 100.023C28.0807 99.4373 28.2761 98.7697 28.6288 98.227C29.0033 97.6463 29.4918 97.1959 29.9205 96.7291C30.3927 96.2081 30.8268 95.7305 31.3587 95.4049C31.9394 95.0521 32.5473 94.9164 33.204 94.8676C33.8172 94.8242 34.6313 94.759 35.3097 95.0412C35.4997 96.0127 34.7724 95.7576 34.0832 96.7562C33.7575 97.223 33.3288 97.7331 32.9597 98.3736C32.6504 98.9054 32.2216 99.4264 31.9231 100.061C31.6518 100.637 31.6138 101.331 31.3859 101.972C31.1688 102.58 30.6478 103.112 30.4958 103.768C30.3438 104.425 30.5121 105.098 30.4415 105.765C30.371 106.433 30.4795 107.046 30.5121 107.719C30.5446 108.392 30.3275 109.043 30.4741 109.7C30.6206 110.357 30.8703 110.905 31.1253 111.535C31.9557 112.132 31.9666 112.126 32.8892 112.56C33.8118 112.994 33.8335 112.956 34.7562 113.396C35.6788 113.836 35.6299 113.939 36.558 114.373C37.486 114.807 37.5077 114.758 38.4304 115.198C39.353 115.638 39.429 115.486 40.357 115.925C41.2851 116.365 41.1657 116.935 42.186 116.989C43.2063 117.043 42.186 116.012 41.9689 114.834C41.8658 114.254 41.4316 113.624 41.3448 112.897C41.2634 112.256 41.3285 111.562 41.2959 110.878C41.2634 110.194 41.1603 109.51 41.1983 108.859C41.2417 108.148 41.3448 107.448 41.5185 106.851C41.7247 106.134 42.034 105.445 42.4845 105.027C42.935 104.609 43.6025 104.664 44.3895 104.707C45.2849 104.989 45.0244 104.919 45.6811 105.923C45.9633 106.357 46.4138 106.845 46.6852 107.529C46.8914 108.045 47.1519 108.647 47.3093 109.326C47.4395 109.885 47.2822 110.552 47.3581 111.231C47.4233 111.806 47.5264 112.425 47.5372 113.098C47.5481 113.684 47.6838 114.319 47.6404 114.981C47.6024 115.572 47.4721 116.088 47.3907 116.745C48.1234 117.461 48.1505 117.173 49.3662 117.065C49.9686 117.016 50.609 116.538 51.3417 116.365C51.9713 116.213 52.7257 116.278 53.3823 115.996C53.9902 115.73 54.674 115.453 55.2439 115.035C55.7812 114.644 56.1828 114.02 56.6387 113.472C57.0566 112.973 57.2465 112.3 57.5613 111.649C57.8381 111.068 58.3211 110.46 58.4948 109.749C58.1529 108.897 57.6264 109.624 56.7147 108.995C56.2751 108.691 55.7703 108.305 55.2276 107.904C54.7609 107.556 54.5275 106.84 54.0336 106.438C53.5397 106.037 53.1218 105.63 52.6714 105.223C52.2209 104.816 51.434 104.702 51.0324 104.268C50.5873 103.79 50.5873 102.998 50.2726 102.525C49.8818 101.945 49.4096 101.532 49.3174 101.006C49.2088 100.376 49.4368 99.8715 49.9415 99.4047C50.4625 98.6015 50.2129 98.455 51.3037 98.1999C51.7813 98.0859 52.4814 97.8634 53.2684 98.1185C53.7731 98.2813 54.2887 98.748 54.94 99.1388C55.4176 99.4319 55.9548 99.7846 56.5193 100.23C56.9752 100.588 57.5884 100.87 58.104 101.348C58.5382 101.749 58.777 102.422 59.2546 102.916C59.6725 103.35 60.0415 103.871 60.492 104.376C60.8936 104.827 61.42 105.467 61.8542 105.988C62.7443 105.988 62.4621 105.293 63.1513 104.512C63.5041 104.116 63.6778 103.464 64.074 102.965C64.4376 102.509 64.888 102.097 65.2191 101.608C65.5719 101.087 65.9138 100.588 66.1363 100.094C66.4294 99.4427 66.4185 98.9434 66.3262 98.4712C65.9029 97.592 66.1417 97.7494 65.2842 96.8594C64.9043 96.4632 64.2096 96.2569 63.6506 95.7685C63.2056 95.3777 62.7172 94.9707 62.1527 94.5528C61.6643 94.1892 61.2572 93.6465 60.6819 93.2774C60.1609 92.9463 59.6671 92.5013 59.0701 92.1811C58.5219 91.8826 57.9249 91.6112 57.3116 91.3345C56.7364 91.074 56.1611 90.7483 55.5369 90.5149C54.9454 90.2979 54.3592 89.9614 53.7188 89.7714C53.111 89.5923 52.4272 89.6032 51.7759 89.4566C51.1246 89.3101 50.4734 89.4566 49.8167 89.3481C49.16 89.2396 48.4761 89.1636 47.814 89.0984C46.9674 88.61 47.1953 88.1053 47.2713 87.2369C47.3147 86.7647 47.3744 86.0375 48.3079 85.6793C48.7801 85.4948 49.4639 85.4079 50.278 85.2994C50.837 85.2288 51.4991 85.1637 52.2426 85.142C52.8342 85.1257 53.4855 85.5273 54.2073 85.549C55.157 85.5599 54.9345 85.4079 56.1014 85.5111C56.6441 85.5599 57.3062 85.4622 58.0118 85.5653C58.5979 85.6522 59.2654 85.5925 59.9221 85.7336C60.5191 85.8584 61.1324 86.0972 61.762 86.2763C62.3915 86.4554 62.88 86.9167 63.4878 87.1392C64.0957 87.3617 64.7144 87.4703 65.2951 87.7471C65.8758 88.0239 66.4294 88.3224 66.9667 88.6643C67.504 89.0062 68.1064 89.2884 68.584 89.7009C69.0616 90.1133 69.4306 90.7917 69.8322 91.2856C70.8308 91.1174 70.3587 90.5258 70.9285 89.4946C71.2216 88.9682 71.5038 88.3332 71.7426 87.6494C71.9543 87.0307 71.9977 86.3577 72.0628 85.6739C72.1279 84.99 72.4536 84.2899 72.2799 83.617C72.1171 83.0037 71.5635 82.4827 71.1293 81.902C70.5269 81.1042 70.8308 81.1367 69.8974 80.3064C69.474 79.9319 68.7468 79.7636 68.1281 79.324C67.6288 78.9713 67.1946 78.4177 66.5705 78.0649C66.0278 77.7556 65.4308 77.4354 64.7903 77.1477C64.2096 76.8872 63.6126 76.5562 62.9505 76.3336C62.3427 76.1274 61.6534 76.1057 60.9804 75.9483C60.3563 75.8018 59.6671 75.9049 58.9887 75.8018C58.3537 75.7095 57.7187 75.4381 57.0349 75.3947C56.389 75.3567 55.7269 75.3405 55.0376 75.3567C54.3918 75.373 53.7297 75.3893 53.0404 75.4599C52.4 75.525 51.727 75.563 51.0541 75.6769C50.4137 75.7855 49.8004 76.0948 49.1328 76.2522C48.5033 76.3988 47.8195 76.529 47.1573 76.7244C46.3107 76.6756 46.0719 76.3336 45.73 75.7692C45.5129 75.4164 45.5563 74.9063 46.3704 74.3473C46.7232 74.1085 47.2713 73.9402 47.9334 73.6635C48.8343 73.213 48.5901 73.2727 49.7298 72.7517C50.2508 72.5075 50.837 72.1493 51.5425 71.8725C52.1232 71.6445 52.7528 71.3786 53.4312 71.1561C54.0445 70.9553 54.6577 70.6188 55.3361 70.4451C55.9711 70.2823 56.6821 70.3474 57.3605 70.228C58.0389 70.1086 58.701 70.2172 59.3794 70.152C60.0578 70.0869 60.6928 69.669 61.3766 69.6636C62.0605 69.6582 62.7389 69.6636 63.4173 69.7287C64.0957 69.7938 64.6655 70.38 65.3276 70.5265C65.9898 70.6731 66.7116 70.5157 67.352 70.749C67.9924 70.9824 68.4917 71.46 69.0941 71.7802C69.6965 72.1004 70.3153 72.3284 70.8797 72.73C71.7535 72.3121 70.82 71.943 70.8417 70.7979C70.8525 70.2335 70.9285 69.6093 70.7928 68.9038C70.6789 68.3122 70.4238 67.7586 70.1416 67.1345C69.8919 66.5809 69.6423 66.0382 69.2135 65.5009C68.8391 65.0288 68.6165 64.3504 68.0738 63.9162C67.6016 63.5417 67.0589 63.1564 66.4402 62.8362C65.5556 62.3423 65.7347 62.4508 64.557 62.0384C64.0088 61.8484 63.2762 61.957 62.5272 61.7996C61.9139 61.6747 61.2627 61.6422 60.5408 61.5825C59.9004 61.5336 59.26 61.5011 58.549 61.5391C57.9032 61.5716 57.2682 61.6639 56.5735 61.7887C55.9386 61.9081 55.2439 61.8484 54.5709 62.0601C53.9522 62.2554 53.3335 62.516 52.6931 62.809C52.1015 63.0804 51.5154 63.4006 50.913 63.7642C50.354 64.0953 49.8112 64.486 49.2468 64.9094C48.7258 65.2947 48.1342 65.5606 47.6078 66.0274C46.4084 66.1359 46.023 65.8157 45.7951 64.8822C45.6811 64.4155 45.8114 63.8131 46.8643 62.961C47.5589 62.2934 47.3636 62.4074 48.1885 61.577C48.5793 61.1809 49.0514 60.7413 49.5996 60.2799C50.0609 59.8946 50.571 59.5093 51.1301 59.1239C51.6402 58.7712 52.2372 58.5432 52.8179 58.2285C53.3715 57.93 53.8925 57.5718 54.5058 57.3384C55.1191 57.105 55.6509 56.7088 56.2859 56.5732C56.9209 56.4375 57.5613 56.3941 58.218 56.3669C58.8747 56.3398 59.4771 56.5297 60.1338 56.6166C60.7471 56.698 61.2789 56.7414 61.9193 56.9422C62.1039 55.9762 61.4309 56.4972 60.4052 55.8513C59.9276 55.5528 59.2654 55.3954 58.6087 55.0535C58.0715 54.7713 57.6319 54.1635 56.9969 53.8867C56.4216 53.637 55.7975 53.3982 55.1516 53.1811C54.5492 52.9803 53.8599 52.9803 53.2087 52.8338C52.5574 52.6873 51.9496 52.5407 51.2874 52.4593C50.6253 52.3779 49.9958 52.443 49.3282 52.443C48.6607 52.443 48.0148 52.2477 47.3527 52.3345C46.6906 52.4213 46.1316 52.8284 45.4857 53.002C44.8399 53.1757 44.1669 53.1269 43.5482 53.3928C42.9621 53.6425 42.5605 54.272 41.9798 54.6139C41.437 54.9341 40.916 55.2815 40.3787 55.6885C39.874 56.0684 39.0654 56.1173 38.5661 56.5786C38.1047 57.0073 37.638 57.4958 37.1875 58.0005C36.7696 58.4727 36.7045 59.2651 36.2921 59.8023C35.9122 60.3071 35.1849 60.5947 34.8104 61.1646C34.4631 61.6964 34.3165 62.4942 33.9801 63.0858L33.9638 63.1021Z" fill="#41B879"/>
<path d="M33.9638 63.1021C33.0032 63.2975 33.2148 62.7656 32.1185 62.2175C31.6192 61.9678 31.0765 61.5716 30.3981 61.2731C29.8391 61.0343 29.1987 60.8878 28.542 60.6436C27.9559 60.4265 27.3209 60.2908 26.6642 60.0954C26.0563 59.9109 25.4702 59.5961 24.8135 59.4387C24.1568 59.2813 23.5598 59.1185 22.8977 59.0045C22.2356 58.8906 21.644 58.4835 20.9819 58.4238C20.3198 58.3641 19.6576 58.337 18.9955 58.3316C18.3334 58.3261 17.6876 58.6138 17.0309 58.6735C16.3742 58.7332 15.7609 58.9611 15.1096 59.086C14.4584 59.2108 13.7691 59.0914 13.1341 59.2868C12.4992 59.4821 11.989 59.9435 11.3757 60.2094C10.7624 60.4753 10.122 60.6001 9.54132 60.9366C8.96061 61.2731 8.45045 61.6476 7.91316 62.0492C7.37586 62.4508 7.09365 63.0695 6.59977 63.5308C6.13303 63.965 5.63373 64.3666 5.1887 64.8714C4.76538 65.349 4.3909 65.8645 3.98928 66.4127C3.60938 66.9229 3.1155 67.3082 2.75731 67.8835C3.40857 68.6053 3.45199 67.8509 4.64055 67.6012C5.18327 67.4873 5.82911 67.3733 6.55093 67.2485C7.14249 67.1454 7.77748 66.988 8.46673 66.8903C9.08001 66.8034 9.71499 66.5809 10.3825 66.505C11.0121 66.4344 11.6796 66.5538 12.3363 66.505C12.993 66.4561 13.6172 66.315 14.2739 66.2933C14.9305 66.2716 15.571 66.2607 16.2222 66.2716C16.8735 66.2824 17.541 66.1196 18.1869 66.1739C18.8327 66.2282 19.4731 66.5321 20.1027 66.6352C20.7322 66.7383 21.3564 67.0097 21.9696 67.1834C22.6155 67.3625 23.3753 67.1942 23.9506 67.4493C24.5584 67.7206 25.0306 68.2688 25.5407 68.6378C26.0509 69.0069 26.637 69.3977 27.0441 69.9024C27.4511 70.4071 27.7985 71.1778 28.0481 71.8019C27.3209 72.426 27.2395 71.4437 26.0943 71.091C25.5733 70.9281 24.9492 70.7545 24.2491 70.5754C23.6738 70.4288 23.0442 70.3149 22.3767 70.1792C21.7797 70.0598 21.1284 70.1032 20.4663 70.0055C19.853 69.9132 19.2289 69.821 18.5776 69.7613C17.9264 69.7016 17.3294 69.6799 16.6727 69.6527C16.016 69.6256 15.419 69.593 14.7677 69.6147C14.1165 69.6365 13.5086 69.6473 12.8682 69.7124C12.2278 69.7776 11.6091 69.821 10.9795 69.9404C10.35 70.0598 9.75298 70.2335 9.13428 70.4125C8.51558 70.5916 7.93487 70.7816 7.33787 71.0258C6.74088 71.2701 6.21987 71.5848 5.65544 71.8942C5.09101 72.2035 4.39632 72.2524 3.86989 72.6323C3.34345 73.0122 2.80615 73.3541 2.32856 73.7937C1.85096 74.2333 1.24311 74.7543 0.819791 75.2536C0.787228 76.1708 1.31909 76.1491 1.49277 77.0446C1.66644 77.9401 1.68272 77.9401 1.86182 78.841C2.04091 79.7419 2.16574 79.7148 2.33941 80.6157C2.51308 81.5166 2.37197 81.5438 2.54565 82.4447C2.71932 83.3456 2.54565 83.3782 2.71932 84.2845C2.89299 85.1909 2.7356 85.256 3.25661 86.0104C3.80476 86.8136 3.75591 85.587 4.61884 84.7675C5.02588 84.3822 5.27011 83.6604 5.83454 83.1991C6.3067 82.8137 7.08822 82.7649 7.65265 82.3741C8.16824 82.0159 8.58613 81.4678 9.16684 81.1367C9.74756 80.8057 10.4042 80.7514 11.0121 80.4909C11.6199 80.2304 12.1898 80.0241 12.8248 79.8505C13.4598 79.6768 13.9971 79.1124 14.6538 79.0364C15.3104 78.9604 15.9726 79.1124 16.6293 79.1504C17.286 79.1884 17.8938 79.3837 18.5396 79.5466C19.1475 79.6985 19.6902 80.0567 20.3035 80.3389C20.8679 80.5994 21.5083 80.7297 22.0728 81.1096C21.682 81.9671 21.3455 81.0553 20.1949 81.1639C19.6522 81.2127 19.0172 81.3104 18.3226 81.4244C17.7418 81.5221 17.1557 81.7988 16.5099 81.9617C15.9183 82.1082 15.2996 82.2113 14.6863 82.423C14.073 82.6346 13.4869 82.7866 12.9062 83.0634C12.3255 83.3402 11.7773 83.617 11.24 83.9643C10.7027 84.3116 10.1492 84.6156 9.67157 85.0389C9.19398 85.4622 8.7001 85.8747 8.29849 86.374C7.89688 86.8733 7.91316 87.606 7.60381 88.1758C7.31074 88.7131 6.95254 89.207 6.74631 89.8257C6.55636 90.401 6.31213 90.96 6.20359 91.6112C6.67033 92.5502 6.82772 92.447 7.45727 93.2883C8.08683 94.1295 8.09226 94.124 8.72181 94.9653C9.35137 95.8065 9.24825 95.8825 9.88324 96.7237C10.5182 97.5649 10.4585 97.6083 11.0881 98.4495C11.7176 99.2908 11.5385 99.5621 12.434 100.11C13.3295 100.658 12.8085 99.3125 13.4598 98.2487C13.7637 97.7494 14.3607 97.3207 14.7894 96.6965C15.1476 96.1755 15.5547 95.6437 15.9943 95.0738C16.3959 94.5528 16.689 93.9287 17.1448 93.4022C17.6007 92.8758 18.0132 92.3711 18.5016 91.888C18.9901 91.405 19.56 91.0468 20.081 90.6126C20.602 90.1785 21.0144 89.5869 21.5789 89.2233C22.1433 88.8596 22.8597 88.7294 23.473 88.4635C24.0863 88.1975 24.6453 87.6494 25.3074 87.5083C25.9695 87.3672 26.6859 87.3889 27.3697 87.4106C28.0535 87.4323 28.7374 87.492 29.4103 87.6874C30.029 87.8665 30.3547 88.2409 30.9842 88.5883C30.854 89.5652 30.5718 88.9736 29.4755 89.5055C28.9653 89.7497 28.4443 90.1676 27.7985 90.5312C27.2666 90.8297 26.6533 91.074 26.0672 91.4593C25.5407 91.8012 25.0469 92.23 24.5041 92.6424C23.994 93.0278 23.4513 93.3859 22.952 93.8364C22.4527 94.2869 21.8991 94.6233 21.4486 95.1118C20.9982 95.6002 20.6345 96.1375 20.2438 96.6694C19.853 97.2013 19.3266 97.6463 19.0064 98.227C18.6862 98.8077 18.5559 99.4699 18.3226 100.094C18.0892 100.718 18.1217 101.375 17.9861 102.026C17.8504 102.677 17.7147 103.122 17.6821 103.795C18.2249 104.49 18.29 104.36 18.9847 104.902C19.6794 105.445 19.5437 105.619 20.2384 106.162C20.933 106.704 20.8299 106.84 21.5246 107.383C22.2193 107.925 22.3224 107.795 23.0225 108.332C23.7226 108.87 23.6087 109.195 24.4716 109.375C25.4431 109.575 24.5367 108.55 24.8406 107.377C24.9872 106.824 25.4865 106.265 25.6981 105.559C25.8827 104.962 25.8935 104.268 26.1269 103.616C26.344 103.008 26.4688 102.341 26.7293 101.717C26.9898 101.093 27.4945 100.61 27.7876 100.023C28.0807 99.4373 28.2761 98.7697 28.6288 98.227C29.0033 97.6463 29.4918 97.1959 29.9205 96.7291C30.3927 96.2081 30.8268 95.7305 31.3587 95.4049C31.9394 95.0521 32.5473 94.9164 33.204 94.8676C33.8172 94.8242 34.6313 94.759 35.3097 95.0412C35.4997 96.0127 34.7724 95.7576 34.0832 96.7562C33.7575 97.223 33.3288 97.7331 32.9597 98.3736C32.6504 98.9054 32.2216 99.4264 31.9231 100.061C31.6518 100.637 31.6138 101.331 31.3859 101.972C31.1688 102.58 30.6478 103.112 30.4958 103.768C30.3438 104.425 30.5121 105.098 30.4415 105.765C30.371 106.433 30.4795 107.046 30.5121 107.719C30.5446 108.392 30.3275 109.043 30.4741 109.7C30.6206 110.357 30.8703 110.905 31.1253 111.535C31.9557 112.132 31.9666 112.126 32.8892 112.56C33.8118 112.994 33.8335 112.956 34.7562 113.396C35.6788 113.836 35.6299 113.939 36.558 114.373C37.486 114.807 37.5077 114.758 38.4304 115.198C39.353 115.638 39.429 115.486 40.357 115.925C41.2851 116.365 41.1657 116.935 42.186 116.989C43.2063 117.043 42.186 116.012 41.9689 114.834C41.8658 114.254 41.4316 113.624 41.3448 112.897C41.2634 112.256 41.3285 111.562 41.2959 110.878C41.2634 110.194 41.1603 109.51 41.1983 108.859C41.2417 108.148 41.3448 107.448 41.5185 106.851C41.7247 106.134 42.034 105.445 42.4845 105.027C42.935 104.609 43.6025 104.664 44.3895 104.707C45.2849 104.989 45.0244 104.919 45.6811 105.923C45.9633 106.357 46.4138 106.845 46.6852 107.529C46.8914 108.045 47.1519 108.647 47.3093 109.326C47.4395 109.885 47.2822 110.552 47.3581 111.231C47.4233 111.806 47.5264 112.425 47.5372 113.098C47.5481 113.684 47.6838 114.319 47.6404 114.981C47.6024 115.572 47.4721 116.088 47.3907 116.745C48.1234 117.461 48.1505 117.173 49.3662 117.065C49.9686 117.016 50.609 116.538 51.3417 116.365C51.9713 116.213 52.7257 116.278 53.3823 115.996C53.9902 115.73 54.674 115.453 55.2439 115.035C55.7812 114.644 56.1828 114.02 56.6387 113.472C57.0566 112.973 57.2465 112.3 57.5613 111.649C57.8381 111.068 58.3211 110.46 58.4948 109.749C58.1529 108.897 57.6264 109.624 56.7147 108.995C56.2751 108.691 55.7703 108.305 55.2276 107.904C54.7609 107.556 54.5275 106.84 54.0336 106.438C53.5397 106.037 53.1218 105.63 52.6714 105.223C52.2209 104.816 51.434 104.702 51.0324 104.268C50.5873 103.79 50.5873 102.998 50.2726 102.525C49.8818 101.945 49.4096 101.532 49.3174 101.006C49.2088 100.376 49.4368 99.8715 49.9415 99.4047C50.4625 98.6015 50.2129 98.455 51.3037 98.1999C51.7813 98.0859 52.4814 97.8634 53.2684 98.1185C53.7731 98.2813 54.2887 98.748 54.94 99.1388C55.4176 99.4319 55.9548 99.7846 56.5193 100.23C56.9752 100.588 57.5884 100.87 58.104 101.348C58.5382 101.749 58.777 102.422 59.2546 102.916C59.6725 103.35 60.0415 103.871 60.492 104.376C60.8936 104.827 61.42 105.467 61.8542 105.988C62.7443 105.988 62.4621 105.293 63.1513 104.512C63.5041 104.116 63.6778 103.464 64.074 102.965C64.4376 102.509 64.888 102.097 65.2191 101.608C65.5719 101.087 65.9138 100.588 66.1363 100.094C66.4294 99.4427 66.4185 98.9434 66.3262 98.4712C65.9029 97.592 66.1417 97.7494 65.2842 96.8594C64.9043 96.4632 64.2096 96.2569 63.6506 95.7685C63.2056 95.3777 62.7172 94.9707 62.1527 94.5528C61.6643 94.1892 61.2572 93.6465 60.6819 93.2774C60.1609 92.9463 59.6671 92.5013 59.0701 92.1811C58.5219 91.8826 57.9249 91.6112 57.3116 91.3345C56.7364 91.074 56.1611 90.7483 55.537 90.5149C54.9454 90.2979 54.3592 89.9614 53.7188 89.7714C53.111 89.5923 52.4272 89.6032 51.7759 89.4566C51.1246 89.3101 50.4734 89.4566 49.8167 89.3481C49.16 89.2396 48.4761 89.1636 47.814 89.0984C46.9674 88.61 47.1953 88.1053 47.2713 87.2369C47.3147 86.7647 47.3744 86.0375 48.3079 85.6793C48.7801 85.4948 49.4639 85.4079 50.278 85.2994C50.837 85.2288 51.4991 85.1637 52.2426 85.142C52.8342 85.1257 53.4855 85.5273 54.2073 85.549C55.157 85.5599 54.9345 85.4079 56.1014 85.5111C56.6441 85.5599 57.3062 85.4622 58.0118 85.5653C58.5979 85.6522 59.2654 85.5925 59.9221 85.7336C60.5191 85.8584 61.1324 86.0972 61.762 86.2763C62.3915 86.4554 62.88 86.9167 63.4878 87.1392C64.0957 87.3617 64.7144 87.4703 65.2951 87.7471C65.8758 88.0239 66.4294 88.3224 66.9667 88.6643C67.504 89.0062 68.1064 89.2884 68.584 89.7009C69.0616 90.1133 69.4306 90.7917 69.8322 91.2856C70.8308 91.1174 70.3587 90.5258 70.9285 89.4946C71.2216 88.9682 71.5038 88.3332 71.7426 87.6494C71.9543 87.0307 71.9977 86.3577 72.0628 85.6739C72.1279 84.99 72.4536 84.2899 72.2799 83.617C72.1171 83.0037 71.5635 82.4827 71.1293 81.902C70.5269 81.1042 70.8308 81.1367 69.8974 80.3064C69.474 79.9319 68.7468 79.7636 68.1281 79.324C67.6288 78.9713 67.1946 78.4177 66.5705 78.0649C66.0278 77.7556 65.4308 77.4354 64.7903 77.1477C64.2096 76.8872 63.6126 76.5562 62.9505 76.3336C62.3427 76.1274 61.6534 76.1057 60.9804 75.9483C60.3563 75.8018 59.6671 75.9049 58.9887 75.8018C58.3537 75.7095 57.7187 75.4381 57.0349 75.3947C56.389 75.3567 55.7269 75.3405 55.0376 75.3567C54.3918 75.373 53.7297 75.3893 53.0404 75.4599C52.4 75.525 51.727 75.563 51.0541 75.6769C50.4137 75.7855 49.8004 76.0948 49.1328 76.2522C48.5033 76.3988 47.8195 76.529 47.1573 76.7244C46.3107 76.6756 46.0719 76.3336 45.73 75.7692C45.5129 75.4164 45.5563 74.9063 46.3704 74.3473C46.7232 74.1085 47.2713 73.9402 47.9334 73.6635C48.8343 73.213 48.5901 73.2727 49.7298 72.7517C50.2508 72.5075 50.837 72.1493 51.5425 71.8725C52.1232 71.6445 52.7528 71.3786 53.4312 71.1561C54.0445 70.9553 54.6577 70.6188 55.3361 70.4451C55.9711 70.2823 56.6821 70.3474 57.3605 70.228C58.0389 70.1086 58.701 70.2172 59.3794 70.152C60.0578 70.0869 60.6928 69.669 61.3766 69.6636C62.0605 69.6582 62.7389 69.6636 63.4173 69.7287C64.0957 69.7939 64.6655 70.38 65.3276 70.5265C65.9898 70.6731 66.7116 70.5157 67.352 70.749C67.9924 70.9824 68.4917 71.46 69.0941 71.7802C69.6965 72.1004 70.3153 72.3284 70.8797 72.73C71.7535 72.3121 70.82 71.943 70.8417 70.7979C70.8525 70.2335 70.9285 69.6093 70.7928 68.9038C70.6789 68.3122 70.4238 67.7586 70.1416 67.1345C69.8919 66.5809 69.6423 66.0382 69.2135 65.5009C68.839 65.0288 68.6165 64.3504 68.0738 63.9162C67.6016 63.5417 67.0589 63.1564 66.4402 62.8362C65.5556 62.3423 65.7347 62.4508 64.557 62.0384C64.0088 61.8484 63.2762 61.957 62.5272 61.7996C61.9139 61.6747 61.2627 61.6422 60.5408 61.5825C59.9004 61.5336 59.26 61.5011 58.5491 61.5391C57.9032 61.5716 57.2682 61.6639 56.5735 61.7887C55.9386 61.9081 55.2439 61.8484 54.5709 62.0601C53.9522 62.2554 53.3335 62.516 52.6931 62.809C52.1015 63.0804 51.5154 63.4006 50.913 63.7642C50.354 64.0953 49.8112 64.486 49.2468 64.9094C48.7258 65.2947 48.1342 65.5606 47.6078 66.0274C46.4084 66.1359 46.023 65.8157 45.7951 64.8822C45.6811 64.4155 45.8114 63.8131 46.8643 62.961C47.5589 62.2934 47.3636 62.4074 48.1885 61.577C48.5793 61.1809 49.0514 60.7413 49.5996 60.2799C50.0609 59.8946 50.571 59.5093 51.1301 59.1239C51.6402 58.7712 52.2372 58.5432 52.8179 58.2285C53.3715 57.93 53.8925 57.5718 54.5058 57.3384C55.1191 57.105 55.6509 56.7088 56.2859 56.5732C56.9209 56.4375 57.5613 56.3941 58.218 56.3669C58.8747 56.3398 59.4771 56.5297 60.1338 56.6166C60.7471 56.698 61.2789 56.7414 61.9193 56.9422C62.1039 55.9762 61.4309 56.4972 60.4052 55.8513C59.9276 55.5528 59.2654 55.3954 58.6088 55.0535C58.0715 54.7713 57.6319 54.1635 56.9969 53.8867C56.4216 53.637 55.7975 53.3982 55.1516 53.1811C54.5492 52.9803 53.8599 52.9803 53.2087 52.8338C52.5574 52.6873 51.9496 52.5407 51.2874 52.4593C50.6253 52.3779 49.9958 52.443 49.3282 52.443C48.6607 52.443 48.0148 52.2477 47.3527 52.3345C46.6906 52.4213 46.1316 52.8284 45.4858 53.002C44.8399 53.1757 44.1669 53.1269 43.5482 53.3928C42.9621 53.6425 42.5605 54.272 41.9798 54.6139C41.4371 54.9341 40.916 55.2815 40.3787 55.6885C39.874 56.0684 39.0654 56.1173 38.5661 56.5786C38.1047 57.0073 37.638 57.4958 37.1875 58.0005C36.7696 58.4727 36.7045 59.2651 36.2921 59.8023C35.9121 60.3071 35.1849 60.5947 34.8104 61.1646C34.4631 61.6964 34.3165 62.4942 33.9801 63.0858L33.9638 63.1021Z" stroke="#383839" stroke-width="1.62816" stroke-linecap="round" stroke-linejoin="round"/>
<path d="M93.057 99.4536L91.4885 99.9366L90.0449 100.447L88.7206 101.223L87.4615 102.086L86.273 103.046L84.9379 103.795L83.8361 104.848L82.6639 105.814L81.5079 106.813L80.7046 108.143L79.5215 109.114L78.6043 110.324L77.7088 111.545L76.6451 112.647L75.6248 113.792L74.9192 115.149L74.0129 116.381L73.4864 117.83L72.8135 119.187L72.1513 120.555L71.2124 121.792L70.7023 123.23L70.0239 124.598L69.5083 126.031L69.1555 127.523L68.7376 128.983L68.4934 130.497L67.9833 131.925L67.6413 133.406L66.8598 134.779L66.7513 136.315L66.3605 137.786L66.2031 139.089L67.7065 139.224L69.2804 139.268L70.8271 139.045L72.3847 138.871L73.9261 138.551L75.5162 138.871L77.0467 138.264L78.664 138.519L78.6857 136.912L78.9245 135.42L78.8648 133.895L79.3315 132.435L79.6735 130.964L79.5486 129.417L79.8688 127.946L80.4875 126.53L80.8132 125.065L80.9326 123.55L81.345 122.101L81.5241 120.593L82.1917 119.209L82.539 117.743L82.9786 116.305L83.5376 114.91L84.0532 113.499L84.2269 111.942L84.9216 110.59L85.6325 109.255L86.3598 107.92L87.3584 106.775L88.3299 105.619L89.5944 104.789L90.5822 103.567L92.0529 103.106L93.5671 103.15L94.8317 103.063L94.3107 101.901L93.6105 100.745L93.057 99.4536Z" fill="#FFF6F0"/>
<path d="M93.057 99.4536L91.4885 99.9366L90.0449 100.447L88.7206 101.223L87.4615 102.086L86.273 103.046L84.9379 103.795L83.8361 104.848L82.6639 105.814L81.5079 106.813L80.7046 108.143L79.5215 109.114L78.6043 110.324L77.7088 111.545L76.6451 112.647L75.6248 113.792L74.9192 115.149L74.0129 116.381L73.4864 117.83L72.8135 119.187L72.1513 120.555L71.2124 121.792L70.7023 123.23L70.0239 124.598L69.5083 126.031L69.1555 127.523L68.7376 128.983L68.4934 130.497L67.9833 131.925L67.6413 133.406L66.8598 134.779L66.7513 136.315L66.3605 137.786L66.2031 139.089L67.7065 139.224L69.2804 139.268L70.8271 139.045L72.3847 138.871L73.9261 138.551L75.5162 138.871L77.0467 138.264L78.664 138.519L78.6857 136.912L78.9245 135.42L78.8648 133.895L79.3315 132.435L79.6735 130.964L79.5486 129.417L79.8688 127.946L80.4875 126.53L80.8132 125.065L80.9326 123.55L81.345 122.101L81.5241 120.593L82.1917 119.209L82.539 117.743L82.9786 116.305L83.5376 114.91L84.0532 113.499L84.2269 111.942L84.9216 110.59L85.6325 109.255L86.3598 107.92L87.3584 106.775L88.3299 105.619L89.5944 104.789L90.5822 103.567L92.0529 103.106L93.5671 103.15L94.8317 103.063L94.3107 101.901L93.6105 100.745L93.057 99.4536Z" stroke="#383839" stroke-width="1.62816" stroke-linecap="round" stroke-linejoin="round"/>
<path d="M89.0397 85.6413C90.0328 85.4297 89.4141 84.7404 90.2119 83.8015C90.5918 83.351 91.0477 82.8409 91.5904 82.3144C92.0463 81.8694 92.4262 81.2507 92.9798 80.8057C93.4954 80.3986 94.2389 80.2684 94.8359 79.9048C95.4329 79.5411 95.8617 78.9387 96.4967 78.6728C97.1316 78.4068 97.8643 78.4991 98.5373 78.3471C99.2103 78.1952 99.8452 78.3092 100.54 78.2929C101.191 78.2766 101.864 78.0269 102.559 78.1518C103.194 78.2657 103.758 78.6945 104.426 78.9387C105.028 79.1612 105.707 79.2535 106.331 79.6008C106.89 79.9156 107.373 80.3878 107.943 80.8165C108.458 81.1964 109.028 81.4678 109.555 81.9454C109.072 82.8517 108.811 82.0648 107.579 82.233C106.987 82.309 106.271 82.233 105.528 82.3741C104.893 82.4935 104.252 82.8029 103.563 82.9874C102.917 83.1557 102.201 83.1882 101.549 83.4162C100.898 83.6441 100.404 84.2302 99.7964 84.5233C99.1886 84.8164 98.5644 85.104 98.0217 85.4894C97.4518 85.8964 96.7137 86.1189 96.285 86.6345C95.8562 87.1501 95.8834 87.9533 95.65 88.6046C95.4329 89.2179 95.015 89.9885 95.0422 90.7212C95.9648 91.0305 95.5089 89.8366 96.4315 89.0876C96.8657 88.7348 97.5061 88.4743 98.1085 88.0727C98.6133 87.7308 99.1831 87.416 99.7855 87.085C100.334 86.7865 100.958 86.5911 101.571 86.336C102.184 86.0809 102.743 85.8258 103.378 85.6522C104.013 85.4785 104.648 85.5599 105.3 85.4839C105.951 85.408 106.559 85.0226 107.215 85.066C107.872 85.1095 108.42 85.5545 109.066 85.7173C109.674 85.8693 110.45 85.6142 111.058 85.8964C111.622 86.1569 111.975 86.7322 112.539 87.1121C112.936 88.1216 112.947 88.1161 113.158 89.1799C113.37 90.2436 113.066 90.3033 113.278 91.367C113.489 92.4308 113.799 92.3711 114.01 93.4402C114.222 94.5094 114.629 94.5257 114.51 95.6111C114.406 96.5283 113.614 95.3995 112.637 94.8947C112.154 94.6451 111.731 94.0861 111.101 93.8418C110.553 93.6248 109.994 93.2828 109.375 93.1309C108.757 92.9789 108.127 93.0657 107.508 93.0169C106.89 92.9681 106.293 93.1092 105.685 93.2123C105.077 93.3154 104.523 93.4728 103.959 93.7604C103.438 94.0264 102.819 94.2272 102.353 94.6885C101.951 95.0901 101.555 95.7739 101.213 96.3492C101.908 96.9516 101.984 95.8716 103.064 95.6491C103.59 95.5406 104.214 95.394 104.893 95.3506C105.468 95.3126 106.081 95.6437 106.722 95.7034C107.313 95.7577 107.997 95.4537 108.605 95.622C109.175 95.7848 109.609 96.3655 110.168 96.664C110.689 96.9408 111.454 96.9191 111.942 97.337C112.382 97.7169 112.686 98.3193 113.082 98.8295C113.435 99.2853 113.598 99.8335 113.907 100.409C113.875 101.391 113.983 101.407 113.788 102.368C113.592 103.329 113.527 103.318 113.332 104.278C113.136 105.239 113.061 105.228 112.865 106.189C112.67 107.149 112.919 107.231 112.371 108.05C111.823 108.87 112.051 107.442 111.183 106.661C110.765 106.286 110.298 105.803 109.744 105.358C109.267 104.978 108.48 104.946 107.932 104.566C107.411 104.208 107.025 103.611 106.461 103.296C105.897 102.981 105.327 102.634 104.741 102.401C104.154 102.167 103.454 102.107 102.841 101.999C102.184 101.88 101.511 101.576 100.893 101.668C100.274 101.76 99.6607 102.156 99.0963 102.52C98.6024 102.84 98.3202 103.253 97.9023 103.833C98.3962 104.696 98.5156 104.056 99.6987 104.306C100.263 104.425 101.012 104.246 101.718 104.474C102.309 104.658 102.825 105.217 103.465 105.499C104.046 105.755 104.605 106.102 105.191 106.455C105.745 106.786 106.483 106.894 107.009 107.323C107.536 107.752 108.002 108.219 108.458 108.723C108.914 109.228 108.947 109.977 109.31 110.558C109.652 111.1 109.924 111.475 110.19 112.11C109.918 113.119 110.206 113.228 109.734 114.161C109.261 115.095 108.996 114.965 108.523 115.898C108.051 116.832 108.404 117.081 107.639 117.803C106.966 118.438 107.188 117.211 106.58 116.278C106.287 115.822 105.902 115.328 105.506 114.775C105.164 114.292 104.838 113.765 104.442 113.266C104.046 112.767 103.775 112.208 103.362 111.752C102.95 111.296 102.472 110.851 102.027 110.455C101.533 110.015 100.92 109.825 100.421 109.543C99.8181 109.201 99.3188 108.946 98.7598 108.951C98.2008 108.957 97.4736 109.119 96.9797 109.651C97.1425 110.628 97.6635 110.189 98.5644 110.981C98.9932 111.355 99.7476 111.545 100.252 112.077C100.676 112.528 101.077 113.081 101.495 113.635C101.88 114.14 102.13 114.78 102.472 115.372C102.798 115.931 103.226 116.468 103.476 117.092C103.726 117.716 103.623 118.411 103.769 119.068C103.916 119.724 104.252 120.37 104.279 121.048C103.753 121.96 103.351 121.667 102.678 122.47C102.005 123.274 102.293 123.518 101.62 124.321C100.947 125.124 100.703 124.923 100.024 125.732C99.3459 126.541 99.6173 126.78 98.7164 127.322C97.9403 127.789 98.6892 126.704 98.4667 125.662C98.3528 125.135 98.2279 124.527 98.0597 123.898C97.9023 123.328 97.7015 122.747 97.4953 122.177C97.289 121.607 96.806 121.141 96.5401 120.636C96.2199 120.034 95.9811 119.534 95.5849 119.198C95.0856 118.78 94.4723 118.34 93.8536 118.622C93.0992 119.312 93.8536 119.431 93.7885 120.788C93.7613 121.342 93.7451 121.982 93.8645 122.785C93.9567 123.377 93.8753 124.082 94.0924 124.82C94.2661 125.417 94.4832 126.069 94.7599 126.758C94.9987 127.344 95.3081 127.946 95.6337 128.603C95.2321 129.537 94.8576 128.961 93.7016 129.157C93.1046 129.254 92.4262 129.314 91.6881 129.222C91.064 129.146 90.4996 128.804 89.8483 128.478C89.2947 128.202 88.5946 128.06 88.0628 127.534C87.6232 127.105 87.5092 126.53 87.113 125.895C87.113 124.999 87.4603 125.396 87.9705 124.473C88.231 124.006 88.4372 123.409 88.7195 122.829C88.9745 122.302 89.1319 121.7 89.3544 121.141C89.577 120.582 89.5335 119.92 89.6692 119.371C89.832 118.726 90.0383 118.183 90.0003 117.656C89.946 116.989 89.7072 116.533 89.1645 116.245C88.4915 115.638 88.5566 115.323 87.5635 115.708C87.1618 115.865 86.8254 116.338 86.3369 117.016C86.0438 117.418 85.6748 117.874 85.3654 118.53C85.1375 119.008 85.0561 119.616 84.8227 120.262C84.6382 120.777 84.1823 121.26 83.9923 121.895C83.8295 122.432 83.7481 122.926 83.5853 123.556C82.4727 123.697 82.7441 123.154 81.7401 122.443C81.1593 122.031 80.329 121.759 79.7971 121.26C79.1404 120.647 78.8311 119.816 78.7225 119.263C78.7334 118.335 78.6628 118.509 79.0536 117.429C79.2327 116.929 79.542 116.365 79.846 115.735C80.0956 115.22 80.6926 114.851 81.04 114.292C81.3493 113.792 81.5664 113.212 81.9626 112.701C82.3262 112.235 82.8201 111.866 83.2705 111.404C83.6884 110.976 84.0575 110.493 84.5514 110.085C85.0127 109.706 85.3817 109.168 85.919 108.821C86.4183 108.495 87.1239 108.333 87.6937 108.045C88.3124 107.095 88.2527 106.254 87.1727 105.749C86.7439 105.548 85.9787 105.879 84.877 106.145C84.2854 106.292 83.5365 106.362 82.6844 106.715C81.7781 107.068 81.892 106.873 80.8663 107.437C80.367 107.708 79.9762 108.327 79.3901 108.74C78.8853 109.092 78.1255 109.19 77.6208 109.646C77.1541 110.069 76.9207 110.758 76.5082 111.279C76.0958 111.8 75.5747 112.208 75.2762 112.794C74.9777 113.38 74.8638 114.118 74.701 114.764C73.7403 114.948 74.1474 114.031 73.3822 113.206C72.9805 112.772 72.4541 112.359 72.1013 111.757C71.7757 111.209 71.5695 110.607 71.4229 109.955C71.2872 109.342 71.3307 108.75 71.4609 108.072C71.6617 107.117 71.6672 107.383 72.1665 106.303C72.3998 105.793 72.682 105.228 73.0837 104.62C73.4147 104.116 73.4744 103.334 73.9412 102.818C74.3536 102.363 74.8258 101.863 75.3631 101.429C75.8461 101.038 76.6005 100.973 77.1921 100.637C77.7293 100.327 78.169 99.7195 78.8039 99.4753C79.3846 99.2528 80.0413 99.0845 80.7089 98.9271C81.3113 98.786 82.0168 99.0411 82.6952 98.9597C83.3139 98.8892 83.9598 98.6829 84.6436 98.6721C85.4577 98.2704 85.6694 97.8254 84.9638 97.1959C84.6979 96.9571 84.2257 96.8431 83.2977 96.74C82.2991 96.5554 82.5433 96.3818 81.3276 96.2352C80.7415 96.1647 80.0576 96.0399 79.3032 96.0236C78.6628 96.0127 77.9953 96.2461 77.2897 96.3112C76.6331 96.3764 75.9004 96.1267 75.2274 96.2949C74.5544 96.4632 74.0009 96.8974 73.3713 97.1741C72.7417 97.4509 72.1665 97.7494 71.6075 98.151C71.0484 98.5527 70.4406 98.8674 69.9793 99.3939C69.556 99.8823 69.2683 100.496 68.9264 101.12C68.0418 101.131 68.4488 100.561 68.1015 99.5838C67.9224 99.0954 67.8681 98.4821 67.7758 97.8471C67.6999 97.299 67.6727 96.7128 67.7378 96.0941C67.7975 95.5406 67.727 94.8947 67.9604 94.314C68.1666 93.8038 68.7799 93.4728 69.1652 92.9735C69.7351 92.1757 69.4583 92.192 70.3592 91.4484C70.7988 91.0848 71.3524 90.7266 72.0091 90.3956C72.5464 90.1242 73.0999 89.6575 73.7892 89.4946C74.3808 89.3535 75.0809 89.3752 75.781 89.3644C76.3888 89.3535 77.0075 89.6954 77.7022 89.8203C78.3046 89.9288 78.9559 89.9342 79.618 90.1676C80.1987 90.3738 80.8066 90.5909 81.4307 90.9057C82.2882 90.7429 82.6193 90.2545 82.4347 89.4784C82.3479 89.1202 81.8269 88.8271 80.9857 88.4526C80.1282 87.9479 80.4484 87.7471 79.4172 87.1881C78.9016 86.9113 78.1201 86.9873 77.4471 86.7376C76.8501 86.5151 76.3074 85.9778 75.6344 85.8584C74.9615 85.739 74.2994 85.8041 73.6264 85.8584C72.9534 85.9127 72.4161 86.2763 71.7866 86.5422C71.2113 86.7865 70.5763 86.9113 70.039 87.3835C69.404 86.6562 70.3049 86.6562 70.9562 85.701C71.2764 85.2343 71.5912 84.6264 72.0633 84.0946C72.465 83.6387 72.8828 83.0851 73.3984 82.6509C73.876 82.2439 74.4839 81.9074 75.0537 81.5763C75.6236 81.2453 76.2694 81.1205 76.899 80.9196C77.496 80.7297 78.1364 80.6917 78.8094 80.6429C79.4226 80.5994 80.0685 80.4909 80.7469 80.5994C81.3439 80.6917 82.0223 80.7351 82.6735 80.9685C83.2434 81.1747 83.8512 81.4624 84.4537 81.788C84.9855 82.0756 85.4089 82.6292 85.9733 83.0254C86.4726 83.3782 86.961 83.7852 87.4821 84.2248C87.9488 84.621 88.5404 85.2017 89.0234 85.6739L89.0397 85.6413Z" fill="#FFF6F0"/>
<path d="M89.0397 85.6413C90.0328 85.4297 89.4141 84.7404 90.2119 83.8015C90.5918 83.351 91.0477 82.8409 91.5904 82.3144C92.0463 81.8694 92.4262 81.2507 92.9798 80.8057C93.4954 80.3986 94.2389 80.2684 94.8359 79.9048C95.4329 79.5411 95.8617 78.9387 96.4967 78.6728C97.1316 78.4068 97.8643 78.4991 98.5373 78.3471C99.2103 78.1952 99.8452 78.3092 100.54 78.2929C101.191 78.2766 101.864 78.0269 102.559 78.1518C103.194 78.2657 103.758 78.6945 104.426 78.9387C105.028 79.1612 105.707 79.2535 106.331 79.6008C106.89 79.9156 107.373 80.3878 107.943 80.8165C108.458 81.1964 109.028 81.4678 109.555 81.9454C109.072 82.8517 108.811 82.0648 107.579 82.233C106.987 82.309 106.271 82.233 105.528 82.3741C104.893 82.4935 104.252 82.8029 103.563 82.9874C102.917 83.1557 102.201 83.1882 101.549 83.4162C100.898 83.6441 100.404 84.2302 99.7964 84.5233C99.1886 84.8164 98.5644 85.104 98.0217 85.4894C97.4518 85.8964 96.7137 86.1189 96.285 86.6345C95.8562 87.1501 95.8834 87.9533 95.65 88.6046C95.4329 89.2179 95.015 89.9885 95.0422 90.7212C95.9648 91.0305 95.5089 89.8366 96.4315 89.0876C96.8657 88.7348 97.5061 88.4743 98.1085 88.0727C98.6133 87.7308 99.1831 87.416 99.7855 87.085C100.334 86.7865 100.958 86.5911 101.571 86.336C102.184 86.0809 102.743 85.8258 103.378 85.6522C104.013 85.4785 104.648 85.5599 105.3 85.4839C105.951 85.408 106.559 85.0226 107.215 85.066C107.872 85.1095 108.42 85.5545 109.066 85.7173C109.674 85.8693 110.45 85.6142 111.058 85.8964C111.622 86.1569 111.975 86.7322 112.539 87.1121C112.936 88.1216 112.947 88.1161 113.158 89.1799C113.37 90.2436 113.066 90.3033 113.278 91.367C113.489 92.4308 113.799 92.3711 114.01 93.4402C114.222 94.5094 114.629 94.5257 114.51 95.6111C114.406 96.5283 113.614 95.3995 112.637 94.8947C112.154 94.6451 111.731 94.0861 111.101 93.8418C110.553 93.6248 109.994 93.2828 109.375 93.1309C108.757 92.9789 108.127 93.0657 107.508 93.0169C106.89 92.9681 106.293 93.1092 105.685 93.2123C105.077 93.3154 104.524 93.4728 103.959 93.7604C103.438 94.0264 102.819 94.2272 102.353 94.6885C101.951 95.0901 101.555 95.7739 101.213 96.3492C101.908 96.9516 101.984 95.8716 103.064 95.6491C103.59 95.5406 104.214 95.394 104.893 95.3506C105.468 95.3126 106.081 95.6437 106.722 95.7034C107.313 95.7577 107.997 95.4537 108.605 95.622C109.175 95.7848 109.609 96.3655 110.168 96.664C110.689 96.9408 111.454 96.9191 111.942 97.337C112.382 97.7169 112.686 98.3193 113.082 98.8294C113.435 99.2853 113.598 99.8335 113.907 100.409C113.875 101.391 113.983 101.407 113.788 102.368C113.592 103.329 113.527 103.318 113.332 104.278C113.136 105.239 113.061 105.228 112.865 106.189C112.67 107.149 112.919 107.231 112.371 108.05C111.823 108.87 112.051 107.442 111.183 106.661C110.765 106.286 110.298 105.803 109.744 105.358C109.267 104.978 108.48 104.946 107.932 104.566C107.411 104.208 107.025 103.611 106.461 103.296C105.897 102.981 105.327 102.634 104.741 102.401C104.154 102.167 103.454 102.107 102.841 101.999C102.184 101.88 101.511 101.576 100.893 101.668C100.274 101.76 99.6607 102.156 99.0963 102.52C98.6024 102.84 98.3202 103.253 97.9023 103.833C98.3962 104.696 98.5156 104.056 99.6987 104.306C100.263 104.425 101.012 104.246 101.718 104.474C102.309 104.658 102.825 105.217 103.465 105.499C104.046 105.755 104.605 106.102 105.191 106.455C105.745 106.786 106.483 106.894 107.009 107.323C107.536 107.752 108.002 108.219 108.458 108.723C108.914 109.228 108.947 109.977 109.31 110.558C109.652 111.1 109.924 111.475 110.19 112.11C109.918 113.119 110.206 113.228 109.734 114.161C109.261 115.095 108.996 114.965 108.523 115.898C108.051 116.832 108.404 117.081 107.639 117.803C106.966 118.438 107.188 117.211 106.58 116.278C106.287 115.822 105.902 115.328 105.506 114.775C105.164 114.292 104.838 113.765 104.442 113.266C104.046 112.767 103.775 112.208 103.362 111.752C102.95 111.296 102.472 110.851 102.027 110.455C101.533 110.015 100.92 109.825 100.421 109.543C99.8181 109.201 99.3188 108.946 98.7598 108.951C98.2008 108.957 97.4736 109.119 96.9797 109.651C97.1425 110.628 97.6635 110.189 98.5644 110.981C98.9932 111.355 99.7476 111.545 100.252 112.077C100.676 112.528 101.077 113.081 101.495 113.635C101.88 114.14 102.13 114.78 102.472 115.372C102.798 115.931 103.226 116.468 103.476 117.092C103.726 117.716 103.623 118.411 103.769 119.068C103.916 119.724 104.252 120.37 104.279 121.048C103.753 121.96 103.351 121.667 102.678 122.47C102.005 123.274 102.293 123.518 101.62 124.321C100.947 125.124 100.703 124.923 100.024 125.732C99.3459 126.541 99.6173 126.78 98.7164 127.322C97.9403 127.789 98.6892 126.704 98.4667 125.662C98.3528 125.135 98.2279 124.527 98.0597 123.898C97.9023 123.328 97.7015 122.747 97.4953 122.177C97.289 121.607 96.806 121.141 96.5401 120.636C96.2199 120.034 95.9811 119.534 95.5849 119.198C95.0856 118.78 94.4723 118.34 93.8536 118.622C93.0992 119.312 93.8536 119.431 93.7885 120.788C93.7613 121.342 93.7451 121.982 93.8645 122.785C93.9567 123.377 93.8753 124.082 94.0924 124.82C94.2661 125.417 94.4832 126.069 94.7599 126.758C94.9987 127.344 95.3081 127.946 95.6337 128.603C95.2321 129.537 94.8576 128.961 93.7016 129.157C93.1046 129.254 92.4262 129.314 91.6881 129.222C91.064 129.146 90.4996 128.804 89.8483 128.478C89.2947 128.202 88.5946 128.06 88.0628 127.534C87.6232 127.105 87.5092 126.53 87.113 125.895C87.113 124.999 87.4603 125.396 87.9705 124.473C88.231 124.006 88.4372 123.409 88.7195 122.829C88.9745 122.302 89.1319 121.7 89.3544 121.141C89.577 120.582 89.5335 119.92 89.6692 119.371C89.832 118.726 90.0383 118.183 90.0003 117.656C89.946 116.989 89.7072 116.533 89.1645 116.245C88.4915 115.638 88.5566 115.323 87.5635 115.708C87.1618 115.865 86.8254 116.338 86.3369 117.016C86.0438 117.418 85.6748 117.874 85.3654 118.53C85.1375 119.008 85.0561 119.616 84.8227 120.262C84.6382 120.777 84.1823 121.26 83.9923 121.895C83.8295 122.432 83.7481 122.926 83.5853 123.556C82.4727 123.697 82.7441 123.154 81.7401 122.443C81.1593 122.031 80.329 121.759 79.7971 121.26C79.1404 120.647 78.8311 119.816 78.7225 119.263C78.7334 118.335 78.6628 118.509 79.0536 117.429C79.2327 116.929 79.542 116.365 79.846 115.735C80.0956 115.22 80.6926 114.851 81.04 114.292C81.3493 113.792 81.5664 113.212 81.9626 112.701C82.3262 112.235 82.8201 111.866 83.2705 111.404C83.6884 110.976 84.0575 110.493 84.5514 110.085C85.0127 109.706 85.3817 109.168 85.919 108.821C86.4183 108.495 87.1239 108.333 87.6937 108.045C88.3124 107.095 88.2527 106.254 87.1727 105.749C86.7439 105.548 85.9787 105.879 84.877 106.145C84.2854 106.292 83.5365 106.362 82.6844 106.715C81.7781 107.068 81.892 106.873 80.8663 107.437C80.367 107.708 79.9762 108.327 79.3901 108.74C78.8853 109.092 78.1255 109.19 77.6208 109.646C77.1541 110.069 76.9207 110.758 76.5082 111.279C76.0958 111.8 75.5747 112.208 75.2762 112.794C74.9777 113.38 74.8638 114.118 74.701 114.764C73.7403 114.948 74.1474 114.031 73.3822 113.206C72.9805 112.772 72.4541 112.359 72.1013 111.757C71.7757 111.209 71.5695 110.607 71.4229 109.955C71.2872 109.342 71.3307 108.75 71.4609 108.072C71.6617 107.117 71.6672 107.383 72.1665 106.303C72.3998 105.793 72.682 105.228 73.0837 104.62C73.4147 104.116 73.4744 103.334 73.9412 102.818C74.3536 102.363 74.8258 101.863 75.3631 101.429C75.8461 101.038 76.6005 100.973 77.1921 100.637C77.7293 100.327 78.169 99.7195 78.8039 99.4753C79.3846 99.2528 80.0413 99.0845 80.7089 98.9271C81.3113 98.786 82.0168 99.0411 82.6952 98.9597C83.3139 98.8892 83.9598 98.6829 84.6436 98.6721C85.4577 98.2704 85.6694 97.8254 84.9638 97.1959C84.6979 96.9571 84.2257 96.8431 83.2977 96.74C82.2991 96.5554 82.5433 96.3818 81.3276 96.2352C80.7415 96.1647 80.0576 96.0399 79.3032 96.0236C78.6628 96.0127 77.9953 96.2461 77.2897 96.3112C76.6331 96.3764 75.9004 96.1267 75.2274 96.2949C74.5544 96.4632 74.0009 96.8974 73.3713 97.1741C72.7417 97.4509 72.1665 97.7494 71.6075 98.151C71.0484 98.5527 70.4406 98.8674 69.9793 99.3939C69.556 99.8823 69.2683 100.496 68.9264 101.12C68.0418 101.131 68.4488 100.561 68.1015 99.5838C67.9224 99.0954 67.8681 98.4821 67.7758 97.8471C67.6999 97.299 67.6727 96.7128 67.7378 96.0941C67.7975 95.5406 67.727 94.8947 67.9604 94.314C68.1666 93.8038 68.7799 93.4728 69.1652 92.9735C69.7351 92.1757 69.4583 92.192 70.3592 91.4484C70.7988 91.0848 71.3524 90.7266 72.0091 90.3956C72.5464 90.1242 73.0999 89.6575 73.7892 89.4946C74.3808 89.3535 75.0809 89.3752 75.781 89.3644C76.3888 89.3535 77.0075 89.6954 77.7022 89.8203C78.3046 89.9288 78.9559 89.9342 79.618 90.1676C80.1987 90.3738 80.8066 90.5909 81.4307 90.9057C82.2882 90.7429 82.6193 90.2545 82.4347 89.4784C82.3479 89.1202 81.8269 88.8271 80.9857 88.4526C80.1282 87.9479 80.4484 87.7471 79.4172 87.1881C78.9016 86.9113 78.1201 86.9873 77.4471 86.7376C76.8501 86.5151 76.3074 85.9778 75.6344 85.8584C74.9615 85.739 74.2994 85.8041 73.6264 85.8584C72.9534 85.9127 72.4161 86.2763 71.7866 86.5422C71.2113 86.7865 70.5763 86.9113 70.039 87.3835C69.404 86.6562 70.3049 86.6562 70.9562 85.701C71.2764 85.2343 71.5912 84.6264 72.0633 84.0946C72.4649 83.6387 72.8828 83.0851 73.3984 82.6509C73.876 82.2439 74.4839 81.9074 75.0537 81.5763C75.6236 81.2453 76.2694 81.1205 76.899 80.9196C77.496 80.7297 78.1364 80.6917 78.8094 80.6429C79.4226 80.5994 80.0685 80.4909 80.7469 80.5994C81.3439 80.6917 82.0223 80.7351 82.6735 80.9685C83.2434 81.1747 83.8512 81.4624 84.4537 81.788C84.9855 82.0756 85.4089 82.6292 85.9733 83.0254C86.4726 83.3782 86.961 83.7852 87.4821 84.2248C87.9488 84.621 88.5404 85.2017 89.0234 85.6739L89.0397 85.6413Z" stroke="#383839" stroke-width="1.62816" stroke-linecap="round" stroke-linejoin="round"/>
<path d="M100.691 150.99L99.155 150.92L97.6679 150.687L96.1809 151.045L94.6938 151.115L93.2068 151.202L91.7197 150.844L90.2327 151.061L88.7402 150.828L87.2531 150.974L85.7661 151.001L84.279 151.126L82.7865 151.202L81.2995 150.73L79.8124 151.05L78.3199 150.909L76.8329 150.882L75.3458 150.708L73.8533 150.806L72.3663 150.784L70.8792 151.191L69.3867 151.18L67.8943 151.012L66.4072 150.714L64.9201 151.034L63.4277 151.05L61.9406 151.099L60.4481 151.202L58.9611 150.811L57.4686 150.768L55.9761 151.11L54.489 151.208L52.9966 151.126L51.5095 150.904H50.017L48.53 150.687L47.0375 150.942L45.5504 150.752L44.0579 150.719L42.5709 150.893L41.0838 151.056L39.5913 150.708L38.1043 150.969L36.6118 150.909L35.1193 151.148L33.6268 150.942L32.1398 150.703L30.6473 150.974L29.1548 150.73L27.6623 151.175L26.1698 151.159L24.6774 150.692L23.1849 150.877L21.6924 151.137L20.1999 150.757L18.6043 151.045L18.8268 149.438L18.6152 147.924L18.5609 146.41L18.8919 144.901L18.7128 143.387L18.5283 141.873L18.6694 140.364L18.5663 138.85L18.9679 137.336L18.8485 135.821L18.7128 134.307V132.798L20.189 132.722L21.6761 132.576L23.1632 132.771L24.6502 133.01L26.1373 132.896L27.6298 132.581L29.1168 132.679L30.6039 133.064L32.0964 132.983L33.5834 132.728L35.0705 132.788L36.5575 132.69L38.05 132.679L39.5371 132.82L41.0241 132.923L42.5166 132.994L44.0037 132.527L45.4961 132.625L46.9832 132.646L48.4703 132.826L49.9627 132.907L51.4498 132.75L52.9423 132.717L54.4293 132.565L55.9218 132.554L57.4089 133.048L58.9014 132.663L60.3884 133.037L61.8809 132.94H63.368L64.8604 132.999L66.3475 132.858L67.84 132.771L69.3325 132.543L70.8195 132.576L72.3066 132.56L73.7991 132.527L75.2861 132.956L76.7786 132.809L78.2657 133.054L79.7581 132.744L81.2452 132.983L82.7377 132.864L84.2302 132.94L85.7226 132.961L87.2097 132.592L88.7022 132.864H90.1947L91.6872 132.896L93.1796 132.701L94.6721 133.032L96.1646 133.059L97.6571 133.048L99.1496 132.543L100.588 132.847L100.772 134.302L100.43 135.816L100.409 137.325L100.615 138.839L100.642 140.353L100.588 141.862L100.647 143.376L100.604 144.89L100.425 146.404L100.881 147.913L100.55 149.433L100.691 150.99Z" fill="#383839"/>
<path d="M100.691 150.99L99.155 150.92L97.6679 150.687L96.1809 151.045L94.6938 151.115L93.2068 151.202L91.7197 150.844L90.2327 151.061L88.7402 150.828L87.2531 150.974L85.7661 151.001L84.279 151.126L82.7865 151.202L81.2995 150.73L79.8124 151.05L78.3199 150.909L76.8329 150.882L75.3458 150.708L73.8533 150.806L72.3663 150.784L70.8792 151.191L69.3867 151.18L67.8943 151.012L66.4072 150.714L64.9201 151.034L63.4277 151.05L61.9406 151.099L60.4481 151.202L58.9611 150.811L57.4686 150.768L55.9761 151.11L54.489 151.208L52.9966 151.126L51.5095 150.904H50.017L48.53 150.687L47.0375 150.942L45.5504 150.752L44.0579 150.719L42.5709 150.893L41.0838 151.056L39.5913 150.708L38.1043 150.969L36.6118 150.909L35.1193 151.148L33.6268 150.942L32.1398 150.703L30.6473 150.974L29.1548 150.73L27.6623 151.175L26.1698 151.159L24.6774 150.692L23.1849 150.877L21.6924 151.137L20.1999 150.757L18.6043 151.045L18.8268 149.438L18.6152 147.924L18.5609 146.41L18.8919 144.901L18.7128 143.387L18.5283 141.873L18.6694 140.364L18.5663 138.85L18.9679 137.336L18.8485 135.821L18.7128 134.307V132.798L20.189 132.722L21.6761 132.576L23.1632 132.771L24.6502 133.01L26.1373 132.896L27.6298 132.581L29.1168 132.679L30.6039 133.064L32.0964 132.983L33.5834 132.728L35.0705 132.788L36.5575 132.69L38.05 132.679L39.5371 132.82L41.0241 132.923L42.5166 132.994L44.0037 132.527L45.4961 132.625L46.9832 132.646L48.4703 132.826L49.9627 132.907L51.4498 132.75L52.9423 132.717L54.4293 132.565L55.9218 132.554L57.4089 133.048L58.9014 132.663L60.3884 133.037L61.8809 132.94H63.368L64.8604 132.999L66.3475 132.858L67.84 132.771L69.3325 132.543L70.8195 132.576L72.3066 132.56L73.7991 132.527L75.2861 132.956L76.7786 132.809L78.2657 133.054L79.7581 132.744L81.2452 132.983L82.7377 132.864L84.2302 132.94L85.7226 132.961L87.2097 132.592L88.7022 132.864H90.1947L91.6872 132.896L93.1796 132.701L94.6721 133.032L96.1646 133.059L97.6571 133.048L99.1496 132.543L100.588 132.847L100.772 134.302L100.43 135.816L100.409 137.325L100.615 138.839L100.642 140.353L100.588 141.862L100.647 143.376L100.604 144.89L100.425 146.404L100.881 147.913L100.55 149.433L100.691 150.99Z" stroke="#383839" stroke-width="1.62816" stroke-linecap="round" stroke-linejoin="round"/>
<path d="M54.4407 164.998L54.0282 167.109L51.917 168.005L49.7895 167.126L49.3174 164.998L50.1315 163.213L51.917 162.48L53.9305 162.985L54.4407 164.998Z" fill="#F3F2F2"/>
<path d="M70.2012 164.998L69.3654 166.936L67.4278 167.755L65.3329 167.099L64.584 164.998L65.474 163.039L67.4278 162.339L69.2243 163.207L70.2012 164.998Z" fill="#F3F2F2"/>
<path d="M65.7509 171.305L65.2788 173.123L64.367 174.713L62.9668 175.831L61.5557 177.096L59.6725 177.242L57.8272 176.987L56.3836 175.831L55.1462 174.588L53.963 173.155L53.8545 171.305" stroke="#F3F2F2" stroke-width="2.17088" stroke-linecap="round" stroke-linejoin="round"/>
<path d="M33.3672 63.1782L33.6657 67.0098L34.5612 70.7546L35.3101 74.5102L36.3847 78.2008L37.2856 81.913L37.3073 85.8748L39.1417 89.3374L39.641 93.2233L41.1715 96.7618L42.6586 100.317L44.2053 103.85" fill="#41B879"/>
<path d="M33.3672 63.1782L33.6657 67.0098L34.5612 70.7546L35.3101 74.5102L36.3847 78.2008L37.2856 81.913L37.3073 85.8748L39.1417 89.3374L39.641 93.2233L41.1715 96.7618L42.6586 100.317L44.2053 103.85" stroke="#383839" stroke-width="1.62816" stroke-linecap="round" stroke-linejoin="round"/>
<path d="M35.8506 74.1465L38.1192 71.4764L39.7093 68.1929L42.3578 65.7995L45.7878 64.4373" fill="#41B879"/>
<path d="M35.8506 74.1465L38.1192 71.4764L39.7093 68.1929L42.3578 65.7995L45.7878 64.4373" stroke="#383839" stroke-width="1.62816" stroke-linecap="round" stroke-linejoin="round"/>
<path d="M22.082 81.115L23.8296 81.826L25.6531 82.271L27.531 82.5695L29.2622 83.3239L30.8416 84.3985L32.5674 85.1203L34.3313 85.7932L35.8889 86.8515L37.4248 87.9424L38.7219 89.3264L39.5088 91.0359" stroke="#383839" stroke-width="1.62816" stroke-linecap="round" stroke-linejoin="round"/>
<path d="M48.0295 89.2612L46.6401 89.7008L45.5926 90.732L43.959 91.177L43.1938 92.5284L42.7108 93.9721L42.2386 95.3777L42.2061 96.8485L42.5588 98.265" stroke="#383839" stroke-width="1.62816" stroke-linecap="round" stroke-linejoin="round"/>
<path d="M65.9253 7.86401L65.8981 11.8584L64.6987 15.7118L65.0081 19.717L64.2754 23.6463L64.6282 27.6191L64.8778 31.5592L64.6987 35.5862L66.1641 39.3147" stroke="#383839" stroke-width="1.62816" stroke-linecap="round" stroke-linejoin="round"/>
<path d="M60.1064 17.7849L62.8803 18.9629L64.0094 21.4599" stroke="#383839" stroke-width="1.62816" stroke-linecap="round" stroke-linejoin="round"/>
<path d="M66.3516 15.3155L69.1086 14.4797L71.4151 12.7267L74.1776 11.9072" stroke="#383839" stroke-width="1.62816" stroke-linecap="round" stroke-linejoin="round"/>
<path d="M66.165 32.5471L68.1568 29.9203L70.5882 27.7549L72.6071 25.1606" stroke="#383839" stroke-width="1.62816" stroke-linecap="round" stroke-linejoin="round"/>
</svg>
