<svg width="210" height="234" viewBox="0 0 210 234" fill="none" xmlns="http://www.w3.org/2000/svg">
<g clip-path="url(#clip0_1712_4059)">
<rect width="210" height="234" fill="transparent"/>
<path d="M150.425 233.721L148.645 233.797L146.8 233.564L144.955 233.965L143.11 233.661L141.264 233.526L139.419 233.77L137.574 233.58L135.729 233.466L133.883 233.846L132.038 234.014L130.193 233.607L128.353 234.106L126.508 233.889L124.662 233.591L122.817 233.808L120.972 233.764L119.127 233.895L117.281 234.068L115.436 233.596L113.591 233.672L111.746 233.987L109.9 233.764L108.055 233.878L106.21 233.889L104.365 233.944L102.519 233.732L100.674 233.743L98.829 233.982L96.9837 233.596L95.133 233.884L93.2226 233.84L92.669 231.973L92.7287 230.047L92.1535 228.24L91.7464 226.4L91.7736 224.478L91.1277 222.688L91.0952 220.777L90.3408 219.008L90.2648 217.108L90.1237 215.22L89.6949 213.385L89.3421 211.54L88.7777 209.733L88.4358 207.882L88.235 206.004L87.8008 204.17L87.3938 202.33L87.1984 200.452L86.9162 198.591L86.6177 196.729L86.113 194.906L85.9501 193.022L85.1252 191.259L84.7344 189.413L84.3817 187.563L84.0941 185.696L83.8281 183.769L85.7602 183.888L87.6434 183.666L89.5267 183.997L91.4099 183.525L93.2932 183.899L95.1764 183.726L97.0597 183.926L98.9429 183.584L100.826 183.552H102.709L104.593 183.568L106.476 183.883L108.359 183.758L110.242 183.503L112.126 183.953L114.009 183.476L115.892 183.617L117.775 183.905L119.659 183.508L121.542 183.812L123.425 183.823L125.308 183.791L127.192 183.525L129.075 183.612L130.958 183.975L132.841 183.601L134.724 183.519L136.608 184.019L138.491 183.487L140.374 183.47L142.257 184.046L144.141 183.943L146.024 183.959L147.907 183.726L149.79 183.867L151.674 183.584L153.557 183.802L155.446 184.019L157.367 183.78L157.34 185.69L156.716 187.487L156.797 189.381L156.379 191.204L155.907 193.022L155.874 194.9L155.576 196.745L155.071 198.558L154.925 200.42L154.887 202.297L154.273 204.094L154.121 205.955L154.295 207.866L153.969 209.706L153.573 211.54L153.345 213.391L153.286 215.269L153.074 217.125L152.667 218.954L152.206 220.777L152.309 222.677L151.674 224.473L151.603 226.351L151.104 228.169L151.218 230.074L150.518 231.865L150.415 233.683L150.425 233.721Z" fill="#363737"/>
<path d="M163.708 184.334L161.874 184.589L160.001 184.111L158.129 184.344L156.256 184.545L154.384 184.404H152.512L150.634 184.165L148.761 184.285L146.889 184.111L145.017 184.616L143.144 184.594L141.272 184.572L139.394 184.35L137.522 184.22L135.649 184.29L133.771 184.486L131.894 184.507H130.021L128.149 184.252L126.271 184.545L124.393 184.279L122.515 184.529L120.638 184.502L118.76 184.23L116.882 184.703L115.004 184.616L113.126 184.453L111.254 184.263L109.376 184.426L107.504 184.192L105.631 184.328L103.753 184.513L101.881 184.296L100.003 184.464L98.1255 184.681L96.2477 184.279L94.3698 184.524L92.492 184.507L90.6142 184.572L88.7364 184.415L86.8586 184.122L84.9808 184.165L83.1029 184.312L81.2251 184.61L79.3419 184.448L77.5292 184.296L77.2687 182.461L77.7083 180.556L77.5781 178.651L77.7789 176.741L77.5835 174.836L77.2795 172.926L77.5563 171.015L77.209 169.105L77.7246 167.194L77.5672 165.382L79.3419 165.577L81.2143 164.964L83.0867 165.078L84.9591 165.425L86.8314 165.262L88.7038 165.382L90.5816 165.349L92.4541 165.474L94.3264 165.17L96.1988 165.029L98.0712 165.344L99.949 165.078L101.827 165.284L103.699 165.148L105.572 165.414L107.444 165.219L109.322 165.566L111.194 164.991H113.067L114.944 165.3L116.822 165.062L118.695 165.089L120.572 165.007L122.45 165.235L124.328 165.371L126.206 165.213L128.078 165.393L129.956 165.295L131.828 164.996L133.701 165.474H135.573L137.451 165.458L139.329 165.376L141.207 165.528L143.084 165.132L144.962 165.062L146.84 165.159L148.718 165.176L150.596 165.154L152.474 165.083L154.351 165.365L156.229 165.1L158.107 165.246L159.985 165.1L161.868 165.447L163.898 165.138L163.437 167.189L163.616 169.094L163.502 171.004L163.784 172.915L164.028 174.82L164.061 176.725L163.475 178.635L163.447 180.545L164.093 182.461L163.719 184.328H163.708V184.334Z" fill="#363737"/>
<path d="M28.8711 74.0851L32.8221 73.5966L36.7785 74.2099L40.5124 75.583L44.1487 77.184L47.1499 79.8054L49.5108 83.04L51.3289 86.4266L53.9394 89.2433L56.9894 91.5553L60.0124 93.9053L63.5944 95.4412L67.4097 94.6651L71.3119 94.4751L73.9441 91.5499L77.1896 89.4658L78.9642 86.0413L81.3957 83.1214L83.941 80.3752L87.002 78.0632L88.1308 74.3619L86.3236 71.149L84.1147 68.1152L80.8367 66.1831L77.0485 65.5535L73.4394 64.582L70.0093 62.7965L66.2863 62.1452L62.4438 62.3352L58.8727 60.9187L55.0248 61.304L51.2312 60.7559L47.405 61.1032L43.9153 62.7531L40.4148 64.1859L37.001 65.8683L34.3146 68.5982L31.6227 71.2032L28.9471 73.83L28.8711 74.0851Z" fill="#FFF6F0"/>
<path d="M28.8711 74.0851L32.8221 73.5966L36.7785 74.2099L40.5124 75.583L44.1487 77.184L47.1499 79.8054L49.5108 83.04L51.3289 86.4266L53.9394 89.2433L56.9894 91.5553L60.0124 93.9053L63.5944 95.4412L67.4097 94.6651L71.3119 94.4751L73.9441 91.5499L77.1896 89.4658L78.9642 86.0413L81.3957 83.1214L83.941 80.3752L87.002 78.0632L88.1308 74.3619L86.3236 71.149L84.1147 68.1152L80.8367 66.1831L77.0485 65.5535L73.4394 64.582L70.0093 62.7965L66.2863 62.1452L62.4438 62.3352L58.8727 60.9187L55.0248 61.304L51.2312 60.7559L47.405 61.1032L43.9153 62.7531L40.4148 64.1859L37.001 65.8683L34.3146 68.5982L31.6227 71.2032L28.9471 73.83L28.8711 74.0851Z" stroke="#383839" stroke-width="1.62816" stroke-linecap="round" stroke-linejoin="round"/>
<path d="M78.3389 87.995L81.1393 90.904L82.5287 94.7194L84.4933 98.1711L87.1689 101.265L88.6451 104.998L90.3764 108.597L91.5758 112.423L93.1931 116.065L94.2026 119.934L95.8036 123.592L97.5729 127.228L98.6258 131.087L99.4236 135.011L100.504 138.87L100.65 142.908L101.253 146.848L101.86 150.799L101.611 154.815L101.926 158.782L102.007 162.76L102.213 166.684L105.28 166.445L108.346 166.679L108.118 162.847L107.961 158.923L107.179 155.075L106.468 151.233L106.197 147.314L105.003 143.548L104.319 139.7L103.282 135.923L103.087 131.972L101.85 128.238L101.285 124.357L100.753 120.455L99.7818 116.656L98.349 112.987L97.2364 109.232L95.8471 105.574L94.881 101.748L93.0357 98.2687L91.2665 94.779L88.9979 91.5933L87.5325 87.8539L84.4987 85.2977L81.3672 83.0942L78.6754 87.6857L78.3389 87.995Z" fill="#FFF6F0"/>
<path d="M78.3389 87.995L81.1393 90.904L82.5287 94.7194L84.4933 98.1711L87.1689 101.265L88.6451 104.998L90.3764 108.597L91.5758 112.423L93.1931 116.065L94.2026 119.934L95.8036 123.592L97.5729 127.228L98.6258 131.087L99.4236 135.011L100.504 138.87L100.65 142.908L101.253 146.848L101.86 150.799L101.611 154.815L101.926 158.782L102.007 162.76L102.213 166.684L105.28 166.445L108.346 166.679L108.118 162.847L107.961 158.923L107.179 155.075L106.468 151.233L106.197 147.314L105.003 143.548L104.319 139.7L103.282 135.923L103.087 131.972L101.85 128.238L101.285 124.357L100.753 120.455L99.7818 116.656L98.349 112.987L97.2364 109.232L95.8471 105.574L94.881 101.748L93.0357 98.2687L91.2665 94.779L88.9979 91.5933L87.5325 87.8539L84.4987 85.2977L81.3672 83.0942L78.6754 87.6857L78.3389 87.995Z" stroke="#383839" stroke-width="1.62816" stroke-linecap="round" stroke-linejoin="round"/>
<path d="M97.7549 72.3755L99.8118 75.6698L101.234 79.2789L102.58 82.8988L103.882 86.5351L105.787 89.9325L107.117 93.5579L107.974 97.3461L109.83 100.803L110.33 104.695L111.73 108.309L112.707 112.043L113.081 115.923L114.075 119.652L114.986 123.402L116.131 127.125L116.159 131.027L116.321 134.892L117.287 138.669L117.401 142.533L117.678 146.381L117.765 150.24L117.689 154.093L118.286 157.973L118.036 161.838L117.586 165.284L122.769 167.091L122.796 163.113L123.095 159.249L122.991 155.374L123.491 151.472L122.91 147.602L122.704 143.716L122.688 139.798L122.194 135.928L121.032 132.162L120.598 128.292L120.419 124.363L119.713 120.52L118.112 116.884L117.732 112.971L116.403 109.286L115.92 105.378L114.861 101.628L113.537 97.9485L112.256 94.2634L111.095 90.5458L109.993 86.8064L109.081 83.002L107.079 79.572L105.82 75.8815L104.273 72.2995L103.329 68.5059L100.246 70.0309L97.8417 72.5383L97.7549 72.3755Z" fill="#FFF6F0"/>
<path d="M97.7549 72.3755L99.8118 75.6698L101.234 79.2789L102.58 82.8988L103.882 86.5351L105.787 89.9325L107.117 93.5579L107.974 97.3461L109.83 100.803L110.33 104.695L111.73 108.309L112.707 112.043L113.081 115.923L114.075 119.652L114.986 123.402L116.131 127.125L116.159 131.027L116.321 134.892L117.287 138.669L117.401 142.533L117.678 146.381L117.765 150.24L117.689 154.093L118.286 157.973L118.036 161.838L117.586 165.284L122.769 167.091L122.796 163.113L123.095 159.249L122.991 155.374L123.491 151.472L122.91 147.602L122.704 143.716L122.688 139.798L122.194 135.928L121.032 132.162L120.598 128.292L120.419 124.363L119.713 120.52L118.112 116.884L117.732 112.971L116.403 109.286L115.92 105.378L114.861 101.628L113.537 97.9485L112.256 94.2634L111.095 90.5458L109.993 86.8064L109.081 83.002L107.079 79.572L105.82 75.8815L104.273 72.2995L103.329 68.5059L100.246 70.0309L97.8417 72.5383L97.7549 72.3755Z" stroke="#383839" stroke-width="1.62816" stroke-linecap="round" stroke-linejoin="round"/>
<path d="M135.384 98.0409L134.565 101.281L133.506 104.966L132.421 108.646V112.542L131.048 116.179L131.319 120.102L130.25 123.798L130.125 127.646L129.138 131.364L128.427 135.13L128.834 139.022L128.161 142.794L127.292 146.566L127.162 150.397L127.868 154.234L127.303 158.055L127.569 161.87L127.922 166.028L132.253 165.713L131.536 161.892L131.346 158.055L131.558 154.223L131.281 150.37L132.47 146.609L131.829 142.712L133.219 139.011L132.72 135.087L133.241 131.283L134.272 127.565L134.836 123.771L135.113 119.929L135.965 116.184L137.186 112.515L138.12 108.798L138.586 104.977L139.004 101.134L140.41 97.3679L135.384 98.0409Z" fill="#FFF6F0"/>
<path d="M135.384 98.0409L134.565 101.281L133.506 104.966L132.421 108.646V112.542L131.048 116.179L131.319 120.102L130.25 123.798L130.125 127.646L129.138 131.364L128.427 135.13L128.834 139.022L128.161 142.794L127.292 146.566L127.162 150.397L127.868 154.234L127.303 158.055L127.569 161.87L127.922 166.028L132.253 165.713L131.536 161.892L131.346 158.055L131.558 154.223L131.281 150.37L132.47 146.609L131.829 142.712L133.219 139.011L132.72 135.087L133.241 131.283L134.272 127.565L134.836 123.771L135.113 119.929L135.965 116.184L137.186 112.515L138.12 108.798L138.586 104.977L139.004 101.134L140.41 97.3679L135.384 98.0409Z" stroke="#383839" stroke-width="1.62816" stroke-linecap="round" stroke-linejoin="round"/>
<path d="M145.035 137.654L143.14 141.29L141.919 144.791L140.237 148.112L139.634 151.808L138.12 155.222L137.377 158.853L136.552 162.484L136.503 166.63L141.518 166.109L142.31 162.522L142.728 158.766L143.689 155.119L144.421 151.407L145.995 147.955L147.086 144.34L148.774 141.415L145.035 137.654Z" fill="#FFF6F0"/>
<path d="M145.035 137.654L143.14 141.29L141.919 144.791L140.237 148.112L139.634 151.808L138.12 155.222L137.377 158.853L136.552 162.484L136.503 166.63L141.518 166.109L142.31 162.522L142.728 158.766L143.689 155.119L144.421 151.407L145.995 147.955L147.086 144.34L148.774 141.415L145.035 137.654Z" stroke="#383839" stroke-width="1.62816" stroke-linecap="round" stroke-linejoin="round"/>
<path d="M172.426 27.8831L168.67 28.8003L164.8 28.8979L161.056 29.7609L157.474 31.1774L153.756 32.1706L150.364 33.9887L146.82 35.4757L143.52 37.4458L140.687 40.0672L137.426 42.1404L134.989 45.1253L132.91 48.3328L130.815 51.4914L128.53 54.6284L127.847 58.4546L126.848 62.1125L126.343 65.8681L125.719 69.6292L125.307 73.4499L125.708 77.6832L129.887 77.3521L133.925 77.2273L137.968 77.7592L142.012 77.021L146.055 77.7971L150.098 77.5204L154.147 77.4661L158.19 77.1676H162.239L166.239 76.9342L168.448 74.3888L171.069 71.7512L171.525 68.0661L172.068 64.5384L172.051 60.9619L171.72 57.3908L171.503 53.7383L170.76 52.2838L169.821 48.2894L170.255 44.2027L169.745 40.1431L170.635 36.1704L171.411 32.2031L172.854 28.3824L172.426 27.8831Z" fill="#41B879"/>
<path d="M172.426 27.8831L168.67 28.8003L164.8 28.8979L161.056 29.7609L157.474 31.1774L153.756 32.1706L150.364 33.9887L146.82 35.4757L143.52 37.4458L140.687 40.0672L137.426 42.1404L134.989 45.1253L132.91 48.3328L130.815 51.4914L128.53 54.6284L127.847 58.4546L126.848 62.1125L126.343 65.8681L125.719 69.6292L125.307 73.4499L125.708 77.6832L129.887 77.3521L133.925 77.2273L137.968 77.7592L142.012 77.021L146.055 77.7971L150.098 77.5204L154.147 77.4661L158.19 77.1676H162.239L166.239 76.9342L168.448 74.3888L171.069 71.7512L171.525 68.0661L172.068 64.5384L172.051 60.9619L171.72 57.3908L171.503 53.7383L170.76 52.2838L169.821 48.2894L170.255 44.2027L169.745 40.1431L170.635 36.1704L171.411 32.2031L172.854 28.3824L172.426 27.8831Z" stroke="#383839" stroke-width="1.62816" stroke-linecap="round" stroke-linejoin="round"/>
<path d="M136.211 70.0092L132.173 69.1842L128.141 70.0852L124.336 71.3931L120.912 73.488L118.437 76.7335L117.824 80.7768L117.373 84.8363L118.784 88.6734L120.619 92.2173L122.996 95.452L125.975 98.2416L129.563 100.353L133.307 100.923L137.052 100.885L140.715 102.095L144.482 102.041L148.118 100.83L152.107 100.944L156.107 100.939L160.025 101.791L163.673 103.473L166.951 105.726L169.501 108.721L171.602 111.967L173.442 115.419L174.505 119.321L176.454 115.636L177.745 111.788L178.532 107.799L178.939 103.766L179.596 99.7992L180.557 95.7993L180.454 91.7235L179.357 87.767L179.059 83.6803L177.029 80.1092L175.596 76.3156L172.747 73.4066L170.044 70.4922L167.531 67.2304L164.367 65.1084L161.106 63.16L157.806 61.2605L154.137 60.2076L150.457 59.1331L146.664 59.6649L142.952 60.5767L140.205 63.236L137.714 66.1016L135.999 69.5316L136.211 70.0092Z" fill="#41B879"/>
<path d="M136.211 70.0092L132.173 69.1842L128.141 70.0852L124.336 71.3931L120.912 73.488L118.437 76.7335L117.824 80.7768L117.373 84.8363L118.784 88.6734L120.619 92.2173L122.996 95.452L125.975 98.2416L129.563 100.353L133.307 100.923L137.052 100.885L140.715 102.095L144.482 102.041L148.118 100.83L152.107 100.944L156.107 100.939L160.025 101.791L163.673 103.473L166.951 105.726L169.501 108.721L171.602 111.967L173.442 115.419L174.505 119.321L176.454 115.636L177.745 111.788L178.532 107.799L178.939 103.766L179.596 99.7992L180.557 95.7993L180.454 91.7235L179.357 87.767L179.059 83.6803L177.029 80.1092L175.596 76.3156L172.747 73.4066L170.044 70.4922L167.531 67.2304L164.367 65.1084L161.106 63.16L157.806 61.2605L154.137 60.2076L150.457 59.1331L146.664 59.6649L142.952 60.5767L140.205 63.236L137.714 66.1016L135.999 69.5316L136.211 70.0092Z" stroke="#383839" stroke-width="1.62816" stroke-linecap="round" stroke-linejoin="round"/>
<path d="M156.363 118.127L156.673 114.436L157.861 110.8L161.308 109.085L165.128 108.515L168.737 109.514L172.091 111.028L175.57 112.673L177.833 115.766L179.961 118.979L180.938 122.946L181.6 126.946L181.329 130.995L182.11 135.033L181.654 139.076L180.091 142.87L179.055 146.739L178.192 150.717L176.162 154.234L174.631 158.446L171.701 155.428L168.271 153.816L165.117 151.825L161.715 150.272L158.827 147.684L155.348 146.256L151.745 145.149L148.662 143.027L145.238 141.383L142.812 138.484L140.456 135.499L139.072 131.923L139.512 128.102L139.87 124.455L140.798 120.645L144.413 118.968L148.065 117.617L151.978 117.986L155.864 118.561L156.363 118.127Z" fill="#89CB9A"/>
<path d="M156.363 118.127L156.673 114.436L157.861 110.8L161.308 109.085L165.128 108.515L168.737 109.514L172.091 111.028L175.57 112.673L177.833 115.766L179.961 118.979L180.938 122.946L181.6 126.946L181.329 130.995L182.11 135.033L181.654 139.076L180.091 142.87L179.055 146.739L178.192 150.717L176.162 154.234L174.631 158.446L171.701 155.428L168.271 153.816L165.117 151.825L161.715 150.272L158.827 147.684L155.348 146.256L151.745 145.149L148.662 143.027L145.238 141.383L142.812 138.484L140.456 135.499L139.072 131.923L139.512 128.102L139.87 124.455L140.798 120.645L144.413 118.968L148.065 117.617L151.978 117.986L155.864 118.561L156.363 118.127Z" stroke="#383839" stroke-width="1.62816" stroke-linecap="round" stroke-linejoin="round"/>
<path d="M98.3024 102.958L100.848 100.157L104.403 98.8875L107.979 97.9214L111.637 98.144L114.91 99.6365L118.296 101.265L120.798 104.103L122.052 107.696L124.326 110.838L123.729 114.898L123.875 118.876L123.523 122.881L122.014 126.604L119.745 129.909L117.9 133.367L115.67 136.623L113.054 139.63L109.987 142.208L106.59 144.33L102.992 146.104L98.9646 146.669L95.312 148.248L91.4208 149.002L87.5783 150.137L83.6219 150.495L80.0779 151.906L76.8758 153.963L74.1459 156.59L71.9425 159.797L71.2153 163.737L69.2669 160.443L66.5804 157.675L65.1748 154.158L63.8559 150.631L63.2644 146.897L61.9618 143.331L61.392 139.597L61.468 135.814L61.1641 132.059L61.8804 128.33L61.8425 124.564L62.5751 120.879L63.3512 117.4L64.3824 113.986L66.1679 110.903L67.4217 107.511L69.3917 104.472L71.8339 101.78L75.1825 99.186L79.0196 97.3896L83.1443 96.7492L87.3504 96.239L91.0734 98.2905L95.133 99.6039L98.004 102.719L98.3024 102.958Z" fill="#41B879"/>
<path d="M98.3024 102.958L100.848 100.157L104.403 98.8875L107.979 97.9214L111.637 98.144L114.91 99.6365L118.296 101.265L120.798 104.103L122.052 107.696L124.326 110.838L123.729 114.898L123.875 118.876L123.523 122.881L122.014 126.604L119.745 129.909L117.9 133.367L115.67 136.623L113.054 139.63L109.987 142.208L106.59 144.33L102.992 146.104L98.9646 146.669L95.312 148.248L91.4208 149.002L87.5783 150.137L83.6219 150.495L80.0779 151.906L76.8758 153.963L74.1459 156.59L71.9425 159.797L71.2153 163.737L69.2669 160.443L66.5804 157.675L65.1748 154.158L63.8559 150.631L63.2644 146.897L61.9618 143.331L61.392 139.597L61.468 135.814L61.1641 132.059L61.8804 128.33L61.8425 124.564L62.5751 120.879L63.3512 117.4L64.3824 113.986L66.1679 110.903L67.4217 107.511L69.3917 104.472L71.8339 101.78L75.1825 99.186L79.0196 97.3896L83.1443 96.7492L87.3504 96.239L91.0734 98.2905L95.133 99.6039L98.004 102.719L98.3024 102.958Z" stroke="#383839" stroke-width="1.62816" stroke-linecap="round" stroke-linejoin="round"/>
<path d="M44.2793 42.0645L48.3985 42.325L51.568 44.9355L55.1988 46.8133L57.0224 50.4659L59.5623 53.6137L60.4632 57.5701L62.0263 61.2443L62.824 65.1573L64.0397 68.4679L65.8525 71.4529L67.8659 74.2316L70.3787 76.9615L73.3203 79.2844L76.62 81.249L80.3594 82.1988L84.2127 82.3996L87.9466 81.3901L91.7185 80.9668L95.5447 79.5612L98.6545 76.9127L101.471 73.9494L102.747 70.0635L103.751 65.8466L107.827 65.2333L110.991 63.1438L113.834 60.4302L113.791 56.4629L113.612 52.577L112.32 48.8649L111.17 45.1363L108.472 42.2599L106.405 39.009L103.637 36.3334L100.901 33.6307L97.8567 31.2372L94.5353 29.1803L90.8773 27.7801L87.0511 26.9552L83.1599 26.7707L79.2631 26.6133L75.4315 27.2917L71.7355 28.4585L68.0885 29.6796L64.5011 31.0527L60.8051 32.225L57.0984 33.5004L53.9723 35.8504L50.5477 37.6956L47.1502 39.606L44.3444 42.3685L44.2793 42.0645Z" fill="#89CB9A"/>
<path d="M44.2793 42.0645L48.3985 42.325L51.568 44.9355L55.1988 46.8133L57.0224 50.4659L59.5623 53.6137L60.4632 57.5701L62.0263 61.2443L62.824 65.1573L64.0397 68.4679L65.8525 71.4529L67.8659 74.2316L70.3787 76.9615L73.3203 79.2844L76.62 81.249L80.3594 82.1988L84.2127 82.3996L87.9466 81.3901L91.7185 80.9668L95.5447 79.5612L98.6545 76.9127L101.471 73.9494L102.747 70.0635L103.751 65.8466L107.827 65.2333L110.991 63.1438L113.834 60.4302L113.791 56.4629L113.612 52.577L112.32 48.8649L111.17 45.1363L108.472 42.2599L106.405 39.009L103.637 36.3334L100.901 33.6307L97.8567 31.2372L94.5353 29.1803L90.8773 27.7801L87.0511 26.9552L83.1599 26.7707L79.2631 26.6133L75.4315 27.2917L71.7355 28.4585L68.0885 29.6796L64.5011 31.0527L60.8051 32.225L57.0984 33.5004L53.9723 35.8504L50.5477 37.6956L47.1502 39.606L44.3444 42.3685L44.2793 42.0645Z" stroke="#383839" stroke-width="1.62816" stroke-linecap="round" stroke-linejoin="round"/>
<path d="M98.3524 103.094L95.1937 105.449L91.9319 107.793L89.1858 110.697L86.7869 113.899L84.7572 117.335L82.8142 120.786L80.2254 123.945L78.9989 127.776L78.2011 131.695L77.908 135.651L77.2188 139.575" stroke="#383839" stroke-width="1.62816" stroke-linecap="round" stroke-linejoin="round"/>
<path d="M155.854 118.241L158.073 121.394L160.863 124.13L162.833 127.456L165.02 130.68L166.599 134.257L167.148 138.137L167.234 142.039" stroke="#383839" stroke-width="1.62816" stroke-linecap="round" stroke-linejoin="round"/>
<path d="M136.264 69.6458L139.276 72.126L142.348 74.4977L145.436 76.8477L148.768 78.91L151.449 81.7647L154.499 84.1798L157.734 86.4267L160.578 89.1077L162.645 92.5106L165.56 95.132" stroke="#383839" stroke-width="1.62816" stroke-linecap="round" stroke-linejoin="round"/>
<path d="M155.322 44.3982L152.256 47.5731L149.83 51.2582L147.621 55.0952L146.378 59.3827" stroke="#383839" stroke-width="1.62816" stroke-linecap="round" stroke-linejoin="round"/>
<path d="M45.4023 42.7537L49.4076 42.2489L53.3315 41.196L57.3639 41.6139L61.3584 41.196L65.3365 41.793L69.3038 42.1186L73.244 42.6668L77.1515 43.4103L81.108 44.1213L84.6357 46.0425L88.4618 47.3668L91.3546 50.1998L94.4644 52.7017L96.4778 56.1588L99.0721 59.2849" stroke="#383839" stroke-width="1.62816" stroke-linecap="round" stroke-linejoin="round"/>
<path d="M28.5703 73.3306L32.5647 72.3157L36.239 70.6442L40.2497 70.1666L44.2332 69.9169L48.2548 69.2385L52.3089 69.651L56.222 70.8178L59.5868 73.1624L63.082 75.0728L66.1483 77.6236L69.1116 80.3155" stroke="#383839" stroke-width="1.62816" stroke-linecap="round" stroke-linejoin="round"/>
<path fill-rule="evenodd" clip-rule="evenodd" d="M110.529 206.471L111.375 206.048L113.953 204.36L116.053 202.108L116.634 198.802L113.796 196.892L111.31 198.14L110.263 198.526L108.385 196.908L105.454 198.764L105.888 202.232L108.331 204.246L110.529 206.471Z" fill="#FFA6A6"/>
<path fill-rule="evenodd" clip-rule="evenodd" d="M131.043 206.883L132.525 206.58L135.201 204.843L137.117 202.243L137.263 198.873L134.593 197.261L132.531 198.374L131.488 198.243L129.187 196.642L126.132 198.716L127.033 202.048L128.862 204.539L131.043 206.883Z" fill="#FFA6A6"/>
<path d="M127.66 213.044L127.242 215.345L125.945 217.309L124.084 218.856L121.674 219.269L119.281 218.818L117.229 217.483L116.133 215.334L115.313 213.038" stroke="#F6F7F7" stroke-width="1.62" stroke-linecap="round" stroke-linejoin="round"/>
</g>
<defs>
<clipPath id="clip0_1712_4059">
<rect width="210" height="234" fill="white"/>
</clipPath>
</defs>
</svg>
