<svg width="87" height="200" viewBox="0 0 87 200" fill="none" xmlns="http://www.w3.org/2000/svg">
<path d="M73.2204 199.135L71.4403 199.211L69.595 198.978L67.7498 199.379L65.9045 199.075L64.0593 198.94L62.214 199.184L60.3687 198.994L58.5235 198.88L56.6782 199.26L54.833 199.428L52.9877 199.021L51.1479 199.52L49.3027 199.303L47.4574 199.005L45.6121 199.222L43.7669 199.179L41.9216 199.309L40.0764 199.482L38.2311 199.01L36.3859 199.086L34.5406 199.401L32.6954 199.179L30.8501 199.292L29.0049 199.303L27.1596 199.358L25.3144 199.146L23.4691 199.157L21.6239 199.396L19.7786 199.01L17.9279 199.298L16.0176 199.254L15.464 197.388L15.5237 195.461L14.9484 193.654L14.5413 191.814L14.5685 189.893L13.9227 188.102L13.8901 186.191L13.1357 184.422L13.0597 182.522L12.9186 180.634L12.4899 178.799L12.1371 176.954L11.5727 175.147L11.2307 173.296L11.0299 171.418L10.5958 169.584L10.1887 167.744L9.99334 165.866L9.71113 164.005L9.41264 162.143L8.9079 160.32L8.74509 158.436L7.92016 156.673L7.5294 154.827L7.17662 152.977L6.88898 151.11L6.62305 149.183L8.55513 149.302L10.4384 149.08L12.3216 149.411L14.2049 148.939L16.0881 149.313L17.9714 149.14L19.8546 149.34L21.7378 148.999L23.6211 148.966H25.5043L27.3876 148.982L29.2708 149.297L31.1541 149.172L33.0373 148.917L34.9205 149.368L36.8038 148.89L38.687 149.031L40.5703 149.319L42.4535 148.923L44.3367 149.226L46.22 149.237L48.1032 149.205L49.9865 148.939L51.8697 149.026L53.753 149.389L55.6362 149.015L57.5195 148.933L59.4027 149.433L61.2859 148.901L63.1692 148.885L65.0524 149.46L66.9357 149.357L68.8189 149.373L70.7022 149.14L72.5854 149.281L74.4686 148.999L76.3519 149.216L78.2406 149.433L80.1618 149.194L80.1347 151.104L79.5105 152.901L79.5919 154.795L79.174 156.618L78.7019 158.436L78.6693 160.314L78.3708 162.159L77.8661 163.972L77.7195 165.834L77.6815 167.712L77.0683 169.508L76.9163 171.369L77.09 173.28L76.7643 175.12L76.3682 176.954L76.1402 178.805L76.0805 180.683L75.8689 182.539L75.4618 184.368L75.0005 186.191L75.1036 188.091L74.4686 189.887L74.3981 191.765L73.8988 193.583L74.0127 195.488L73.3126 197.279L73.2095 199.097L73.2204 199.135Z" fill="#363737"/>
<path d="M86.4989 149.753L84.6645 150.008L82.7921 149.531L80.9198 149.764L79.0474 149.965L77.175 149.824H75.3026L73.4248 149.585L71.5524 149.704L69.68 149.531L67.8076 150.035L65.9352 150.014L64.0628 149.992L62.185 149.769L60.3126 149.639L58.4402 149.71L56.5624 149.905L54.6846 149.927H52.8122L50.9398 149.672L49.062 149.965L47.1842 149.699L45.3064 149.948L43.4286 149.921L41.5508 149.65L39.6729 150.122L37.7951 150.035L35.9173 149.872L34.0449 149.682L32.1671 149.845L30.2947 149.612L28.4223 149.748L26.5445 149.932L24.6721 149.715L22.7943 149.883L20.9165 150.1L19.0387 149.699L17.1609 149.943L15.283 149.927L13.4052 149.992L11.5274 149.834L9.6496 149.541L7.77177 149.585L5.89396 149.731L4.01615 150.03L2.13291 149.867L0.32022 149.715L0.059708 147.881L0.499311 145.976L0.369063 144.071L0.569867 142.16L0.374479 140.255L0.0705564 138.345L0.34735 136.435L0 134.524L0.515592 132.614L0.358198 130.801L2.13291 130.997L4.00529 130.383L5.87768 130.497L7.75008 130.845L9.62245 130.682L11.4948 130.801L13.3727 130.769L15.2451 130.893L17.1174 130.59L18.9898 130.448L20.8622 130.763L22.74 130.497L24.6178 130.704L26.4902 130.568L28.3626 130.834L30.235 130.638L32.1128 130.986L33.9852 130.41H35.8576L37.7354 130.72L39.6132 130.481L41.4856 130.508L43.3634 130.427L45.2413 130.655L47.1191 130.79L48.9969 130.633L50.8693 130.812L52.7471 130.714L54.6195 130.416L56.4919 130.893H58.3643L60.2421 130.877L62.1199 130.796L63.9977 130.948L65.8755 130.552L67.7533 130.481L69.6311 130.579L71.509 130.595L73.3868 130.573L75.2646 130.503L77.1424 130.785L79.0202 130.519L80.898 130.666L82.7759 130.519L84.6591 130.866L86.6889 130.557L86.2276 132.608L86.4067 134.513L86.2927 136.424L86.5749 138.334L86.8191 140.239L86.8517 142.144L86.2656 144.054L86.2384 145.965L86.8843 147.881L86.5098 149.748H86.4989V149.753Z" fill="#363737"/>
<path d="M23.9881 131.002L22.919 130.286L20.7915 126.839L18.854 123.285L17.101 119.637L15.0549 116.126L13.2857 112.474L12.5096 108.414L11.283 104.593L9.7634 100.995L8.75936 97.2394L7.79332 93.4783L6.42023 89.8041L6.2954 85.8476L4.82463 82.1734L4.75951 78.2333L3.93456 74.4288L3.33215 70.5863L3.25074 66.6842L2.68087 62.8308L2.0459 58.9667L2.53434 55.0591L2.45837 51.1732L2.12187 47.2493L2.59947 43.3689L3.73919 39.6078L7.06064 39.5481L6.96838 43.4177L8.46628 46.9617L9.18268 50.6739L9.98048 54.3698L11.207 57.9518L12.7321 61.4198L14.0129 64.9637L15.4403 68.4589L17.1661 71.8183L19.2013 74.9932L19.7929 75.2971L20.0371 79.4598L21.6219 83.1829L22.7724 87.0525L24.7479 90.6507L25.7411 94.5692L27.1793 98.3465L27.5701 102.455L28.8021 106.297L30.3325 110.042L31.342 113.955L33.095 117.624L33.8765 121.613L35.1573 125.445L36.7258 129.184L35.0976 131.349L31.3908 131.865L27.7058 130.942L23.9881 131.002Z" fill="#41B879"/>
<path d="M23.9881 131.002L22.919 130.286L20.7915 126.839L18.854 123.285L17.101 119.637L15.0549 116.126L13.2857 112.474L12.5096 108.414L11.283 104.593L9.7634 100.995L8.75936 97.2394L7.79332 93.4783L6.42023 89.8041L6.2954 85.8476L4.82463 82.1734L4.75951 78.2333L3.93456 74.4288L3.33215 70.5863L3.25074 66.6842L2.68087 62.8308L2.0459 58.9667L2.53434 55.0591L2.45837 51.1732L2.12187 47.2493L2.59947 43.3689L3.73919 39.6078L7.06064 39.5481L6.96838 43.4177L8.46628 46.9617L9.18268 50.6739L9.98048 54.3698L11.207 57.9518L12.7321 61.4198L14.0129 64.9637L15.4403 68.4589L17.1661 71.8183L19.2013 74.9932L19.7929 75.2971L20.0371 79.4598L21.6219 83.1829L22.7724 87.0525L24.7479 90.6507L25.7411 94.5692L27.1793 98.3465L27.5701 102.455L28.8021 106.297L30.3325 110.042L31.342 113.955L33.095 117.624L33.8765 121.613L35.1573 125.445L36.7258 129.184L35.0976 131.349L31.3908 131.865L27.7058 130.942L23.9881 131.002Z" stroke="#383839" stroke-width="1.62816" stroke-linecap="round" stroke-linejoin="round"/>
<path d="M28.187 10.9522L28.2087 14.876L27.6008 18.7402L26.5805 22.5773L25.761 26.4306L25.7719 30.3545L25.2834 34.2403L25.3323 38.1642L25.4625 42.0881L25.6742 46.0174L24.6539 49.8761L25.1532 53.8109L24.7353 57.7076L24.0352 61.5989L25.1857 65.5391L24.9741 69.4412L24.6376 73.3434L23.7041 77.2619L25.0066 81.1586L24.4856 85.0825L25.1966 88.9684L24.8492 92.8977L25.0066 96.8053L25.989 100.648L25.5548 104.62L26.5534 108.436L26.9821 112.322L27.2046 116.267L27.959 120.142L30.4067 123.464L30.575 127.643L32.6481 131.105L34.5857 131.968L38.211 131.203L41.8418 131.23L45.4781 131.919L49.1143 131.317L50.5525 129.542L50.9161 125.58L50.0424 121.77L49.8633 117.868L48.9569 114.058L48.7615 110.162L47.9095 106.352L47.9203 102.422L46.4713 98.6939L46.8729 94.7104L46.2813 90.8625L44.6097 87.1665L45.2773 83.145L44.8105 79.2808L44.1647 75.4437L42.5962 71.7424L42.8133 67.7751L42.0264 63.9543L41.5216 60.0956L40.5393 56.3074L39.8989 52.4704L38.6832 48.7256L39.1228 44.6986L37.7226 40.9918L37.1961 37.133L36.2627 33.3503L35.0633 29.6272L34.7593 25.7142L34.6996 21.736L32.7567 18.2029L32.1706 14.3333L31.1828 10.5723L28.187 10.9522Z" fill="#FFF6F0"/>
<path d="M28.187 10.9522L28.2087 14.876L27.6008 18.7402L26.5805 22.5773L25.761 26.4306L25.7719 30.3545L25.2834 34.2403L25.3323 38.1642L25.4625 42.0881L25.6742 46.0174L24.6539 49.8761L25.1532 53.8109L24.7353 57.7076L24.0352 61.5989L25.1857 65.5391L24.9741 69.4412L24.6376 73.3434L23.7041 77.2619L25.0066 81.1586L24.4856 85.0825L25.1966 88.9684L24.8492 92.8977L25.0066 96.8053L25.989 100.648L25.5548 104.62L26.5534 108.436L26.9821 112.322L27.2046 116.267L27.959 120.142L30.4067 123.464L30.575 127.643L32.6481 131.105L34.5857 131.968L38.211 131.203L41.8418 131.23L45.4781 131.919L49.1143 131.317L50.5525 129.542L50.9161 125.58L50.0424 121.77L49.8633 117.868L48.9569 114.058L48.7615 110.162L47.9095 106.352L47.9203 102.422L46.4713 98.6939L46.8729 94.7104L46.2813 90.8625L44.6097 87.1665L45.2773 83.145L44.8105 79.2808L44.1647 75.4437L42.5962 71.7424L42.8133 67.7751L42.0264 63.9543L41.5216 60.0956L40.5393 56.3074L39.8989 52.4704L38.6832 48.7256L39.1228 44.6986L37.7226 40.9918L37.1961 37.133L36.2627 33.3503L35.0633 29.6272L34.7593 25.7142L34.6996 21.736L32.7567 18.2029L32.1706 14.3333L31.1828 10.5723L28.187 10.9522Z" stroke="#383839" stroke-width="1.62816" stroke-linecap="round" stroke-linejoin="round"/>
<path d="M56.3089 1.90506L55.3863 5.74753L54.2737 9.51944L52.6944 13.1502L52.2982 17.1284L50.3879 20.6778L50.2196 24.7102L47.9619 28.1891L47.8534 32.2215L46.8276 36.0205L46.3392 39.9444L44.2985 43.5318L43.4736 47.3905L44.0435 51.5152L42.3447 55.2057L42.9092 59.2924L40.9988 62.9721L41.2267 66.9936L40.6352 70.8795L39.3923 74.6894L39.1698 78.6296L39.1861 82.5969L38.1332 86.4448L38.2363 90.4066L38.4263 94.3685L37.5959 98.2598L37.6122 102.205L37.0641 106.124L37.6936 110.08L37.5037 114.01L37.178 117.944L37.3788 121.879L36.9609 125.83L36.9989 129.776L38.8876 130.649L42.9472 131.089L47.0067 131.426L51.0663 131.615L55.1313 130.546L57.3618 129.786L56.5423 125.895L56.7431 122.042L57.8883 118.216L57.4161 114.341L56.564 110.449L56.7214 106.596L57.3998 102.759L57.8177 98.9111L57.3835 95.036L58.1813 91.199L58.8272 87.3565L58.0511 83.4706L58.8815 79.6336L59.0226 75.7749L57.6929 71.8835L58.1813 68.0302L58.3062 64.1715L58.1542 60.3073L58.3062 56.4485L59.3048 52.6061L59.7824 48.7528L59.2614 44.8777L59.4242 41.019L59.6358 37.1602L59.5436 33.2961L59.8312 29.4373L60.0592 25.5731L59.4785 21.7035L58.8923 17.8394L59.6413 13.9806L60.3197 10.1219L60.1243 6.25769L59.6793 2.39894L56.4881 1.33521L56.3089 1.90506Z" fill="#41B879"/>
<path d="M56.3089 1.90506L55.3863 5.74753L54.2737 9.51944L52.6944 13.1502L52.2982 17.1284L50.3879 20.6778L50.2196 24.7102L47.9619 28.1891L47.8534 32.2215L46.8276 36.0205L46.3392 39.9444L44.2985 43.5318L43.4736 47.3905L44.0435 51.5152L42.3447 55.2057L42.9092 59.2924L40.9988 62.9721L41.2267 66.9936L40.6352 70.8795L39.3923 74.6894L39.1698 78.6296L39.1861 82.5969L38.1332 86.4448L38.2363 90.4066L38.4263 94.3685L37.5959 98.2598L37.6122 102.205L37.0641 106.124L37.6936 110.08L37.5037 114.01L37.178 117.944L37.3788 121.879L36.9609 125.83L36.9989 129.776L38.8876 130.649L42.9472 131.089L47.0067 131.426L51.0663 131.615L55.1312 130.546L57.3618 129.786L56.5423 125.895L56.7431 122.042L57.8883 118.216L57.4161 114.341L56.564 110.449L56.7214 106.596L57.3998 102.759L57.8177 98.9111L57.3835 95.036L58.1813 91.199L58.8272 87.3565L58.0511 83.4706L58.8815 79.6336L59.0226 75.7749L57.6929 71.8835L58.1813 68.0302L58.3062 64.1715L58.1542 60.3073L58.3062 56.4485L59.3048 52.6061L59.7824 48.7528L59.2614 44.8777L59.4242 41.019L59.6358 37.1602L59.5436 33.2961L59.8312 29.4373L60.0592 25.5731L59.4785 21.7035L58.8923 17.8394L59.6413 13.9806L60.3197 10.1219L60.1243 6.25769L59.6793 2.39894L56.4881 1.33521L56.3089 1.90506Z" stroke="#383839" stroke-width="1.62816" stroke-linecap="round" stroke-linejoin="round"/>
<path d="M78.7175 27.4562L77.3824 30.7288L76.0419 34.4248L74.9836 38.1913L74.9239 42.1965L73.7082 45.925L72.4274 49.6372L71.19 53.3603L71.2497 57.3927L70.7721 61.3003L68.9919 64.8931L69.0191 68.9201L67.2986 72.5238L66.7993 76.4314L64.7641 79.9537L65.0084 84.0458L63.0166 87.5789L61.8823 91.3237L61.5404 95.2747L60.3898 99.0195L59.402 102.802L58.7291 106.666L57.7522 110.455L57.1335 114.34L55.0983 117.83L55.0006 121.879L53.9694 125.667L51.7822 129.054L53.5027 131.518L57.0086 131.208L60.52 131.767L64.0369 131.691L67.5537 131.36L69.5075 130.839L71.3093 127.344L73.1763 123.882L74.7122 120.267L75.6945 116.414L77.2087 112.853L78.5601 109.201L79.2819 105.375L79.9386 101.543L80.5682 97.7278L81.1326 93.7876L82.7879 90.0211L82.1963 85.9019L84.0742 82.1354L84.6386 78.179L84.5083 74.1465L85.5124 70.2281L84.4975 66.1523L85.4418 62.2121L85.3604 58.2122L84.7363 54.2287L85.7512 50.218L85.3061 46.2344L85.431 42.202L83.6943 38.4029L83.3035 34.4356L82.6631 30.4955L81.7893 26.5662L79.5695 26.1646L78.7175 27.4562Z" fill="#FFF6F0"/>
<path d="M78.7175 27.4562L77.3824 30.7288L76.0419 34.4248L74.9836 38.1913L74.9239 42.1965L73.7082 45.925L72.4274 49.6372L71.19 53.3603L71.2497 57.3927L70.7721 61.3003L68.9919 64.8931L69.0191 68.9201L67.2986 72.5238L66.7993 76.4314L64.7641 79.9537L65.0084 84.0458L63.0166 87.5789L61.8823 91.3237L61.5404 95.2747L60.3898 99.0195L59.402 102.802L58.7291 106.666L57.7522 110.455L57.1335 114.34L55.0983 117.83L55.0006 121.879L53.9694 125.667L51.7822 129.054L53.5027 131.518L57.0086 131.208L60.52 131.767L64.0369 131.691L67.5537 131.36L69.5075 130.839L71.3093 127.344L73.1763 123.882L74.7122 120.267L75.6945 116.414L77.2087 112.853L78.5601 109.201L79.2819 105.375L79.9386 101.543L80.5682 97.7278L81.1326 93.7876L82.7879 90.0211L82.1963 85.9019L84.0742 82.1354L84.6386 78.179L84.5083 74.1465L85.5124 70.2281L84.4975 66.1523L85.4418 62.2121L85.3604 58.2122L84.7363 54.2287L85.7512 50.218L85.3061 46.2344L85.431 42.202L83.6943 38.4029L83.3035 34.4356L82.6631 30.4955L81.7893 26.5662L79.5695 26.1646L78.7175 27.4562Z" stroke="#383839" stroke-width="1.62816" stroke-linecap="round" stroke-linejoin="round"/>
<path d="M44.4541 129.428L45.8543 125.7L45.8001 121.781L46.4947 117.966L47.6453 114.216L48.5625 110.444L48.1446 106.455L48.4323 102.569L50.2612 98.9544L51.1513 95.1825L51.287 91.264L51.173 87.2859L52.405 83.5737L53.3547 79.8126L53.7021 75.8996L55.6939 72.4045L56.0141 68.4697L57.1972 64.7629L59.1022 61.3167L60.7195 57.8053L61.3273 53.7783L64.2363 51.0212L67.2701 51.7811L67.1941 55.7646L66.9879 59.7482L67.7966 63.6666L67.4601 67.6502L67.4981 71.6121L67.7423 75.5631L67.8617 79.5195L69.2619 83.4651L67.7423 87.4378L68.7409 91.4051L68.5509 95.3724L67.5795 99.3017L67.7151 103.274L67.9105 107.263L67.7206 111.242L66.684 115.106L65.6148 118.932L65.5877 122.975L64.8984 126.948L62.6895 130.373L61.2622 131.246L57.6205 131.263L53.9789 131.415L50.3318 131.713L46.6901 131.946L44.8937 129.591L44.4541 129.428Z" fill="#89CB9A"/>
<path d="M44.4541 129.428L45.8543 125.7L45.8001 121.781L46.4947 117.966L47.6453 114.216L48.5625 110.444L48.1446 106.455L48.4323 102.569L50.2612 98.9544L51.1513 95.1825L51.287 91.264L51.173 87.2859L52.405 83.5737L53.3547 79.8126L53.7021 75.8996L55.6939 72.4045L56.0141 68.4697L57.1972 64.7629L59.1022 61.3167L60.7195 57.8053L61.3273 53.7783L64.2363 51.0212L67.2701 51.7811L67.1941 55.7646L66.9879 59.7482L67.7966 63.6666L67.4601 67.6502L67.4981 71.6121L67.7423 75.5631L67.8617 79.5195L69.2619 83.4651L67.7423 87.4378L68.7409 91.4051L68.5509 95.3724L67.5795 99.3017L67.7151 103.274L67.9105 107.263L67.7206 111.242L66.684 115.106L65.6148 118.932L65.5877 122.975L64.8984 126.948L62.6895 130.373L61.2622 131.246L57.6205 131.263L53.9789 131.415L50.3318 131.713L46.6901 131.946L44.8937 129.591L44.4541 129.428Z" stroke="#383839" stroke-width="1.62816" stroke-linecap="round" stroke-linejoin="round"/>
<path d="M42.7009 130.248L42.0116 126.438L41.6805 122.579L41.9085 118.639L41.3223 114.813L39.9221 111.111L39.743 107.215L39.5748 103.318L38.1691 99.6328L37.4147 95.8392L36.5898 92.0564L35.754 88.2736L34.8585 84.5072L34.115 80.7027L32.2263 77.2076L32.2155 73.1806L30.278 69.7397L29.5073 65.9081L28.5413 62.0928L25.6485 59.2055L24.2483 55.553L20.7369 56.2965L20.2865 60.101L19.9337 63.9163L19.9228 67.7588L18.9839 71.5307L20.1779 75.422L19.9283 79.2211L18.6963 83.0255L19.0762 86.8517L19.5701 90.6616L18.9948 94.5312L19.8686 98.3031L19.9011 102.151L20.0857 106.01L21.8061 109.597L22.2023 113.418L23.749 116.962L24.1506 120.837L25.7734 124.321L26.8534 128.033L28.6715 131.425L30.3919 131.594L33.9576 132.126L37.5287 131.762L41.1053 131.463L42.9939 130.204L42.7009 130.248Z" fill="#89CB9A"/>
<path d="M42.7009 130.248L42.0116 126.438L41.6805 122.579L41.9085 118.639L41.3223 114.813L39.9221 111.111L39.743 107.215L39.5748 103.318L38.1691 99.6328L37.4147 95.8392L36.5898 92.0564L35.754 88.2736L34.8585 84.5072L34.115 80.7027L32.2263 77.2076L32.2155 73.1806L30.278 69.7397L29.5073 65.9081L28.5413 62.0928L25.6485 59.2055L24.2483 55.553L20.7369 56.2965L20.2865 60.101L19.9337 63.9163L19.9228 67.7588L18.9839 71.5307L20.1779 75.422L19.9283 79.2211L18.6963 83.0255L19.0762 86.8517L19.5701 90.6616L18.9948 94.5312L19.8686 98.3031L19.9011 102.151L20.0857 106.01L21.8061 109.597L22.2023 113.418L23.749 116.962L24.1506 120.837L25.7734 124.321L26.8534 128.033L28.6715 131.425L30.3919 131.594L33.9576 132.126L37.5287 131.762L41.1053 131.463L42.9939 130.204L42.7009 130.248Z" stroke="#383839" stroke-width="1.62816" stroke-linecap="round" stroke-linejoin="round"/>
<path d="M37.4927 130.969C37.4927 130.969 29.1131 72.2414 22.9912 57.2677C22.7524 56.687 21.8677 56.8661 21.9003 57.4902C22.4864 69.7937 25.4226 121.363 33.8022 131.322" fill="#89CB9A"/>
<path d="M37.6064 130.948L36.8303 127.208L36.1845 123.453L35.8642 119.654L35.4626 115.86L34.4803 112.153L34.1547 108.349L33.2592 104.631L32.9444 100.821L32.1683 97.0872L31.669 93.3045L30.8549 89.576L30.0083 85.8529L29.5253 82.0647L28.4778 78.385L27.8591 74.6186L27.197 70.8629L26.3558 67.1399L25.2378 63.4928L24.0004 59.8891L23.0723 56.1877L21.6992 56.4591L22.2257 60.2527L22.4536 64.0626L22.8064 67.8671L22.7413 71.6933L23.0506 75.5032L23.3599 79.3077L23.7616 83.1067L24.0329 86.9112L24.2392 90.7319L25.1455 94.4713L25.2378 98.3083L25.8673 102.08L26.2635 105.879L27.1536 109.608L27.7831 113.369L28.4561 117.13L29.2865 120.858L30.437 124.506L31.8698 128.044L33.7259 131.382" stroke="#383839" stroke-width="1.62816" stroke-linecap="round" stroke-linejoin="round"/>
<path d="M22.1325 112.37L20.5858 108.685L18.7188 105.19L16.9007 101.663L15.3214 98.0154L13.6715 94.3955L12.6403 90.5422L11.5332 86.7323L10.2035 82.9875L9.36229 79.107L8.39083 75.2591L7.44649 71.4004L6.89835 67.4711L6.26879 63.5526L5.55783 59.6396L5.46556 55.656L5.08023 51.705L5.17792 47.7269L4.97168 43.7542L5.16164 39.7869" stroke="#363737" stroke-width="1.62816" stroke-miterlimit="10"/>
<path d="M58.0764 1.48169L57.0941 5.3133L56.7413 9.23718L56.1172 13.1176L55.8784 17.0524L55.3628 20.9545L54.6844 24.8296L53.8107 28.672L53.3656 32.5796L53.1051 36.5143L52.3779 40.384L51.6886 44.259L51.249 48.1666L50.576 52.0416L50.1581 55.9546L49.4092 59.8188L49.1595 63.759L48.5245 67.6448L47.7539 71.509L47.4445 75.4383L47.0429 79.3568L46.5002 83.2535L45.621 87.1068L45.2411 91.0253L45.0348 94.9654L44.4704 98.8622L43.7215 102.732L43.4067 106.656L42.8911 110.558L42.3158 114.449L42.2832 118.4L41.5234 122.275" stroke="#363737" stroke-width="1.62816" stroke-miterlimit="10"/>
<path d="M65.5333 50.728L64.7084 54.5379L64.3393 58.4021L64.1819 62.2934L63.3136 66.0925L63.0368 69.9729L62.2064 73.7774L61.9622 77.6579L61.4846 81.5112L60.969 85.3591L60.1278 89.1581L59.6014 93.006L59.2974 96.8865L58.733 100.734L57.9786 104.544L57.2948 108.37L56.5513 112.18L55.8186 115.996L55.3356 119.86L54.337 123.615L53.181 127.328L52.2529 131.083" stroke="#363737" stroke-width="1.62816" stroke-miterlimit="10"/>
<path d="M67.6992 100.024L69.4685 96.4851L70.5811 92.6698L71.292 88.7622L72.1984 84.9034L72.5674 80.9415L73.5606 77.0882L74.2282 73.1806L74.7654 69.2513L75.471 65.3492L76.1331 61.4361L76.2851 57.4526L77.1914 53.5721L77.4953 49.6102L78.1412 45.6972L78.5808 41.7571L79.1126 37.8278L79.5197 33.8822L80.1872 29.9746L80.6214 26.0344" stroke="#363737" stroke-width="1.62816" stroke-miterlimit="10"/>
<path d="M82.9498 32.8074L83.0801 36.715L82.7382 40.6063L82.8358 44.5247L82.5482 48.4215L81.9349 52.2856L81.4085 56.1607L81.4953 60.09L80.958 63.9596L80.5347 67.84L79.8672 71.6934L79.6664 75.6118L78.9337 79.4543L78.1305 83.275L77.2567 87.0849L76.4426 90.9003L76.041 94.8133L74.9555 98.5743L73.6639 102.265L72.5676 106.026L70.6952 109.467L69.1213 113.043L66.6953 116.104" stroke="#363737" stroke-width="1.62816" stroke-miterlimit="10"/>
<path d="M29.8291 11.4133L30.1927 15.2395L30.7192 19.0548L30.958 22.8865L31.1859 26.7181L31.3053 30.5605L31.5224 34.3976L31.7937 38.2292L32.1302 42.0554L32.4776 45.8816L32.521 49.7294L32.8412 53.5611L33.3134 57.3764L33.6878 61.2026L33.9646 65.0396L34.1329 68.8821L34.7353 72.6811L35.0501 76.5127L35.2943 80.3552L35.9456 84.1434L36.3743 87.9587L37.1124 91.7252" stroke="#363737" stroke-width="1.62816" stroke-miterlimit="10"/>
<path d="M33.8384 168.732L38.4036 171.229L33.6484 173.346" stroke="#F3F2F2" stroke-width="2.17088" stroke-linecap="round" stroke-linejoin="round"/>
<path d="M53.0142 168.694L49.0244 171.251L53.4268 172.988" stroke="#F3F2F2" stroke-width="2.17088" stroke-linecap="round" stroke-linejoin="round"/>
<path d="M38.1484 176.781L42.17 176.721L45.8171 176.449L49.0517 177.236L46.9948 179.532L43.9827 181.198L40.4442 180.075L38.1484 176.781Z" stroke="#F3F2F2" stroke-width="2.17088" stroke-linecap="round" stroke-linejoin="round"/>
</svg>
