<svg width="210" height="234" viewBox="0 0 210 234" fill="none" xmlns="http://www.w3.org/2000/svg">
<g clip-path="url(#clip0_1712_3316)">
<rect width="210" height="234" fill="transparent"/>
<path d="M113.148 68.8181L111.726 73.0513L110.174 76.9915L110.467 82.3753L112.155 79.0756L114.765 76.5248L116.279 73.2467L118.884 70.0827L113.148 68.8181Z" fill="#FFF6F0"/>
<path d="M113.148 68.8181L111.726 73.0513L110.174 76.9915L110.467 82.3753L112.155 79.0756L114.765 76.5248L116.279 73.2467L118.884 70.0827L113.148 68.8181Z" stroke="#383839" stroke-width="1.62816" stroke-linecap="round" stroke-linejoin="round"/>
<path d="M97.522 103.01L101.131 106.429L104.865 108.79L105.451 114.352L102.043 112.127L98.3469 110.684L95.1178 108.399L91.5195 106.64L94.3145 104.681L97.522 103.01Z" fill="#FFF6F0"/>
<path d="M97.522 103.01L101.131 106.429L104.865 108.79L105.451 114.352L102.043 112.127L98.3469 110.684L95.1178 108.399L91.5195 106.64L94.3145 104.681L97.522 103.01Z" stroke="#383839" stroke-width="1.62816" stroke-linecap="round" stroke-linejoin="round"/>
<path d="M112.259 120.903L115.635 118.624L118.859 115.937L122.918 114.852L126.815 113.549L130.858 112.8L134.907 111.547L139.097 111.633L142.744 112.827L146.255 114.26L148.823 117.522L147.292 121.354L143.824 123.4L140.611 125.918L136.476 127.041L132.253 127.025L128.091 126.591L123.895 126.678L119.711 126.32L115.727 124.914L111.445 124.018L112.259 120.903Z" fill="#FFF6F0"/>
<path d="M112.259 120.903L115.635 118.624L118.859 115.937L122.918 114.852L126.815 113.549L130.858 112.8L134.907 111.547L139.097 111.633L142.744 112.827L146.255 114.26L148.823 117.522L147.292 121.354L143.824 123.4L140.611 125.918L136.476 127.041L132.253 127.025L128.091 126.591L123.895 126.678L119.711 126.32L115.727 124.914L111.445 124.018L112.259 120.903Z" stroke="#383839" stroke-width="1.62816" stroke-linecap="round" stroke-linejoin="round"/>
<path d="M112.523 121.766L116.643 122.233L120.512 120.784L124.626 121.185L128.588 120.453L132.61 120.143L136.506 118.879L140.555 118.776L144.566 118.369L148.566 117.902" stroke="#383839" stroke-width="1.62816" stroke-linecap="round" stroke-linejoin="round"/>
<path d="M98.3167 79.5478L98.854 75.7867L99.3099 71.9714L98.5229 68.1995L98.0942 64.4113L96.6777 60.8728L95.8582 57.0629L93.0632 54.3384L90.4852 51.6302L87.2398 49.7795L83.7501 48.4119L80.2766 47.7498L76.635 48.1568L73.9919 50.7564L73.7532 54.2624L73.4492 57.7738L74.5673 61.486L76.1574 65.0354L78.7679 67.9173L81.2318 70.924L84.1408 73.5562L87.4948 75.5751L91.2179 76.8179L94.8921 78.0282L98.3493 79.9168L98.3167 79.5478Z" fill="#FFF6F0"/>
<path d="M98.3167 79.5478L98.854 75.7867L99.3099 71.9714L98.5229 68.1995L98.0942 64.4113L96.6777 60.8728L95.8582 57.0629L93.0632 54.3384L90.4852 51.6302L87.2398 49.7795L83.7501 48.4119L80.2766 47.7498L76.635 48.1568L73.9919 50.7564L73.7532 54.2624L73.4492 57.7738L74.5673 61.486L76.1574 65.0354L78.7679 67.9173L81.2318 70.924L84.1408 73.5561L87.4948 75.5751L91.2179 76.8179L94.8921 78.0282L98.3493 79.9168L98.3167 79.5478Z" stroke="#383839" stroke-width="1.62816" stroke-linecap="round" stroke-linejoin="round"/>
<path d="M76.3574 48.8623L78.6966 52.1892L81.6381 55.0548L83.4237 58.7995L86.0993 61.8659L88.8509 64.8834L91.3528 68.0801L93.3501 71.6675L96.3079 74.533L98.3973 78.0499" stroke="#383839" stroke-width="1.62816" stroke-linecap="round" stroke-linejoin="round"/>
<path d="M115.871 89.5554L113.179 92.4264L110.884 95.7479L110.971 101.023L114.2 98.2932L116.816 95.3408L119.502 92.3938L115.871 89.5554Z" fill="#FFF6F0"/>
<path d="M115.871 89.5554L113.179 92.4264L110.884 95.7479L110.971 101.023L114.2 98.2932L116.816 95.3408L119.502 92.3938L115.871 89.5554Z" stroke="#383839" stroke-width="1.62816" stroke-linecap="round" stroke-linejoin="round"/>
<path d="M100.521 140.685L105.682 138.911L105.459 142.026L105.573 145.185L100.814 147.198L100.189 143.763L100.521 140.685Z" fill="#FFF6F0"/>
<path d="M100.521 140.685L105.682 138.911L105.459 142.026L105.573 145.185L100.814 147.198L100.189 143.763L100.521 140.685Z" stroke="#383839" stroke-width="1.62816" stroke-linecap="round" stroke-linejoin="round"/>
<path d="M114.662 132.208L112.567 135.79L111.878 141.537L115.91 138.248L120.138 135.703L116.648 132.121L114.874 132.371L114.662 132.208Z" fill="#FFF6F0"/>
<path d="M114.662 132.208L112.567 135.79L111.878 141.537L115.91 138.248L120.138 135.703L116.648 132.121L114.874 132.371L114.662 132.208Z" stroke="#383839" stroke-width="1.62816" stroke-linecap="round" stroke-linejoin="round"/>
<path d="M136.417 233.898L134.637 233.974L132.791 233.74L130.946 234.142L129.101 233.838L127.256 233.702L125.41 233.946L123.565 233.756L121.72 233.642L119.875 234.022L118.029 234.191L116.184 233.784L114.344 234.283L112.499 234.066L110.654 233.767L108.808 233.984L106.963 233.941L105.118 234.071L103.273 234.245L101.427 233.773L99.5822 233.849L97.7369 234.163L95.8916 233.941L94.0464 234.055L92.2012 234.066L90.3559 234.12L88.5106 233.908L86.6654 233.919L84.8201 234.158L82.9749 233.773L81.1242 234.06L79.2138 234.017L78.6602 232.15L78.7199 230.223L78.1447 228.416L77.7376 226.576L77.7647 224.655L77.1189 222.864L77.0863 220.954L76.332 219.184L76.256 217.285L76.1149 215.396L75.6861 213.562L75.3333 211.717L74.769 209.909L74.427 208.059L74.2262 206.181L73.792 204.346L73.385 202.507L73.1896 200.629L72.9074 198.767L72.6089 196.906L72.1042 195.082L71.9413 193.199L71.1164 191.435L70.7256 189.59L70.3729 187.739L70.0853 185.872L69.8193 183.945L71.7514 184.065L73.6346 183.842L75.5179 184.173L77.4011 183.701L79.2844 184.076L81.1676 183.902L83.0509 184.103L84.9341 183.761L86.8173 183.728H88.7006L90.5839 183.745L92.4671 184.059L94.3503 183.935L96.2335 183.68L98.1168 184.13L100 183.652L101.883 183.794L103.767 184.081L105.65 183.685L107.533 183.989L109.416 184L111.299 183.967L113.183 183.701L115.066 183.788L116.949 184.152L118.832 183.777L120.716 183.696L122.599 184.195L124.482 183.663L126.365 183.647L128.249 184.222L130.132 184.119L132.015 184.135L133.898 183.902L135.782 184.043L137.665 183.761L139.548 183.978L141.437 184.195L143.358 183.956L143.331 185.867L142.707 187.663L142.788 189.557L142.37 191.381L141.898 193.199L141.866 195.077L141.567 196.922L141.062 198.735L140.916 200.596L140.878 202.474L140.265 204.27L140.113 206.132L140.286 208.042L139.961 209.882L139.564 211.717L139.336 213.567L139.277 215.445L139.065 217.301L138.658 219.13L138.197 220.954L138.3 222.853L137.665 224.65L137.594 226.527L137.095 228.345L137.209 230.25L136.509 232.041L136.406 233.86L136.417 233.898Z" fill="#363737"/>
<path d="M149.697 184.51L147.863 184.765L145.99 184.288L144.118 184.521L142.246 184.722L140.373 184.581H138.501L136.623 184.342L134.751 184.461L132.878 184.288L131.006 184.792L129.133 184.771L127.261 184.749L125.383 184.526L123.511 184.396L121.639 184.467L119.761 184.662L117.883 184.684H116.01L114.138 184.429L112.26 184.722L110.382 184.456L108.505 184.705L106.627 184.678L104.749 184.407L102.871 184.879L100.993 184.792L99.1156 184.63L97.2431 184.44L95.3653 184.602L93.493 184.369L91.6206 184.505L89.7428 184.689L87.8704 184.472L85.9925 184.64L84.1147 184.857L82.2369 184.456L80.3591 184.7L78.4813 184.684L76.6035 184.749L74.7256 184.592L72.8478 184.298L70.97 184.342L69.0922 184.488L67.2144 184.787L65.3312 184.624L63.5184 184.472L63.2579 182.638L63.6976 180.733L63.5673 178.828L63.7681 176.917L63.5728 175.012L63.2688 173.102L63.5456 171.192L63.1982 169.281L63.7139 167.371L63.5565 165.558L65.3312 165.754L67.2035 165.14L69.076 165.254L70.9483 165.602L72.8207 165.439L74.6931 165.558L76.5709 165.526L78.4433 165.651L80.3157 165.347L82.1881 165.206L84.0605 165.52L85.9383 165.254L87.8161 165.461L89.6885 165.325L91.5609 165.591L93.4333 165.395L95.3111 165.743L97.1834 165.168H99.0559L100.934 165.477L102.811 165.238L104.684 165.265L106.562 165.184L108.439 165.412L110.317 165.547L112.195 165.39L114.068 165.569L115.945 165.471L117.818 165.173L119.69 165.651H121.563L123.44 165.634L125.318 165.553L127.196 165.705L129.074 165.309L130.952 165.238L132.829 165.336L134.707 165.352L136.585 165.33L138.463 165.26L140.341 165.542L142.218 165.276L144.096 165.423L145.974 165.276L147.857 165.623L149.887 165.314L149.426 167.366L149.605 169.27L149.491 171.181L149.773 173.091L150.017 174.996L150.05 176.901L149.464 178.812L149.437 180.722L150.082 182.638L149.708 184.505H149.697V184.51Z" fill="#363737"/>
<path d="M105.656 167.333L109.167 167.127L112.7 167.344L112.022 163.344L112.586 159.404L112.63 155.474L112.624 151.545L112.651 147.621L111.94 143.708L111.734 139.784L111.332 135.866L111.414 131.937L111.148 128.013L111.381 124.078V120.149L111.159 116.225L111.289 112.29L111.658 108.355L111.24 104.431L110.54 100.518L110.882 96.5837L110.833 92.6544L111.077 88.7197L110.963 84.7904L110.556 80.8719L109.948 76.9535L109.775 73.0296L109.905 69.0894L109.954 65.3447L105.791 65.209L106.193 69.0786L105.487 73.0025L105.297 76.9263L105.411 80.8556L105.254 84.7795L105.618 88.7034L106.209 92.6273L105.58 96.5566L105.39 100.48L106.128 104.41L106.198 108.334L106.16 112.263L106.139 116.192L105.856 120.116L105.639 124.045L105.818 127.969L105.531 131.899L105.786 135.828L106.068 139.752L106.019 143.681L105.341 147.61L105.335 151.534L105.981 155.469L105.862 159.393L105.417 163.322L105.656 167.333Z" fill="#FFF6F0"/>
<path d="M105.656 167.333L109.167 167.127L112.7 167.344L112.022 163.344L112.586 159.404L112.63 155.474L112.624 151.545L112.651 147.621L111.94 143.708L111.734 139.784L111.332 135.866L111.414 131.937L111.148 128.013L111.381 124.078V120.149L111.159 116.225L111.289 112.29L111.658 108.355L111.24 104.431L110.54 100.518L110.882 96.5837L110.833 92.6544L111.077 88.7197L110.963 84.7904L110.556 80.8719L109.948 76.9535L109.775 73.0296L109.905 69.0894L109.954 65.3447L105.791 65.209L106.193 69.0786L105.487 73.0025L105.297 76.9263L105.411 80.8556L105.254 84.7795L105.618 88.7034L106.209 92.6273L105.58 96.5566L105.39 100.48L106.128 104.41L106.198 108.334L106.16 112.263L106.139 116.192L105.856 120.116L105.639 124.045L105.818 127.969L105.531 131.899L105.786 135.828L106.068 139.752L106.019 143.681L105.341 147.61L105.335 151.534L105.981 155.469L105.862 159.393L105.417 163.322L105.656 167.333Z" stroke="#383839" stroke-width="1.62816" stroke-linecap="round" stroke-linejoin="round"/>
<path d="M72.7562 143.649L70.1131 146.574L67.3887 149.591L69.0657 153.124L72.3492 155.301L76.2568 156.169L80.2077 156.706L84.2293 156.381L88.1749 155.833L92.2562 155.659L95.8544 153.765L98.8774 151.154L101.162 148.148L101.819 144.446L100.847 140.539L97.5911 138.091L93.689 137.326L89.9388 136.723L86.232 137.467L82.5415 138.183L79.0572 139.611L75.5838 141.114L72.7562 143.649Z" fill="#89CB9A"/>
<path d="M72.7562 143.649L70.1131 146.574L67.3887 149.591L69.0657 153.124L72.3492 155.301L76.2568 156.169L80.2077 156.706L84.2293 156.381L88.1749 155.833L92.2562 155.659L95.8544 153.765L98.8774 151.154L101.162 148.148L101.819 144.446L100.847 140.539L97.5911 138.091L93.689 137.326L89.9388 136.723L86.232 137.467L82.5415 138.183L79.0572 139.611L75.5838 141.114L72.7562 143.649Z" stroke="#383839" stroke-width="1.62816" stroke-linecap="round" stroke-linejoin="round"/>
<path d="M98.7524 106.765L97.1622 103.297L95.61 99.8616L94.009 96.4587L92.1583 93.1807L89.9929 90.1089L87.4964 87.2976L84.8099 84.6219L81.3474 83.1023L77.8251 81.9355L74.1291 80.7849L70.4224 81.8595L66.5744 82.2286L64.1051 85.7291L62.7754 89.653L64.485 93.5768L66.8133 97.1154L69.5757 99.6879L72.832 101.636L76.3706 102.971L79.8114 104.496L83.4151 105.604L87.1599 106.081L90.8992 106.499L94.6603 106.781L98.4702 107.047L98.7524 106.765Z" fill="#FFF6F0"/>
<path d="M98.7524 106.765L97.1622 103.297L95.61 99.8616L94.009 96.4587L92.1583 93.1807L89.9929 90.1089L87.4964 87.2976L84.8099 84.6219L81.3474 83.1023L77.8251 81.9355L74.1291 80.7849L70.4224 81.8595L66.5744 82.2286L64.1051 85.7291L62.7754 89.653L64.485 93.5768L66.8133 97.1154L69.5757 99.6879L72.832 101.636L76.3706 102.971L79.8114 104.496L83.4151 105.604L87.1599 106.081L90.8992 106.499L94.6603 106.781L98.4702 107.047L98.7524 106.765Z" stroke="#383839" stroke-width="1.62816" stroke-linecap="round" stroke-linejoin="round"/>
<path d="M114.555 72.2047L118.169 70.6525L121.111 68.004L124.866 66.4844L127.265 63.2389L130.711 61.1331L133.04 57.9148L135.227 54.5662L135.629 50.4361L135.954 46.3874L134.771 42.4364L132.041 38.7567L127.699 37.9155L123.347 38.2683L120.324 40.043L117.697 42.3604L115.917 45.3617L114.435 49.1173L113.035 52.8838L111.998 56.7968L111.391 60.8509L111.95 64.9213L113.16 68.8126L114.338 72.7474L114.555 72.2047Z" fill="#41B879"/>
<path d="M114.555 72.2047L118.169 70.6525L121.111 68.004L124.866 66.4844L127.265 63.2389L130.711 61.1331L133.04 57.9148L135.227 54.5662L135.629 50.4361L135.954 46.3874L134.771 42.4364L132.041 38.7567L127.699 37.9155L123.347 38.2683L120.324 40.043L117.697 42.3604L115.917 45.3617L114.435 49.1173L113.035 52.8838L111.998 56.7968L111.391 60.8509L111.95 64.9213L113.16 68.8126L114.338 72.7474L114.555 72.2047Z" stroke="#383839" stroke-width="1.62816" stroke-linecap="round" stroke-linejoin="round"/>
<path d="M115.883 104.963L117.381 101.582L119.318 98.0326L121.788 94.8306L124.903 92.2147L127.171 88.7412L130.677 86.6409L134.254 84.7848L138.102 83.6885L141.923 82.1743L145.418 83.4931L149.005 84.6925L150.508 88.2202L150.356 92.0356L148.316 95.3245L145.152 98.342L141.857 100.665L138.764 103.346L134.775 104.404L131.112 106.049L127.231 107.253L123.15 107.487L119.248 106.298L115.883 104.963Z" fill="#41B879"/>
<path d="M115.883 104.963L117.381 101.582L119.318 98.0326L121.788 94.8306L124.903 92.2147L127.171 88.7412L130.677 86.6409L134.254 84.7848L138.102 83.6885L141.923 82.1743L145.418 83.4931L149.005 84.6925L150.508 88.2202L150.356 92.0356L148.316 95.3245L145.152 98.342L141.857 100.665L138.764 103.346L134.775 104.404L131.112 106.049L127.231 107.253L123.15 107.487L119.248 106.298L115.883 104.963Z" stroke="#383839" stroke-width="1.62816" stroke-linecap="round" stroke-linejoin="round"/>
<path d="M112.062 145.933L115.938 146.178L119.758 145.95L123.21 147.545L125.831 150.069L127.492 153.255L128.474 156.951L124.399 157.515L120.437 157.889L116.752 156.592L113.658 154.014L112.909 149.998L112.062 145.933Z" fill="#41B879"/>
<path d="M112.062 145.933L115.938 146.178L119.758 145.95L123.21 147.545L125.831 150.069L127.492 153.255L128.474 156.951L124.399 157.515L120.437 157.889L116.752 156.592L113.658 154.014L112.909 149.998L112.062 145.933Z" stroke="#383839" stroke-width="1.62816" stroke-linecap="round" stroke-linejoin="round"/>
<path d="M99.5658 87.6072L99.7341 83.5097L98.4315 79.8951L98.1276 76.0635L96.8034 72.3622L94.1332 69.5671L91.4413 66.8915L88.8905 63.8414L85.1403 62.5877L81.504 61.41L77.6833 61.117L74.0416 59.7493L70.1504 59.5322L66.5086 60.6231L64.1804 63.3313L63.4531 66.6636L63.8385 70.3541L66.4273 73.2034L68.7718 76.0907L71.2955 78.8477L74.0959 81.3442L77.4933 83.0429L80.7443 84.9804L84.4944 85.724L88.0493 86.8257L91.8863 86.5109L95.5714 87.6886L99.5658 87.6072Z" fill="#41B879"/>
<path d="M99.5658 87.6072L99.7341 83.5097L98.4315 79.8951L98.1276 76.0635L96.8034 72.3622L94.1332 69.5671L91.4413 66.8915L88.8905 63.8414L85.1403 62.5877L81.504 61.41L77.6833 61.117L74.0416 59.7493L70.1504 59.5322L66.5086 60.6231L64.1804 63.3313L63.4531 66.6636L63.8385 70.3541L66.4273 73.2034L68.7718 76.0907L71.2955 78.8477L74.0959 81.3442L77.4933 83.0429L80.7443 84.9804L84.4944 85.724L88.0493 86.8257L91.8863 86.5109L95.5714 87.6886L99.5658 87.6072Z" stroke="#383839" stroke-width="1.62816" stroke-linecap="round" stroke-linejoin="round"/>
<path d="M107.809 68.1831L105.583 64.4546L103.212 61.1929L100.71 57.9691L99.5647 54.0181L97.3179 50.5718L96.8403 46.4906L95.706 42.583L95.6191 38.4746L97.1713 34.6647L99.5213 31.43L102.642 29.0692L106.685 28.6567L110.463 30.3826L112.633 33.8777L114.446 37.1015L116.357 40.4338L117.518 44.108L117.089 47.9776L117.686 51.8147L116.666 55.5323L115.548 59.2499L113.279 62.3869L110.962 65.4587L107.809 68.1831Z" fill="#41B879"/>
<path d="M107.809 68.1831L105.583 64.4546L103.212 61.1929L100.71 57.9691L99.5647 54.0181L97.3179 50.5718L96.8403 46.4906L95.706 42.583L95.6191 38.4746L97.1713 34.6647L99.5213 31.43L102.642 29.0692L106.685 28.6567L110.463 30.3826L112.633 33.8777L114.446 37.1015L116.357 40.4338L117.518 44.108L117.089 47.9776L117.686 51.8147L116.666 55.5323L115.548 59.2499L113.279 62.3869L110.962 65.4587L107.809 68.1831Z" stroke="#383839" stroke-width="1.62816" stroke-linecap="round" stroke-linejoin="round"/>
<path d="M99.7084 83.249L102.379 84.8934L105.353 86.6247L105.624 82.093L101.95 80.2911L98.7207 78.2017L99.7084 83.249Z" fill="#FFF6F0"/>
<path d="M99.7084 83.249L102.379 84.8934L105.353 86.6247L105.624 82.093L101.95 80.2911L98.7207 78.2017L99.7084 83.249Z" stroke="#383839" stroke-width="1.62816" stroke-linecap="round" stroke-linejoin="round"/>
<path d="M104.183 118.992L101.811 116.366L99.0596 113.625L95.6567 111.698L92.5415 109.435L89.4208 107.172L85.942 105.479L82.805 103.183L79.2665 101.625L75.5922 100.453L71.9126 99.3567L68.1027 99.0256L64.3308 99.1613L60.7379 100.214L57.2537 102.054L56 105.739L56.4667 109.44L58.1112 112.995L60.8139 115.541L63.9454 117.592L67.4026 119.025L70.7621 120.805L74.5936 120.903L78.2245 121.885L81.9475 122.726L85.7357 122.705L89.5076 122.336L93.2796 122.037L96.894 120.805L100.519 119.823L104.183 118.992Z" fill="#89CB9A"/>
<path d="M104.183 118.992L101.811 116.366L99.0596 113.625L95.6567 111.698L92.5415 109.435L89.4208 107.172L85.942 105.479L82.805 103.183L79.2665 101.625L75.5922 100.453L71.9126 99.3567L68.1027 99.0256L64.3308 99.1613L60.7379 100.214L57.2537 102.054L56 105.739L56.4667 109.44L58.1112 112.995L60.8139 115.541L63.9454 117.592L67.4026 119.025L70.7621 120.805L74.5936 120.903L78.2245 121.885L81.9475 122.726L85.7357 122.705L89.5076 122.336L93.2796 122.037L96.894 120.805L100.519 119.823L104.183 118.992Z" stroke="#383839" stroke-width="1.62816" stroke-linecap="round" stroke-linejoin="round"/>
<path d="M105.399 119.172L101.605 119.177L97.844 119.047L94.083 119.139L90.2731 118.852L86.5012 119.237L82.7238 119.687L78.9736 120.415L75.5545 122.184L71.8639 123.334L69.3403 126.281L66.7461 129.114L66.7841 132.675L68.016 136.012L70.8979 138.183L74.2899 139.242L78.2247 138.509L82.1974 138.894L85.9584 137.706L89.2148 135.475L92.6828 133.717L95.418 130.943L98.5496 128.604L100.943 125.538L103.347 122.477L105.665 119.345L105.399 119.172Z" fill="#41B879"/>
<path d="M105.399 119.172L101.605 119.177L97.844 119.047L94.083 119.139L90.2731 118.852L86.5012 119.237L82.7238 119.687L78.9736 120.415L75.5545 122.184L71.8639 123.334L69.3403 126.281L66.7461 129.114L66.7841 132.675L68.016 136.012L70.8979 138.183L74.2899 139.242L78.2247 138.509L82.1974 138.894L85.9584 137.706L89.2148 135.475L92.6828 133.717L95.418 130.943L98.5496 128.604L100.943 125.538L103.347 122.477L105.665 119.345L105.399 119.172Z" stroke="#383839" stroke-width="1.62816" stroke-linecap="round" stroke-linejoin="round"/>
<path d="M111.454 104.687L115.373 104.128L119.22 103.596L123.117 103.916L126.645 105.658L130.162 107.123L133.689 108.676L136.924 110.787L139.654 113.538L141.201 115.4L139.925 118.683L136.137 119.514H133.152L130.031 120.214L126.428 119.02L122.683 118.412L119.389 116.496L116.225 114.559L113.533 112.057L112.089 108.752L111.465 105.104L111.454 104.687Z" fill="#89CB9A"/>
<path d="M111.454 104.687L115.373 104.128L119.22 103.596L123.117 103.916L126.645 105.658L130.162 107.123L133.689 108.676L136.924 110.787L139.654 113.538L141.201 115.4L139.925 118.683L136.137 119.514H133.152L130.031 120.214L126.428 119.02L122.683 118.412L119.389 116.496L116.225 114.559L113.533 112.057L112.089 108.752L111.465 105.104L111.454 104.687Z" stroke="#383839" stroke-width="1.62816" stroke-linecap="round" stroke-linejoin="round"/>
<path d="M115.787 93.6314L115.999 89.6478L115.841 85.7619L115.95 81.8381L116.791 77.9847L118.153 74.2508L120.569 71.0976L123.163 68.1506L126.251 65.7192L129.871 64.1942L133.306 62.3001L137.007 60.8673L141.3 60.7371L145.539 60.8402L149.154 62.2241L152.524 64.1453L153.3 67.9661L151.976 71.6132L150.402 75.2711L148.074 78.5546L145.42 81.5776L142.223 84.0198L139.319 86.9559L135.553 88.5515L131.683 89.7726L128.091 91.8404L124.085 92.6816L120.064 93.3817L115.982 93.6097L115.787 93.6314Z" fill="#89CB9A"/>
<path d="M115.787 93.6314L115.999 89.6478L115.841 85.7619L115.95 81.8381L116.791 77.9847L118.153 74.2508L120.569 71.0976L123.163 68.1506L126.251 65.7192L129.871 64.1942L133.306 62.3001L137.008 60.8673L141.3 60.7371L145.539 60.8402L149.154 62.2241L152.524 64.1453L153.3 67.9661L151.976 71.6132L150.402 75.2711L148.074 78.5546L145.42 81.5776L142.223 84.0198L139.319 86.9559L135.553 88.5515L131.683 89.7726L128.091 91.8404L124.085 92.6816L120.064 93.3817L115.982 93.6097L115.787 93.6314Z" stroke="#383839" stroke-width="1.62816" stroke-linecap="round" stroke-linejoin="round"/>
<path d="M115.883 131.828L118.841 130.178L122.488 129.706L126.238 128.751L129.771 130.27L133.369 131.361L136.615 133.288L139.138 136.132L142.286 138.254L144.511 141.304L147.301 144.327L147.632 148.446L144.908 151.057L141.038 152.012L137.027 151.648L133.288 150.666L129.744 149.119L126.395 147.176L123.237 144.908L120.295 142.275L118.33 138.862L116.838 135.263L115.883 131.828Z" fill="#89CB9A"/>
<path d="M115.883 131.828L118.841 130.178L122.488 129.706L126.238 128.751L129.771 130.27L133.369 131.361L136.615 133.288L139.138 136.132L142.286 138.254L144.511 141.304L147.301 144.327L147.632 148.446L144.908 151.057L141.038 152.012L137.027 151.648L133.288 150.666L129.744 149.119L126.395 147.176L123.237 144.908L120.295 142.275L118.33 138.862L116.838 135.263L115.883 131.828Z" stroke="#383839" stroke-width="1.62816" stroke-linecap="round" stroke-linejoin="round"/>
<path d="M115.297 131.888L119.031 133.31L122.64 134.976L125.793 137.51L129.391 139.204L132.897 141.065L136.637 142.487L139.866 144.875L143.28 146.926L147.068 148.267" stroke="#383839" stroke-width="1.62816" stroke-linecap="round" stroke-linejoin="round"/>
<path d="M68.7959 150.861L72.9477 150.709L76.725 148.94L80.7737 148.354L84.7411 147.393L88.8115 146.878L92.8167 146.085L96.6158 144.392L100.751 144.126" stroke="#383839" stroke-width="1.62816" stroke-linecap="round" stroke-linejoin="round"/>
<path d="M56.8467 104.008L60.4341 105.631L64.13 106.912L67.929 107.845L71.7064 108.865L75.5869 109.522L79.044 111.584L82.7671 112.762L86.7018 113.267L90.3217 114.797L94.213 115.438L97.8221 116.995L101.637 117.913L105.773 119.15L101.442 120.306L97.7679 122.037L93.958 123.443L90.2403 125.077L86.6855 127.112L82.6314 127.915L79.0711 129.939L75.0115 130.732L71.3699 132.555L67.7065 134.341" stroke="#383839" stroke-width="1.62816" stroke-linecap="round" stroke-linejoin="round"/>
<path d="M64.3828 86.804L67.8073 88.5787L71.2374 90.3479L74.358 92.6274L77.6144 94.6897L80.8869 96.7249L84.2138 98.6678L87.8175 100.144L91.1932 102.011L94.3736 104.198L97.4942 106.499" stroke="#383839" stroke-width="1.62816" stroke-linecap="round" stroke-linejoin="round"/>
<path d="M65.1562 63.4995L68.5917 65.5727L71.8317 67.9118L74.719 70.772L77.9862 73.0785L81.6279 74.8532L84.8353 77.2575L87.8475 79.9277L91.2937 81.99L94.8268 83.933L97.5784 86.9885" stroke="#383839" stroke-width="1.62816" stroke-linecap="round" stroke-linejoin="round"/>
<path d="M107.354 66.9347L107.924 63.1628L108.017 59.3909L107.159 55.6516L106.942 51.8959L106.795 48.1403L106.584 44.3792L106.567 40.6073L106.383 36.8354L105.612 33.1449L104.25 29.5901" stroke="#383839" stroke-width="1.62816" stroke-linecap="round" stroke-linejoin="round"/>
<path d="M114.472 71.3744L116.572 67.9661L118.504 64.4656L120.528 61.0138L122.043 57.2962L124.49 54.0562L126.45 50.5556L128.089 46.8977L129.896 43.3103L131.036 39.4407" stroke="#383839" stroke-width="1.62816" stroke-linecap="round" stroke-linejoin="round"/>
<path d="M116.327 92.866L118.797 89.9896L121.184 87.0372L123.898 84.3833L126.856 81.979L129.325 79.0918L131.713 76.0797L134.888 73.9468L137.917 71.6673L141.233 69.8221L144.484 67.9443L147.81 66.1479L151.387 64.6934" stroke="#383839" stroke-width="1.62816" stroke-linecap="round" stroke-linejoin="round"/>
<path d="M111.59 105.273L115.107 106.906L118.645 108.496L122.173 110.114L125.983 111.053L129.597 112.458L133.293 113.69L136.799 115.356L140.441 116.713" stroke="#383839" stroke-width="1.62816" stroke-linecap="round" stroke-linejoin="round"/>
<path d="M148.779 85.3115L145.523 87.0971L142.326 88.964L139.347 91.1675L136.362 93.3547L133.284 95.417L129.958 97.0886L127.011 99.3354L123.771 101.159L121.024 103.71" stroke="#383839" stroke-width="1.62816" stroke-linecap="round" stroke-linejoin="round"/>
<path d="M128.484 156.809L125.635 154.557L122.113 153.314L119.242 151.095L116.29 148.989L113.082 147.258" stroke="#383839" stroke-width="1.62816" stroke-linecap="round" stroke-linejoin="round"/>
<path d="M92.0254 201.427L96.378 201.226L100.801 200.515L105.387 200.108L104.991 202.181L103.71 206.262L99.7863 208.118L98.1799 208.683L94.142 206.653L92.541 202.816L92.0254 201.427Z" fill="#F3F2F2"/>
<path d="M109.226 200.526L113.578 200.026L118.007 199.435L122.376 199.988L123.081 201.231L121.165 205.633L116.965 207.657L115.239 207.326L111.358 205.806L108.808 202.121L109.226 200.526Z" fill="#F3F2F2"/>
<path d="M102.635 204.037L107.069 202.854L111.042 204.422" stroke="#F3F2F2" stroke-width="1.08544" stroke-miterlimit="10"/>
<path d="M104.21 212.221L108.291 212.889L110.837 209.942" stroke="#F3F2F2" stroke-width="1.6" stroke-miterlimit="10"/>
<path d="M95.5068 202.87L97.461 205.894" stroke="#363737" stroke-width="1.08544" stroke-miterlimit="10" stroke-linecap="round"/>
<path d="M98.0215 203.174L99.7042 205.302" stroke="#363737" stroke-width="1.08544" stroke-miterlimit="10" stroke-linecap="round"/>
<path d="M113.798 202.219L115.709 205.275" stroke="#363737" stroke-width="1.08544" stroke-miterlimit="10" stroke-linecap="round"/>
<path d="M116.275 202.544L118.007 204.634" stroke="#363737" stroke-width="1.08544" stroke-miterlimit="10" stroke-linecap="round"/>
</g>
<defs>
<clipPath id="clip0_1712_3316">
<rect width="210" height="234" fill="white"/>
</clipPath>
</defs>
</svg>
