<svg width="144" height="207" viewBox="0 0 144 207" fill="none" xmlns="http://www.w3.org/2000/svg">
<path d="M92.2086 206.485L90.4285 206.561L88.5833 206.328L86.738 206.729L84.8928 206.425L83.0475 206.29L81.2023 206.534L79.357 206.344L77.5118 206.23L75.6665 206.61L73.8212 206.778L71.976 206.371L70.1362 206.871L68.2909 206.653L66.4457 206.355L64.6004 206.572L62.7552 206.529L60.9099 206.659L59.0646 206.833L57.2194 206.36L55.3741 206.436L53.5289 206.751L51.6836 206.529L49.8384 206.643L47.9932 206.653L46.1479 206.708L44.3027 206.496L42.4574 206.507L40.6121 206.746L38.7669 206.36L36.9162 206.648L35.0058 206.605L34.4522 204.738L34.5119 202.811L33.9367 201.004L33.5296 199.164L33.5567 197.243L32.9109 195.452L32.8783 193.541L32.124 191.772L32.048 189.872L31.9069 187.984L31.4781 186.149L31.1254 184.304L30.5609 182.497L30.219 180.646L30.0182 178.768L29.584 176.934L29.177 175.094L28.9816 173.216L28.6994 171.355L28.4009 169.493L27.8962 167.67L27.7334 165.787L26.9084 164.023L26.5177 162.177L26.1649 160.327L25.8773 158.46L25.6113 156.533L27.5434 156.653L29.4266 156.43L31.3099 156.761L33.1931 156.289L35.0764 156.663L36.9596 156.49L38.8429 156.691L40.7261 156.349L42.6093 156.316H44.4926L46.3758 156.332L48.2591 156.647L50.1423 156.522L52.0256 156.267L53.9088 156.718L55.7921 156.24L57.6753 156.381L59.5585 156.669L61.4418 156.273L63.325 156.577L65.2083 156.587L67.0915 156.555L68.9747 156.289L70.858 156.376L72.7412 156.739L74.6245 156.365L76.5077 156.283L78.391 156.783L80.2742 156.251L82.1575 156.235L84.0407 156.81L85.924 156.707L87.8072 156.723L89.6904 156.49L91.5737 156.631L93.4569 156.349L95.3402 156.566L97.2288 156.783L99.1501 156.544L99.1229 158.454L98.4988 160.251L98.5802 162.145L98.1623 163.968L97.6901 165.787L97.6576 167.664L97.3591 169.51L96.8543 171.322L96.7078 173.184L96.6698 175.062L96.0565 176.858L95.9046 178.72L96.0782 180.63L95.7526 182.47L95.3564 184.304L95.1285 186.155L95.0688 188.033L94.8571 189.889L94.4501 191.718L93.9888 193.541L94.0919 195.441L93.4569 197.237L93.3864 199.115L92.887 200.933L93.001 202.838L92.3009 204.629L92.1978 206.447L92.2086 206.485Z" fill="#363737"/>
<path d="M105.492 157.098L103.658 157.353L101.785 156.875L99.9129 157.108L98.0405 157.309L96.1681 157.168H94.2957L92.4179 156.929L90.5455 157.049L88.6732 156.875L86.8008 157.38L84.9284 157.358L83.056 157.336L81.1782 157.114L79.3058 156.984L77.4334 157.054L75.5556 157.249L73.6778 157.271H71.8054L69.933 157.016L68.0552 157.309L66.1774 157.043L64.2995 157.293L62.4217 157.266L60.5439 156.994L58.6661 157.467L56.7883 157.38L54.9105 157.217L53.0381 157.027L51.1602 157.19L49.2879 156.956L47.4155 157.092L45.5376 157.277L43.6653 157.06L41.7875 157.228L39.9096 157.445L38.0318 157.043L36.154 157.287L34.2762 157.271L32.3984 157.336L30.5206 157.179L28.6427 156.886L26.7649 156.929L24.8871 157.076L23.0093 157.374L21.1261 157.211L19.3134 157.06L19.0529 155.225L19.4925 153.32L19.3622 151.415L19.563 149.505L19.3676 147.6L19.0637 145.69L19.3405 143.779L18.9932 141.869L19.5088 139.958L19.3513 138.146L21.1261 138.341L22.9985 137.728L24.8708 137.842L26.7432 138.189L28.6156 138.026L30.488 138.146L32.3658 138.113L34.2382 138.238L36.1106 137.934L37.983 137.793L39.8554 138.108L41.7332 137.842L43.611 138.048L45.4834 137.912L47.3558 138.178L49.2281 137.983L51.106 138.33L52.9784 137.755H54.8508L56.7286 138.064L58.6064 137.825L60.4788 137.853L62.3566 137.771L64.2344 137.999L66.1122 138.135L67.99 137.977L69.8624 138.157L71.7403 138.059L73.6126 137.76L75.485 138.238H77.3574L79.2352 138.222L81.113 138.14L82.9909 138.292L84.8687 137.896L86.7465 137.825L88.6243 137.923L90.5021 137.939L92.3799 137.918L94.2578 137.847L96.1356 138.129L98.0134 137.863L99.8912 138.01L101.769 137.863L103.652 138.211L105.682 137.901L105.221 139.953L105.4 141.858L105.286 143.768L105.568 145.679L105.812 147.584L105.845 149.489L105.259 151.399L105.232 153.309L105.877 155.225L105.503 157.092H105.492V157.098Z" fill="#363737"/>
<path d="M89.6024 59.7334L87.7246 62.7075L84.9567 65.4591L83.6488 69.1062L81.4453 72.2811L79.9202 75.8034L79.1496 79.6024L77.7928 83.1627L76.8756 86.8695L74.9435 90.2886L74.531 94.0768L73.2719 97.6154L72.0291 101.154L70.5746 104.627L69.7985 108.329L68.5014 111.856L67.4322 115.357L66.5259 119.796L66.0754 124.328L65.1094 128.659L67.8175 126.195L69.3535 122.575L70.4986 118.868L71.1879 115.01L72.447 111.341L73.489 107.596L75.3614 104.133L75.9747 100.248L77.0601 96.5136L78.2107 92.8068L79.041 89.3171L80.6529 85.8491L82.3136 82.4517L82.9649 78.6689L84.9133 75.4072L86.7205 72.1074L88.1045 68.596L89.6946 65.1715L92.1641 61.8609L89.6024 59.7334Z" fill="#FFF6F0"/>
<path d="M89.6024 59.7334L87.7246 62.7075L84.9567 65.4591L83.6488 69.1062L81.4453 72.2811L79.9202 75.8034L79.1496 79.6024L77.7928 83.1627L76.8756 86.8695L74.9435 90.2886L74.531 94.0768L73.2719 97.6154L72.0291 101.154L70.5746 104.627L69.7985 108.329L68.5014 111.856L67.4322 115.357L66.5259 119.796L66.0754 124.328L65.1094 128.659L67.8175 126.195L69.3535 122.575L70.4986 118.868L71.1879 115.01L72.447 111.341L73.489 107.596L75.3614 104.133L75.9747 100.248L77.0601 96.5136L78.2107 92.8068L79.041 89.3171L80.6529 85.8491L82.3136 82.4517L82.9649 78.6689L84.9133 75.4072L86.7205 72.1074L88.1045 68.596L89.6946 65.1715L92.1641 61.8609L89.6024 59.7334Z" stroke="#383839" stroke-width="1.62816" stroke-linecap="round" stroke-linejoin="round"/>
<path d="M90.0875 64.3411L94.0493 63.6735L97.7833 64.9435L101.23 67.109L104.155 69.9528L106.95 72.9215L110.076 75.5049L112.665 77.806L115.574 79.3745L113.533 74.5225L112.496 70.8483L111.975 66.9624L109.099 64.3085L106.244 61.698L102.445 60.9057L98.771 59.8636L94.5215 57.9804L93.4144 54.1162L90.9829 51.3483L87.5312 50.1489L85.127 48.5696L83.8082 44.4178L83.8516 40.0055L81.5288 36.0056L80.1231 38.6432L77.708 37.2919L77.8111 40.6947L78.8314 46.1925L81.252 47.8966L83.1515 50.594L84.8936 54.5884L87.2382 58.3386L87.4933 62.523L89.4091 63.7658L90.0875 64.3411Z" fill="#FFF6F0"/>
<path d="M90.0875 64.3411L94.0493 63.6735L97.7833 64.9435L101.23 67.109L104.155 69.9528L106.95 72.9215L110.076 75.5049L112.665 77.806L115.574 79.3745L113.533 74.5225L112.496 70.8483L111.975 66.9624L109.099 64.3085L106.244 61.698L102.445 60.9057L98.771 59.8636L94.5215 57.9804L93.4144 54.1162L90.9829 51.3483L87.5312 50.1489L85.127 48.5696L83.8082 44.4178L83.8516 40.0055L81.5288 36.0056L80.1231 38.6432L77.708 37.2919L77.8111 40.6947L78.8314 46.1925L81.252 47.8966L83.1515 50.594L84.8936 54.5884L87.2382 58.3386L87.4933 62.523L89.4091 63.7658L90.0875 64.3411Z" stroke="#383839" stroke-width="1.62816" stroke-linecap="round" stroke-linejoin="round"/>
<path d="M43.3559 93.8704L46.3409 96.1444L48.7072 99.0479L50.992 101.968L53.1629 105.002L54.7314 108.404L56.6635 111.379L58.9103 114.494L60.5927 117.973L62.5574 121.283L65.8029 123.85L66.4921 127.758L66.9643 131.367L64.7717 129.891L62.4163 127.177L60.7284 123.975L59.1491 120.719L56.7231 117.956L55.6811 114.369L53.711 111.335L52.5496 109.506L51.1169 105.995L48.6963 103.08L46.4169 100.101L44.0886 97.1538L41.6572 94.4836L43.3559 93.9789V93.8704Z" fill="#FFF6F0"/>
<path d="M43.3559 93.8704L46.3409 96.1444L48.7072 99.0479L50.992 101.968L53.1629 105.002L54.7314 108.404L56.6634 111.379L58.9103 114.494L60.5927 117.973L62.5574 121.283L65.8029 123.85L66.4921 127.758L66.9643 131.367L64.7717 129.891L62.4163 127.177L60.7284 123.975L59.1491 120.719L56.7231 117.956L55.6811 114.369L53.711 111.335L52.5496 109.506L51.1169 105.995L48.6963 103.08L46.4169 100.101L44.0886 97.1538L41.6572 94.4836L43.3559 93.9789V93.8704Z" stroke="#383839" stroke-width="1.62816" stroke-linecap="round" stroke-linejoin="round"/>
<path d="M46.3477 99.7971L42.9448 99.5583L39.4388 99.8731L36.2693 101.436L33.8651 103.992L32.6494 105.23L30.0769 108.41L26.902 110.988L23.7379 113.582L20.5576 115.297L17.3718 116.909L16.6445 114.174L17.0841 111.2L18.4355 107.835L19.1899 104.209L21.8981 101.718L24.5574 99.3141L27.6672 97.42L31.2654 96.8067L34.538 95.5802L37.154 93.3007L40.8282 93.1054L41.9788 89.8924L44.4101 87.9984L47.2703 86.8532L49.0558 84.2753L51.4493 81.4423L52.2036 77.0462L53.9132 72.8347L56.2903 74.6691L58.8954 73.2418L58.8791 78.1154L56.7625 83.2658L54.2768 84.9645L53.0286 88.2154L50.798 91.2818L48.6597 94.4676L48.8822 98.2992L47.4277 98.6248L46.3477 99.7971Z" fill="#41B879"/>
<path d="M46.3477 99.7971L42.9448 99.5583L39.4388 99.8731L36.2693 101.436L33.8651 103.992L32.6494 105.23L30.0769 108.41L26.902 110.988L23.7379 113.582L20.5576 115.297L17.3718 116.909L16.6445 114.174L17.0841 111.2L18.4355 107.835L19.1899 104.209L21.8981 101.718L24.5574 99.3141L27.6672 97.42L31.2654 96.8067L34.538 95.5802L37.154 93.3007L40.8282 93.1054L41.9788 89.8924L44.4101 87.9984L47.2703 86.8532L49.0558 84.2753L51.4493 81.4423L52.2036 77.0462L53.9132 72.8347L56.2903 74.6691L58.8954 73.2418L58.8791 78.1154L56.7625 83.2658L54.2768 84.9645L53.0286 88.2154L50.798 91.2818L48.6597 94.4676L48.8822 98.2992L47.4277 98.6248L46.3477 99.7971Z" stroke="#383839" stroke-width="1.62816" stroke-linecap="round" stroke-linejoin="round"/>
<path d="M58.9215 138.081L62.9756 138.612L67.0352 138.195L67.5399 134.851L68.5168 131.139L70.9102 128.094L73.8246 125.56L77.2438 123.465L80.1093 120.621L83.5068 118.483L86.8282 116.247L90.3234 114.261L93.4277 111.721L96.7709 109.528L100.494 107.58L100.678 103.922L102.665 100.758L98.7681 102.825L95.49 105.257L92.0275 107.379L88.223 108.969L84.7876 111.145L81.363 113.332L78.1501 115.851L74.6658 117.956L71.3607 120.344L68.1966 122.249L68.2617 118.591L68.7556 114.564L67.8167 110.543L68.126 106.51L67.5671 102.511L67.757 98.4565L67.3011 94.4512L67.0569 90.4188L66.6933 86.3918L65.3365 82.5168L65.2008 78.696L65.0163 74.8752L64.3161 71.1413L62.9322 67.5159L63.0842 63.6355L61.8956 59.983L60.8102 56.325L60.7722 52.4554L59.3665 48.6564L54.6611 48.3145L55.9419 52.526L56.3544 56.477L57.0817 60.3629L57.6244 64.2813L58.6881 68.1184L59.2743 72.0314L59.9907 75.9227L60.262 79.8846L61.1304 83.765L60.6094 87.8137L61.38 91.705L61.7871 95.6398L61.8902 99.5962L62.612 103.509L63.0136 107.455L62.3352 111.433L63.1004 115.384L62.8942 119.346L62.6988 123.308L62.2158 127.242L60.9241 131.02L60.2729 134.911L58.9215 138.081Z" fill="#FFF6F0"/>
<path d="M58.9215 138.081L62.9756 138.612L67.0352 138.195L67.5399 134.851L68.5168 131.139L70.9102 128.094L73.8246 125.56L77.2438 123.465L80.1093 120.621L83.5068 118.483L86.8282 116.247L90.3234 114.261L93.4277 111.721L96.7709 109.528L100.494 107.58L100.678 103.922L102.665 100.758L98.7681 102.825L95.49 105.257L92.0275 107.379L88.223 108.969L84.7876 111.145L81.363 113.332L78.1501 115.851L74.6658 117.956L71.3607 120.344L68.1966 122.249L68.2617 118.591L68.7556 114.564L67.8167 110.543L68.126 106.51L67.5671 102.511L67.757 98.4565L67.3011 94.4512L67.0569 90.4188L66.6933 86.3918L65.3365 82.5168L65.2008 78.696L65.0163 74.8752L64.3161 71.1413L62.9322 67.5159L63.0842 63.6355L61.8956 59.983L60.8102 56.325L60.7722 52.4554L59.3665 48.6564L54.6611 48.3145L55.9419 52.526L56.3544 56.477L57.0817 60.3629L57.6244 64.2813L58.6881 68.1184L59.2743 72.0314L59.9907 75.9227L60.262 79.8846L61.1304 83.765L60.6094 87.8137L61.38 91.705L61.7871 95.6398L61.8902 99.5962L62.612 103.509L63.0136 107.455L62.3352 111.433L63.1004 115.384L62.8942 119.346L62.6988 123.308L62.2158 127.242L60.9241 131.02L60.2729 134.911L58.9215 138.081Z" stroke="#383839" stroke-width="1.62816" stroke-linecap="round" stroke-linejoin="round"/>
<path d="M104.552 78.8697L101.029 78.8643L97.7838 79.445L95.3145 81.1491L95.7323 84.5357L97.3117 88.6712L97.9467 92.9316L95.0322 95.9925L92.7637 98.8364L94.4353 101.724L97.8273 102.397L98.4351 105.631L97.2628 108.714L97.024 112.681L97.583 116.67L101.008 117.625L105.604 116.247L108.611 119.791L108.6 123.802L110.131 127.563L111.33 131.307L113.365 134.732L114.543 140.083L116.421 144.273L117.685 147.578L118.657 150.769L120.432 154.118L123.118 156.794L126.977 155.882L129.978 151.985L132.024 147.833L136.252 146.422L137.213 147.405L138.602 149.499L140.485 149.12L140.881 145.011L141.538 140.789L141.381 136.539L140.208 132.132L137.028 127.416L137.413 126.521L140.23 126.711L142.417 125.191L142.803 121.441L141.044 118.032L137.782 114.57L136.523 110.212L138.955 106.185L136.957 102.087L136.431 98.4836L134.651 95.3304L132.529 92.3997L129.457 90.3645L128.99 85.7514L125.316 84.7908L123.069 87.7215L121.441 87.9168L118.57 90.9669L118.624 94.4946L118.277 98.006L117.609 101.653L117.62 97.5773L116.204 93.9411L115.194 90.1529L113.105 86.8368L110.967 83.5317L108.025 80.8832L104.443 79.2822L104.552 78.8697Z" fill="#89CB9A"/>
<path d="M104.552 78.8697L101.029 78.8643L97.7838 79.445L95.3145 81.1491L95.7323 84.5357L97.3117 88.6712L97.9467 92.9316L95.0322 95.9925L92.7637 98.8364L94.4353 101.724L97.8273 102.397L98.4351 105.631L97.2628 108.714L97.024 112.681L97.583 116.67L101.008 117.625L105.604 116.247L108.611 119.791L108.6 123.802L110.131 127.563L111.33 131.307L113.365 134.732L114.543 140.083L116.421 144.273L117.685 147.578L118.657 150.769L120.432 154.118L123.118 156.794L126.977 155.882L129.978 151.985L132.024 147.833L136.252 146.422L137.213 147.405L138.602 149.499L140.485 149.12L140.881 145.011L141.538 140.789L141.381 136.539L140.208 132.132L137.028 127.416L137.413 126.521L140.23 126.711L142.417 125.191L142.803 121.441L141.044 118.032L137.782 114.57L136.523 110.212L138.955 106.185L136.957 102.087L136.431 98.4836L134.651 95.3304L132.529 92.3997L129.457 90.3645L128.99 85.7514L125.316 84.7908L123.069 87.7215L121.441 87.9168L118.57 90.9669L118.624 94.4946L118.277 98.006L117.609 101.653L117.62 97.5773L116.204 93.9411L115.194 90.1529L113.105 86.8368L110.967 83.5317L108.025 80.8832L104.443 79.2822L104.552 78.8697Z" stroke="#383839" stroke-width="1.62816" stroke-linecap="round" stroke-linejoin="round"/>
<path d="M45.1667 27.4522L48.5152 27.4848L51.2452 25.4442L55.1799 22.6274L57.8664 20.1201L59.945 16.994L63.1742 15.1433L66.1211 12.8585L69.8171 12.6631L73.2959 13.3795L77.9959 13.9602L81.7895 12.4243L83.0323 12.1149L85.2683 15.0348L89.5558 15.7512L93.3657 17.477L96.9857 19.5122L99.8784 22.1336L101.018 24.223L102.749 26.4102L102.391 29.4169L98.2774 28.4725L94.0116 28.3857L89.8652 27.6748V28.3749L91.781 32.1685L92.7416 35.821L88.8232 35.0992L84.8179 33.6881L80.8669 32.1142L76.867 30.5729L72.6338 30.9908L72.3842 33.7532L74.5822 36.0327L76.3406 38.6811L79.2387 41.8018L81.1383 45.6225L81.8058 49.7798L79.0596 52.5911L77.0787 54.5829L74.5062 52.7485L71.8523 49.8395L69.2038 46.9359L65.8932 44.7053L63.3967 41.6281L60.276 39.2347L57.3236 38.5617L59.8581 42.2414L63.0276 44.955L65.1117 48.5478L67.961 51.5708L69.3178 55.4838L69.6543 59.0006L68.0912 61.101L64.9814 60.466L61.9042 58.3494L59.2286 55.69L55.9777 53.8068L52.6182 52.0809L49.6875 49.7527L48.5261 49.2425L48.5532 52.0484L49.9752 55.4512L51.1149 58.9572L52.9981 62.1701L54.1053 65.7141L54.7837 69.4046L54.0456 73.1168L51.0878 75.3148L49.1557 78.5006L45.6931 79.6295L42.5074 77.8005L39.2782 76.9593H36.1683L32.0762 77.7137L28.1524 79.2224L23.9571 79.5535L19.8107 78.4138L17.1514 73.5347L15.2302 70.0993L14.4432 66.2242L14.8774 62.0887L11.0295 60.9327L7.84914 62.7617L4.21833 64.5744L1.77609 61.8173L1.55359 58.4742L4.02296 55.6249L3.42598 51.6902L6.83969 47.9128L8.46785 44.993L11.3714 43.4028L15.2736 41.525L19.3874 40.1194L23.2299 38.0082L19.306 36.6188L15.7023 34.4968L11.7296 33.2539L8.04994 31.3056L4.07182 30.0681L3.81673 27.4034L4.03383 25.1348L8.27248 25.5527L12.3863 24.7712L16.4567 23.9408L16.6521 22.3072L13.2492 20.1201L9.94407 17.7701L7.31185 14.6169L3.99583 12.2615L1 9.3959L4.04466 7.72974L8.07167 6.0256L4.97816 3.06777L10.0851 1L15.6698 2.36766L19.8596 3.21973L24.1199 3.48024L26.7738 1.35277L31.0233 1.96604L33.9595 5.41775L37.3732 7.61035L41.1071 6.68229L42.2902 10.0906L42.5942 14.3672L40.9931 18.3725L41.8343 21.7591L42.8655 24.8743L45.1667 27.4522Z" fill="#41B879"/>
<path d="M45.1667 27.4522L48.5152 27.4848L51.2452 25.4442L55.1799 22.6274L57.8664 20.1201L59.945 16.994L63.1742 15.1433L66.1211 12.8585L69.8171 12.6631L73.2959 13.3795L77.9959 13.9602L81.7895 12.4243L83.0323 12.1149L85.2684 15.0348L89.5558 15.7512L93.3657 17.477L96.9857 19.5122L99.8784 22.1336L101.018 24.223L102.749 26.4102L102.391 29.4169L98.2774 28.4725L94.0116 28.3857L89.8652 27.6748V28.3749L91.781 32.1685L92.7416 35.821L88.8232 35.0992L84.8179 33.6881L80.8669 32.1142L76.867 30.5729L72.6338 30.9908L72.3842 33.7532L74.5822 36.0327L76.3406 38.6811L79.2387 41.8018L81.1383 45.6225L81.8058 49.7798L79.0596 52.5911L77.0787 54.5829L74.5062 52.7485L71.8523 49.8395L69.2038 46.9359L65.8932 44.7053L63.3967 41.6281L60.276 39.2347L57.3236 38.5617L59.8581 42.2414L63.0276 44.955L65.1117 48.5478L67.961 51.5708L69.3178 55.4838L69.6542 59.0006L68.0912 61.101L64.9814 60.466L61.9042 58.3494L59.2286 55.69L55.9777 53.8068L52.6182 52.0809L49.6875 49.7527L48.5261 49.2425L48.5532 52.0484L49.9752 55.4512L51.1149 58.9572L52.9981 62.1701L54.1053 65.7141L54.7837 69.4046L54.0456 73.1168L51.0878 75.3148L49.1557 78.5006L45.6931 79.6295L42.5073 77.8005L39.2782 76.9593H36.1683L32.0762 77.7137L28.1524 79.2224L23.9571 79.5535L19.8107 78.4138L17.1514 73.5347L15.2302 70.0993L14.4432 66.2242L14.8774 62.0887L11.0295 60.9327L7.84914 62.7617L4.21833 64.5744L1.77609 61.8173L1.55359 58.4742L4.02296 55.6249L3.42598 51.6902L6.83969 47.9128L8.46785 44.993L11.3714 43.4028L15.2736 41.525L19.3874 40.1194L23.2299 38.0082L19.306 36.6188L15.7023 34.4968L11.7296 33.2539L8.04994 31.3056L4.07182 30.0681L3.81673 27.4034L4.03383 25.1348L8.27248 25.5527L12.3863 24.7712L16.4567 23.9408L16.6521 22.3072L13.2492 20.1201L9.94407 17.7701L7.31185 14.6169L3.99583 12.2615L1 9.3959L4.04466 7.72974L8.07167 6.0256L4.97816 3.06777L10.0851 1L15.6698 2.36766L19.8596 3.21973L24.1199 3.48024L26.7738 1.35277L31.0233 1.96604L33.9595 5.41775L37.3732 7.61035L41.1071 6.68229L42.2902 10.0906L42.5942 14.3672L40.9931 18.3725L41.8343 21.7591L42.8655 24.8743L45.1667 27.4522Z" stroke="#383839" stroke-width="1.62816" stroke-linecap="round" stroke-linejoin="round"/>
<path d="M45.2573 27.2351C45.2573 27.2351 27.874 51.6196 24.7588 72.9648L45.2573 27.2351Z" fill="#41B879"/>
<path d="M44.8851 26.969L43.4904 30.7192L41.2001 33.8561L38.6384 36.8465L37.4281 40.6293L35.2681 43.8693L33.2872 47.2233L31.7784 50.8107L29.9983 54.2733L28.3213 57.8064L28.0228 61.8225L26.3349 65.3557L25.2495 69.1004L25.1572 73.0243" stroke="#383839" stroke-width="1.62816" stroke-linecap="round" stroke-linejoin="round"/>
<path d="M13.6064 52.1785L16.9007 49.6711L20.9929 48.6019L25.0741 47.4188L29.3399 47.5708L33.4917 47.408L36.048 49.8773L38.2677 52.7809L40.1781 55.945L41.8117 59.3153L42.908 62.9081L42.5443 66.7343" stroke="#383839" stroke-width="1.62816" stroke-linecap="round" stroke-linejoin="round"/>
<path d="M11.084 27.2351C11.084 27.2351 37.0369 33.1074 37.1237 40.3581C37.1237 40.3581 52.7758 37.829 62.1106 51.1691" fill="#41B879"/>
<path d="M17.332 29.3301L21.1582 30.3504L25.0821 31.1211L28.7129 32.7601L32.1592 34.6976L35.2473 37.053L36.9297 40.7272L40.6799 39.4247L44.3541 39.5332L47.9252 40.3148L51.0947 42.084L54.3673 43.6525L57.2329 45.9536L59.5612 48.8083" stroke="#383839" stroke-width="1.62816" stroke-linecap="round" stroke-linejoin="round"/>
<path d="M17.5039 11.0239L20.4889 13.3522L24.0274 14.6819L26.6053 17.5149L29.9214 19.2516L32.8575 21.5473L35.2563 24.4129L37.4597 27.3653L39.6089 30.3557L41.0254 33.6066L44.7485 32.3963L48.1894 30.1331L52.3032 29.7098L56.0371 28.1631L59.9772 27.311L63.8794 26.2147L67.9716 26.5837L71.9497 26.1062L75.9875 25.7697L79.944 26.6326" stroke="#383839" stroke-width="1.62816" stroke-linecap="round" stroke-linejoin="round"/>
<path d="M117.68 101.544L119.009 105.154L119.954 108.871L120.822 112.611L121.159 116.458L122.445 120.111L123.492 123.834L123.997 127.649L123.698 131.551L124.833 135.318L124.285 139.182L124.154 143.003L124.144 146.862L123.443 150.682" stroke="#383839" stroke-width="1.62816" stroke-linecap="round" stroke-linejoin="round"/>
<path d="M120.714 111.607L123.753 108.709L126.521 105.604L129.137 102.332L130.488 98.3425" stroke="#383839" stroke-width="1.62816" stroke-linecap="round" stroke-linejoin="round"/>
<path d="M136.684 120.23L133.162 119.346L129.558 118.374L125.879 118.884L122.367 120.002" stroke="#383839" stroke-width="1.62816" stroke-linecap="round" stroke-linejoin="round"/>
<path d="M137.14 140.208L134.665 136.794L131.713 133.766L127.979 131.769L124.109 131.503" stroke="#383839" stroke-width="1.62816" stroke-linecap="round" stroke-linejoin="round"/>
<path d="M105.003 101.74L109.318 102.413L113.665 102.907L117.008 105.734L119.993 108.833" stroke="#383839" stroke-width="1.62816" stroke-linecap="round" stroke-linejoin="round"/>
<path d="M121.219 117.007L117.42 117.37L114.37 119.899L113.762 123.747" stroke="#383839" stroke-width="1.62816" stroke-linecap="round" stroke-linejoin="round"/>
<path d="M123.916 131.004L120.844 134.26L118.456 137.891" stroke="#383839" stroke-width="1.62816" stroke-linecap="round" stroke-linejoin="round"/>
<path d="M56.7803 181.759L61.0786 181.205L65.377 181.569L69.9304 181.71L67.1082 185.091L63.2332 186.529L58.7178 185.845L56.7803 181.759Z" stroke="#F3F2F2" stroke-width="2.17088" stroke-linecap="round" stroke-linejoin="round"/>
<path d="M52.6504 174.947L56.1401 175.36L59.7275 174.692" stroke="#F3F2F2" stroke-width="2.17088" stroke-linecap="round" stroke-linejoin="round"/>
<path d="M64.8809 175.1L68.5877 175.936L72.2347 175.04" stroke="#F3F2F2" stroke-width="2.17088" stroke-linecap="round" stroke-linejoin="round"/>
</svg>
