<svg width="210" height="234" viewBox="0 0 210 234" fill="none" xmlns="http://www.w3.org/2000/svg">
<g clip-path="url(#clip0_1712_3439)">
<rect width="210" height="234" fill="transparent"/>
<path d="M119.523 72.7012L116.125 73.8843L112.788 75.773L109.445 77.6833L106.156 79.8108L103.979 83.0997L101.58 86.101L99.3174 89.2108L97.2659 92.4942L95.5671 95.9731L93.711 99.4248L92.9458 103.273L92.2131 107.083L91.361 110.854L90.5253 114.643L89.3475 118.415L88.9785 122.306L89.1577 126.219L88.9839 130.11L89.2118 134.002L89.087 137.904L89.0165 141.811L89.9772 145.643L90.5469 149.491L91.1059 153.339L91.1277 157.523L94.4979 155.184L97.2279 152.449L99.9089 149.681L102.861 147.222L105.89 144.813L108.696 142.153L110.508 138.626L113.146 135.831L115.496 132.797L118.161 129.958L119.534 126.279L122.188 123.359L123.278 119.598L124.782 116.075L126.367 112.559L126.752 108.694L127.794 105.004L128.478 101.216L128.293 97.3679L127.675 93.5851L127.295 89.7806L126.584 86.0033L124.939 82.519L123.539 78.9479L121.824 75.507L119.523 72.7012Z" fill="#FFF6F0"/>
<path d="M119.523 72.7012L116.125 73.8843L112.788 75.773L109.445 77.6833L106.156 79.8108L103.979 83.0997L101.58 86.101L99.3174 89.2108L97.2659 92.4942L95.5671 95.9731L93.711 99.4248L92.9458 103.273L92.2131 107.083L91.361 110.854L90.5253 114.643L89.3475 118.415L88.9785 122.306L89.1577 126.219L88.9839 130.11L89.2118 134.002L89.087 137.904L89.0165 141.811L89.9772 145.643L90.5469 149.491L91.1059 153.339L91.1277 157.523L94.4979 155.184L97.2279 152.449L99.9089 149.681L102.861 147.222L105.89 144.813L108.696 142.153L110.508 138.626L113.146 135.831L115.496 132.797L118.161 129.958L119.534 126.279L122.188 123.359L123.278 119.598L124.782 116.075L126.367 112.559L126.752 108.694L127.794 105.004L128.478 101.216L128.293 97.3679L127.675 93.5851L127.295 89.7806L126.584 86.0033L124.939 82.519L123.539 78.9479L121.824 75.507L119.523 72.7012Z" stroke="#383839" stroke-width="1.62816" stroke-linecap="round" stroke-linejoin="round"/>
<path d="M119.399 73.6562L118.493 77.4607L116.772 81.0427L116.387 84.9991L115.448 88.7982L113.793 92.391L113.446 96.3637L112.007 100.022L110.672 103.707L110.048 107.603L108.121 111.109L107.047 114.871L105.885 118.61L105.571 122.615L103.834 126.17L102.521 129.855L101.587 133.67L100.529 137.448L99.2534 141.149L97.9346 144.845L95.6498 148.156L94.5861 151.938L93.3486 155.71" stroke="#383839" stroke-width="1.62816" stroke-linecap="round" stroke-linejoin="round"/>
<path d="M126.597 89.6015L123.025 91.2785L119.747 93.5091L115.921 94.7139L112.643 97.1616L110.152 93.5851L108.084 89.8837L106.841 85.7156L104.323 82.2639" stroke="#383839" stroke-width="1.62816" stroke-linecap="round" stroke-linejoin="round"/>
<path d="M94.3584 100.423L95.688 104.293L97.3162 108.032L99.8508 111.37L100.703 115.457L102.716 119.028L104.241 123.115L107.389 120.455L110.694 118.664L114.331 117.465L117.603 115.625L120.821 113.682L123.763 111.234L127.443 110.105" stroke="#383839" stroke-width="1.62816" stroke-linecap="round" stroke-linejoin="round"/>
<path d="M90.751 129.215L99.288 139.809L113.637 135.738" stroke="#383839" stroke-width="1.62816" stroke-linecap="round" stroke-linejoin="round"/>
<path d="M50.1071 78.3889L48.7937 82.0957L47.0082 85.5908L46.308 89.4387L45.3909 93.2378L45.0762 97.1454L45.9607 100.988L46.6066 104.776L47.6324 108.505L48.8426 112.287L51.084 115.565L53.8356 118.415L56.8911 120.9L60.0606 123.234L63.3713 125.378L67.2137 126.436L70.8011 128.178L71.6315 124.233L71.6695 120.254L72.7441 116.374L72.9774 112.396L72.4836 108.434L71.6857 104.543L70.7198 100.711L69.5637 96.9337L68.0061 93.292L65.6235 90.128L63.5666 86.6926L60.218 84.4782L57.461 81.5258L54.0093 79.4798L50.1071 78.3889Z" fill="#89CB9A"/>
<path d="M50.1071 78.3889L48.7937 82.0957L47.0082 85.5908L46.308 89.4387L45.3909 93.2378L45.0762 97.1454L45.9607 100.988L46.6066 104.776L47.6324 108.505L48.8426 112.287L51.084 115.565L53.8356 118.415L56.8911 120.9L60.0606 123.234L63.3713 125.378L67.2137 126.436L70.8011 128.178L71.6315 124.233L71.6695 120.254L72.7441 116.374L72.9774 112.396L72.4836 108.434L71.6857 104.543L70.7198 100.711L69.5637 96.9337L68.0061 93.292L65.6235 90.128L63.5666 86.6926L60.218 84.4782L57.461 81.5258L54.0093 79.4798L50.1071 78.3889Z" stroke="#383839" stroke-width="1.62816" stroke-linecap="round" stroke-linejoin="round"/>
<path d="M50.6729 79.6047L51.5141 83.496L52.6647 87.2897L54.0812 91.0019L55.5573 94.687L56.3769 98.6L58.2438 102.144L59.0579 106.073L61.1691 109.514L62.8299 113.112L63.6222 117.09L66.0373 120.325L67.4809 124.048L70.493 126.252" stroke="#383839" stroke-width="1.62816" stroke-linecap="round" stroke-linejoin="round"/>
<path d="M45.8311 91.6963L48.8486 94.4479L52.4794 96.5319L55.5566 99.2293L58.064 102.545" stroke="#383839" stroke-width="1.62816" stroke-linecap="round" stroke-linejoin="round"/>
<path d="M119.278 234.068L117.498 234.144L115.653 233.911L113.807 234.313L111.962 234.009L110.117 233.873L108.272 234.117L106.426 233.927L104.581 233.813L102.736 234.193L100.891 234.362L99.0454 233.954L97.2055 234.454L95.3603 234.237L93.5151 233.938L91.6698 234.155L89.8246 234.112L87.9793 234.242L86.1341 234.416L84.2889 233.944L82.4436 234.02L80.5984 234.334L78.753 234.112L76.9078 234.226L75.0626 234.237L73.2173 234.291L71.3721 234.079L69.5268 234.09L67.6816 234.329L65.8364 233.944L63.9856 234.231L62.0752 234.188L61.5216 232.321L61.5814 230.394L61.0061 228.587L60.599 226.747L60.6262 224.826L59.9804 223.035L59.9478 221.125L59.1933 219.355L59.1174 217.456L58.9763 215.567L58.5475 213.733L58.1948 211.887L57.6303 210.08L57.2885 208.229L57.0876 206.352L56.6534 204.517L56.2464 202.677L56.0511 200.8L55.7688 198.938L55.4703 197.077L54.9656 195.253L54.8028 193.37L53.9778 191.606L53.5871 189.761L53.2343 187.91L52.9467 186.043L52.6807 184.116L54.6128 184.236L56.496 184.013L58.3792 184.344L60.2626 183.872L62.1458 184.247L64.0291 184.073L65.9123 184.274L67.7955 183.932L69.6787 183.899H71.562L73.4452 183.916L75.3285 184.23L77.2118 184.106L79.095 183.85L80.9782 184.301L82.8615 183.823L84.7447 183.964L86.6279 184.252L88.5111 183.856L90.3945 184.16L92.2777 184.171L94.1609 184.138L96.0442 183.872L97.9274 183.959L99.8106 184.323L101.694 183.948L103.577 183.867L105.46 184.366L107.344 183.834L109.227 183.818L111.11 184.393L112.993 184.29L114.877 184.306L116.76 184.073L118.643 184.214L120.526 183.932L122.41 184.149L124.298 184.366L126.219 184.127L126.192 186.038L125.568 187.834L125.65 189.728L125.232 191.552L124.76 193.37L124.727 195.248L124.429 197.093L123.924 198.906L123.777 200.767L123.739 202.645L123.126 204.441L122.974 206.303L123.148 208.213L122.822 210.053L122.426 211.887L122.198 213.738L122.138 215.616L121.927 217.472L121.519 219.301L121.058 221.125L121.161 223.024L120.526 224.82L120.456 226.698L119.957 228.516L120.07 230.421L119.37 232.212L119.267 234.03L119.278 234.068Z" fill="#363737"/>
<path d="M132.559 184.686L130.724 184.941L128.852 184.464L126.979 184.697L125.107 184.898L123.235 184.757H121.362L119.484 184.518L117.612 184.638L115.74 184.464L113.867 184.969L111.995 184.947L110.122 184.925L108.245 184.703L106.372 184.572L104.5 184.643L102.622 184.838L100.744 184.86H98.8718L96.9994 184.605L95.1217 184.898L93.2439 184.632L91.3659 184.882L89.4881 184.855L87.6103 184.583L85.7325 185.055L83.8548 184.969L81.977 184.806L80.1045 184.616L78.2267 184.779L76.3543 184.545L74.4819 184.681L72.6042 184.865L70.7317 184.648L68.8539 184.817L66.9761 185.034L65.0983 184.632L63.2205 184.876L61.3427 184.86L59.4648 184.925L57.587 184.768L55.7092 184.475L53.8314 184.518L51.9536 184.665L50.0758 184.963L48.1926 184.8L46.3798 184.648L46.1193 182.814L46.559 180.909L46.4287 179.004L46.6295 177.094L46.4341 175.189L46.1302 173.278L46.407 171.368L46.0596 169.458L46.5751 167.547L46.4179 165.735L48.1926 165.93L50.0649 165.317L51.9373 165.431L53.8096 165.778L55.682 165.615L57.5545 165.735L59.4323 165.702L61.3047 165.827L63.177 165.523L65.0494 165.382L66.9219 165.697L68.7997 165.431L70.6775 165.637L72.5498 165.501L74.4222 165.767L76.2946 165.572L78.1725 165.919L80.0448 165.344H81.9172L83.795 165.653L85.6728 165.414L87.5453 165.441L89.4231 165.36L91.3009 165.588L93.1787 165.724L95.0565 165.566L96.9288 165.745L98.8068 165.648L100.679 165.349L102.551 165.827H104.424L106.302 165.811L108.179 165.729L110.057 165.881L111.935 165.485L113.813 165.414L115.691 165.512L117.569 165.528L119.446 165.507L121.324 165.436L123.202 165.718L125.08 165.452L126.958 165.599L128.835 165.452L130.719 165.8L132.748 165.49L132.287 167.542L132.466 169.447L132.352 171.357L132.634 173.268L132.879 175.172L132.911 177.077L132.325 178.988L132.298 180.898L132.944 182.814L132.569 184.681H132.559V184.686Z" fill="#363737"/>
<path d="M87.9366 160.904L85.8308 157.784L84.0832 154.164L81.3153 151.238L79.3942 147.629L76.1975 145.138L73.4351 142.202L70.0214 140.107L67.096 137.291L64.0839 134.447L60.2089 133.079L56.4804 131.635L52.6271 130.398L48.6707 129.264L44.5514 129.481L40.5788 129.996L36.5517 129.589L32.6007 130.409L28.8722 131.977L24.5576 132.439L24.7584 136.721L27.1789 139.928L28.6226 143.494L30.7446 146.69L33.4582 149.426L36.0416 152.275L39.5258 154.061L41.8812 157.377L45.5772 158.896L48.8227 161.187L52.1766 163.129L56.0896 163.949L59.6336 165.528L63.1722 167.129L66.9821 167.748L70.8246 168.785L74.7159 167.965L78.3955 166.82L81.9992 165.382L85.5431 163.737L87.9366 160.904Z" fill="#89CB9A"/>
<path d="M87.9366 160.904L85.8308 157.784L84.0832 154.164L81.3153 151.238L79.3942 147.629L76.1975 145.138L73.4351 142.202L70.0214 140.107L67.096 137.291L64.0839 134.447L60.2089 133.079L56.4804 131.635L52.6271 130.398L48.6707 129.264L44.5514 129.481L40.5788 129.996L36.5517 129.589L32.6007 130.409L28.8722 131.977L24.5576 132.439L24.7584 136.721L27.1789 139.928L28.6226 143.494L30.7446 146.69L33.4582 149.426L36.0416 152.275L39.5258 154.061L41.8812 157.377L45.5772 158.896L48.8227 161.187L52.1766 163.129L56.0896 163.949L59.6336 165.528L63.1722 167.129L66.9821 167.748L70.8246 168.785L74.7159 167.965L78.3955 166.82L81.9992 165.382L85.5431 163.737L87.9366 160.904Z" stroke="#383839" stroke-width="1.62816" stroke-linecap="round" stroke-linejoin="round"/>
<path d="M86.9247 135.874L86.8866 139.553L87.006 143.374L86.6913 147.19L86.5557 151.01L86.9518 154.826L86.7347 158.646L87.0604 162.473L86.9464 166.179L89.85 166.527L92.7155 166.158L92.8566 162.321L93.0249 158.348L92.7807 154.381L92.4713 150.408L92.8024 146.43L92.7698 142.457L92.2651 138.49L92.4767 134.457L86.9247 135.874Z" fill="#FFF6F0"/>
<path d="M86.9247 135.874L86.8866 139.553L87.006 143.374L86.6913 147.19L86.5557 151.01L86.9518 154.826L86.7347 158.646L87.0604 162.473L86.9464 166.179L89.85 166.527L92.7155 166.158L92.8566 162.321L93.0249 158.348L92.7807 154.381L92.4713 150.408L92.8024 146.43L92.7698 142.457L92.2651 138.49L92.4767 134.457L86.9247 135.874Z" stroke="#383839" stroke-width="1.62816" stroke-linecap="round" stroke-linejoin="round"/>
<path d="M86.5614 150.636L83.267 149.561L79.5547 148.595L76.2605 146.544L72.57 145.486L69.0043 144.112L65.5472 142.501L62.2583 140.531L58.4375 139.657L55.496 137.014L52.0442 135.396L48.6685 133.616L45.0486 132.243L42.0202 129.861L38.6879 127.977L35.3936 126.013L32.5063 123.478L29.2336 121.438L26.7589 118.436L24.0615 115.75L21.0604 113.335L19.2422 110.453L19.1445 107.104L19.3398 103.094L22.0208 100.006L25.7222 98.4262L29.6028 97.2051L33.6515 97.433L37.5862 98.3339L41.6457 98.068L45.5587 98.9472L49.4012 99.5062L52.8692 101.319L56.576 102.372L59.8649 104.412L63.2677 106.16L66.7031 107.902L69.6664 110.361L72.5591 112.868L75.7883 115.093L78.16 118.17L80.4557 121.296L81.5412 125.101L83.5384 128.384L85.1448 131.907L85.5192 135.782L86.4474 139.505L86.6047 143.342L87.37 147.173L86.5614 150.636Z" fill="#FFF6F0"/>
<path d="M86.5614 150.636L83.267 149.561L79.5547 148.595L76.2605 146.544L72.57 145.486L69.0043 144.112L65.5472 142.501L62.2583 140.531L58.4375 139.657L55.496 137.014L52.0442 135.396L48.6685 133.616L45.0486 132.243L42.0202 129.861L38.6879 127.977L35.3936 126.013L32.5063 123.478L29.2336 121.438L26.7589 118.436L24.0615 115.75L21.0604 113.335L19.2422 110.453L19.1445 107.104L19.3398 103.094L22.0208 100.006L25.7222 98.4262L29.6028 97.2051L33.6515 97.433L37.5862 98.3339L41.6457 98.068L45.5587 98.9472L49.4012 99.5062L52.8692 101.319L56.576 102.372L59.8649 104.412L63.2677 106.16L66.7031 107.902L69.6664 110.361L72.5591 112.868L75.7883 115.093L78.16 118.17L80.4557 121.296L81.5412 125.101L83.5384 128.384L85.1448 131.907L85.5192 135.782L86.4474 139.505L86.6047 143.342L87.37 147.173L86.5614 150.636Z" stroke="#383839" stroke-width="1.62816" stroke-linecap="round" stroke-linejoin="round"/>
<path d="M69.1193 53.364L70.2427 49.3804L71.8763 45.5868L72.5927 41.5001L73.9387 37.5871L75.8165 33.8966L78.123 30.4666L80.6901 27.0854L82.8773 30.6783L85.9871 33.3539L88.4836 36.5559L91.5554 39.2316L94.307 42.2111L95.9677 45.6357L98.3177 48.4578L100.972 51.09L103.105 54.113L104.554 57.5484L106.703 60.5876L107.403 64.3161L109.167 67.5725L110.1 71.4909L110.182 75.5125L110.697 79.4906L110.773 83.5013L110.095 87.4958L110.106 91.4848L109.454 95.4303L109.975 99.5225L108.689 103.37L108.559 107.435L106.887 111.148L106.041 115.066L105.075 118.99L103.246 122.583L101.476 126.186L99.6419 129.757L97.3897 133.09L94.7683 136.134L91.9842 139L89.5365 141.817L86.2802 140.102L83.4851 137.41L80.7715 134.658L77.754 132.194L75.5397 128.976L73.0486 126.029L70.6498 122.995L68.4354 119.831L66.0747 116.738L64.3704 113.248L63.1982 109.536L61.4561 106.089L59.741 102.567L59.3937 98.6595L58.5362 94.893L58.5471 91.0234L58.5525 87.1864L58.0098 83.2571L59.4263 79.5666L60.1265 75.773L60.9893 71.9739L63.0734 68.6579L64.1262 64.8534L66.7096 61.8739L68.0664 57.5972L69.1193 53.364Z" fill="#41B879"/>
<path d="M69.1193 53.364L70.2427 49.3804L71.8763 45.5868L72.5927 41.5001L73.9387 37.5871L75.8165 33.8966L78.123 30.4666L80.6901 27.0854L82.8773 30.6783L85.9871 33.3539L88.4836 36.5559L91.5554 39.2316L94.307 42.2111L95.9677 45.6357L98.3177 48.4578L100.972 51.09L103.105 54.113L104.554 57.5484L106.703 60.5876L107.403 64.3161L109.167 67.5725L110.1 71.4909L110.182 75.5125L110.697 79.4906L110.773 83.5013L110.095 87.4958L110.106 91.4848L109.454 95.4303L109.975 99.5225L108.689 103.37L108.559 107.435L106.887 111.148L106.041 115.066L105.075 118.99L103.246 122.583L101.476 126.186L99.6419 129.757L97.3897 133.09L94.7683 136.134L91.9842 139L89.5365 141.817L86.2802 140.102L83.4851 137.41L80.7715 134.658L77.754 132.194L75.5397 128.976L73.0486 126.029L70.6498 122.995L68.4354 119.831L66.0747 116.738L64.3704 113.248L63.1982 109.536L61.4561 106.089L59.741 102.567L59.3937 98.6595L58.5362 94.893L58.5471 91.0234L58.5525 87.1864L58.0098 83.2571L59.4263 79.5666L60.1265 75.773L60.9893 71.9739L63.0734 68.6579L64.1262 64.8534L66.7096 61.8739L68.0664 57.5972L69.1193 53.364Z" stroke="#383839" stroke-width="1.62816" stroke-linecap="round" stroke-linejoin="round"/>
<path d="M104.072 145.111L104.403 141.024L104.593 137.139L105.82 133.41L106.862 129.692L107.036 125.747L108.582 122.17L109.288 118.301L110.959 114.778L113.429 111.685L114.585 107.88L117.157 104.928L119.903 102.187L122.226 99.0992L124.739 96.098L128.278 94.3341L131.518 92.2772L134.503 89.6559L138.307 88.6572L141.856 87.0562L145.737 86.622L149.547 86.0902L153.302 85.0916L157.183 85.2924L161.036 84.8365L164.933 84.3589L168.786 84.9559L172.661 85.2598L176.498 85.8894L180.238 86.9911L183.896 88.3208L187.678 89.1348L191.515 89.8892L188.216 91.843L185.149 94.1279L181.513 95.5227L178.648 98.0897L175.266 99.9296L172.33 102.383L169.427 104.863L166.469 107.283L164.005 110.241L160.803 112.439L158.903 115.88L155.783 118.214L152.63 120.363L149.71 123.028L146.372 125.041L142.687 126.49L139.762 129.171L136.234 130.865L132.874 132.835L129.64 135.038L126.177 136.851L122.357 137.958L118.975 139.885L115.399 141.415L112.018 143.45L108.17 144.21L104.072 145.111Z" fill="#41B879"/>
<path d="M104.072 145.111L104.403 141.024L104.593 137.139L105.82 133.41L106.862 129.692L107.036 125.747L108.582 122.17L109.288 118.301L110.959 114.778L113.429 111.685L114.585 107.88L117.157 104.928L119.903 102.187L122.226 99.0992L124.739 96.098L128.278 94.3341L131.518 92.2772L134.503 89.6559L138.307 88.6572L141.856 87.0562L145.737 86.622L149.547 86.0902L153.302 85.0916L157.183 85.2924L161.036 84.8365L164.933 84.3589L168.786 84.9559L172.661 85.2598L176.498 85.8894L180.238 86.9911L183.896 88.3208L187.678 89.1348L191.515 89.8892L188.216 91.843L185.149 94.1279L181.513 95.5227L178.648 98.0897L175.266 99.9296L172.33 102.383L169.427 104.863L166.469 107.283L164.005 110.241L160.803 112.439L158.903 115.88L155.783 118.214L152.63 120.363L149.71 123.028L146.372 125.041L142.687 126.49L139.762 129.171L136.234 130.865L132.874 132.835L129.64 135.038L126.177 136.851L122.357 137.958L118.975 139.885L115.399 141.415L112.018 143.45L108.17 144.21L104.072 145.111Z" stroke="#383839" stroke-width="1.62816" stroke-linecap="round" stroke-linejoin="round"/>
<path d="M93.4612 161.816L97.0106 159.933L100.164 157.626L103.062 154.842L106.807 153.485L110.535 152.259L114.144 150.734L117.949 149.719L121.889 149.464L125.791 149.979L129.677 150.712L133.199 152.53L136.141 155.151L139.554 157.29L141.508 160.796L143.999 164.025L140.879 166.516L138.464 169.555L135.451 172.025L131.973 173.799L128.239 174.928L124.391 175.417L120.548 175.411L116.76 174.906L112.939 174.44L109.499 172.687L105.737 171.666L102.465 169.62L99.7025 166.88L96.2616 165.067L93.2549 162.652" fill="#41B879"/>
<path d="M93.39 162.337L96.3804 159.786L99.7073 157.691L102.806 155.254L106.301 153.436L109.927 151.917L113.823 151.255L117.492 149.746L121.427 149.762L125.313 150.099L129.172 150.837L132.819 152.373L136.042 154.695L138.626 157.68L141.242 160.611L143.25 164.009L141.052 167.303L138.143 169.984L135.245 172.692L131.397 173.897L128.016 175.867L124.244 177.028L120.304 176.735L116.325 177.132L112.488 176.073L109.02 174.152L105.286 172.779L102.546 169.832L99.17 167.808L96.5812 164.839L93.124 162.744" stroke="#383839" stroke-width="1.62816" stroke-linecap="round" stroke-linejoin="round"/>
<path d="M98.4646 49.6355L94.6275 51.9204L90.8447 54.2975" stroke="#383839" stroke-width="1.62816" stroke-linecap="round" stroke-linejoin="round"/>
<path d="M83.7119 74.5627C83.7119 74.5627 91.0603 71.187 96.9271 64.8914C99.6353 61.9878 102.023 58.4602 103.228 54.3572" fill="#41B879"/>
<path d="M83.7236 74.5899L87.4358 72.7772L90.6216 70.1396L94.3121 68.1424L96.8194 64.7938L98.9035 61.5863L100.727 58.2974L102.936 55.0085" stroke="#383839" stroke-width="1.62816" stroke-linecap="round" stroke-linejoin="round"/>
<path d="M106.552 61.9771L104.462 64.6364L101.591 66.5685L98.3568 68.2238L94.7422 67.6702" stroke="#383839" stroke-width="1.62816" stroke-linecap="round" stroke-linejoin="round"/>
<path d="M84.8574 88.5757L88.3038 88.0005L91.6414 86.991L94.5994 84.9341L98.1541 84.4891L101.552 82.5298L105.182 81.0319L107.934 78.1555L110.832 75.7024" fill="#41B879"/>
<path d="M84.8252 88.4508C84.8252 88.4508 91.202 86.9258 97.9969 84.1091C102.925 82.063 107.174 79.6045 110.262 76.2776" stroke="#383839" stroke-width="1.62816" stroke-linecap="round" stroke-linejoin="round"/>
<path d="M108.911 67.2468L106.382 69.8953L103.245 71.7731L100.754 74.427L98.8871 77.5477L97.704 80.956L96.7217 84.3534" stroke="#383839" stroke-width="1.62816" stroke-linecap="round" stroke-linejoin="round"/>
<path d="M70.167 50.8186L73.152 53.4997L76.2942 55.9962L79.7677 58.0856L82.7581 60.745L85.4282 58.6826L88.2884 56.6366L90.8989 54.1781L91.9735 50.3464L93.1403 46.5691L93.6343 42.6018" stroke="#383839" stroke-width="1.62816" stroke-linecap="round" stroke-linejoin="round"/>
<path d="M74.4424 37.0227L75.6418 40.6427L76.1357 44.4146L76.6241 48.1973L76.4287 52.0127L76.9172 55.8389" stroke="#383839" stroke-width="1.62816" stroke-linecap="round" stroke-linejoin="round"/>
<path d="M67.9326 60.0667L76.4913 68.875L82.6296 70.6606" fill="#41B879"/>
<path d="M68.1445 59.8604L70.5975 63.1818L73.8484 65.7326L76.1984 69.3254L79.5959 69.6402L82.5374 70.9699" stroke="#383839" stroke-width="1.62816" stroke-linecap="round" stroke-linejoin="round"/>
<path d="M61.3799 72.8476L65.6457 73.8734L69.7596 73.3958L73.5802 71.7893L76.5056 68.4841L72.7933 70.0255L69.1137 71.2412L65.3907 72.3483L61.3799 72.8476Z" fill="#41B879"/>
<path d="M61.5977 73.1354C61.5977 73.1354 70.5959 75.9087 75.9472 69.0325" stroke="#383839" stroke-width="1.62816" stroke-linecap="round" stroke-linejoin="round"/>
<path d="M60.458 74.5625C60.458 74.5625 74.889 87.3816 83.7137 86.1496L60.458 74.5625Z" fill="#41B879"/>
<path d="M60.2939 74.7473L63.2139 77.195L66.595 79.0077L69.618 81.298L72.6626 83.6425L76.402 84.6248L79.8373 86.4538L83.7503 86.4321" stroke="#383839" stroke-width="1.62816" stroke-linecap="round" stroke-linejoin="round"/>
<path d="M59.1924 86.85L63.0946 85.9817L67.1162 84.614L70.2477 81.9709L66.3673 83.1161L62.5682 84.6574L59.1924 86.85Z" fill="#41B879"/>
<path d="M58.9102 86.4538C58.9102 86.4538 67.7293 85.3792 70.1987 81.7104" stroke="#383839" stroke-width="1.62816" stroke-linecap="round" stroke-linejoin="round"/>
<path d="M58.9102 97.1509C58.9102 97.1509 80.7654 104.027 85.1181 103.262L58.9102 97.1509Z" fill="#41B879"/>
<path d="M59.6357 97.0369L63.1689 98.3231L66.892 99.0015L70.4956 100.06L74.1535 100.917L77.7084 102.182L81.4315 102.703L85.1056 103.191" stroke="#383839" stroke-width="1.62816" stroke-linecap="round" stroke-linejoin="round"/>
<path d="M85.8613 101.167L89.503 100.592L93.0633 99.7233L96.5801 98.665L100.129 97.7586L103.559 96.4778L106.93 95.1319L110.3 93.9487L106.903 95.1753L103.256 95.7234L99.8038 96.8849L96.3087 97.916L92.971 99.4411L89.3184 99.9675L85.8613 101.167Z" fill="#41B879"/>
<path d="M85.8975 101.27C85.8975 101.27 99.1398 100.369 110.26 93.7153" stroke="#383839" stroke-width="1.62816" stroke-linecap="round" stroke-linejoin="round"/>
<path d="M45.2168 131.728L48.9508 129.92L52.6955 128.14L56.7877 126.778L56.2721 122.67L57.1079 118.702L56.4404 114.735L56.8962 110.768L56.994 106.795L56.4891 102.828" stroke="#383839" stroke-width="1.62816" stroke-linecap="round" stroke-linejoin="round"/>
<path d="M86.6035 151.266L83.662 148.66L80.3189 146.576L77.7573 143.499L74.7071 141.035L71.1903 139.168L68.379 136.4L65.3235 133.947L62.2354 131.532L59.1691 129.09L55.7336 127.125L52.7867 124.531L50.0079 121.725L46.4965 119.858L43.8588 116.862L40.6351 114.621L37.5905 112.152L34.4318 109.823L31.322 107.435L28.2231 105.037L25.2436 102.475L21.8516 100.44" stroke="#383839" stroke-width="1.62816" stroke-linecap="round" stroke-linejoin="round"/>
<path d="M19.5361 107.506L23.0475 108.982L26.3473 110.849L29.723 112.58L32.8491 114.762" stroke="#383839" stroke-width="1.62816" stroke-linecap="round" stroke-linejoin="round"/>
<path d="M26.7227 118.474L30.1852 116.282L34.0059 114.708L37.5336 112.548L37.1537 108.83L36.242 105.215L36.3777 101.471L35.5906 97.8345" stroke="#383839" stroke-width="1.62816" stroke-linecap="round" stroke-linejoin="round"/>
<path d="M35.5186 125.421L38.8238 123.435L42.1289 121.437L45.293 119.196L45.2767 115.153L45.1356 111.126L45.2386 107.104L45.0759 103.077L45.0596 99.0557" stroke="#383839" stroke-width="1.62816" stroke-linecap="round" stroke-linejoin="round"/>
<path d="M58.6484 140.145L62.4801 137.763L66.2737 135.331L66.3822 131.793L66.3009 128.254L66.0675 124.716L66.5126 121.172L66.6211 117.628" stroke="#383839" stroke-width="1.62816" stroke-linecap="round" stroke-linejoin="round"/>
<path d="M70.5303 144.737L73.6672 140.704L74.5085 136.883L75.0132 133.041L75.4365 129.182" stroke="#383839" stroke-width="1.62816" stroke-linecap="round" stroke-linejoin="round"/>
<path d="M25.9717 133.48L29.456 135.32L32.9185 137.204L36.8533 138.17L39.9685 140.72L43.7025 142.072L46.9479 144.384L50.8718 145.339L53.9979 147.906L57.5093 149.697L61.1129 151.314L64.7925 152.769L68.342 154.478L71.9022 156.177L75.685 157.36L79.1475 159.309L82.838 160.768L86.7782 161.724" stroke="#383839" stroke-width="1.62816" stroke-linecap="round" stroke-linejoin="round"/>
<path d="M30.835 146.028L34.0099 144.047L37.2826 142.229L40.5443 140.612L40.6311 137.106L39.4643 133.633L39.5294 130.002" stroke="#383839" stroke-width="1.62816" stroke-linecap="round" stroke-linejoin="round"/>
<path d="M37.4902 151.759L40.6978 149.317L43.8347 146.761L47.0259 144.514L47.1453 140.872L47.0422 137.084L47.84 133.323" stroke="#383839" stroke-width="1.62816" stroke-linecap="round" stroke-linejoin="round"/>
<path d="M46.4736 159.048L48.4817 155.949L51.4666 153.843L53.6538 150.918L56.4435 148.628L55.9495 145.312L56.0961 141.969L56.4435 138.625" stroke="#383839" stroke-width="1.62816" stroke-linecap="round" stroke-linejoin="round"/>
<path d="M57.916 165.425L59.9838 162.375L62.019 159.298L64.6348 156.66L66.3878 153.409L67.1205 150.044L66.5398 146.576L66.5019 143.135" stroke="#383839" stroke-width="1.62816" stroke-linecap="round" stroke-linejoin="round"/>
<path d="M68.0625 168.35L70.6078 164.844L72.426 160.801L74.8302 157.393L75.3242 153.849L74.9768 150.153L75.0907 146.435" stroke="#383839" stroke-width="1.62816" stroke-linecap="round" stroke-linejoin="round"/>
<path d="M93.752 163.075L97.8441 162.483L101.822 163.487L105.844 163.867H109.887L113.892 164.508L117.974 163.965L122.001 164.144L126 165.078L130.055 164.578L134.082 165.289L138.157 165.278L142.038 163.911" stroke="#383839" stroke-width="1.62816" stroke-linecap="round" stroke-linejoin="round"/>
<path d="M137.094 156.405L134.755 159.124L132.731 162.06L130.555 164.546L131.597 168.285L133.637 171.612" stroke="#383839" stroke-width="1.62816" stroke-linecap="round" stroke-linejoin="round"/>
<path d="M127.715 151.189L125.072 154.18L122.673 157.338L121.072 161.04L118.282 164.128L119.872 167.482L121.832 170.445L123.433 173.598L125.272 176.627" stroke="#383839" stroke-width="1.62816" stroke-linecap="round" stroke-linejoin="round"/>
<path d="M119.013 151.195L116.831 154.321L114.259 157.198L112.142 160.367L110.774 163.808L112.256 167.374L113.624 171.156L114.28 175.2" stroke="#383839" stroke-width="1.62816" stroke-linecap="round" stroke-linejoin="round"/>
<path d="M111.366 152.78L108.853 156.182L106.438 159.661L104.669 163.373L104.718 167.547L105.879 171.683" stroke="#383839" stroke-width="1.62816" stroke-linecap="round" stroke-linejoin="round"/>
<path d="M40.6797 154.972L44.0934 153.583L47.6862 153.561L51.279 153.545" stroke="#383839" stroke-width="1.62816" stroke-linecap="round" stroke-linejoin="round"/>
<path d="M104.76 141.469C104.76 141.469 146.788 91.0397 189.858 89.6287" stroke="#383839" stroke-width="1.62816" stroke-linecap="round" stroke-linejoin="round"/>
<path d="M164.644 84.8799L156.34 100.006L166.494 106.904" stroke="#383839" stroke-width="1.62816" stroke-linecap="round" stroke-linejoin="round"/>
<path d="M147.845 86.7358L144.165 107.218L155.671 117.557" stroke="#383839" stroke-width="1.62816" stroke-linecap="round" stroke-linejoin="round"/>
<path d="M134.435 90.2312L133.49 114.838L145.826 122.762" stroke="#383839" stroke-width="1.62816" stroke-linecap="round" stroke-linejoin="round"/>
<path d="M152.566 86.2366L159.166 92.9935" stroke="#383839" stroke-width="1.62816" stroke-linecap="round" stroke-linejoin="round"/>
<path d="M123.098 98.676L133.491 103.11L140.465 87.7456" stroke="#383839" stroke-width="1.62816" stroke-linecap="round" stroke-linejoin="round"/>
<path d="M161.647 103.832L160.92 112.201" stroke="#383839" stroke-width="1.62816" stroke-linecap="round" stroke-linejoin="round"/>
<path d="M138.65 142.484L141.055 148.715" stroke="#383839" stroke-width="1.62816" stroke-linecap="round" stroke-linejoin="round"/>
<path d="M93.2236 158.093L95.4922 155.021L97.3754 151.58L99.6711 148.422L102.331 145.556L105.033 142.75L107.584 139.787L110.58 137.28L113.717 134.973L116.794 132.58L120.229 130.729L123.681 128.851L127.556 128.167L131.252 127.18L134.791 125.611L138.606 125.085L142.438 124.613L146.068 123.386L149.726 122.246L153.466 121.432L157.183 120.52L160.906 119.701L159.463 123.158L157.465 126.349L156.277 129.975L153.65 132.808L151.897 136.124L149.992 139.364L147.414 142.126L145.238 145.16L143.241 148.471L139.832 150.24L136.37 151.309L132.527 152.481L128.685 153.616L124.728 154.251L120.837 155.173L116.973 156.259L113.093 157.355L109.109 157.854L105.104 158.164L101.082 158.071L97.104 158.359L93.2236 158.093Z" fill="#89CB9A"/>
<path d="M93.2236 158.093L95.4922 155.021L97.3754 151.58L99.6711 148.422L102.331 145.556L105.033 142.75L107.584 139.787L110.58 137.28L113.717 134.973L116.794 132.58L120.229 130.729L123.681 128.851L127.556 128.167L131.252 127.18L134.791 125.611L138.606 125.085L142.438 124.613L146.068 123.386L149.726 122.246L153.466 121.432L157.183 120.52L160.906 119.701L159.463 123.158L157.465 126.349L156.277 129.975L153.65 132.808L151.897 136.124L149.992 139.364L147.414 142.126L145.238 145.16L143.241 148.471L139.832 150.24L136.37 151.309L132.527 152.481L128.685 153.616L124.728 154.251L120.837 155.173L116.973 156.259L113.093 157.355L109.109 157.854L105.104 158.164L101.082 158.071L97.104 158.359L93.2236 158.093Z" stroke="#383839" stroke-width="1.62816" stroke-linecap="round" stroke-linejoin="round"/>
<path d="M140.11 125.193L138.65 133.09L151.507 136.59" stroke="#383839" stroke-width="1.62816" stroke-linecap="round" stroke-linejoin="round"/>
<path d="M129.318 128.097L128.103 140.096L145.828 144.102" stroke="#383839" stroke-width="1.62816" stroke-linecap="round" stroke-linejoin="round"/>
<path d="M107.907 139.809C107.055 139.939 107.055 150.636 107.055 150.636L107.907 139.809Z" fill="#41B879"/>
<path d="M107.907 139.809C107.055 139.939 107.055 150.636 107.055 150.636" stroke="#383839" stroke-width="1.62816" stroke-linecap="round" stroke-linejoin="round"/>
<path d="M160.92 119.69C160.92 119.69 98.7998 157.708 92.9004 157.838" stroke="#383839" stroke-width="1.62816" stroke-linecap="round" stroke-linejoin="round"/>
<path d="M115.902 107.218L119.983 125.758L135.484 125.481" stroke="#383839" stroke-width="1.62816" stroke-linecap="round" stroke-linejoin="round"/>
<path d="M107.88 111.126L105.091 113.774L101.688 115.587L98.2577 117.275L94.692 118.659L90.9635 119.5L87.1862 120.065L83.1538 120.227L79.1865 119.413L75.2083 118.816L71.1379 118.865L67.2031 117.997" stroke="#383839" stroke-width="1.62816" stroke-linecap="round" stroke-linejoin="round"/>
<path d="M108.001 104.608L104.375 106.502L101.146 108.96L98.606 112.119L95.735 115.012L94.2588 119.06L97.1352 116.222L99.6425 113.123L102.481 110.35L105.32 107.582L108.001 104.608Z" fill="#41B879"/>
<path d="M109.117 103.11C109.117 103.11 101.508 108.971 93.9805 118.681" stroke="#383839" stroke-width="1.62816" stroke-linecap="round" stroke-linejoin="round"/>
<path d="M63.499 108.722C63.499 107.848 73.3602 101.856 73.3602 101.856L63.499 108.722Z" fill="#41B879"/>
<path d="M63.0293 108.722L67.268 106.301L71.0996 103.902L74.8932 101.438" stroke="#383839" stroke-width="1.62816" stroke-linecap="round" stroke-linejoin="round"/>
<path d="M78.723 119.875L77.1164 124.211L75.0107 128.27" stroke="#383839" stroke-width="1.62816" stroke-linecap="round" stroke-linejoin="round"/>
<path d="M110.154 88.2067L106.056 86.4103L101.65 85.9056L97.4922 84.3425" stroke="#383839" stroke-width="1.62816" stroke-linecap="round" stroke-linejoin="round"/>
<path d="M93.8389 119.115L95.4888 122.339L97.6705 125.237L100.086 127.95" stroke="#383839" stroke-width="1.62816" stroke-linecap="round" stroke-linejoin="round"/>
<path d="M89.6214 142.191L89.5888 138.338L89.2795 134.506L88.7205 130.696L88.1235 126.892L88.2592 123.022L87.3366 119.245L87.5699 115.365L86.4845 111.604L85.9472 107.788L86.4574 103.886L85.3502 100.125L85.627 96.2445L84.7695 92.4617L84.7858 88.603L83.988 84.8148L83.8252 80.9669L83.8632 77.1081L83.6406 73.2657L83.2336 69.4395L82.7071 65.6242L82.4358 61.7871L82.197 57.9447L81.7086 54.1239L82.1318 50.2434L81.3069 46.439L80.9542 42.6128L80.8076 38.7649L80.813 34.917L81.1984 31.0528L80.3301 27.2429" stroke="#383839" stroke-width="1.62816" stroke-linecap="round" stroke-linejoin="round"/>
<path d="M80.6836 204.875L84.4663 204.398L88.2491 204.827L92.0318 204.669L95.8202 204.24L99.6083 204.43" stroke="#F3F2F2" stroke-width="1.30253" stroke-linecap="round" stroke-linejoin="round"/>
<path d="M94.8925 205.348L95.343 208.333L93.9427 211.432L90.3771 212.62L87.3107 211.209L86.0569 208.289L85.9756 205.158L90.4911 204.507L94.8925 205.348Z" fill="#EEEEEE" stroke="#F3F2F2" stroke-width="1.30253" stroke-linecap="round" stroke-linejoin="round"/>
<path d="M90.1826 204.013L90.3671 208.686" stroke="#363737" stroke-width="2.17088" stroke-linecap="round" stroke-linejoin="round"/>
<path d="M85.7513 197.142L84.6495 199.063L82.7228 200.105L80.7094 199.155L79.8301 197.142L80.6333 195.047L82.7228 194.157L84.7363 195.128L85.7513 197.142Z" fill="#F3F2F2"/>
<path d="M101.275 197.142L100.043 198.944L98.2361 200.051L96.407 198.971L95.6201 197.142L96.2009 195.101L98.2361 194.602L100.25 195.128L101.275 197.142Z" fill="#F3F2F2"/>
<path d="M117.028 132.493V145.703L130.249 152.916" stroke="#383839" stroke-width="1.62816" stroke-linecap="round" stroke-linejoin="round"/>
</g>
<defs>
<clipPath id="clip0_1712_3439">
<rect width="210" height="234" fill="white"/>
</clipPath>
</defs>
</svg>
