<svg width="122" height="204" viewBox="0 0 122 204" fill="none" xmlns="http://www.w3.org/2000/svg">
<path d="M111.736 112.968L113.473 109.283L112.936 105.359L110.152 102.716L106.933 101.197L103.509 99.9268L99.9377 100.676L96.3557 101.343L93.2297 103.297L91.634 104.817L87.8947 107.297L83.9925 109.49L79.8027 111.28L79.4717 113.668" fill="#89CB9A"/>
<path d="M111.332 112.621C111.332 112.621 116.586 106.466 110.214 102.619C110.214 102.619 101.965 96.9254 93.7478 103.954C93.0694 104.534 92.3693 105.023 91.6584 105.479C88.9231 107.243 83.0345 110.857 79.9627 111.384L79.458 113.663" stroke="#383839" stroke-width="1.62816" stroke-linecap="round" stroke-linejoin="round"/>
<path d="M111.562 112.431L112.957 115.834L114.857 118.863L115.725 122.32L115.448 125.782L113.858 128.751L111.459 131.378L107.378 132.127L103.655 130.33L100.165 128.241L96.9847 125.695L94.0866 122.846L91.9591 119.861L88.9253 118.135L85.5496 117.196L82.3312 115.943L78.9609 116.458L79.6556 113.81L83.4059 112.941L87.4274 113.452L91.3784 112.621L95.3946 113.034L99.3781 112.833L103.373 112.914L107.351 112.274L111.302 112.29L111.562 112.431Z" fill="#41B879"/>
<path d="M111.562 112.431L112.957 115.834L114.857 118.863L115.725 122.32L115.448 125.782L113.858 128.751L111.459 131.378L107.378 132.127L103.655 130.33L100.165 128.241L96.9847 125.695L94.0866 122.846L91.9591 119.861L88.9253 118.135L85.5496 117.196L82.3312 115.943L78.9609 116.458L79.6556 113.81L83.4059 112.941L87.4274 113.452L91.3784 112.621L95.3946 113.034L99.3781 112.833L103.373 112.914L107.351 112.274L111.302 112.29L111.562 112.431Z" stroke="#383839" stroke-width="1.62816" stroke-linecap="round" stroke-linejoin="round"/>
<path d="M80.4866 93.6474L76.6224 94.7925L73.7894 97.6526L70.3919 99.525L66.7937 101.072L63.3094 102.836L60.0097 104.99L56.8565 106.987L53.2582 105.495L51.4727 102.119L51.8797 98.4776L52.0588 94.5157L56.52 94.0001L60.5198 93.1263L64.0855 90.8306L68.221 90.5267L72.2101 89.6909L76.2805 89.6746L80.6114 89.2893L80.3997 93.5985" fill="#89CB9A"/>
<path d="M80.458 93.5768L60.1929 105.31C60.1929 105.31 49.3384 110.868 52.5948 94.9933C52.5948 94.9933 75.9318 87.4766 80.2735 89.6475L80.458 93.5822" stroke="#383839" stroke-width="1.62816" stroke-linecap="round" stroke-linejoin="round"/>
<path d="M78.2575 75.2384L74.5888 75.2493L70.9743 75.3036H67.3488L63.653 75.4609L60.1795 74.2018L56.5433 73.6645L53.1133 72.3674L48.9723 69.9903L45.7974 66.4301L43.518 61.7572L43.29 57.6543L44.8856 53.8552L48.4187 52.0697L51.9627 52.1565L52.9125 51.6138L55.3439 55.1143L59.0615 57.155L62.1768 59.874L64.8957 63.0543L68.304 65.4369L71.5224 68.0474L74.5671 70.8641L77.5249 73.2738L78.6917 74.9671" fill="#89CB9A"/>
<path d="M78.2089 75.0158C78.2089 75.0158 66.6381 77.5015 53.222 72.096C50.4379 70.9726 47.9033 69.0079 46.0363 66.2672C45.1463 64.9592 44.3431 63.407 43.8818 61.6595C42.2807 55.5756 47.149 49.6436 52.1312 51.7494C52.2885 51.8145 52.4459 51.8905 52.6033 51.9719C52.6033 51.9719 76.2334 73.2411 77.9863 73.1272L78.2089 75.0213" stroke="#383839" stroke-width="1.62816" stroke-linecap="round" stroke-linejoin="round"/>
<path d="M78.8548 86.2338L75.2023 85.4143L71.4846 84.2474L67.6476 83.6179L63.8811 82.5324L59.9898 82.1525L56.0931 81.8052L52.1964 82.4076L48.3973 83.0372L46.1341 84.8227L44.5439 87.3626L44.7719 91.661L48.1802 94.2118L52.37 94.532L56.1094 93.5334L60.1201 93.2457L63.8214 91.7804L67.6422 90.6895L71.5932 90.3096L75.4791 89.425L79.2727 89.6095L78.8548 86.2338Z" fill="#41B879"/>
<path d="M78.8548 86.2338L75.2023 85.4143L71.4846 84.2474L67.6476 83.6179L63.8811 82.5324L59.9898 82.1525L56.0931 81.8052L52.1964 82.4076L48.3973 83.0372L46.1341 84.8227L44.5439 87.3626L44.7719 91.661L48.1802 94.2118L52.37 94.532L56.1094 93.5334L60.1201 93.2457L63.8214 91.7804L67.6422 90.6895L71.5932 90.3096L75.4791 89.425L79.2727 89.6095L78.8548 86.2338Z" stroke="#383839" stroke-width="1.62816" stroke-linecap="round" stroke-linejoin="round"/>
<path d="M108.938 51.2827L107.879 47.0549L107.483 42.8325L105.448 38.9412L101.318 37.3564L97.0792 37.9643L93.2041 39.6522L90.4742 42.8488L87.9561 46.2625L87.3102 50.4632L87.0009 51.223L86.1433 55.174L86.0511 59.3204L83.9942 62.9403L82.7405 66.7774L80.7324 70.2888" fill="#89CB9A"/>
<path d="M108.431 51.2393C108.431 51.2393 109.798 34.6754 97.077 37.9806C91.9863 39.3048 87.9375 44.2056 87.2103 50.4523C87.1777 50.7074 87.1561 50.9733 87.1344 51.2393C87.1344 51.2393 85.6364 63.7273 80.752 70.3051" stroke="#383839" stroke-width="1.62816" stroke-linecap="round" stroke-linejoin="round"/>
<path d="M108.535 51.4021L111.754 52.9109L115.2 54.3599L118.158 56.7533L120.079 60.1128L120.443 63.9661L119.786 67.7706L117.436 70.8424L115.222 73.7839L112.579 76.5192L108.866 77.4039L105.295 78.4133L101.54 78.7715L97.8546 77.9195L94.2671 76.8232L90.7557 75.5261L87.2823 74.0661L83.8849 72.4271L80.9434 70.4353L84.0749 68.5467L86.973 66.1695L90.0828 64.1072L92.9266 61.6487L96.1559 59.76L99.1733 57.562L102.473 55.7602L105.415 53.4536L108.535 51.4021Z" fill="#FFF6F0"/>
<path d="M108.535 51.4021L111.754 52.9109L115.2 54.3599L118.158 56.7533L120.079 60.1128L120.443 63.9661L119.786 67.7706L117.436 70.8424L115.222 73.7839L112.579 76.5192L108.866 77.4039L105.295 78.4133L101.54 78.7715L97.8546 77.9195L94.2671 76.8232L90.7557 75.5261L87.2823 74.0661L83.8849 72.4271L80.9434 70.4353L84.0749 68.5467L86.973 66.1695L90.0828 64.1072L92.9266 61.6487L96.1559 59.76L99.1733 57.562L102.473 55.7602L105.415 53.4536L108.535 51.4021Z" stroke="#383839" stroke-width="1.62816" stroke-linecap="round" stroke-linejoin="round"/>
<path d="M77.9798 73.1054L78.0504 69.5235L77.5348 65.9144L78.0612 62.2239L76.0911 62.4409L75.0382 58.3977L72.6557 55.2065L70.9136 51.7005L69.2745 48.1022L66.9246 44.9382L64.097 42.2083L61.0251 39.9289L57.4595 38.686L53.7527 40.4227L52.2603 44.135L51.5547 48.0643L52.4773 52.0424L54.9467 54.8646L57.8611 57.1874L60.3902 59.9064L63.2612 62.2618L65.9368 64.8398L68.9218 67.0595L71.7005 69.5072L74.6584 71.7432L78.0286 73.214" fill="#41B879"/>
<path d="M77.9795 73.1216C78.1043 73.0945 77.9795 62.2998 77.9795 62.2998L76.3024 62.137C76.3024 62.137 65.6217 36.8462 57.4809 38.8217C57.4809 38.8217 48.7973 40.135 52.5964 51.9718C52.5964 51.9718 75.141 74.5598 77.9795 73.1271" stroke="#383839" stroke-width="1.62816" stroke-linecap="round" stroke-linejoin="round"/>
<path d="M77.7153 134.905L78.7085 130.998L79.7451 127.112L81.319 123.351L81.9106 119.351L83.0503 115.454L83.1588 111.389L83.669 107.395L83.5279 103.351L83.8156 99.3461L84.5156 95.3028L83.9946 91.2812L83.0231 87.3465L83.3596 83.2164L82.5781 79.2383L81.7641 75.2655L81.4221 71.2277L80.7003 67.2387L80.5375 63.19L79.87 59.1901L80.125 55.098L79.045 51.1253L78.4697 47.1037L78.5783 43.0387L78.2418 38.9955L78.9636 34.9685L78.0519 34.8057L78.1549 38.6753L77.4548 42.3875L77.2431 46.1594L77.3029 49.9367L76.2772 53.7032L77.1183 57.4806L76.9826 61.2633L77.2215 65.0407L76.9826 68.8614L77.8293 72.5791L77.8619 76.3944L78.4426 80.1392L79.8971 83.7428L79.8916 87.5799L80.2824 91.3898L80.3204 95.216L80.9771 99.0422L80.5429 102.874L80.4452 106.955L79.4032 110.928L79.5606 115.085L78.4372 119.025L77.927 123.09L76.2609 126.889L75.9895 131.03L74.6436 134.775L77.6773 134.466L77.7153 134.905Z" fill="#FFF6F0"/>
<path d="M77.7153 134.905L78.7085 130.998L79.7451 127.112L81.319 123.351L81.9106 119.351L83.0503 115.454L83.1588 111.389L83.669 107.395L83.5279 103.351L83.8156 99.3461L84.5156 95.3028L83.9946 91.2812L83.0231 87.3465L83.3596 83.2164L82.5781 79.2383L81.7641 75.2655L81.4221 71.2277L80.7003 67.2387L80.5375 63.19L79.87 59.1901L80.125 55.098L79.045 51.1253L78.4697 47.1037L78.5783 43.0387L78.2418 38.9955L78.9636 34.9685L78.0519 34.8057L78.1549 38.6753L77.4548 42.3875L77.2431 46.1594L77.3029 49.9367L76.2772 53.7032L77.1183 57.4806L76.9826 61.2633L77.2215 65.0407L76.9826 68.8614L77.8293 72.5791L77.8619 76.3944L78.4426 80.1392L79.8971 83.7428L79.8916 87.5799L80.2824 91.3898L80.3204 95.216L80.9771 99.0421L80.5429 102.874L80.4452 106.955L79.4032 110.928L79.5606 115.085L78.4372 119.025L77.927 123.09L76.2609 126.889L75.9895 131.03L74.6436 134.775L77.6773 134.466L77.7153 134.905Z" stroke="#383839" stroke-width="1.62816" stroke-linecap="round" stroke-linejoin="round"/>
<path d="M87.8229 202.664L86.0428 202.74L84.1976 202.507L82.3523 202.908L80.507 202.604L78.6618 202.469L76.8166 202.713L74.9713 202.523L73.126 202.409L71.2808 202.789L69.4355 202.957L67.5903 202.55L65.7505 203.049L63.9052 202.832L62.0599 202.534L60.2147 202.751L58.3695 202.707L56.5242 202.838L54.6789 203.011L52.8337 202.539L50.9884 202.615L49.1432 202.93L47.2979 202.707L45.4527 202.821L43.6074 202.832L41.7621 202.886L39.9169 202.675L38.0717 202.686L36.2264 202.924L34.3811 202.539L32.5304 202.827L30.6201 202.783L30.0665 200.916L30.1262 198.99L29.5509 197.182L29.1439 195.343L29.171 193.421L28.5252 191.63L28.4926 189.72L27.7382 187.951L27.6623 186.051L27.5211 184.163L27.0924 182.328L26.7397 180.483L26.1752 178.676L25.8333 176.825L25.6325 174.947L25.1983 173.113L24.7913 171.273L24.5959 169.395L24.3137 167.534L24.0152 165.672L23.5104 163.848L23.3476 161.965L22.5227 160.201L22.132 158.356L21.7792 156.505L21.4915 154.638L21.2256 152.712L23.1577 152.831L25.0409 152.609L26.9242 152.94L28.8074 152.468L30.6907 152.842L32.5739 152.668L34.4571 152.869L36.3404 152.527L38.2237 152.495H40.1069L41.9901 152.511L43.8733 152.826L45.7566 152.701L47.6399 152.446L49.5231 152.896L51.4063 152.419L53.2895 152.56L55.1728 152.848L57.0561 152.451L58.9393 152.755L60.8225 152.766L62.7058 152.734L64.589 152.468L66.4723 152.554L68.3555 152.918L70.2388 152.544L72.122 152.462L74.0052 152.961L75.8885 152.43L77.7718 152.413L79.655 152.989L81.5382 152.885L83.4214 152.902L85.3047 152.668L87.188 152.81L89.0712 152.527L90.9544 152.744L92.8431 152.961L94.7643 152.723L94.7372 154.633L94.1131 156.429L94.1945 158.324L93.7766 160.147L93.3044 161.965L93.2718 163.843L92.9734 165.688L92.4686 167.501L92.3221 169.363L92.2841 171.24L91.6708 173.037L91.5189 174.898L91.6925 176.809L91.3669 178.648L90.9707 180.483L90.7427 182.334L90.6831 184.211L90.4714 186.067L90.0643 187.896L89.603 189.72L89.7062 191.62L89.0712 193.416L89.0006 195.294L88.5013 197.112L88.6153 199.017L87.9152 200.808L87.8121 202.626L87.8229 202.664Z" fill="#363737"/>
<path d="M101.105 153.282L99.271 153.537L97.3985 153.059L95.5262 153.292L93.6538 153.493L91.7814 153.352H89.909L88.0312 153.113L86.1588 153.233L84.2864 153.059L82.414 153.564L80.5417 153.542L78.6692 153.52L76.7914 153.298L74.9191 153.168L73.0466 153.238L71.1688 153.434L69.2911 153.455H67.4186L65.5463 153.2L63.6685 153.493L61.7906 153.227L59.9128 153.477L58.035 153.45L56.1572 153.178L54.2794 153.651L52.4016 153.564L50.5237 153.401L48.6513 153.211L46.7735 153.374L44.9011 153.14L43.0288 153.276L41.1509 153.461L39.2785 153.244L37.4007 153.412L35.5229 153.629L33.6451 153.227L31.7673 153.472L29.8894 153.455L28.0116 153.52L26.1338 153.363L24.256 153.07L22.3782 153.113L20.5004 153.26L18.6226 153.558L16.7393 153.396L14.9266 153.244L14.6661 151.409L15.1057 149.504L14.9755 147.599L15.1763 145.689L14.9809 143.784L14.677 141.874L14.9538 139.963L14.6064 138.053L15.122 136.142L14.9646 134.33L16.7393 134.525L18.6117 133.912L20.4841 134.026L22.3565 134.373L24.2289 134.21L26.1012 134.33L27.9791 134.297L29.8515 134.422L31.7238 134.118L33.5963 133.977L35.4686 134.292L37.3465 134.026L39.2243 134.232L41.0966 134.096L42.9691 134.362L44.8414 134.167L46.7192 134.514L48.5917 133.939H50.464L52.3418 134.248L54.2197 134.01L56.092 134.037L57.9699 133.955L59.8477 134.183L61.7255 134.319L63.6033 134.162L65.4757 134.341L67.3535 134.243L69.2259 133.944L71.0983 134.422H72.9707L74.8485 134.406L76.7263 134.324L78.6041 134.476L80.482 134.08L82.3598 134.01L84.2375 134.107L86.1154 134.124L87.9932 134.102L89.871 134.031L91.7489 134.313L93.6267 134.048L95.5045 134.194L97.3823 134.048L99.2655 134.395L101.295 134.086L100.834 136.137L101.013 138.042L100.899 139.952L101.181 141.863L101.426 143.768L101.458 145.673L100.872 147.583L100.845 149.493L101.491 151.409L101.116 153.276H101.105V153.282Z" fill="#363737"/>
<path d="M64.7854 176.087L64.3675 178.388L63.0704 180.353L61.2089 181.9L58.7992 182.312L56.4058 181.862L54.3543 180.526L53.258 178.377L52.4385 176.082" stroke="#F6F7F7" stroke-width="1.6" stroke-linecap="round" stroke-linejoin="round"/>
<path d="M16.7461 20.6299L16.3662 16.3478L17.7881 12.2882L20.1707 8.88538L23.8829 7.47974L27.9805 7.56114L31.6655 9.39011L35.1661 11.8378L37.0276 15.7074L38.0533 19.8321L37.9122 20.6407L39.0248 24.5592L39.2148 28.6784L41.1577 32.3201L42.4602 36.1354L44.2078 39.8096" fill="#89CB9A"/>
<path d="M16.6737 20.6353C16.6737 20.6353 15.3061 4.07142 28.0274 7.37659C33.1182 8.70083 37.1668 13.6016 37.8941 19.8483C37.9266 20.1034 37.9484 20.3693 37.9701 20.6353C37.9701 20.6353 39.468 33.1233 44.3525 39.7011" stroke="#383839" stroke-width="1.62816" stroke-linecap="round" stroke-linejoin="round"/>
<path d="M48.2891 44.5799L50.9321 47.0059L52.7991 49.8226L55.1165 52.2594L58.4217 54.8265L61.2981 57.8495L64.6847 60.3568L68.7443 61.4911L72.8201 62.1153L76.9611 61.8765L80.6299 59.9227L83.4411 57.2633L86.3447 54.5551L87.8589 50.7832L87.3976 46.7562L85.6554 43.2123L83.5496 39.9885L81.1128 37.1718L77.7859 35.5816L74.1986 33.6387L70.1119 33.7255L66.1121 34.4528L62.4324 36.1623L58.6497 37.5408L55.1871 39.5923L52.0447 42.1051L48.2891 44.5799Z" fill="#41B879"/>
<path d="M48.2891 44.5799L50.9321 47.0059L52.7991 49.8226L55.1165 52.2594L58.4217 54.8265L61.2981 57.8495L64.6847 60.3568L68.7443 61.4911L72.8201 62.1153L76.9611 61.8765L80.6299 59.9227L83.4411 57.2633L86.3447 54.5551L87.8589 50.7832L87.3976 46.7562L85.6554 43.2123L83.5496 39.9885L81.1128 37.1718L77.786 35.5816L74.1986 33.6387L70.1119 33.7255L66.1121 34.4528L62.4324 36.1623L58.6497 37.5408L55.1871 39.5923L52.0447 42.1051L48.2891 44.5799Z" stroke="#383839" stroke-width="1.62816" stroke-linecap="round" stroke-linejoin="round"/>
<path d="M9.78191 67.803L8.15918 64.3187L9.44543 60.8887L12.3598 58.6147L15.8115 57.7898L19.2795 58.2077L22.3188 59.7599L25.4828 61.057L28.5926 63.0271L29.5586 65.6158L33.2274 68.1286L36.5543 70.9074L40.2882 73.6047L39.6044 75.9058" fill="#FFF6F0"/>
<path d="M9.07318 68.0635C9.07318 68.0635 5.27413 60.9213 12.3295 58.5388C12.3295 58.5388 21.6155 54.7669 28.1173 63.407C28.6546 64.118 29.2353 64.7475 29.8268 65.3499C32.1171 67.6619 37.083 72.4704 39.9703 73.6427V75.9764" stroke="#383839" stroke-width="1.62816" stroke-linecap="round" stroke-linejoin="round"/>
<path d="M44.2875 77.5612L47.4516 79.8732L51.0932 81.382L54.0294 84.0847L57.5299 85.8323L61.1281 87.4116L64.5473 89.2949L67.8144 90.6245L71.0382 89.322L72.0097 86.1308L72.3027 82.7008L71.9826 79.2274L68.2107 77.7946L64.3248 76.5843L60.2815 75.9765L56.3359 75.0159L52.4174 73.887L48.347 73.6482L44.1572 73.7893L44.6837 77.7892" fill="#41B879"/>
<path d="M44.1699 77.7619L64.4351 89.4955C64.4351 89.4955 75.2895 95.053 72.0332 79.1784C72.0332 79.1784 48.6962 71.6617 44.3544 73.8326L44.1699 77.7673" stroke="#383839" stroke-width="1.62816" stroke-linecap="round" stroke-linejoin="round"/>
<path d="M19.6811 117.516L17.8087 120.957L17.8141 124.887L17.1846 128.789L18.7693 132.479L22.2318 134.379L26.1666 135.475L30.1393 134.346L32.9614 131.454L33.4824 131.204L36.1581 126.151L37.7754 122.889L37.9762 119.204L39.1648 115.812L39.9137 112.339L40.6952 108.301L41.1511 104.214L42.4428 100.247L42.6273 96.1169L38.4538 96.5131L34.8555 98.6297L31.3713 100.839L28.4297 103.731L25.4665 106.629L23.5615 110.325L21.3038 113.755L19.1492 117.31L19.6811 117.516Z" fill="#41B879"/>
<path d="M19.6811 117.516L17.8087 120.957L17.8141 124.887L17.1846 128.789L18.7693 132.479L22.2318 134.379L26.1666 135.475L30.1393 134.346L32.9614 131.454L33.4824 131.204L36.1581 126.151L37.7754 122.889L37.9762 119.204L39.1648 115.812L39.9137 112.339L40.6952 108.301L41.1511 104.214L42.4428 100.247L42.6273 96.1169L38.4538 96.5131L34.8555 98.6297L31.3713 100.839L28.4297 103.731L25.4665 106.629L23.5615 110.325L21.3038 113.755L19.1492 117.31L19.6811 117.516Z" stroke="#383839" stroke-width="1.62816" stroke-linecap="round" stroke-linejoin="round"/>
<path d="M46.4211 109.191L48.4291 112.588L50.0736 116.149L51.9405 119.595L53.7315 123.101L56.5211 125.939L58.6432 129.261L61.6118 131.909L65.5845 132.729L69.0743 130.596L70.5559 127.025L71.8204 123.101L70.4202 119.231L68.1245 116.273L65.2752 113.886L62.4096 111.519L59.9077 108.768L56.825 106.646L54.3339 103.856L51.083 101.978L48.6517 99.015L45.0859 98.2063" fill="#41B879"/>
<path d="M46.6966 109.072C46.6966 109.072 57.3773 134.362 65.5181 132.387C65.5181 132.387 74.2017 131.074 70.4026 119.237C70.4026 119.237 47.858 96.6487 45.0195 98.0815" stroke="#383839" stroke-width="1.62816" stroke-linecap="round" stroke-linejoin="round"/>
<path d="M44.8691 96.5292L48.3968 95.6988L52.033 95.4546L55.6801 95.6391L59.2187 96.5835L62.8603 96.8602L66.4043 97.734L69.7746 99.1234L73.7039 101.614L76.9711 104.936L79.5273 109.441L78.8272 113.408L77.5518 116.946L74.6645 119.351L70.9849 119.199L70.4964 119.123L67.2618 116.545L64.2334 113.728L61.2919 110.803L58.2038 108.051L54.6164 105.869L51.9299 102.624L48.2882 100.54L44.8746 98.1248L44.9017 96.1764" fill="#89CB9A"/>
<path d="M44.79 96.1928C44.79 96.1928 56.3608 93.7072 69.7769 99.1127C72.561 100.236 75.0956 102.201 76.9626 104.941C77.8526 106.249 78.6558 107.802 79.1172 109.549C80.7182 115.633 75.8499 121.565 70.8678 119.459C70.7104 119.394 70.553 119.318 70.3956 119.237C70.3956 119.237 46.7655 97.9675 45.0125 98.0815L44.79 96.1874" stroke="#383839" stroke-width="1.62816" stroke-linecap="round" stroke-linejoin="round"/>
<path d="M77.6974 34.8762L79.8302 31.3593L81.377 27.506L81.339 23.4193L79.9497 19.4955L76.0638 17.8673L71.9771 17.2432L67.9338 17.9433L63.7766 18.893L60.8513 21.3624L58.1974 24.0597L55.5924 26.833L53.1935 29.8506L52.0321 33.5357L51.066 37.2045L49.5844 40.7104L48.8789 44.2381L52.3468 42.865L55.728 40.9329L59.1472 39.0443L62.778 37.6115L66.615 36.792L70.2729 35.4298L74.0991 34.5288L78.0284 34.594L77.6974 34.8762Z" fill="#89CB9A"/>
<path d="M77.6974 34.8762L79.8303 31.3593L81.377 27.506L81.339 23.4193L79.9497 19.4955L76.0638 17.8673L71.9771 17.2432L67.9338 17.9433L63.7766 18.893L60.8513 21.3624L58.1974 24.0597L55.5924 26.833L53.1935 29.8506L52.0321 33.5357L51.066 37.2045L49.5844 40.7104L48.8789 44.2381L52.3468 42.865L55.728 40.9329L59.1472 39.0443L62.778 37.6115L66.615 36.792L70.2729 35.4298L74.0991 34.5288L78.0284 34.594L77.6974 34.8762Z" stroke="#383839" stroke-width="1.62816" stroke-linecap="round" stroke-linejoin="round"/>
<path d="M40.4935 92.8931L36.4828 92.6381L32.4884 92.155L28.4885 92.5784L24.5918 93.7398L21.1292 95.7913L17.3519 97.1318L14.4537 99.8508L10.9423 101.989L9.15677 105.642L6.45403 109.023L5.69964 113.191L4.80957 117.44L8.42955 119.633L12.0332 119.492L15.7563 118.906L19.0343 117.142L21.0641 114L22.8714 110.656L24.4072 106.939L28.0815 105.262L30.5671 102.26L33.7312 100.079L37.1449 98.3746L40.0539 96.22L40.6889 92.3775" fill="#89CB9A"/>
<path d="M40.5304 92.3938C40.5304 92.3938 19.9612 88.6762 8.60205 105.311C7.02816 107.612 5.96986 110.363 5.6985 113.24C5.24262 118.043 6.76769 123.769 19.2231 117.31C19.2231 117.31 21.47 106.217 40.3675 96.3231L40.6063 92.3992" stroke="#383839" stroke-width="1.62816" stroke-linecap="round" stroke-linejoin="round"/>
<path d="M45.8781 70.4681L49.4383 69.6377L53.1234 68.3243L57.0636 68.2429L60.7921 66.9838L64.6671 66.5768L68.5421 66.0232L72.466 66.1914L76.379 66.7613L78.4739 69.0244L80.444 71.4504L80.2269 76.031L76.4659 78.4244L72.1892 79.4067L68.401 78.1422L64.7214 76.6225L60.8029 75.993L56.955 75.0704L53.0474 74.4299L49.1453 73.6973L44.7275 73.9035L45.8781 70.4681Z" fill="#89CB9A"/>
<path d="M45.8781 70.4681L49.4383 69.6377L53.1234 68.3243L57.0636 68.2429L60.7921 66.9838L64.6671 66.5768L68.5421 66.0232L72.466 66.1914L76.379 66.7613L78.4739 69.0244L80.444 71.4504L80.2269 76.031L76.4659 78.4244L72.1892 79.4067L68.401 78.1422L64.7214 76.6225L60.8029 75.993L56.955 75.0704L53.0474 74.4299L49.1453 73.6973L44.7275 73.9035L45.8781 70.4681Z" stroke="#383839" stroke-width="1.62816" stroke-linecap="round" stroke-linejoin="round"/>
<path d="M16.5616 20.8088L13.2836 22.1548L9.87527 23.7124L7.48735 26.578L5.7506 29.742L5.16992 33.3294L5.42498 37.1285L7.29735 40.4391L10.0869 42.979L12.4424 46.0562L16.1058 47.2122L19.7962 47.9449L23.5628 48.0752L27.3455 47.7441L31.0034 46.7129L34.542 45.367L37.6246 43.0767L41.212 41.8013L44.0233 39.9289L41.4997 37.2642L38.4062 35.1747L35.0684 33.438L32.2409 30.9577L28.9628 29.1396L26.0864 26.7299L22.9114 24.7544L19.8343 22.6215L16.5616 20.8088Z" fill="#41B879"/>
<path d="M16.5616 20.8088L13.2836 22.1548L9.87527 23.7124L7.48735 26.578L5.7506 29.742L5.16992 33.3294L5.42498 37.1285L7.29735 40.4391L10.0869 42.979L12.4424 46.0562L16.1058 47.2122L19.7962 47.9449L23.5628 48.0752L27.3455 47.7441L31.0034 46.7129L34.542 45.367L37.6246 43.0767L41.212 41.8013L44.0233 39.9289L41.4997 37.2642L38.4062 35.1747L35.0684 33.438L32.2409 30.9577L28.9628 29.1396L26.0864 26.7299L22.9114 24.7544L19.8343 22.6215L16.5616 20.8088Z" stroke="#383839" stroke-width="1.62816" stroke-linecap="round" stroke-linejoin="round"/>
<path d="M8.82637 67.5803L6.64462 70.7064L4.37609 73.458L2.54705 76.5244L1.67871 80.0304L2.36798 83.6666L4.91337 86.3259L8.71786 87.1943L12.5766 86.4507L16.5493 85.6204L20.2561 83.938L23.4256 81.3654L26.6059 79.7753L29.8731 78.6681L33.162 77.4524L36.7168 77.1376L40.174 78.9558L40.4616 75.77L36.1035 75.021L32.3479 73.6208L28.4566 72.747L24.473 72.1826L20.7445 70.6738L16.8043 69.9846L12.8914 69.2248L8.82637 67.5803Z" fill="#41B879"/>
<path d="M8.82637 67.5803L6.64462 70.7064L4.37609 73.458L2.54705 76.5244L1.67871 80.0304L2.36798 83.6666L4.91337 86.3259L8.71786 87.1943L12.5766 86.4507L16.5493 85.6204L20.256 83.938L23.4256 81.3654L26.6059 79.7753L29.8731 78.6681L33.162 77.4524L36.7168 77.1376L40.174 78.9558L40.4616 75.77L36.1036 75.021L32.3479 73.6208L28.4566 72.747L24.473 72.1826L20.7445 70.6738L16.8044 69.9846L12.8914 69.2248L8.82637 67.5803Z" stroke="#383839" stroke-width="1.62816" stroke-linecap="round" stroke-linejoin="round"/>
<path d="M49.3291 166.719L51.381 169.01L53.6554 171.073" stroke="#F3F2F2" stroke-width="2.17088" stroke-linecap="round" stroke-linejoin="round"/>
<path d="M53.9704 166.871L51.3486 168.712L49.085 170.932" stroke="#F3F2F2" stroke-width="2.17088" stroke-linecap="round" stroke-linejoin="round"/>
<path d="M64.3037 166.698L66.7519 168.592L68.8092 170.878" stroke="#F3F2F2" stroke-width="2.17088" stroke-linecap="round" stroke-linejoin="round"/>
<path d="M68.611 166.226L66.8254 168.955L64.584 171.191" stroke="#F3F2F2" stroke-width="2.17088" stroke-linecap="round" stroke-linejoin="round"/>
<path d="M47.9384 134.422L47.553 130.542L46.5327 126.895L45.0674 123.361L44.3727 119.617L43.4935 115.926L42.1095 112.344L41.3497 108.616L40.6605 104.871L40.2046 101.094L39.6293 97.3326L39.0215 93.5661L39.5533 89.7128L39.3525 85.9354L39.1409 82.1472L38.6904 78.3319L38.8804 74.5111L39.8464 70.7989L40.3729 66.9456L41.2629 63.1465L41.6645 59.277L42.2181 55.4291L42.4135 51.5377L43.0919 47.7061L43.4663 43.8365L43.906 39.9724L44.2588 36.1027L44.5084 32.2169L45.4581 28.407L45.9086 24.5428L46.6738 20.7057L46.0932 16.7493L46.3537 12.8743L46.7932 9.01553L47.2545 5.1405L46.5979 1.29261L47.1623 1.23291L48.2097 5.01568L48.8393 8.89071L49.4743 12.7766L48.8719 16.7493L49.4037 20.6352L49.7945 24.5428L49.5068 28.4612L49.0618 32.3634L49.0727 36.2764L49.2463 40.2057L48.6982 44.097L48.5788 48.0155L48.3943 51.9339L47.8407 55.8198L46.6847 59.6134L46.7281 63.5753L45.545 67.3581L45.1054 71.2548L44.9643 75.0376L44.085 78.7227L43.8463 82.4837L43.7377 86.2611L44.1231 90.0167L44.7689 93.7669L45.0836 97.5768L45.7838 101.322L47.2763 104.871L47.5476 108.724L48.8936 112.301L50.1907 115.888L51.2164 119.546L51.77 123.34L53.3439 126.846L53.6913 130.699L54.9449 134.086L51.694 134.124L48.3671 134.238L47.9384 134.422Z" fill="#FFF6F0"/>
<path d="M47.9384 134.422L47.553 130.542L46.5327 126.895L45.0674 123.361L44.3727 119.617L43.4935 115.926L42.1095 112.344L41.3497 108.616L40.6605 104.871L40.2046 101.094L39.6293 97.3326L39.0215 93.5661L39.5533 89.7128L39.3525 85.9354L39.1409 82.1472L38.6904 78.3319L38.8804 74.5111L39.8464 70.7989L40.3729 66.9456L41.2629 63.1465L41.6645 59.277L42.2181 55.4291L42.4135 51.5377L43.0919 47.7061L43.4663 43.8365L43.906 39.9724L44.2588 36.1027L44.5084 32.2169L45.4581 28.407L45.9086 24.5428L46.6738 20.7057L46.0932 16.7493L46.3537 12.8743L46.7932 9.01553L47.2545 5.1405L46.5979 1.29261L47.1623 1.23291L48.2097 5.01568L48.8393 8.89071L49.4743 12.7766L48.8719 16.7493L49.4037 20.6352L49.7945 24.5428L49.5068 28.4612L49.0618 32.3634L49.0727 36.2764L49.2463 40.2057L48.6982 44.097L48.5788 48.0155L48.3943 51.9339L47.8407 55.8198L46.6847 59.6134L46.7281 63.5753L45.545 67.3581L45.1054 71.2548L44.9643 75.0376L44.085 78.7227L43.8463 82.4837L43.7377 86.2611L44.1231 90.0167L44.7689 93.7669L45.0836 97.5768L45.7838 101.322L47.2763 104.871L47.5476 108.724L48.8936 112.301L50.1907 115.888L51.2164 119.546L51.77 123.34L53.3439 126.846L53.6913 130.699L54.9449 134.086L51.694 134.124L48.3671 134.238L47.9384 134.422Z" stroke="#383839" stroke-width="1.62816" stroke-linecap="round" stroke-linejoin="round"/>
</svg>
