<svg width="210" height="234" viewBox="0 0 210 234" fill="none" xmlns="http://www.w3.org/2000/svg">
<rect width="210" height="234" fill="transparent"/>
<path d="M87.1923 145.501L84.2226 147.61L80.9217 148.93L77.7703 150.671L74.2397 151.296L70.7626 152.183L65.7578 153.262L68.4925 150.66L71.4676 147.979L75.0943 146.275L79.1217 145.987L82.9941 145.624L86.9466 145.18L87.1923 145.501Z" fill="#89CB9A"/>
<path d="M87.1923 145.501L84.2226 147.61L80.9217 148.93L77.7703 150.671L74.2397 151.296L70.7626 152.183L65.7578 153.262L68.4925 150.66L71.4676 147.979L75.0943 146.275L79.1217 145.987L82.9941 145.624L86.9466 145.18L87.1923 145.501Z" stroke="#383839" stroke-width="1.62816" stroke-linecap="round" stroke-linejoin="round"/>
<path d="M82.5894 136.682L80.3087 139.348L77.2054 141.105L73.6749 141.708L70.3312 142.948L66.7953 143.621L62.4102 144.443L65.0167 141.65L68.1146 139.353L71.5918 137.665L75.4962 137.526L79.1871 136.282L82.942 136.661L82.5894 136.682Z" fill="#89CB9A"/>
<path d="M82.5894 136.682L80.3087 139.348L77.2054 141.105L73.6749 141.708L70.3312 142.948L66.7953 143.621L62.4102 144.443L65.0167 141.65L68.1146 139.353L71.5918 137.665L75.4962 137.526L79.1871 136.282L82.942 136.661L82.5894 136.682Z" stroke="#383839" stroke-width="1.62816" stroke-linecap="round" stroke-linejoin="round"/>
<path d="M76.1546 130.492L72.9446 132.249L70.0336 134.46L66.6365 135.881L63.0152 136.549L59.351 136.709L54.9766 137.911L57.6953 135.053L60.9801 133.034L64.3932 131.154L68.2763 130.759L72.0953 129.803L76.0104 130.161L76.1546 130.492Z" fill="#89CB9A"/>
<path d="M76.1546 130.492L72.9446 132.249L70.0336 134.46L66.6365 135.881L63.0152 136.549L59.351 136.709L54.9766 137.911L57.6953 135.053L60.9801 133.034L64.3932 131.154L68.2763 130.759L72.0953 129.803L76.0104 130.161L76.1546 130.492Z" stroke="#383839" stroke-width="1.62816" stroke-linecap="round" stroke-linejoin="round"/>
<path d="M71.2915 122.17L68.9254 125.204L65.2292 126.411L61.517 127.239L57.869 128.339L54.1087 129.055L50.0547 129.792L53.158 127.33L56.3414 125.022L60.0001 123.585L63.8725 123.003L67.6755 121.748L71.612 122.523L71.2915 122.17Z" fill="#89CB9A"/>
<path d="M71.2915 122.17L68.9254 125.204L65.2292 126.411L61.517 127.239L57.869 128.339L54.1087 129.055L50.0547 129.792L53.158 127.33L56.3414 125.022L60.0001 123.585L63.8725 123.003L67.6755 121.748L71.612 122.523L71.2915 122.17Z" stroke="#383839" stroke-width="1.62816" stroke-linecap="round" stroke-linejoin="round"/>
<path d="M67.9805 116.572L64.5621 117.918L61.2879 119.606L58.1045 119.884L54.7662 120.664L51.4279 120.712L48.2285 120.012L50.9312 118.105L54.4244 117.042L57.8054 116.006L61.2452 114.97L64.9146 115.029L67.9324 117.235L67.9805 116.572Z" fill="#89CB9A"/>
<path d="M67.9805 116.572L64.5621 117.918L61.2879 119.606L58.1045 119.884L54.7662 120.664L51.4279 120.712L48.2285 120.012L50.9312 118.105L54.4244 117.042L57.8054 116.006L61.2452 114.97L64.9146 115.029L67.9324 117.235L67.9805 116.572Z" stroke="#383839" stroke-width="1.62816" stroke-linecap="round" stroke-linejoin="round"/>
<path d="M68.4316 98.802L70.0607 102.343L70.7657 106.055L71.0648 109.901L70.6002 113.736L69.8097 117.165L67.4648 112.155L67.812 108.507L68.0684 103.636L68.4316 98.802Z" fill="#89CB9A"/>
<path d="M68.4316 98.802L70.0607 102.343L70.7657 106.055L71.0648 109.901L70.6002 113.736L69.8097 117.165L67.4648 112.155L67.812 108.507L68.0684 103.636L68.4316 98.802Z" stroke="#383839" stroke-width="1.62816" stroke-linecap="round" stroke-linejoin="round"/>
<path d="M80.826 105.965L80.9595 109.917L79.026 113.17L77.5838 116.594L74.8811 119.152L72.8942 121.844L72.6592 118.693L73.7488 115.59L74.9666 113.256L77.7013 109.725L80.4147 106.227L80.826 105.965Z" fill="#89CB9A"/>
<path d="M80.826 105.965L80.9595 109.917L79.026 113.17L77.5838 116.594L74.8811 119.152L72.8942 121.844L72.6592 118.693L73.7488 115.59L74.9666 113.256L77.7013 109.725L80.4147 106.227L80.826 105.965Z" stroke="#383839" stroke-width="1.62816" stroke-linecap="round" stroke-linejoin="round"/>
<path d="M87.1675 112.999L86.4037 116.717L84.6945 120.333L83.0173 124.103L79.8233 126.742L77.2915 129.909L76.8535 126.267L78.1728 122.8L80.8381 120.327L83.2577 118.063L85.0203 115.178L87.1675 112.999Z" fill="#89CB9A"/>
<path d="M87.1675 112.999L86.4037 116.717L84.6945 120.333L83.0173 124.103L79.8233 126.742L77.2915 129.909L76.8535 126.267L78.1728 122.8L80.8381 120.327L83.2577 118.063L85.0203 115.178L87.1675 112.999Z" stroke="#383839" stroke-width="1.62816" stroke-linecap="round" stroke-linejoin="round"/>
<path d="M97.5272 122.063L95.7272 125.994L93.5106 129.974L89.5153 132.163L86.8287 133.819L84.3076 135.849L84.8738 132.404L86.6097 129.488L89.3551 127.436L92.6987 126.528L95.2839 124.29L97.3563 122.052L97.5272 122.063Z" fill="#89CB9A"/>
<path d="M97.5272 122.063L95.7272 125.994L93.5106 129.974L89.5153 132.163L86.8287 133.819L84.3076 135.849L84.8738 132.404L86.6097 129.488L89.3551 127.436L92.6987 126.528L95.2839 124.29L97.3563 122.052L97.5272 122.063Z" stroke="#383839" stroke-width="1.62816" stroke-linecap="round" stroke-linejoin="round"/>
<path d="M100.426 131.512L99.0692 135.208L97.3813 138.701L94.5665 141.42L91.0306 143.108L87.2383 145.196L88.7125 141.634L91.3457 138.402L94.1072 135.796L97.6537 134.252L100.426 131.512Z" fill="#89CB9A"/>
<path d="M100.426 131.512L99.0692 135.208L97.3813 138.701L94.5665 141.42L91.0306 143.108L87.2383 145.196L88.7125 141.634L91.3457 138.402L94.1071 135.796L97.6537 134.252L100.426 131.512Z" stroke="#383839" stroke-width="1.62816" stroke-linecap="round" stroke-linejoin="round"/>
<path d="M94.1158 166.374L89.6398 166.577L88.7799 162.534L87.8986 158.736L86.9051 154.955L86.0184 151.13L84.4908 147.525L83.1235 143.85L81.5852 140.245L79.7104 136.8L77.8036 133.376L75.9502 129.915L73.6374 126.742L71.2071 123.666L69.0119 120.413L66.384 117.507L63.8629 114.505L61.1709 111.76L62.6825 110.376L65.8285 112.876L68.5472 115.6L70.9507 118.607L73.4184 121.534L75.8113 124.525L78.076 127.618L80.127 130.855L81.9965 134.204L84.1383 137.409L85.7087 140.918L87.2897 144.422L88.9668 147.888L89.9282 151.627L91.0392 155.302L92.2303 158.95L93.3093 162.635L94.1158 166.374Z" fill="#FFF6F0"/>
<path d="M94.1158 166.374L89.6398 166.577L88.7799 162.534L87.8986 158.736L86.9051 154.955L86.0184 151.13L84.4908 147.525L83.1235 143.85L81.5852 140.245L79.7104 136.8L77.8036 133.376L75.9502 129.915L73.6374 126.742L71.2071 123.666L69.0119 120.413L66.384 117.507L63.8629 114.505L61.1709 111.76L62.6825 110.376L65.8285 112.876L68.5472 115.6L70.9507 118.607L73.4184 121.534L75.8113 124.525L78.076 127.618L80.127 130.855L81.9965 134.204L84.1383 137.409L85.7087 140.918L87.2897 144.422L88.9668 147.888L89.9282 151.627L91.0392 155.302L92.2303 158.95L93.3093 162.635L94.1158 166.374Z" stroke="#383839" stroke-width="1.62816" stroke-linecap="round" stroke-linejoin="round"/>
<path d="M64.1234 114.126L63.6053 110.328L62.1418 107.086L59.5086 104.709L57.1691 101.948L53.7614 100.741L51.0801 99.021L53.4516 102.797L55.0807 107.166L58.7822 110.232L61.5062 111.963L64.1234 114.126Z" fill="#89CB9A"/>
<path d="M64.1234 114.126L63.6053 110.328L62.1418 107.086L59.5086 104.709L57.1691 101.948L53.7614 100.741L51.0801 99.021L53.4516 102.797L55.0807 107.166L58.7822 110.232L61.5062 111.963L64.1234 114.126Z" stroke="#383839" stroke-width="1.62816" stroke-linecap="round" stroke-linejoin="round"/>
<path d="M131.515 233.615L129.763 233.69L127.947 233.46L126.131 233.856L124.315 233.557L122.499 233.423L120.683 233.663L118.867 233.477L117.051 233.364L115.235 233.738L113.419 233.904L111.603 233.503L109.792 233.995L107.976 233.781L106.16 233.487L104.344 233.701L102.528 233.658L100.712 233.786L98.8962 233.957L97.0802 233.493L95.2641 233.567L93.4481 233.877L91.6321 233.658L89.816 233.77L88 233.781L86.184 233.834L84.368 233.626L82.5519 233.637L80.7359 233.872L78.9199 233.493L77.0985 233.776L75.2184 233.733L74.6736 231.896L74.7323 229.999L74.1662 228.221L73.7656 226.41L73.7923 224.519L73.1567 222.757L73.1246 220.876L72.3822 219.135L72.3074 217.266L72.1685 215.407L71.7465 213.602L71.3994 211.786L70.8439 210.007L70.5074 208.186L70.3098 206.338L69.8825 204.532L69.4819 202.722L69.2896 200.873L69.0118 199.041L68.7181 197.209L68.2213 195.415L68.0611 193.561L67.2492 191.825L66.8646 190.009L66.5175 188.188L66.2344 186.351L65.9727 184.454L67.8741 184.572L69.7276 184.353L71.581 184.679L73.4344 184.214L75.2878 184.583L77.1412 184.412L78.9946 184.609L80.8481 184.273L82.7015 184.241H84.5549L86.4083 184.257L88.2617 184.567L90.1152 184.444L91.9686 184.193L93.822 184.636L95.6754 184.166L97.5288 184.305L99.3822 184.588L101.236 184.198L103.089 184.497L104.942 184.508L106.796 184.476L108.649 184.214L110.503 184.3L112.356 184.657L114.21 184.289L116.063 184.209L117.916 184.7L119.77 184.177L121.623 184.161L123.477 184.727L125.33 184.625L127.183 184.641L129.037 184.412L130.89 184.551L132.744 184.273L134.597 184.486L136.456 184.7L138.347 184.465L138.32 186.345L137.706 188.113L137.786 189.977L137.375 191.772L136.91 193.561L136.878 195.409L136.584 197.225L136.087 199.009L135.943 200.841L135.906 202.689L135.302 204.457L135.153 206.289L135.324 208.17L135.003 209.98L134.613 211.786L134.389 213.607L134.33 215.455L134.122 217.282L133.721 219.082L133.267 220.876L133.369 222.746L132.744 224.514L132.674 226.362L132.183 228.151L132.295 230.026L131.606 231.789L131.505 233.578L131.515 233.615Z" fill="#363737"/>
<path d="M144.587 185.01L142.782 185.261L140.939 184.791L139.096 185.021L137.253 185.218L135.411 185.079H133.568L131.72 184.844L129.877 184.962L128.034 184.791L126.192 185.288L124.349 185.266L122.506 185.245L120.658 185.026L118.815 184.898L116.973 184.967L115.125 185.16L113.277 185.181H111.434L109.591 184.93L107.743 185.218L105.895 184.957L104.047 185.202L102.199 185.176L100.351 184.908L98.5026 185.373L96.6545 185.288L94.8065 185.127L92.9637 184.941L91.1157 185.101L89.2729 184.871L87.4302 185.005L85.5821 185.186L83.7394 184.973L81.8913 185.138L80.0432 185.352L78.1951 184.957L76.3471 185.197L74.499 185.181L72.6509 185.245L70.8028 185.09L68.9548 184.802L67.1067 184.844L65.2586 184.989L63.4105 185.282L61.5571 185.122L59.7731 184.973L59.5168 183.167L59.9494 181.292L59.8212 179.418L60.0188 177.538L59.8265 175.663L59.5274 173.783L59.7998 171.903L59.458 170.022L59.9654 168.142L59.8105 166.358L61.5571 166.551L63.3999 165.947L65.2426 166.059L67.0853 166.401L68.9281 166.241L70.7708 166.358L72.6189 166.326L74.4616 166.449L76.3043 166.15L78.1471 166.011L79.9898 166.321L81.8379 166.059L83.686 166.262L85.5287 166.129L87.3714 166.39L89.2142 166.198L91.0622 166.54L92.905 165.974H94.7477L96.5958 166.278L98.4439 166.043L100.287 166.07L102.135 165.99L103.983 166.214L105.831 166.348L107.679 166.193L109.522 166.369L111.37 166.273L113.212 165.979L115.055 166.449H116.898L118.746 166.433L120.594 166.353L122.442 166.503L124.29 166.113L126.138 166.043L127.986 166.139L129.834 166.155L131.683 166.134L133.531 166.065L135.379 166.342L137.227 166.081L139.075 166.225L140.923 166.081L142.776 166.422L144.774 166.118L144.32 168.137L144.496 170.012L144.384 171.892L144.662 173.772L144.902 175.647L144.934 177.522L144.357 179.402L144.331 181.282L144.966 183.167L144.598 185.005H144.587V185.01Z" fill="#363737"/>
<path d="M111.824 44.7753L113.784 41.3996L116.893 39.012L120.402 37.3403L124.205 36.6726L127.939 35.7485L131.763 36.2934L135.646 36.0156L139.684 37.4844L135.251 38.7503L131.48 41.0898L127.602 43.2049L122.347 44.583L118.816 44.2305L115.296 44.0756L111.84 45.2453L111.824 44.7753Z" fill="#41B879"/>
<path d="M111.824 44.7753L113.784 41.3996L116.893 39.012L120.402 37.3403L124.205 36.6726L127.939 35.7485L131.763 36.2934L135.646 36.0156L139.684 37.4844L135.251 38.7503L131.48 41.0898L127.602 43.2049L122.347 44.583L118.816 44.2305L115.296 44.0756L111.84 45.2453L111.824 44.7753Z" stroke="#383839" stroke-width="1.62816" stroke-linecap="round" stroke-linejoin="round"/>
<path d="M110.503 52.7122L114.22 50.7306L117.746 48.9573L121.479 47.4351L125.48 47.0024L129.496 46.9116L133.412 47.8356L137.225 48.9092L140.969 49.7264L137.471 50.4903L134.015 51.6333L130.415 52.2422L126.954 53.3906L121.746 54.2398L118.109 53.2357L114.349 53.1235L110.503 52.7122Z" fill="#41B879"/>
<path d="M110.503 52.7122L114.22 50.7306L117.746 48.9573L121.479 47.4351L125.48 47.0024L129.496 46.9116L133.412 47.8356L137.225 48.9092L140.969 49.7264L137.471 50.4903L134.015 51.6333L130.415 52.2422L126.954 53.3906L121.746 54.2398L118.109 53.2357L114.349 53.1235L110.503 52.7122Z" stroke="#383839" stroke-width="1.62816" stroke-linecap="round" stroke-linejoin="round"/>
<path d="M108.195 62.9514L111.672 60.6066L115.005 58.4861L118.963 58.1122L122.766 57.2256H126.681L130.618 57.3805L134.528 58.0054L137.941 59.0416L134.469 60.6119L130.639 61.4238L126.986 62.8927L123.247 64.0464L118.803 63.8861L115.278 63.8701L111.806 63.571L108.195 62.9514Z" fill="#41B879"/>
<path d="M108.195 62.9514L111.672 60.6066L115.005 58.4861L118.963 58.1122L122.766 57.2256H126.681L130.618 57.3805L134.528 58.0054L137.941 59.0416L134.469 60.6119L130.639 61.4238L126.986 62.8927L123.247 64.0464L118.803 63.8861L115.278 63.8701L111.806 63.571L108.195 62.9514Z" stroke="#383839" stroke-width="1.62816" stroke-linecap="round" stroke-linejoin="round"/>
<path d="M107.879 72.0102L110.683 69.2701L114.107 67.2298L117.931 66.06L121.905 65.7502L125.853 65.8624L129.73 66.5621L133.571 67.3633L137.459 68.7147L133.571 69.0351L130.248 71.0755L126.552 71.8393L122.931 72.8702L119.064 73.0144L115.336 72.3948L111.581 72.0156L107.762 72.4215L107.879 72.0102Z" fill="#41B879"/>
<path d="M107.879 72.0102L110.683 69.2701L114.107 67.2298L117.931 66.06L121.905 65.7502L125.853 65.8624L129.73 66.5621L133.571 67.3633L137.459 68.7147L133.571 69.0351L130.248 71.0755L126.552 71.8393L122.931 72.8702L119.064 73.0144L115.336 72.3948L111.581 72.0156L107.762 72.4215L107.879 72.0102Z" stroke="#383839" stroke-width="1.62816" stroke-linecap="round" stroke-linejoin="round"/>
<path d="M106.195 80.2839L109.464 78.4252L113.08 77.1165L116.723 75.7705L120.611 75.7812L124.457 75.3379L128.367 75.3913L132.026 76.8121L135.823 78.0459L132.047 79.3225L128.223 80.2839L124.521 81.6727L120.691 82.6287L117.797 82.7836L113.753 82.6875L109.769 81.9611L106.195 80.2839Z" fill="#41B879"/>
<path d="M106.195 80.2839L109.464 78.4252L113.08 77.1165L116.723 75.7705L120.611 75.7812L124.457 75.3379L128.367 75.3913L132.026 76.8121L135.823 78.0459L132.047 79.3225L128.223 80.2839L124.521 81.6727L120.691 82.6287L117.797 82.7836L113.753 82.6875L109.769 81.9611L106.195 80.2839Z" stroke="#383839" stroke-width="1.62816" stroke-linecap="round" stroke-linejoin="round"/>
<path d="M105.812 92.2162L109.268 90.1705L112.847 88.6482L116.538 87.2809L120.448 86.5544L124.411 86.8909L128.326 87.4037L132.284 87.6334L136.055 88.4559L132.684 89.7752L129.309 91.2174L125.709 91.9758L122.103 92.7183L118.503 93.9468L114.353 93.5248L110.192 93.2043L106.085 92.3283L105.812 92.2162Z" fill="#41B879"/>
<path d="M105.812 92.2162L109.268 90.1705L112.847 88.6482L116.538 87.2809L120.448 86.5544L124.411 86.8909L128.326 87.4037L132.284 87.6334L136.055 88.4559L132.684 89.7752L129.309 91.2174L125.709 91.9758L122.103 92.7183L118.503 93.9468L114.353 93.5248L110.192 93.2043L106.085 92.3283L105.812 92.2162Z" stroke="#383839" stroke-width="1.62816" stroke-linecap="round" stroke-linejoin="round"/>
<path d="M104.933 100.73L108.458 99.2185L112.165 98.2037L115.978 97.52L119.808 98.1449L123.584 98.6898L127.179 99.977L130.896 101.708L126.709 102.124L122.559 102.13L118.483 102.69L116.651 103.342L112.838 102.028L108.874 101.446L105.018 100.297L104.933 100.73Z" fill="#41B879"/>
<path d="M104.933 100.73L108.458 99.2185L112.165 98.2037L115.978 97.52L119.808 98.1449L123.584 98.6898L127.179 99.977L130.896 101.708L126.709 102.124L122.559 102.13L118.483 102.69L116.651 103.342L112.838 102.028L108.874 101.446L105.018 100.297L104.933 100.73Z" stroke="#383839" stroke-width="1.62816" stroke-linecap="round" stroke-linejoin="round"/>
<path d="M102.775 20.825L101.851 24.5532L102.454 28.3455L103.592 31.9615L105.055 35.4226L107.341 38.4084L109.211 41.6559L111.267 44.5455L112.063 41.971L112.683 39.1081L111.508 35.5882L109.35 32.7413L107.384 29.9104L105.744 26.8713L103.517 24.1739L103.132 20.9158L102.775 20.825Z" fill="#41B879"/>
<path d="M102.775 20.825L101.851 24.5532L102.454 28.3455L103.592 31.9615L105.055 35.4226L107.341 38.4084L109.211 41.6559L111.267 44.5455L112.063 41.971L112.683 39.1081L111.508 35.5882L109.35 32.7413L107.384 29.9104L105.744 26.8713L103.517 24.1739L103.132 20.9158L102.775 20.825Z" stroke="#383839" stroke-width="1.62816" stroke-linecap="round" stroke-linejoin="round"/>
<path d="M91.2314 35.5454L95.1145 37.9169L98.4101 40.8172L102.283 42.8736L105.706 44.3585L108.115 48.3217L110.081 52.5253L106.716 50.6238L103.212 49.0641L99.6546 47.606L97.5769 45.2505L94.8902 42.5104L92.5347 39.498L91.2314 35.5454Z" fill="#41B879"/>
<path d="M91.2314 35.5454L95.1145 37.9169L98.4101 40.8172L102.283 42.8736L105.706 44.3585L108.115 48.3217L110.081 52.5253L106.716 50.6238L103.212 49.0641L99.6546 47.606L97.5769 45.2505L94.8902 42.5104L92.5347 39.498L91.2314 35.5454Z" stroke="#383839" stroke-width="1.62816" stroke-linecap="round" stroke-linejoin="round"/>
<path d="M86.3221 45.9128L87.7483 49.0535L89.5376 52.098L92.2509 54.3467L95.2581 56.0879L98.0676 58.1336L101.256 59.7574L104.589 61.0713L107.794 62.5882L106.293 59.4476L103.777 56.9051L101.625 54.0903L98.4628 52.52L95.1245 51.2968L92.0533 49.4541L88.496 48.6209L85.6865 46.041L86.3221 45.9128Z" fill="#41B879"/>
<path d="M86.3221 45.9128L87.7483 49.0535L89.5376 52.098L92.2509 54.3467L95.2581 56.0879L98.0676 58.1336L101.256 59.7574L104.589 61.0713L107.794 62.5882L106.293 59.4476L103.777 56.9051L101.625 54.0903L98.4628 52.52L95.1245 51.2968L92.0533 49.4541L88.496 48.6209L85.6865 46.041L86.3221 45.9128Z" stroke="#383839" stroke-width="1.62816" stroke-linecap="round" stroke-linejoin="round"/>
<path d="M84.7031 56.0399L86.7969 58.8441L89.0456 61.4987L90.8456 64.5913L94.0717 66.0495L97.3512 67.2245L100.652 68.3622L103.547 70.4133L106.843 71.9836L105.048 68.5438L102.933 65.4406L100.326 62.6952L96.972 60.8524L92.6563 59.9123L88.8052 57.7278L84.9702 55.7622L84.7031 56.0399Z" fill="#41B879"/>
<path d="M84.7031 56.0399L86.7969 58.8441L89.0456 61.4987L90.8456 64.5913L94.0717 66.0495L97.3512 67.2245L100.652 68.3622L103.547 70.4133L106.843 71.9836L105.048 68.5438L102.933 65.4406L100.326 62.6952L96.972 60.8524L92.6563 59.9123L88.8052 57.7278L84.9702 55.7622L84.7031 56.0399Z" stroke="#383839" stroke-width="1.62816" stroke-linecap="round" stroke-linejoin="round"/>
<path d="M81.9478 70.0393L84.4582 72.8381L86.7763 75.9467L90.3176 77.485L93.9764 78.6067L97.7152 78.6174L101.353 79.2423L104.744 79.8085L102.565 76.529L98.8796 74.0559L94.6066 72.8274L90.2802 72.2826L85.9698 71.615L81.6113 70.3545L81.9478 70.0393Z" fill="#41B879"/>
<path d="M81.9478 70.0393L84.4582 72.8381L86.7763 75.9467L90.3176 77.485L93.9764 78.6067L97.7152 78.6174L101.353 79.2423L104.744 79.8085L102.565 76.529L98.8796 74.0559L94.6066 72.8274L90.2802 72.2826L85.9698 71.615L81.6113 70.3545L81.9478 70.0393Z" stroke="#383839" stroke-width="1.62816" stroke-linecap="round" stroke-linejoin="round"/>
<path d="M82.6553 82.383L85.2137 85.5397L88.2529 88.1249L91.8956 89.7326L95.7147 90.7955L100.068 91.0733L104.426 92.0507L102.546 88.643L99.5604 86.4851L96.0458 84.7706L91.5431 84.8721L87.3289 83.4192L83.1947 81.8542L82.6553 82.383Z" fill="#41B879"/>
<path d="M82.6553 82.383L85.2137 85.5397L88.2529 88.1249L91.8956 89.7326L95.7147 90.7955L100.068 91.0733L104.426 92.0507L102.546 88.643L99.5604 86.4851L96.0458 84.7706L91.5431 84.8721L87.3289 83.4192L83.1947 81.8542L82.6553 82.383Z" stroke="#383839" stroke-width="1.62816" stroke-linecap="round" stroke-linejoin="round"/>
<path d="M112.766 31.1388L115.48 31.8546L114.075 35.4279L112.921 39.1401L111.789 42.8683L111.393 46.7567L110.17 50.4795L109.615 54.3359L109.07 58.187L108.856 62.0807L108.162 65.9158L107.847 69.7882L107.574 73.6713L107.056 77.5277L106.939 81.4161L106.314 85.2725L105.988 89.1449L105.983 93.044L105.764 96.9218L105.294 100.794L105.427 104.688L105.23 108.571L105.005 112.454L105.123 116.348L104.84 120.231L104.434 124.114L104.754 128.008L104.621 131.891L104.754 135.785L104.391 139.673L104.551 143.562L104.311 147.45L104.354 151.339L104.546 155.232L104.46 159.126L104.487 163.015L104.738 167.143L101.971 166.876L101.731 162.94L102.11 159.131L101.822 155.339L101.603 151.542L101.87 147.744L101.715 143.946L101.817 140.149L101.496 136.351L101.517 132.553L101.683 128.756L101.785 124.958L101.801 121.16L102.174 117.368L101.95 113.565L102.527 109.784L102.372 105.975L102.719 102.188L103.029 98.4013L102.97 94.593L103.243 90.8007L103.617 87.0191L104.033 83.2375L103.948 79.4185L104.386 75.6369L104.984 71.8766L105.342 68.0897L105.748 64.3081L106.357 60.5532L107.11 56.825L107.313 53.006L108.312 49.3258L109.134 45.619L109.764 41.8748L110.736 38.2L111.538 34.4771L112.969 30.9519L112.766 31.1388Z" fill="#FFF6F0"/>
<path d="M112.766 31.1388L115.48 31.8546L114.075 35.4279L112.921 39.1401L111.789 42.8683L111.393 46.7567L110.17 50.4795L109.615 54.3359L109.07 58.187L108.856 62.0807L108.162 65.9158L107.847 69.7882L107.574 73.6713L107.056 77.5277L106.939 81.4161L106.314 85.2725L105.988 89.1449L105.983 93.044L105.764 96.9218L105.294 100.794L105.427 104.688L105.23 108.571L105.005 112.454L105.123 116.348L104.84 120.231L104.434 124.114L104.754 128.008L104.621 131.891L104.754 135.785L104.391 139.673L104.551 143.562L104.311 147.45L104.354 151.339L104.546 155.232L104.46 159.126L104.487 163.015L104.738 167.143L101.971 166.876L101.731 162.94L102.11 159.131L101.822 155.339L101.603 151.542L101.87 147.744L101.715 143.946L101.817 140.149L101.496 136.351L101.517 132.553L101.683 128.756L101.785 124.958L101.801 121.16L102.174 117.368L101.95 113.565L102.527 109.784L102.372 105.975L102.719 102.188L103.029 98.4013L102.97 94.593L103.243 90.8007L103.617 87.0191L104.033 83.2375L103.948 79.4185L104.386 75.6369L104.984 71.8766L105.342 68.0897L105.748 64.3081L106.357 60.5532L107.11 56.825L107.313 53.006L108.312 49.3258L109.134 45.619L109.764 41.8748L110.736 38.2L111.538 34.4771L112.969 30.9519L112.766 31.1388Z" stroke="#383839" stroke-width="1.62816" stroke-linecap="round" stroke-linejoin="round"/>
<path d="M112.078 35.9353L112.388 31.9934L112.148 28.0088L113.114 24.1471L114.573 20.4456L117.104 17.3584L119.524 14.3192L122.098 11.3655L125.314 9.13281L124.854 12.5085L123.904 15.7506L122.456 18.8646L122.189 22.299L120.256 25.5358L119.107 29.0931L116.762 31.4166L115.192 34.3009L112.383 35.9459L112.078 35.9353Z" fill="#41B879"/>
<path d="M112.078 35.9353L112.388 31.9934L112.148 28.0088L113.114 24.1471L114.573 20.4456L117.104 17.3584L119.524 14.3192L122.098 11.3655L125.314 9.13281L124.854 12.5085L123.904 15.7506L122.456 18.8646L122.189 22.299L120.256 25.5358L119.107 29.0931L116.762 31.4166L115.192 34.3009L112.383 35.9459L112.078 35.9353Z" stroke="#383839" stroke-width="1.62816" stroke-linecap="round" stroke-linejoin="round"/>
<path d="M106.931 166.593L111.321 166.15L112.085 162.422L112.731 158.565L113.783 154.795L114.339 150.885L115.813 147.237L116.785 143.423L118.527 139.892L119.921 136.228L121.4 132.586L123.318 129.156L125.224 125.727L127.185 122.33L129.369 119.067L131.751 115.948L134.241 112.919L136.692 109.869L138.994 106.675L141.756 103.882L144.603 101.179L147.353 98.3694L150.515 95.9819L148.144 93.573L145.089 96.014L142.21 98.6258L139.582 101.494L136.868 104.282L134.134 107.06L131.832 110.206L129.727 113.485L127.265 116.514L125.246 119.847L123.093 123.094L121.181 126.486L119.755 130.129L117.704 133.462L116.214 137.062L114.894 140.726L113.207 144.246L112.267 148.043L110.728 151.633L109.943 155.457L108.49 159.1L107.684 162.919L107.037 166.764L106.931 166.593Z" fill="#FFF6F0"/>
<path d="M106.931 166.593L111.321 166.15L112.085 162.422L112.731 158.565L113.783 154.795L114.339 150.885L115.813 147.237L116.785 143.423L118.527 139.892L119.921 136.228L121.4 132.586L123.318 129.156L125.224 125.727L127.185 122.33L129.369 119.067L131.751 115.948L134.241 112.919L136.692 109.869L138.994 106.675L141.756 103.882L144.603 101.179L147.353 98.3694L150.515 95.9819L148.144 93.573L145.089 96.014L142.21 98.6258L139.582 101.494L136.868 104.282L134.134 107.06L131.832 110.206L129.727 113.485L127.265 116.514L125.246 119.847L123.093 123.094L121.181 126.486L119.755 130.129L117.704 133.462L116.214 137.062L114.894 140.726L113.207 144.246L112.267 148.043L110.728 151.633L109.943 155.457L108.49 159.1L107.684 162.919L107.037 166.764L106.931 166.593Z" stroke="#383839" stroke-width="1.62816" stroke-linecap="round" stroke-linejoin="round"/>
<path d="M145.097 97.8459L146.256 94.9456L147.607 91.618L149.583 88.5468L152.179 85.9349L155.186 83.8091L158.428 82.0625L162.125 81.5017L165.447 79.9688L162.824 83.2483L160.682 86.891L158.087 90.1866L155.939 92.7343L153.21 94.6786L149.236 96.6388L145.097 97.8459Z" fill="#41B879"/>
<path d="M145.097 97.8459L146.256 94.9456L147.607 91.618L149.583 88.5468L152.179 85.9349L155.186 83.8091L158.428 82.0625L162.125 81.5017L165.447 79.9688L162.824 83.2483L160.682 86.891L158.087 90.1866L155.939 92.7343L153.21 94.6786L149.236 96.6388L145.097 97.8459Z" stroke="#383839" stroke-width="1.62816" stroke-linecap="round" stroke-linejoin="round"/>
<path d="M68.9022 47.0879L67.3266 50.9229L66.536 54.8648L66.755 58.9829L65.8203 63.0529L66.6536 66.2843L66.7444 69.6921L68.1384 70.2048L69.3509 66.6956L71.247 62.9301L72.0643 58.8173L72.1604 54.6191L70.7236 50.7359L68.9022 47.0879Z" fill="#89CB9A"/>
<path d="M68.9022 47.0879L67.3266 50.9229L66.536 54.8648L66.755 58.9829L65.8203 63.0529L66.6536 66.2843L66.7444 69.6921L68.1384 70.2048L69.3509 66.6956L71.247 62.9301L72.0643 58.8173L72.1604 54.6191L70.7236 50.7359L68.9022 47.0879Z" stroke="#383839" stroke-width="1.62816" stroke-linecap="round" stroke-linejoin="round"/>
<path d="M72.0409 74.152L73.2534 70.7497L74.0439 67.2297L75.5822 64.5591L78.7762 61.5573L81.4949 58.0695L84.6356 55.5645L83.6101 59.7306L81.4469 63.8808L78.5092 68.4689L75.5768 71.7912L72.7193 75.2683L71.8486 74.2268L72.0409 74.152Z" fill="#89CB9A"/>
<path d="M72.0409 74.152L73.2534 70.7497L74.0439 67.2297L75.5822 64.5591L78.7762 61.5573L81.4949 58.0695L84.6356 55.5645L83.6101 59.7306L81.4469 63.8808L78.5092 68.4689L75.5768 71.7912L72.7193 75.2683L71.8486 74.2268L72.0409 74.152Z" stroke="#383839" stroke-width="1.62816" stroke-linecap="round" stroke-linejoin="round"/>
<path d="M65.6866 67.529L61.8141 66.9895L58.2034 66.1616L54.4859 66.2631L50.966 67.4595L47.4889 68.5972L44.2467 70.2797L40.9512 72.021L45.3898 71.8127L49.7215 72.71L54.08 73.2655L58.5346 72.7741L62.7222 70.9794L67.0379 69.9379L65.6866 67.529Z" fill="#89CB9A"/>
<path d="M65.6866 67.529L61.8141 66.9895L58.2034 66.1616L54.4859 66.2631L50.966 67.4595L47.4889 68.5972L44.2467 70.2797L40.9512 72.021L45.3898 71.8127L49.7215 72.71L54.08 73.2655L58.5346 72.7741L62.7222 70.9794L67.0379 69.9379L65.6866 67.529Z" stroke="#383839" stroke-width="1.62816" stroke-linecap="round" stroke-linejoin="round"/>
<path d="M42.3057 83.6755L45.5318 81.0476L49.1425 79.4452L52.3633 77.0897L56.2891 76.358L60.0013 75.1616L63.8737 74.7556L67.7621 74.7877L71.4743 75.2363L68.4672 76.8173L65.3051 78.2755L62.4476 80.3159L59.6167 81.6405L56.5401 82.2814L53.0095 82.6446L49.4256 82.4524L45.9537 83.3497L42.3057 83.6755Z" fill="#89CB9A"/>
<path d="M42.3057 83.6755L45.5318 81.0476L49.1425 79.4452L52.3633 77.0897L56.2891 76.358L60.0013 75.1616L63.8737 74.7556L67.7621 74.7877L71.4743 75.2363L68.4672 76.8173L65.3051 78.2755L62.4476 80.3159L59.6167 81.6405L56.5401 82.2814L53.0095 82.6446L49.4256 82.4524L45.9537 83.3497L42.3057 83.6755Z" stroke="#383839" stroke-width="1.62816" stroke-linecap="round" stroke-linejoin="round"/>
<path d="M48.0879 90.4163L51.298 88.2424L54.4333 86.0364L57.9158 84.4661L61.4838 83.056L65.2814 82.4845L69.0417 81.7634L72.8607 82.0251L76.9681 83.0293L73.4696 84.1136L70.4785 85.7694L67.8666 88.0608L62.8084 89.1504L59.1336 89.3373L55.4535 89.5777L51.7734 89.7807L48.0879 90.4163Z" fill="#89CB9A"/>
<path d="M48.0879 90.4163L51.298 88.2424L54.4333 86.0364L57.9158 84.4661L61.4838 83.056L65.2814 82.4845L69.0417 81.7634L72.8607 82.0251L76.9681 83.0293L73.4696 84.1136L70.4785 85.7694L67.8666 88.0608L62.8084 89.1504L59.1336 89.3373L55.4535 89.5777L51.7734 89.7807L48.0879 90.4163Z" stroke="#383839" stroke-width="1.62816" stroke-linecap="round" stroke-linejoin="round"/>
<path d="M52.9688 98.3908L56.2429 96.4465L59.6453 94.8121L63.0584 93.2257L66.5996 91.9332L70.2477 90.897L74.024 90.5178L77.843 90.3735L81.8596 91.7089L78.2222 93.3807L74.8786 95.3249L71.2092 96.6442L66.2631 98.0596L61.8993 98.1825L57.5516 98.8127L53.1771 98.4121L52.9688 98.3908Z" fill="#89CB9A"/>
<path d="M52.9688 98.3908L56.2429 96.4465L59.6453 94.8121L63.0584 93.2257L66.5996 91.9332L70.2477 90.897L74.024 90.5178L77.843 90.3735L81.8596 91.7089L78.2222 93.3807L74.8786 95.3249L71.2092 96.6442L66.2631 98.0596L61.8993 98.1825L57.5516 98.8127L53.1771 98.4121L52.9688 98.3908Z" stroke="#383839" stroke-width="1.62816" stroke-linecap="round" stroke-linejoin="round"/>
<path d="M56.3652 106.825L59.6715 104.923L62.9777 103.166L66.4121 101.697L69.8573 100.148L73.5481 99.3789L77.2923 98.9623L81.0525 98.5403L85.1172 98.5563L82.3612 100.965L79.541 102.845L76.4591 104.255L73.1208 104.784L68.9332 105.11L64.7777 105.73L60.5528 105.869L56.4347 106.659L56.3652 106.825Z" fill="#89CB9A"/>
<path d="M56.3652 106.825L59.6715 104.923L62.9777 103.166L66.4121 101.697L69.8573 100.148L73.5481 99.3789L77.2923 98.9623L81.0525 98.5403L85.1172 98.5563L82.3612 100.965L79.541 102.845L76.4591 104.255L73.1208 104.784L68.9332 105.11L64.7777 105.73L60.5528 105.869L56.4347 106.659L56.3652 106.825Z" stroke="#383839" stroke-width="1.62816" stroke-linecap="round" stroke-linejoin="round"/>
<path d="M60.5205 115.269L63.9389 113.656L67.3466 112.16L70.7383 110.702L74.2582 109.623L77.7194 107.941L81.5063 108.464L85.2452 108.235L88.4232 109.169L85.3574 111.861L81.0523 112.833L76.9716 114.014L72.7734 114.607L68.7674 115.055L64.7454 115.2L60.7395 115.301L60.5205 115.269Z" fill="#89CB9A"/>
<path d="M60.5205 115.269L63.9389 113.656L67.3466 112.16L70.7383 110.702L74.2582 109.623L77.7194 107.941L81.5063 108.464L85.2452 108.235L88.4232 109.169L85.3574 111.861L81.0523 112.833L76.9716 114.014L72.7734 114.607L68.7674 115.055L64.7454 115.2L60.7395 115.301L60.5205 115.269Z" stroke="#383839" stroke-width="1.62816" stroke-linecap="round" stroke-linejoin="round"/>
<path d="M67.6885 124.456L70.733 122.325L73.7829 120.279L76.9182 118.367L80.2191 116.685L83.8084 115.707L87.5206 115.403L91.6333 116.156L87.7449 118.335L84.5028 120.861L80.7318 122.549L76.6725 123.228L72.3193 123.975L67.9021 124.381L67.6885 124.456Z" fill="#89CB9A"/>
<path d="M67.6885 124.456L70.733 122.325L73.7829 120.279L76.9182 118.367L80.2191 116.685L83.8084 115.707L87.5206 115.403L91.6333 116.156L87.7449 118.335L84.5028 120.861L80.7318 122.549L76.6725 123.228L72.3193 123.975L67.9021 124.381L67.6885 124.456Z" stroke="#383839" stroke-width="1.62816" stroke-linecap="round" stroke-linejoin="round"/>
<path d="M92.0007 115.312L94.3455 112.091L97.9188 110.393L101.679 109.105L105.183 108.977L108.34 107.375L112.004 106.712L108.42 108.929L105.957 112.294L102.998 113.555L100.077 114.853L95.9265 114.885L91.8672 115.723L92.0007 115.312Z" fill="#89CB9A"/>
<path d="M92.0007 115.312L94.3455 112.091L97.9188 110.393L101.679 109.105L105.183 108.977L108.34 107.375L112.004 106.712L108.42 108.929L105.957 112.294L102.998 113.555L100.077 114.853L95.9265 114.885L91.8672 115.723L92.0007 115.312Z" stroke="#383839" stroke-width="1.62816" stroke-linecap="round" stroke-linejoin="round"/>
<path d="M87.5039 104.918L91.2107 102.536L94.1164 99.0958L97.225 97.5575L101.145 95.8697L104.906 93.8881L108.431 91.8584L107.389 95.3623L105.504 99.0371L102.369 101.745L99.2333 104.25L95.3823 105.26L91.4511 105.334L87.5039 104.918Z" fill="#89CB9A"/>
<path d="M87.5039 104.918L91.2107 102.536L94.1164 99.0958L97.225 97.5575L101.145 95.8697L104.906 93.8881L108.431 91.8584L107.389 95.3623L105.504 99.0371L102.369 101.745L99.2333 104.25L95.3823 105.26L91.4511 105.334L87.5039 104.918Z" stroke="#383839" stroke-width="1.62816" stroke-linecap="round" stroke-linejoin="round"/>
<path d="M84.6934 98.5509L87.396 95.4903L88.9824 91.682L91.7225 89.7698L93.907 87.3182L97.5444 85.2565L101.342 83.4778L105.177 80.866L103.457 84.6369L101.588 87.7615L99.8625 90.5817L97.3201 92.8411L94.1421 94.171L90.9533 95.485L88.053 97.3704L84.8856 98.7378L84.6934 98.5509Z" fill="#89CB9A"/>
<path d="M84.6934 98.5509L87.396 95.4903L88.9824 91.682L91.7225 89.7698L93.907 87.3182L97.5444 85.2565L101.342 83.4778L105.177 80.866L103.457 84.6369L101.588 87.7615L99.8625 90.5817L97.3201 92.8411L94.1421 94.171L90.9533 95.485L88.053 97.3704L84.8856 98.7378L84.6934 98.5509Z" stroke="#383839" stroke-width="1.62816" stroke-linecap="round" stroke-linejoin="round"/>
<path d="M82.1659 90.0531L83.8858 86.5546L84.7404 82.7035L88.2069 78.2917L91.6573 75.7866L95.3641 73.5219L97.7624 70.3225L97.4579 74.0347L96.3576 77.9659L94.0929 81.3735L91.1819 84.1884L88.068 86.6935L85.3066 89.7967L81.6211 91.5593" fill="#89CB9A"/>
<path d="M81.9716 89.9728C82.3295 89.1022 83.8144 85.4007 84.8719 82.7568C85.5663 81.0209 86.8001 79.5574 88.3811 78.5639C91.1266 76.8333 95.5545 73.6713 97.91 70.0232C97.91 70.0232 98.8714 82.6873 81.5283 91.3722" stroke="#383839" stroke-width="1.62816" stroke-linecap="round" stroke-linejoin="round"/>
<path d="M77.6719 82.2067L78.863 77.8642L80.9461 74.0078L83.0986 70.5093L86.1591 67.8547L89.4013 65.4458L92.9586 63.1223L91.6179 66.5674L90.7686 69.9004L88.2956 74.1948L84.6476 76.7105L81.165 79.4559L77.6719 82.2067Z" fill="#89CB9A"/>
<path d="M77.6719 82.2067L78.863 77.8642L80.9461 74.0078L83.0986 70.5093L86.1591 67.8547L89.4013 65.4458L92.9586 63.1223L91.6179 66.5674L90.7686 69.9004L88.2956 74.1948L84.6476 76.7105L81.165 79.4559L77.6719 82.2067Z" stroke="#383839" stroke-width="1.62816" stroke-linecap="round" stroke-linejoin="round"/>
<path d="M58.057 60.5586L56.5508 62.6524L59.3656 65.4565L62.2232 68.031L64.6107 71.0435L67.2173 73.869L69.8131 76.7266L71.9656 79.926L74.1983 83.0613L76.2654 86.3141L78.0921 89.7112L79.7639 93.1777L81.6227 96.5427L83.4761 99.913L85.1158 103.39L86.793 106.862L87.8452 110.58L89.4049 114.099L90.4144 117.817L91.6375 121.465L92.7378 125.145L93.6565 128.879L94.7835 132.564L95.2429 136.399L96.4179 140.095L96.8079 143.93L97.2832 147.749L98.0737 151.526L98.4209 155.366L98.3782 159.228L98.9818 163.052L98.9177 166.855L101.968 166.684L101.823 162.929L101.759 159.121L101.935 155.286L101.503 151.494L101.14 147.691L100.328 143.952L99.9485 140.149L98.9177 136.458L98.2981 132.692L97.6945 128.911L96.4073 125.305L95.2001 121.684L94.0518 118.047L92.9194 114.409L91.6535 110.809L90.4998 107.156L88.6891 103.78L87.1776 100.271L85.2601 96.97L83.4707 93.605L81.9592 90.0691L79.9081 86.8429L77.5686 83.8091L75.3627 80.7005L73.3223 77.4637L70.8066 74.5901L68.7235 71.3533L65.9995 68.6559L63.2914 65.9693L60.733 63.1277L58.057 60.5586Z" fill="#FFF6F0"/>
<path d="M58.057 60.5586L56.5508 62.6524L59.3656 65.4565L62.2232 68.031L64.6107 71.0435L67.2173 73.869L69.8131 76.7266L71.9656 79.926L74.1983 83.0613L76.2654 86.3141L78.0921 89.7112L79.7639 93.1777L81.6227 96.5427L83.4761 99.913L85.1158 103.39L86.793 106.862L87.8452 110.58L89.4049 114.099L90.4144 117.817L91.6375 121.465L92.7378 125.145L93.6565 128.879L94.7835 132.564L95.2429 136.399L96.4179 140.095L96.8079 143.93L97.2832 147.749L98.0737 151.526L98.4209 155.366L98.3782 159.228L98.9818 163.052L98.9177 166.855L101.968 166.684L101.823 162.929L101.759 159.121L101.935 155.286L101.503 151.494L101.14 147.691L100.328 143.952L99.9485 140.149L98.9177 136.458L98.2981 132.692L97.6945 128.911L96.4073 125.305L95.2001 121.684L94.0518 118.047L92.9194 114.409L91.6535 110.809L90.4998 107.156L88.6891 103.78L87.1776 100.271L85.2601 96.97L83.4707 93.605L81.9592 90.0691L79.9081 86.8429L77.5686 83.8091L75.3627 80.7005L73.3223 77.4637L70.8066 74.5901L68.7235 71.3533L65.9995 68.6559L63.2914 65.9693L60.733 63.1277L58.057 60.5586Z" stroke="#383839" stroke-width="1.62816" stroke-linecap="round" stroke-linejoin="round"/>
<path d="M39.9098 49.4648L42.8688 52.6109L45.8172 55.7729L49.0967 58.6038L51.3401 60.9646L55.2339 62.2358L58.476 64.7783L62.2042 66.7919L60.7033 62.8607L58.9567 59.6026L56.4997 56.8465L53.8611 54.2453L50.8487 51.9325L47.0884 51.2755L43.4777 50.4797L39.7549 49.9723L39.9098 49.4648Z" fill="#89CB9A"/>
<path d="M39.9098 49.4648L42.8688 52.6109L45.8172 55.7729L49.0967 58.6038L51.3401 60.9646L55.2339 62.2358L58.476 64.7783L62.2042 66.7919L60.7033 62.8607L58.9567 59.6026L56.4997 56.8465L53.8611 54.2453L50.8487 51.9325L47.0884 51.2755L43.4777 50.4797L39.7549 49.9723L39.9098 49.4648Z" stroke="#383839" stroke-width="1.62816" stroke-linecap="round" stroke-linejoin="round"/>
<path d="M119.565 139.15L123.005 141.863L126.189 144.16L130.061 144.983L133.629 146.569L137.427 147.429L141.251 148.219L144.717 149.021L147.965 149.832L145.15 147.279L142.463 144.395L138.709 143.156L135.45 140.923L131.594 140.245L127.743 139.962L123.929 139.39L119.565 139.15Z" fill="#41B879"/>
<path d="M119.565 139.15L123.005 141.863L126.189 144.16L130.061 144.983L133.629 146.569L137.427 147.429L141.251 148.219L144.717 149.021L147.965 149.832L145.15 147.279L142.463 144.395L138.709 143.156L135.45 140.923L131.594 140.245L127.743 139.962L123.929 139.39L119.565 139.15Z" stroke="#383839" stroke-width="1.62816" stroke-linecap="round" stroke-linejoin="round"/>
<path d="M123.906 130.342L126.593 132.57L129.835 134.658L133.328 136.373L137.062 137.478L140.891 138.151L144.775 138.354L147.734 138.92L150.548 139.973L147.632 137.622L144.625 135.47L141.452 133.6L138.248 131.699L134.802 130.091L131.005 129.974L127.255 129.632L123.906 130.342Z" fill="#41B879"/>
<path d="M123.906 130.342L126.593 132.57L129.835 134.658L133.328 136.373L137.062 137.478L140.891 138.151L144.775 138.354L147.734 138.92L150.548 139.973L147.632 137.622L144.625 135.47L141.452 133.6L138.248 131.699L134.802 130.091L131.005 129.974L127.255 129.632L123.906 130.342Z" stroke="#383839" stroke-width="1.62816" stroke-linecap="round" stroke-linejoin="round"/>
<path d="M128.088 123.03L130.871 125.06L133.99 127.137L137.494 128.462L140.971 129.888L144.742 130.022L148.417 129.963L152.049 130.588L154.8 132.308L152.668 129.429L149.191 127.762L146.104 125.588L142.605 124.178L139.128 122.533L135.272 122.747L131.522 122.501L128.088 123.03Z" fill="#41B879"/>
<path d="M128.088 123.03L130.871 125.06L133.99 127.137L137.494 128.462L140.971 129.888L144.742 130.022L148.417 129.963L152.049 130.588L154.8 132.308L152.668 129.429L149.191 127.762L146.104 125.588L142.605 124.178L139.128 122.533L135.272 122.747L131.522 122.501L128.088 123.03Z" stroke="#383839" stroke-width="1.62816" stroke-linecap="round" stroke-linejoin="round"/>
<path d="M133.874 115.141L136.117 117.966L140.027 119.083L143.435 121.23L147.435 121.572L151.238 122.891L155.228 122.864L158.198 123.537L160.949 124.734L158.134 122.202L155.116 119.969L151.901 118.025L148.477 116.407L144.893 114.991L141.079 114.388L137.218 114.324L133.874 115.141Z" fill="#41B879"/>
<path d="M133.874 115.141L136.117 117.966L140.027 119.083L143.435 121.23L147.435 121.572L151.238 122.891L155.228 122.864L158.198 123.537L160.949 124.734L158.134 122.202L155.116 119.969L151.901 118.025L148.477 116.407L144.893 114.991L141.079 114.388L137.218 114.324L133.874 115.141Z" stroke="#383839" stroke-width="1.62816" stroke-linecap="round" stroke-linejoin="round"/>
<path d="M138.909 107.685L141.564 110.232L144.806 111.845L148.016 113.496L151.456 114.575L154.944 115.488L158.506 116.012L162.08 116.337L166.935 117.171L164.729 114.313L161.337 112.406L157.785 110.905L154.426 108.934L150.676 107.973L146.889 107.065L142.995 107.348L139.203 107.775L138.909 107.685Z" fill="#41B879"/>
<path d="M138.909 107.685L141.564 110.232L144.806 111.845L148.016 113.496L151.456 114.575L154.944 115.488L158.506 116.012L162.08 116.337L166.935 117.171L164.729 114.313L161.337 112.406L157.785 110.905L154.426 108.934L150.676 107.973L146.889 107.065L142.995 107.348L139.203 107.775L138.909 107.685Z" stroke="#383839" stroke-width="1.62816" stroke-linecap="round" stroke-linejoin="round"/>
<path d="M144.429 101.425L147.19 103.128L150.363 103.882L152.959 105.991L157.381 106.531L161.761 106.659L166.141 106.242L170.403 106.013L167.386 103.753L163.46 102.493L159.87 100.634L156.035 99.1172L151.917 99.3896L147.986 100.223L144.359 101.985L144.429 101.425Z" fill="#41B879"/>
<path d="M144.429 101.425L147.19 103.128L150.363 103.882L152.959 105.991L157.381 106.531L161.761 106.659L166.141 106.242L170.403 106.013L167.386 103.753L163.46 102.493L159.87 100.634L156.035 99.1172L151.917 99.3896L147.986 100.223L144.359 101.985L144.429 101.425Z" stroke="#383839" stroke-width="1.62816" stroke-linecap="round" stroke-linejoin="round"/>
<path d="M139.784 78.6549L137.198 81.1493L136.461 84.7333L135.831 88.3226L135.959 91.9546L137.076 95.4532L137.054 99.1119L138.315 102.552L139.618 99.1012L141.268 95.8003V90.4377L139.661 86.6027L139.34 82.4258L139.276 78.1956L139.784 78.6549Z" fill="#41B879"/>
<path d="M139.784 78.6549L137.198 81.1493L136.461 84.7333L135.831 88.3226L135.959 91.9546L137.076 95.4532L137.054 99.1119L138.315 102.552L139.618 99.1012L141.268 95.8003V90.4377L139.661 86.6027L139.34 82.4258L139.276 78.1956L139.784 78.6549Z" stroke="#383839" stroke-width="1.62816" stroke-linecap="round" stroke-linejoin="round"/>
<path d="M123.519 86.0205L123.583 90.2668L124.897 94.0591L126.392 97.8087L128.673 101.142L131.397 104.122L133.945 106.905L133.8 102.733L132.604 98.6259L131.247 95.341L129.148 91.992L125.943 89.6312L123.519 86.0205Z" fill="#41B879"/>
<path d="M123.519 86.0205L123.583 90.2668L124.897 94.0591L126.392 97.8087L128.673 101.142L131.397 104.122L133.945 106.905L133.8 102.733L132.604 98.6259L131.247 95.341L129.148 91.992L125.943 89.6312L123.519 86.0205Z" stroke="#383839" stroke-width="1.62816" stroke-linecap="round" stroke-linejoin="round"/>
<path d="M114.819 92.0986L114.83 95.8642L116.678 99.2452L118.003 102.867L120.353 105.89L122.692 108.902L125.294 111.685L127.761 113.912L127.644 110.921L127.062 107.53L125.945 104.181L123.616 101.489L120.342 98.647L117.282 95.5598L114.819 92.0986Z" fill="#41B879"/>
<path d="M114.819 92.0986L114.83 95.8642L116.678 99.2452L118.003 102.867L120.353 105.89L122.692 108.902L125.294 111.685L127.761 113.912L127.644 110.921L127.062 107.53L125.945 104.181L123.616 101.489L120.342 98.647L117.282 95.5598L114.819 92.0986Z" stroke="#383839" stroke-width="1.62816" stroke-linecap="round" stroke-linejoin="round"/>
<path d="M109.923 100.1L110.318 103.828L111.05 107.615L112.882 111.05L115.654 113.774L118.458 116.46L120.878 119.489L123.18 122.827L123.463 118.826L121.887 115.574L120.029 112.513L117.758 109.682L114.757 106.718L111.659 103.796L110.003 100.041L109.923 100.1Z" fill="#41B879"/>
<path d="M109.923 100.1L110.318 103.828L111.05 107.615L112.882 111.05L115.654 113.774L118.458 116.46L120.878 119.489L123.18 122.827L123.463 118.826L121.887 115.574L120.029 112.513L117.758 109.682L114.757 106.718L111.659 103.796L110.003 100.041L109.923 100.1Z" stroke="#383839" stroke-width="1.62816" stroke-linecap="round" stroke-linejoin="round"/>
<path d="M100.872 110.985L102.549 114.078L103.66 117.512L106.053 120.172L108.82 122.405L111.725 124.408L115.379 126.379L118.765 128.804L117.644 124.451L115.085 120.872L111.998 117.715L108.211 115.627L104.435 113.522L101.321 110.638L100.872 110.985Z" fill="#41B879"/>
<path d="M100.872 110.985L102.549 114.078L103.66 117.512L106.053 120.172L108.82 122.405L111.725 124.408L115.379 126.379L118.765 128.804L117.644 124.451L115.085 120.872L111.998 117.715L108.211 115.627L104.435 113.522L101.321 110.638L100.872 110.985Z" stroke="#383839" stroke-width="1.62816" stroke-linecap="round" stroke-linejoin="round"/>
<path d="M97.7705 120.723L99.0845 124.349L100.746 127.437L102.343 130.818L105.366 132.922L108.314 135.043L111.594 136.597L115.13 138.584L113.276 134.006L111.476 130.219L108.704 127.079L105.51 124.381L101.862 122.352L97.7705 120.723Z" fill="#41B879"/>
<path d="M97.7705 120.723L99.0845 124.349L100.746 127.437L102.343 130.818L105.366 132.922L108.314 135.043L111.594 136.597L115.13 138.584L113.276 134.006L111.476 130.219L108.704 127.079L105.51 124.381L101.862 122.352L97.7705 120.723Z" stroke="#383839" stroke-width="1.62816" stroke-linecap="round" stroke-linejoin="round"/>
<path d="M91.5605 135.86L94.2098 138.723L97.3558 141.126L99.4015 143.402L102.467 143.583L107.178 144.475L112.071 145.72L110.228 142.98L108.396 140.71L103.872 137.954L99.6793 137.948L95.7748 136.645L91.8169 135.577L91.5605 135.86Z" fill="#41B879"/>
<path d="M91.5605 135.86L94.2098 138.723L97.3558 141.126L99.4015 143.402L102.467 143.583L107.178 144.475L112.071 145.72L110.228 142.98L108.396 140.71L103.872 137.954L99.6793 137.948L95.7748 136.645L91.8169 135.577L91.5605 135.86Z" stroke="#383839" stroke-width="1.62816" stroke-linecap="round" stroke-linejoin="round"/>
<path d="M97.9121 201.792L97.41 203.923L95.2842 204.805L93.5002 203.582L92.7578 201.792L93.1851 199.693L95.2842 199.25L97.2658 199.816L97.9121 201.792Z" fill="#F3F2F2"/>
<path d="M113.509 201.792L112.398 203.64L110.55 204.399L108.579 203.768L107.799 201.792L108.541 199.784L110.55 199.186L112.595 199.752L113.509 201.792Z" fill="#F3F2F2"/>
<path d="M108.66 207.999L108.318 209.751L107.506 211.332L106.246 212.576L104.633 213.265L102.918 213.639L101.107 213.575L99.4997 212.71L98.3406 211.326L97.3632 209.804L97.1709 207.999" stroke="#F3F2F2" stroke-width="2.17088" stroke-linecap="round" stroke-linejoin="round"/>
<path d="M115.984 208.303C117.458 208.303 118.655 207.945 118.655 207.502C118.655 207.059 117.458 206.701 115.984 206.701C114.51 206.701 113.313 207.059 113.313 207.502C113.313 207.945 114.51 208.303 115.984 208.303Z" fill="#F3F2F2" stroke="#FFA6A6" stroke-width="2.17088" stroke-linecap="round" stroke-linejoin="round"/>
<path d="M89.2761 207.769C90.7503 207.769 91.9467 207.411 91.9467 206.968C91.9467 206.525 90.7503 206.167 89.2761 206.167C87.8019 206.167 86.6055 206.525 86.6055 206.968C86.6055 207.411 87.8019 207.769 89.2761 207.769Z" fill="#F3F2F2" stroke="#FFA6A6" stroke-width="2.17088" stroke-linecap="round" stroke-linejoin="round"/>
<path d="M115.87 146.996L118.231 150.057L121.067 152.15L124.454 153.139L127.578 154.655L131.018 155.051L134.671 157.289L132.471 154.121L130.318 150.97L127.375 148.497L123.551 147.835L119.983 146.948L115.87 146.996Z" fill="#41B879"/>
<path d="M115.87 146.996L118.231 150.057L121.067 152.15L124.454 153.139L127.578 154.655L131.018 155.051L134.671 157.289L132.471 154.121L130.318 150.97L127.375 148.497L123.551 147.835L119.983 146.948L115.87 146.996Z" stroke="#383839" stroke-width="1.62816" stroke-linecap="round" stroke-linejoin="round"/>
</svg>
