<svg width="207" height="220" viewBox="0 0 207 220" fill="none" xmlns="http://www.w3.org/2000/svg">
<path d="M63.1412 29.1335C56.9589 30.1063 52.4789 31.7113 52.2519 41.7574L52.0898 47.3453L52.9977 46.1131C52.9977 46.1131 58.4396 33.5703 67.432 29.2362C67.432 29.2362 65.7081 28.7336 63.1357 29.1389L63.1412 29.1335Z" fill="#41B879" stroke="#383839" stroke-width="1.62816" stroke-linecap="round" stroke-linejoin="round"/>
<path d="M52.5571 39.9253L54.7457 36.3046L58.0638 33.6296L61.4198 31.0194L65.4944 30.4628L68.2397 29.4522L70.7796 27.6148L66.813 26.7502L63.095 26.7178L59.3392 27.0528L56.2048 29.1658L54.1945 31.7814L52.784 34.8185L52.3301 38.115L52.5571 39.9253Z" fill="#FFF6F0"/>
<path d="M52.5571 39.9253L54.7457 36.3046L58.0638 33.6296L61.4198 31.0194L65.4944 30.4628L68.2397 29.4522L70.7796 27.6148L66.813 26.7502L63.095 26.7178L59.3392 27.0528L56.2048 29.1658L54.1945 31.7814L52.784 34.8185L52.3301 38.115L52.5571 39.9253Z" stroke="#383839" stroke-width="1.62816" stroke-linecap="round" stroke-linejoin="round"/>
<path d="M81.5663 118.474C83.3173 115.945 86.2409 110.816 86.2409 110.816L84.9385 109.157C83.4199 114.372 80.4423 115.107 80.4423 115.107L80.8314 107.45L79.3453 107.385L77.7403 113.481L72.9306 109.163L70.4772 108.698L75.0382 115.102C70.0719 112.492 69.3153 112.394 69.3153 112.394L67.8562 113.178C67.6562 113.653 72.8766 117.269 72.8766 117.269C71.9093 116.864 70.4394 117.874 70.4394 117.874L70.1691 119.43C70.7852 118.852 73.417 119.43 73.417 119.43L70.8663 121.392L71.8606 122.64L76.3676 120.9L78.4482 120.29L78.4212 120.355C78.4212 120.355 90.3047 124.154 108.003 136.723V130.239C108.003 130.239 91.4396 120.63 81.5663 118.474Z" fill="#FFF6F0" stroke="#383839" stroke-width="1.62816" stroke-linecap="round" stroke-linejoin="round"/>
<path d="M130.977 69.0263L133.857 66.1621L136.753 63.2007L139.418 60.0177L142.503 57.2346L145.476 54.3488L147.713 50.7389L150.939 48.0044L152.701 50.3336L149.842 52.8248L147.167 55.8781L144.222 58.6504L141.752 61.9199L138.386 64.2545L135.786 67.405L132.603 69.8639L130.977 69.0263Z" fill="#FFF6F0"/>
<path d="M130.977 69.0263L133.857 66.1621L136.753 63.2007L139.418 60.0177L142.503 57.2346L145.476 54.3488L147.713 50.7389L150.939 48.0044L152.701 50.3336L149.842 52.8248L147.167 55.8781L144.222 58.6504L141.752 61.9199L138.386 64.2545L135.786 67.405L132.603 69.8639L130.977 69.0263Z" stroke="#383839" stroke-width="1.62816" stroke-linecap="round" stroke-linejoin="round"/>
<path d="M146.996 110.292L150.487 110.054L153.508 108.465L152.973 107.255L149.449 108.887L146.158 109.903L145.866 109.627L145.58 109.384L148.039 103.958L146.283 103.402L144.688 108.352L144.418 108.071L143.878 108.422L141.505 104.493L139.787 103.677L141.976 108.492L141.592 108.682L139.365 106.126L138.047 107.217L138.112 109.254L140.052 110.719L139.792 112.011L140.938 112.783L140.981 113.562L138.809 116.728L135.777 119.29L133.005 122.073L130.746 125.326L127.763 127.92L125.412 131.098L123.218 134.421L120.386 137.156L117.922 140.214L115.636 143.057L115.258 146.532L118.095 143.954L120.467 140.96L122.694 137.837L125.126 134.891L127.352 131.768L130.454 129.395L132.572 126.18L135.442 123.608L137.825 120.614L140.257 117.663L142.824 114.848L143.413 114.421L145.623 114.215L145.721 113.091L147.104 113.583L147.915 112.675L146.099 113.253L146.029 112.373L151.773 111.74L152.081 111.232L147.131 110.8L147.007 110.724L146.996 110.292Z" fill="#FFF6F0"/>
<path d="M146.996 110.292L150.487 110.054L153.508 108.465L152.973 107.255L149.449 108.887L146.158 109.903L145.866 109.627L145.58 109.384L148.039 103.958L146.283 103.402L144.688 108.352L144.418 108.071L143.878 108.422L141.505 104.493L139.787 103.677L141.976 108.492L141.592 108.682L139.365 106.126L138.047 107.217L138.112 109.254L140.052 110.719L139.792 112.011L140.938 112.783L140.981 113.562L138.809 116.728L135.777 119.29L133.005 122.073L130.746 125.326L127.763 127.92L125.412 131.098L123.218 134.421L120.386 137.156L117.922 140.214L115.636 143.057L115.258 146.532L118.095 143.954L120.467 140.96L122.694 137.837L125.126 134.891L127.352 131.768L130.454 129.395L132.572 126.18L135.442 123.608L137.825 120.614L140.257 117.663L142.824 114.848L143.413 114.421L145.623 114.215L145.721 113.091L147.104 113.583L147.915 112.675L146.099 113.253L146.029 112.373L151.773 111.74L152.081 111.232L147.131 110.8L147.007 110.724L146.996 110.292Z" stroke="#383839" stroke-width="1.62816" stroke-linecap="round" stroke-linejoin="round"/>
<path d="M139.843 219.611L138.07 219.687L136.233 219.454L134.395 219.854L132.558 219.552L130.721 219.417L128.883 219.66L127.046 219.471L125.208 219.357L123.371 219.735L121.534 219.903L119.696 219.498L117.864 219.995L116.027 219.779L114.19 219.481L112.352 219.698L110.515 219.654L108.677 219.784L106.84 219.957L105.003 219.487L103.165 219.562L101.328 219.876L99.4905 219.654L97.6531 219.768L95.8157 219.779L93.9784 219.833L92.141 219.622L90.3036 219.633L88.4662 219.87L86.6288 219.487L84.786 219.773L82.8838 219.73L82.3326 217.871L82.392 215.953L81.8192 214.153L81.4139 212.321L81.4409 210.408L80.7978 208.625L80.7654 206.722L80.0142 204.961L79.9385 203.069L79.7981 201.189L79.3711 199.362L79.0199 197.525L78.4578 195.725L78.1174 193.882L77.9174 192.012L77.4851 190.186L77.0798 188.354L76.8853 186.484L76.6043 184.63L76.307 182.777L75.8045 180.961L75.6423 179.086L74.8209 177.33L74.4318 175.492L74.0805 173.649L73.7941 171.79L73.5293 169.872L75.4532 169.991L77.3284 169.769L79.2036 170.099L81.0788 169.629L82.954 170.002L84.8292 169.829L86.7044 170.029L88.5797 169.688L90.4549 169.656H92.3301L94.2053 169.672L96.0805 169.985L97.9558 169.861L99.831 169.607L101.706 170.056L103.581 169.58L105.457 169.721L107.332 170.007L109.207 169.613L111.082 169.915L112.957 169.926L114.833 169.894L116.708 169.629L118.583 169.715L120.458 170.077L122.334 169.704L124.209 169.623L126.084 170.121L127.959 169.591L129.834 169.575L131.71 170.148L133.585 170.045L135.46 170.061L137.335 169.829L139.21 169.969L141.086 169.688L142.961 169.904L144.842 170.121L146.755 169.883L146.728 171.785L146.106 173.574L146.187 175.46L145.771 177.276L145.301 179.086L145.268 180.956L144.971 182.793L144.469 184.598L144.323 186.452L144.285 188.321L143.674 190.11L143.523 191.964L143.696 193.866L143.372 195.698L142.977 197.525L142.75 199.367L142.691 201.237L142.48 203.085L142.075 204.907L141.615 206.722L141.718 208.614L141.086 210.403L141.015 212.272L140.518 214.083L140.632 215.98L139.935 217.763L139.832 219.573L139.843 219.611Z" fill="#363737"/>
<path d="M153.067 170.434L151.24 170.688L149.376 170.212L147.511 170.445L145.647 170.645L143.782 170.504H141.918L140.048 170.266L138.184 170.385L136.319 170.212L134.455 170.715L132.591 170.693L130.726 170.672L128.856 170.45L126.992 170.32L125.128 170.391L123.258 170.585L121.388 170.607H119.524L117.659 170.353L115.789 170.645L113.92 170.38L112.05 170.628L110.18 170.601L108.31 170.331L106.44 170.801L104.571 170.715L102.701 170.553L100.836 170.364L98.9665 170.526L97.1021 170.293L95.2377 170.428L93.3679 170.612L91.5034 170.396L89.6337 170.564L87.7639 170.78L85.894 170.38L84.0242 170.623L82.1544 170.607L80.2846 170.672L78.4148 170.515L76.545 170.223L74.6751 170.266L72.8053 170.412L70.9356 170.709L69.0603 170.547L67.2553 170.396L66.996 168.569L67.4337 166.673L67.304 164.776L67.504 162.874L67.3094 160.977L67.0068 159.075L67.2824 157.172L66.9365 155.27L67.4499 153.368L67.2932 151.563L69.0603 151.757L70.9247 151.147L72.7891 151.26L74.6536 151.606L76.5179 151.444L78.3823 151.563L80.2522 151.53L82.1166 151.655L83.981 151.352L85.8454 151.212L87.7098 151.525L89.5796 151.26L91.4494 151.466L93.3138 151.33L95.1782 151.595L97.0426 151.401L98.9125 151.747L100.777 151.174H102.641L104.511 151.482L106.381 151.244L108.245 151.271L110.115 151.19L111.985 151.417L113.855 151.552L115.725 151.395L117.589 151.574L119.459 151.476L121.323 151.179L123.188 151.655H125.052L126.922 151.639L128.792 151.557L130.661 151.709L132.531 151.314L134.401 151.244L136.271 151.341L138.141 151.357L140.01 151.336L141.88 151.266L143.75 151.547L145.62 151.282L147.49 151.428L149.36 151.282L151.235 151.628L153.256 151.32L152.797 153.362L152.975 155.259L152.861 157.161L153.142 159.064L153.386 160.961L153.418 162.857L152.834 164.76L152.807 166.662L153.45 168.569L153.078 170.428H153.067V170.434Z" fill="#363737"/>
<path d="M107.791 114.75L105.207 111.778L102.959 108.708L100.582 105.742L98.3011 102.699L95.5882 100.008L93.713 96.6357L91.4325 93.5878L88.925 90.729L86.6228 87.7082L83.9262 85.0061L81.0512 82.4554L79.1112 79.1265L76.836 76.0786L73.8476 73.6197L71.3725 70.734L68.9785 67.7779L66.5683 64.8327L64.4283 61.7632L61.2129 63.5141L63.8447 66.4918L66.0873 69.6856L68.7516 72.5335L71.4374 75.3652L73.8692 78.4077L75.8201 81.8447L78.2844 84.8602L81.2512 87.4596L83.6236 90.5453L85.7528 93.8418L88.444 96.6627L91.2541 99.3918L93.0213 102.98L96.0205 105.558L98.1443 108.854L100.798 111.713L103.462 114.566L105.661 117.803L108.061 120.873L110.817 124.007L111.255 119.463L111.049 115.339L107.791 114.75Z" fill="#FFF6F0"/>
<path d="M107.791 114.75L105.207 111.778L102.959 108.708L100.582 105.742L98.3011 102.699L95.5882 100.008L93.713 96.6357L91.4325 93.5878L88.925 90.729L86.6228 87.7082L83.9262 85.0061L81.0512 82.4554L79.1112 79.1265L76.836 76.0786L73.8476 73.6197L71.3725 70.734L68.9785 67.7779L66.5683 64.8327L64.4283 61.7632L61.2129 63.5141L63.8447 66.4918L66.0873 69.6856L68.7516 72.5335L71.4374 75.3652L73.8692 78.4077L75.8201 81.8447L78.2844 84.8602L81.2512 87.4596L83.6236 90.5453L85.7528 93.8418L88.444 96.6627L91.2541 99.3918L93.0213 102.98L96.0205 105.558L98.1443 108.854L100.798 111.713L103.462 114.566L105.661 117.803L108.061 120.873L110.817 124.007L111.255 119.463L111.049 115.339L107.791 114.75Z" stroke="#383839" stroke-width="1.62816" stroke-linecap="round" stroke-linejoin="round"/>
<path d="M108.583 151.487L112.593 151.725L116.64 152.082L116.365 148.191L116.819 144.397L116.905 140.609L116.619 136.826L116.403 133.043L115.803 129.271L116.64 125.456L116.543 121.657L115.716 117.901L115.922 114.096L115.154 110.346L115.268 106.536L114.576 102.807L113.187 99.4567L113.949 97.9111L114.16 94.1985L115.268 90.6481L116.689 87.2111L118.278 83.7416L121.353 81.4503L123.833 78.316L127.232 76.1273L129.864 73.1442L132.501 70.2314L130.842 68.9507L127.654 71.0907L125.222 74.5709L121.963 77.1757L118.991 80.0885L115.743 82.7203L113.479 85.86L111.712 81.4557L109.604 84.255L107.502 87.6434L108.021 91.4911L108.269 95.2631L107.545 99.0514L107.772 102.829L107.81 106.612L108.34 110.384L107.783 114.172L107.61 117.955L108.232 121.722L107.842 125.51L108.707 129.276L108.864 133.054L108.442 136.842L107.967 140.625L108.35 144.402L108.432 148.185L108.761 151.968L108.583 151.487Z" fill="#FFF6F0"/>
<path d="M108.583 151.487L112.593 151.725L116.64 152.082L116.365 148.191L116.819 144.397L116.905 140.609L116.619 136.826L116.403 133.043L115.803 129.271L116.64 125.456L116.543 121.657L115.716 117.901L115.922 114.096L115.154 110.346L115.268 106.536L114.576 102.807L113.187 99.4567L113.949 97.9111L114.16 94.1985L115.268 90.6481L116.689 87.2111L118.278 83.7416L121.353 81.4503L123.833 78.316L127.232 76.1273L129.864 73.1442L132.501 70.2314L130.842 68.9507L127.654 71.0907L125.222 74.5709L121.963 77.1757L118.991 80.0885L115.743 82.7203L113.479 85.86L111.712 81.4557L109.604 84.255L107.502 87.6434L108.021 91.4911L108.269 95.2631L107.545 99.0514L107.772 102.829L107.81 106.612L108.34 110.384L107.783 114.172L107.61 117.955L108.232 121.722L107.842 125.51L108.707 129.276L108.864 133.054L108.442 136.842L107.967 140.625L108.35 144.402L108.432 148.185L108.761 151.968L108.583 151.487Z" stroke="#383839" stroke-width="1.62816" stroke-linecap="round" stroke-linejoin="round"/>
<path d="M139.884 112.162H141.322L141.279 113.21H138.474L139.884 112.162Z" fill="#41B879" stroke="#383839" stroke-width="1.62816" stroke-linecap="round" stroke-linejoin="round"/>
<path d="M105.986 54.3166L111.466 54.6733L108.548 51.9874L106.505 50.1122L107.089 49.3556L111.704 51.2849L109.812 46.9184L111.72 45.4647L113.887 49.6421L114.103 45.0918L113.514 40.4875L117.492 41.2225L117.81 45.7241L116.935 49.8258L119.486 47.2102L121.226 42.8059L124.366 45.7565L121.247 48.572L118.232 51.955L121.799 50.8958L124.533 51.4092L123.604 54.2463L119.394 54.7651L122.604 58.3156L121.183 62.347L119.075 59.2289L116.405 56.8025L115.584 60.7312L114.579 64.152L113.266 61.5094L113.752 57.1645L113.806 56.1648L112.947 59.3316L110.645 59.2397L112.017 56.5323L108.85 56.235L106.019 55.8676L106.116 54.5327L105.986 54.3166Z" fill="#FFF6F0"/>
<path d="M105.986 54.3166L111.466 54.6733L108.548 51.9874L106.505 50.1122L107.089 49.3556L111.704 51.2849L109.812 46.9184L111.72 45.4647L113.887 49.6421L114.103 45.0918L113.514 40.4875L117.492 41.2225L117.81 45.7241L116.935 49.8258L119.486 47.2102L121.226 42.8059L124.366 45.7565L121.247 48.572L118.232 51.955L121.799 50.8958L124.533 51.4092L123.604 54.2463L119.394 54.7651L122.604 58.3156L121.183 62.347L119.075 59.2289L116.405 56.8025L115.584 60.7312L114.579 64.152L113.266 61.5094L113.752 57.1645L113.806 56.1648L112.947 59.3316L110.645 59.2397L112.017 56.5323L108.85 56.235L106.019 55.8676L106.116 54.5327L105.986 54.3166Z" stroke="#383839" stroke-width="1.62816" stroke-linecap="round" stroke-linejoin="round"/>
<path d="M155.359 32.7704L153.052 30.8844L150.631 29.582L151.804 27.8365L156.267 31.2357L154.3 26.8475L156.051 26.091L158.018 29.7441L158.813 25.9667L160.374 22.0649L162.05 23.0755L161.326 26.626L161.104 30.3116L162.979 27.6311L165.416 25.3506L167.454 22.146L168.308 25.2371L165.692 28.5606L163.163 31.8679L166.649 31.1114L170.28 31.4464L173.717 30.6844L174.582 32.0301L170.215 33.073L165.908 34.0025L161.471 34.597L165.811 35.4454L170.075 36.4614L175.073 35.9372L172.896 37.9097L169.551 38.0448L166.141 36.8829L162.628 36.456L159.202 36.3317L155.122 33.0028L155.359 32.7704Z" fill="#FFF6F0"/>
<path d="M155.359 32.7704L153.052 30.8844L150.631 29.582L151.804 27.8365L156.267 31.2357L154.3 26.8475L156.051 26.091L158.018 29.7441L158.813 25.9667L160.374 22.0649L162.05 23.0755L161.326 26.626L161.104 30.3116L162.979 27.6311L165.416 25.3506L167.454 22.146L168.308 25.2371L165.692 28.5606L163.163 31.8679L166.649 31.1114L170.28 31.4464L173.717 30.6844L174.582 32.0301L170.215 33.073L165.908 34.0025L161.471 34.597L165.811 35.4454L170.075 36.4614L175.073 35.9372L172.896 37.9097L169.551 38.0448L166.141 36.8829L162.628 36.456L159.202 36.3317L155.122 33.0028L155.359 32.7704Z" stroke="#383839" stroke-width="1.62816" stroke-linecap="round" stroke-linejoin="round"/>
<path d="M50.1354 48.2531L51.4431 47.3398L45.2446 38.823L44.1963 39.5201L50.1354 48.2531Z" fill="#41B879" stroke="#383839" stroke-width="1.62816" stroke-linecap="round" stroke-linejoin="round"/>
<path d="M54.6721 45.4592L56.7689 44.4108C56.7689 44.4108 58.9954 39.6714 63.9942 38.5474C63.9942 38.5474 54.3263 38.4717 54.6721 45.4592Z" fill="#41B879" stroke="#383839" stroke-width="1.62816" stroke-linecap="round" stroke-linejoin="round"/>
<path d="M34.835 83.8445L36.2833 84.5471L40.3741 82.5097L44.3353 80.4345L43.2869 83.3582L43.3572 86.887L43.1248 90.0052L45.0433 90.6104L45.5675 86.5466L46.6591 82.8448L48.3019 79.2727L49.426 83.5527L51.2148 87.5895L53.1169 87.2113L51.2742 82.8772L50.6202 77.9811L55.1543 82.0774L56.381 80.2616L53.6952 77.4785L51.1769 74.3387L54.5058 72.2258L57.3646 69.648L60.7691 67.9187L64.4601 66.9352L68.1943 66.2759L71.8097 65.0816L75.5438 64.3358L79.37 64.6871L83.1528 64.4061L86.9195 64.9627L90.9023 65.4598L95.0688 65.5517L98.5868 67.7836L100.846 70.9828L101.824 68.4375L99.2246 66.0381L96.0793 63.6279L92.4911 61.8553L88.5677 61.0177L84.5957 60.688L80.6183 60.6556L76.5923 60.5583L72.6743 61.477L68.859 61.9148L65.3194 63.4603L61.4879 64.044L57.8888 65.4166L54.4518 67.1891L51.2309 69.3832L48.8207 72.55L48.5559 68.5942L47.3238 68.8644L45.3945 72.1879L42.8979 69.9074L41.1685 67.4485L40.1634 68.4969L42.0494 70.8855L43.6652 73.4795L39.423 73.928L35.2781 75.1872L36.1157 76.6463L39.5635 76.6247L43.1032 76.214L40.1526 78.4134L37.4289 80.9263L34.8998 83.6608L34.835 83.8445Z" fill="#FFF6F0"/>
<path d="M34.835 83.8445L36.2833 84.5471L40.3741 82.5097L44.3353 80.4345L43.2869 83.3582L43.3572 86.887L43.1248 90.0052L45.0433 90.6104L45.5675 86.5466L46.6591 82.8448L48.3019 79.2727L49.426 83.5527L51.2148 87.5895L53.1169 87.2113L51.2742 82.8772L50.6202 77.9811L55.1543 82.0774L56.381 80.2616L53.6952 77.4785L51.1769 74.3387L54.5058 72.2258L57.3646 69.648L60.7691 67.9187L64.4601 66.9352L68.1943 66.2759L71.8097 65.0816L75.5439 64.3358L79.37 64.6871L83.1528 64.4061L86.9195 64.9627L90.9023 65.4598L95.0688 65.5517L98.5868 67.7836L100.846 70.9828L101.824 68.4375L99.2246 66.0381L96.0793 63.6279L92.4911 61.8553L88.5677 61.0177L84.5957 60.688L80.6183 60.6556L76.5923 60.5583L72.6743 61.477L68.859 61.9148L65.3194 63.4603L61.4879 64.044L57.8888 65.4166L54.4518 67.1891L51.2309 69.3832L48.8207 72.55L48.5559 68.5942L47.3238 68.8644L45.3945 72.1879L42.8979 69.9074L41.1685 67.4485L40.1634 68.4969L42.0494 70.8855L43.6652 73.4795L39.423 73.928L35.2781 75.1872L36.1157 76.6463L39.5635 76.6247L43.1032 76.214L40.1526 78.4134L37.4289 80.9263L34.8998 83.6608L34.835 83.8445Z" stroke="#383839" stroke-width="1.62816" stroke-linecap="round" stroke-linejoin="round"/>
<path d="M109.505 57.5372L113.309 55.4026L115.617 57.7155L116.12 62.0928L115.525 65.9405L114.65 69.7342L113.607 73.4792L113.455 77.462L112.137 81.1476L110.316 84.617L108.608 88.0919L105.717 90.7615L101.826 90.8695L99.0696 88.4323L97.4268 84.871L97.5132 84.082L98.1077 80.4883L98.5995 76.8135L99.9127 73.3441L100.983 69.7504L103.231 66.7349L105.036 63.4925L106.792 60.1528L109.143 57.2778L109.505 57.5372Z" fill="#41B879"/>
<path d="M109.505 57.5372L113.309 55.4026L115.617 57.7155L116.12 62.0928L115.525 65.9405L114.65 69.7342L113.607 73.4792L113.455 77.462L112.137 81.1476L110.316 84.617L108.608 88.0919L105.717 90.7615L101.826 90.8695L99.0696 88.4323L97.4268 84.871L97.5132 84.082L98.1077 80.4883L98.5995 76.8135L99.9127 73.3441L100.983 69.7504L103.231 66.7349L105.036 63.4925L106.792 60.1528L109.143 57.2778L109.505 57.5372Z" stroke="#383839" stroke-width="1.62816" stroke-linecap="round" stroke-linejoin="round"/>
<path d="M122.53 58.8883L120.498 62.1632L123.27 65.2273L125.324 68.6859L127.788 71.8257L130.436 74.8303L132.56 78.2133L134.727 81.5476L137.559 84.1308L140.115 86.8382L143.249 88.8161L146.502 90.9777L150.426 90.6913L149.372 86.7625L149.15 82.7041L147.951 78.851L147.016 74.9168L144.503 71.9338L142.071 68.9507L139.439 66.2163L136.381 63.9411L132.976 62.228L129.642 60.2393L125.772 59.8124L122.108 58.1858L122.53 58.8883Z" fill="#41B879"/>
<path d="M122.53 58.8883L120.498 62.1632L123.27 65.2273L125.324 68.6859L127.788 71.8257L130.436 74.8303L132.56 78.2133L134.727 81.5476L137.559 84.1308L140.115 86.8382L143.249 88.8161L146.502 90.9777L150.426 90.6913L149.372 86.7625L149.15 82.7041L147.951 78.851L147.016 74.9168L144.503 71.9338L142.071 68.9507L139.439 66.2163L136.381 63.9411L132.976 62.228L129.642 60.2393L125.772 59.8124L122.108 58.1858L122.53 58.8883Z" stroke="#383839" stroke-width="1.62816" stroke-linecap="round" stroke-linejoin="round"/>
<path d="M123.914 51.4739L124.779 55.4891L127.081 58.8018L130.08 61.1742L132.966 63.6655L136.133 65.9298L138.77 69.129L142.202 71.4744L145.876 73.3388L149.583 75.1383L153.291 77.019L153.918 79.4292L156.182 76.0516L156.263 72.0688L155.436 68.2697L154.145 64.4707L151.313 61.8767L148.686 59.2017L145.806 56.7699L142.337 55.2729L139.051 53.4464L135.582 51.7603L131.707 51.9332L127.962 51.6198L123.914 51.4739Z" fill="#41B879"/>
<path d="M123.914 51.4739L124.779 55.4891L127.081 58.8018L130.08 61.1742L132.966 63.6655L136.133 65.9298L138.77 69.129L142.202 71.4744L145.876 73.3388L149.583 75.1383L153.291 77.019L153.918 79.4292L156.182 76.0516L156.263 72.0688L155.436 68.2697L154.145 64.4707L151.313 61.8767L148.686 59.2017L145.806 56.7699L142.337 55.2729L139.051 53.4464L135.582 51.7603L131.707 51.9332L127.962 51.6198L123.914 51.4739Z" stroke="#383839" stroke-width="1.62816" stroke-linecap="round" stroke-linejoin="round"/>
<path d="M113.156 41.0656C113.156 41.0656 115.259 46.1887 117.896 41.6493L120.754 36.6289C121.457 35.4832 122.262 33.273 122.635 31.9814C123.538 28.8308 125.218 22.9188 125.218 22.4054C125.218 22.4054 125.91 15.9853 120.268 16.3744C117.247 16.5852 114.664 18.6063 113.513 21.4056C111.778 25.6262 109.822 33.1379 113.156 41.0656Z" fill="#41B879" stroke="#383839" stroke-width="1.62816" stroke-linecap="round" stroke-linejoin="round"/>
<path d="M102.976 53.0789L106.202 54.4732L104.424 57.332L101.322 59.2288L97.9395 60.6501L94.7187 62.3686L91.9301 64.8706L88.3526 65.9623L85.3912 68.1077L83.1161 71.3015L81.5002 74.4845L78.8955 71.9608L79.1117 68.1185L79.3657 64.2978L81.8029 61.5796L83.824 58.7478L86.3478 56.2403L89.7901 55.2892L93.9783 53.6626L98.4528 52.9438L102.992 53.0087L102.976 53.0789Z" fill="#41B879"/>
<path d="M102.976 53.0789L106.202 54.4732L104.424 57.332L101.322 59.2288L97.9395 60.6501L94.7187 62.3686L91.9301 64.8706L88.3526 65.9623L85.3912 68.1077L83.1161 71.3015L81.5002 74.4845L78.8955 71.9608L79.1117 68.1185L79.3657 64.2978L81.8029 61.5796L83.824 58.7478L86.3478 56.2403L89.7901 55.2892L93.9783 53.6626L98.4528 52.9438L102.992 53.0087L102.976 53.0789Z" stroke="#383839" stroke-width="1.62816" stroke-linecap="round" stroke-linejoin="round"/>
<path d="M85.4046 45.0917L82.6973 46.2211L82.8702 49.3555L86.1558 51.8143L90.2576 52.2088L94.1647 50.793L97.9476 51.4577L101.714 51.7657L105.281 50.8416L106.378 48.226L103.687 45.9995L100.423 44.789L96.9586 44.427L93.581 45.1295L89.447 45.243L85.3723 44.3945L85.4046 45.0917Z" fill="#41B879"/>
<path d="M85.4046 45.0917L82.6973 46.2211L82.8702 49.3555L86.1558 51.8143L90.2576 52.2088L94.1647 50.793L97.9476 51.4577L101.714 51.7657L105.281 50.8416L106.378 48.226L103.687 45.9995L100.423 44.789L96.9586 44.427L93.581 45.1295L89.447 45.243L85.3723 44.3945L85.4046 45.0917Z" stroke="#383839" stroke-width="1.62816" stroke-linecap="round" stroke-linejoin="round"/>
<path d="M91.2891 30.8194L93.6074 33.6998L95.1422 37.18L98.0604 39.547L100.973 41.8113L103.648 44.362L106.658 46.0859L109.803 47.1559L112.316 45.1402L111.738 41.4492L111.122 37.7853L108.755 34.8292L107.28 31.4517L104.221 29.4197L101.508 26.9285L97.9523 26.0098L94.672 26.5015L91.8025 27.6526L91.5215 30.7491L91.2891 30.8194Z" fill="#41B879"/>
<path d="M91.2891 30.8194L93.6074 33.6998L95.1422 37.18L98.0604 39.547L100.973 41.8113L103.648 44.362L106.658 46.0859L109.803 47.1559L112.316 45.1402L111.738 41.4492L111.122 37.7853L108.755 34.8292L107.28 31.4517L104.221 29.4197L101.508 26.9285L97.9523 26.0098L94.672 26.5015L91.8025 27.6526L91.5215 30.7491L91.2891 30.8194Z" stroke="#383839" stroke-width="1.62816" stroke-linecap="round" stroke-linejoin="round"/>
<path d="M154.514 33.4944L158.875 33.9699L159.983 38.6066L158.27 42.476L157.6 46.6641L155.525 50.3335L152.968 53.6192L149.094 55.6727L149.002 51.3224L148.607 47.318L148.813 43.3082L148.899 39.1254L151.369 35.7695L154.514 33.4944Z" fill="#89CB9A"/>
<path d="M154.514 33.4944L158.875 33.9699L159.983 38.6066L158.27 42.476L157.6 46.6641L155.525 50.3335L152.968 53.6192L149.094 55.6727L149.002 51.3224L148.607 47.318L148.813 43.3082L148.899 39.1254L151.369 35.7695L154.514 33.4944Z" stroke="#383839" stroke-width="1.62816" stroke-linecap="round" stroke-linejoin="round"/>
<path d="M163.115 39.6985L165.336 37.0559L169.135 37.2613L172.901 41.5953L173.772 45.1836L174.971 48.5612L175.933 52.0144L177.068 55.5324L176.225 59.1478L176.003 62.7415L174.674 66.4433L173.269 70.1559L170.383 69.6371L168.162 66.4163L166.379 62.8982L165.147 59.1532L165.039 55.1271L163.752 51.4091L163.18 47.529L162.796 43.6165L163.115 39.6985Z" fill="#89CB9A"/>
<path d="M163.115 39.6985L165.336 37.0559L169.135 37.2613L172.901 41.5953L173.772 45.1836L174.971 48.5612L175.933 52.0144L177.068 55.5324L176.225 59.1478L176.003 62.7415L174.674 66.4433L173.269 70.1559L170.383 69.6371L168.162 66.4163L166.379 62.8982L165.147 59.1532L165.039 55.1271L163.752 51.4091L163.18 47.529L162.796 43.6165L163.115 39.6985Z" stroke="#383839" stroke-width="1.62816" stroke-linecap="round" stroke-linejoin="round"/>
<path d="M172.034 36.602L171.412 38.0503L175.109 39.0609L178.243 41.2333L181.448 43.222L184.679 45.135L188.116 46.7833L191.024 49.2097L193.742 51.8307L196.147 54.7219L198.557 57.5752L200.41 60.8177L201.756 64.5681L203.161 60.7636L204.485 57.0402L203.139 53.3222L201.961 49.5448L199.47 46.459L196.336 44.065L192.888 42.2006L189.564 40.2011L186.344 38.3097L182.988 36.6182L179.356 35.5698L175.557 36.094L171.699 36.0724L172.034 36.602Z" fill="#89CB9A"/>
<path d="M172.034 36.602L171.412 38.0503L175.109 39.0609L178.243 41.2333L181.448 43.222L184.679 45.135L188.116 46.7833L191.024 49.2097L193.742 51.8307L196.147 54.7219L198.557 57.5752L200.41 60.8177L201.756 64.5681L203.161 60.7636L204.485 57.0402L203.139 53.3222L201.961 49.5448L199.47 46.459L196.336 44.065L192.888 42.2006L189.564 40.2011L186.344 38.3097L182.988 36.6182L179.356 35.5698L175.557 36.094L171.699 36.0724L172.034 36.602Z" stroke="#383839" stroke-width="1.62816" stroke-linecap="round" stroke-linejoin="round"/>
<path d="M126.317 34.3321L130.284 32.3921L134.245 30.987L138.379 30.2845L143.729 29.7387L147.091 29.8035L150.349 29.436L151.019 27.3285L148.226 24.8588L144.648 23.6213L141.416 21.5137L137.579 21.4488L133.78 21.3137L130.311 23.0592L128.376 26.3719L127.025 30.1224L126.317 34.3321Z" fill="#89CB9A"/>
<path d="M126.317 34.3321L130.284 32.3921L134.245 30.987L138.379 30.2845L143.729 29.7387L147.091 29.8035L150.349 29.436L151.019 27.3285L148.226 24.8588L144.648 23.6213L141.416 21.5137L137.579 21.4488L133.78 21.3137L130.311 23.0592L128.376 26.3719L127.025 30.1224L126.317 34.3321Z" stroke="#383839" stroke-width="1.62816" stroke-linecap="round" stroke-linejoin="round"/>
<path d="M153.356 26.3614L155.674 26.2317L155.479 24.9456L154.842 21.2222L152.902 17.9905L149.821 15.8073L146.822 13.6402L143.109 13.0242L139.402 13.6456L135.928 15.0507L135.89 16.5098L136.889 16.9475L139.775 17.7095L142.807 19.5685L145.017 22.4381L147.973 24.4538L151.156 26.2534L153.356 26.3614Z" fill="#89CB9A"/>
<path d="M153.356 26.3614L155.674 26.2317L155.479 24.9456L154.842 21.2222L152.902 17.9905L149.821 15.8073L146.822 13.6402L143.109 13.0242L139.402 13.6456L135.928 15.0507L135.89 16.5098L136.889 16.9475L139.775 17.7095L142.807 19.5685L145.017 22.4381L147.973 24.4538L151.156 26.2534L153.356 26.3614Z" stroke="#383839" stroke-width="1.62816" stroke-linecap="round" stroke-linejoin="round"/>
<path d="M159.237 20.8436L161.004 23.3403L163.76 22.1297L166.143 19.606L168.154 16.7905L170.18 13.9534L168.7 10.9109L167.684 11.581L167.559 11.3864L164.474 11.1541L162.274 9.05187L160.442 5.58245L157.945 2.61021L154.638 0.994385L151.434 2.70748L149.175 5.74997L147.256 9.11131L146.127 12.8401L144.689 16.5203L144.327 20.4437L144.722 24.367L147.813 24.9074L151.044 22.708L153.152 19.3791L155.443 16.1852L157.097 12.6077L158.745 13.1103L158.924 16.958L159.351 20.8111L159.237 20.8436Z" fill="#89CB9A"/>
<path d="M159.237 20.8436L161.004 23.3403L163.76 22.1297L166.143 19.606L168.154 16.7905L170.18 13.9534L168.7 10.9109L167.684 11.581L167.559 11.3864L164.474 11.1541L162.274 9.05187L160.442 5.58245L157.945 2.61021L154.638 0.994385L151.434 2.70748L149.175 5.74997L147.256 9.11131L146.127 12.8401L144.689 16.5203L144.327 20.4437L144.722 24.367L147.813 24.9074L151.044 22.708L153.152 19.3791L155.443 16.1852L157.097 12.6078L158.745 13.1103L158.924 16.958L159.351 20.8111L159.237 20.8436Z" stroke="#383839" stroke-width="1.62816" stroke-linecap="round" stroke-linejoin="round"/>
<path d="M164.566 23.6916L169.76 25.4533L173.418 23.9402L177.196 22.7135L180.984 21.53L184.572 19.7953L187.669 17.3958L185.599 15.9638L184.643 13.051L180.914 11.1595L177.066 11.1001L173.44 12.5106L170.895 15.0397L168.636 17.7741L166.231 20.3627L164.566 23.6916Z" fill="#89CB9A"/>
<path d="M164.566 23.6916L169.76 25.4533L173.418 23.9402L177.196 22.7135L180.984 21.53L184.572 19.7953L187.669 17.3958L185.599 15.9638L184.643 13.051L180.914 11.1595L177.066 11.1001L173.44 12.5106L170.895 15.0397L168.636 17.7741L166.231 20.3627L164.566 23.6916Z" stroke="#383839" stroke-width="1.62816" stroke-linecap="round" stroke-linejoin="round"/>
<path d="M152.422 105.996L154.919 108.79L158.972 108.12L163.171 108.692L167.321 107.887L171.412 108.855L175.043 109.735L173.314 106.839L170.445 104.558L167.526 102.532L164.1 101.413L160.479 102.008L156.534 103.942L152.422 105.996Z" fill="#41B879"/>
<path d="M152.422 105.996L154.919 108.79L158.972 108.12L163.171 108.692L167.321 107.887L171.412 108.855L175.043 109.735L173.314 106.839L170.445 104.558L167.526 102.532L164.1 101.413L160.479 102.008L156.534 103.942L152.422 105.996Z" stroke="#383839" stroke-width="1.62816" stroke-linecap="round" stroke-linejoin="round"/>
<path d="M145.333 132.962L148.446 135.453L150.84 138.28L152.823 137.734L153.023 132.227L153.104 128.633L151.996 125.18L150.305 122.527L147.938 120.603L146.765 124.602L146.641 128.795L145.333 132.962Z" fill="#41B879"/>
<path d="M145.333 132.962L148.446 135.453L150.84 138.28L152.823 137.734L153.023 132.227L153.104 128.633L151.996 125.18L150.305 122.527L147.938 120.603L146.765 124.602L146.641 128.795L145.333 132.962Z" stroke="#383839" stroke-width="1.62816" stroke-linecap="round" stroke-linejoin="round"/>
<path d="M138.124 109.503L140.005 111.908L137.411 114.172L134.39 116.598L131.737 119.436L129.159 122.354L126.203 124.867L123.29 127.439L121.853 127.58L120.475 123.564L121.204 119.479L123.804 116.328L126.387 112.999L130.17 111.205L134.136 110.157L138.043 109.892L138.124 109.503Z" fill="#41B879"/>
<path d="M138.124 109.503L140.005 111.908L137.411 114.172L134.39 116.598L131.737 119.436L129.159 122.354L126.203 124.867L123.29 127.439L121.853 127.58L120.475 123.564L121.204 119.479L123.804 116.328L126.387 112.999L130.17 111.205L134.136 110.157L138.043 109.892L138.124 109.503Z" stroke="#383839" stroke-width="1.62816" stroke-linecap="round" stroke-linejoin="round"/>
<path d="M136.933 108.195L139.154 106.595L135.923 104.023L132.729 101.413L129.205 99.154L124.99 98.2839L121.737 100.84L118.349 104.715L119.608 105.19L122.661 106.687L126.314 106.26L129.789 107.492L133.431 107.201L137.101 107.698L136.933 108.195Z" fill="#41B879"/>
<path d="M136.933 108.195L139.154 106.595L135.923 104.023L132.729 101.413L129.205 99.154L124.99 98.2839L121.737 100.84L118.349 104.715L119.608 105.19L122.661 106.687L126.314 106.26L129.789 107.492L133.431 107.201L137.101 107.698L136.933 108.195Z" stroke="#383839" stroke-width="1.62816" stroke-linecap="round" stroke-linejoin="round"/>
<path d="M138.59 103.429L141.741 104.537L142.508 100.278L141.368 95.9388L137.358 94.0906L133.37 93.7717L134.802 96.9601L135.948 100.635L138.59 103.429Z" fill="#41B879"/>
<path d="M138.59 103.429L141.741 104.537L142.508 100.278L141.368 95.9388L137.358 94.0906L133.37 93.7717L134.802 96.9601L135.948 100.635L138.59 103.429Z" stroke="#383839" stroke-width="1.62816" stroke-linecap="round" stroke-linejoin="round"/>
<path d="M145.877 104.666L148.184 105.396L151.065 102.418L154.123 99.5649L156.193 95.9333L156.842 92.6855L152.837 91.4534L148.876 92.5558L146.477 94.9714L145.261 99.2028L145.326 103.64L145.877 104.666Z" fill="#41B879"/>
<path d="M145.877 104.666L148.184 105.396L151.065 102.418L154.123 99.5649L156.193 95.9333L156.842 92.6855L152.837 91.4534L148.876 92.5558L146.477 94.9714L145.261 99.2028L145.326 103.64L145.877 104.666Z" stroke="#383839" stroke-width="1.62816" stroke-linecap="round" stroke-linejoin="round"/>
<path d="M46.29 66.9674C46.29 66.9674 46.6413 71.6528 50.1323 68.4103C50.1323 68.4103 69.922 49.9446 59.33 49.2637C59.33 49.2637 46.9925 51.4631 46.2954 66.9674H46.29Z" fill="#89CB9A" stroke="#383839" stroke-width="1.62816" stroke-linecap="round" stroke-linejoin="round"/>
<path d="M54.7119 83.7308L55.5442 80.1965L59.3919 80.7153L62.3587 82.877L65.3687 84.9197L68.1789 87.238L71.0862 89.4753L73.2911 92.426L74.5233 95.8954L73.1452 99.1216L69.2273 98.0138L65.7254 95.8035L62.4559 93.2798L59.8782 90.0482L56.8627 87.2218L54.9119 83.5849L54.7119 83.7308Z" fill="#89CB9A"/>
<path d="M54.7119 83.7308L55.5442 80.1965L59.3919 80.7153L62.3587 82.877L65.3687 84.9197L68.1789 87.238L71.0862 89.4753L73.2911 92.426L74.5233 95.8954L73.1452 99.1216L69.2273 98.0138L65.7254 95.8035L62.4559 93.2798L59.8782 90.0482L56.8627 87.2218L54.9119 83.5849L54.7119 83.7308Z" stroke="#383839" stroke-width="1.62816" stroke-linecap="round" stroke-linejoin="round"/>
<path d="M50.4307 90.4912L51.7979 86.449L55.7159 88.4161L57.8829 91.518L60.6336 93.9715L63.6329 96.225L66.243 98.9L67.767 102.391L70.3231 105.19L71.5822 108.73L72.6793 112.378L71.9606 116.274L67.4265 115.831L63.9409 113.102L60.2445 110.8L57.148 107.682L55.5591 104.288L53.9163 100.981L51.933 97.7867L51.2197 94.1012L50.8738 90.4264L50.4307 90.4912Z" fill="#89CB9A"/>
<path d="M50.4307 90.4912L51.7979 86.449L55.7159 88.4161L57.8829 91.518L60.6336 93.9715L63.6329 96.225L66.243 98.9L67.767 102.391L70.3231 105.19L71.5822 108.73L72.6793 112.378L71.9606 116.274L67.4265 115.831L63.9409 113.102L60.2445 110.8L57.148 107.682L55.5591 104.288L53.9163 100.981L51.933 97.7867L51.2197 94.1012L50.8738 90.4264L50.4307 90.4912Z" stroke="#383839" stroke-width="1.62816" stroke-linecap="round" stroke-linejoin="round"/>
<path d="M41.6525 92.2262L43.9925 88.8918L46.0352 92.3342L47.7267 96.0144L48.3158 99.981L48.8562 103.98L50.0397 107.801L50.9151 111.308L51.2664 114.923L52.0392 118.539L51.7906 122.262L49.8397 125.591L46.1434 125.775L42.863 123.618L40.3123 120.376L39.8962 116.258L38.6641 112.319L39.3612 108.249L39.1721 104.169L39.5503 100.1L40.7933 96.1982L42.02 92.3018L41.6525 92.2262Z" fill="#89CB9A"/>
<path d="M41.6525 92.2262L43.9925 88.8918L46.0352 92.3342L47.7267 96.0144L48.3158 99.981L48.8562 103.98L50.0397 107.801L50.9151 111.308L51.2664 114.923L52.0392 118.539L51.7906 122.262L49.8397 125.591L46.1434 125.775L42.863 123.618L40.3123 120.376L39.8962 116.258L38.6641 112.319L39.3612 108.249L39.1721 104.169L39.5503 100.1L40.7933 96.1982L42.02 92.3018L41.6525 92.2262Z" stroke="#383839" stroke-width="1.62816" stroke-linecap="round" stroke-linejoin="round"/>
<path d="M33.5838 84.5253L36.4264 83.4661L35.6644 86.5734L34.0161 89.8159L33.1893 93.4096L31.8491 96.7925L30.39 100.127L29.4605 103.661L27.8554 106.968L27.4826 111.562L28.1689 116.242L25.3966 113.859L23.2025 111.103L21.8461 107.822L21.2139 104.315L22.0731 100.511L22.7594 96.6736L24.6779 92.9826L27.2826 89.7402L30.082 86.7085L33.5838 84.5253Z" fill="#89CB9A"/>
<path d="M33.5838 84.5253L36.4264 83.4661L35.6644 86.5734L34.0161 89.8159L33.1893 93.4096L31.8491 96.7925L30.39 100.127L29.4605 103.661L27.8554 106.968L27.4826 111.562L28.1689 116.242L25.3966 113.859L23.2025 111.103L21.8461 107.822L21.2139 104.315L22.0731 100.511L22.7594 96.6736L24.6779 92.9826L27.2826 89.7402L30.082 86.7085L33.5838 84.5253Z" stroke="#383839" stroke-width="1.62816" stroke-linecap="round" stroke-linejoin="round"/>
<path d="M33.4265 74.3765L35.4422 77.9161L32.8806 80.7857L29.4383 82.6231L26.6605 85.3089L23.4721 87.4976L20.5269 89.9997L17.7924 92.7449L15.3768 96.3657L14.9932 91.983L15.3066 88.092L16.3225 84.1416L19.1111 81.1424L21.959 78.208L25.6932 76.5111L29.3842 74.8628L33.4102 74.517L33.4265 74.3765Z" fill="#89CB9A"/>
<path d="M33.4265 74.3765L35.4422 77.9161L32.8806 80.7857L29.4383 82.6231L26.6605 85.3089L23.4721 87.4976L20.5269 89.9997L17.7924 92.7449L15.3768 96.3657L14.9932 91.983L15.3066 88.092L16.3225 84.1416L19.1111 81.1424L21.959 78.208L25.6932 76.5111L29.3842 74.8628L33.4102 74.517L33.4265 74.3765Z" stroke="#383839" stroke-width="1.62816" stroke-linecap="round" stroke-linejoin="round"/>
<path d="M37.5565 67.4592C37.5565 67.4592 44.8898 72.3499 40.3504 65.7137C40.3504 65.7137 32.6658 48.9503 26.3808 52.0954C26.3808 52.0954 17.3398 52.4467 23.0844 60.3042C23.0844 60.3042 29.8719 66.065 37.5565 67.4646V67.4592Z" fill="#89CB9A" stroke="#383839" stroke-width="1.62816" stroke-linecap="round" stroke-linejoin="round"/>
<path d="M148.603 112.605L147.755 114.064L150.333 116.944L153.726 118.873L156.201 121.921L159.049 124.407L163.032 127.914L164.329 125.829L162.524 122.802L160.708 119.652L158.628 116.593L155.321 114.923L152.105 113.523L148.603 112.605Z" fill="#41B879"/>
<path d="M148.603 112.605L147.755 114.064L150.333 116.944L153.726 118.873L156.201 121.921L159.049 124.407L163.032 127.914L164.329 125.829L162.524 122.802L160.708 119.652L158.628 116.593L155.321 114.923L152.105 113.523L148.603 112.605Z" stroke="#383839" stroke-width="1.62816" stroke-linecap="round" stroke-linejoin="round"/>
<path d="M152.171 114.14L152.83 110.551L156.489 111.016L160.12 112.664L163.752 114.296L166.189 116.085L167.848 118.555L169.972 121.624L170.388 125.304L169.75 128.876L167.405 132.189L165.108 128.633L162.666 125.612L159.904 122.867L157.164 120.1L154.581 117.193L152.284 114.069L152.171 114.14Z" fill="#41B879"/>
<path d="M152.171 114.14L152.83 110.551L156.489 111.016L160.12 112.664L163.752 114.296L166.189 116.085L167.848 118.555L169.972 121.624L170.388 125.304L169.75 128.876L167.405 132.189L165.108 128.633L162.666 125.612L159.904 122.867L157.164 120.1L154.581 117.193L152.284 114.069L152.171 114.14Z" stroke="#383839" stroke-width="1.62816" stroke-linecap="round" stroke-linejoin="round"/>
<path d="M84.9516 118.041L83.0439 115.647L85.0759 113.572L89.1722 113.01L92.7821 112.529L96.3272 113.27L99.7102 114.529L103.277 115.183L106.525 116.761L109.929 118.063L112.464 120.765L115.712 122.575L114.706 125.342L110.826 125.202L107.011 124.613L103.266 123.656L99.5697 122.575L95.776 121.932L91.8797 121.484L88.4643 119.565L84.8759 118.171L84.9516 118.041Z" fill="#41B879"/>
<path d="M84.9516 118.041L83.0439 115.647L85.0759 113.572L89.1722 113.01L92.7821 112.529L96.3272 113.27L99.7102 114.529L103.277 115.183L106.525 116.761L109.929 118.063L112.464 120.765L115.712 122.575L114.706 125.342L110.826 125.202L107.011 124.613L103.266 123.656L99.5697 122.575L95.776 121.932L91.8797 121.484L88.4643 119.565L84.8759 118.171L84.9516 118.041Z" stroke="#383839" stroke-width="1.62816" stroke-linecap="round" stroke-linejoin="round"/>
<path d="M71.576 140.695L69.944 136.718L69.2361 132.535L70.787 128.661L72.338 124.132L70.3169 121.479L66.8745 123.451L63.8158 126.013L61.6758 129.552L62.7728 133.6L65.4208 136.734L67.9607 139.42L71.576 140.695Z" fill="#41B879"/>
<path d="M71.576 140.695L69.944 136.718L69.2361 132.535L70.787 128.661L72.338 124.132L70.3169 121.479L66.8745 123.451L63.8158 126.013L61.6758 129.552L62.7728 133.6L65.4208 136.734L67.9607 139.42L71.576 140.695Z" stroke="#383839" stroke-width="1.62816" stroke-linecap="round" stroke-linejoin="round"/>
<path d="M69.7903 120.046L69.5255 117.809L66.0129 117.22L62.3597 117.215L58.9011 118.236L56.0532 120.192L54.6156 123.348L54.4697 127.028L55.7235 127.942L56.1612 127.034L58.9983 124.851L62.5705 123.083L66.429 122.116L69.8876 120.122L69.7903 120.046Z" fill="#41B879"/>
<path d="M69.7903 120.046L69.5255 117.809L66.0129 117.22L62.3597 117.215L58.9011 118.236L56.0532 120.192L54.6156 123.348L54.4697 127.028L55.7235 127.942L56.1612 127.034L58.9983 124.851L62.5705 123.083L66.429 122.116L69.8876 120.122L69.7903 120.046Z" stroke="#383839" stroke-width="1.62816" stroke-linecap="round" stroke-linejoin="round"/>
<path d="M69.1244 115.361L71.6049 112.886L69.4162 110.151L67.3086 107.417L64.9795 104.628L62.861 106.574L61.2128 108.287L59.9267 109.6L58.2676 111.032L60.0509 112.194L64.4445 114.194L69.092 115.604L69.1244 115.361Z" fill="#41B879"/>
<path d="M69.1244 115.361L71.6049 112.886L69.4162 110.151L67.3086 107.417L64.9795 104.628L62.861 106.574L61.2128 108.287L59.9267 109.6L58.2676 111.032L60.0509 112.194L64.4445 114.194L69.092 115.604L69.1244 115.361Z" stroke="#383839" stroke-width="1.62816" stroke-linecap="round" stroke-linejoin="round"/>
<path d="M73.4694 111.94L75.5554 109.627L75.35 105.12L75.2636 100.613L75.6527 99.7378L74.3827 94.8579L73.1343 95.836L70.8755 95.782L67.9788 96.2359L66.2441 100.894L67.0764 103.353L68.7354 106.617L70.7458 109.67L73.4478 111.946L73.4694 111.94Z" fill="#41B879"/>
<path d="M73.4694 111.94L75.5554 109.627L75.35 105.12L75.2636 100.613L75.6527 99.7378L74.3827 94.8579L73.1343 95.836L70.8755 95.782L67.9788 96.2359L66.2441 100.894L67.0764 103.353L68.7354 106.617L70.7458 109.67L73.4478 111.946L73.4694 111.94Z" stroke="#383839" stroke-width="1.62816" stroke-linecap="round" stroke-linejoin="round"/>
<path d="M78.4971 109.897L79.4157 109.4L81.626 108.736L83.5877 105.504L86.8518 103.44L88.9053 100.186L92.4072 98.6083L95.4713 96.5926L99.4 95.2307L95.4983 94.6795L92.0073 94.1067L88.4784 94.6903L85.2251 96.2305L83.1014 99.1379L81.2531 100.743L79.1942 105.028L78.5619 109.687L78.4971 109.897Z" fill="#41B879"/>
<path d="M78.4971 109.897L79.4157 109.4L81.626 108.736L83.5877 105.504L86.8518 103.44L88.9053 100.186L92.4072 98.6083L95.4713 96.5926L99.4 95.2307L95.4983 94.6795L92.0073 94.1067L88.4784 94.6903L85.2251 96.2305L83.1014 99.1379L81.2531 100.743L79.1942 105.028L78.5619 109.687L78.4971 109.897Z" stroke="#383839" stroke-width="1.62816" stroke-linecap="round" stroke-linejoin="round"/>
<path d="M76.0803 122.289L78.1825 119.711L81.76 119.176L83.3704 121.089L87.0722 122.624L89.8607 125.375L92.833 127.942L95.081 131.206L95.2648 135.043L91.336 133.994L87.2776 133.292L83.9378 130.827L80.436 128.839L77.3773 126.121L75.6426 122.316L76.0803 122.289Z" fill="#41B879"/>
<path d="M76.0803 122.289L78.1825 119.711L81.76 119.176L83.3704 121.089L87.0722 122.624L89.8607 125.375L92.833 127.942L95.081 131.206L95.2648 135.043L91.336 133.994L87.2776 133.292L83.9378 130.827L80.436 128.839L77.3773 126.121L75.6426 122.316L76.0803 122.289Z" stroke="#383839" stroke-width="1.62816" stroke-linecap="round" stroke-linejoin="round"/>
<path d="M53.0977 43.8486L55.1512 40.7142L57.1128 37.7204L60.177 35.8506L63.306 34.3915L66.7213 34.1699L70.2177 33.9591L73.725 33.4944L76.9188 34.8994L77.6051 38.4121L73.6764 39.0444L69.9746 39.7469L66.1701 40.0387L62.4899 40.9682L58.8314 42.0436L55.3836 44.1026" fill="#FFF6F0"/>
<path d="M53.9989 44.4053C53.8909 42.9246 63.5804 29.2198 70.2166 30.6141C70.2166 30.6141 77.5553 31.7543 77.9228 36.1154C78.0309 37.4124 77.0312 38.5473 75.7288 38.6391C71.6217 38.931 61.3701 40.0604 57.2684 44.1405" stroke="#383839" stroke-width="1.62816" stroke-linecap="round" stroke-linejoin="round"/>
<path d="M15.6085 51.1282L12.6363 53.2466L9.43166 55.0462L6.61074 57.3861L4.55176 60.2773L5.21651 56.6566L6.13518 53.0412L8.01038 49.7015L11.0259 47.3345L13.9386 44.9135L17.3378 43.2166L20.9532 41.1415L25.0765 40.4443L29.2052 40.6605L33.2475 41.1847L36.9816 42.8437L40.2295 44.9351L36.7277 44.4001L32.988 45.3026L29.2106 45.2864L25.4061 45.5836L22.034 47.4588L18.6186 48.9179L15.7328 51.1984L15.6085 51.1282Z" fill="#FFF6F0"/>
<path d="M15.6085 51.1282L12.6363 53.2466L9.43166 55.0462L6.61074 57.3861L4.55176 60.2773L5.21651 56.6566L6.13518 53.0412L8.01038 49.7015L11.0259 47.3345L13.9386 44.9135L17.3378 43.2166L20.9532 41.1415L25.0765 40.4443L29.2052 40.6605L33.2475 41.1847L36.9816 42.8437L40.2295 44.9351L36.7277 44.4001L32.988 45.3026L29.2106 45.2864L25.4061 45.5836L22.034 47.4588L18.6186 48.9179L15.7328 51.1984L15.6085 51.1282Z" stroke="#383839" stroke-width="1.62816" stroke-linecap="round" stroke-linejoin="round"/>
<path d="M48.7337 48.5991C48.7337 48.5991 40.0116 41.0009 27.0796 44.4109C26.0312 44.7622 18.0008 47.5561 15.5527 51.0471L19.7409 50.35C19.7409 50.35 23.4751 47.1832 31.5055 46.1348C31.5055 46.1348 36.8556 44.7622 46.2803 48.9503L48.723 48.5991H48.7337Z" fill="#41B879" stroke="#383839" stroke-width="1.62816" stroke-linecap="round" stroke-linejoin="round"/>
<path d="M41.5238 48.7937L37.487 48.1776L33.4934 47.3616L29.4349 48.2262L25.3764 47.7561L21.4585 48.8045L17.6108 49.9555L13.6171 50.9066L10.4233 53.4844L6.98092 55.6298L4.64639 58.9857L2.41991 61.7202L1.62012 65.2653L3.03598 68.7671L5.56505 71.5502L9.35873 72.096L13.0552 71.0584L16.1679 68.8103L18.5403 65.8111L20.2696 62.4227L23.1229 58.9263L26.3275 56.1972L29.516 53.4358L33.542 52.0901L37.3843 50.5338L41.3941 49.2908L41.5238 48.7937Z" fill="#FFF6F0"/>
<path d="M41.5238 48.7937L37.487 48.1776L33.4934 47.3616L29.4349 48.2262L25.3764 47.7561L21.4585 48.8045L17.6108 49.9555L13.6171 50.9066L10.4233 53.4844L6.98092 55.6298L4.64639 58.9857L2.41991 61.7202L1.62012 65.2653L3.03598 68.7671L5.56505 71.5502L9.35873 72.096L13.0552 71.0584L16.1679 68.8103L18.5403 65.8111L20.2696 62.4227L23.1229 58.9263L26.3275 56.1972L29.516 53.4358L33.542 52.0901L37.3843 50.5338L41.3941 49.2908L41.5238 48.7937Z" stroke="#383839" stroke-width="1.62816" stroke-linecap="round" stroke-linejoin="round"/>
<path d="M43.7528 39.509L46.4063 38.5687L46.3252 35.2506L47.2006 32.046L47.2709 31.057L47.7302 26.7878L48.4652 22.5186L48.2004 22.1889L45.6713 21.5134L44.4986 24.4803L44.6553 24.8099L42.2181 26.1123L41.1913 25.8421L37.2896 23.7291L34.1444 26.7392L33.6094 28.1496L34.6037 32.1324L37.2734 35.056L39.8295 38.2012L43.7528 39.509Z" fill="#FFF6F0"/>
<path d="M43.7528 39.509L46.4063 38.5687L46.3252 35.2506L47.2006 32.046L47.2709 31.057L47.7302 26.7878L48.4652 22.5186L48.2004 22.1889L45.6713 21.5134L44.4986 24.4803L44.6553 24.8099L42.2181 26.1123L41.1913 25.8421L37.2896 23.7291L34.1444 26.7392L33.6094 28.1496L34.6037 32.1324L37.2734 35.056L39.8295 38.2012L43.7528 39.509Z" stroke="#383839" stroke-width="1.62816" stroke-linecap="round" stroke-linejoin="round"/>
<path d="M38.0889 28.2962C38.6402 28.2097 41.0347 27.5179 42.3319 26.5396L38.0889 28.2962Z" fill="#41B879"/>
<path d="M37.6494 28.0099C37.6494 28.0099 39.7305 27.3342 41.8925 26.2532" stroke="#383839" stroke-width="1.62816" stroke-linecap="round" stroke-linejoin="round"/>
<path d="M138.714 117.863L140.789 115.139L143.88 113.972L146.939 114.54L148.392 118.404L148.976 122.413L149.025 126.477L147.857 130.406L146.052 133.919L144.42 137.475L141.005 137.696L140.34 134.313L139.141 131.168L138.573 127.861L138.373 124.564L137.784 121.208L138.773 118.079L138.714 117.863Z" fill="#41B879"/>
<path d="M138.714 117.863L140.789 115.139L143.88 113.972L146.939 114.54L148.392 118.404L148.976 122.413L149.025 126.477L147.857 130.406L146.052 133.919L144.42 137.475L141.005 137.696L140.34 134.313L139.141 131.168L138.573 127.861L138.373 124.564L137.784 121.208L138.773 118.079L138.714 117.863Z" stroke="#383839" stroke-width="1.62816" stroke-linecap="round" stroke-linejoin="round"/>
<path d="M93.1387 186.29L96.781 187.16L100.429 186.987L104.077 186.668L107.73 186.517" stroke="#F3F2F2" stroke-width="2.17088" stroke-linecap="round" stroke-linejoin="round"/>
<path d="M99.8926 186.987C99.8926 186.987 103.005 194.369 107.529 186.987H99.8926Z" fill="#F3F2F2" stroke="#F3F2F2" stroke-width="2.17088" stroke-linecap="round" stroke-linejoin="round"/>
<path d="M113.572 186.236L117.215 186.835L120.862 186.792L124.51 187.008L128.163 186.441" stroke="#F3F2F2" stroke-width="2.17088" stroke-linecap="round" stroke-linejoin="round"/>
<path d="M120.327 186.981C120.327 186.981 123.44 194.363 127.963 186.981H120.327Z" fill="#F3F2F2" stroke="#F3F2F2" stroke-width="2.17088" stroke-linecap="round" stroke-linejoin="round"/>
<path d="M115.741 196.028L115.535 197.898L115.119 199.784L113.503 200.81L111.828 201.524L109.969 201.951L108.223 201.41L106.581 200.697L105.392 199.357L104.392 197.844L103.933 196.028" stroke="#F3F2F2" stroke-width="2.17088" stroke-linecap="round" stroke-linejoin="round"/>
<path d="M83.9326 111.902L85.3539 112.54L88.9962 110.951L92.0118 108.346L95.7459 106.968L99.0749 104.774L102.901 103.748L106.749 102.996L110.586 102.337L114.493 101.732L118.881 102.526L115.595 99.4135L111.964 97.4464L107.873 97.0681L103.793 96.5439L99.7504 97.3924L96.0918 99.2622L92.6602 101.435L89.7096 103.386L86.6131 105.293L85.235 108.687L84.2245 111.886L83.9326 111.902Z" fill="#41B879"/>
<path d="M83.9326 111.902L85.3539 112.54L88.9962 110.951L92.0118 108.346L95.7459 106.968L99.0749 104.774L102.901 103.748L106.749 102.996L110.586 102.337L114.493 101.732L118.881 102.526L115.595 99.4135L111.964 97.4464L107.873 97.0681L103.793 96.5439L99.7504 97.3924L96.0918 99.2622L92.6602 101.435L89.7096 103.386L86.6131 105.293L85.235 108.687L84.2245 111.886L83.9326 111.902Z" stroke="#383839" stroke-width="1.62816" stroke-linecap="round" stroke-linejoin="round"/>
<path d="M122.104 42.9136L121.153 45.3887L123.428 47.0586L127.454 45.8481L131.583 45.1563L135.723 44.1674L139.56 44.4862L143.364 43.6972L147.201 43.9999L151.011 44.6375L154.886 44.4322L157.512 46.4263L156.782 42.7839L153.67 40.0873L151.994 36.9313L149.849 34.0564L146.412 33.0188L143.045 32.1433L139.046 32.9863L135.118 33.905L130.983 34.5643L127.465 36.7638L124.693 39.8333L122.191 42.8056L122.104 42.9136Z" fill="#41B879"/>
<path d="M122.104 42.9136L121.153 45.3887L123.428 47.0586L127.454 45.8481L131.583 45.1563L135.723 44.1674L139.56 44.4862L143.364 43.6972L147.201 43.9999L151.011 44.6375L154.886 44.4322L157.512 46.4263L156.782 42.7839L153.67 40.0873L151.994 36.9313L149.849 34.0564L146.412 33.0188L143.045 32.1433L139.046 32.9863L135.118 33.905L130.983 34.5643L127.465 36.7638L124.693 39.8333L122.191 42.8056L122.104 42.9136Z" stroke="#383839" stroke-width="1.62816" stroke-linecap="round" stroke-linejoin="round"/>
<path d="M49.5266 48.6259L45.4519 47.9558L41.7068 49.3879L37.7673 49.8635L34.2438 51.6792L31.8714 54.7325L29.1424 57.2184L28.1805 60.7743L25.9702 63.6817L24.9704 67.1511L24.2949 70.7178L25.3703 74.1764L27.1699 76.7866L30.3313 77.0838L33.5359 76.1435L35.2436 73.2793L36.5406 69.7937L38.3996 66.5512L40.4963 63.4385L42.2689 60.1744L43.6199 56.6618L45.3384 53.3113L48.6673 51.2793L49.5266 48.6259Z" fill="#FFF6F0"/>
<path d="M49.5266 48.6259L45.4519 47.9558L41.7068 49.3879L37.7673 49.8635L34.2438 51.6792L31.8714 54.7325L29.1424 57.2184L28.1805 60.7743L25.9702 63.6817L24.9704 67.1511L24.2949 70.7178L25.3703 74.1764L27.1699 76.7866L30.3313 77.0838L33.5359 76.1435L35.2436 73.2793L36.5406 69.7937L38.3996 66.5512L40.4963 63.4385L42.2689 60.1744L43.6199 56.6618L45.3384 53.3113L48.6673 51.2793L49.5266 48.6259Z" stroke="#383839" stroke-width="1.62816" stroke-linecap="round" stroke-linejoin="round"/>
<path d="M48.1187 52.3278L48.6753 48.934L52.3393 47.7343L55.2953 45.0863L59.0512 44.2595L62.9907 47.9721L64.1689 51.8036L65.3631 55.6513L66.1251 59.6125L67.0817 63.4116L63.2231 64.9031L59.9267 62.6982L56.6842 60.4555L53.9551 57.5536L51.0369 54.9488L47.7891 52.5494L48.1187 52.3278Z" fill="#FFF6F0"/>
<path d="M48.1187 52.3278L48.6753 48.934L52.3393 47.7343L55.2953 45.0863L59.0512 44.2595L62.9907 47.9721L64.1689 51.8036L65.3631 55.6513L66.1251 59.6125L67.0817 63.4116L63.2231 64.9031L59.9267 62.6982L56.6842 60.4555L53.9551 57.5536L51.0369 54.9488L47.7891 52.5494L48.1187 52.3278Z" stroke="#383839" stroke-width="1.62816" stroke-linecap="round" stroke-linejoin="round"/>
<path d="M58.2949 37.6342L61.2347 35.0078L63.6125 31.9166L66.9738 29.9442L70.2919 28.0743L73.7398 26.4964L77.4902 25.9343L81.1866 26.7017L84.5263 28.4959L86.8717 31.0628L84.7803 33.3811L81.5757 35.1861L77.9063 34.8348L77.1498 35.0618L73.3723 35.359L69.6218 35.9265L65.8714 36.4074L62.0345 36.3642L58.2949 37.6342Z" fill="#FFF6F0"/>
<path d="M58.2949 37.6342L61.2347 35.0078L63.6125 31.9166L66.9738 29.9442L70.2919 28.0743L73.7398 26.4964L77.4902 25.9343L81.1866 26.7017L84.5263 28.4959L86.8717 31.0628L84.7803 33.3811L81.5757 35.1861L77.9063 34.8348L77.1498 35.0618L73.3723 35.359L69.6218 35.9265L65.8714 36.4074L62.0345 36.3642L58.2949 37.6342Z" stroke="#383839" stroke-width="1.62816" stroke-linecap="round" stroke-linejoin="round"/>
</svg>
