<svg width="210" height="234" viewBox="0 0 210 234" fill="none" xmlns="http://www.w3.org/2000/svg">
<rect width="210" height="234" fill="transparent"/>
<path d="M125.209 233.485L123.429 233.561L121.583 233.328L119.738 233.729L117.893 233.425L116.048 233.29L114.202 233.534L112.357 233.344L110.512 233.23L108.667 233.61L106.821 233.778L104.976 233.371L103.136 233.871L101.291 233.653L99.4457 233.355L97.6004 233.572L95.7552 233.529L93.9099 233.659L92.0646 233.833L90.2194 233.36L88.3741 233.436L86.5289 233.751L84.6836 233.529L82.8384 233.643L80.9932 233.653L79.1479 233.708L77.3027 233.496L75.4574 233.507L73.6121 233.746L71.7669 233.36L69.9162 233.648L68.0058 233.605L67.4522 231.738L67.5119 229.811L66.9367 228.004L66.5296 226.164L66.5567 224.243L65.9109 222.452L65.8783 220.541L65.124 218.772L65.048 216.872L64.9069 214.984L64.4781 213.149L64.1254 211.304L63.5609 209.497L63.219 207.646L63.0182 205.768L62.584 203.934L62.177 202.094L61.9816 200.216L61.6994 198.355L61.4009 196.493L60.8962 194.67L60.7334 192.787L59.9084 191.023L59.5177 189.177L59.1649 187.327L58.8773 185.46L58.6113 183.533L60.5434 183.653L62.4266 183.43L64.3099 183.761L66.1931 183.289L68.0764 183.663L69.9596 183.49L71.8429 183.691L73.7261 183.349L75.6093 183.316H77.4926L79.3758 183.332L81.2591 183.647L83.1423 183.522L85.0256 183.267L86.9088 183.718L88.7921 183.24L90.6753 183.381L92.5585 183.669L94.4418 183.273L96.325 183.577L98.2083 183.587L100.092 183.555L101.975 183.289L103.858 183.376L105.741 183.739L107.624 183.365L109.508 183.283L111.391 183.783L113.274 183.251L115.157 183.235L117.041 183.81L118.924 183.707L120.807 183.723L122.69 183.49L124.574 183.631L126.457 183.349L128.34 183.566L130.229 183.783L132.15 183.544L132.123 185.454L131.499 187.251L131.58 189.145L131.162 190.968L130.69 192.787L130.658 194.664L130.359 196.51L129.854 198.322L129.708 200.184L129.67 202.062L129.057 203.858L128.905 205.72L129.078 207.63L128.753 209.47L128.356 211.304L128.128 213.155L128.069 215.033L127.857 216.889L127.45 218.718L126.989 220.541L127.092 222.441L126.457 224.237L126.386 226.115L125.887 227.933L126.001 229.838L125.301 231.629L125.198 233.447L125.209 233.485Z" fill="#363737"/>
<path d="M138.492 184.098L136.658 184.353L134.785 183.875L132.913 184.108L131.041 184.309L129.168 184.168H127.296L125.418 183.929L123.546 184.049L121.673 183.875L119.801 184.38L117.928 184.358L116.056 184.336L114.178 184.114L112.306 183.984L110.433 184.054L108.556 184.249L106.678 184.271H104.805L102.933 184.016L101.055 184.309L99.1774 184.043L97.2995 184.293L95.4217 184.266L93.5439 183.994L91.6661 184.467L89.7883 184.38L87.9105 184.217L86.0381 184.027L84.1602 184.19L82.2879 183.956L80.4155 184.092L78.5376 184.277L76.6653 184.06L74.7875 184.228L72.9096 184.445L71.0318 184.043L69.154 184.287L67.2762 184.271L65.3984 184.336L63.5206 184.179L61.6427 183.886L59.7649 183.929L57.8871 184.076L56.0093 184.374L54.1261 184.211L52.3134 184.06L52.0529 182.225L52.4925 180.32L52.3622 178.415L52.563 176.505L52.3676 174.6L52.0637 172.69L52.3405 170.779L51.9932 168.869L52.5088 166.958L52.3513 165.146L54.1261 165.341L55.9985 164.728L57.8708 164.842L59.7432 165.189L61.6156 165.026L63.488 165.146L65.3658 165.113L67.2382 165.238L69.1106 164.934L70.983 164.793L72.8554 165.108L74.7332 164.842L76.611 165.048L78.4834 164.912L80.3558 165.178L82.2281 164.983L84.106 165.33L85.9784 164.755H87.8508L89.7286 165.064L91.6064 164.825L93.4788 164.853L95.3566 164.771L97.2344 164.999L99.1122 165.135L100.99 164.977L102.862 165.157L104.74 165.059L106.613 164.76L108.485 165.238H110.357L112.235 165.222L114.113 165.14L115.991 165.292L117.869 164.896L119.746 164.825L121.624 164.923L123.502 164.939L125.38 164.918L127.258 164.847L129.136 165.129L131.013 164.863L132.891 165.01L134.769 164.863L136.652 165.211L138.682 164.901L138.221 166.953L138.4 168.858L138.286 170.768L138.568 172.679L138.812 174.584L138.845 176.489L138.259 178.399L138.232 180.309L138.877 182.225L138.503 184.092H138.492V184.098Z" fill="#363737"/>
<path d="M122.602 86.7334L120.725 89.7075L117.957 92.4591L116.649 96.1062L114.445 99.2811L112.92 102.803L112.15 106.602L110.793 110.163L109.876 113.869L107.943 117.289L107.531 121.077L106.272 124.615L105.029 128.154L103.575 131.627L102.798 135.329L101.501 138.856L100.432 142.357L99.5259 146.796L99.0754 151.328L98.1094 155.659L100.818 153.195L102.353 149.575L103.499 145.868L104.188 142.01L105.447 138.341L106.489 134.596L108.361 131.133L108.975 127.248L110.06 123.514L111.211 119.807L112.041 116.317L113.653 112.849L115.314 109.452L115.965 105.669L117.913 102.407L119.721 99.1074L121.104 95.596L122.695 92.1715L125.164 88.8609L122.602 86.7334Z" fill="#FFF6F0"/>
<path d="M122.602 86.7334L120.725 89.7075L117.957 92.4591L116.649 96.1062L114.445 99.2811L112.92 102.803L112.15 106.602L110.793 110.163L109.876 113.869L107.943 117.289L107.531 121.077L106.272 124.615L105.029 128.154L103.575 131.627L102.798 135.329L101.501 138.856L100.432 142.357L99.5259 146.796L99.0754 151.328L98.1094 155.659L100.818 153.195L102.353 149.575L103.499 145.868L104.188 142.01L105.447 138.341L106.489 134.596L108.361 131.133L108.975 127.248L110.06 123.514L111.211 119.807L112.041 116.317L113.653 112.849L115.314 109.452L115.965 105.669L117.913 102.407L119.721 99.1074L121.104 95.596L122.695 92.1715L125.164 88.8609L122.602 86.7334Z" stroke="#383839" stroke-width="1.62816" stroke-linecap="round" stroke-linejoin="round"/>
<path d="M123.087 91.3411L127.049 90.6735L130.783 91.9435L134.23 94.109L137.155 96.9528L139.95 99.9215L143.076 102.505L145.665 104.806L148.574 106.374L146.533 101.523L145.496 97.8483L144.975 93.9624L142.099 91.3085L139.244 88.698L135.445 87.9057L131.771 86.8636L127.522 84.9804L126.414 81.1162L123.983 78.3483L120.531 77.1489L118.127 75.5696L116.808 71.4178L116.852 67.0055L114.529 63.0056L113.123 65.6432L110.708 64.2919L110.811 67.6947L111.831 73.1925L114.252 74.8966L116.151 77.594L117.894 81.5884L120.238 85.3386L120.493 89.523L122.409 90.7658L123.087 91.3411Z" fill="#FFF6F0"/>
<path d="M123.087 91.3411L127.049 90.6735L130.783 91.9435L134.23 94.109L137.155 96.9528L139.95 99.9215L143.076 102.505L145.665 104.806L148.574 106.374L146.533 101.523L145.496 97.8483L144.975 93.9624L142.099 91.3085L139.244 88.698L135.445 87.9057L131.771 86.8636L127.522 84.9804L126.414 81.1162L123.983 78.3483L120.531 77.1489L118.127 75.5696L116.808 71.4178L116.852 67.0055L114.529 63.0056L113.123 65.6432L110.708 64.2919L110.811 67.6947L111.831 73.1925L114.252 74.8966L116.151 77.594L117.894 81.5884L120.238 85.3386L120.493 89.523L122.409 90.7658L123.087 91.3411Z" stroke="#383839" stroke-width="1.62816" stroke-linecap="round" stroke-linejoin="round"/>
<path d="M76.3559 120.87L79.3409 123.144L81.7072 126.048L83.992 128.968L86.1629 132.002L87.7314 135.404L89.6635 138.379L91.9103 141.494L93.5927 144.973L95.5574 148.283L98.8029 150.85L99.4921 154.758L99.9643 158.367L97.7717 156.891L95.4163 154.177L93.7284 150.975L92.1491 147.719L89.7231 144.956L88.6811 141.369L86.711 138.335L85.5496 136.506L84.1169 132.995L81.6963 130.08L79.4169 127.101L77.0886 124.154L74.6572 121.484L76.3559 120.979V120.87Z" fill="#FFF6F0"/>
<path d="M76.3559 120.87L79.3409 123.144L81.7072 126.048L83.992 128.968L86.1629 132.002L87.7314 135.404L89.6634 138.379L91.9103 141.494L93.5927 144.973L95.5574 148.283L98.8029 150.85L99.4921 154.758L99.9643 158.367L97.7717 156.891L95.4163 154.177L93.7284 150.975L92.1491 147.719L89.7231 144.956L88.6811 141.369L86.711 138.335L85.5496 136.506L84.1169 132.995L81.6963 130.08L79.4169 127.101L77.0886 124.154L74.6572 121.484L76.3559 120.979V120.87Z" stroke="#383839" stroke-width="1.62816" stroke-linecap="round" stroke-linejoin="round"/>
<path d="M79.3477 126.797L75.9448 126.558L72.4388 126.873L69.2693 128.436L66.8651 130.992L65.6494 132.23L63.0769 135.41L59.902 137.988L56.7379 140.582L53.5576 142.297L50.3718 143.909L49.6445 141.174L50.0841 138.2L51.4355 134.835L52.1899 131.209L54.8981 128.718L57.5574 126.314L60.6672 124.42L64.2654 123.807L67.538 122.58L70.154 120.301L73.8282 120.105L74.9788 116.892L77.4101 114.998L80.2703 113.853L82.0558 111.275L84.4493 108.442L85.2036 104.046L86.9132 99.8347L89.2903 101.669L91.8954 100.242L91.8791 105.115L89.7625 110.266L87.2768 111.965L86.0286 115.215L83.798 118.282L81.6597 121.468L81.8822 125.299L80.4277 125.625L79.3477 126.797Z" fill="#41B879"/>
<path d="M79.3477 126.797L75.9448 126.558L72.4388 126.873L69.2693 128.436L66.8651 130.992L65.6494 132.23L63.0769 135.41L59.902 137.988L56.7379 140.582L53.5576 142.297L50.3718 143.909L49.6445 141.174L50.0841 138.2L51.4355 134.835L52.1899 131.209L54.8981 128.718L57.5574 126.314L60.6672 124.42L64.2654 123.807L67.538 122.58L70.154 120.301L73.8282 120.105L74.9788 116.892L77.4101 114.998L80.2703 113.853L82.0558 111.275L84.4493 108.442L85.2036 104.046L86.9132 99.8347L89.2903 101.669L91.8954 100.242L91.8791 105.115L89.7625 110.266L87.2768 111.965L86.0286 115.215L83.798 118.282L81.6597 121.468L81.8822 125.299L80.4277 125.625L79.3477 126.797Z" stroke="#383839" stroke-width="1.62816" stroke-linecap="round" stroke-linejoin="round"/>
<path d="M91.9215 165.081L95.9756 165.612L100.035 165.195L100.54 161.851L101.517 158.139L103.91 155.094L106.825 152.56L110.244 150.465L113.109 147.621L116.507 145.483L119.828 143.247L123.323 141.261L126.428 138.721L129.771 136.528L133.494 134.58L133.678 130.922L135.665 127.758L131.768 129.825L128.49 132.257L125.028 134.379L121.223 135.969L117.788 138.145L114.363 140.332L111.15 142.851L107.666 144.956L104.361 147.344L101.197 149.249L101.262 145.591L101.756 141.564L100.817 137.543L101.126 133.51L100.567 129.511L100.757 125.456L100.301 121.451L100.057 117.419L99.6933 113.392L98.3365 109.517L98.2008 105.696L98.0163 101.875L97.3161 98.1413L95.9322 94.5159L96.0842 90.6355L94.8956 86.983L93.8102 83.325L93.7722 79.4554L92.3665 75.6564L87.6611 75.3145L88.9419 79.526L89.3544 83.477L90.0817 87.3629L90.6244 91.2813L91.6881 95.1184L92.2743 99.0314L92.9907 102.923L93.262 106.885L94.1304 110.765L93.6094 114.814L94.38 118.705L94.7871 122.64L94.8902 126.596L95.612 130.509L96.0136 134.455L95.3352 138.433L96.1004 142.384L95.8942 146.346L95.6988 150.308L95.2158 154.242L93.9241 158.02L93.2729 161.911L91.9215 165.081Z" fill="#FFF6F0"/>
<path d="M91.9215 165.081L95.9756 165.612L100.035 165.195L100.54 161.851L101.517 158.139L103.91 155.094L106.825 152.56L110.244 150.465L113.109 147.621L116.507 145.483L119.828 143.247L123.323 141.261L126.428 138.721L129.771 136.528L133.494 134.58L133.678 130.922L135.665 127.758L131.768 129.825L128.49 132.257L125.028 134.379L121.223 135.969L117.788 138.145L114.363 140.332L111.15 142.851L107.666 144.956L104.361 147.344L101.197 149.249L101.262 145.591L101.756 141.564L100.817 137.543L101.126 133.51L100.567 129.511L100.757 125.456L100.301 121.451L100.057 117.419L99.6933 113.392L98.3365 109.517L98.2008 105.696L98.0163 101.875L97.3161 98.1413L95.9322 94.5159L96.0842 90.6355L94.8956 86.983L93.8102 83.325L93.7722 79.4554L92.3665 75.6564L87.6611 75.3145L88.9419 79.526L89.3544 83.477L90.0817 87.3629L90.6244 91.2813L91.6881 95.1184L92.2743 99.0314L92.9907 102.923L93.262 106.885L94.1304 110.765L93.6094 114.814L94.38 118.705L94.7871 122.64L94.8902 126.596L95.612 130.509L96.0136 134.455L95.3352 138.433L96.1004 142.384L95.8942 146.346L95.6988 150.308L95.2158 154.242L93.9241 158.02L93.2729 161.911L91.9215 165.081Z" stroke="#383839" stroke-width="1.62816" stroke-linecap="round" stroke-linejoin="round"/>
<path d="M137.552 105.87L134.029 105.864L130.784 106.445L128.314 108.149L128.732 111.536L130.312 115.671L130.947 119.932L128.032 122.993L125.764 125.836L127.435 128.724L130.827 129.397L131.435 132.631L130.263 135.714L130.024 139.681L130.583 143.67L134.008 144.625L138.604 143.247L141.611 146.791L141.6 150.802L143.131 154.563L144.33 158.307L146.365 161.732L147.543 167.083L149.421 171.273L150.685 174.578L151.657 177.769L153.432 181.118L156.118 183.794L159.977 182.882L162.978 178.985L165.024 174.833L169.252 173.422L170.213 174.405L171.602 176.499L173.485 176.12L173.881 172.011L174.538 167.789L174.381 163.539L173.208 159.132L170.028 154.416L170.413 153.521L173.23 153.711L175.417 152.191L175.803 148.441L174.044 145.032L170.782 141.57L169.523 137.212L171.955 133.185L169.957 129.087L169.431 125.484L167.651 122.33L165.529 119.4L162.457 117.365L161.99 112.751L158.316 111.791L156.069 114.721L154.441 114.917L151.57 117.967L151.624 121.495L151.277 125.006L150.609 128.653L150.62 124.577L149.204 120.941L148.194 117.153L146.105 113.837L143.967 110.532L141.025 107.883L137.443 106.282L137.552 105.87Z" fill="#89CB9A"/>
<path d="M137.552 105.87L134.029 105.864L130.784 106.445L128.314 108.149L128.732 111.536L130.312 115.671L130.947 119.932L128.032 122.993L125.764 125.836L127.435 128.724L130.827 129.397L131.435 132.631L130.263 135.714L130.024 139.681L130.583 143.67L134.008 144.625L138.604 143.247L141.611 146.791L141.6 150.802L143.131 154.563L144.33 158.307L146.365 161.732L147.543 167.083L149.421 171.273L150.685 174.578L151.657 177.769L153.432 181.118L156.118 183.794L159.977 182.882L162.978 178.985L165.024 174.833L169.252 173.422L170.213 174.405L171.602 176.499L173.485 176.12L173.881 172.011L174.538 167.789L174.381 163.539L173.208 159.132L170.028 154.416L170.413 153.521L173.23 153.711L175.417 152.191L175.803 148.441L174.044 145.032L170.782 141.57L169.523 137.212L171.955 133.185L169.957 129.087L169.431 125.484L167.651 122.33L165.529 119.4L162.457 117.365L161.99 112.751L158.316 111.791L156.069 114.721L154.441 114.917L151.57 117.967L151.624 121.495L151.277 125.006L150.609 128.653L150.62 124.577L149.204 120.941L148.194 117.153L146.105 113.837L143.967 110.532L141.025 107.883L137.443 106.282L137.552 105.87Z" stroke="#383839" stroke-width="1.62816" stroke-linecap="round" stroke-linejoin="round"/>
<path d="M78.1667 54.4522L81.5152 54.4848L84.2452 52.4442L88.1799 49.6274L90.8664 47.1201L92.945 43.994L96.1742 42.1433L99.1211 39.8585L102.817 39.6631L106.296 40.3795L110.996 40.9602L114.789 39.4243L116.032 39.1149L118.268 42.0348L122.556 42.7512L126.366 44.477L129.986 46.5122L132.878 49.1336L134.018 51.223L135.749 53.4102L135.391 56.4169L131.277 55.4725L127.012 55.3857L122.865 54.6748V55.3749L124.781 59.1685L125.742 62.821L121.823 62.0992L117.818 60.6881L113.867 59.1142L109.867 57.5729L105.634 57.9908L105.384 60.7532L107.582 63.0327L109.341 65.6811L112.239 68.8018L114.138 72.6225L114.806 76.7798L112.06 79.5911L110.079 81.5829L107.506 79.7485L104.852 76.8395L102.204 73.9359L98.8932 71.7053L96.3967 68.6281L93.276 66.2347L90.3236 65.5617L92.8581 69.2414L96.0276 71.955L98.1117 75.5478L100.961 78.5708L102.318 82.4838L102.654 86.0006L101.091 88.101L97.9814 87.466L94.9042 85.3494L92.2286 82.69L88.9777 80.8068L85.6182 79.0809L82.6875 76.7527L81.5261 76.2425L81.5532 79.0484L82.9752 82.4512L84.1149 85.9572L85.9981 89.1701L87.1053 92.7141L87.7837 96.4046L87.0456 100.117L84.0878 102.315L82.1557 105.501L78.6931 106.629L75.5074 104.8L72.2782 103.959H69.1683L65.0762 104.714L61.1524 106.222L56.9571 106.553L52.8107 105.414L50.1514 100.535L48.2302 97.0993L47.4432 93.2242L47.8774 89.0887L44.0295 87.9327L40.8491 89.7617L37.2183 91.5744L34.7761 88.8173L34.5536 85.4742L37.023 82.6249L36.426 78.6902L39.8397 74.9128L41.4679 71.993L44.3714 70.4028L48.2736 68.525L52.3874 67.1194L56.2299 65.0082L52.306 63.6188L48.7023 61.4968L44.7296 60.2539L41.0499 58.3056L37.0718 57.0681L36.8167 54.4034L37.0338 52.1348L41.2725 52.5527L45.3863 51.7712L49.4567 50.9408L49.6521 49.3072L46.2492 47.1201L42.9441 44.7701L40.3119 41.6169L36.9958 39.2615L34 36.3959L37.0447 34.7297L41.0717 33.0256L37.9782 30.0678L43.0851 28L48.6698 29.3677L52.8596 30.2197L57.1199 30.4802L59.7738 28.3528L64.0233 28.966L66.9595 32.4178L70.3732 34.6103L74.1071 33.6823L75.2902 37.0906L75.5942 41.3672L73.9931 45.3725L74.8343 48.7591L75.8655 51.8743L78.1667 54.4522Z" fill="#41B879"/>
<path d="M78.1667 54.4522L81.5152 54.4848L84.2452 52.4442L88.1799 49.6274L90.8664 47.1201L92.945 43.994L96.1742 42.1433L99.1211 39.8585L102.817 39.6631L106.296 40.3795L110.996 40.9602L114.789 39.4243L116.032 39.1149L118.268 42.0348L122.556 42.7512L126.366 44.477L129.986 46.5122L132.878 49.1336L134.018 51.223L135.749 53.4102L135.391 56.4169L131.277 55.4725L127.012 55.3857L122.865 54.6748V55.3749L124.781 59.1685L125.742 62.821L121.823 62.0992L117.818 60.6881L113.867 59.1142L109.867 57.5729L105.634 57.9908L105.384 60.7532L107.582 63.0327L109.341 65.6811L112.239 68.8018L114.138 72.6225L114.806 76.7798L112.06 79.5911L110.079 81.5829L107.506 79.7485L104.852 76.8395L102.204 73.9359L98.8932 71.7053L96.3967 68.6281L93.276 66.2347L90.3236 65.5617L92.8581 69.2414L96.0276 71.955L98.1117 75.5478L100.961 78.5708L102.318 82.4838L102.654 86.0006L101.091 88.101L97.9814 87.466L94.9042 85.3494L92.2286 82.69L88.9777 80.8068L85.6182 79.0809L82.6875 76.7527L81.5261 76.2425L81.5532 79.0484L82.9752 82.4512L84.1149 85.9572L85.9981 89.1701L87.1053 92.7141L87.7837 96.4046L87.0456 100.117L84.0878 102.315L82.1557 105.501L78.6931 106.629L75.5073 104.8L72.2782 103.959H69.1683L65.0762 104.714L61.1524 106.222L56.9571 106.553L52.8107 105.414L50.1514 100.535L48.2302 97.0993L47.4432 93.2242L47.8774 89.0887L44.0295 87.9327L40.8491 89.7617L37.2183 91.5744L34.7761 88.8173L34.5536 85.4742L37.023 82.6249L36.426 78.6902L39.8397 74.9128L41.4679 71.993L44.3714 70.4028L48.2736 68.525L52.3874 67.1194L56.2299 65.0082L52.306 63.6188L48.7023 61.4968L44.7296 60.2539L41.0499 58.3056L37.0718 57.0681L36.8167 54.4034L37.0338 52.1348L41.2725 52.5527L45.3863 51.7712L49.4567 50.9408L49.6521 49.3072L46.2492 47.1201L42.9441 44.7701L40.3119 41.6169L36.9958 39.2615L34 36.3959L37.0447 34.7297L41.0717 33.0256L37.9782 30.0678L43.0851 28L48.6698 29.3677L52.8596 30.2197L57.1199 30.4802L59.7738 28.3528L64.0233 28.966L66.9595 32.4178L70.3732 34.6103L74.1071 33.6823L75.2902 37.0906L75.5942 41.3672L73.9931 45.3725L74.8343 48.7591L75.8655 51.8743L78.1667 54.4522Z" stroke="#383839" stroke-width="1.62816" stroke-linecap="round" stroke-linejoin="round"/>
<path d="M78.2573 54.2351C78.2573 54.2351 60.874 78.6196 57.7588 99.9648L78.2573 54.2351Z" fill="#41B879"/>
<path d="M77.8851 53.969L76.4904 57.7192L74.2001 60.8561L71.6384 63.8465L70.4281 67.6293L68.2681 70.8693L66.2872 74.2233L64.7784 77.8107L62.9983 81.2733L61.3213 84.8064L61.0228 88.8225L59.3349 92.3557L58.2495 96.1004L58.1572 100.024" stroke="#383839" stroke-width="1.62816" stroke-linecap="round" stroke-linejoin="round"/>
<path d="M46.6064 79.1785L49.9007 76.6711L53.9929 75.6019L58.0741 74.4188L62.3399 74.5708L66.4917 74.408L69.048 76.8773L71.2677 79.7809L73.1781 82.945L74.8117 86.3153L75.908 89.9081L75.5443 93.7343" stroke="#383839" stroke-width="1.62816" stroke-linecap="round" stroke-linejoin="round"/>
<path d="M44.084 54.2351C44.084 54.2351 70.0369 60.1074 70.1237 67.3581C70.1237 67.3581 85.7758 64.829 95.1106 78.1691" fill="#41B879"/>
<path d="M50.332 56.3301L54.1582 57.3504L58.0821 58.1211L61.7129 59.7601L65.1592 61.6976L68.2473 64.053L69.9297 67.7272L73.6799 66.4247L77.3541 66.5332L80.9252 67.3148L84.0947 69.084L87.3673 70.6525L90.2329 72.9536L92.5612 75.8083" stroke="#383839" stroke-width="1.62816" stroke-linecap="round" stroke-linejoin="round"/>
<path d="M50.5039 38.0239L53.4889 40.3522L57.0274 41.6819L59.6053 44.5149L62.9214 46.2516L65.8575 48.5473L68.2563 51.4129L70.4597 54.3653L72.6089 57.3557L74.0254 60.6066L77.7485 59.3963L81.1894 57.1331L85.3032 56.7098L89.0371 55.1631L92.9772 54.311L96.8794 53.2147L100.972 53.5837L104.95 53.1062L108.988 52.7697L112.944 53.6326" stroke="#383839" stroke-width="1.62816" stroke-linecap="round" stroke-linejoin="round"/>
<path d="M150.68 128.544L152.009 132.154L152.954 135.871L153.822 139.611L154.159 143.458L155.445 147.111L156.492 150.834L156.997 154.649L156.698 158.551L157.833 162.318L157.285 166.182L157.154 170.003L157.144 173.862L156.443 177.682" stroke="#383839" stroke-width="1.62816" stroke-linecap="round" stroke-linejoin="round"/>
<path d="M153.714 138.607L156.753 135.709L159.521 132.604L162.137 129.332L163.488 125.343" stroke="#383839" stroke-width="1.62816" stroke-linecap="round" stroke-linejoin="round"/>
<path d="M169.684 147.23L166.162 146.346L162.558 145.374L158.879 145.884L155.367 147.002" stroke="#383839" stroke-width="1.62816" stroke-linecap="round" stroke-linejoin="round"/>
<path d="M170.14 167.208L167.665 163.794L164.713 160.766L160.979 158.769L157.109 158.503" stroke="#383839" stroke-width="1.62816" stroke-linecap="round" stroke-linejoin="round"/>
<path d="M138.003 128.74L142.318 129.413L146.665 129.907L150.008 132.734L152.993 135.833" stroke="#383839" stroke-width="1.62816" stroke-linecap="round" stroke-linejoin="round"/>
<path d="M154.219 144.007L150.42 144.37L147.37 146.899L146.762 150.747" stroke="#383839" stroke-width="1.62816" stroke-linecap="round" stroke-linejoin="round"/>
<path d="M156.916 158.004L153.844 161.26L151.456 164.891" stroke="#383839" stroke-width="1.62816" stroke-linecap="round" stroke-linejoin="round"/>
<path d="M89.7803 208.759L94.0786 208.205L98.377 208.569L102.93 208.71L100.108 212.091L96.2332 213.529L91.7178 212.845L89.7803 208.759Z" stroke="#F3F2F2" stroke-width="2.17088" stroke-linecap="round" stroke-linejoin="round"/>
<path d="M85.6504 201.947L89.1401 202.36L92.7275 201.692" stroke="#F3F2F2" stroke-width="2.17088" stroke-linecap="round" stroke-linejoin="round"/>
<path d="M97.8809 202.1L101.588 202.936L105.235 202.04" stroke="#F3F2F2" stroke-width="2.17088" stroke-linecap="round" stroke-linejoin="round"/>
</svg>
