<svg width="210" height="234" viewBox="0 0 210 234" fill="none" xmlns="http://www.w3.org/2000/svg">
<rect width="210" height="234" fill="transparent"/>
<path d="M155.736 143.674L157.473 139.989L156.936 136.065L154.152 133.422L150.933 131.903L147.509 130.633L143.938 131.382L140.356 132.049L137.23 134.003L135.634 135.523L131.895 138.003L127.993 140.196L123.803 141.987L123.472 144.375" fill="#89CB9A"/>
<path d="M155.332 143.327C155.332 143.327 160.586 137.173 154.214 133.325C154.214 133.325 145.965 127.631 137.748 134.66C137.069 135.24 136.369 135.729 135.658 136.185C132.923 137.949 127.035 141.563 123.963 142.09L123.458 144.369" stroke="#383839" stroke-width="1.62816" stroke-linecap="round" stroke-linejoin="round"/>
<path d="M155.562 143.137L156.957 146.54L158.857 149.569L159.725 153.026L159.448 156.488L157.858 159.457L155.459 162.084L151.378 162.833L147.655 161.036L144.165 158.947L140.985 156.401L138.087 153.552L135.959 150.567L132.925 148.841L129.55 147.902L126.331 146.649L122.961 147.164L123.656 144.516L127.406 143.648L131.427 144.158L135.378 143.327L139.395 143.74L143.378 143.539L147.373 143.62L151.351 142.98L155.302 142.996L155.562 143.137Z" fill="#41B879"/>
<path d="M155.562 143.137L156.957 146.54L158.857 149.569L159.725 153.026L159.448 156.488L157.858 159.457L155.459 162.084L151.378 162.833L147.655 161.036L144.165 158.947L140.985 156.401L138.087 153.552L135.959 150.567L132.925 148.841L129.55 147.902L126.331 146.649L122.961 147.164L123.656 144.516L127.406 143.648L131.427 144.158L135.378 143.327L139.395 143.74L143.378 143.539L147.373 143.62L151.351 142.98L155.302 142.996L155.562 143.137Z" stroke="#383839" stroke-width="1.62816" stroke-linecap="round" stroke-linejoin="round"/>
<path d="M124.487 124.353L120.622 125.499L117.789 128.359L114.392 130.231L110.794 131.778L107.309 133.542L104.01 135.696L100.856 137.694L97.2582 136.201L95.4727 132.825L95.8797 129.184L96.0588 125.222L100.52 124.706L104.52 123.832L108.085 121.537L112.221 121.233L116.21 120.397L120.28 120.381L124.611 119.995L124.4 124.305" fill="#89CB9A"/>
<path d="M124.458 124.283L104.193 136.017C104.193 136.017 93.3384 141.574 96.5948 125.699C96.5948 125.699 119.932 118.183 124.274 120.354L124.458 124.288" stroke="#383839" stroke-width="1.62816" stroke-linecap="round" stroke-linejoin="round"/>
<path d="M122.258 105.944L118.589 105.955L114.974 106.01H111.349L107.653 106.167L104.18 104.908L100.543 104.371L97.1133 103.073L92.9723 100.696L89.7974 97.1361L87.518 92.4633L87.29 88.3603L88.8856 84.5613L92.4187 82.7757L95.9627 82.8625L96.9125 82.3198L99.3439 85.8204L103.061 87.861L106.177 90.58L108.896 93.7604L112.304 96.1429L115.522 98.7534L118.567 101.57L121.525 103.98L122.692 105.673" fill="#89CB9A"/>
<path d="M122.209 105.722C122.209 105.722 110.638 108.208 97.222 102.802C94.4379 101.679 91.9033 99.714 90.0363 96.9732C89.1463 95.6653 88.3431 94.1131 87.8818 92.3655C86.2807 86.2816 91.149 80.3497 96.1312 82.4554C96.2885 82.5205 96.4459 82.5965 96.6033 82.6779C96.6033 82.6779 120.233 103.947 121.986 103.833L122.209 105.727" stroke="#383839" stroke-width="1.62816" stroke-linecap="round" stroke-linejoin="round"/>
<path d="M122.855 116.94L119.202 116.12L115.485 114.953L111.648 114.324L107.881 113.238L103.99 112.859L100.093 112.511L96.1964 113.114L92.3973 113.743L90.1341 115.529L88.5439 118.069L88.7719 122.367L92.1802 124.918L96.37 125.238L100.109 124.239L104.12 123.952L107.821 122.486L111.642 121.396L115.593 121.016L119.479 120.131L123.273 120.316L122.855 116.94Z" fill="#41B879"/>
<path d="M122.855 116.94L119.202 116.12L115.485 114.953L111.648 114.324L107.881 113.238L103.99 112.859L100.093 112.511L96.1964 113.114L92.3973 113.743L90.1341 115.529L88.5439 118.069L88.7719 122.367L92.1802 124.918L96.37 125.238L100.109 124.239L104.12 123.952L107.821 122.486L111.642 121.396L115.593 121.016L119.479 120.131L123.273 120.316L122.855 116.94Z" stroke="#383839" stroke-width="1.62816" stroke-linecap="round" stroke-linejoin="round"/>
<path d="M152.938 81.9887L151.879 77.7609L151.483 73.5386L149.448 69.6472L145.318 68.0625L141.079 68.6703L137.204 70.3582L134.474 73.5548L131.956 76.9685L131.31 81.1692L131.001 81.929L130.143 85.88L130.051 90.0264L127.994 93.6464L126.74 97.4834L124.732 100.995" fill="#89CB9A"/>
<path d="M152.431 81.9453C152.431 81.9453 153.798 65.3815 141.077 68.6867C135.986 70.0109 131.938 74.9117 131.21 81.1584C131.178 81.4135 131.156 81.6794 131.134 81.9453C131.134 81.9453 129.636 94.4333 124.752 101.011" stroke="#383839" stroke-width="1.62816" stroke-linecap="round" stroke-linejoin="round"/>
<path d="M152.535 82.1082L155.754 83.6169L159.2 85.066L162.158 87.4594L164.079 90.8188L164.443 94.6722L163.786 98.4766L161.436 101.548L159.222 104.49L156.579 107.225L152.866 108.11L149.295 109.119L145.54 109.478L141.855 108.626L138.267 107.529L134.756 106.232L131.282 104.772L127.885 103.133L124.943 101.141L128.075 99.2527L130.973 96.8756L134.083 94.8133L136.927 92.3547L140.156 90.4661L143.173 88.268L146.473 86.4662L149.415 84.1596L152.535 82.1082Z" fill="#FFF6F0"/>
<path d="M152.535 82.1082L155.754 83.6169L159.2 85.066L162.158 87.4594L164.079 90.8188L164.443 94.6722L163.786 98.4766L161.436 101.548L159.222 104.49L156.579 107.225L152.866 108.11L149.295 109.119L145.54 109.478L141.855 108.626L138.267 107.529L134.756 106.232L131.282 104.772L127.885 103.133L124.943 101.141L128.075 99.2527L130.973 96.8756L134.083 94.8133L136.927 92.3547L140.156 90.4661L143.173 88.268L146.473 86.4662L149.415 84.1596L152.535 82.1082Z" stroke="#383839" stroke-width="1.62816" stroke-linecap="round" stroke-linejoin="round"/>
<path d="M121.98 103.811L122.05 100.23L121.535 96.6204L122.061 92.9299L120.091 93.147L119.038 89.1037L116.656 85.9125L114.914 82.4065L113.275 78.8083L110.925 75.6442L108.097 72.9143L105.025 70.6349L101.459 69.3921L97.7527 71.1288L96.2603 74.841L95.5547 78.7703L96.4773 82.7485L98.9467 85.5706L101.861 87.8935L104.39 90.6125L107.261 92.9679L109.937 95.5458L112.922 97.7656L115.7 100.213L118.658 102.449L122.029 103.92" fill="#41B879"/>
<path d="M121.979 103.828C122.104 103.801 121.979 93.0058 121.979 93.0058L120.302 92.843C120.302 92.843 109.622 67.5522 101.481 69.5277C101.481 69.5277 92.7973 70.8411 96.5964 82.6778C96.5964 82.6778 119.141 105.266 121.979 103.833" stroke="#383839" stroke-width="1.62816" stroke-linecap="round" stroke-linejoin="round"/>
<path d="M121.715 165.611L122.709 161.704L123.745 157.818L125.319 154.057L125.911 150.057L127.05 146.16L127.159 142.095L127.669 138.101L127.528 134.057L127.816 130.052L128.516 126.009L127.995 121.987L127.023 118.053L127.36 113.922L126.578 109.944L125.764 105.972L125.422 101.934L124.7 97.9447L124.538 93.896L123.87 89.8962L124.125 85.8041L123.045 81.8313L122.47 77.8098L122.578 73.7448L122.242 69.7015L122.964 65.6745L122.052 65.5117L122.155 69.3813L121.455 73.0935L121.243 76.8655L121.303 80.6428L120.277 84.4093L121.118 88.1866L120.983 91.9694L121.221 95.7467L120.983 99.5675L121.829 103.285L121.862 107.1L122.443 110.845L123.897 114.449L123.892 118.286L124.282 122.096L124.32 125.922L124.977 129.748L124.543 133.58L124.445 137.661L123.403 141.634L123.561 145.791L122.437 149.731L121.927 153.796L120.261 157.595L119.989 161.736L118.644 165.481L121.677 165.172L121.715 165.611Z" fill="#FFF6F0"/>
<path d="M121.715 165.611L122.709 161.704L123.745 157.818L125.319 154.057L125.911 150.057L127.05 146.16L127.159 142.095L127.669 138.101L127.528 134.057L127.816 130.052L128.516 126.009L127.995 121.987L127.023 118.053L127.36 113.922L126.578 109.944L125.764 105.972L125.422 101.934L124.7 97.9447L124.538 93.896L123.87 89.8962L124.125 85.8041L123.045 81.8313L122.47 77.8098L122.578 73.7448L122.242 69.7015L122.964 65.6745L122.052 65.5117L122.155 69.3813L121.455 73.0935L121.243 76.8655L121.303 80.6428L120.277 84.4093L121.118 88.1866L120.983 91.9694L121.221 95.7467L120.983 99.5675L121.829 103.285L121.862 107.1L122.443 110.845L123.897 114.449L123.892 118.286L124.282 122.096L124.32 125.922L124.977 129.748L124.543 133.58L124.445 137.661L123.403 141.634L123.561 145.791L122.437 149.731L121.927 153.796L120.261 157.595L119.989 161.736L118.644 165.481L121.677 165.172L121.715 165.611Z" stroke="#383839" stroke-width="1.62816" stroke-linecap="round" stroke-linejoin="round"/>
<path d="M131.823 233.37L130.043 233.446L128.198 233.213L126.352 233.614L124.507 233.31L122.662 233.175L120.817 233.419L118.971 233.229L117.126 233.115L115.281 233.495L113.435 233.663L111.59 233.256L109.75 233.755L107.905 233.538L106.06 233.24L104.215 233.457L102.369 233.413L100.524 233.544L98.6789 233.717L96.8337 233.245L94.9884 233.321L93.1432 233.636L91.2979 233.413L89.4527 233.527L87.6074 233.538L85.7621 233.592L83.9169 233.381L82.0717 233.392L80.2264 233.63L78.3811 233.245L76.5304 233.533L74.6201 233.489L74.0665 231.622L74.1262 229.696L73.5509 227.888L73.1439 226.049L73.171 224.127L72.5252 222.336L72.4926 220.426L71.7382 218.657L71.6623 216.757L71.5211 214.869L71.0924 213.034L70.7397 211.189L70.1752 209.382L69.8333 207.531L69.6325 205.653L69.1983 203.819L68.7913 201.979L68.5959 200.101L68.3137 198.24L68.0152 196.378L67.5104 194.555L67.3476 192.671L66.5227 190.907L66.132 189.062L65.7792 187.212L65.4915 185.345L65.2256 183.418L67.1577 183.537L69.0409 183.315L70.9242 183.646L72.8074 183.174L74.6907 183.548L76.5739 183.374L78.4571 183.575L80.3404 183.233L82.2237 183.201H84.1069L85.9901 183.217L87.8733 183.532L89.7566 183.407L91.6399 183.152L93.5231 183.602L95.4063 183.125L97.2895 183.266L99.1728 183.554L101.056 183.157L102.939 183.461L104.823 183.472L106.706 183.44L108.589 183.174L110.472 183.26L112.355 183.624L114.239 183.25L116.122 183.168L118.005 183.668L119.888 183.136L121.772 183.119L123.655 183.695L125.538 183.592L127.421 183.608L129.305 183.374L131.188 183.516L133.071 183.233L134.954 183.45L136.843 183.668L138.764 183.429L138.737 185.339L138.113 187.136L138.195 189.03L137.777 190.853L137.304 192.671L137.272 194.549L136.973 196.394L136.469 198.207L136.322 200.069L136.284 201.946L135.671 203.743L135.519 205.604L135.693 207.515L135.367 209.355L134.971 211.189L134.743 213.04L134.683 214.917L134.471 216.774L134.064 218.603L133.603 220.426L133.706 222.326L133.071 224.122L133.001 226L132.501 227.818L132.615 229.723L131.915 231.514L131.812 233.332L131.823 233.37Z" fill="#363737"/>
<path d="M145.105 183.988L143.271 184.243L141.399 183.765L139.526 183.998L137.654 184.199L135.781 184.058H133.909L132.031 183.819L130.159 183.939L128.286 183.765L126.414 184.27L124.542 184.248L122.669 184.226L120.791 184.004L118.919 183.874L117.047 183.944L115.169 184.14L113.291 184.161H111.419L109.546 183.906L107.668 184.199L105.791 183.933L103.913 184.183L102.035 184.156L100.157 183.885L98.2794 184.357L96.4016 184.27L94.5237 184.107L92.6513 183.917L90.7735 184.08L88.9011 183.847L87.0288 183.982L85.1509 184.167L83.2785 183.95L81.4007 184.118L79.5229 184.335L77.6451 183.933L75.7673 184.178L73.8894 184.161L72.0116 184.226L70.1338 184.069L68.256 183.776L66.3782 183.819L64.5004 183.966L62.6226 184.264L60.7393 184.102L58.9266 183.95L58.6661 182.115L59.1057 180.21L58.9755 178.305L59.1763 176.395L58.9809 174.49L58.677 172.58L58.9538 170.669L58.6064 168.759L59.122 166.849L58.9646 165.036L60.7393 165.231L62.6117 164.618L64.4841 164.732L66.3565 165.079L68.2289 164.916L70.1012 165.036L71.9791 165.003L73.8515 165.128L75.7238 164.824L77.5963 164.683L79.4686 164.998L81.3465 164.732L83.2243 164.938L85.0966 164.802L86.9691 165.068L88.8414 164.873L90.7192 165.22L92.5917 164.645H94.464L96.3418 164.954L98.2197 164.716L100.092 164.743L101.97 164.661L103.848 164.889L105.725 165.025L107.603 164.868L109.476 165.047L111.354 164.949L113.226 164.65L115.098 165.128H116.971L118.849 165.112L120.726 165.03L122.604 165.182L124.482 164.786L126.36 164.716L128.238 164.813L130.115 164.83L131.993 164.808L133.871 164.737L135.749 165.02L137.627 164.754L139.504 164.9L141.382 164.754L143.266 165.101L145.295 164.792L144.834 166.843L145.013 168.748L144.899 170.658L145.181 172.569L145.426 174.474L145.458 176.379L144.872 178.289L144.845 180.199L145.491 182.115L145.116 183.982H145.105V183.988Z" fill="#363737"/>
<path d="M108.785 206.793L108.367 209.094L107.07 211.059L105.209 212.606L102.799 213.018L100.406 212.568L98.3543 211.232L97.258 209.083L96.4385 206.788" stroke="#F6F7F7" stroke-width="1.6" stroke-linecap="round" stroke-linejoin="round"/>
<path d="M60.7461 51.3359L60.3662 47.0539L61.7881 42.9943L64.1707 39.5914L67.8829 38.1858L71.9805 38.2672L75.6655 40.0962L79.1661 42.5438L81.0276 46.4134L82.0533 50.5381L81.9122 51.3468L83.0248 55.2652L83.2148 59.3845L85.1577 63.0261L86.4602 66.8415L88.2078 70.5157" fill="#89CB9A"/>
<path d="M60.6737 51.3413C60.6737 51.3413 59.3061 34.7775 72.0274 38.0826C77.1182 39.4069 81.1668 44.3077 81.8941 50.5544C81.9266 50.8095 81.9484 51.0754 81.9701 51.3413C81.9701 51.3413 83.468 63.8293 88.3525 70.4071" stroke="#383839" stroke-width="1.62816" stroke-linecap="round" stroke-linejoin="round"/>
<path d="M92.2891 75.286L94.9321 77.712L96.7991 80.5287L99.1165 82.9655L102.422 85.5326L105.298 88.5555L108.685 91.0629L112.744 92.1972L116.82 92.8213L120.961 92.5825L124.63 90.6287L127.441 87.9694L130.345 85.2612L131.859 81.4893L131.398 77.4623L129.655 73.9183L127.55 70.6946L125.113 67.8778L121.786 66.2877L118.199 64.3447L114.112 64.4316L110.112 65.1588L106.432 66.8684L102.65 68.2469L99.1871 70.2984L96.0447 72.8112L92.2891 75.286Z" fill="#41B879"/>
<path d="M92.2891 75.286L94.9321 77.712L96.7991 80.5287L99.1165 82.9655L102.422 85.5326L105.298 88.5555L108.685 91.0629L112.744 92.1972L116.82 92.8213L120.961 92.5825L124.63 90.6287L127.441 87.9694L130.345 85.2612L131.859 81.4893L131.398 77.4623L129.655 73.9183L127.55 70.6946L125.113 67.8778L121.786 66.2877L118.199 64.3447L114.112 64.4316L110.112 65.1588L106.432 66.8684L102.65 68.2469L99.1871 70.2984L96.0447 72.8112L92.2891 75.286Z" stroke="#383839" stroke-width="1.62816" stroke-linecap="round" stroke-linejoin="round"/>
<path d="M53.7819 98.5091L52.1592 95.0248L53.4454 91.5948L56.3598 89.3208L59.8115 88.4958L63.2795 88.9137L66.3188 90.4659L69.4828 91.763L72.5926 93.7331L73.5586 96.3219L77.2274 98.8347L80.5543 101.613L84.2882 104.311L83.6044 106.612" fill="#FFF6F0"/>
<path d="M53.0732 98.7696C53.0732 98.7696 49.2741 91.6274 56.3295 89.2448C56.3295 89.2448 65.6155 85.4729 72.1173 94.1131C72.6546 94.824 73.2353 95.4536 73.8268 96.056C76.1171 98.368 81.083 103.176 83.9703 104.349V106.682" stroke="#383839" stroke-width="1.62816" stroke-linecap="round" stroke-linejoin="round"/>
<path d="M88.2875 108.267L91.4516 110.579L95.0932 112.088L98.0294 114.791L101.53 116.538L105.128 118.118L108.547 120.001L111.814 121.331L115.038 120.028L116.01 116.837L116.303 113.407L115.983 109.933L112.211 108.501L108.325 107.29L104.281 106.683L100.336 105.722L96.4174 104.593L92.347 104.354L88.1572 104.495L88.6837 108.495" fill="#41B879"/>
<path d="M88.1699 108.468L108.435 120.202C108.435 120.202 119.29 125.759 116.033 109.884C116.033 109.884 92.6962 102.368 88.3544 104.539L88.1699 108.473" stroke="#383839" stroke-width="1.62816" stroke-linecap="round" stroke-linejoin="round"/>
<path d="M63.6811 148.223L61.8087 151.663L61.8141 155.593L61.1846 159.495L62.7693 163.185L66.2318 165.085L70.1666 166.181L74.1393 165.052L76.9614 162.16L77.4824 161.91L80.1581 156.857L81.7754 153.595L81.9762 149.91L83.1648 146.518L83.9137 143.045L84.6952 139.007L85.1511 134.92L86.4428 130.953L86.6273 126.823L82.4538 127.219L78.8555 129.336L75.3713 131.545L72.4297 134.437L69.4665 137.336L67.5615 141.031L65.3038 144.461L63.1492 148.016L63.6811 148.223Z" fill="#41B879"/>
<path d="M63.6811 148.223L61.8087 151.663L61.8141 155.593L61.1846 159.495L62.7693 163.185L66.2318 165.085L70.1666 166.181L74.1393 165.052L76.9614 162.16L77.4824 161.91L80.1581 156.857L81.7754 153.595L81.9762 149.91L83.1648 146.518L83.9137 143.045L84.6952 139.007L85.1511 134.92L86.4428 130.953L86.6273 126.823L82.4538 127.219L78.8555 129.336L75.3713 131.545L72.4297 134.437L69.4665 137.336L67.5615 141.031L65.3038 144.461L63.1492 148.016L63.6811 148.223Z" stroke="#383839" stroke-width="1.62816" stroke-linecap="round" stroke-linejoin="round"/>
<path d="M90.4211 139.897L92.4291 143.294L94.0736 146.855L95.9405 150.301L97.7315 153.807L100.521 156.645L102.643 159.967L105.612 162.615L109.585 163.435L113.074 161.302L114.556 157.731L115.82 153.807L114.42 149.937L112.124 146.98L109.275 144.592L106.41 142.225L103.908 139.474L100.825 137.352L98.3339 134.562L95.083 132.684L92.6517 129.721L89.0859 128.912" fill="#41B879"/>
<path d="M90.6966 139.778C90.6966 139.778 101.377 165.068 109.518 163.093C109.518 163.093 118.202 161.78 114.403 149.943C114.403 149.943 91.858 127.355 89.0195 128.788" stroke="#383839" stroke-width="1.62816" stroke-linecap="round" stroke-linejoin="round"/>
<path d="M88.8691 127.235L92.3968 126.405L96.033 126.161L99.6801 126.345L103.219 127.29L106.86 127.566L110.404 128.44L113.775 129.829L117.704 132.321L120.971 135.642L123.527 140.147L122.827 144.114L121.552 147.652L118.664 150.057L114.985 149.905L114.496 149.829L111.262 147.251L108.233 144.434L105.292 141.509L102.204 138.757L98.6164 136.575L95.9299 133.33L92.2882 131.246L88.8746 128.831L88.9017 126.882" fill="#89CB9A"/>
<path d="M88.79 126.899C88.79 126.899 100.361 124.413 113.777 129.819C116.561 130.942 119.096 132.907 120.963 135.648C121.853 136.955 122.656 138.508 123.117 140.255C124.718 146.339 119.85 152.271 114.868 150.165C114.71 150.1 114.553 150.024 114.396 149.943C114.396 149.943 90.7655 128.674 89.0125 128.788L88.79 126.893" stroke="#383839" stroke-width="1.62816" stroke-linecap="round" stroke-linejoin="round"/>
<path d="M121.697 65.5822L123.83 62.0654L125.377 58.2121L125.339 54.1254L123.95 50.2015L120.064 48.5733L115.977 47.9492L111.934 48.6493L107.777 49.5991L104.851 52.0685L102.197 54.7658L99.5924 57.5391L97.1935 60.5566L96.0321 64.2417L95.066 67.9105L93.5844 71.4165L92.8789 74.9442L96.3468 73.5711L99.728 71.639L103.147 69.7503L106.778 68.3176L110.615 67.498L114.273 66.1358L118.099 65.2349L122.028 65.3L121.697 65.5822Z" fill="#89CB9A"/>
<path d="M121.697 65.5822L123.83 62.0654L125.377 58.2121L125.339 54.1254L123.95 50.2015L120.064 48.5733L115.977 47.9492L111.934 48.6493L107.777 49.5991L104.851 52.0685L102.197 54.7658L99.5924 57.5391L97.1935 60.5566L96.0321 64.2417L95.066 67.9105L93.5844 71.4165L92.8789 74.9442L96.3468 73.5711L99.728 71.639L103.147 69.7503L106.778 68.3176L110.615 67.498L114.273 66.1358L118.099 65.2349L122.028 65.3L121.697 65.5822Z" stroke="#383839" stroke-width="1.62816" stroke-linecap="round" stroke-linejoin="round"/>
<path d="M84.4935 123.599L80.4828 123.344L76.4884 122.861L72.4885 123.284L68.5918 124.446L65.1292 126.497L61.3519 127.838L58.4537 130.557L54.9423 132.695L53.1568 136.348L50.454 139.729L49.6996 143.897L48.8096 148.146L52.4295 150.339L56.0332 150.198L59.7563 149.612L63.0343 147.848L65.0641 144.706L66.8714 141.362L68.4072 137.645L72.0815 135.968L74.5671 132.967L77.7312 130.785L81.1449 129.081L84.0539 126.926L84.6889 123.084" fill="#89CB9A"/>
<path d="M84.5304 123.1C84.5304 123.1 63.9612 119.382 52.602 136.017C51.0282 138.318 49.9699 141.069 49.6985 143.946C49.2426 148.749 50.7677 154.475 63.2231 148.016C63.2231 148.016 65.47 136.923 84.3675 127.029L84.6063 123.105" stroke="#383839" stroke-width="1.62816" stroke-linecap="round" stroke-linejoin="round"/>
<path d="M89.8781 101.174L93.4383 100.344L97.1234 99.0304L101.064 98.949L104.792 97.6899L108.667 97.2828L112.542 96.7292L116.466 96.8975L120.379 97.4673L122.474 99.7305L124.444 102.156L124.227 106.737L120.466 109.13L116.189 110.113L112.401 108.848L108.721 107.329L104.803 106.699L100.955 105.776L97.0474 105.136L93.1453 104.403L88.7275 104.61L89.8781 101.174Z" fill="#89CB9A"/>
<path d="M89.8781 101.174L93.4383 100.344L97.1234 99.0304L101.064 98.949L104.792 97.6899L108.667 97.2828L112.542 96.7292L116.466 96.8975L120.379 97.4673L122.474 99.7305L124.444 102.156L124.227 106.737L120.466 109.13L116.189 110.113L112.401 108.848L108.721 107.329L104.803 106.699L100.955 105.776L97.0474 105.136L93.1453 104.403L88.7275 104.61L89.8781 101.174Z" stroke="#383839" stroke-width="1.62816" stroke-linecap="round" stroke-linejoin="round"/>
<path d="M60.5616 51.5149L57.2836 52.8608L53.8753 54.4185L51.4874 57.284L49.7506 60.4481L49.1699 64.0355L49.425 67.8345L51.2973 71.1451L54.0869 73.6851L56.4424 76.7623L60.1058 77.9183L63.7962 78.651L67.5628 78.7812L71.3455 78.4502L75.0034 77.419L78.542 76.073L81.6246 73.7827L85.212 72.5073L88.0233 70.635L85.4997 67.9702L82.4062 65.8807L79.0684 64.144L76.2409 61.6638L72.9628 59.8457L70.0864 57.436L66.9114 55.4605L63.8343 53.3276L60.5616 51.5149Z" fill="#41B879"/>
<path d="M60.5616 51.5149L57.2836 52.8608L53.8753 54.4185L51.4874 57.284L49.7506 60.4481L49.1699 64.0355L49.425 67.8345L51.2973 71.1451L54.0869 73.6851L56.4424 76.7623L60.1058 77.9183L63.7962 78.651L67.5628 78.7812L71.3455 78.4502L75.0034 77.419L78.542 76.073L81.6246 73.7827L85.212 72.5073L88.0233 70.635L85.4997 67.9702L82.4062 65.8807L79.0684 64.144L76.2409 61.6638L72.9628 59.8457L70.0864 57.436L66.9114 55.4605L63.8343 53.3276L60.5616 51.5149Z" stroke="#383839" stroke-width="1.62816" stroke-linecap="round" stroke-linejoin="round"/>
<path d="M52.8264 98.2864L50.6446 101.412L48.3761 104.164L46.5471 107.23L45.6787 110.736L46.368 114.373L48.9134 117.032L52.7179 117.9L56.5766 117.157L60.5493 116.326L64.2561 114.644L67.4256 112.072L70.6059 110.481L73.8731 109.374L77.162 108.158L80.7168 107.844L84.174 109.662L84.4616 106.476L80.1035 105.727L76.3479 104.327L72.4566 103.453L68.473 102.889L64.7445 101.38L60.8043 100.691L56.8914 99.9308L52.8264 98.2864Z" fill="#41B879"/>
<path d="M52.8264 98.2864L50.6446 101.412L48.3761 104.164L46.5471 107.23L45.6787 110.736L46.368 114.373L48.9134 117.032L52.7179 117.9L56.5766 117.157L60.5493 116.326L64.256 114.644L67.4256 112.072L70.6059 110.481L73.8731 109.374L77.162 108.158L80.7168 107.844L84.174 109.662L84.4616 106.476L80.1036 105.727L76.3479 104.327L72.4566 103.453L68.473 102.889L64.7445 101.38L60.8044 100.691L56.8914 99.9308L52.8264 98.2864Z" stroke="#383839" stroke-width="1.62816" stroke-linecap="round" stroke-linejoin="round"/>
<path d="M93.3291 197.426L95.381 199.716L97.6554 201.779" stroke="#F3F2F2" stroke-width="2.17088" stroke-linecap="round" stroke-linejoin="round"/>
<path d="M97.9704 197.577L95.3486 199.418L93.085 201.638" stroke="#F3F2F2" stroke-width="2.17088" stroke-linecap="round" stroke-linejoin="round"/>
<path d="M108.304 197.404L110.752 199.298L112.809 201.584" stroke="#F3F2F2" stroke-width="2.17088" stroke-linecap="round" stroke-linejoin="round"/>
<path d="M112.611 196.932L110.825 199.662L108.584 201.898" stroke="#F3F2F2" stroke-width="2.17088" stroke-linecap="round" stroke-linejoin="round"/>
<path d="M91.9384 165.128L91.553 161.248L90.5327 157.601L89.0674 154.068L88.3727 150.323L87.4935 146.632L86.1095 143.05L85.3497 139.322L84.6605 135.577L84.2046 131.8L83.6293 128.039L83.0215 124.272L83.5533 120.419L83.3525 116.641L83.1409 112.853L82.6904 109.038L82.8804 105.217L83.8464 101.505L84.3729 97.6516L85.2629 93.8526L85.6645 89.983L86.2181 86.1351L86.4135 82.2438L87.0919 78.4122L87.4663 74.5426L87.906 70.6784L88.2588 66.8088L88.5084 62.9229L89.4581 59.113L89.9086 55.2488L90.6738 51.4118L90.0932 47.4554L90.3537 43.5803L90.7932 39.7216L91.2545 35.8466L90.5979 31.9987L91.1623 31.939L92.2097 35.7217L92.8393 39.5968L93.4743 43.4826L92.8719 47.4554L93.4037 51.3412L93.7945 55.2488L93.5068 59.1673L93.0618 63.0695L93.0727 66.9825L93.2463 70.9118L92.6982 74.8031L92.5788 78.7215L92.3943 82.64L91.8407 86.5259L90.6847 90.3195L90.7281 94.2814L89.545 98.0641L89.1054 101.961L88.9643 105.744L88.085 109.429L87.8463 113.19L87.7377 116.967L88.1231 120.723L88.7689 124.473L89.0836 128.283L89.7838 132.028L91.2763 135.577L91.5476 139.43L92.8936 143.007L94.1907 146.594L95.2164 150.252L95.77 154.046L97.3439 157.552L97.6913 161.405L98.9449 164.792L95.694 164.83L92.3671 164.944L91.9384 165.128Z" fill="#FFF6F0"/>
<path d="M91.9384 165.128L91.553 161.248L90.5327 157.601L89.0674 154.068L88.3727 150.323L87.4935 146.632L86.1095 143.05L85.3497 139.322L84.6605 135.577L84.2046 131.8L83.6293 128.039L83.0215 124.272L83.5533 120.419L83.3525 116.641L83.1409 112.853L82.6904 109.038L82.8804 105.217L83.8464 101.505L84.3729 97.6517L85.2629 93.8526L85.6645 89.983L86.2181 86.1351L86.4135 82.2438L87.0919 78.4122L87.4663 74.5426L87.906 70.6784L88.2588 66.8088L88.5084 62.9229L89.4581 59.113L89.9086 55.2488L90.6738 51.4118L90.0932 47.4554L90.3537 43.5803L90.7932 39.7216L91.2545 35.8466L90.5979 31.9987L91.1623 31.939L92.2097 35.7217L92.8393 39.5968L93.4743 43.4826L92.8719 47.4554L93.4037 51.3413L93.7945 55.2488L93.5068 59.1673L93.0618 63.0695L93.0727 66.9825L93.2463 70.9118L92.6982 74.8031L92.5788 78.7215L92.3943 82.64L91.8407 86.5259L90.6847 90.3195L90.7281 94.2814L89.545 98.0641L89.1054 101.961L88.9643 105.744L88.085 109.429L87.8463 113.19L87.7377 116.967L88.1231 120.723L88.7689 124.473L89.0836 128.283L89.7838 132.028L91.2763 135.577L91.5476 139.43L92.8936 143.007L94.1907 146.594L95.2164 150.252L95.77 154.046L97.3439 157.552L97.6913 161.405L98.9449 164.792L95.694 164.83L92.3671 164.944L91.9384 165.128Z" stroke="#383839" stroke-width="1.62816" stroke-linecap="round" stroke-linejoin="round"/>
</svg>
