<svg width="100" height="208" viewBox="0 0 100 208" fill="none" xmlns="http://www.w3.org/2000/svg">
<path d="M58.1479 41.8181L56.726 46.0513L55.1738 49.9915L55.4669 55.3753L57.1548 52.0756L59.7652 49.5248L61.2794 46.2467L63.8845 43.0827L58.1479 41.8181Z" fill="#FFF6F0"/>
<path d="M58.1479 41.8181L56.726 46.0513L55.1738 49.9915L55.4669 55.3753L57.1548 52.0756L59.7652 49.5248L61.2794 46.2467L63.8845 43.0827L58.1479 41.8181Z" stroke="#383839" stroke-width="1.62816" stroke-linecap="round" stroke-linejoin="round"/>
<path d="M42.522 76.0095L46.1311 79.4287L49.865 81.7895L50.4511 87.3524L47.0429 85.1272L43.3469 83.6836L40.1178 81.3987L36.5195 79.6403L39.3145 77.6811L42.522 76.0095Z" fill="#FFF6F0"/>
<path d="M42.522 76.0095L46.1311 79.4287L49.865 81.7895L50.4511 87.3524L47.0429 85.1272L43.3469 83.6836L40.1178 81.3987L36.5195 79.6403L39.3145 77.6811L42.522 76.0095Z" stroke="#383839" stroke-width="1.62816" stroke-linecap="round" stroke-linejoin="round"/>
<path d="M57.2594 93.9031L60.6351 91.6237L63.8589 88.9373L67.9184 87.8518L71.8151 86.5493L75.8585 85.8003L79.9071 84.5466L84.0969 84.6335L87.7441 85.8275L91.2555 87.2602L93.8226 90.522L92.2921 94.3536L88.8241 96.3997L85.6111 98.9179L81.4756 100.041L77.2532 100.025L73.0906 99.5909L68.8953 99.6777L64.7109 99.3195L60.7274 97.9139L56.4453 97.0184L57.2594 93.9031Z" fill="#FFF6F0"/>
<path d="M57.2594 93.9031L60.6351 91.6237L63.8589 88.9373L67.9184 87.8518L71.8151 86.5493L75.8585 85.8003L79.9071 84.5466L84.0969 84.6335L87.7441 85.8275L91.2555 87.2602L93.8226 90.522L92.2921 94.3536L88.8241 96.3997L85.6111 98.9179L81.4756 100.041L77.2532 100.025L73.0906 99.5909L68.8953 99.6777L64.7109 99.3195L60.7274 97.9139L56.4453 97.0184L57.2594 93.9031Z" stroke="#383839" stroke-width="1.62816" stroke-linecap="round" stroke-linejoin="round"/>
<path d="M57.5234 94.766L61.6427 95.2328L65.5123 93.7837L69.6261 94.1853L73.588 93.4526L77.6096 93.1433L81.5063 91.8788L85.555 91.7756L89.5657 91.3686L93.5655 90.9019" stroke="#383839" stroke-width="1.62816" stroke-linecap="round" stroke-linejoin="round"/>
<path d="M43.3167 52.5478L43.854 48.7867L44.3099 44.9714L43.5229 41.1995L43.0942 37.4113L41.6777 33.8728L40.8582 30.0629L38.0632 27.3384L35.4852 24.6302L32.2398 22.7795L28.7501 21.4119L25.2766 20.7498L21.635 21.1568L18.9919 23.7564L18.7532 27.2624L18.4492 30.7738L19.5673 34.486L21.1574 38.0354L23.7679 40.9173L26.2318 43.924L29.1408 46.5562L32.4948 48.5751L36.2179 49.8179L39.8921 51.0282L43.3493 52.9168L43.3167 52.5478Z" fill="#FFF6F0"/>
<path d="M43.3167 52.5478L43.854 48.7867L44.3099 44.9714L43.5229 41.1995L43.0942 37.4113L41.6777 33.8728L40.8582 30.0629L38.0632 27.3384L35.4852 24.6302L32.2398 22.7795L28.7501 21.4119L25.2766 20.7498L21.635 21.1568L18.9919 23.7564L18.7532 27.2624L18.4492 30.7738L19.5673 34.486L21.1574 38.0354L23.7679 40.9173L26.2318 43.924L29.1408 46.5561L32.4948 48.5751L36.2179 49.8179L39.8921 51.0282L43.3493 52.9168L43.3167 52.5478Z" stroke="#383839" stroke-width="1.62816" stroke-linecap="round" stroke-linejoin="round"/>
<path d="M21.3574 21.8623L23.6966 25.1892L26.6381 28.0548L28.4237 31.7995L31.0993 34.8659L33.8509 37.8834L36.3528 41.0801L38.3501 44.6675L41.3079 47.533L43.3973 51.0499" stroke="#383839" stroke-width="1.62816" stroke-linecap="round" stroke-linejoin="round"/>
<path d="M60.8714 62.5554L58.1795 65.4264L55.8838 68.7479L55.9706 74.0231L59.1998 71.2932L61.8158 68.3408L64.5022 65.3938L60.8714 62.5554Z" fill="#FFF6F0"/>
<path d="M60.8714 62.5554L58.1795 65.4264L55.8838 68.7479L55.9706 74.0231L59.1998 71.2932L61.8158 68.3408L64.5022 65.3938L60.8714 62.5554Z" stroke="#383839" stroke-width="1.62816" stroke-linecap="round" stroke-linejoin="round"/>
<path d="M45.5205 113.685L50.6818 111.911L50.4593 115.026L50.5733 118.185L45.8136 120.198L45.1895 116.763L45.5205 113.685Z" fill="#FFF6F0"/>
<path d="M45.5205 113.685L50.6818 111.911L50.4593 115.026L50.5733 118.185L45.8136 120.198L45.1895 116.763L45.5205 113.685Z" stroke="#383839" stroke-width="1.62816" stroke-linecap="round" stroke-linejoin="round"/>
<path d="M59.6621 105.208L57.5671 108.79L56.8779 114.537L60.9103 111.248L65.1381 108.703L61.6484 105.121L59.8737 105.371L59.6621 105.208Z" fill="#FFF6F0"/>
<path d="M59.6621 105.208L57.5671 108.79L56.8779 114.537L60.9103 111.248L65.1381 108.703L61.6484 105.121L59.8737 105.371L59.6621 105.208Z" stroke="#383839" stroke-width="1.62816" stroke-linecap="round" stroke-linejoin="round"/>
<path d="M81.4166 206.898L79.6365 206.974L77.7912 206.74L75.946 207.142L74.1008 206.838L72.2555 206.702L70.4102 206.946L68.565 206.756L66.7198 206.642L64.8745 207.022L63.0292 207.191L61.184 206.784L59.3442 207.283L57.4989 207.066L55.6537 206.767L53.8084 206.984L51.9632 206.941L50.1179 207.071L48.2726 207.245L46.4274 206.773L44.5822 206.849L42.7369 207.163L40.8916 206.941L39.0464 207.055L37.2012 207.066L35.3559 207.12L33.5106 206.908L31.6654 206.919L29.8201 207.158L27.9749 206.773L26.1242 207.06L24.2138 207.017L23.6602 205.15L23.7199 203.223L23.1447 201.416L22.7376 199.576L22.7647 197.655L22.1189 195.864L22.0863 193.954L21.332 192.184L21.256 190.285L21.1149 188.396L20.6861 186.562L20.3333 184.717L19.769 182.909L19.427 181.059L19.2262 179.181L18.792 177.346L18.385 175.507L18.1896 173.629L17.9074 171.767L17.6089 169.906L17.1042 168.082L16.9413 166.199L16.1164 164.435L15.7256 162.59L15.3729 160.739L15.0853 158.872L14.8193 156.945L16.7514 157.065L18.6346 156.842L20.5179 157.173L22.4011 156.701L24.2844 157.076L26.1676 156.902L28.0509 157.103L29.9341 156.761L31.8173 156.728H33.7006L35.5839 156.745L37.4671 157.059L39.3503 156.935L41.2335 156.68L43.1168 157.13L45.0001 156.652L46.8833 156.794L48.7665 157.081L50.6497 156.685L52.533 156.989L54.4163 157L56.2995 156.967L58.1827 156.701L60.066 156.788L61.9492 157.152L63.8325 156.777L65.7157 156.696L67.599 157.195L69.4822 156.663L71.3654 156.647L73.2487 157.222L75.132 157.119L77.0152 157.135L78.8984 156.902L80.7816 157.043L82.6649 156.761L84.5482 156.978L86.4368 157.195L88.3581 156.956L88.3309 158.867L87.7068 160.663L87.7882 162.557L87.3703 164.381L86.8981 166.199L86.8656 168.077L86.5671 169.922L86.0623 171.735L85.9158 173.596L85.8778 175.474L85.2645 177.27L85.1125 179.132L85.2863 181.042L84.9606 182.882L84.5645 184.717L84.3365 186.567L84.2768 188.445L84.0651 190.301L83.6581 192.13L83.1968 193.954L83.2999 195.853L82.6649 197.65L82.5944 199.527L82.0951 201.345L82.209 203.25L81.5089 205.041L81.4058 206.86L81.4166 206.898Z" fill="#363737"/>
<path d="M94.6972 157.51L92.8628 157.765L90.9904 157.288L89.118 157.521L87.2456 157.722L85.3733 157.581H83.5008L81.623 157.342L79.7506 157.461L77.8782 157.288L76.0059 157.792L74.1335 157.771L72.2611 157.749L70.3833 157.526L68.5109 157.396L66.6385 157.467L64.7606 157.662L62.8829 157.684H61.0105L59.1381 157.429L57.2603 157.722L55.3825 157.456L53.5046 157.705L51.6268 157.678L49.749 157.407L47.8712 157.879L45.9934 157.792L44.1156 157.63L42.2431 157.44L40.3653 157.602L38.493 157.369L36.6206 157.505L34.7428 157.689L32.8704 157.472L30.9925 157.64L29.1147 157.857L27.2369 157.456L25.3591 157.7L23.4813 157.684L21.6035 157.749L19.7256 157.592L17.8478 157.298L15.97 157.342L14.0922 157.488L12.2144 157.787L10.3312 157.624L8.51843 157.472L8.25793 155.638L8.69757 153.733L8.56732 151.828L8.76813 149.917L8.57275 148.012L8.2688 146.102L8.54559 144.192L8.19824 142.281L8.71387 140.371L8.55646 138.558L10.3312 138.754L12.2035 138.14L14.076 138.254L15.9483 138.602L17.8207 138.439L19.6931 138.558L21.5709 138.526L23.4433 138.651L25.3157 138.347L27.1881 138.206L29.0605 138.52L30.9383 138.254L32.8161 138.461L34.6885 138.325L36.5609 138.591L38.4333 138.395L40.3111 138.743L42.1834 138.168H44.0559L45.9337 138.477L47.8115 138.238L49.6839 138.265L51.5617 138.184L53.4395 138.412L55.3173 138.547L57.1951 138.39L59.0675 138.569L60.9454 138.471L62.8177 138.173L64.6901 138.651H66.5625L68.4403 138.634L70.3182 138.553L72.196 138.705L74.0738 138.309L75.9516 138.238L77.8294 138.336L79.7072 138.352L81.585 138.33L83.4629 138.26L85.3407 138.542L87.2185 138.276L89.0963 138.423L90.9741 138.276L92.8574 138.623L94.8872 138.314L94.4258 140.366L94.6049 142.27L94.491 144.181L94.7732 146.091L95.0174 147.996L95.0499 149.901L94.4638 151.812L94.4367 153.722L95.0825 155.638L94.708 157.505H94.6972V157.51Z" fill="#363737"/>
<path d="M50.6555 140.333L54.167 140.127L57.7001 140.344L57.0217 136.344L57.5861 132.404L57.6295 128.474L57.6241 124.545L57.6512 120.621L56.9403 116.708L56.734 112.784L56.3324 108.866L56.4138 104.937L56.1479 101.013L56.3813 97.078V93.1487L56.1587 89.2248L56.289 85.2901L56.658 81.3553L56.2401 77.4314L55.54 73.5184L55.8819 69.5837L55.8331 65.6544L56.0773 61.7197L55.9633 57.7904L55.5563 53.8719L54.9485 49.9535L54.7748 46.0296L54.9051 42.0894L54.9539 38.3447L50.7912 38.209L51.1928 42.0786L50.4873 46.0025L50.2974 49.9263L50.4113 53.8556L50.2539 57.7795L50.6176 61.7034L51.2091 65.6273L50.5795 69.5566L50.3896 73.4804L51.1277 77.4097L51.1982 81.3336L51.1603 85.2629L51.1385 89.1922L50.8563 93.1161L50.6393 97.0454L50.8184 100.969L50.5307 104.899L50.7858 108.828L51.068 112.752L51.0192 116.681L50.3408 120.61L50.3353 124.534L50.9812 128.469L50.8618 132.393L50.4167 136.322L50.6555 140.333Z" fill="#FFF6F0"/>
<path d="M50.6555 140.333L54.167 140.127L57.7001 140.344L57.0217 136.344L57.5861 132.404L57.6295 128.474L57.6241 124.545L57.6512 120.621L56.9403 116.708L56.734 112.784L56.3324 108.866L56.4138 104.937L56.1479 101.013L56.3813 97.078V93.1487L56.1587 89.2248L56.289 85.2901L56.658 81.3553L56.2401 77.4314L55.54 73.5184L55.8819 69.5837L55.8331 65.6544L56.0773 61.7197L55.9633 57.7904L55.5563 53.8719L54.9485 49.9535L54.7748 46.0296L54.9051 42.0894L54.9539 38.3447L50.7912 38.209L51.1928 42.0786L50.4873 46.0025L50.2974 49.9263L50.4113 53.8556L50.2539 57.7795L50.6176 61.7034L51.2091 65.6273L50.5795 69.5566L50.3896 73.4804L51.1277 77.4097L51.1982 81.3336L51.1603 85.2629L51.1385 89.1922L50.8563 93.1161L50.6393 97.0454L50.8184 100.969L50.5307 104.899L50.7858 108.828L51.068 112.752L51.0192 116.681L50.3408 120.61L50.3353 124.534L50.9812 128.469L50.8618 132.393L50.4167 136.322L50.6555 140.333Z" stroke="#383839" stroke-width="1.62816" stroke-linecap="round" stroke-linejoin="round"/>
<path d="M17.7562 116.649L15.1131 119.574L12.3887 122.591L14.0657 126.124L17.3492 128.301L21.2568 129.169L25.2077 129.706L29.2293 129.381L33.1749 128.833L37.2562 128.659L40.8544 126.765L43.8774 124.154L46.1623 121.148L46.8189 117.446L45.8475 113.539L42.5911 111.091L38.689 110.326L34.9388 109.723L31.232 110.467L27.5415 111.183L24.0572 112.611L20.5838 114.114L17.7562 116.649Z" fill="#89CB9A"/>
<path d="M17.7562 116.649L15.1131 119.574L12.3887 122.591L14.0657 126.124L17.3492 128.301L21.2568 129.169L25.2077 129.706L29.2293 129.381L33.1749 128.833L37.2562 128.659L40.8544 126.765L43.8774 124.154L46.1623 121.148L46.8189 117.446L45.8475 113.539L42.5911 111.091L38.689 110.326L34.9388 109.723L31.232 110.467L27.5415 111.183L24.0572 112.611L20.5838 114.114L17.7562 116.649Z" stroke="#383839" stroke-width="1.62816" stroke-linecap="round" stroke-linejoin="round"/>
<path d="M43.7524 79.765L42.1622 76.297L40.61 72.8616L39.009 69.4587L37.1583 66.1807L34.9929 63.1089L32.4964 60.2976L29.8099 57.6219L26.3474 56.1023L22.8251 54.9355L19.1291 53.7849L15.4224 54.8595L11.5744 55.2286L9.1051 58.7291L7.77539 62.653L9.48498 66.5768L11.8133 70.1154L14.5757 72.6879L17.832 74.6363L21.3706 75.9714L24.8114 77.4964L28.4151 78.6036L32.1599 79.0812L35.8992 79.499L39.6603 79.7813L43.4702 80.0472L43.7524 79.765Z" fill="#FFF6F0"/>
<path d="M43.7524 79.765L42.1622 76.297L40.61 72.8616L39.009 69.4587L37.1583 66.1807L34.9929 63.1089L32.4964 60.2976L29.8099 57.6219L26.3474 56.1023L22.8251 54.9355L19.1291 53.7849L15.4224 54.8595L11.5744 55.2286L9.1051 58.7291L7.77539 62.653L9.48498 66.5768L11.8133 70.1154L14.5757 72.6879L17.832 74.6363L21.3706 75.9714L24.8114 77.4964L28.4151 78.6036L32.1599 79.0812L35.8992 79.499L39.6603 79.7813L43.4702 80.0472L43.7524 79.765Z" stroke="#383839" stroke-width="1.62816" stroke-linecap="round" stroke-linejoin="round"/>
<path d="M59.5547 45.2047L63.1692 43.6525L66.1108 41.004L69.8664 39.4844L72.2652 36.2389L75.7115 34.1331L78.0398 30.9148L80.2269 27.5662L80.6286 23.4361L80.9542 19.3874L79.771 15.4364L77.0411 11.7567L72.6994 10.9155L68.3468 11.2683L65.3238 13.043L62.697 15.3604L60.9169 18.3617L59.4353 22.1173L58.0351 25.8838L56.9985 29.7968L56.3906 33.8509L56.9496 37.9213L58.1599 41.8126L59.3376 45.7474L59.5547 45.2047Z" fill="#41B879"/>
<path d="M59.5547 45.2047L63.1692 43.6525L66.1108 41.004L69.8664 39.4844L72.2652 36.2389L75.7115 34.1331L78.0398 30.9148L80.2269 27.5662L80.6286 23.4361L80.9542 19.3874L79.771 15.4364L77.0411 11.7567L72.6994 10.9155L68.3468 11.2683L65.3238 13.043L62.697 15.3604L60.9169 18.3617L59.4353 22.1173L58.0351 25.8838L56.9985 29.7968L56.3906 33.8509L56.9496 37.9213L58.1599 41.8126L59.3376 45.7474L59.5547 45.2047Z" stroke="#383839" stroke-width="1.62816" stroke-linecap="round" stroke-linejoin="round"/>
<path d="M60.8828 77.9632L62.3807 74.582L64.3182 71.0326L66.7876 67.8306L69.9028 65.2147L72.1714 61.7412L75.6773 59.6409L79.2539 57.7848L83.1018 56.6885L86.9226 55.1743L90.4177 56.4931L94.005 57.6925L95.5084 61.2202L95.3564 65.0356L93.3158 68.3245L90.1517 71.342L86.8574 73.6648L83.7639 76.3459L79.7749 77.4042L76.1115 79.0486L72.2311 80.2535L68.1498 80.4868L64.2477 79.2983L60.8828 77.9632Z" fill="#41B879"/>
<path d="M60.8828 77.9632L62.3807 74.582L64.3182 71.0326L66.7876 67.8306L69.9028 65.2147L72.1714 61.7412L75.6773 59.6409L79.2539 57.7848L83.1018 56.6885L86.9226 55.1743L90.4177 56.4931L94.005 57.6925L95.5084 61.2202L95.3564 65.0356L93.3158 68.3245L90.1517 71.342L86.8574 73.6648L83.7639 76.3459L79.7749 77.4042L76.1115 79.0486L72.2311 80.2535L68.1498 80.4868L64.2477 79.2983L60.8828 77.9632Z" stroke="#383839" stroke-width="1.62816" stroke-linecap="round" stroke-linejoin="round"/>
<path d="M57.0625 118.933L60.9375 119.178L64.7583 118.95L68.21 120.545L70.8313 123.069L72.492 126.255L73.4744 129.951L69.3985 130.515L65.4367 130.889L61.7516 129.592L58.6581 127.014L57.9091 122.998L57.0625 118.933Z" fill="#41B879"/>
<path d="M57.0625 118.933L60.9375 119.178L64.7583 118.95L68.21 120.545L70.8313 123.069L72.492 126.255L73.4744 129.951L69.3985 130.515L65.4367 130.889L61.7516 129.592L58.6581 127.014L57.9091 122.998L57.0625 118.933Z" stroke="#383839" stroke-width="1.62816" stroke-linecap="round" stroke-linejoin="round"/>
<path d="M44.5658 60.6072L44.7341 56.5097L43.4315 52.8951L43.1276 49.0635L41.8034 45.3622L39.1332 42.5671L36.4413 39.8915L33.8905 36.8414L30.1403 35.5877L26.504 34.41L22.6833 34.117L19.0416 32.7493L15.1504 32.5322L11.5086 33.6231L9.18042 36.3313L8.45312 39.6636L8.8385 43.3541L11.4273 46.2034L13.7718 49.0907L16.2955 51.8477L19.0959 54.3442L22.4933 56.0429L25.7443 57.9804L29.4944 58.724L33.0493 59.8257L36.8863 59.5109L40.5714 60.6886L44.5658 60.6072Z" fill="#41B879"/>
<path d="M44.5658 60.6072L44.7341 56.5097L43.4315 52.8951L43.1276 49.0635L41.8034 45.3622L39.1332 42.5671L36.4413 39.8915L33.8905 36.8414L30.1403 35.5877L26.504 34.41L22.6833 34.117L19.0416 32.7493L15.1504 32.5322L11.5086 33.6231L9.18042 36.3313L8.45312 39.6636L8.8385 43.3541L11.4273 46.2034L13.7718 49.0907L16.2955 51.8477L19.0959 54.3442L22.4933 56.0429L25.7443 57.9804L29.4944 58.724L33.0493 59.8257L36.8863 59.5109L40.5714 60.6886L44.5658 60.6072Z" stroke="#383839" stroke-width="1.62816" stroke-linecap="round" stroke-linejoin="round"/>
<path d="M52.8087 41.1831L50.5835 37.4546L48.2118 34.1929L45.7099 30.9691L44.5647 27.0181L42.3179 23.5718L41.8403 19.4906L40.706 15.583L40.6191 11.4746L42.1713 7.66466L44.5213 4.43004L47.642 2.06921L51.6852 1.65674L55.4626 3.38259L57.6334 6.87772L59.4462 10.1015L61.3566 13.4338L62.5179 17.108L62.0892 20.9776L62.6862 24.8147L61.6659 28.5323L60.5479 32.2499L58.2793 35.3869L55.9619 38.4587L52.8087 41.1831Z" fill="#41B879"/>
<path d="M52.8087 41.1831L50.5835 37.4546L48.2118 34.1929L45.7099 30.9691L44.5647 27.0181L42.3179 23.5718L41.8403 19.4906L40.706 15.583L40.6191 11.4746L42.1713 7.66466L44.5213 4.43004L47.642 2.06921L51.6852 1.65674L55.4626 3.38259L57.6334 6.87772L59.4462 10.1015L61.3566 13.4338L62.5179 17.108L62.0892 20.9776L62.6862 24.8147L61.6659 28.5323L60.5479 32.2499L58.2793 35.3869L55.9619 38.4587L52.8087 41.1831Z" stroke="#383839" stroke-width="1.62816" stroke-linecap="round" stroke-linejoin="round"/>
<path d="M44.7084 56.249L47.3786 57.8934L50.3527 59.6247L50.6241 55.093L46.9499 53.2911L43.7207 51.2017L44.7084 56.249Z" fill="#FFF6F0"/>
<path d="M44.7084 56.249L47.3786 57.8934L50.3527 59.6247L50.6241 55.093L46.9499 53.2911L43.7207 51.2017L44.7084 56.249Z" stroke="#383839" stroke-width="1.62816" stroke-linecap="round" stroke-linejoin="round"/>
<path d="M49.1828 91.9923L46.8111 89.3656L44.0596 86.6248L40.6567 84.6982L37.5415 82.435L34.4208 80.1719L30.942 78.4786L27.805 76.1829L24.2665 74.6253L20.5922 73.453L16.9126 72.3567L13.1027 72.0256L9.33076 72.1613L5.73795 73.2142L2.25372 75.054L1 78.7391L1.46673 82.4405L3.11119 85.9953L5.81394 88.5406L8.94545 90.5921L12.4026 92.0249L15.7621 93.805L19.5936 93.9027L23.2245 94.8851L26.9475 95.7263L30.7357 95.7046L34.5076 95.3355L38.2796 95.037L41.894 93.805L45.5194 92.8227L49.1828 91.9923Z" fill="#89CB9A"/>
<path d="M49.1828 91.9923L46.8111 89.3656L44.0596 86.6248L40.6567 84.6982L37.5415 82.435L34.4208 80.1719L30.942 78.4786L27.805 76.1829L24.2665 74.6253L20.5922 73.453L16.9126 72.3567L13.1027 72.0256L9.33076 72.1613L5.73795 73.2142L2.25372 75.054L1 78.7391L1.46673 82.4405L3.11119 85.9953L5.81394 88.5406L8.94545 90.5921L12.4026 92.0249L15.7621 93.805L19.5936 93.9027L23.2245 94.8851L26.9475 95.7263L30.7357 95.7046L34.5076 95.3355L38.2796 95.037L41.894 93.805L45.5194 92.8227L49.1828 91.9923Z" stroke="#383839" stroke-width="1.62816" stroke-linecap="round" stroke-linejoin="round"/>
<path d="M50.3987 92.1718L46.6051 92.1772L42.844 92.0469L39.083 92.1392L35.2731 91.8516L31.5012 92.2369L27.7238 92.6873L23.9736 93.4146L20.5545 95.1839L16.8639 96.3344L14.3403 99.2814L11.7461 102.114L11.7841 105.675L13.016 109.012L15.8979 111.183L19.2899 112.242L23.2247 111.509L27.1974 111.894L30.9584 110.706L34.2148 108.475L37.6828 106.717L40.418 103.943L43.5496 101.604L45.943 98.5379L48.3472 95.4769L50.6646 92.3454L50.3987 92.1718Z" fill="#41B879"/>
<path d="M50.3987 92.1718L46.6051 92.1772L42.844 92.0469L39.083 92.1392L35.2731 91.8516L31.5012 92.2369L27.7238 92.6873L23.9736 93.4146L20.5545 95.1839L16.8639 96.3344L14.3403 99.2814L11.7461 102.114L11.7841 105.675L13.016 109.012L15.8979 111.183L19.2899 112.242L23.2247 111.509L27.1974 111.894L30.9584 110.706L34.2148 108.475L37.6828 106.717L40.418 103.943L43.5496 101.604L45.943 98.5379L48.3472 95.4769L50.6646 92.3454L50.3987 92.1718Z" stroke="#383839" stroke-width="1.62816" stroke-linecap="round" stroke-linejoin="round"/>
<path d="M56.4541 77.6866L60.3725 77.1276L64.2204 76.5957L68.1172 76.9159L71.6449 78.658L75.1617 80.1234L78.6894 81.6756L81.924 83.7868L84.6539 86.5384L86.2006 88.3999L84.9252 91.6834L81.1371 92.5137H78.1521L75.0314 93.2138L71.4278 92.0198L67.683 91.412L64.3887 89.4962L61.2246 87.5587L58.5327 85.0567L57.089 81.7516L56.465 78.1045L56.4541 77.6866Z" fill="#89CB9A"/>
<path d="M56.4541 77.6866L60.3725 77.1276L64.2204 76.5957L68.1172 76.9159L71.6449 78.658L75.1617 80.1234L78.6894 81.6756L81.924 83.7868L84.6539 86.5384L86.2006 88.3999L84.9252 91.6834L81.1371 92.5137H78.1521L75.0314 93.2138L71.4278 92.0198L67.683 91.412L64.3887 89.4962L61.2246 87.5587L58.5327 85.0567L57.089 81.7516L56.465 78.1045L56.4541 77.6866Z" stroke="#383839" stroke-width="1.62816" stroke-linecap="round" stroke-linejoin="round"/>
<path d="M60.7871 66.6314L60.9988 62.6478L60.8414 58.7619L60.95 54.8381L61.7911 50.9847L63.1534 47.2508L65.5685 44.0976L68.1627 41.1506L71.2508 38.7192L74.8707 37.1942L78.3062 35.3001L82.0075 33.8673L86.3004 33.7371L90.5391 33.8402L94.1536 35.2241L97.5239 37.1453L98.3001 40.9661L96.9757 44.6132L95.4019 48.2711L93.0736 51.5546L90.4197 54.5776L87.223 57.0198L84.3195 59.9559L80.553 61.5515L76.6834 62.7726L73.0906 64.8404L69.0853 65.6816L65.0638 66.3817L60.9825 66.6097L60.7871 66.6314Z" fill="#89CB9A"/>
<path d="M60.7871 66.6314L60.9988 62.6478L60.8414 58.7619L60.95 54.8381L61.7911 50.9847L63.1534 47.2508L65.5685 44.0976L68.1627 41.1506L71.2508 38.7192L74.8707 37.1942L78.3062 35.3001L82.0075 33.8673L86.3004 33.7371L90.5391 33.8402L94.1536 35.2241L97.5239 37.1453L98.3001 40.9661L96.9757 44.6132L95.4019 48.2711L93.0736 51.5546L90.4197 54.5776L87.223 57.0198L84.3195 59.9559L80.553 61.5515L76.6834 62.7726L73.0906 64.8404L69.0853 65.6816L65.0638 66.3817L60.9825 66.6097L60.7871 66.6314Z" stroke="#383839" stroke-width="1.62816" stroke-linecap="round" stroke-linejoin="round"/>
<path d="M60.8828 104.828L63.8406 103.178L67.4877 102.706L71.2379 101.751L74.771 103.27L78.3693 104.361L81.6147 106.288L84.1384 109.132L87.2861 111.254L89.5114 114.304L92.301 117.327L92.6319 121.446L89.9075 124.057L86.0379 125.012L82.0272 124.648L78.2879 123.666L74.7439 122.119L71.3953 120.176L68.2366 117.908L65.2951 115.275L63.3304 111.862L61.8379 108.263L60.8828 104.828Z" fill="#89CB9A"/>
<path d="M60.8828 104.828L63.8406 103.178L67.4877 102.706L71.2379 101.751L74.771 103.27L78.3693 104.361L81.6147 106.288L84.1384 109.132L87.2861 111.254L89.5114 114.304L92.301 117.327L92.6319 121.446L89.9075 124.057L86.0379 125.012L82.0272 124.648L78.2879 123.666L74.7439 122.119L71.3953 120.176L68.2366 117.908L65.2951 115.275L63.3304 111.862L61.8379 108.263L60.8828 104.828Z" stroke="#383839" stroke-width="1.62816" stroke-linecap="round" stroke-linejoin="round"/>
<path d="M60.2969 104.888L64.0308 106.31L67.6399 107.976L70.7931 110.51L74.3913 112.204L77.8974 114.065L81.6367 115.487L84.8659 117.875L88.2796 119.926L92.0677 121.267" stroke="#383839" stroke-width="1.62816" stroke-linecap="round" stroke-linejoin="round"/>
<path d="M13.7959 123.861L17.9477 123.709L21.725 121.94L25.7737 121.354L29.7411 120.393L33.8115 119.878L37.8167 119.085L41.6158 117.392L45.7513 117.126" stroke="#383839" stroke-width="1.62816" stroke-linecap="round" stroke-linejoin="round"/>
<path d="M1.84668 77.0081L5.43406 78.6308L9.12996 79.9116L12.929 80.8451L16.7064 81.8654L20.5869 82.5221L24.044 84.5845L27.7671 85.7622L31.7018 86.2669L35.3217 87.7974L39.213 88.4378L42.8221 89.9954L46.6375 90.9126L50.773 92.15L46.442 93.306L42.7679 95.0373L38.958 96.4429L35.2403 98.0765L31.6855 100.112L27.6314 100.915L24.0711 102.939L20.0115 103.732L16.3699 105.555L12.7065 107.341" stroke="#383839" stroke-width="1.62816" stroke-linecap="round" stroke-linejoin="round"/>
<path d="M9.38281 59.804L12.8073 61.5787L16.2374 63.3479L19.358 65.6274L22.6144 67.6897L25.8869 69.7249L29.2138 71.6678L32.8175 73.144L36.1932 75.011L39.3736 77.1982L42.4942 79.4993" stroke="#383839" stroke-width="1.62816" stroke-linecap="round" stroke-linejoin="round"/>
<path d="M10.1562 36.4995L13.5917 38.5727L16.8317 40.9118L19.719 43.772L22.9862 46.0785L26.6279 47.8532L29.8353 50.2575L32.8475 52.9277L36.2937 54.99L39.8268 56.933L42.5784 59.9885" stroke="#383839" stroke-width="1.62816" stroke-linecap="round" stroke-linejoin="round"/>
<path d="M52.3543 39.9347L52.9242 36.1628L53.0165 32.3909L52.159 28.6516L51.9419 24.8959L51.7954 21.1403L51.5837 17.3792L51.5674 13.6073L51.3829 9.83542L50.6122 6.14491L49.25 2.59009" stroke="#383839" stroke-width="1.62816" stroke-linecap="round" stroke-linejoin="round"/>
<path d="M59.4717 44.3744L61.572 40.9661L63.5041 37.4656L65.5285 34.0138L67.0427 30.2962L69.4904 27.0562L71.4496 23.5556L73.0886 19.8977L74.8958 16.3103L76.0355 12.4407" stroke="#383839" stroke-width="1.62816" stroke-linecap="round" stroke-linejoin="round"/>
<path d="M61.3271 65.866L63.7966 62.9896L66.1845 60.0372L68.8981 57.3833L71.856 54.979L74.3253 52.0918L76.7133 49.0797L79.8882 46.9468L82.9166 44.6673L86.2326 42.8221L89.4835 40.9443L92.8104 39.1479L96.387 37.6934" stroke="#383839" stroke-width="1.62816" stroke-linecap="round" stroke-linejoin="round"/>
<path d="M56.5898 78.2727L60.1067 79.9063L63.6452 81.4965L67.1729 83.1138L70.9828 84.0527L74.5973 85.4583L78.2933 86.6903L81.7992 88.3565L85.4409 89.7133" stroke="#383839" stroke-width="1.62816" stroke-linecap="round" stroke-linejoin="round"/>
<path d="M93.7792 58.3115L90.5229 60.0971L87.3262 61.964L84.3467 64.1675L81.3617 66.3547L78.2845 68.417L74.9576 70.0886L72.0106 72.3354L68.7705 74.159L66.0244 76.7098" stroke="#383839" stroke-width="1.62816" stroke-linecap="round" stroke-linejoin="round"/>
<path d="M73.4845 129.809L70.6352 127.557L67.1129 126.314L64.2419 124.095L61.2895 121.989L58.082 120.258" stroke="#383839" stroke-width="1.62816" stroke-linecap="round" stroke-linejoin="round"/>
<path d="M37.0254 174.427L41.378 174.226L45.8012 173.515L50.3872 173.108L49.991 175.181L48.7102 179.262L44.7863 181.118L43.1799 181.683L39.142 179.653L37.541 175.816L37.0254 174.427Z" fill="#F3F2F2"/>
<path d="M54.2255 173.526L58.5782 173.026L63.0067 172.435L67.3756 172.988L68.0811 174.231L66.1654 178.633L61.9647 180.657L60.2389 180.326L56.3584 178.806L53.8076 175.121L54.2255 173.526Z" fill="#F3F2F2"/>
<path d="M47.6348 177.037L52.0688 175.854L56.0415 177.422" stroke="#F3F2F2" stroke-width="1.08544" stroke-miterlimit="10"/>
<path d="M49.21 185.221L53.2912 185.889L55.8366 182.942" stroke="#F3F2F2" stroke-width="1.6" stroke-miterlimit="10"/>
<path d="M40.5068 175.87L42.461 178.894" stroke="#363737" stroke-width="1.08544" stroke-miterlimit="10" stroke-linecap="round"/>
<path d="M43.0215 176.174L44.7042 178.302" stroke="#363737" stroke-width="1.08544" stroke-miterlimit="10" stroke-linecap="round"/>
<path d="M58.7979 175.219L60.7086 178.275" stroke="#363737" stroke-width="1.08544" stroke-miterlimit="10" stroke-linecap="round"/>
<path d="M61.2754 175.544L63.007 177.634" stroke="#363737" stroke-width="1.08544" stroke-miterlimit="10" stroke-linecap="round"/>
</svg>
