<svg width="230" height="225" viewBox="0 0 230 225" fill="none" xmlns="http://www.w3.org/2000/svg">
<g id="_&#235;&#160;&#136;&#236;&#157;&#180;&#236;&#150;&#180;_1">
<g id="Group">
<g id="Group_2">
<path id="Vector" d="M204.144 196.097C201.673 198.491 200.554 195.902 197.114 195.902C193.674 195.902 193.674 195.717 190.233 195.717C186.793 195.717 186.793 195.668 183.353 195.668C179.913 195.668 179.913 196.202 176.473 196.202C173.032 196.202 173.032 196.03 169.592 196.03C166.151 196.03 166.152 195.945 162.711 195.945C159.27 195.945 159.271 195.783 155.83 195.783C152.39 195.783 152.391 195.996 148.95 195.996C145.511 195.996 145.511 196.211 142.072 196.211C138.632 196.211 138.632 195.995 135.192 195.995C131.752 195.995 131.752 195.795 128.314 195.795C124.875 195.795 124.874 195.72 121.433 195.72C117.992 195.72 117.992 195.963 114.552 195.963C111.111 195.963 111.112 196.044 107.671 196.044C104.231 196.044 104.231 195.774 100.791 195.774C97.3504 195.774 97.3504 195.894 93.9098 195.894C90.4693 195.894 90.4687 196.131 87.0276 196.131C83.5865 196.131 83.5871 196.152 80.1466 196.152C76.706 196.152 76.7055 196.052 73.2649 196.052C69.8244 196.052 69.8238 195.971 66.3827 195.971C62.9416 195.971 62.9428 196.182 59.5028 196.182C56.0628 196.182 56.0622 195.992 52.6211 195.992C49.18 195.992 49.1789 195.889 45.7372 195.889C42.2956 195.889 42.2961 195.941 38.8556 195.941C35.4151 195.941 35.4123 195.995 31.9689 195.995C28.5255 195.995 27.446 198.451 24.971 196.057C22.5778 193.743 25.0816 192.613 25.0816 189.284C25.0816 185.954 25.2949 185.953 25.2949 182.623C25.2949 179.293 24.9908 179.293 24.9908 175.962C24.9908 172.631 24.8971 172.631 24.8971 169.301C24.8971 165.971 25.2774 165.971 25.2774 162.641C25.2774 159.311 25.0579 159.31 25.0579 155.979C25.0579 152.648 25.313 152.648 25.313 149.316C25.313 145.985 25.015 145.986 25.015 142.655C25.015 139.324 25.291 139.324 25.291 135.993C25.291 132.662 25.0156 132.662 25.0156 129.331C25.0156 126 25.348 126.001 25.348 122.671C25.348 119.341 24.8288 119.34 24.8288 116.009C24.8288 112.679 24.892 112.677 24.892 109.345C24.892 106.014 24.839 106.014 24.839 102.683C24.839 99.3522 25.1064 99.35 25.1064 96.0166C25.1064 92.6833 25.0009 92.6833 25.0009 89.35C25.0009 87.024 25.0382 84.7081 25.2154 82.4272C25.3954 80.1107 25.5246 77.7864 25.8801 75.5235C26.2401 73.2308 26.9043 70.9967 27.4381 68.7666C27.9776 66.5122 28.644 64.2996 29.3528 62.1158C30.0678 59.9133 30.8589 57.7436 31.7392 55.6207C32.6257 53.4837 33.3887 51.2812 34.4343 49.2328C35.4856 47.1737 36.7107 45.1964 37.9149 43.2349C39.1191 41.2733 40.4283 39.3485 41.7838 37.4863C43.1392 35.6241 44.8513 34.0322 46.3489 32.2807C47.8466 30.5291 49.1823 28.6234 50.8131 26.9932C52.444 25.3629 54.1092 23.7507 55.863 22.2514C57.6169 20.752 59.5474 19.4705 61.4141 18.1122C63.2808 16.7539 65.2079 15.5018 67.1761 14.293C69.1444 13.0843 71.1781 12.0279 73.2373 10.9766C75.2857 9.931 77.3279 8.86616 79.4649 7.98021C81.5872 7.0999 83.7784 6.39114 85.9809 5.67618C88.1641 4.96741 90.3722 4.33201 92.6266 3.79254C94.8567 3.25928 97.1348 2.96641 99.4276 2.60582C101.69 2.25031 103.927 1.55001 106.243 1.37C108.524 1.19281 110.842 1.49246 113.168 1.49246C114.538 1.49246 114.538 1.4033 115.909 1.4033C118.235 1.4033 120.527 1.52744 122.808 1.70407C125.125 1.88408 127.471 1.71592 129.734 2.07199C132.027 2.43202 134.293 2.95851 136.523 3.49177C138.777 4.03124 140.989 4.73549 143.172 5.44425C145.375 6.15922 147.579 6.88716 149.701 7.76691C151.838 8.65342 153.878 9.76284 155.926 10.809C157.986 11.8603 159.849 13.2389 161.81 14.4431C163.772 15.6474 165.834 16.7133 167.697 18.0688C169.559 19.4242 171.426 20.7989 173.178 22.2965C174.931 23.7958 176.642 25.3561 178.273 26.987C179.903 28.6178 181.383 30.3976 182.882 32.1514C184.38 33.903 185.618 35.8532 186.976 37.7199C188.334 39.5867 189.66 41.4494 190.868 43.4177C192.077 45.386 193.139 47.4073 194.19 49.4659C195.236 51.5143 196.453 53.4842 197.339 55.6212C198.22 57.7436 198.763 59.994 199.479 62.1965C200.187 64.3797 201.157 66.4992 201.696 68.7536C202.229 70.9837 202.742 73.2466 203.102 75.5388C203.457 77.8016 203.672 80.1113 203.852 82.4277C204.03 84.7086 204.155 87.024 204.155 89.35C204.155 92.6794 204.272 92.6794 204.272 96.0087C204.272 99.3381 203.795 99.3392 203.795 102.669C203.795 105.999 203.819 106 203.819 109.331C203.819 112.662 203.759 112.661 203.759 115.991C203.759 119.321 203.966 119.322 203.966 122.652C203.966 125.982 203.882 125.982 203.882 129.313C203.882 132.644 204.235 132.644 204.235 135.976C204.235 139.307 203.775 139.306 203.775 142.637C203.775 145.968 203.846 145.968 203.846 149.3C203.846 152.631 203.916 152.631 203.916 155.962C203.916 159.293 204.185 159.292 204.185 162.622C204.185 165.951 203.956 165.953 203.956 169.283C203.956 172.614 203.756 172.615 203.756 175.947C203.756 179.279 203.838 179.278 203.838 182.609C203.838 185.94 203.342 186.006 204.082 189.255C204.893 192.816 206.538 193.777 204.144 196.097Z" stroke="#363737" stroke-width="0.141075" stroke-linecap="round" stroke-linejoin="round"/>
<g id="Group_3">
<g id="Group_4" opacity="0.3">
<path id="Vector_2" d="M204.146 196.096C201.676 198.49 200.556 195.901 197.116 195.901C193.676 195.901 193.676 195.716 190.235 195.716C186.795 195.716 186.796 195.667 183.356 195.667C179.916 195.667 179.916 196.201 176.475 196.201C173.034 196.201 173.034 196.029 169.594 196.029C166.153 196.029 166.154 195.945 162.713 195.945C159.273 195.945 159.273 195.782 155.833 195.782C152.392 195.782 152.393 195.995 148.952 195.995C145.514 195.995 145.514 196.211 142.074 196.211C138.635 196.211 138.634 195.994 135.194 195.994C131.754 195.994 131.755 195.794 128.316 195.794C124.877 195.794 124.876 195.719 121.435 195.719C117.995 195.719 117.995 195.962 114.554 195.962C111.114 195.962 111.114 196.044 107.674 196.044C104.233 196.044 104.234 195.773 100.793 195.773C97.3528 195.773 97.3528 195.893 93.9123 195.893C90.4718 195.893 90.4712 196.13 87.0301 196.13C83.589 196.13 83.5895 196.151 80.149 196.151C76.7085 196.151 76.7079 196.051 73.2674 196.051C69.8268 196.051 69.8263 195.97 66.3852 195.97C62.9441 195.97 62.9452 196.182 59.5052 196.182C56.0653 196.182 56.0647 195.991 52.6236 195.991C49.1825 195.991 49.1814 195.889 45.7397 195.889C42.298 195.889 42.2986 195.94 38.858 195.94C35.4175 195.94 35.4147 195.995 31.9713 195.995C28.528 195.995 27.4485 198.451 24.9735 196.057C22.5803 193.743 25.0841 192.612 25.0841 189.283C25.0841 185.954 25.2974 185.952 25.2974 182.623C25.2974 179.293 24.9932 179.292 24.9932 175.961C24.9932 172.63 24.8995 172.63 24.8995 169.301C24.8995 165.971 25.2799 165.97 25.2799 162.64C25.2799 159.31 25.0604 159.31 25.0604 155.979C25.0604 152.647 25.3154 152.647 25.3154 149.316C25.3154 145.984 25.0175 145.985 25.0175 142.654C25.0175 139.323 25.2934 139.323 25.2934 135.992C25.2934 132.661 25.018 132.661 25.018 129.33C25.018 125.999 25.3504 126 25.3504 122.67C25.3504 119.34 24.8312 119.339 24.8312 116.009C24.8312 112.678 24.8944 112.676 24.8944 109.345C24.8944 106.013 24.8414 106.014 24.8414 102.683C24.8414 99.3516 25.1089 99.3494 25.1089 96.016C25.1089 92.6827 25.0034 92.6827 25.0034 89.3494C25.0034 87.0233 25.0406 84.7075 25.2178 82.4266C25.3978 80.1101 25.527 77.7858 25.8825 75.5229C26.2426 73.2302 26.9067 70.9961 27.4406 68.766C27.98 66.5116 28.6465 64.299 29.3552 62.1152C30.0702 59.9127 30.8614 57.743 31.7417 55.6201C32.6282 53.4831 33.3911 51.2806 34.4368 49.2322C35.4881 47.1731 36.7131 45.1957 37.9174 43.2342C39.1216 41.2727 40.4308 39.3479 41.7862 37.4857C43.1417 35.6235 44.8537 34.0316 46.3514 32.2801C47.849 30.5285 49.1847 28.6228 50.8156 26.9926C52.4464 25.3623 54.1116 23.7501 55.8655 22.2507C57.6193 20.7514 59.5498 19.4699 61.4165 18.1116C63.2832 16.7533 65.2103 15.5012 67.1786 14.2924C69.1469 13.0837 71.1806 12.0273 73.2397 10.976C75.2881 9.93039 77.3303 8.86555 79.4673 7.9796C81.5897 7.09929 83.7808 6.39053 85.9833 5.67557C88.1666 4.9668 90.3747 4.3314 92.6291 3.79193C94.8592 3.25867 97.1373 2.9658 99.43 2.60521C101.693 2.2497 103.929 1.5494 106.246 1.36939C108.527 1.1922 110.845 1.49185 113.171 1.49185C114.541 1.49185 114.541 1.40269 115.912 1.40269C118.238 1.40269 120.53 1.52683 122.811 1.70346C125.127 1.88347 127.473 1.71531 129.736 2.07138C132.029 2.43141 134.295 2.9579 136.525 3.49116C138.78 4.03063 140.991 4.73488 143.175 5.44364C145.377 6.15861 147.581 6.88655 149.703 7.7663C151.841 8.65281 153.88 9.76223 155.929 10.8084C157.988 11.8597 159.851 13.2383 161.813 14.4425C163.774 15.6467 165.837 16.7127 167.699 18.0682C169.561 19.4236 171.428 20.7982 173.18 22.2959C174.934 23.7952 176.645 25.3555 178.275 26.9864C179.905 28.6172 181.386 30.397 182.885 32.1508C184.383 33.9024 185.62 35.8526 186.978 37.7193C188.337 39.586 189.662 41.4488 190.871 43.4171C192.08 45.3854 193.142 47.4067 194.192 49.4652C195.238 51.5137 196.456 53.4836 197.342 55.6206C198.222 57.743 198.765 59.9934 199.481 62.1958C200.19 64.3791 201.159 66.4986 201.699 68.753C202.232 70.9831 202.744 73.246 203.104 75.5382C203.46 77.801 203.675 80.1107 203.855 82.4271C204.032 84.708 204.157 87.0233 204.157 89.3494C204.157 92.6788 204.274 92.6788 204.274 96.0081C204.274 99.3375 203.798 99.3386 203.798 102.669C203.798 105.999 203.822 105.999 203.822 109.33C203.822 112.661 203.761 112.661 203.761 115.991C203.761 119.32 203.969 119.321 203.969 122.651C203.969 125.981 203.885 125.981 203.885 129.313C203.885 132.644 204.237 132.644 204.237 135.975C204.237 139.307 203.778 139.306 203.778 142.637C203.778 145.968 203.848 145.968 203.848 149.299C203.848 152.63 203.919 152.63 203.919 155.961C203.919 159.292 204.188 159.291 204.188 162.621C204.188 165.951 203.958 165.952 203.958 169.282C203.958 172.613 203.758 172.615 203.758 175.946C203.758 179.278 203.841 179.277 203.841 182.608C203.841 185.939 203.344 186.005 204.085 189.255C204.895 192.815 206.54 193.776 204.146 196.096Z" stroke="#928D8D" stroke-width="0.141075" stroke-linecap="round" stroke-linejoin="round"/>
</g>
</g>
</g>
<path id="Vector_3" d="M114.369 92.754C114.369 96.1929 114.489 96.1929 114.489 99.6317C114.489 103.071 114.726 103.071 114.726 106.511C114.726 109.95 114.747 109.949 114.747 113.388C114.747 116.827 114.647 116.827 114.647 120.266C114.647 123.705 114.566 123.705 114.566 127.144C114.566 130.584 114.778 130.584 114.778 134.024C114.778 137.463 114.587 137.463 114.587 140.902C114.587 144.341 114.485 144.341 114.485 147.781C114.485 151.22 114.536 151.22 114.536 154.66C114.536 158.1 114.591 158.098 114.591 161.537C114.591 164.976 114.698 164.977 114.698 168.416C114.698 171.855 114.538 171.856 114.538 175.297C114.538 178.738 114.325 178.736 114.325 182.176C114.325 185.615 114.629 185.617 114.629 189.06C114.629 192.502 114.723 192.501 114.723 195.944" stroke="#353737" stroke-width="1.6929" stroke-miterlimit="10"/>
<path id="Vector_4" d="M25.5967 92.7609C29.0169 92.7609 29.0169 92.9539 32.4371 92.9539C35.8573 92.9539 35.8573 92.591 39.2781 92.591C42.6989 92.591 42.6984 92.7744 46.1186 92.7744C49.5388 92.7744 49.5388 92.6192 52.9596 92.6192C56.3804 92.6192 56.3804 92.5837 59.8012 92.5837C63.2219 92.5837 63.2214 92.5543 66.6422 92.5543C70.063 92.5543 70.0624 92.6762 73.4832 92.6762C76.904 92.6762 76.9034 92.9962 80.3242 92.9962C83.745 92.9962 83.7433 92.6977 87.1629 92.6977C90.5826 92.6977 90.5832 92.9781 94.0034 92.9781C97.4236 92.9781 97.423 92.8179 100.842 92.8179C104.261 92.8179 104.262 92.6051 107.683 92.6051C111.103 92.6051 111.103 92.7259 114.524 92.7259C117.945 92.7259 117.944 92.8432 121.365 92.8432C124.786 92.8432 124.785 92.9821 128.206 92.9821C131.627 92.9821 131.627 92.78 135.048 92.78C138.469 92.78 138.469 92.894 141.89 92.894C145.312 92.894 145.311 92.6164 148.732 92.6164C152.153 92.6164 152.153 92.9544 155.574 92.9544C158.995 92.9544 158.996 92.7863 162.417 92.7863C165.838 92.7863 165.837 92.942 169.257 92.942C172.678 92.942 172.678 92.8811 176.099 92.8811C179.521 92.8811 179.521 92.9601 182.944 92.9601C186.366 92.9601 186.365 92.6903 189.786 92.6903C193.207 92.6903 193.21 92.7439 196.633 92.7439C200.056 92.7439 200.056 92.8681 203.479 92.8681" stroke="#353737" stroke-opacity="0.6" stroke-width="1.6929" stroke-miterlimit="10"/>
<path id="Vector_5" d="M203.891 195.839C201.421 198.233 200.552 196.002 197.112 196.002C193.671 196.002 193.672 196.004 190.231 196.004C186.79 196.004 186.791 195.713 183.351 195.713C179.911 195.713 179.911 196.172 176.471 196.172C173.03 196.172 173.03 196.187 169.589 196.187C166.149 196.187 166.15 196.196 162.709 196.196C159.268 196.196 159.269 195.946 155.828 195.946C152.388 195.946 152.388 195.793 148.948 195.793C145.507 195.793 145.509 195.905 142.07 195.905C138.63 195.905 138.63 196.14 135.19 196.14C131.75 196.14 131.75 195.828 128.312 195.829C124.873 195.829 124.872 195.665 121.431 195.665C117.99 195.665 117.99 195.985 114.55 195.985C111.109 195.985 111.11 195.857 107.669 195.857C104.229 195.857 104.229 196.053 100.789 196.053C97.3484 196.053 97.3484 195.758 93.9078 195.758C90.4673 195.758 90.4667 195.928 87.0256 195.928C83.5845 195.928 83.5851 196.173 80.1445 196.173C76.704 196.173 76.7034 195.667 73.2629 195.667C69.8224 195.667 69.8218 195.911 66.3807 195.911C62.9396 195.911 62.9407 195.713 59.5008 195.713C56.0608 195.713 56.0602 196.003 52.6191 196.003C49.178 196.003 49.1769 196.171 45.7352 196.171C42.2936 196.171 42.2941 195.775 38.8536 195.775C35.413 195.775 35.4102 195.67 31.9669 195.67C28.5235 195.67 27.4807 198.413 25.0057 196.019C22.6125 193.705 24.9679 192.612 24.9679 189.283C24.9679 185.954 24.8121 185.952 24.8121 182.623C24.8121 179.293 25.1055 179.292 25.1055 175.961C25.1055 172.63 25.3397 172.63 25.3397 169.301C25.3397 165.971 24.9521 165.97 24.9521 162.64C24.9521 159.31 25.2128 159.31 25.2128 155.979C25.2128 152.648 25.0079 152.647 25.0079 149.316C25.0079 145.984 25.0333 145.985 25.0333 142.654C25.0333 139.323 25.3262 139.323 25.3262 135.992C25.3262 132.661 25.3369 132.661 25.3369 129.33C25.3369 125.999 25.2506 126 25.2506 122.67C25.2506 119.34 25.2686 119.339 25.2686 116.009C25.2686 112.678 25.0474 112.676 25.0474 109.345C25.0474 106.013 24.9932 106.014 24.9932 102.683C24.9932 99.3516 24.8595 99.3494 24.8595 96.016C24.8595 92.6827 24.8347 92.6827 24.8347 89.3494C24.8347 87.0234 25.1208 84.7142 25.298 82.4333C25.478 80.1169 25.8453 77.8371 26.2009 75.5743C26.5609 73.2815 26.698 70.9481 27.2313 68.718C27.7707 66.4636 28.5275 64.2629 29.2368 62.0796C29.9518 59.8771 30.9201 57.7706 31.8004 55.6483C32.6869 53.5113 33.5091 51.3455 34.5553 49.2971C35.6066 47.2379 36.716 45.2025 37.9202 43.241C39.1244 41.2795 40.4759 39.3857 41.8308 37.5235C43.1857 35.6613 44.6179 33.8364 46.1156 32.0842C47.6132 30.3321 49.0883 28.5331 50.7191 26.9028C52.3499 25.2726 54.1123 23.758 55.8661 22.2586C57.6199 20.7593 59.3755 19.2385 61.2416 17.8802C63.1038 16.5248 65.1771 15.4571 67.1453 14.2484C69.1136 13.0397 71.0667 11.8163 73.1258 10.765C75.1742 9.71933 77.2914 8.78655 79.4284 7.90059C81.5508 7.02029 83.6663 6.0559 85.8688 5.34093C88.0521 4.63217 90.3623 4.30318 92.6167 3.76428C94.8468 3.23101 97.108 2.81456 99.4002 2.45397C101.663 2.09846 103.933 1.67411 106.25 1.4941C108.531 1.31691 110.839 1.21025 113.165 1.21025C114.535 1.21025 114.535 0.996948 115.906 0.996948C118.232 0.996948 120.538 1.34343 122.819 1.52005C125.136 1.70007 127.441 1.88459 129.704 2.2401C131.997 2.60012 134.309 2.87663 136.539 3.41046C138.793 3.94993 141.001 4.68521 143.185 5.39397C145.388 6.10894 147.457 7.17434 149.579 8.05465C151.716 8.94116 153.982 9.55343 156.03 10.5996C158.09 11.6509 160.021 12.9545 161.982 14.1592C163.95 15.368 165.699 16.895 167.561 18.2504C169.424 19.6059 171.243 21.0093 172.995 22.5069C174.747 24.0046 176.578 25.4176 178.209 27.0479C179.839 28.6781 181.315 30.4528 182.814 32.2067C184.312 33.9583 185.703 35.7883 187.061 37.655C188.419 39.5217 189.92 41.2868 191.128 43.2551C192.337 45.2234 193.195 47.3762 194.246 49.4348C195.292 51.4832 196.52 53.4543 197.407 55.5913C198.287 57.7136 198.899 59.9477 199.615 62.1501C200.324 64.3334 201.089 66.5133 201.628 68.7677C202.161 70.9978 202.734 73.246 203.094 75.5382C203.45 77.801 203.547 80.1197 203.727 82.4362C203.905 84.7171 204.1 87.0228 204.1 89.3488C204.1 91.5684 204.102 93.788 204.105 96.0076C204.105 99.3381 203.999 99.3381 203.999 102.668C203.999 105.998 204.029 105.999 204.029 109.33C204.029 112.661 203.801 112.66 203.801 115.99C203.801 119.32 203.775 119.32 203.775 122.65C203.775 125.98 204.09 125.981 204.09 129.312C204.09 132.643 204.015 132.643 204.015 135.975C204.015 139.306 203.772 139.305 203.772 142.636C203.772 145.967 203.757 145.967 203.757 149.298C203.757 152.629 204.24 152.629 204.24 155.96C204.24 159.292 203.836 159.29 203.836 162.62C203.836 165.95 204.233 165.951 204.233 169.282C204.233 172.612 204.221 172.614 204.221 175.946C204.221 179.277 204.268 179.277 204.268 182.608C204.268 185.939 203.15 186.045 203.835 189.307C204.557 192.743 206.284 193.517 203.89 195.837L203.891 195.839Z" stroke="#353737" stroke-opacity="0.6" stroke-width="1.6929" stroke-miterlimit="10"/>
<path id="Vector_6" d="M227.008 222.506C224.566 224.877 223.491 222.28 220.087 222.28C216.683 222.28 216.682 222.169 213.278 222.169C209.873 222.169 209.874 222.514 206.47 222.514C203.066 222.514 203.065 222.599 199.661 222.599C196.256 222.599 196.257 222.145 192.853 222.145C189.449 222.145 189.448 222.306 186.044 222.306C182.639 222.306 182.64 222.224 179.235 222.224C175.831 222.224 175.831 222.529 172.426 222.529C169.022 222.529 169.022 222.445 165.618 222.445C162.213 222.445 162.213 222.372 158.809 222.372C155.405 222.372 155.405 222.272 152 222.272C148.595 222.272 148.595 222.526 145.19 222.526C141.786 222.526 141.786 222.273 138.381 222.273C134.976 222.273 134.976 222.212 131.572 222.212C128.167 222.212 128.167 222.313 124.762 222.313C121.357 222.313 121.359 222.397 117.956 222.397C114.552 222.397 114.551 222.657 111.147 222.657C107.742 222.657 107.744 222.239 104.34 222.239C100.936 222.239 100.935 222.132 97.5309 222.132C94.1264 222.132 94.1259 222.248 90.7209 222.248C87.3159 222.248 87.3165 222.497 83.912 222.497C80.5076 222.497 80.5076 222.511 77.1026 222.511C73.6977 222.511 73.6977 222.218 70.2927 222.218C66.8877 222.218 66.8871 222.467 63.4816 222.467C60.076 222.467 60.0766 222.386 56.6716 222.386C53.2666 222.386 53.2666 222.338 49.8611 222.338C46.4555 222.338 46.4555 222.137 43.0505 222.137C39.6455 222.137 39.6461 222.159 36.2422 222.159C32.8373 222.159 32.8373 222.145 29.4317 222.145C26.0262 222.145 26.0256 222.572 22.6189 222.572C19.2122 222.572 19.2139 222.439 15.8084 222.439C12.4028 222.439 12.4006 222.284 8.99333 222.284C5.58609 222.284 4.56752 224.819 2.12128 222.447C-0.251034 220.146 2.30919 219.083 2.30919 215.778C2.30919 212.472 1.99488 212.473 1.99488 209.169C1.99488 205.865 2.0688 205.862 2.0688 202.555C2.0688 199.249 -0.0337789 198.411 2.33797 196.107C4.7797 193.735 5.58213 195.825 8.98599 195.825C12.3899 195.825 12.3904 196.12 15.7948 196.12C19.1993 196.12 19.1987 195.894 22.6026 195.894C26.0064 195.894 26.0075 195.881 29.412 195.881C32.8164 195.881 32.8158 195.813 36.2197 195.813C39.6235 195.813 39.6247 195.884 43.0291 195.884C46.4335 195.884 46.4329 195.665 49.8374 195.665C53.2418 195.665 53.2418 195.729 56.6462 195.729C60.0506 195.729 60.0506 196.038 63.4551 196.038C66.8595 196.038 66.8595 195.943 70.2633 195.943C73.6672 195.943 73.6677 195.831 77.0727 195.831C80.4777 195.831 80.4777 196.132 83.8827 196.132C87.2877 196.132 87.2871 195.73 90.6921 195.73C94.0971 195.73 94.0965 196.056 97.501 196.056C100.905 196.056 100.905 196.027 104.31 196.027C107.715 196.027 107.714 196.122 111.117 196.122C114.52 196.122 114.521 195.674 117.926 195.674C121.33 195.674 121.329 195.854 124.733 195.854C128.137 195.854 128.137 195.901 131.542 195.901C134.946 195.901 134.947 196.115 138.352 196.115C141.757 196.115 141.756 195.907 145.161 195.907C148.565 195.907 148.565 196.208 151.97 196.208C155.375 196.208 155.375 195.892 158.78 195.892C162.185 195.892 162.186 196.09 165.591 196.09C168.997 196.09 168.996 195.687 172.401 195.687C175.806 195.687 175.806 195.798 179.212 195.798C182.617 195.798 182.617 195.99 186.022 195.99C189.427 195.99 189.427 195.748 192.83 195.748C196.234 195.748 196.235 196.12 199.641 196.12C203.047 196.12 203.047 196.051 206.454 196.051C209.86 196.051 209.859 196.138 213.264 196.138C216.67 196.138 216.672 196.096 220.079 196.096C223.487 196.096 224.41 193.61 226.857 195.983C229.229 198.284 227.099 199.249 227.099 202.554C227.099 205.859 226.846 205.858 226.846 209.162C226.846 212.466 226.048 212.577 226.775 215.802C227.566 219.316 229.38 220.202 227.008 222.506Z" fill="#F2F1E5" stroke="#363737" stroke-opacity="0.6" stroke-width="1.6929" stroke-linecap="round" stroke-linejoin="round"/>
</g>
<path id="Vector_7" d="M87.2227 92.7536C87.2227 89.084 87.9077 85.4623 89.231 82.2712C90.6028 78.9632 92.5158 75.7168 95.0083 73.2243C97.5008 70.7318 101.023 69.4819 104.33 68.1106C107.521 66.7873 110.868 66.0408 114.537 66.0408C118.206 66.0408 121.525 66.8556 124.716 68.1789C128.024 69.5507 131.142 71.1641 133.634 73.6566C136.127 76.1491 137.968 79.1726 139.34 82.48C140.664 85.6705 142.082 89.084 142.082 92.7536" stroke="#353737" stroke-opacity="0.6" stroke-width="1.6929" stroke-miterlimit="10"/>
<path id="Vector_8" d="M114.002 65.6907C114.002 60.3225 114.152 60.3225 114.152 54.9538C114.152 49.585 114.308 49.5867 114.308 44.2202C114.308 38.8537 114.145 38.8515 114.145 33.4827C114.145 28.114 114.449 28.114 114.449 22.7447C114.449 17.3753 115.029 17.3748 115.029 12.0049C115.029 6.63502 114.505 6.63502 114.505 1.26514" stroke="#353737" stroke-width="1.6929" stroke-miterlimit="10"/>
<path id="Vector_9" d="M50.3416 27.6265C54.1348 31.4197 53.9931 31.5608 57.7864 35.354C61.5807 39.1483 61.5565 39.172 65.3508 42.9664C69.1463 46.7619 68.6401 47.2686 72.4356 51.0641C76.2311 54.8596 76.6729 54.4155 80.4673 58.2098C84.2644 62.007 84.3384 61.9325 88.1355 65.7297C91.9327 69.5269 91.663 69.796 95.4602 73.5926" stroke="#353737" stroke-opacity="0.6" stroke-width="1.6929" stroke-miterlimit="10"/>
<path id="Vector_10" d="M134.8 75.5034C138.593 71.7102 138.283 71.3998 142.076 67.6066C145.87 63.8123 146.23 64.1728 150.025 60.3785C153.82 56.583 153.399 56.1615 157.194 52.366C160.99 48.5705 161.379 48.9621 165.173 45.1678C168.97 41.3706 168.581 40.9818 172.378 37.1846C176.175 33.3875 176.645 33.8581 180.443 30.0609" stroke="#353737" stroke-opacity="0.6" stroke-width="1.6929" stroke-miterlimit="10"/>
</g>
</svg>
